<?xml version="1.0" encoding="UTF-8" ?>
<!DOCTYPE svg PUBLIC "-//W3C//DTD SVG 1.1//EN" "http://www.w3.org/Graphics/SVG/1.1/DTD/svg11.dtd">
<svg width="1136pt" height="1132pt" viewBox="0 0 1136 1132" version="1.1" xmlns="http://www.w3.org/2000/svg">
<g id="#662483ff">
<path fill="#662483" opacity="1.00" d=" M 521.52 0.00 L 522.39 0.00 C 537.65 0.40 551.70 7.08 565.01 13.93 C 573.71 18.43 582.33 23.13 591.31 27.08 C 609.88 21.09 627.11 11.16 646.35 7.22 C 656.30 5.14 666.92 5.57 676.35 9.58 C 681.05 11.43 685.38 14.07 689.64 16.75 C 702.37 14.50 716.10 15.78 727.22 22.76 C 745.90 34.16 758.33 52.76 774.11 67.48 C 795.94 68.25 818.20 63.74 839.70 69.22 C 852.21 72.28 862.44 81.04 869.75 91.37 C 879.40 93.33 889.08 96.72 896.63 103.25 C 906.16 111.42 912.05 122.81 917.09 134.09 C 922.10 145.40 926.30 157.07 931.88 168.12 C 947.46 174.30 963.97 177.87 979.34 184.62 C 988.14 188.52 996.64 193.69 1002.82 201.20 C 1008.17 207.65 1011.46 215.52 1013.76 223.51 C 1021.60 228.27 1029.10 234.08 1034.00 241.97 C 1040.92 253.00 1042.98 266.21 1043.97 278.98 C 1044.93 291.55 1044.85 304.19 1046.22 316.73 C 1056.22 325.55 1067.29 333.03 1077.51 341.59 C 1086.77 349.35 1095.70 358.22 1100.46 369.54 C 1104.13 378.07 1104.58 387.55 1104.00 396.70 C 1112.01 406.30 1117.87 418.24 1117.71 430.97 C 1117.72 453.31 1107.50 473.78 1102.43 495.16 C 1111.35 511.57 1123.30 526.30 1130.53 543.63 C 1133.53 550.60 1134.89 558.11 1136.00 565.57 L 1136.00 566.11 C 1134.79 574.40 1133.07 582.71 1129.49 590.35 C 1132.81 600.33 1134.73 611.16 1132.20 621.57 C 1128.86 635.82 1119.99 647.85 1111.34 659.34 C 1105.51 666.97 1099.53 674.50 1094.22 682.50 C 1097.23 704.35 1105.74 725.67 1103.91 748.01 C 1103.00 760.77 1096.01 772.12 1087.29 781.11 C 1087.16 791.82 1085.00 802.86 1078.86 811.83 C 1071.07 823.39 1059.28 831.33 1047.78 838.81 C 1039.30 844.27 1030.65 849.49 1022.55 855.52 C 1018.02 876.84 1018.59 899.48 1009.49 919.64 C 1004.32 931.49 993.92 940.13 982.42 945.52 C 978.80 954.71 973.73 963.63 966.01 969.98 C 956.08 978.24 943.51 982.29 931.19 985.40 C 919.46 988.33 907.51 990.38 895.90 993.80 C 887.20 1008.07 880.84 1023.66 871.52 1037.57 C 866.10 1045.61 859.43 1053.11 850.85 1057.86 C 843.66 1061.88 835.48 1063.64 827.36 1064.54 C 822.23 1070.40 816.44 1075.87 809.46 1079.48 C 800.75 1084.06 790.73 1085.42 781.00 1085.35 C 763.87 1085.19 747.07 1081.31 730.01 1080.21 C 716.92 1090.68 705.56 1103.19 691.97 1113.06 C 683.96 1118.85 674.92 1123.66 665.03 1125.08 C 657.05 1126.27 648.95 1125.10 641.19 1123.17 C 631.99 1128.23 621.65 1132.00 611.03 1131.64 C 586.39 1129.39 566.14 1113.91 544.02 1104.45 C 523.24 1111.17 503.94 1123.05 481.90 1125.35 C 469.00 1126.84 456.33 1121.99 445.84 1114.80 C 433.80 1116.81 420.86 1116.03 410.07 1109.85 C 393.17 1100.42 381.45 1084.54 368.16 1070.92 C 365.77 1068.67 363.78 1065.81 360.94 1064.16 C 347.95 1063.54 334.96 1065.05 321.97 1065.05 C 309.39 1065.10 296.23 1064.15 284.94 1058.07 C 277.09 1053.87 270.86 1047.27 265.65 1040.16 C 257.37 1038.46 249.12 1035.81 242.15 1030.90 C 234.06 1025.26 228.22 1017.00 223.61 1008.40 C 215.89 993.88 210.93 978.10 203.54 963.43 C 188.16 957.32 171.88 953.77 156.68 947.19 C 148.11 943.45 139.80 938.57 133.56 931.48 C 128.05 925.28 124.53 917.58 122.17 909.69 C 121.83 907.61 119.69 906.85 118.19 905.77 C 110.34 900.86 103.44 894.14 99.26 885.81 C 93.18 873.85 91.85 860.22 91.07 847.03 C 90.47 836.28 90.36 825.51 89.18 814.80 C 75.53 802.72 59.71 793.17 47.09 779.91 C 39.95 772.43 34.12 763.30 32.22 753.00 C 31.03 747.04 31.06 740.93 31.42 734.90 C 23.54 725.36 17.64 713.63 17.70 701.02 C 17.52 678.48 27.93 657.86 32.96 636.31 C 24.61 621.12 13.83 607.33 6.48 591.58 C 3.00 584.22 0.68 576.30 0.00 568.17 L 0.00 563.87 C 0.50 555.96 2.76 548.30 5.93 541.07 C 3.09 532.68 1.25 523.75 2.35 514.87 C 3.60 504.42 8.45 494.81 14.12 486.10 C 22.49 473.25 32.79 461.79 41.20 448.97 C 38.13 427.28 29.79 406.11 31.46 383.92 C 32.30 371.10 39.17 359.54 48.05 350.58 C 48.32 342.70 49.27 334.69 52.40 327.39 C 56.11 318.49 62.79 311.20 70.15 305.15 C 83.52 294.18 99.08 286.35 112.88 275.97 C 116.13 259.91 116.90 243.44 120.65 227.48 C 122.97 217.71 126.66 207.98 133.33 200.32 C 138.68 194.09 145.72 189.62 153.01 185.98 C 155.89 178.73 159.55 171.67 164.87 165.89 C 171.49 158.60 180.39 153.81 189.56 150.51 C 205.79 144.67 223.03 142.61 239.52 137.73 C 248.07 123.66 254.39 108.32 263.48 94.57 C 268.88 86.45 275.50 78.84 284.06 73.96 C 291.36 69.76 299.72 67.90 308.03 67.01 C 313.03 61.32 318.61 55.98 325.35 52.38 C 334.37 47.45 344.86 46.06 355.01 46.19 C 371.90 46.45 388.48 50.20 405.30 51.35 C 422.68 37.75 436.95 19.68 457.35 10.30 C 468.85 4.84 482.14 5.09 494.21 8.37 C 502.59 3.70 511.84 0.30 521.52 0.00 M 498.89 9.67 C 518.78 15.97 537.16 26.82 557.84 30.59 C 567.37 32.39 577.17 31.19 586.43 28.61 C 577.45 24.37 568.74 19.58 559.89 15.09 C 548.60 9.49 536.73 4.08 523.94 3.48 C 515.18 3.03 506.64 5.80 498.89 9.67 M 448.27 19.22 C 434.49 28.56 423.17 40.91 410.47 51.57 C 420.46 51.80 430.65 50.28 439.64 45.71 C 458.09 36.60 472.76 21.73 490.08 10.83 C 485.76 9.96 481.37 9.29 476.96 9.34 C 466.59 9.23 456.72 13.50 448.27 19.22 M 602.64 26.56 C 600.64 27.40 598.44 27.85 596.75 29.25 C 605.98 32.77 615.98 34.57 625.85 33.28 C 646.14 30.81 664.86 21.89 684.75 17.64 C 675.63 11.92 664.87 8.33 654.01 9.51 C 635.82 11.33 619.46 20.14 602.64 26.56 M 494.49 12.05 C 475.63 23.37 460.10 39.72 440.11 49.20 C 429.75 54.25 417.99 55.45 406.61 54.74 C 398.12 61.21 388.71 66.92 378.08 68.96 C 357.60 73.10 336.71 69.26 316.04 69.90 C 313.91 70.07 311.66 69.79 309.63 70.50 C 295.26 87.82 286.38 109.32 270.03 125.07 C 262.23 132.78 252.05 137.44 241.69 140.62 C 237.74 146.84 233.32 152.84 227.83 157.79 C 222.21 162.86 215.54 166.59 208.64 169.62 C 191.43 177.14 172.74 180.62 155.68 188.51 C 148.08 209.44 147.01 232.31 137.62 252.65 C 132.95 262.98 124.75 271.18 115.87 278.00 C 114.31 284.89 112.28 291.73 109.02 298.03 C 105.31 305.24 99.89 311.41 94.00 316.92 C 80.52 329.46 64.54 339.01 51.43 351.98 C 51.58 374.46 58.47 396.55 56.42 419.10 C 55.48 430.22 50.63 440.53 44.71 449.83 C 46.25 461.22 46.11 473.15 41.84 483.99 C 33.97 504.59 18.90 521.32 9.58 541.20 C 17.68 563.38 32.96 582.62 37.88 605.99 C 39.96 615.89 38.73 626.12 36.56 635.89 C 41.65 645.47 45.54 655.98 45.59 666.96 C 45.96 689.75 37.08 711.30 34.93 733.80 C 43.76 744.06 54.22 752.71 64.00 762.02 C 74.41 771.94 84.70 783.01 89.01 797.06 C 90.82 802.28 91.39 807.82 92.56 813.18 C 100.47 820.54 107.81 828.95 111.61 839.22 C 119.76 860.50 118.81 883.80 124.49 905.69 C 136.57 912.49 149.72 917.02 162.36 922.62 C 175.13 928.24 188.03 935.05 196.76 946.27 C 200.47 950.71 203.10 955.88 206.15 960.75 C 211.31 963.15 216.56 965.45 221.28 968.69 C 230.75 974.84 237.66 984.09 243.35 993.68 C 251.65 1007.58 257.86 1022.67 266.96 1036.10 C 267.73 1037.52 269.56 1037.26 270.90 1037.61 C 294.14 1041.07 318.58 1037.48 340.91 1046.09 C 349.03 1049.34 355.99 1054.79 362.50 1060.51 C 367.33 1061.33 372.34 1061.24 377.15 1062.39 C 385.84 1063.98 393.95 1067.84 401.16 1072.88 C 417.53 1084.24 430.41 1099.82 446.72 1111.24 C 468.56 1107.20 488.87 1096.84 511.11 1094.75 C 522.48 1093.54 533.78 1096.49 544.19 1100.86 C 554.75 1097.51 566.00 1095.59 577.03 1097.46 C 599.45 1101.08 619.07 1113.51 640.78 1119.52 C 659.76 1108.27 675.28 1091.79 695.35 1082.31 C 705.73 1077.25 717.50 1076.13 728.89 1076.78 C 737.46 1070.11 747.14 1064.43 757.94 1062.45 C 780.34 1058.12 803.13 1063.14 825.68 1061.27 C 840.45 1043.27 849.56 1020.90 866.95 1005.01 C 874.49 998.09 884.05 993.93 893.71 990.91 C 900.31 980.10 909.21 970.40 920.73 964.80 C 939.33 955.17 960.42 951.97 979.35 943.15 C 981.09 940.38 981.57 936.97 982.63 933.89 C 988.08 914.89 989.83 894.63 998.84 876.78 C 1003.56 867.38 1011.28 859.92 1019.52 853.57 C 1021.36 845.46 1023.86 837.38 1028.22 830.24 C 1032.93 822.54 1039.43 816.12 1046.27 810.30 C 1058.61 799.82 1072.32 791.00 1083.93 779.65 C 1083.88 757.34 1077.04 735.44 1078.93 713.06 C 1079.77 701.76 1084.58 691.21 1090.67 681.81 C 1089.29 670.90 1089.20 659.54 1093.02 649.08 C 1100.57 627.83 1116.28 610.87 1125.64 590.52 C 1125.26 587.92 1123.83 585.57 1122.90 583.14 C 1114.86 564.68 1102.96 547.80 1098.06 528.06 C 1095.29 517.37 1096.50 506.19 1098.83 495.55 C 1094.43 487.31 1090.89 478.42 1090.08 469.04 C 1088.18 444.74 1098.16 421.72 1100.50 397.82 C 1085.78 380.46 1065.95 367.84 1053.20 348.75 C 1047.07 339.76 1044.39 329.01 1042.98 318.36 C 1035.83 311.93 1029.26 304.56 1025.26 295.73 C 1015.43 273.78 1017.05 249.03 1010.88 226.13 C 1006.08 222.68 1000.32 220.63 994.96 218.12 C 979.22 211.28 962.53 205.81 948.75 195.26 C 940.31 188.90 934.28 179.99 929.40 170.75 C 923.02 168.09 916.77 164.98 911.24 160.81 C 905.12 156.24 900.17 150.29 895.92 143.99 C 885.31 128.18 878.62 110.09 867.74 94.44 C 846.34 90.77 824.25 93.38 803.06 88.23 C 792.52 85.79 783.04 80.02 775.06 72.83 C 774.02 72.10 773.21 70.78 771.83 70.75 C 765.83 70.36 759.80 69.77 753.99 68.16 C 746.17 66.12 739.01 62.13 732.50 57.43 C 716.96 46.18 704.42 31.33 688.71 20.31 C 666.46 24.37 645.79 35.11 623.08 36.88 C 612.09 37.82 601.24 34.87 591.18 30.69 C 579.85 34.35 567.64 36.12 555.86 33.65 C 534.39 29.53 515.48 17.69 494.49 12.05 M 693.55 19.58 C 709.60 31.69 722.69 47.42 739.75 58.23 C 748.43 63.87 758.69 66.52 768.95 67.22 C 760.92 59.18 753.53 50.53 745.63 42.37 C 737.76 34.37 729.21 26.57 718.70 22.27 C 710.77 18.99 701.98 18.59 693.55 19.58 M 330.56 53.60 C 323.71 56.44 317.91 61.28 312.88 66.65 C 333.63 65.60 354.51 69.55 375.14 66.12 C 384.75 64.61 393.59 60.12 401.36 54.41 C 387.20 53.15 373.21 50.37 359.00 49.66 C 349.41 49.22 339.50 49.82 330.56 53.60 M 777.95 70.93 C 785.46 77.48 794.25 82.79 804.06 85.02 C 824.01 89.75 844.74 87.72 864.94 90.58 C 860.41 84.93 855.12 79.72 848.66 76.32 C 840.20 71.81 830.49 70.38 821.02 69.96 C 806.65 69.42 792.31 70.95 777.95 70.93 M 284.57 77.56 C 276.63 82.44 270.60 89.81 265.57 97.54 C 257.59 109.91 251.69 123.46 244.37 136.20 C 255.02 132.77 264.83 126.67 272.09 118.10 C 284.84 103.61 293.26 86.00 305.00 70.75 C 297.87 71.80 290.74 73.73 284.57 77.56 M 872.53 95.42 C 883.66 112.61 890.61 132.33 903.41 148.47 C 909.55 156.38 918.03 162.09 927.10 166.12 C 923.67 158.70 920.60 151.12 917.49 143.57 C 912.25 131.19 906.88 118.39 897.41 108.57 C 890.80 101.63 881.75 97.59 872.53 95.42 M 196.10 151.87 C 186.60 154.82 177.13 158.85 169.78 165.71 C 164.32 170.75 160.44 177.22 157.48 183.97 C 176.47 175.92 197.26 172.50 215.44 162.49 C 224.25 157.75 231.26 150.31 236.76 142.04 C 223.27 145.60 209.45 147.80 196.10 151.87 M 934.31 172.68 C 937.74 178.71 941.74 184.50 946.85 189.24 C 953.41 195.33 961.31 199.72 969.35 203.54 C 982.60 209.78 996.53 214.49 1009.55 221.23 C 1007.31 214.46 1004.22 207.86 999.48 202.47 C 993.24 195.30 984.75 190.55 976.10 186.89 C 962.51 181.20 948.13 177.74 934.31 172.68 M 134.78 203.84 C 129.21 210.80 126.09 219.34 124.00 227.91 C 120.47 242.69 119.59 257.92 116.90 272.86 C 124.71 266.55 131.52 258.76 135.41 249.41 C 143.42 230.62 145.04 209.95 151.36 190.63 C 145.13 194.02 139.21 198.23 134.78 203.84 M 1014.98 228.27 C 1019.55 248.29 1019.37 269.27 1026.07 288.82 C 1029.21 298.31 1035.30 306.49 1042.49 313.33 C 1041.74 304.25 1041.52 295.14 1041.06 286.05 C 1040.30 272.81 1039.18 259.07 1033.05 247.07 C 1029.07 239.15 1022.36 232.99 1014.98 228.27 M 77.01 304.06 C 69.43 309.73 62.16 316.24 57.49 324.60 C 53.63 331.45 52.06 339.33 51.56 347.11 C 66.39 333.33 84.33 323.13 97.97 308.04 C 104.94 300.51 109.25 290.94 111.70 281.06 C 100.35 289.04 88.18 295.80 77.01 304.06 M 1046.91 321.83 C 1048.37 331.65 1051.68 341.31 1057.67 349.32 C 1069.86 365.95 1087.07 377.84 1100.85 393.02 C 1101.02 385.94 1100.45 378.71 1097.85 372.06 C 1094.31 362.83 1087.64 355.23 1080.45 348.63 C 1069.86 338.98 1057.90 330.99 1046.91 321.83 M 34.57 388.02 C 34.24 406.11 40.10 423.46 43.24 441.10 C 43.33 442.20 43.86 443.20 44.11 444.28 C 49.32 435.72 52.88 426.04 53.31 415.96 C 54.38 395.61 48.83 375.69 48.14 355.42 C 39.94 364.24 34.52 375.83 34.57 388.02 M 1103.48 401.49 C 1100.99 420.80 1094.34 439.41 1093.23 458.92 C 1092.40 469.92 1095.12 480.89 1100.09 490.67 C 1105.09 471.53 1113.67 453.02 1114.36 432.99 C 1114.91 421.53 1110.43 410.43 1103.48 401.49 M 8.89 503.04 C 4.32 513.65 4.53 525.75 8.04 536.64 C 17.27 518.37 30.91 502.53 38.47 483.39 C 42.23 474.14 42.83 463.97 41.85 454.13 C 30.70 470.29 16.53 484.69 8.89 503.04 M 1101.32 500.15 C 1099.29 510.23 1099.08 520.82 1102.23 530.70 C 1108.16 550.21 1120.13 567.07 1127.75 585.87 C 1132.16 575.22 1133.47 563.11 1129.91 552.02 C 1124.06 532.92 1111.13 517.25 1101.32 500.15 M 7.64 545.68 C 3.27 556.31 1.92 568.36 5.46 579.43 C 11.30 598.51 24.17 614.19 34.03 631.25 C 36.31 620.96 36.21 610.07 32.92 600.01 C 26.88 580.86 15.19 564.20 7.64 545.68 M 1097.27 647.28 C 1093.26 656.76 1092.49 667.25 1093.57 677.40 C 1104.68 661.28 1118.80 646.92 1126.46 628.64 C 1131.08 617.99 1130.86 605.85 1127.39 594.90 C 1118.23 612.87 1104.95 628.54 1097.27 647.28 M 21.04 699.05 C 20.60 710.34 25.08 721.23 31.92 730.04 C 34.54 709.55 41.97 689.77 42.26 668.98 C 42.51 659.17 39.63 649.60 35.34 640.88 C 30.24 660.15 21.59 678.84 21.04 699.05 M 1091.46 686.89 C 1086.36 695.42 1082.62 704.95 1082.14 714.97 C 1080.89 735.53 1086.57 755.65 1087.26 776.13 C 1092.22 770.49 1096.55 764.13 1098.75 756.89 C 1101.67 747.38 1101.14 737.23 1099.71 727.51 C 1097.63 713.84 1093.85 700.50 1091.46 686.89 M 34.56 738.53 C 33.87 750.26 36.98 762.30 44.40 771.55 C 56.47 787.05 73.67 797.18 88.50 809.72 C 86.96 798.97 82.97 788.50 76.09 780.01 C 63.97 764.53 47.75 753.01 34.56 738.53 M 1037.00 823.99 C 1030.26 831.43 1026.10 840.81 1023.71 850.47 C 1039.77 838.99 1058.18 830.35 1071.68 815.62 C 1079.56 807.21 1083.36 795.78 1083.84 784.42 C 1068.87 798.37 1050.67 808.61 1037.00 823.99 M 92.91 818.23 C 94.16 832.64 93.81 847.16 95.73 861.52 C 97.03 870.89 99.40 880.39 104.65 888.39 C 108.63 894.53 114.34 899.32 120.43 903.27 C 115.83 883.22 116.04 862.20 109.30 842.63 C 106.15 833.19 100.09 825.01 92.91 818.23 M 1000.03 882.06 C 991.98 900.87 990.37 921.58 984.05 940.93 C 993.80 935.83 1002.33 927.95 1006.69 917.70 C 1014.81 899.08 1014.83 878.38 1018.49 858.68 C 1010.72 864.99 1003.91 872.74 1000.03 882.06 M 125.85 910.31 C 128.14 917.28 131.37 924.09 136.35 929.56 C 142.57 936.47 150.86 941.06 159.33 944.66 C 172.92 950.34 187.28 953.81 201.11 958.85 C 196.14 949.89 189.44 941.75 180.76 936.17 C 163.77 924.95 143.80 919.69 125.85 910.31 M 919.38 969.39 C 910.82 974.11 904.02 981.42 898.65 989.50 C 919.10 983.86 941.30 982.21 959.58 970.58 C 968.04 965.17 974.04 956.69 977.93 947.56 C 958.74 955.72 937.67 959.10 919.38 969.39 M 208.29 965.42 C 214.03 977.65 218.49 990.44 224.42 1002.59 C 228.75 1011.36 233.97 1020.02 241.64 1026.30 C 247.74 1031.33 255.26 1034.27 262.88 1036.12 C 251.70 1018.90 244.77 999.11 231.91 982.96 C 225.78 975.10 217.32 969.44 208.29 965.42 M 864.29 1012.37 C 850.97 1027.03 842.44 1045.18 830.39 1060.80 C 841.59 1059.40 852.56 1054.71 860.26 1046.29 C 873.99 1031.63 881.06 1012.45 891.03 995.32 C 880.87 998.67 871.38 1004.28 864.29 1012.37 M 270.48 1040.96 C 278.09 1051.18 289.48 1058.53 302.18 1060.31 C 320.49 1063.36 339.05 1060.45 357.47 1060.63 C 350.02 1054.13 341.33 1048.83 331.62 1046.59 C 311.59 1041.77 290.77 1043.83 270.48 1040.96 M 366.43 1064.32 C 380.61 1078.18 392.37 1094.92 409.40 1105.58 C 418.97 1111.73 430.73 1113.46 441.88 1111.97 C 425.60 1099.74 412.40 1083.69 395.00 1072.91 C 386.46 1067.50 376.43 1065.03 366.43 1064.32 M 760.07 1065.46 C 750.53 1066.99 741.76 1071.45 734.05 1077.13 C 748.38 1078.40 762.55 1081.25 776.94 1081.90 C 786.37 1082.29 796.11 1081.65 804.89 1077.92 C 811.72 1075.07 817.51 1070.25 822.52 1064.89 C 801.71 1065.96 780.75 1061.95 760.07 1065.46 M 692.44 1087.52 C 675.52 1096.80 661.57 1110.44 645.31 1120.72 C 651.48 1121.97 657.84 1122.70 664.12 1121.82 C 673.23 1120.61 681.58 1116.26 689.01 1111.03 C 701.95 1101.84 712.80 1090.16 724.93 1079.99 C 713.67 1079.58 702.27 1081.89 692.44 1087.52 M 510.12 1098.20 C 489.62 1100.55 470.74 1109.61 450.67 1113.90 C 460.51 1120.20 472.43 1123.65 484.13 1121.73 C 503.57 1118.85 520.91 1108.97 539.25 1102.51 C 530.01 1098.96 520.02 1096.96 510.12 1098.20 M 549.21 1103.03 C 567.00 1111.25 583.62 1122.66 602.97 1126.99 C 614.33 1129.69 626.32 1127.27 636.49 1121.83 C 617.78 1115.93 600.46 1106.05 581.24 1101.67 C 570.70 1099.18 559.51 1099.69 549.21 1103.03 Z" />
</g>
<g id="#ab22baff">
<path fill="#ab22ba" opacity="1.00" d=" M 444.43 247.52 C 451.43 245.14 460.36 247.05 464.25 253.75 C 467.00 258.16 465.89 263.91 462.96 267.94 C 458.67 274.07 451.91 277.67 446.01 282.02 C 419.08 301.33 397.40 327.31 381.05 356.00 C 363.09 387.48 351.11 422.14 343.78 457.57 C 338.96 481.30 336.34 505.86 339.96 529.95 C 342.68 548.28 349.60 566.23 361.34 580.71 C 376.01 599.00 397.04 611.61 419.56 617.67 C 424.67 618.97 430.28 623.02 429.46 628.96 C 428.97 632.99 424.55 633.92 421.55 635.51 C 416.73 638.12 414.50 643.44 411.91 647.98 C 402.64 664.65 386.95 677.05 369.60 684.53 C 350.30 692.92 328.83 695.06 307.99 693.74 C 292.11 692.69 276.36 689.94 260.96 685.98 C 245.07 681.78 229.39 675.08 217.26 663.72 C 200.75 648.38 190.34 627.13 186.47 605.07 C 180.37 570.98 189.72 534.47 211.70 507.67 C 230.01 484.92 255.92 468.48 284.20 461.27 C 292.88 459.03 301.96 456.81 309.08 451.05 C 319.88 442.47 325.72 429.29 329.22 416.26 C 334.92 393.57 339.64 370.46 348.85 348.85 C 359.94 322.39 378.57 299.82 399.34 280.33 C 409.05 271.31 419.38 262.96 430.14 255.22 C 434.56 252.08 439.21 249.11 444.43 247.52 M 301.77 489.84 C 273.96 502.15 254.42 531.52 254.41 562.02 C 254.41 578.09 259.17 593.77 265.74 608.31 C 270.12 617.98 275.23 627.62 282.93 635.09 C 289.84 641.89 299.29 646.26 309.05 646.34 C 312.72 646.49 316.30 645.47 319.95 645.29 C 334.67 644.92 349.59 641.86 362.55 634.65 C 335.33 606.98 316.56 571.01 309.67 532.79 C 307.09 519.14 308.90 505.07 306.31 491.43 C 306.09 488.99 303.50 488.77 301.77 489.84 Z" />
<path fill="#ab22ba" opacity="1.00" d=" M 908.37 265.58 C 923.02 261.48 939.66 270.19 944.68 284.53 C 950.19 298.41 943.65 315.58 930.32 322.29 C 917.27 329.54 899.40 325.29 891.02 312.94 C 882.20 301.02 884.02 282.86 895.04 272.92 C 898.77 269.41 903.40 266.85 908.37 265.58 Z" />
<path fill="#ab22ba" opacity="1.00" d=" M 505.46 331.61 C 519.91 328.69 535.44 337.87 539.90 351.91 C 545.11 366.24 537.59 383.55 523.61 389.58 C 510.40 395.93 493.17 390.97 485.34 378.58 C 476.93 366.36 479.35 348.27 490.72 338.72 C 494.86 335.07 500.01 332.57 505.46 331.61 Z" />
<path fill="#ab22ba" opacity="1.00" d=" M 883.17 334.20 C 899.09 330.62 917.09 339.11 923.91 354.08 C 929.75 366.48 927.75 380.84 924.35 393.63 C 915.62 424.01 893.98 448.24 881.91 477.12 C 880.16 481.20 879.63 487.31 884.02 489.91 C 888.73 492.12 894.21 490.01 898.38 487.49 C 908.62 480.89 914.28 469.71 921.03 459.96 C 923.98 455.63 927.62 451.05 933.03 449.91 C 940.89 448.02 949.42 453.96 950.53 461.93 C 951.58 469.00 948.11 475.69 944.60 481.57 C 936.21 495.65 925.50 508.65 911.81 517.85 C 903.33 523.54 893.33 527.45 882.99 527.11 C 872.61 526.99 861.21 524.03 854.54 515.50 C 848.92 508.36 848.72 498.65 849.92 490.04 C 852.50 470.48 862.44 453.03 872.29 436.32 C 879.80 423.85 886.76 411.04 892.69 397.74 C 895.79 390.54 898.23 382.90 898.48 375.01 C 898.59 371.62 897.49 367.44 893.94 366.18 C 889.06 364.59 884.06 367.50 879.13 366.38 C 870.40 364.94 863.32 354.98 866.61 346.38 C 869.49 339.72 876.46 335.96 883.17 334.20 Z" />
<path fill="#ab22ba" opacity="1.00" d=" M 826.50 380.76 C 831.59 379.31 837.72 380.52 841.12 384.81 C 845.20 389.91 846.05 396.72 846.40 403.04 C 846.85 418.20 843.86 433.21 840.47 447.92 C 837.42 460.72 833.72 473.36 829.62 485.86 C 826.05 497.18 821.79 508.70 813.65 517.62 C 805.46 526.84 793.44 532.88 781.01 532.95 C 774.04 533.03 766.81 530.03 762.89 524.09 C 757.39 515.78 755.83 505.66 754.76 495.96 C 753.95 487.34 752.83 478.75 752.36 470.10 C 751.58 457.70 751.54 445.26 750.68 432.86 C 750.28 426.09 746.40 419.95 740.92 416.08 C 735.19 411.30 726.83 408.59 724.24 400.94 C 721.29 392.67 727.91 383.83 735.96 382.01 C 744.21 380.12 752.83 382.28 760.43 385.58 C 771.95 390.47 780.00 401.40 783.61 413.14 C 789.70 432.92 786.03 454.19 791.79 474.03 C 793.16 478.43 794.76 482.87 797.44 486.66 C 799.41 488.86 802.50 486.55 803.24 484.35 C 811.99 464.16 813.10 441.83 814.78 420.18 C 815.73 410.28 814.58 400.07 817.66 390.46 C 819.02 386.18 821.96 381.99 826.50 380.76 Z" />
<path fill="#ab22ba" opacity="1.00" d=" M 472.51 419.67 C 483.93 417.49 496.45 417.51 506.93 423.12 C 518.87 429.35 526.78 441.91 528.45 455.14 C 529.97 469.30 526.00 483.35 521.76 496.73 C 515.98 515.26 502.23 529.69 494.19 547.11 C 490.33 555.56 487.29 564.63 487.18 574.01 C 487.11 580.33 488.85 586.98 493.27 591.67 C 496.39 594.98 501.88 596.68 505.89 593.95 C 510.00 591.13 511.50 586.12 513.58 581.85 C 517.24 573.91 520.78 565.29 527.94 559.83 C 534.69 554.68 544.66 555.91 551.08 560.99 C 555.80 564.78 557.49 571.13 557.29 576.96 C 556.95 586.52 553.41 595.66 548.85 603.96 C 544.98 610.74 540.27 617.44 533.36 621.41 C 518.00 630.82 499.08 632.81 481.52 630.27 C 469.46 628.53 457.29 623.06 450.04 612.93 C 443.30 603.42 441.47 591.40 441.44 580.00 C 441.43 560.12 447.94 540.47 459.01 524.03 C 467.16 511.67 477.18 500.20 482.00 485.98 C 484.73 476.52 486.77 466.80 487.36 456.95 C 487.38 453.15 487.66 448.87 485.34 445.62 C 483.43 443.27 480.03 444.52 478.00 446.00 C 474.27 448.88 471.76 453.02 468.19 456.08 C 458.81 464.67 447.23 472.43 434.03 472.32 C 430.68 472.66 428.09 469.98 426.73 467.22 C 423.69 461.02 422.96 453.44 425.89 447.06 C 429.21 439.41 436.24 434.22 443.37 430.37 C 452.55 425.55 462.32 421.71 472.51 419.67 Z" />
<path fill="#ab22ba" opacity="1.00" d=" M 649.76 427.91 C 661.10 423.30 674.07 420.99 685.94 424.98 C 700.07 429.81 711.09 441.64 716.80 455.23 C 722.99 469.95 724.21 486.21 723.92 502.01 C 723.35 524.19 719.12 546.04 716.75 568.05 C 712.09 609.26 710.10 651.07 699.19 691.28 C 691.15 720.87 677.76 748.98 659.96 773.94 C 640.60 801.18 616.23 824.65 589.20 844.20 C 567.37 859.77 544.12 874.44 517.90 881.22 C 497.26 886.74 474.78 886.43 454.83 878.39 C 427.20 867.69 404.35 843.74 397.56 814.58 C 394.99 804.74 395.71 793.34 402.13 785.07 C 405.55 780.68 411.12 776.93 416.93 778.38 C 421.83 779.55 424.58 784.16 426.65 788.37 C 434.60 802.89 449.65 811.98 465.16 816.55 C 503.86 827.78 546.31 823.61 582.87 807.08 C 611.69 793.75 635.33 770.25 650.15 742.29 C 656.45 730.73 660.74 718.23 664.41 705.62 C 677.74 661.71 688.23 616.74 692.22 570.95 C 693.51 559.96 691.10 548.90 692.40 537.91 C 679.16 549.38 664.00 558.91 647.35 564.51 C 635.31 568.45 621.72 570.05 609.74 565.08 C 598.44 560.46 590.39 550.17 586.01 539.06 C 581.24 526.82 581.80 513.10 585.37 500.64 C 590.23 483.74 599.81 468.49 611.53 455.51 C 622.20 443.85 634.92 433.67 649.76 427.91 M 677.24 451.26 C 669.91 454.98 665.42 462.35 660.99 468.97 C 652.25 482.22 647.89 498.17 648.50 514.02 C 648.83 521.47 648.85 529.59 653.05 536.06 C 655.03 539.18 659.44 539.47 662.22 537.26 C 676.85 527.13 688.51 511.77 691.84 494.05 C 694.72 479.43 690.79 463.89 682.13 451.89 C 681.09 450.11 678.79 450.62 677.24 451.26 Z" />
</g>
</svg>
