<?xml version="1.0" encoding="UTF-8"?>
<svg id="Capa_2" data-name="Capa 2" xmlns="http://www.w3.org/2000/svg" version="1.1" viewBox="0 0 168.3 78.3">
  <g id="Capa_1-2" data-name="Capa 1-2">
    <g id="Grupo_69" data-name="Grupo 69">
      <g id="Grupo_37-2" data-name="Grupo 37-2">
        <g id="Rectángulo_71-2" data-name="Rectángulo 71-2">
          <rect x="0" y="0" width="162.4" height="78.3" rx="9.8" ry="9.8" fill="#837c6e" stroke-width="0"/>
          <rect x="1" y="1" width="160.5" height="76.3" rx="8.8" ry="8.8" fill="none" stroke="#000"/>
        </g>
        <g id="Rectángulo_69-2" data-name="Rectángulo 69-2">
          <rect x="5.9" y="0" width="162.4" height="78.3" rx="9.8" ry="9.8" fill="#f1e4cc" stroke-width="0"/>
          <rect x="6.9" y="1" width="160.5" height="76.3" rx="8.8" ry="8.8" fill="none" stroke="#000" stroke-linecap="round"/>
        </g>
        <line id="Línea_2-2" data-name="Línea 2-2" x1="89.1" y1="70.5" x2="89.1" y2="7.8" fill="none" stroke="#a24949" stroke-linecap="round" stroke-width="3"/>
      </g>
      <g id="Corazón">
        <path id="Unión_1" data-name="Unión 1" d="M136,60.5l-2.5,2.5c-6,5.8-15.6,5.7-21.4-.3-5.7-5.9-5.7-15.2,0-21.1l2.5-2.5-2.5-2.5c-5.9-5.9-5.9-15.5,0-21.4,5.9-5.9,15.5-5.9,21.4,0h0l23.9,23.9-21.4,21.4h0Z" fill="#29cfd7" stroke-width="0"/>
      </g>
      <g id="_2" data-name=" 2" isolation="isolate">
        <g isolation="isolate">
          <text transform="translate(141.3 47) rotate(-90)" fill="#000" font-family="Poppins-Regular, Poppins" font-size="27.4" isolation="isolate"><tspan x="0" y="0">2</tspan></text>
        </g>
      </g>
    </g>
  </g>
  <metadata>
    <sfw xmlns="http://ns.adobe.com/SaveForWeb/1.0/">
      <slices/>
      <sliceSourceBounds x="-45.01" y="45.02" width="168.32" height="78.29" bottomLeftOrigin="true"/>
    </sfw>
  </metadata>
</svg>