<?xml version="1.0" encoding="UTF-8"?>
<svg id="Capa_2" data-name="Capa 2" xmlns="http://www.w3.org/2000/svg" version="1.1" viewBox="0 0 168.3 78.3">
  <defs>
    <style>
      .cls-1 {
        fill: #d77896;
      }

      .cls-1, .cls-2, .cls-3, .cls-4 {
        stroke-width: 0px;
      }

      .cls-5, .cls-6 {
        isolation: isolate;
      }

      .cls-2 {
        fill: #837c6e;
      }

      .cls-3 {
        fill: #cfbae3;
      }

      .cls-6 {
        fill: #000;
        font-family: Poppins-Regular, Poppins;
        font-size: 27.4px;
      }

      .cls-7 {
        stroke: #a24949;
        stroke-width: 3px;
      }

      .cls-7, .cls-8 {
        stroke-linecap: round;
      }

      .cls-7, .cls-8, .cls-9 {
        fill: none;
      }

      .cls-8, .cls-9 {
        stroke: #000;
      }

      .cls-4 {
        fill: #f1e4cc;
      }
    </style>
  </defs>
  <g id="Capa_1-2" data-name="Capa 1-2">
    <g id="Grupo_70" data-name="Grupo 70">
      <g id="Grupo_42" data-name="Grupo 42">
        <g id="Grupo_38-4" data-name="Grupo 38-4">
          <g id="Rectángulo_70-4" data-name="Rectángulo 70-4">
            <rect class="cls-2" x="0" y="0" width="162.4" height="78.3" rx="9.8" ry="9.8"/>
            <rect class="cls-9" x="1" y="1" width="160.5" height="76.3" rx="8.8" ry="8.8"/>
          </g>
          <g id="Rectángulo_68-4" data-name="Rectángulo 68-4">
            <rect class="cls-4" x="5.9" y="0" width="162.4" height="78.3" rx="9.8" ry="9.8"/>
            <rect class="cls-8" x="6.9" y="1" width="160.5" height="76.3" rx="8.8" ry="8.8"/>
          </g>
          <line id="Línea_1-4" data-name="Línea 1-4" class="cls-7" x1="89.1" y1="70.5" x2="89.1" y2="7.8"/>
        </g>
      </g>
      <g id="Estrella">
        <path id="Polígono_3" data-name="Polígono 3" class="cls-1" d="M116.9,14.9l14.2,12.3,14.2-12.3-3.5,18.4,17.8,6.2-17.8,6.1,3.6,18.4-14.2-12.3-14.2,12.3,3.5-18.4-17.8-6.2,17.8-6.1-3.6-18.4h0Z"/>
      </g>
      <g id="_6" data-name=" 6" class="cls-5">
        <g class="cls-5">
          <text class="cls-6" transform="translate(140.9 48.9) rotate(-90)"><tspan x="0" y="0">6</tspan></text>
        </g>
      </g>
    </g>
    <path id="Polígono_2" data-name="Polígono 2" class="cls-3" d="M28.4,39.7l47-27.4v54.8s-47-27.4-47-27.4Z"/>
    <g id="_5" data-name=" 5" class="cls-5">
      <g class="cls-5">
        <text class="cls-6" transform="translate(67.5 47.5) rotate(-90)"><tspan x="0" y="0">5</tspan></text>
      </g>
    </g>
  </g>
  <metadata>
    <sfw xmlns="http://ns.adobe.com/SaveForWeb/1.0/">
      <slices/>
      <sliceSourceBounds x="-45.01" y="45.02" width="168.32" height="78.29" bottomLeftOrigin="true"/>
    </sfw>
  </metadata>
</svg>