<?xml version="1.0" encoding="UTF-8"?>
<svg id="Capa_2" data-name="Capa 2" xmlns="http://www.w3.org/2000/svg" viewBox="0 0 78.29 168.32">
  <defs>
    <style>
      .cls-1 {
        fill: #000;
        font-family: Poppins-Regular, Poppins;
        font-size: 27.4px;
      }

      .cls-1, .cls-2 {
        isolation: isolate;
      }

      .cls-3 {
        fill: #837c6e;
      }

      .cls-3, .cls-4, .cls-5, .cls-6 {
        stroke-width: 0px;
      }

      .cls-4 {
        fill: #cfbae3;
      }

      .cls-7 {
        stroke: #a24949;
        stroke-width: 3px;
      }

      .cls-7, .cls-8 {
        stroke-linecap: round;
      }

      .cls-7, .cls-8, .cls-9 {
        fill: none;
      }

      .cls-8, .cls-9 {
        stroke: #000;
      }

      .cls-5 {
        fill: #1bd4d7;
      }

      .cls-6 {
        fill: #f1e4cc;
      }
    </style>
  </defs>
  <g id="Capa_1-2" data-name="Capa 1">
    <g>
      <g id="Grupo_66" data-name="Grupo 66">
        <g id="Grupo_65" data-name="Grupo 65">
          <g id="Grupo_38-2" data-name="Grupo 38-2">
            <g id="Rectángulo_70-2" data-name="Rectángulo 70-2">
              <rect class="cls-3" width="78.29" height="162.45" rx="9.79" ry="9.79"/>
              <rect class="cls-9" x=".98" y=".98" width="76.33" height="160.49" rx="8.81" ry="8.81"/>
            </g>
            <g id="Rectángulo_68-2" data-name="Rectángulo 68-2">
              <rect class="cls-6" y="5.87" width="78.29" height="162.45" rx="9.79" ry="9.79"/>
              <rect class="cls-8" x=".98" y="6.85" width="76.33" height="160.49" rx="8.81" ry="8.81"/>
            </g>
            <line id="Línea_1-2" data-name="Línea 1-2" class="cls-7" x1="7.83" y1="89.05" x2="70.46" y2="89.05"/>
          </g>
          <circle id="Elipse_24" data-name="Elipse 24" class="cls-4" cx="40.12" cy="51.87" r="24.47"/>
          <g id="_1" data-name=" 1" class="cls-2">
            <text class="cls-1" transform="translate(35.23 62.63)"><tspan x="0" y="0">1</tspan></text>
          </g>
        </g>
      </g>
      <g id="Corazón-2">
        <path id="Unión_1-2" data-name="Unión 1-2" class="cls-5" d="M18.64,130.33l-2.52-2.52c-5.83-5.99-5.69-15.58.31-21.4,5.87-5.71,15.22-5.71,21.1,0l2.52,2.52,2.52-2.52c5.91-5.91,15.49-5.91,21.41,0,5.91,5.91,5.91,15.49,0,21.41h0l-23.93,23.93-21.41-21.41Z"/>
      </g>
      <g id="_2-2" data-name=" 2-2" class="cls-2">
        <text class="cls-1" transform="translate(32.27 135.06)"><tspan x="0" y="0">2</tspan></text>
      </g>
    </g>
  </g>
</svg>