<?xml version="1.0" encoding="UTF-8"?>
<svg id="Capa_2" data-name="Capa 2" xmlns="http://www.w3.org/2000/svg" viewBox="0 0 78.29 168.32">
  <defs>
    <style>
      .cls-1 {
        fill: #000;
        font-family: Poppins-Regular, Poppins;
        font-size: 27.4px;
      }

      .cls-1, .cls-2 {
        isolation: isolate;
      }

      .cls-3 {
        fill: #837c6e;
      }

      .cls-3, .cls-4, .cls-5, .cls-6 {
        stroke-width: 0px;
      }

      .cls-4 {
        fill: #cfbae3;
      }

      .cls-7 {
        stroke: #a24949;
        stroke-width: 3px;
      }

      .cls-7, .cls-8 {
        stroke-linecap: round;
      }

      .cls-7, .cls-8, .cls-9 {
        fill: none;
      }

      .cls-5 {
        fill: #eded4a;
      }

      .cls-8, .cls-9 {
        stroke: #000;
      }

      .cls-6 {
        fill: #f1e4cc;
      }
    </style>
  </defs>
  <g id="Capa_1-2" data-name="Capa 1">
    <g id="Grupo_68" data-name="Grupo 68">
      <g id="Grupo_37-3" data-name="Grupo 37-3">
        <g id="Rectángulo_71-3" data-name="Rectángulo 71-3">
          <rect class="cls-3" width="78.29" height="162.45" rx="9.79" ry="9.79"/>
          <rect class="cls-9" x=".98" y=".98" width="76.33" height="160.49" rx="8.81" ry="8.81"/>
        </g>
        <g id="Rectángulo_69-3" data-name="Rectángulo 69-3">
          <rect class="cls-6" y="5.87" width="78.29" height="162.45" rx="9.79" ry="9.79"/>
          <rect class="cls-8" x=".98" y="6.85" width="76.33" height="160.49" rx="8.81" ry="8.81"/>
        </g>
        <line id="Línea_2-3" data-name="Línea 2-3" class="cls-7" x1="7.83" y1="89.05" x2="70.46" y2="89.05"/>
      </g>
      <g id="Luna-2">
        <path id="Sustracción_1-2" data-name="Sustracción 1-2" class="cls-5" d="M49.27,76.33c-3.76,0-7.48-.72-10.96-2.15-3.33-1.37-6.37-3.36-8.94-5.87-2.56-2.48-4.61-5.44-6.03-8.71-2.95-6.81-2.95-14.53,0-21.33,1.42-3.27,3.48-6.23,6.04-8.71,2.58-2.51,5.61-4.51,8.94-5.87,5.98-2.44,12.61-2.82,18.83-1.06-14.53,10.77-17.58,31.28-6.8,45.81,1.92,2.59,4.21,4.88,6.8,6.8-2.56.73-5.21,1.09-7.88,1.09Z"/>
      </g>
      <g id="_3-2" data-name=" 3-2" class="cls-2">
        <text class="cls-1" transform="translate(27.4 63.61)"><tspan x="0" y="0">3</tspan></text>
      </g>
    </g>
    <g id="Grupo_43" data-name="Grupo 43">
      <rect id="Rectángulo_72" data-name="Rectángulo 72" class="cls-4" x="15.66" y="106.66" width="48.93" height="48.93"/>
      <g id="_4" data-name=" 4" class="cls-2">
        <text class="cls-1" transform="translate(31.32 141.89)"><tspan x="0" y="0">4</tspan></text>
      </g>
    </g>
  </g>
</svg>