<?xml version="1.0" encoding="UTF-8" ?>
<!DOCTYPE svg PUBLIC "-//W3C//DTD SVG 1.1//EN" "http://www.w3.org/Graphics/SVG/1.1/DTD/svg11.dtd">
<svg width="1000pt" height="1000pt" viewBox="0 0 1000 1000" version="1.1" xmlns="http://www.w3.org/2000/svg">
<g id="#feb536ff">
<path fill="#feb536" opacity="1.00" d=" M 498.34 105.58 C 500.26 105.58 502.19 105.58 504.13 105.58 C 545.79 190.32 587.44 275.06 629.00 359.85 C 629.62 361.03 630.33 362.57 631.89 362.67 C 727.49 376.43 823.11 390.07 918.71 403.87 C 918.46 405.36 917.63 406.62 916.50 407.59 C 848.82 473.24 781.22 538.97 713.50 604.59 C 712.16 606.11 709.70 607.47 710.45 609.86 C 726.89 704.66 743.32 799.47 759.76 894.28 C 757.90 894.46 756.02 894.33 754.41 893.34 C 670.65 849.08 586.88 804.83 503.10 760.61 C 501.75 759.70 500.16 760.14 498.89 760.91 C 415.36 805.11 331.74 849.16 248.21 893.35 C 246.56 894.23 244.64 894.18 242.83 894.40 C 259.21 799.56 275.72 704.73 292.17 609.91 C 292.77 608.36 291.77 607.19 290.71 606.23 C 223.24 540.74 155.81 475.20 88.29 409.76 C 86.27 408.28 86.53 405.71 86.39 403.51 C 179.63 390.10 272.89 376.81 366.12 363.36 C 368.71 362.84 372.44 363.43 373.37 360.20 C 414.98 275.30 456.81 190.51 498.34 105.58 Z" />
</g>
</svg>
