<?xml version="1.0" encoding="UTF-8" ?>
<!DOCTYPE svg PUBLIC "-//W3C//DTD SVG 1.1//EN" "http://www.w3.org/Graphics/SVG/1.1/DTD/svg11.dtd">
<svg width="523pt" height="640pt" viewBox="0 0 523 640" version="1.1" xmlns="http://www.w3.org/2000/svg">
<g id="#55bf21ff">
<path fill="#55bf21" opacity="1.00" d=" M 240.19 0.00 L 241.59 0.00 C 262.85 3.61 284.23 6.47 305.47 10.15 C 307.99 21.66 312.16 32.71 316.31 43.71 C 329.67 78.07 345.44 111.43 361.46 144.61 C 410.00 243.17 459.22 341.40 508.25 439.72 C 513.15 449.34 517.68 459.16 523.00 468.56 L 523.00 469.34 C 516.11 471.67 509.22 474.01 502.39 476.48 C 495.15 472.81 486.99 471.26 478.91 472.23 C 476.58 463.70 475.60 454.89 473.76 446.25 C 467.89 418.71 460.49 391.07 446.67 366.33 C 444.07 362.06 441.70 357.44 437.83 354.17 C 434.66 351.53 429.17 352.95 427.85 356.91 C 426.55 360.29 429.11 363.48 430.76 366.23 C 439.96 378.95 445.43 393.87 450.33 408.65 C 454.05 420.68 457.43 432.83 459.89 445.19 C 462.13 454.92 463.17 464.91 466.03 474.51 C 464.64 474.84 463.27 475.20 461.90 475.58 C 457.80 469.61 454.66 463.08 451.39 456.64 C 434.11 422.22 416.88 387.78 399.58 353.37 C 383.30 322.22 367.95 290.60 352.10 259.23 C 355.36 254.71 358.01 249.70 359.26 244.23 C 363.00 228.91 363.72 212.95 362.63 197.25 C 360.98 177.31 355.07 156.75 341.29 141.72 C 327.24 126.01 304.73 119.93 284.28 122.92 C 282.42 117.35 280.09 111.81 276.08 107.42 C 285.37 106.50 294.70 105.45 304.05 105.94 C 313.05 106.33 321.25 110.61 328.80 115.19 C 335.84 119.42 341.61 125.37 348.39 129.97 C 343.99 118.09 334.67 108.54 323.95 102.09 C 308.12 92.99 289.20 90.76 271.26 92.41 C 266.37 82.09 262.31 71.40 258.23 60.73 C 250.74 41.23 244.34 21.26 240.28 0.75 L 240.19 0.00 Z" />
</g>
<g id="#88de26ff">
<path fill="#88de26" opacity="1.00" d=" M 240.28 0.75 C 244.34 21.26 250.74 41.23 258.23 60.73 C 262.31 71.40 266.37 82.09 271.26 92.41 C 267.53 92.83 263.82 93.48 260.12 94.12 C 260.00 96.06 259.89 98.01 259.78 99.96 C 257.49 98.31 255.20 96.66 252.91 95.02 C 251.68 100.34 251.52 105.88 252.90 111.20 C 260.65 110.11 268.33 108.52 276.08 107.42 C 280.09 111.81 282.42 117.35 284.28 122.92 C 275.49 124.99 266.96 129.08 260.70 135.71 C 249.24 147.95 244.27 164.74 241.95 180.99 C 240.60 193.27 239.64 205.68 240.66 218.03 C 241.43 230.80 243.14 243.80 248.42 255.57 C 251.63 262.46 256.74 269.41 264.43 271.48 C 271.24 272.96 278.26 271.88 285.10 271.17 C 307.59 268.21 330.10 264.84 352.10 259.23 C 367.95 290.60 383.30 322.22 399.58 353.37 C 416.88 387.78 434.11 422.22 451.39 456.64 C 454.66 463.08 457.80 469.61 461.90 475.58 C 455.12 477.21 448.75 480.42 443.88 485.47 C 401.75 479.75 359.49 474.97 317.27 469.92 C 311.49 469.18 305.68 468.62 299.88 468.03 C 283.97 466.19 268.05 464.44 252.10 463.01 C 247.65 462.61 243.20 462.25 238.75 461.94 C 181.09 457.89 123.20 459.35 65.57 462.99 C 72.98 429.72 82.30 396.90 92.01 364.23 C 93.38 359.57 94.78 354.92 96.21 350.28 C 104.27 324.26 112.75 298.37 121.71 272.65 C 124.15 265.56 126.87 258.56 128.99 251.36 C 133.67 254.68 139.39 255.85 144.89 257.10 C 160.06 260.64 175.33 263.80 190.69 266.37 C 197.04 267.34 203.48 268.60 209.93 267.91 C 214.23 267.49 218.00 264.98 220.91 261.91 C 226.53 256.09 229.61 248.37 231.74 240.69 C 235.27 227.44 236.35 213.67 236.17 200.00 C 236.36 182.26 234.09 163.67 224.83 148.18 C 218.56 137.43 207.24 129.81 194.88 128.23 C 189.29 127.58 183.64 127.65 178.04 128.12 C 181.06 121.86 184.03 115.56 186.47 109.05 C 200.67 109.91 214.72 112.48 228.48 116.05 C 230.98 111.31 230.79 105.90 229.84 100.77 C 227.39 102.18 224.96 103.61 222.54 105.06 C 222.65 103.12 222.76 101.19 222.87 99.26 C 212.95 97.19 202.80 95.96 192.66 96.47 C 207.80 64.21 223.58 32.24 240.28 0.75 M 306.67 294.16 C 314.12 296.07 321.62 298.13 328.18 302.30 C 320.55 316.89 307.04 327.72 292.03 334.05 C 279.45 339.57 265.55 340.83 251.98 341.37 C 233.90 342.41 215.85 340.47 197.78 340.28 C 205.13 341.65 212.56 342.54 219.88 344.11 C 235.93 347.20 251.61 351.91 267.57 355.43 C 277.59 357.46 288.21 359.38 298.21 356.23 C 307.38 353.43 314.03 345.61 318.21 337.30 C 323.73 326.68 326.13 314.89 329.18 303.43 C 334.71 307.24 337.48 313.44 340.16 319.35 C 340.51 312.69 339.45 305.41 334.42 300.57 C 327.28 293.28 316.15 293.09 306.67 294.16 Z" />
</g>
<g id="#4a9e13ff">
<path fill="#4a9e13" opacity="1.00" d=" M 271.26 92.41 C 289.20 90.76 308.12 92.99 323.95 102.09 C 334.67 108.54 343.99 118.09 348.39 129.97 C 341.61 125.37 335.84 119.42 328.80 115.19 C 321.25 110.61 313.05 106.33 304.05 105.94 C 294.70 105.45 285.37 106.50 276.08 107.42 C 268.33 108.52 260.65 110.11 252.90 111.20 C 251.52 105.88 251.68 100.34 252.91 95.02 C 255.20 96.66 257.49 98.31 259.78 99.96 C 259.89 98.01 260.00 96.06 260.12 94.12 C 263.82 93.48 267.53 92.83 271.26 92.41 Z" />
<path fill="#4a9e13" opacity="1.00" d=" M 192.66 96.47 C 202.80 95.96 212.95 97.19 222.87 99.26 C 222.76 101.19 222.65 103.12 222.54 105.06 C 224.96 103.61 227.39 102.18 229.84 100.77 C 230.79 105.90 230.98 111.31 228.48 116.05 C 214.72 112.48 200.67 109.91 186.47 109.05 C 181.05 108.50 175.48 108.58 170.24 110.27 C 156.65 114.50 145.16 123.37 134.77 132.83 C 138.55 124.24 144.26 116.49 151.66 110.67 C 163.17 101.35 178.05 97.18 192.66 96.47 Z" />
<path fill="#4a9e13" opacity="1.00" d=" M 306.67 294.16 C 316.15 293.09 327.28 293.28 334.42 300.57 C 339.45 305.41 340.51 312.69 340.16 319.35 C 337.48 313.44 334.71 307.24 329.18 303.43 C 326.13 314.89 323.73 326.68 318.21 337.30 C 314.03 345.61 307.38 353.43 298.21 356.23 C 288.21 359.38 277.59 357.46 267.57 355.43 C 251.61 351.91 235.93 347.20 219.88 344.11 C 212.56 342.54 205.13 341.65 197.78 340.28 C 215.85 340.47 233.90 342.41 251.98 341.37 C 265.55 340.83 279.45 339.57 292.03 334.05 C 307.04 327.72 320.55 316.89 328.18 302.30 C 321.62 298.13 314.12 296.07 306.67 294.16 Z" />
</g>
<g id="#b5e344ff">
<path fill="#b5e344" opacity="1.00" d=" M 284.28 122.92 C 304.73 119.93 327.24 126.01 341.29 141.72 C 355.07 156.75 360.98 177.31 362.63 197.25 C 363.72 212.95 363.00 228.91 359.26 244.23 C 358.01 249.70 355.36 254.71 352.10 259.23 C 330.10 264.84 307.59 268.21 285.10 271.17 C 278.26 271.88 271.24 272.96 264.43 271.48 C 256.74 269.41 251.63 262.46 248.42 255.57 C 243.14 243.80 241.43 230.80 240.66 218.03 C 239.64 205.68 240.60 193.27 241.95 180.99 C 244.27 164.74 249.24 147.95 260.70 135.71 C 266.96 129.08 275.49 124.99 284.28 122.92 M 287.39 132.53 C 280.81 133.57 274.41 136.05 269.11 140.13 C 260.03 146.98 254.41 157.40 251.09 168.09 C 245.41 186.38 245.25 205.82 246.41 224.77 C 247.79 237.60 249.91 251.34 258.28 261.67 C 262.64 267.29 270.00 269.74 276.94 268.71 C 299.16 266.56 321.26 262.89 343.05 258.06 C 350.20 256.86 352.48 249.05 354.10 243.04 C 358.69 223.27 359.03 202.40 354.36 182.61 C 350.99 168.69 344.33 155.15 333.45 145.59 C 321.02 134.70 303.59 130.44 287.39 132.53 Z" />
<path fill="#b5e344" opacity="1.00" d=" M 141.94 146.94 C 150.98 136.34 164.18 129.50 178.04 128.12 C 183.64 127.65 189.29 127.58 194.88 128.23 C 207.24 129.81 218.56 137.43 224.83 148.18 C 234.09 163.67 236.36 182.26 236.17 200.00 C 236.35 213.67 235.27 227.44 231.74 240.69 C 229.61 248.37 226.53 256.09 220.91 261.91 C 218.00 264.98 214.23 267.49 209.93 267.91 C 203.48 268.60 197.04 267.34 190.69 266.37 C 175.33 263.80 160.06 260.64 144.89 257.10 C 139.39 255.85 133.67 254.68 128.99 251.36 C 124.96 244.81 123.56 237.10 122.64 229.59 C 121.28 217.09 121.32 204.40 123.10 191.94 C 125.52 175.75 131.02 159.44 141.94 146.94 M 179.43 137.60 C 168.94 138.70 158.61 142.65 150.65 149.68 C 140.07 158.86 133.77 172.01 130.47 185.44 C 126.75 201.06 126.29 217.42 128.65 233.29 C 129.57 238.51 130.50 244.01 133.62 248.44 C 135.78 251.43 139.67 252.06 142.99 253.02 C 160.57 257.32 178.31 261.01 196.21 263.68 C 201.32 264.29 206.89 265.13 211.63 262.58 C 217.48 259.49 221.21 253.63 223.75 247.71 C 228.12 237.21 229.56 225.78 230.43 214.52 C 231.26 198.97 230.87 183.02 225.92 168.10 C 222.68 157.95 216.49 148.34 207.20 142.79 C 198.93 137.77 188.92 136.49 179.43 137.60 Z" />
</g>
<g id="#ffffffff">
<path fill="#ffffff" opacity="1.00" d=" M 287.39 132.53 C 303.59 130.44 321.02 134.70 333.45 145.59 C 344.33 155.15 350.99 168.69 354.36 182.61 C 359.03 202.40 358.69 223.27 354.10 243.04 C 352.48 249.05 350.20 256.86 343.05 258.06 C 321.26 262.89 299.16 266.56 276.94 268.71 C 270.00 269.74 262.64 267.29 258.28 261.67 C 249.91 251.34 247.79 237.60 246.41 224.77 C 245.25 205.82 245.41 186.38 251.09 168.09 C 254.41 157.40 260.03 146.98 269.11 140.13 C 274.41 136.05 280.81 133.57 287.39 132.53 M 288.54 176.01 C 293.38 178.95 298.05 183.27 298.55 189.27 C 299.96 198.28 292.08 207.17 283.00 207.01 C 277.40 207.30 272.85 203.63 269.10 199.92 C 267.28 211.27 269.77 223.63 277.95 232.07 C 289.30 244.91 310.30 247.17 324.19 237.17 C 336.85 228.67 342.60 211.60 337.77 197.14 C 334.59 187.16 326.76 178.79 316.99 175.00 C 307.89 171.40 297.40 171.93 288.54 176.01 Z" />
<path fill="#ffffff" opacity="1.00" d=" M 179.43 137.60 C 188.92 136.49 198.93 137.77 207.20 142.79 C 216.49 148.34 222.68 157.95 225.92 168.10 C 230.87 183.02 231.26 198.97 230.43 214.52 C 229.56 225.78 228.12 237.21 223.75 247.71 C 221.21 253.63 217.48 259.49 211.63 262.58 C 206.89 265.13 201.32 264.29 196.21 263.68 C 178.31 261.01 160.57 257.32 142.99 253.02 C 139.67 252.06 135.78 251.43 133.62 248.44 C 130.50 244.01 129.57 238.51 128.65 233.29 C 126.29 217.42 126.75 201.06 130.47 185.44 C 133.77 172.01 140.07 158.86 150.65 149.68 C 158.61 142.65 168.94 138.70 179.43 137.60 M 179.67 176.13 C 184.38 178.68 189.12 182.47 189.85 188.15 C 191.68 196.87 183.86 205.79 175.00 205.15 C 169.68 205.33 165.68 201.48 162.24 197.95 C 161.84 203.57 161.37 209.37 163.11 214.82 C 166.15 225.27 174.73 233.86 185.18 236.88 C 197.83 240.76 212.53 236.08 220.45 225.44 C 228.15 215.67 229.38 201.39 223.55 190.42 C 219.41 182.37 211.78 176.23 203.04 173.90 C 195.28 171.75 186.96 172.90 179.67 176.13 Z" />
</g>
<g id="#1c1c1cff">
<path fill="#1c1c1c" opacity="1.00" d=" M 179.67 176.13 C 186.96 172.90 195.28 171.75 203.04 173.90 C 211.78 176.23 219.41 182.37 223.55 190.42 C 229.38 201.39 228.15 215.67 220.45 225.44 C 212.53 236.08 197.83 240.76 185.18 236.88 C 174.73 233.86 166.15 225.27 163.11 214.82 C 161.37 209.37 161.84 203.57 162.24 197.95 C 165.68 201.48 169.68 205.33 175.00 205.15 C 183.86 205.79 191.68 196.87 189.85 188.15 C 189.12 182.47 184.38 178.68 179.67 176.13 M 202.32 211.21 C 198.50 212.29 197.59 217.93 200.84 220.18 C 203.98 222.74 209.42 220.11 209.05 216.00 C 209.19 212.62 205.44 210.07 202.32 211.21 Z" />
<path fill="#1c1c1c" opacity="1.00" d=" M 288.54 176.01 C 297.40 171.93 307.89 171.40 316.99 175.00 C 326.76 178.79 334.59 187.16 337.77 197.14 C 342.60 211.60 336.85 228.67 324.19 237.17 C 310.30 247.17 289.30 244.91 277.95 232.07 C 269.77 223.63 267.28 211.27 269.10 199.92 C 272.85 203.63 277.40 207.30 283.00 207.01 C 292.08 207.17 299.96 198.28 298.55 189.27 C 298.05 183.27 293.38 178.95 288.54 176.01 M 312.48 213.40 C 308.56 215.25 308.70 221.64 312.70 223.32 C 316.30 225.28 321.04 222.03 320.72 218.00 C 320.66 214.07 315.85 211.52 312.48 213.40 Z" />
</g>
<g id="#f5f5f5ff">
<path fill="#f5f5f5" opacity="1.00" d=" M 47.53 184.51 C 51.93 181.22 57.83 181.42 63.05 181.68 C 62.14 182.12 61.23 182.56 60.32 183.00 C 61.87 184.31 63.25 185.79 64.44 187.43 C 62.02 188.93 59.25 190.18 57.59 192.60 C 56.05 196.35 56.26 200.55 56.40 204.53 C 57.06 214.23 58.01 223.99 60.70 233.37 C 61.57 236.74 62.71 240.11 62.71 243.62 C 59.56 246.86 52.13 247.77 50.31 242.70 C 48.06 238.15 47.04 233.13 45.76 228.26 C 45.10 228.86 44.43 229.47 43.76 230.08 C 42.07 219.82 40.81 209.36 41.78 198.96 C 42.35 193.82 43.31 188.01 47.53 184.51 Z" />
<path fill="#f5f5f5" opacity="1.00" d=" M 48.60 249.01 C 53.66 248.27 58.81 247.27 63.93 248.07 C 68.30 248.73 69.90 253.97 69.80 257.80 C 69.79 259.82 67.57 260.41 66.03 260.93 C 60.50 262.41 54.77 263.10 49.33 264.94 C 49.13 259.63 49.04 254.31 48.60 249.01 Z" />
</g>
<g id="#e6e6e6ff">
<path fill="#e6e6e6" opacity="1.00" d=" M 63.05 181.68 C 64.35 181.98 65.64 182.32 66.92 182.72 C 65.38 193.13 62.24 203.44 63.04 214.07 C 63.85 226.25 66.11 238.56 71.40 249.64 C 73.31 253.56 73.75 257.94 73.80 262.24 C 67.62 266.25 59.88 266.72 53.67 270.68 C 50.27 272.83 47.19 275.66 45.19 279.19 C 42.97 283.18 42.67 287.87 42.40 292.34 C 41.70 288.95 40.89 285.38 41.89 281.96 C 43.37 276.95 46.85 272.90 49.73 268.65 C 46.30 270.64 41.67 272.19 40.50 276.43 C 38.94 283.20 40.68 290.46 38.02 297.03 C 36.09 302.07 30.79 305.00 25.64 305.62 C 21.04 306.08 16.45 305.17 11.88 304.73 C 10.75 303.21 9.74 301.61 8.78 299.99 C 12.63 301.60 16.36 303.59 20.45 304.56 C 23.10 305.17 25.45 303.38 27.75 302.35 C 24.03 299.00 19.21 295.87 18.19 290.60 C 17.39 286.01 19.97 281.81 21.81 277.80 C 20.74 277.39 19.68 276.98 18.61 276.61 C 21.92 275.15 25.01 273.05 28.57 272.22 C 32.39 271.70 36.26 272.95 40.07 272.20 C 44.02 271.16 46.69 267.82 49.33 264.94 C 54.77 263.10 60.50 262.41 66.03 260.93 C 67.57 260.41 69.79 259.82 69.80 257.80 C 69.90 253.97 68.30 248.73 63.93 248.07 C 58.81 247.27 53.66 248.27 48.60 249.01 C 48.59 243.37 45.95 238.19 41.88 234.38 C 42.31 234.31 43.18 234.17 43.62 234.10 L 44.51 234.22 C 44.26 232.84 44.01 231.46 43.76 230.08 C 44.43 229.47 45.10 228.86 45.76 228.26 C 47.04 233.13 48.06 238.15 50.31 242.70 C 52.13 247.77 59.56 246.86 62.71 243.62 C 62.71 240.11 61.57 236.74 60.70 233.37 C 58.01 223.99 57.06 214.23 56.40 204.53 C 56.26 200.55 56.05 196.35 57.59 192.60 C 59.25 190.18 62.02 188.93 64.44 187.43 C 63.25 185.79 61.87 184.31 60.32 183.00 C 61.23 182.56 62.14 182.12 63.05 181.68 Z" />
<path fill="#e6e6e6" opacity="1.00" d=" M 114.65 247.34 C 114.93 247.80 115.49 248.72 115.78 249.18 C 110.62 257.15 99.73 255.99 93.20 262.17 C 83.78 270.19 83.09 283.92 74.75 292.75 C 68.85 298.99 59.78 302.72 51.22 300.82 C 47.24 299.94 44.67 296.45 42.59 293.23 C 43.92 293.68 45.26 294.13 46.59 294.59 C 47.44 290.48 48.12 286.13 50.59 282.62 C 53.81 278.05 58.63 274.76 63.87 272.90 C 69.29 270.89 75.33 269.78 79.71 265.72 C 84.62 261.28 89.01 256.09 94.96 252.96 C 101.02 249.38 108.75 251.37 114.65 247.34 Z" />
<path fill="#e6e6e6" opacity="1.00" d=" M 58.02 307.97 C 64.75 307.70 71.08 305.17 77.41 303.12 C 77.24 305.78 77.52 308.66 76.19 311.08 C 74.01 314.17 70.34 315.65 66.94 316.97 C 60.18 319.37 53.19 321.34 46.02 321.99 C 39.10 322.64 32.22 321.24 25.30 321.28 C 23.84 319.78 22.67 318.02 21.89 316.08 C 21.72 314.95 21.55 313.81 21.40 312.69 C 24.81 312.80 28.25 313.02 31.64 312.51 C 36.33 311.80 40.19 308.55 44.87 307.84 C 49.25 307.45 53.63 308.22 58.02 307.97 Z" />
<path fill="#e6e6e6" opacity="1.00" d=" M 456.39 481.37 C 465.85 478.00 476.00 476.40 486.03 477.05 C 489.29 477.35 492.70 477.75 495.58 479.43 C 497.19 480.69 497.76 482.79 498.72 484.53 C 480.46 484.58 462.22 487.26 444.77 492.69 L 444.67 491.71 C 447.33 487.11 451.24 483.06 456.39 481.37 Z" />
<path fill="#e6e6e6" opacity="1.00" d=" M 468.75 489.82 C 478.11 487.02 488.08 485.83 497.78 487.35 C 504.65 488.43 510.57 493.39 513.16 499.80 C 516.48 507.72 518.14 516.23 519.37 524.70 C 520.69 533.05 518.58 541.43 519.25 549.81 C 517.07 553.01 514.54 556.54 510.55 557.49 C 506.56 558.43 502.61 556.83 498.90 555.54 C 497.35 559.36 495.86 563.95 491.77 565.75 C 486.42 567.78 480.54 566.70 475.11 565.54 C 473.30 568.17 471.34 571.51 467.74 571.67 C 461.89 572.32 453.99 569.65 453.30 562.92 C 452.92 558.32 452.31 553.73 450.76 549.36 C 449.48 549.13 448.22 548.91 446.96 548.69 C 446.12 546.70 445.57 544.51 444.12 542.87 C 441.62 540.80 438.36 539.97 435.78 538.02 C 435.05 536.43 435.15 534.62 435.10 532.91 C 439.47 534.85 443.60 537.32 447.12 540.59 C 446.92 538.85 446.73 537.10 446.54 535.37 C 446.94 527.74 446.07 519.20 440.57 513.43 C 437.31 510.48 433.07 513.24 429.77 514.63 C 430.59 509.79 431.75 504.96 433.77 500.48 C 438.12 499.30 442.08 497.11 446.18 495.32 C 450.83 493.24 455.96 492.80 460.90 491.83 C 455.80 493.97 450.35 495.57 445.82 498.82 C 442.07 501.68 442.81 506.98 444.10 510.92 C 446.93 519.32 451.13 527.26 452.93 536.00 C 454.45 541.76 455.10 548.88 460.61 552.37 C 465.77 555.07 471.90 554.16 477.42 553.32 C 487.06 551.55 496.53 548.89 506.21 547.31 C 509.82 546.62 514.49 545.96 515.78 541.88 C 520.12 529.87 517.15 516.71 512.85 505.13 C 510.62 499.40 507.67 492.79 501.28 490.80 C 490.79 486.75 479.58 489.33 468.75 489.82 Z" />
</g>
<g id="#cfcfcfff">
<path fill="#cfcfcf" opacity="1.00" d=" M 66.92 182.72 C 70.72 185.54 73.93 189.97 73.30 194.94 C 72.36 202.60 70.81 210.22 70.89 217.97 C 70.64 226.58 72.76 234.98 74.79 243.26 C 75.86 247.48 77.07 251.72 79.23 255.53 C 77.44 257.78 75.72 260.09 73.80 262.24 C 73.75 257.94 73.31 253.56 71.40 249.64 C 66.11 238.56 63.85 226.25 63.04 214.07 C 62.24 203.44 65.38 193.13 66.92 182.72 Z" />
<path fill="#cfcfcf" opacity="1.00" d=" M 36.98 235.38 C 38.61 235.05 40.24 234.70 41.88 234.38 C 45.95 238.19 48.59 243.37 48.60 249.01 C 49.04 254.31 49.13 259.63 49.33 264.94 C 46.69 267.82 44.02 271.16 40.07 272.20 C 36.26 272.95 32.39 271.70 28.57 272.22 C 25.01 273.05 21.92 275.15 18.61 276.61 C 15.19 275.72 11.74 274.94 8.37 273.85 C 8.44 273.53 8.59 272.89 8.66 272.57 C 12.63 272.02 16.81 272.07 20.56 270.49 C 23.00 269.49 22.75 266.48 22.51 264.34 C 21.19 254.66 16.64 245.86 13.90 236.57 C 16.14 238.02 19.18 239.04 20.02 241.87 C 22.53 249.67 23.31 258.00 26.60 265.56 C 28.12 269.26 32.84 270.17 36.37 269.30 C 41.21 268.01 43.75 262.74 43.61 258.03 C 43.41 250.04 39.81 242.70 36.98 235.38 Z" />
<path fill="#cfcfcf" opacity="1.00" d=" M 115.78 249.18 C 116.57 252.55 117.63 256.94 114.51 259.48 C 109.07 264.24 101.90 266.60 96.73 271.74 C 92.77 275.60 91.14 281.04 88.92 285.96 C 86.84 291.01 83.87 295.65 80.42 299.88 C 81.92 303.94 83.21 308.72 80.71 312.68 C 76.26 319.99 67.41 322.71 59.60 324.77 C 55.36 325.72 51.05 326.25 46.72 326.53 C 39.30 326.72 31.51 325.64 25.30 321.28 C 32.22 321.24 39.10 322.64 46.02 321.99 C 53.19 321.34 60.18 319.37 66.94 316.97 C 70.34 315.65 74.01 314.17 76.19 311.08 C 77.52 308.66 77.24 305.78 77.41 303.12 C 71.08 305.17 64.75 307.70 58.02 307.97 C 53.63 308.22 49.25 307.45 44.87 307.84 C 40.19 308.55 36.33 311.80 31.64 312.51 C 28.25 313.02 24.81 312.80 21.40 312.69 C 21.55 313.81 21.72 314.95 21.89 316.08 C 20.33 310.92 14.98 308.75 11.88 304.73 C 16.45 305.17 21.04 306.08 25.64 305.62 C 30.79 305.00 36.09 302.07 38.02 297.03 C 40.68 290.46 38.94 283.20 40.50 276.43 C 41.67 272.19 46.30 270.64 49.73 268.65 C 46.85 272.90 43.37 276.95 41.89 281.96 C 40.89 285.38 41.70 288.95 42.40 292.34 L 42.59 293.23 C 44.67 296.45 47.24 299.94 51.22 300.82 C 59.78 302.72 68.85 298.99 74.75 292.75 C 83.09 283.92 83.78 270.19 93.20 262.17 C 99.73 255.99 110.62 257.15 115.78 249.18 Z" />
<path fill="#cfcfcf" opacity="1.00" d=" M 435.10 532.91 C 435.87 530.11 436.82 527.37 437.75 524.63 C 440.92 528.00 444.00 531.48 446.54 535.37 C 446.73 537.10 446.92 538.85 447.12 540.59 C 443.60 537.32 439.47 534.85 435.10 532.91 Z" />
</g>
<g id="#fefefeff">
<path fill="#fefefe" opacity="1.00" d=" M 202.32 211.21 C 205.44 210.07 209.19 212.62 209.05 216.00 C 209.42 220.11 203.98 222.74 200.84 220.18 C 197.59 217.93 198.50 212.29 202.32 211.21 Z" />
<path fill="#fefefe" opacity="1.00" d=" M 312.48 213.40 C 315.85 211.52 320.66 214.07 320.72 218.00 C 321.04 222.03 316.30 225.28 312.70 223.32 C 308.70 221.64 308.56 215.25 312.48 213.40 Z" />
</g>
<g id="#f3f3f3ff">
<path fill="#f3f3f3" opacity="1.00" d=" M 20.14 236.83 C 21.91 234.33 23.65 231.08 27.03 230.66 C 32.80 229.74 38.28 232.31 43.62 234.10 C 43.18 234.17 42.31 234.31 41.88 234.38 C 40.24 234.70 38.61 235.05 36.98 235.38 C 39.81 242.70 43.41 250.04 43.61 258.03 C 43.75 262.74 41.21 268.01 36.37 269.30 C 32.84 270.17 28.12 269.26 26.60 265.56 C 23.31 258.00 22.53 249.67 20.02 241.87 C 19.18 239.04 16.14 238.02 13.90 236.57 C 16.64 245.86 21.19 254.66 22.51 264.34 C 22.75 266.48 23.00 269.49 20.56 270.49 C 16.81 272.07 12.63 272.02 8.66 272.57 C 3.98 267.18 1.43 260.34 0.00 253.43 L 0.00 246.44 C 0.76 241.76 2.60 236.34 7.49 234.58 C 11.80 232.71 16.32 234.80 20.14 236.83 Z" />
</g>
<g id="#f4f4f4ff">
<path fill="#f4f4f4" opacity="1.00" d=" M 79.23 255.53 C 85.35 247.75 94.67 241.32 104.98 242.14 C 108.86 242.17 112.26 244.41 114.65 247.34 C 108.75 251.37 101.02 249.38 94.96 252.96 C 89.01 256.09 84.62 261.28 79.71 265.72 C 75.33 269.78 69.29 270.89 63.87 272.90 C 58.63 274.76 53.81 278.05 50.59 282.62 C 48.12 286.13 47.44 290.48 46.59 294.59 C 45.26 294.13 43.92 293.68 42.59 293.23 L 42.40 292.34 C 42.67 287.87 42.97 283.18 45.19 279.19 C 47.19 275.66 50.27 272.83 53.67 270.68 C 59.88 266.72 67.62 266.25 73.80 262.24 C 75.72 260.09 77.44 257.78 79.23 255.53 Z" />
<path fill="#f4f4f4" opacity="1.00" d=" M 4.77 286.00 C 4.96 281.71 6.90 277.81 8.37 273.85 C 11.74 274.94 15.19 275.72 18.61 276.61 C 19.68 276.98 20.74 277.39 21.81 277.80 C 19.97 281.81 17.39 286.01 18.19 290.60 C 19.21 295.87 24.03 299.00 27.75 302.35 C 25.45 303.38 23.10 305.17 20.45 304.56 C 16.36 303.59 12.63 301.60 8.78 299.99 C 6.34 295.76 4.42 290.98 4.77 286.00 Z" />
<path fill="#f4f4f4" opacity="1.00" d=" M 429.77 514.63 C 433.07 513.24 437.31 510.48 440.57 513.43 C 446.07 519.20 446.94 527.74 446.54 535.37 C 444.00 531.48 440.92 528.00 437.75 524.63 C 436.82 527.37 435.87 530.11 435.10 532.91 C 435.15 534.62 435.05 536.43 435.78 538.02 C 438.36 539.97 441.62 540.80 444.12 542.87 C 445.57 544.51 446.12 546.70 446.96 548.69 C 440.90 547.34 432.95 546.53 429.88 540.29 C 427.49 531.95 428.79 523.10 429.77 514.63 Z" />
</g>
<g id="#49ab15ff">
<path fill="#49ab15" opacity="1.00" d=" M 46.72 326.53 C 51.05 326.25 55.36 325.72 59.60 324.77 C 63.39 333.95 67.99 343.86 77.06 348.91 C 82.90 352.27 89.88 351.36 96.21 350.28 C 94.78 354.92 93.38 359.57 92.01 364.23 C 84.49 364.64 76.63 363.89 70.06 359.90 C 57.87 352.80 50.87 339.56 46.72 326.53 Z" />
<path fill="#49ab15" opacity="1.00" d=" M 427.85 356.91 C 429.17 352.95 434.66 351.53 437.83 354.17 C 441.70 357.44 444.07 362.06 446.67 366.33 C 460.49 391.07 467.89 418.71 473.76 446.25 C 475.60 454.89 476.58 463.70 478.91 472.23 C 474.57 472.67 470.27 473.49 466.03 474.51 C 463.17 464.91 462.13 454.92 459.89 445.19 C 457.43 432.83 454.05 420.68 450.33 408.65 C 445.43 393.87 439.96 378.95 430.76 366.23 C 429.11 363.48 426.55 360.29 427.85 356.91 Z" />
<path fill="#49ab15" opacity="1.00" d=" M 238.75 461.94 C 243.20 462.25 247.65 462.61 252.10 463.01 C 260.17 493.57 263.53 525.27 262.94 556.85 C 260.53 554.96 257.93 553.32 255.21 551.93 C 253.31 551.01 251.36 550.18 249.36 549.53 C 250.45 537.98 249.18 526.37 248.19 514.86 C 246.50 496.98 242.74 479.41 238.75 461.94 Z" />
<path fill="#49ab15" opacity="1.00" d=" M 299.88 468.03 C 305.68 468.62 311.49 469.18 317.27 469.92 C 316.43 469.85 314.76 469.71 313.92 469.64 C 322.20 498.67 332.45 527.09 342.22 555.64 C 337.96 556.60 333.82 558.21 330.19 560.67 C 319.69 529.93 308.68 499.32 299.88 468.03 Z" />
</g>
<g id="#d0cfd1ff">
<path fill="#d0cfd1" opacity="1.00" d=" M 466.03 474.51 C 470.27 473.49 474.57 472.67 478.91 472.23 C 486.99 471.26 495.15 472.81 502.39 476.48 C 502.74 479.47 502.83 482.49 502.71 485.51 C 506.24 486.90 510.15 488.39 512.10 491.92 C 520.73 506.68 522.97 524.23 522.32 541.07 C 522.28 544.24 520.96 547.19 519.25 549.81 C 518.58 541.43 520.69 533.05 519.37 524.70 C 518.14 516.23 516.48 507.72 513.16 499.80 C 510.57 493.39 504.65 488.43 497.78 487.35 C 488.08 485.83 478.11 487.02 468.75 489.82 C 466.11 490.43 463.51 491.13 460.90 491.83 C 455.96 492.80 450.83 493.24 446.18 495.32 C 442.08 497.11 438.12 499.30 433.77 500.48 C 436.10 496.35 440.53 494.28 444.77 492.69 C 462.22 487.26 480.46 484.58 498.72 484.53 C 497.76 482.79 497.19 480.69 495.58 479.43 C 492.70 477.75 489.29 477.35 486.03 477.05 C 476.00 476.40 465.85 478.00 456.39 481.37 C 451.24 483.06 447.33 487.11 444.67 491.71 C 444.41 489.62 444.14 487.55 443.88 485.47 C 448.75 480.42 455.12 477.21 461.90 475.58 C 463.27 475.20 464.64 474.84 466.03 474.51 Z" />
</g>
<g id="#f0f0f0ff">
<path fill="#f0f0f0" opacity="1.00" d=" M 468.75 489.82 C 479.58 489.33 490.79 486.75 501.28 490.80 C 507.67 492.79 510.62 499.40 512.85 505.13 C 517.15 516.71 520.12 529.87 515.78 541.88 C 514.49 545.96 509.82 546.62 506.21 547.31 C 496.53 548.89 487.06 551.55 477.42 553.32 C 471.90 554.16 465.77 555.07 460.61 552.37 C 455.10 548.88 454.45 541.76 452.93 536.00 C 451.13 527.26 446.93 519.32 444.10 510.92 C 442.81 506.98 442.07 501.68 445.82 498.82 C 450.35 495.57 455.80 493.97 460.90 491.83 C 463.51 491.13 466.11 490.43 468.75 489.82 Z" />
</g>
<g id="#f2f2f2ff">
<path fill="#f2f2f2" opacity="1.00" d=" M 232.08 552.08 C 236.14 546.79 243.74 547.88 249.36 549.53 C 251.36 550.18 253.31 551.01 255.21 551.93 C 254.04 557.92 252.17 563.79 249.14 569.11 C 243.84 566.99 238.41 565.14 232.82 563.93 C 236.45 567.17 240.49 569.93 244.88 572.05 C 247.74 573.68 251.76 575.16 251.94 579.03 C 252.60 585.93 251.88 593.78 247.25 599.28 C 243.94 602.87 238.73 601.00 234.58 600.57 C 228.03 599.20 221.48 601.11 215.35 603.31 C 199.59 608.93 183.03 613.11 166.18 612.65 C 159.63 612.13 153.13 610.91 146.53 611.06 C 142.91 609.54 139.50 607.56 136.04 605.70 C 136.36 596.10 139.84 586.88 145.16 578.96 C 152.12 569.03 161.38 560.42 172.60 555.58 C 177.05 553.54 182.19 553.90 186.79 555.27 C 195.65 557.89 202.34 564.85 210.94 568.02 C 218.23 570.36 225.68 567.02 232.26 564.07 C 231.11 560.25 229.12 555.60 232.08 552.08 Z" />
<path fill="#f2f2f2" opacity="1.00" d=" M 330.19 560.67 C 333.82 558.21 337.96 556.60 342.22 555.64 C 347.02 555.30 351.90 555.89 356.40 557.64 C 356.16 560.46 355.94 563.29 355.76 566.13 C 349.23 565.76 342.62 564.91 336.13 566.04 C 332.32 566.64 328.97 568.63 325.72 570.58 C 340.66 569.93 356.56 567.81 370.51 574.68 C 382.54 580.14 391.04 591.71 393.73 604.53 C 392.89 604.19 392.05 603.85 391.21 603.53 C 383.34 610.16 374.33 615.55 364.37 618.36 C 356.92 620.44 349.46 622.61 341.77 623.58 C 327.90 622.57 313.78 618.93 302.40 610.66 C 300.92 609.37 298.67 608.17 298.86 605.91 C 299.15 597.03 302.68 588.22 308.58 581.57 C 311.74 577.93 315.93 575.47 319.96 572.93 C 323.19 571.02 323.98 567.04 326.08 564.17 C 327.36 562.91 328.74 561.74 330.19 560.67 Z" />
</g>
<g id="#dadadaff">
<path fill="#dadada" opacity="1.00" d=" M 255.21 551.93 C 257.93 553.32 260.53 554.96 262.94 556.85 C 265.57 558.95 267.92 561.36 270.34 563.70 C 270.56 566.21 271.30 568.88 270.31 571.32 C 268.88 574.04 265.83 575.23 263.29 576.66 C 265.31 584.55 265.67 593.05 262.79 600.79 C 261.25 604.76 259.32 609.14 255.49 611.38 C 251.42 611.81 247.32 610.91 243.24 611.34 C 229.28 612.50 216.05 617.64 202.20 619.45 C 183.37 621.98 163.61 619.68 146.53 611.06 C 153.13 610.91 159.63 612.13 166.18 612.65 C 183.03 613.11 199.59 608.93 215.35 603.31 C 221.48 601.11 228.03 599.20 234.58 600.57 C 238.73 601.00 243.94 602.87 247.25 599.28 C 251.88 593.78 252.60 585.93 251.94 579.03 C 251.76 575.16 247.74 573.68 244.88 572.05 C 240.49 569.93 236.45 567.17 232.82 563.93 C 238.41 565.14 243.84 566.99 249.14 569.11 C 252.17 563.79 254.04 557.92 255.21 551.93 Z" />
<path fill="#dadada" opacity="1.00" d=" M 356.40 557.64 C 360.98 559.76 364.91 563.07 368.13 566.93 C 369.28 569.38 369.94 572.03 370.51 574.68 C 356.56 567.81 340.66 569.93 325.72 570.58 C 328.97 568.63 332.32 566.64 336.13 566.04 C 342.62 564.91 349.23 565.76 355.76 566.13 C 355.94 563.29 356.16 560.46 356.40 557.64 Z" />
</g>
<g id="#02020219">
<path fill="#020202" opacity="0.10" d=" M 270.34 563.70 C 288.89 561.93 307.51 563.63 326.08 564.17 C 323.98 567.04 323.19 571.02 319.96 572.93 C 315.93 575.47 311.74 577.93 308.58 581.57 C 302.68 588.22 299.15 597.03 298.86 605.91 C 298.67 608.17 300.92 609.37 302.40 610.66 C 313.78 618.93 327.90 622.57 341.77 623.58 C 359.05 624.69 378.35 622.77 391.87 610.86 C 394.05 609.43 394.17 606.85 393.73 604.53 C 391.04 591.71 382.54 580.14 370.51 574.68 C 369.94 572.03 369.28 569.38 368.13 566.93 C 383.12 567.72 397.90 570.57 412.57 573.55 C 427.46 576.60 442.38 580.73 455.57 588.49 C 458.38 590.20 461.12 592.20 463.02 594.94 C 466.22 599.56 465.61 606.52 461.27 610.24 C 454.10 616.88 444.80 620.57 435.61 623.49 C 413.61 630.51 390.68 633.95 367.79 636.58 C 357.95 637.83 347.98 637.99 338.23 640.00 L 247.69 640.00 C 235.42 637.87 222.92 637.93 210.57 636.45 C 184.28 633.59 157.79 629.98 132.70 621.30 C 125.33 618.53 117.78 615.47 111.89 610.09 C 108.71 607.25 106.96 602.61 108.38 598.46 C 110.06 593.52 114.62 590.40 118.97 587.96 C 127.15 583.62 135.87 579.92 145.16 578.96 C 139.84 586.88 136.36 596.10 136.04 605.70 C 139.50 607.56 142.91 609.54 146.53 611.06 C 163.61 619.68 183.37 621.98 202.20 619.45 C 216.05 617.64 229.28 612.50 243.24 611.34 C 247.32 610.91 251.42 611.81 255.49 611.38 C 259.32 609.14 261.25 604.76 262.79 600.79 C 265.67 593.05 265.31 584.55 263.29 576.66 C 265.83 575.23 268.88 574.04 270.31 571.32 C 271.30 568.88 270.56 566.21 270.34 563.70 Z" />
</g>
<g id="#dadadafe">
<path fill="#dadada" opacity="1.00" d=" M 391.21 603.53 C 392.05 603.85 392.89 604.19 393.73 604.53 C 394.17 606.85 394.05 609.43 391.87 610.86 C 378.35 622.77 359.05 624.69 341.77 623.58 C 349.46 622.61 356.92 620.44 364.37 618.36 C 374.33 615.55 383.34 610.16 391.21 603.53 Z" />
</g>
</svg>
