<?xml version="1.0" encoding="UTF-8" ?>
<!DOCTYPE svg PUBLIC "-//W3C//DTD SVG 1.1//EN" "http://www.w3.org/Graphics/SVG/1.1/DTD/svg11.dtd">
<svg width="200pt" height="200pt" viewBox="0 0 200 200" version="1.1" xmlns="http://www.w3.org/2000/svg">
<g id="#000000ff">
<path fill="#000000" opacity="1.00" d=" M 132.60 26.62 C 139.32 23.27 146.36 20.62 152.99 17.07 C 158.56 26.51 161.89 36.99 165.89 47.13 C 173.30 66.04 180.36 85.10 186.40 104.49 C 186.61 105.52 187.27 107.18 186.09 107.85 C 173.55 115.40 161.11 123.15 148.35 130.32 C 130.49 138.84 112.99 148.08 95.59 157.49 C 77.83 165.46 60.91 175.23 43.01 182.86 C 41.87 180.97 40.84 179.01 40.08 176.95 C 33.73 160.11 26.94 143.42 21.80 126.15 C 17.09 114.31 13.73 102.00 9.91 89.85 C 9.18 88.43 9.68 86.93 11.14 86.26 C 19.14 80.72 28.34 77.33 36.94 72.88 C 53.54 64.15 70.67 56.49 87.67 48.60 C 102.56 41.10 117.43 33.56 132.60 26.62 M 141.11 24.86 C 125.47 32.13 110.01 39.79 94.75 47.83 C 84.86 52.69 74.59 56.73 64.91 62.00 C 51.38 67.79 38.69 75.30 25.30 81.38 C 20.80 83.72 15.56 85.27 12.03 89.01 C 21.38 119.74 31.44 150.32 43.56 180.09 C 64.32 170.08 84.82 159.50 105.67 149.66 C 125.47 138.76 145.82 128.87 165.37 117.51 C 172.04 114.09 177.96 109.38 184.77 106.22 C 177.76 82.13 168.63 58.74 159.57 35.36 C 157.35 29.85 154.79 24.49 152.35 19.08 C 148.82 21.40 145.03 23.29 141.11 24.86 Z" />
<path fill="#000000" opacity="1.00" d=" M 102.21 51.17 C 113.78 45.16 125.88 40.20 137.14 33.57 C 138.22 36.44 138.18 41.42 142.10 41.80 C 145.97 42.49 148.25 38.88 150.52 36.45 C 158.64 54.26 164.05 73.14 171.89 91.07 C 168.85 91.25 165.55 92.75 164.78 95.98 C 163.64 99.54 166.82 102.33 168.70 104.93 C 148.14 117.00 126.75 127.57 105.73 138.81 C 89.10 147.41 72.71 156.48 56.43 165.73 C 55.39 161.86 54.08 157.70 50.57 155.35 C 47.97 153.28 44.71 155.13 42.09 156.15 C 40.87 149.01 37.59 142.47 35.27 135.65 C 31.80 125.83 28.23 116.05 24.62 106.28 C 29.76 106.20 31.08 100.15 30.26 96.07 C 30.14 93.26 27.80 91.52 25.99 89.72 C 28.83 87.36 32.43 86.38 35.72 84.84 C 58.42 74.71 80.07 62.44 102.21 51.17 M 86.74 60.84 C 67.53 71.06 48.41 81.60 28.21 89.75 C 33.29 94.49 33.01 104.63 26.37 107.85 C 29.69 115.29 32.24 123.04 35.01 130.69 C 37.54 138.35 40.88 145.73 43.07 153.51 C 45.43 152.86 48.15 152.04 50.39 153.51 C 54.40 155.50 55.99 159.99 57.43 163.92 C 92.94 142.44 130.81 125.24 166.79 104.62 C 165.16 102.39 163.05 100.05 163.51 97.05 C 163.27 93.20 166.84 90.86 169.92 89.48 C 162.50 72.96 157.50 55.47 150.18 38.90 C 148.34 41.58 145.46 44.13 141.94 43.46 C 138.22 43.12 137.00 38.99 136.39 35.92 C 120.16 44.85 102.94 51.85 86.74 60.84 Z" />
<path fill="#000000" opacity="1.00" d=" M 135.39 70.44 C 138.64 68.59 142.34 71.35 143.87 74.21 C 145.77 78.55 144.80 85.11 139.91 87.00 C 136.20 88.51 132.07 85.60 131.47 81.85 C 130.68 77.83 131.52 72.61 135.39 70.44 M 135.42 72.19 C 130.98 75.20 131.36 83.15 136.00 85.74 C 140.67 87.24 144.53 82.42 143.79 78.04 C 143.67 74.22 139.29 69.18 135.42 72.19 Z" />
<path fill="#000000" opacity="1.00" d=" M 97.29 81.29 C 103.08 79.08 109.48 82.66 112.03 87.99 C 115.72 94.78 114.91 103.54 110.74 109.93 C 107.76 114.33 102.04 115.64 97.04 115.55 C 93.74 115.69 90.85 113.53 89.11 110.89 C 82.91 101.24 86.07 85.67 97.29 81.29 M 98.39 82.49 C 86.86 85.97 84.08 102.12 91.05 110.99 C 94.67 114.92 100.77 114.27 105.27 112.40 C 109.47 110.94 111.66 106.56 112.63 102.50 C 113.28 97.73 113.41 92.48 110.71 88.27 C 108.41 83.96 103.24 81.18 98.39 82.49 Z" />
<path fill="#000000" opacity="1.00" d=" M 54.42 112.69 C 60.07 111.49 63.40 118.24 61.90 122.99 C 61.55 126.98 57.65 130.75 53.52 129.25 C 46.72 126.32 47.11 114.74 54.42 112.69 M 53.40 114.39 C 48.07 117.19 48.72 127.21 55.00 128.22 C 60.16 128.73 62.10 122.19 60.75 118.18 C 60.17 114.94 56.42 112.61 53.40 114.39 Z" />
</g>
<g id="#559d5dff">
<path fill="#559d5d" opacity="1.00" d=" M 141.11 24.86 C 145.03 23.29 148.82 21.40 152.35 19.08 C 154.79 24.49 157.35 29.85 159.57 35.36 C 168.63 58.74 177.76 82.13 184.77 106.22 C 177.96 109.38 172.04 114.09 165.37 117.51 C 145.82 128.87 125.47 138.76 105.67 149.66 C 84.82 159.50 64.32 170.08 43.56 180.09 C 31.44 150.32 21.38 119.74 12.03 89.01 C 15.56 85.27 20.80 83.72 25.30 81.38 C 38.69 75.30 51.38 67.79 64.91 62.00 C 74.59 56.73 84.86 52.69 94.75 47.83 C 110.01 39.79 125.47 32.13 141.11 24.86 M 102.21 51.17 C 80.07 62.44 58.42 74.71 35.72 84.84 C 32.43 86.38 28.83 87.36 25.99 89.72 C 27.80 91.52 30.14 93.26 30.26 96.07 C 31.08 100.15 29.76 106.20 24.62 106.28 C 28.23 116.05 31.80 125.83 35.27 135.65 C 37.59 142.47 40.87 149.01 42.09 156.15 C 44.71 155.13 47.97 153.28 50.57 155.35 C 54.08 157.70 55.39 161.86 56.43 165.73 C 72.71 156.48 89.10 147.41 105.73 138.81 C 126.75 127.57 148.14 117.00 168.70 104.93 C 166.82 102.33 163.64 99.54 164.78 95.98 C 165.55 92.75 168.85 91.25 171.89 91.07 C 164.05 73.14 158.64 54.26 150.52 36.45 C 148.25 38.88 145.97 42.49 142.10 41.80 C 138.18 41.42 138.22 36.44 137.14 33.57 C 125.88 40.20 113.78 45.16 102.21 51.17 Z" />
<path fill="#559d5d" opacity="1.00" d=" M 135.42 72.19 C 139.29 69.18 143.67 74.22 143.79 78.04 C 144.53 82.42 140.67 87.24 136.00 85.74 C 131.36 83.15 130.98 75.20 135.42 72.19 Z" />
<path fill="#559d5d" opacity="1.00" d=" M 98.39 82.49 C 103.24 81.18 108.41 83.96 110.71 88.27 C 113.41 92.48 113.28 97.73 112.63 102.50 C 111.66 106.56 109.47 110.94 105.27 112.40 C 100.77 114.27 94.67 114.92 91.05 110.99 C 84.08 102.12 86.86 85.97 98.39 82.49 Z" />
<path fill="#559d5d" opacity="1.00" d=" M 53.40 114.39 C 56.42 112.61 60.17 114.94 60.75 118.18 C 62.10 122.19 60.16 128.73 55.00 128.22 C 48.72 127.21 48.07 117.19 53.40 114.39 Z" />
</g>
<g id="#83c889ff">
<path fill="#83c889" opacity="1.00" d=" M 86.74 60.84 C 102.94 51.85 120.16 44.85 136.39 35.92 C 137.00 38.99 138.22 43.12 141.94 43.46 C 145.46 44.13 148.34 41.58 150.18 38.90 C 157.50 55.47 162.50 72.96 169.92 89.48 C 166.84 90.86 163.27 93.20 163.51 97.05 C 163.05 100.05 165.16 102.39 166.79 104.62 C 130.81 125.24 92.94 142.44 57.43 163.92 C 55.99 159.99 54.40 155.50 50.39 153.51 C 48.15 152.04 45.43 152.86 43.07 153.51 C 40.88 145.73 37.54 138.35 35.01 130.69 C 32.24 123.04 29.69 115.29 26.37 107.85 C 33.01 104.63 33.29 94.49 28.21 89.75 C 48.41 81.60 67.53 71.06 86.74 60.84 M 135.39 70.44 C 131.52 72.61 130.68 77.83 131.47 81.85 C 132.07 85.60 136.20 88.51 139.91 87.00 C 144.80 85.11 145.77 78.55 143.87 74.21 C 142.34 71.35 138.64 68.59 135.39 70.44 M 97.29 81.29 C 86.07 85.67 82.91 101.24 89.11 110.89 C 90.85 113.53 93.74 115.69 97.04 115.55 C 102.04 115.64 107.76 114.33 110.74 109.93 C 114.91 103.54 115.72 94.78 112.03 87.99 C 109.48 82.66 103.08 79.08 97.29 81.29 M 54.42 112.69 C 47.11 114.74 46.72 126.32 53.52 129.25 C 57.65 130.75 61.55 126.98 61.90 122.99 C 63.40 118.24 60.07 111.49 54.42 112.69 Z" />
</g>
</svg>
