<?xml version="1.0" encoding="UTF-8" ?>
<!DOCTYPE svg PUBLIC "-//W3C//DTD SVG 1.1//EN" "http://www.w3.org/Graphics/SVG/1.1/DTD/svg11.dtd">
<svg width="200pt" height="200pt" viewBox="0 0 200 200" version="1.1" xmlns="http://www.w3.org/2000/svg">
<g id="#090b09f3">
<path fill="#090b09" opacity="0.95" d=" M 140.78 22.82 C 144.92 21.14 148.92 19.13 152.91 17.12 C 158.31 26.03 161.53 36.00 165.27 45.66 C 172.70 64.59 179.77 83.67 186.01 103.03 C 186.48 104.48 186.65 106.01 186.78 107.53 C 173.72 115.18 160.97 123.41 147.68 130.69 C 130.07 139.11 112.76 148.17 95.61 157.50 C 77.89 165.47 61.01 175.22 43.12 182.83 C 40.37 178.85 39.09 174.14 37.32 169.69 C 31.95 155.57 26.34 141.51 22.07 127.00 C 17.27 114.24 13.08 101.22 9.58 88.06 C 11.05 85.70 13.81 84.57 16.08 83.11 C 25.44 77.98 35.39 74.02 44.73 68.82 C 59.10 61.63 73.76 55.04 88.33 48.26 C 105.66 39.47 123.07 30.84 140.78 22.82 M 144.39 23.45 C 127.58 31.04 111.09 39.34 94.74 47.86 C 84.90 52.73 74.67 56.77 65.00 61.99 C 52.39 67.42 40.48 74.29 28.05 80.11 C 22.67 82.69 17.14 85.04 12.18 88.41 C 12.42 90.18 12.77 91.93 13.36 93.63 C 22.50 122.30 31.65 151.04 43.18 178.87 C 43.74 180.63 45.62 179.01 46.67 178.71 C 66.86 168.42 87.24 158.51 107.61 148.60 C 125.01 138.85 143.05 130.30 160.30 120.29 C 168.67 115.93 176.49 110.64 184.68 105.98 C 177.56 81.76 168.40 58.22 159.27 34.71 C 157.03 29.57 155.03 24.30 152.16 19.48 C 149.58 20.83 147.01 22.20 144.39 23.45 Z" />
<path fill="#090b09" opacity="0.95" d=" M 128.99 37.98 C 131.72 36.53 134.33 34.76 137.38 34.03 C 138.38 36.76 138.43 41.43 142.16 41.77 C 145.96 42.43 147.93 38.60 150.74 36.86 C 158.71 54.44 164.14 73.02 171.74 90.74 C 169.32 91.81 166.06 92.41 165.07 95.21 C 163.49 98.89 166.74 102.01 168.37 104.99 C 166.49 106.28 164.59 107.53 162.59 108.62 C 127.53 127.95 91.52 145.54 56.83 165.56 C 55.02 162.28 54.29 158.20 51.16 155.83 C 48.60 153.48 45.06 155.25 42.14 155.78 C 41.14 151.93 39.96 148.13 38.53 144.42 C 33.70 132.03 29.64 119.35 24.75 106.98 C 26.97 105.46 29.90 104.02 30.13 100.98 C 31.36 96.65 29.25 92.49 26.15 89.58 C 29.12 87.07 32.98 86.13 36.42 84.47 C 60.63 73.59 83.68 60.37 107.39 48.49 C 114.55 44.91 121.92 41.76 128.99 37.98 M 84.92 61.87 C 66.54 71.78 48.02 81.49 28.81 89.73 C 32.95 95.26 32.84 103.98 26.77 108.10 C 32.34 122.98 37.71 137.93 43.05 152.89 C 45.73 152.89 48.71 152.24 51.08 153.85 C 54.64 155.95 56.00 160.09 57.36 163.73 C 92.90 142.68 130.39 125.20 166.34 104.87 C 165.05 102.07 162.88 99.28 163.58 96.01 C 163.78 92.63 167.08 90.97 169.70 89.57 C 162.69 73.14 157.70 55.89 150.26 39.64 C 147.88 41.55 145.33 44.12 141.98 43.47 C 138.21 43.25 137.21 39.14 136.39 36.18 C 119.36 45.00 101.72 52.60 84.92 61.87 Z" />
<path fill="#090b09" opacity="0.95" d=" M 135.43 70.38 C 140.17 68.23 145.01 73.45 144.81 78.09 C 145.46 82.93 141.45 88.67 136.11 87.19 C 129.31 84.80 129.68 73.71 135.43 70.38 M 137.32 71.39 C 132.19 72.65 131.28 79.32 133.60 83.36 C 135.15 86.87 140.64 86.54 142.44 83.42 C 145.70 79.29 142.98 71.13 137.32 71.39 Z" />
<path fill="#090b09" opacity="0.95" d=" M 97.32 81.26 C 101.57 79.75 106.57 81.08 109.54 84.45 C 115.86 91.23 115.77 102.33 110.83 109.85 C 107.42 114.87 100.67 116.10 95.03 115.33 C 89.81 114.07 87.15 108.57 86.36 103.69 C 84.62 95.02 88.57 84.44 97.32 81.26 M 99.37 82.37 C 91.27 83.83 86.59 92.84 87.39 100.57 C 87.84 105.49 89.49 111.61 94.79 113.29 C 99.40 114.48 104.69 113.43 108.40 110.42 C 113.06 105.84 113.76 98.63 112.45 92.52 C 111.08 86.75 105.69 81.27 99.37 82.37 Z" />
<path fill="#090b09" opacity="0.95" d=" M 53.28 113.07 C 56.62 111.50 60.94 113.72 61.69 117.32 C 63.52 122.40 60.67 130.79 54.06 129.42 C 47.17 127.27 46.75 116.08 53.28 113.07 M 54.30 114.11 C 49.38 115.77 48.67 122.63 51.61 126.35 C 53.76 129.21 58.91 128.58 60.17 125.15 C 62.55 120.92 60.40 112.43 54.30 114.11 Z" />
</g>
<g id="#559d5dff">
<path fill="#559d5d" opacity="1.00" d=" M 144.39 23.45 C 147.01 22.20 149.58 20.83 152.16 19.48 C 155.03 24.30 157.03 29.57 159.27 34.71 C 168.40 58.22 177.56 81.76 184.68 105.98 C 176.49 110.64 168.67 115.93 160.30 120.29 C 143.05 130.30 125.01 138.85 107.61 148.60 C 87.24 158.51 66.86 168.42 46.67 178.71 C 45.62 179.01 43.74 180.63 43.18 178.87 C 31.65 151.04 22.50 122.30 13.36 93.63 C 12.77 91.93 12.42 90.18 12.18 88.41 C 17.14 85.04 22.67 82.69 28.05 80.11 C 40.48 74.29 52.39 67.42 65.00 61.99 C 74.67 56.77 84.90 52.73 94.74 47.86 C 111.09 39.34 127.58 31.04 144.39 23.45 M 128.99 37.98 C 121.92 41.76 114.55 44.91 107.39 48.49 C 83.68 60.37 60.63 73.59 36.42 84.47 C 32.98 86.13 29.12 87.07 26.15 89.58 C 29.25 92.49 31.36 96.65 30.13 100.98 C 29.90 104.02 26.97 105.46 24.75 106.98 C 29.64 119.35 33.70 132.03 38.53 144.42 C 39.96 148.13 41.14 151.93 42.14 155.78 C 45.06 155.25 48.60 153.48 51.16 155.83 C 54.29 158.20 55.02 162.28 56.83 165.56 C 91.52 145.54 127.53 127.95 162.59 108.62 C 164.59 107.53 166.49 106.28 168.37 104.99 C 166.74 102.01 163.49 98.89 165.07 95.21 C 166.06 92.41 169.32 91.81 171.74 90.74 C 164.14 73.02 158.71 54.44 150.74 36.86 C 147.93 38.60 145.96 42.43 142.16 41.77 C 138.43 41.43 138.38 36.76 137.38 34.03 C 134.33 34.76 131.72 36.53 128.99 37.98 Z" />
<path fill="#559d5d" opacity="1.00" d=" M 137.32 71.39 C 142.98 71.13 145.70 79.29 142.44 83.42 C 140.64 86.54 135.15 86.87 133.60 83.36 C 131.28 79.32 132.19 72.65 137.32 71.39 Z" />
<path fill="#559d5d" opacity="1.00" d=" M 99.37 82.37 C 105.69 81.27 111.08 86.75 112.45 92.52 C 113.76 98.63 113.06 105.84 108.40 110.42 C 104.69 113.43 99.40 114.48 94.79 113.29 C 89.49 111.61 87.84 105.49 87.39 100.57 C 86.59 92.84 91.27 83.83 99.37 82.37 Z" />
<path fill="#559d5d" opacity="1.00" d=" M 54.30 114.11 C 60.40 112.43 62.55 120.92 60.17 125.15 C 58.91 128.58 53.76 129.21 51.61 126.35 C 48.67 122.63 49.38 115.77 54.30 114.11 Z" />
</g>
<g id="#83c889ff">
<path fill="#83c889" opacity="1.00" d=" M 84.92 61.87 C 101.72 52.60 119.36 45.00 136.39 36.18 C 137.21 39.14 138.21 43.25 141.98 43.47 C 145.33 44.12 147.88 41.55 150.26 39.64 C 157.70 55.89 162.69 73.14 169.70 89.57 C 167.08 90.97 163.78 92.63 163.58 96.01 C 162.88 99.28 165.05 102.07 166.34 104.87 C 130.39 125.20 92.90 142.68 57.36 163.73 C 56.00 160.09 54.64 155.95 51.08 153.85 C 48.71 152.24 45.73 152.89 43.05 152.89 C 37.71 137.93 32.34 122.98 26.77 108.10 C 32.84 103.98 32.95 95.26 28.81 89.73 C 48.02 81.49 66.54 71.78 84.92 61.87 M 135.43 70.38 C 129.68 73.71 129.31 84.80 136.11 87.19 C 141.45 88.67 145.46 82.93 144.81 78.09 C 145.01 73.45 140.17 68.23 135.43 70.38 M 97.32 81.26 C 88.57 84.44 84.62 95.02 86.36 103.69 C 87.15 108.57 89.81 114.07 95.03 115.33 C 100.67 116.10 107.42 114.87 110.83 109.85 C 115.77 102.33 115.86 91.23 109.54 84.45 C 106.57 81.08 101.57 79.75 97.32 81.26 M 53.28 113.07 C 46.75 116.08 47.17 127.27 54.06 129.42 C 60.67 130.79 63.52 122.40 61.69 117.32 C 60.94 113.72 56.62 111.50 53.28 113.07 Z" />
</g>
</svg>
