<?xml version="1.0" encoding="UTF-8" ?>
<!DOCTYPE svg PUBLIC "-//W3C//DTD SVG 1.1//EN" "http://www.w3.org/Graphics/SVG/1.1/DTD/svg11.dtd">
<svg width="200pt" height="200pt" viewBox="0 0 200 200" version="1.1" xmlns="http://www.w3.org/2000/svg">
<g id="#5f4d42de">
<path fill="#5f4d42" opacity="0.87" d=" M 69.70 13.74 C 71.18 11.65 73.06 9.13 76.01 9.92 C 80.19 9.14 83.72 12.19 84.62 16.13 C 85.69 21.74 86.55 27.30 87.43 32.87 C 88.88 41.57 91.53 50.24 92.90 59.04 C 95.83 56.74 99.67 58.10 103.08 57.73 C 107.52 56.91 110.76 61.68 110.39 65.62 C 108.26 64.21 108.59 60.98 106.47 59.55 C 105.00 58.78 103.33 58.74 101.71 58.89 C 100.00 58.90 98.29 58.79 96.59 58.95 C 92.80 59.19 93.72 63.31 94.32 65.85 L 92.97 66.10 C 90.37 49.52 85.17 33.35 83.92 16.57 L 83.85 16.03 C 83.36 15.71 82.38 15.07 81.89 14.75 C 81.77 11.03 77.08 10.60 74.29 11.27 C 69.64 12.82 72.16 18.65 74.05 21.53 C 73.83 21.68 73.38 21.98 73.16 22.13 C 71.25 21.04 72.33 17.34 70.14 17.10 C 69.77 26.06 71.13 34.97 71.54 43.90 C 72.69 57.93 72.62 72.05 73.68 86.09 C 73.18 84.99 72.62 83.93 71.98 82.91 C 67.49 88.24 66.69 95.47 63.86 101.66 C 61.83 106.64 59.49 112.61 62.36 117.74 C 66.07 123.80 69.37 130.09 72.71 136.36 C 75.03 140.35 74.10 145.84 77.99 148.94 C 85.91 155.29 94.03 161.50 101.01 168.92 C 102.81 170.67 103.97 173.08 106.18 174.40 C 106.30 172.60 106.35 170.80 106.52 169.00 C 106.77 171.02 106.55 173.05 106.30 175.07 C 110.48 182.82 111.63 191.68 114.26 200.00 L 113.00 200.00 C 109.44 191.43 109.77 181.14 103.22 173.99 C 101.19 170.13 97.42 167.69 94.63 164.41 C 88.85 159.56 83.12 154.55 77.05 150.01 C 73.92 147.50 73.31 143.15 72.66 139.36 C 70.04 133.98 66.91 128.88 64.31 123.51 C 61.79 120.30 60.13 116.64 59.21 112.72 C 60.26 110.26 59.78 107.46 61.11 105.05 C 63.92 98.87 65.30 92.16 68.22 86.04 C 69.64 84.05 70.79 81.89 72.06 79.79 C 70.99 76.64 71.88 73.25 71.72 69.98 C 72.30 66.89 70.37 64.29 71.03 61.19 C 71.71 58.60 72.22 55.81 71.28 53.21 C 70.37 50.31 71.38 47.27 71.03 44.31 L 70.10 43.78 C 69.38 41.34 70.56 38.69 69.82 36.25 C 68.45 33.82 70.83 30.93 69.09 28.69 C 69.09 23.74 68.45 18.60 69.70 13.74 Z" />
</g>
<g id="#eeb589ff">
<path fill="#eeb589" opacity="1.00" d=" M 74.29 11.27 C 77.08 10.60 81.77 11.03 81.89 14.75 C 81.78 16.72 81.86 18.70 81.58 20.66 C 79.87 23.07 76.48 21.94 74.05 21.53 C 72.16 18.65 69.64 12.82 74.29 11.27 Z" />
</g>
<g id="#17141246">
<path fill="#171412" opacity="0.27" d=" M 68.40 17.97 C 68.32 16.46 68.58 14.85 69.70 13.74 C 68.45 18.60 69.09 23.74 69.09 28.69 C 70.83 30.93 68.45 33.82 69.82 36.25 C 68.15 30.37 68.46 24.06 68.40 17.97 Z" />
</g>
<g id="#8c7767ff">
<path fill="#8c7767" opacity="1.00" d=" M 81.89 14.75 C 82.38 15.07 83.36 15.71 83.85 16.03 L 83.92 16.57 C 83.11 18.66 83.11 20.98 82.00 22.97 C 80.02 26.25 76.23 24.52 73.80 22.84 C 73.64 22.67 73.32 22.31 73.16 22.13 C 73.38 21.98 73.83 21.68 74.05 21.53 C 76.48 21.94 79.87 23.07 81.58 20.66 C 81.86 18.70 81.78 16.72 81.89 14.75 Z" />
<path fill="#8c7767" opacity="1.00" d=" M 131.59 79.43 C 132.78 79.38 134.31 80.23 134.52 81.47 C 134.89 83.22 136.67 84.45 136.60 86.32 C 138.26 90.23 141.54 93.52 141.93 97.89 C 141.91 101.48 141.78 105.08 142.29 108.64 C 142.52 116.39 142.13 124.18 142.02 131.94 C 142.21 132.27 142.58 132.92 142.77 133.25 C 144.23 134.42 142.46 136.30 143.47 137.59 C 144.58 139.05 142.66 141.09 144.44 142.35 C 144.28 145.07 145.49 147.77 146.61 150.22 C 149.10 152.68 149.12 156.44 150.60 159.42 C 149.98 161.03 149.66 163.00 150.90 164.40 C 151.11 166.08 150.12 167.98 151.61 169.32 L 151.55 170.32 C 154.96 180.23 158.09 190.28 161.89 200.00 L 160.25 200.00 C 157.36 190.95 153.94 182.08 151.13 173.01 C 149.32 168.56 149.84 163.68 148.96 159.05 C 148.26 154.16 144.62 150.39 143.61 145.62 C 140.87 134.65 141.51 123.25 141.18 112.05 C 140.74 107.12 141.06 102.18 140.85 97.26 C 139.38 92.95 136.11 89.46 134.92 84.99 C 134.50 82.72 132.21 81.54 131.59 79.43 Z" />
</g>
<g id="#c28560ff">
<path fill="#c28560" opacity="1.00" d=" M 70.14 17.10 C 72.33 17.34 71.25 21.04 73.16 22.13 C 73.32 22.31 73.64 22.67 73.80 22.84 C 74.07 31.45 73.83 40.30 76.39 48.62 C 76.58 48.92 76.95 49.53 77.13 49.84 C 77.85 49.87 79.30 49.92 80.03 49.94 L 79.66 50.73 C 79.27 50.90 78.50 51.23 78.12 51.40 C 78.28 52.27 78.47 53.14 78.69 54.01 C 78.33 54.06 77.62 54.18 77.26 54.23 C 77.43 54.53 77.76 55.12 77.92 55.42 C 80.42 58.83 77.11 62.36 77.33 65.96 C 77.02 77.69 78.56 89.34 79.39 101.01 C 79.45 108.35 80.06 115.87 78.10 123.03 C 77.85 124.30 77.21 125.44 76.17 126.22 C 76.17 112.81 74.17 99.49 73.68 86.09 C 72.62 72.05 72.69 57.93 71.54 43.90 C 71.13 34.97 69.77 26.06 70.14 17.10 Z" />
<path fill="#c28560" opacity="1.00" d=" M 94.32 65.85 C 93.72 63.31 92.80 59.19 96.59 58.95 C 99.94 62.80 102.13 67.81 101.06 72.99 C 99.80 79.66 100.61 86.75 99.12 93.25 C 98.87 93.06 98.38 92.68 98.13 92.50 C 100.32 92.10 98.92 89.64 98.75 88.30 C 96.71 80.93 95.95 73.30 94.32 65.85 Z" />
</g>
<g id="#f8c399ff">
<path fill="#f8c399" opacity="1.00" d=" M 82.00 22.97 C 83.11 20.98 83.11 18.66 83.92 16.57 C 85.17 33.35 90.37 49.52 92.97 66.10 C 94.25 74.09 95.51 82.10 97.48 89.96 C 97.16 90.16 96.53 90.55 96.21 90.75 C 94.65 85.20 93.82 79.31 90.77 74.31 C 88.71 68.66 88.50 62.33 85.07 57.22 C 86.61 56.44 86.66 54.68 86.90 53.19 C 86.49 52.97 85.67 52.53 85.26 52.31 C 84.98 50.77 87.20 51.14 88.03 50.47 C 87.08 48.55 84.49 49.31 82.78 48.86 C 83.92 48.05 85.64 47.53 85.85 45.93 C 86.56 40.21 84.69 34.60 84.07 28.95 C 83.90 26.80 83.03 24.83 82.00 22.97 Z" />
</g>
<g id="#eeb58aff">
<path fill="#eeb58a" opacity="1.00" d=" M 73.80 22.84 C 76.23 24.52 80.02 26.25 82.00 22.97 C 83.03 24.83 83.90 26.80 84.07 28.95 C 84.69 34.60 86.56 40.21 85.85 45.93 C 85.64 47.53 83.92 48.05 82.78 48.86 C 81.86 49.21 80.94 49.57 80.03 49.94 C 79.30 49.92 77.85 49.87 77.13 49.84 C 76.95 49.53 76.58 48.92 76.39 48.62 C 73.83 40.30 74.07 31.45 73.80 22.84 Z" />
<path fill="#eeb58a" opacity="1.00" d=" M 77.92 55.42 C 80.32 55.37 82.75 54.86 85.13 55.39 C 83.35 56.00 81.45 55.93 79.61 56.09 C 80.60 58.23 83.29 56.88 85.07 57.22 C 88.50 62.33 88.71 68.66 90.77 74.31 C 93.82 79.31 94.65 85.20 96.21 90.75 C 96.53 90.55 97.16 90.16 97.48 89.96 C 97.64 90.59 97.97 91.86 98.13 92.50 C 98.38 92.68 98.87 93.06 99.12 93.25 C 100.61 86.75 99.80 79.66 101.06 72.99 C 102.13 67.81 99.94 62.80 96.59 58.95 C 98.29 58.79 100.00 58.90 101.71 58.89 C 102.80 62.60 107.26 64.03 107.97 67.91 C 109.55 73.78 111.37 79.72 114.72 84.86 L 115.45 84.01 C 115.91 84.73 116.43 85.42 117.00 86.08 C 116.93 85.38 116.79 84.00 116.72 83.31 C 117.55 78.91 117.20 74.50 116.16 70.19 L 116.75 69.40 C 118.03 71.93 119.74 74.19 121.75 76.19 C 124.34 78.64 124.76 82.40 125.18 85.76 C 125.15 87.08 125.89 88.17 126.43 89.31 C 126.46 90.38 125.22 91.83 126.62 92.51 C 125.90 95.96 126.31 99.49 126.18 102.98 C 126.25 107.00 125.73 111.08 126.52 115.06 C 127.00 108.37 128.09 101.74 129.15 95.13 C 129.53 92.96 132.15 94.83 133.58 94.53 C 133.65 93.97 133.80 92.84 133.87 92.28 C 133.86 91.44 133.83 89.74 133.82 88.90 C 136.36 91.27 136.43 94.94 136.71 98.17 C 136.88 101.15 137.97 104.00 138.09 106.98 C 138.18 115.32 137.23 123.78 139.00 132.00 C 140.12 138.60 141.52 145.15 143.26 151.61 C 143.52 155.60 142.99 159.77 144.54 163.58 C 147.18 168.67 147.33 174.54 148.97 179.96 C 150.27 186.67 152.55 193.19 153.28 200.00 L 120.40 200.00 C 118.32 193.63 115.44 187.50 114.29 180.86 C 114.02 178.76 112.65 177.13 111.62 175.38 C 111.24 173.37 112.05 171.31 111.63 169.31 C 110.13 167.33 107.17 168.81 105.06 168.33 C 103.64 166.59 102.65 164.55 101.30 162.76 C 97.09 156.97 91.05 152.95 86.06 147.92 C 83.48 145.47 83.56 141.71 82.47 138.57 C 81.43 136.94 79.94 135.67 78.61 134.30 C 73.32 129.14 69.08 123.03 65.36 116.68 C 64.43 115.01 63.37 113.10 64.12 111.15 C 69.22 114.20 68.28 122.17 73.86 125.02 C 73.96 125.55 74.15 126.59 74.25 127.12 C 74.73 126.89 75.69 126.44 76.17 126.22 C 77.21 125.44 77.85 124.30 78.10 123.03 C 80.06 115.87 79.45 108.35 79.39 101.01 C 78.56 89.34 77.02 77.69 77.33 65.96 C 77.11 62.36 80.42 58.83 77.92 55.42 M 111.13 85.14 C 110.60 87.23 113.50 87.91 113.24 89.90 C 113.07 90.56 112.72 91.87 112.55 92.52 L 112.12 92.31 C 112.09 103.97 114.48 115.43 115.44 127.00 C 115.56 126.75 115.81 126.25 115.93 126.00 C 116.17 116.71 115.51 107.42 115.44 98.13 C 114.71 95.77 114.11 93.33 114.72 90.86 C 115.83 88.35 113.05 86.25 111.13 85.14 Z" />
</g>
<g id="#2f2822a9">
<path fill="#2f2822" opacity="0.66" d=" M 70.10 43.78 L 71.03 44.31 C 71.38 47.27 70.37 50.31 71.28 53.21 C 72.22 55.81 71.71 58.60 71.03 61.19 C 70.72 58.39 71.53 55.42 70.40 52.75 C 69.74 49.83 71.02 46.68 70.10 43.78 Z" />
</g>
<g id="#af876aff">
<path fill="#af876a" opacity="1.00" d=" M 80.03 49.94 C 80.94 49.57 81.86 49.21 82.78 48.86 C 84.49 49.31 87.08 48.55 88.03 50.47 C 87.20 51.14 84.98 50.77 85.26 52.31 C 85.67 52.53 86.49 52.97 86.90 53.19 C 86.66 54.68 86.61 56.44 85.07 57.22 C 83.29 56.88 80.60 58.23 79.61 56.09 C 81.45 55.93 83.35 56.00 85.13 55.39 C 82.75 54.86 80.32 55.37 77.92 55.42 C 77.76 55.12 77.43 54.53 77.26 54.23 C 77.62 54.18 78.33 54.06 78.69 54.01 C 80.22 53.60 83.14 54.82 83.86 53.24 C 82.57 52.97 81.26 52.79 79.98 52.48 C 81.04 52.07 82.10 51.65 83.16 51.23 C 82.28 51.11 80.53 50.86 79.66 50.73 L 80.03 49.94 Z" />
</g>
<g id="#dbaf8eff">
<path fill="#dbaf8e" opacity="1.00" d=" M 78.12 51.40 C 78.50 51.23 79.27 50.90 79.66 50.73 C 80.53 50.86 82.28 51.11 83.16 51.23 C 82.10 51.65 81.04 52.07 79.98 52.48 C 81.26 52.79 82.57 52.97 83.86 53.24 C 83.14 54.82 80.22 53.60 78.69 54.01 C 78.47 53.14 78.28 52.27 78.12 51.40 Z" />
</g>
<g id="#f7c7a1ff">
<path fill="#f7c7a1" opacity="1.00" d=" M 101.71 58.89 C 103.33 58.74 105.00 58.78 106.47 59.55 C 108.59 60.98 108.26 64.21 110.39 65.62 L 110.39 65.62 L 110.20 66.80 C 112.11 72.49 112.91 78.54 115.45 84.01 L 114.72 84.86 C 111.37 79.72 109.55 73.78 107.97 67.91 C 107.26 64.03 102.80 62.60 101.71 58.89 Z" />
</g>
<g id="#815d4aff">
<path fill="#815d4a" opacity="1.00" d=" M 92.97 66.10 L 94.32 65.85 C 95.95 73.30 96.71 80.93 98.75 88.30 C 98.92 89.64 100.32 92.10 98.13 92.50 C 97.97 91.86 97.64 90.59 97.48 89.96 C 95.51 82.10 94.25 74.09 92.97 66.10 Z" />
</g>
<g id="#684f3fea">
<path fill="#684f3f" opacity="0.92" d=" M 110.39 65.62 C 111.09 66.24 111.69 66.95 112.20 67.74 C 114.75 67.93 117.46 68.00 119.61 69.53 C 123.23 70.96 124.75 74.93 126.25 78.21 C 127.87 78.28 129.50 78.43 131.11 78.12 L 131.58 79.40 C 130.15 80.23 128.58 79.55 127.06 79.59 C 127.21 79.85 127.51 80.38 127.66 80.65 C 129.41 84.69 131.46 88.60 133.87 92.28 C 133.80 92.84 133.65 93.97 133.58 94.53 C 130.75 89.86 127.95 85.15 125.89 80.08 C 123.96 75.77 121.73 70.78 116.75 69.40 C 115.39 69.13 114.00 69.07 112.63 68.97 C 113.36 73.85 114.59 78.80 116.72 83.31 C 116.79 84.00 116.93 85.38 117.00 86.08 C 116.43 85.42 115.91 84.73 115.45 84.01 C 112.91 78.54 112.11 72.49 110.20 66.80 L 110.39 65.62 Z" />
</g>
<g id="#bf8666ff">
<path fill="#bf8666" opacity="1.00" d=" M 112.63 68.97 C 114.00 69.07 115.39 69.13 116.75 69.40 L 116.16 70.19 C 117.20 74.50 117.55 78.91 116.72 83.31 C 114.59 78.80 113.36 73.85 112.63 68.97 Z" />
</g>
<g id="#f6c59cff">
<path fill="#f6c59c" opacity="1.00" d=" M 116.75 69.40 C 121.73 70.78 123.96 75.77 125.89 80.08 C 127.95 85.15 130.75 89.86 133.58 94.53 C 132.15 94.83 129.53 92.96 129.15 95.13 C 128.09 101.74 127.00 108.37 126.52 115.06 C 125.73 111.08 126.25 107.00 126.18 102.98 C 126.31 99.49 125.90 95.96 126.62 92.51 C 129.10 90.27 127.79 87.11 125.18 85.76 C 124.76 82.40 124.34 78.64 121.75 76.19 C 119.74 74.19 118.03 71.93 116.75 69.40 Z" />
</g>
<g id="#f8c398ff">
<path fill="#f8c398" opacity="1.00" d=" M 127.06 79.59 C 128.58 79.55 130.15 80.23 131.58 79.40 L 131.59 79.43 C 132.21 81.54 134.50 82.72 134.92 84.99 C 136.11 89.46 139.38 92.95 140.85 97.26 C 141.06 102.18 140.74 107.12 141.18 112.05 C 141.51 123.25 140.87 134.65 143.61 145.62 C 144.62 150.39 148.26 154.16 148.96 159.05 C 149.84 163.68 149.32 168.56 151.13 173.01 C 153.94 182.08 157.36 190.95 160.25 200.00 L 153.28 200.00 C 152.55 193.19 150.27 186.67 148.97 179.96 C 147.33 174.54 147.18 168.67 144.54 163.58 C 142.99 159.77 143.52 155.60 143.26 151.61 C 141.52 145.15 140.12 138.60 139.00 132.00 C 137.23 123.78 138.18 115.32 138.09 106.98 C 137.97 104.00 136.88 101.15 136.71 98.17 C 136.43 94.94 136.36 91.27 133.82 88.90 C 133.18 85.69 132.09 82.47 129.88 79.98 C 129.33 80.15 128.22 80.48 127.66 80.65 C 127.51 80.38 127.21 79.85 127.06 79.59 Z" />
</g>
<g id="#c18869ff">
<path fill="#c18869" opacity="1.00" d=" M 127.66 80.65 C 128.22 80.48 129.33 80.15 129.88 79.98 C 132.09 82.47 133.18 85.69 133.82 88.90 C 133.83 89.74 133.86 91.44 133.87 92.28 C 131.46 88.60 129.41 84.69 127.66 80.65 Z" />
</g>
<g id="#c38461ff">
<path fill="#c38461" opacity="1.00" d=" M 63.86 101.66 C 66.69 95.47 67.49 88.24 71.98 82.91 C 72.23 91.54 72.64 100.19 73.75 108.76 C 71.45 108.37 68.07 107.13 66.76 109.87 C 68.96 110.16 72.50 108.74 73.61 111.36 C 71.84 111.86 68.83 110.32 67.79 112.03 C 69.12 113.51 71.99 112.69 73.94 113.32 C 72.92 114.07 71.75 114.67 71.05 115.77 C 72.04 115.59 73.03 115.42 74.02 115.24 C 74.55 118.49 74.06 121.77 73.86 125.02 C 68.28 122.17 69.22 114.20 64.12 111.15 C 63.37 113.10 64.43 115.01 65.36 116.68 C 69.08 123.03 73.32 129.14 78.61 134.30 C 79.94 135.67 81.43 136.94 82.47 138.57 C 83.56 141.71 83.48 145.47 86.06 147.92 C 91.05 152.95 97.09 156.97 101.30 162.76 C 102.65 164.55 103.64 166.59 105.06 168.33 C 107.17 168.81 110.13 167.33 111.63 169.31 C 112.05 171.31 111.24 173.37 111.62 175.38 C 112.65 177.13 114.02 178.76 114.29 180.86 C 115.44 187.50 118.32 193.63 120.40 200.00 L 114.26 200.00 C 111.63 191.68 110.48 182.82 106.30 175.07 C 106.55 173.05 106.77 171.02 106.52 169.00 C 106.35 170.80 106.30 172.60 106.18 174.40 C 103.97 173.08 102.81 170.67 101.01 168.92 C 94.03 161.50 85.91 155.29 77.99 148.94 C 74.10 145.84 75.03 140.35 72.71 136.36 C 69.37 130.09 66.07 123.80 62.36 117.74 C 59.49 112.61 61.83 106.64 63.86 101.66 Z" />
</g>
<g id="#7e5742ff">
<path fill="#7e5742" opacity="1.00" d=" M 71.98 82.91 C 72.62 83.93 73.18 84.99 73.68 86.09 C 74.17 99.49 76.17 112.81 76.17 126.22 C 75.69 126.44 74.73 126.89 74.25 127.12 C 74.15 126.59 73.96 125.55 73.86 125.02 C 74.06 121.77 74.55 118.49 74.02 115.24 C 73.03 115.42 72.04 115.59 71.05 115.77 C 71.75 114.67 72.92 114.07 73.94 113.32 C 71.99 112.69 69.12 113.51 67.79 112.03 C 68.83 110.32 71.84 111.86 73.61 111.36 C 72.50 108.74 68.96 110.16 66.76 109.87 C 68.07 107.13 71.45 108.37 73.75 108.76 C 72.64 100.19 72.23 91.54 71.98 82.91 Z" />
</g>
<g id="#9d7457ff">
<path fill="#9d7457" opacity="1.00" d=" M 111.13 85.14 C 113.05 86.25 115.83 88.35 114.72 90.86 C 114.50 91.36 114.07 92.37 113.86 92.88 C 113.53 92.79 112.88 92.61 112.55 92.52 C 112.72 91.87 113.07 90.56 113.24 89.90 C 113.50 87.91 110.60 87.23 111.13 85.14 Z" />
</g>
<g id="#9f7557ff">
<path fill="#9f7557" opacity="1.00" d=" M 125.18 85.76 C 127.79 87.11 129.10 90.27 126.62 92.51 C 125.22 91.83 126.46 90.38 126.43 89.31 C 125.89 88.17 125.15 87.08 125.18 85.76 Z" />
</g>
<g id="#bc845fff">
<path fill="#bc845f" opacity="1.00" d=" M 113.86 92.88 C 114.07 92.37 114.50 91.36 114.72 90.86 C 114.11 93.33 114.71 95.77 115.44 98.13 C 115.51 107.42 116.17 116.71 115.93 126.00 C 115.81 126.25 115.56 126.75 115.44 127.00 C 114.48 115.43 112.09 103.97 112.12 92.31 L 112.55 92.52 C 112.88 92.61 113.53 92.79 113.86 92.88 Z" />
</g>
<g id="#494441c6">
<path fill="#494441" opacity="0.78" d=" M 142.29 108.64 L 142.94 109.35 C 142.86 117.31 143.02 125.28 142.77 133.25 C 142.58 132.92 142.21 132.27 142.02 131.94 C 142.13 124.18 142.52 116.39 142.29 108.64 Z" />
</g>
<g id="#0e0c0b4e">
<path fill="#0e0c0b" opacity="0.31" d=" M 150.90 164.40 C 149.66 163.00 149.98 161.03 150.60 159.42 C 151.39 162.66 151.62 166.00 151.61 169.32 C 150.12 167.98 151.11 166.08 150.90 164.40 Z" />
</g>
</svg>
