<?xml version="1.0" encoding="UTF-8" ?>
<!DOCTYPE svg PUBLIC "-//W3C//DTD SVG 1.1//EN" "http://www.w3.org/Graphics/SVG/1.1/DTD/svg11.dtd">
<svg width="200pt" height="200pt" viewBox="0 0 200 200" version="1.1" xmlns="http://www.w3.org/2000/svg">
<g id="#ffd400ff">
<path fill="#ffd400" opacity="1.00" d=" M 95.07 39.06 C 96.48 36.61 98.15 34.05 100.87 32.92 C 102.21 34.33 103.84 35.52 104.81 37.24 C 111.31 48.88 113.62 62.32 119.90 74.05 C 121.04 76.97 124.40 77.43 127.09 77.99 C 138.27 79.54 149.66 79.07 160.79 81.07 C 163.43 81.70 166.83 82.27 167.98 85.12 C 166.56 90.56 161.52 94.00 157.56 97.61 C 151.15 102.86 144.72 108.08 138.46 113.52 C 136.75 115.32 134.37 117.22 134.57 119.96 C 134.53 121.95 134.49 123.96 134.93 125.90 C 136.77 134.86 139.41 143.63 141.23 152.59 C 142.26 156.60 142.45 160.77 142.04 164.88 C 140.75 168.00 137.01 166.25 134.80 165.32 C 123.63 159.89 114.31 151.40 103.38 145.57 C 100.74 143.74 97.33 144.22 94.72 145.82 C 86.03 150.55 78.12 156.57 69.53 161.48 C 65.63 163.75 61.01 166.92 56.34 164.94 C 55.29 149.42 63.51 135.21 64.88 119.98 C 65.21 118.04 64.24 116.32 62.93 114.97 C 56.28 107.60 47.99 102.01 40.82 95.19 C 37.09 91.75 32.01 87.97 32.29 82.36 C 36.94 79.25 42.70 79.38 48.04 78.89 C 57.58 77.81 67.34 78.92 76.74 76.56 C 78.86 76.00 80.18 74.02 81.17 72.20 C 86.53 61.46 89.47 49.69 95.07 39.06 M 98.09 38.04 C 92.83 49.53 89.28 61.72 84.32 73.32 C 82.00 78.92 75.36 80.11 69.97 80.19 C 61.07 81.00 52.12 80.86 43.21 81.38 C 39.90 82.06 35.21 82.25 33.85 85.96 C 37.84 84.96 41.73 83.40 45.90 83.25 C 53.23 82.83 60.58 83.11 67.90 82.54 C 72.97 82.16 78.57 82.08 82.70 78.69 C 87.04 75.05 88.15 69.17 90.17 64.15 C 93.32 54.57 97.52 45.38 100.90 35.90 C 99.45 35.82 98.55 36.76 98.09 38.04 Z" />
</g>
<g id="#fcf1c0ff">
<path fill="#fcf1c0" opacity="1.00" d=" M 98.09 38.04 C 98.55 36.76 99.45 35.82 100.90 35.90 C 97.52 45.38 93.32 54.57 90.17 64.15 C 88.15 69.17 87.04 75.05 82.70 78.69 C 78.57 82.08 72.97 82.16 67.90 82.54 C 60.58 83.11 53.23 82.83 45.90 83.25 C 41.73 83.40 37.84 84.96 33.85 85.96 C 35.21 82.25 39.90 82.06 43.21 81.38 C 52.12 80.86 61.07 81.00 69.97 80.19 C 75.36 80.11 82.00 78.92 84.32 73.32 C 89.28 61.72 92.83 49.53 98.09 38.04 Z" />
</g>
</svg>
