<?xml version="1.0" encoding="UTF-8" ?>
<!DOCTYPE svg PUBLIC "-//W3C//DTD SVG 1.1//EN" "http://www.w3.org/Graphics/SVG/1.1/DTD/svg11.dtd">
<svg width="200pt" height="200pt" viewBox="0 0 200 200" version="1.1" xmlns="http://www.w3.org/2000/svg">
<g id="#ffd800ff">
<path fill="#ffd800" opacity="1.00" d=" M 98.26 34.43 C 98.95 34.07 100.34 33.34 101.03 32.98 C 102.49 34.56 104.26 35.93 105.19 37.91 C 110.75 48.34 113.34 60.00 118.19 70.74 C 119.15 72.63 119.96 74.70 121.46 76.24 C 125.34 78.29 129.81 78.17 134.03 78.87 C 134.13 84.64 132.53 90.23 130.65 95.63 C 124.72 112.88 111.24 126.75 95.61 135.69 C 84.28 141.84 71.52 145.12 58.72 146.26 C 60.62 138.40 63.32 130.72 64.62 122.72 C 64.86 120.49 65.46 117.84 63.78 115.99 C 58.06 109.11 50.59 104.06 44.02 98.06 C 40.43 94.61 36.18 91.73 33.57 87.39 L 33.90 86.36 C 38.33 84.33 43.12 83.20 48.00 83.13 C 57.24 82.89 66.54 83.01 75.72 81.73 C 80.97 80.98 85.50 77.17 87.17 72.14 C 91.68 60.24 95.71 48.14 100.97 36.54 C 100.49 36.31 99.53 35.86 99.05 35.63 L 98.26 34.43 Z" />
</g>
<g id="#fdd803ff">
<path fill="#fdd803" opacity="1.00" d=" M 83.59 66.90 C 88.49 56.10 90.98 44.00 98.26 34.43 L 99.05 35.63 C 93.95 47.34 89.80 59.42 85.24 71.34 C 83.98 75.31 80.80 78.56 76.65 79.39 C 70.85 80.54 64.87 80.39 58.99 80.91 C 50.85 81.51 41.97 79.81 34.58 84.17 C 34.41 84.72 34.07 85.81 33.90 86.36 L 33.57 87.39 C 33.27 86.94 32.68 86.05 32.39 85.60 C 32.41 84.48 32.42 83.36 32.44 82.24 C 38.90 78.31 46.78 79.46 53.95 78.35 C 61.18 78.36 68.45 78.15 75.56 76.87 C 80.42 76.08 81.81 70.73 83.59 66.90 Z" />
</g>
<g id="#fcf2c3ff">
<path fill="#fcf2c3" opacity="1.00" d=" M 99.05 35.63 C 99.53 35.86 100.49 36.31 100.97 36.54 C 95.71 48.14 91.68 60.24 87.17 72.14 C 85.50 77.17 80.97 80.98 75.72 81.73 C 66.54 83.01 57.24 82.89 48.00 83.13 C 43.12 83.20 38.33 84.33 33.90 86.36 C 34.07 85.81 34.41 84.72 34.58 84.17 C 41.97 79.81 50.85 81.51 58.99 80.91 C 64.87 80.39 70.85 80.54 76.65 79.39 C 80.80 78.56 83.98 75.31 85.24 71.34 C 89.80 59.42 93.95 47.34 99.05 35.63 Z" />
</g>
<g id="#ffcc00ff">
<path fill="#ffcc00" opacity="1.00" d=" M 134.03 78.87 C 142.30 79.09 150.59 79.61 158.80 80.70 C 162.32 81.27 166.35 81.92 168.34 85.27 C 165.56 91.52 159.88 95.54 154.90 99.89 C 149.76 103.77 144.99 108.09 140.01 112.17 C 137.87 113.84 136.11 115.93 134.58 118.17 C 134.63 120.41 134.46 122.67 134.74 124.90 C 136.66 134.53 139.51 143.95 141.44 153.58 C 142.46 157.25 142.28 161.11 142.08 164.88 C 141.61 166.23 140.17 166.51 138.99 166.90 C 125.08 162.04 114.64 150.85 101.41 144.65 C 98.10 143.58 95.00 145.66 92.22 147.19 C 83.15 152.69 74.50 158.88 65.18 163.97 C 62.68 165.14 59.83 166.15 57.07 165.31 C 55.92 164.16 56.23 162.46 56.17 161.00 C 56.16 155.98 57.50 151.09 58.72 146.26 C 71.52 145.12 84.28 141.84 95.61 135.69 C 111.24 126.75 124.72 112.88 130.65 95.63 C 132.53 90.23 134.13 84.64 134.03 78.87 Z" />
</g>
</svg>
