<?xml version="1.0" encoding="UTF-8" ?>
<!DOCTYPE svg PUBLIC "-//W3C//DTD SVG 1.1//EN" "http://www.w3.org/Graphics/SVG/1.1/DTD/svg11.dtd">
<svg width="626pt" height="626pt" viewBox="0 0 626 626" version="1.1" xmlns="http://www.w3.org/2000/svg">
<g id="#833e3eff">
<path fill="#833e3e" opacity="1.00" d=" M 292.74 24.30 C 299.85 18.62 308.93 14.97 318.14 16.07 C 317.98 17.25 317.22 17.78 315.86 17.67 C 304.03 17.12 293.21 24.10 286.19 33.17 C 277.71 44.18 272.50 57.53 270.41 71.21 C 270.19 72.67 269.60 74.03 269.37 75.49 C 269.27 74.90 269.05 73.73 268.94 73.15 C 269.40 65.58 271.66 58.27 274.14 51.14 C 278.48 41.34 283.61 31.37 292.25 24.65 C 292.37 24.56 292.61 24.39 292.74 24.30 Z" />
</g>
<g id="#793437ff">
<path fill="#793437" opacity="1.00" d=" M 318.58 17.79 C 320.38 16.15 322.40 17.68 324.23 18.35 C 324.37 18.41 324.66 18.53 324.80 18.59 C 331.72 20.88 335.97 27.09 341.18 31.76 C 346.58 38.40 350.47 46.20 353.37 54.24 C 353.43 54.41 353.55 54.74 353.62 54.91 C 353.81 55.47 354.19 56.59 354.38 57.14 C 354.43 57.32 354.54 57.66 354.59 57.84 C 354.76 58.75 355.11 60.59 355.29 61.51 L 354.47 62.14 C 350.35 48.39 344.12 34.54 332.70 25.31 C 328.61 21.77 323.55 19.75 318.58 17.79 Z" />
</g>
<g id="#fe95adff">
<path fill="#fe95ad" opacity="1.00" d=" M 286.19 33.17 C 293.21 24.10 304.03 17.12 315.86 17.67 C 316.54 17.70 317.90 17.76 318.58 17.79 C 323.55 19.75 328.61 21.77 332.70 25.31 C 344.12 34.54 350.35 48.39 354.47 62.14 L 355.29 61.51 L 356.09 60.83 C 355.95 61.28 355.69 62.18 355.56 62.63 C 354.34 65.84 355.79 69.15 356.41 72.32 L 357.22 71.59 L 358.08 70.87 C 357.94 71.54 357.65 72.89 357.51 73.56 C 356.32 76.75 357.07 80.10 357.59 83.33 C 358.12 102.52 353.93 121.96 345.12 139.06 C 341.73 145.17 338.50 151.57 333.73 156.73 C 328.76 155.70 324.04 153.50 318.89 153.30 C 317.35 153.08 315.81 152.89 314.30 152.56 C 313.55 142.68 314.60 132.73 313.88 122.84 L 312.93 123.12 C 312.12 132.89 313.02 142.72 312.61 152.50 C 310.83 152.87 309.02 153.06 307.23 153.33 C 302.05 153.58 297.41 156.26 292.33 156.92 C 277.35 137.76 268.32 113.49 268.90 89.01 C 268.78 84.57 269.90 79.99 268.45 75.66 C 268.31 75.00 268.02 73.69 267.88 73.03 L 268.94 73.15 C 269.05 73.73 269.27 74.90 269.37 75.49 C 269.60 74.03 270.19 72.67 270.41 71.21 C 272.50 57.53 277.71 44.18 286.19 33.17 Z" />
<path fill="#fe95ad" opacity="1.00" d=" M 394.19 71.96 C 408.05 66.61 423.72 62.75 438.28 67.73 C 447.59 70.82 454.34 79.55 455.61 89.20 C 456.12 90.83 455.66 93.06 457.14 94.22 C 457.15 92.82 457.12 91.41 457.07 90.01 L 458.01 90.03 C 457.90 91.71 457.98 93.47 457.38 95.08 C 456.37 96.94 456.37 99.08 457.41 100.92 C 457.54 102.40 459.15 105.73 457.20 106.13 C 457.28 104.83 457.18 103.56 456.90 102.31 C 455.03 103.70 455.71 106.89 456.42 108.87 C 456.40 109.43 456.35 110.56 456.33 111.12 C 454.82 109.11 453.84 112.13 455.53 112.89 C 455.68 113.42 455.99 114.49 456.14 115.02 L 455.37 114.30 L 454.44 114.02 C 450.47 127.36 443.04 139.42 433.72 149.69 C 415.87 170.77 389.11 182.71 362.14 186.48 C 360.28 183.71 359.16 180.51 357.34 177.72 C 355.55 174.72 353.11 172.18 351.31 169.19 C 357.18 163.76 363.28 158.56 369.28 153.26 C 370.27 152.42 370.77 151.21 371.30 150.06 C 363.71 155.39 357.65 162.69 350.01 167.96 C 345.19 164.48 340.60 160.65 335.40 157.71 C 337.16 154.47 339.66 151.73 341.54 148.56 C 350.78 133.64 356.61 116.58 358.33 99.10 C 358.42 95.98 361.33 94.24 363.31 92.27 C 371.89 84.53 381.64 78.23 391.93 73.03 C 391.80 72.69 391.52 72.03 391.39 71.69 L 391.15 70.94 C 391.55 71.07 392.36 71.35 392.76 71.48 C 393.12 71.60 393.83 71.84 394.19 71.96 Z" />
<path fill="#fe95ad" opacity="1.00" d=" M 191.51 66.56 C 210.62 63.62 229.91 69.90 246.07 79.89 C 254.08 84.28 260.47 90.89 267.20 96.92 C 268.67 108.39 270.66 119.97 275.33 130.66 C 279.24 140.41 285.00 149.23 290.74 157.97 C 285.76 161.03 281.23 164.69 276.84 168.52 C 274.53 167.81 272.88 165.51 270.84 164.18 C 265.39 160.16 260.44 155.39 254.58 151.97 C 254.77 154.98 258.07 156.15 259.98 158.02 C 264.90 162.29 270.59 165.59 275.39 169.98 C 272.36 174.12 268.91 177.99 266.79 182.72 C 266.02 183.73 265.76 185.86 264.07 185.54 C 246.48 183.85 228.96 178.72 214.17 168.87 C 191.91 154.43 174.65 131.16 170.49 104.64 C 169.52 95.72 169.13 85.98 173.96 78.01 C 177.45 71.52 184.51 67.91 191.51 66.56 M 253.25 151.29 C 253.84 151.87 253.84 151.87 253.25 151.29 Z" />
<path fill="#fe95ad" opacity="1.00" d=" M 434.27 159.47 C 435.43 159.27 436.61 159.11 437.79 158.98 L 438.02 159.93 C 437.27 159.97 435.77 160.05 435.02 160.09 L 435.36 160.80 C 439.66 161.02 444.09 162.84 448.33 161.52 C 448.75 161.40 449.60 161.15 450.02 161.02 L 449.30 161.70 L 449.01 162.70 C 452.96 164.08 457.12 164.69 461.08 166.05 C 473.20 170.01 484.81 176.08 494.20 184.79 C 500.29 190.30 504.89 197.83 505.61 206.13 C 505.99 215.20 501.15 223.65 494.69 229.70 C 484.77 239.85 471.50 245.82 458.22 250.22 C 452.77 252.13 447.04 252.99 441.52 254.63 C 442.09 254.74 443.23 254.97 443.80 255.09 L 443.97 256.14 C 443.34 255.97 442.06 255.63 441.42 255.46 C 436.23 253.18 429.58 258.41 425.28 253.71 C 418.71 247.47 411.70 241.58 403.66 237.32 C 391.78 231.02 378.84 226.78 365.62 224.42 C 364.35 223.96 362.62 224.18 361.79 222.96 C 363.57 216.86 364.72 210.64 365.13 204.29 C 376.82 203.82 388.54 204.63 400.23 204.14 L 400.18 203.08 C 388.55 202.09 376.86 203.25 365.23 202.61 C 363.82 197.90 363.54 192.92 362.35 188.15 C 366.12 187.12 370.03 186.83 373.82 185.90 C 391.97 181.74 409.45 173.80 423.76 161.80 C 426.58 159.04 430.80 160.50 434.27 159.47 Z" />
<path fill="#fe95ad" opacity="1.00" d=" M 188.05 160.02 C 189.56 160.01 191.09 160.14 192.57 160.48 C 196.27 161.86 200.81 160.20 203.89 163.12 C 216.03 172.77 230.00 180.34 245.15 183.91 C 251.52 185.59 258.08 186.21 264.57 187.16 C 262.70 192.39 262.19 197.95 260.52 203.22 C 248.91 202.99 237.27 202.37 225.67 203.11 L 226.23 203.92 C 237.54 204.48 248.93 204.40 260.26 204.04 C 261.45 206.52 261.74 209.24 261.97 211.95 C 262.32 216.01 263.93 219.81 264.69 223.80 C 258.59 224.92 252.36 225.51 246.42 227.41 C 231.25 232.44 216.83 240.14 205.04 251.03 C 203.27 252.61 201.64 254.39 199.57 255.57 C 197.62 256.10 195.57 255.87 193.57 255.91 C 192.17 255.69 190.77 255.47 189.37 255.32 C 178.03 254.19 167.06 250.77 156.57 246.43 C 146.54 242.22 137.53 235.78 129.83 228.13 C 125.28 223.55 122.50 217.66 120.27 211.69 C 120.17 212.22 119.98 213.28 119.89 213.81 L 118.93 213.93 C 119.08 213.29 119.36 212.00 119.50 211.35 C 120.48 207.34 119.64 203.05 121.20 199.15 C 124.71 189.03 133.40 181.78 142.21 176.25 C 153.26 169.48 165.79 165.61 178.45 163.19 C 183.04 162.10 187.97 162.69 192.39 161.08 C 190.92 160.99 189.45 160.96 187.99 160.98 L 188.05 160.02 Z" />
<path fill="#fe95ad" opacity="1.00" d=" M 360.70 225.49 C 365.06 225.07 369.32 226.71 373.57 227.50 C 393.52 232.34 412.53 242.30 426.72 257.28 C 434.87 264.84 440.50 274.56 445.57 284.33 C 449.30 292.82 452.18 301.76 453.30 310.99 C 453.87 319.17 453.45 327.86 449.12 335.06 C 445.04 342.21 436.86 345.75 429.06 347.01 C 424.32 348.06 419.34 346.98 414.69 348.51 C 414.06 348.67 412.80 348.99 412.17 349.15 L 412.13 348.31 C 412.49 348.13 413.22 347.75 413.58 347.56 C 413.02 345.91 410.33 346.99 409.06 347.38 C 408.30 347.58 406.78 347.98 406.02 348.18 L 406.16 347.11 C 406.73 347.01 407.87 346.79 408.44 346.68 C 406.01 345.88 403.44 344.46 400.87 345.52 C 400.38 345.67 399.40 345.95 398.90 346.10 L 399.56 345.27 L 400.21 344.49 C 388.77 340.28 377.70 334.61 368.69 326.27 C 365.06 323.26 362.55 319.08 358.58 316.47 C 358.45 318.43 358.76 320.39 359.35 322.26 C 359.70 323.50 359.94 324.77 360.06 326.06 L 359.30 325.52 C 359.01 325.24 358.42 324.66 358.13 324.38 C 357.47 326.50 357.77 328.79 358.39 330.89 C 358.57 331.61 358.92 333.06 359.10 333.78 L 358.06 333.92 C 357.95 333.33 357.73 332.17 357.61 331.58 C 356.19 336.10 355.88 340.89 354.47 345.43 C 350.81 359.24 344.38 372.94 333.49 382.51 C 327.42 387.40 320.05 391.66 311.97 391.10 C 302.35 390.39 293.57 384.84 287.56 377.47 C 276.46 364.33 271.14 347.44 267.82 330.84 C 267.44 327.71 266.40 324.60 266.67 321.44 C 268.92 317.86 271.95 314.83 274.32 311.32 C 284.97 296.90 291.12 279.57 293.68 261.93 C 294.11 259.15 294.01 256.23 295.09 253.60 C 300.86 255.00 306.72 256.00 312.50 257.37 C 312.75 265.58 312.47 273.81 312.48 282.03 C 312.77 283.42 312.00 285.69 313.74 286.32 C 314.57 276.65 313.62 266.92 314.17 257.25 C 319.40 256.83 324.51 255.61 329.71 255.02 C 333.98 276.07 341.78 296.79 355.17 313.80 C 356.03 314.83 357.17 315.57 358.28 316.33 C 356.49 312.16 353.32 308.83 350.97 305.00 C 341.05 289.69 334.03 272.29 331.49 254.19 C 334.39 252.41 337.69 251.36 340.58 249.54 C 343.32 247.92 345.57 245.62 348.19 243.81 C 349.97 244.55 351.31 246.00 352.66 247.33 C 358.39 253.26 364.63 258.68 370.52 264.45 C 372.24 266.16 374.09 267.76 376.24 268.92 C 374.96 265.44 371.84 263.21 369.28 260.71 C 363.83 255.82 358.66 250.63 353.14 245.82 C 351.93 244.73 350.72 243.60 349.93 242.17 C 353.84 236.82 357.93 231.57 360.70 225.49 Z" />
<path fill="#fe95ad" opacity="1.00" d=" M 235.91 232.90 C 245.19 229.19 254.94 226.12 264.98 225.66 C 267.72 228.41 268.85 232.53 271.46 235.50 C 272.70 237.63 275.23 239.24 275.76 241.63 C 269.44 248.02 262.83 254.12 256.33 260.31 C 254.00 262.64 251.31 264.77 249.91 267.83 C 253.85 265.63 256.75 262.05 260.08 259.08 C 265.58 253.27 271.76 248.16 277.25 242.34 C 282.08 246.22 286.92 250.18 292.80 252.37 C 293.27 255.89 292.39 259.43 291.99 262.92 C 289.01 284.31 279.81 305.06 264.58 320.56 C 254.63 331.31 241.76 338.99 228.13 344.13 C 218.40 347.94 207.65 349.44 197.33 347.48 C 189.05 345.58 180.79 341.18 176.48 333.59 C 171.95 325.52 172.38 315.75 173.91 306.92 C 176.43 294.09 181.74 281.87 189.06 271.06 C 200.64 254.20 217.58 241.60 235.91 232.90 Z" />
<path fill="#fe95ad" opacity="1.00" d=" M 476.50 426.18 C 476.68 423.68 477.04 421.20 477.69 418.77 L 477.73 419.80 C 477.88 422.02 477.55 424.21 476.50 426.18 Z" />
</g>
<g id="#d3a9a4ff">
<path fill="#d3a9a4" opacity="1.00" d=" M 324.23 18.35 C 324.37 18.41 324.66 18.53 324.80 18.59 C 324.66 18.53 324.37 18.41 324.23 18.35 Z" />
</g>
<g id="#fcfdfdff">
<path fill="#fcfdfd" opacity="1.00" d=" M 292.25 24.65 C 292.37 24.56 292.61 24.39 292.74 24.30 C 292.61 24.39 292.37 24.56 292.25 24.65 Z" />
<path fill="#fcfdfd" opacity="1.00" d=" M 439.35 145.79 C 439.44 145.66 439.62 145.42 439.71 145.29 C 439.62 145.42 439.44 145.66 439.35 145.79 Z" />
<path fill="#fcfdfd" opacity="1.00" d=" M 307.36 154.36 C 311.16 154.15 314.98 154.18 318.79 154.34 C 333.07 156.51 346.46 164.37 354.60 176.40 C 363.63 189.38 365.68 206.71 360.46 221.57 C 355.64 235.25 345.03 247.14 331.28 252.19 C 319.93 256.70 307.18 255.90 295.79 251.97 C 285.36 248.29 276.60 240.69 270.56 231.52 C 262.26 218.82 260.46 202.11 266.03 187.99 C 270.97 175.42 280.84 164.86 293.04 159.07 C 297.61 156.92 302.56 155.83 307.36 154.36 M 286.75 170.75 C 278.22 177.65 271.54 187.47 270.51 198.60 L 271.68 198.15 C 271.49 202.83 271.53 207.53 271.68 212.21 C 270.84 207.68 271.39 203.06 271.32 198.49 C 269.07 198.56 270.25 201.58 269.81 203.00 C 269.31 212.84 272.41 222.77 278.39 230.61 C 286.33 240.98 298.93 247.78 312.02 248.33 C 320.93 248.77 329.92 246.20 337.38 241.35 C 346.94 234.73 353.87 224.01 355.42 212.45 L 354.38 212.98 C 354.47 212.48 354.65 211.47 354.74 210.97 L 354.62 212.21 L 355.81 212.42 C 357.27 202.01 355.68 190.95 350.09 181.92 C 343.28 170.50 330.87 162.60 317.61 161.45 C 306.64 160.33 295.22 163.67 286.75 170.75 Z" />
<path fill="#fcfdfd" opacity="1.00" d=" M 454.13 307.92 L 454.86 308.30 C 454.63 312.61 454.55 316.92 454.81 321.23 C 454.58 317.85 454.51 314.46 454.30 311.09 C 454.26 310.29 454.17 308.71 454.13 307.92 Z" />
<path fill="#fcfdfd" opacity="1.00" d=" M 320.02 568.89 L 320.77 569.32 C 321.08 582.88 320.60 596.45 320.77 610.01 C 320.63 611.35 321.08 612.91 320.25 614.10 C 320.25 613.59 320.25 612.56 320.25 612.04 C 320.29 604.03 320.16 596.02 320.12 588.02 C 320.20 581.64 320.30 575.26 320.02 568.89 Z" />
</g>
<g id="#e19fa2ff">
<path fill="#e19fa2" opacity="1.00" d=" M 353.37 54.24 C 353.43 54.41 353.55 54.74 353.62 54.91 C 353.55 54.74 353.43 54.41 353.37 54.24 Z" />
</g>
<g id="#b6b6adff">
<path fill="#b6b6ad" opacity="1.00" d=" M 354.38 57.14 C 354.43 57.32 354.54 57.66 354.59 57.84 C 354.54 57.66 354.43 57.32 354.38 57.14 Z" />
</g>
<g id="#6d2229ff">
<path fill="#6d2229" opacity="1.00" d=" M 356.41 72.32 C 355.79 69.15 354.34 65.84 355.56 62.63 C 355.67 63.22 355.89 64.39 356.01 64.97 C 356.19 65.49 356.55 66.51 356.74 67.03 C 356.98 68.54 357.14 70.06 357.22 71.59 L 356.41 72.32 Z" />
</g>
<g id="#ca8583ff">
<path fill="#ca8583" opacity="1.00" d=" M 196.01 64.06 C 199.33 63.92 202.67 63.92 205.99 64.06 L 206.02 65.05 C 202.68 65.04 199.33 65.02 195.99 65.04 L 196.01 64.06 Z" />
</g>
<g id="#c57d82ff">
<path fill="#c57d82" opacity="1.00" d=" M 414.13 65.10 C 413.80 63.28 417.10 63.31 417.96 64.39 C 416.76 64.93 415.45 65.32 414.13 65.10 Z" />
</g>
<g id="#7b3538ff">
<path fill="#7b3538" opacity="1.00" d=" M 417.96 64.39 C 421.58 63.82 425.36 64.02 429.02 64.31 C 429.85 65.04 430.80 65.31 431.88 65.13 C 434.43 64.78 436.94 65.14 439.23 66.35 C 439.37 66.41 439.65 66.53 439.80 66.59 C 449.56 70.14 456.32 79.75 457.07 90.01 C 457.12 91.41 457.15 92.82 457.14 94.22 C 455.66 93.06 456.12 90.83 455.61 89.20 C 454.34 79.55 447.59 70.82 438.28 67.73 C 423.72 62.75 408.05 66.61 394.19 71.96 C 393.83 71.84 393.12 71.60 392.76 71.48 C 395.24 69.27 398.61 68.76 401.64 67.67 C 405.69 66.40 409.79 64.65 414.13 65.10 C 415.45 65.32 416.76 64.93 417.96 64.39 Z" />
</g>
<g id="#cb6f6bff">
<path fill="#cb6f6b" opacity="1.00" d=" M 429.02 64.31 C 430.53 63.27 431.48 63.54 431.88 65.13 C 430.80 65.31 429.85 65.04 429.02 64.31 Z" />
</g>
<g id="#832e37ff">
<path fill="#832e37" opacity="1.00" d=" M 178.97 69.97 C 183.88 66.52 189.98 64.62 195.99 65.04 C 199.33 65.02 202.68 65.04 206.02 65.05 C 215.56 64.52 224.66 68.18 233.30 71.74 C 242.04 74.91 250.04 79.93 257.20 85.82 C 259.90 88.90 263.59 90.81 266.33 93.85 L 267.01 93.86 L 267.74 93.80 C 268.04 89.87 267.98 85.92 268.02 81.97 C 268.03 79.86 268.14 77.75 268.45 75.66 C 269.90 79.99 268.78 84.57 268.90 89.01 C 268.32 113.49 277.35 137.76 292.33 156.92 C 297.41 156.26 302.05 153.58 307.23 153.33 L 307.36 154.36 C 302.56 155.83 297.61 156.92 293.04 159.07 C 280.84 164.86 270.97 175.42 266.03 187.99 C 260.46 202.11 262.26 218.82 270.56 231.52 C 276.60 240.69 285.36 248.29 295.79 251.97 C 295.62 252.38 295.26 253.19 295.09 253.60 C 294.01 256.23 294.11 259.15 293.68 261.93 C 291.12 279.57 284.97 296.90 274.32 311.32 C 271.95 314.83 268.92 317.86 266.67 321.44 C 266.40 324.60 267.44 327.71 267.82 330.84 C 267.69 331.23 267.42 332.03 267.29 332.42 L 266.24 332.00 C 265.97 329.28 266.38 326.38 264.64 324.04 C 264.29 324.06 263.58 324.10 263.23 324.12 C 260.50 327.32 257.02 329.65 253.77 332.28 C 253.65 332.36 253.42 332.54 253.30 332.63 C 244.55 339.24 234.60 343.95 224.20 347.21 C 215.63 349.12 206.62 351.62 197.92 349.01 C 189.31 347.64 181.06 343.17 176.03 335.94 C 173.99 331.90 171.59 327.70 172.00 323.00 C 171.93 319.31 171.91 315.63 172.00 311.94 C 171.99 310.60 172.12 309.28 172.37 307.97 C 173.05 307.11 173.29 306.15 173.10 305.09 C 172.81 302.96 173.14 300.82 174.36 299.03 C 174.51 298.52 174.83 297.52 174.99 297.01 C 176.66 291.40 178.51 285.75 181.36 280.63 C 181.46 280.46 181.66 280.12 181.76 279.95 L 182.28 279.05 C 182.37 278.88 182.57 278.53 182.67 278.35 C 184.57 274.61 186.81 271.05 189.36 267.71 C 189.45 267.60 189.63 267.37 189.71 267.25 C 192.27 263.63 195.42 260.46 198.08 256.98 C 196.37 256.85 194.66 256.85 192.96 256.66 L 193.57 255.91 C 195.57 255.87 197.62 256.10 199.57 255.57 C 201.64 254.39 203.27 252.61 205.04 251.03 C 216.83 240.14 231.25 232.44 246.42 227.41 C 252.36 225.51 258.59 224.92 264.69 223.80 C 263.93 219.81 262.32 216.01 261.97 211.95 C 261.74 209.24 261.45 206.52 260.26 204.04 L 260.52 203.22 C 262.19 197.95 262.70 192.39 264.57 187.16 C 258.08 186.21 251.52 185.59 245.15 183.91 C 230.00 180.34 216.03 172.77 203.89 163.12 C 200.81 160.20 196.27 161.86 192.57 160.48 C 194.73 160.14 196.92 160.11 199.11 159.97 C 197.13 156.93 193.78 155.09 191.95 151.93 C 185.11 143.21 178.30 134.24 174.13 123.88 C 171.98 116.67 168.61 109.55 169.11 101.86 C 169.32 100.51 168.92 99.19 168.34 97.99 C 168.34 97.24 168.35 95.74 168.36 95.00 C 168.96 93.46 169.30 91.82 169.10 90.16 C 168.70 85.89 170.55 81.87 172.02 77.96 C 174.30 75.27 175.92 71.92 178.97 69.97 M 191.51 66.56 C 184.51 67.91 177.45 71.52 173.96 78.01 C 169.13 85.98 169.52 95.72 170.49 104.64 C 174.65 131.16 191.91 154.43 214.17 168.87 C 228.96 178.72 246.48 183.85 264.07 185.54 C 265.76 185.86 266.02 183.73 266.79 182.72 C 268.91 177.99 272.36 174.12 275.39 169.98 C 270.59 165.59 264.90 162.29 259.98 158.02 C 258.07 156.15 254.77 154.98 254.58 151.97 C 260.44 155.39 265.39 160.16 270.84 164.18 C 272.88 165.51 274.53 167.81 276.84 168.52 C 281.23 164.69 285.76 161.03 290.74 157.97 C 285.00 149.23 279.24 140.41 275.33 130.66 C 270.66 119.97 268.67 108.39 267.20 96.92 C 260.47 90.89 254.08 84.28 246.07 79.89 C 229.91 69.90 210.62 63.62 191.51 66.56 M 235.91 232.90 C 217.58 241.60 200.64 254.20 189.06 271.06 C 181.74 281.87 176.43 294.09 173.91 306.92 C 172.38 315.75 171.95 325.52 176.48 333.59 C 180.79 341.18 189.05 345.58 197.33 347.48 C 207.65 349.44 218.40 347.94 228.13 344.13 C 241.76 338.99 254.63 331.31 264.58 320.56 C 279.81 305.06 289.01 284.31 291.99 262.92 C 292.39 259.43 293.27 255.89 292.80 252.37 C 286.92 250.18 282.08 246.22 277.25 242.34 C 271.76 248.16 265.58 253.27 260.08 259.08 C 256.75 262.05 253.85 265.63 249.91 267.83 C 251.31 264.77 254.00 262.64 256.33 260.31 C 262.83 254.12 269.44 248.02 275.76 241.63 C 275.23 239.24 272.70 237.63 271.46 235.50 C 268.85 232.53 267.72 228.41 264.98 225.66 C 254.94 226.12 245.19 229.19 235.91 232.90 Z" />
</g>
<g id="#ab9591ff">
<path fill="#ab9591" opacity="1.00" d=" M 356.01 64.97 L 356.88 65.21 C 356.85 65.67 356.77 66.57 356.74 67.03 C 356.55 66.51 356.19 65.49 356.01 64.97 Z" />
</g>
<g id="#eda3a2ff">
<path fill="#eda3a2" opacity="1.00" d=" M 439.23 66.35 C 439.37 66.41 439.65 66.53 439.80 66.59 C 439.65 66.53 439.37 66.41 439.23 66.35 Z" />
</g>
<g id="#7b272fff">
<path fill="#7b272f" opacity="1.00" d=" M 382.75 76.37 C 385.58 74.74 388.50 73.24 391.39 71.69 C 391.52 72.03 391.80 72.69 391.93 73.03 C 381.64 78.23 371.89 84.53 363.31 92.27 C 361.33 94.24 358.42 95.98 358.33 99.10 C 356.61 116.58 350.78 133.64 341.54 148.56 C 339.66 151.73 337.16 154.47 335.40 157.71 C 340.60 160.65 345.19 164.48 350.01 167.96 C 357.65 162.69 363.71 155.39 371.30 150.06 C 370.77 151.21 370.27 152.42 369.28 153.26 C 363.28 158.56 357.18 163.76 351.31 169.19 C 353.11 172.18 355.55 174.72 357.34 177.72 C 359.16 180.51 360.28 183.71 362.14 186.48 C 389.11 182.71 415.87 170.77 433.72 149.69 C 443.04 139.42 450.47 127.36 454.44 114.02 L 455.37 114.30 C 454.80 117.36 453.73 120.29 452.61 123.19 C 452.56 123.33 452.44 123.61 452.39 123.75 C 450.28 128.82 447.67 133.68 444.61 138.24 C 444.53 138.36 444.37 138.61 444.28 138.73 C 442.72 140.90 441.21 143.09 439.71 145.29 C 439.62 145.42 439.44 145.66 439.35 145.79 C 436.02 150.17 431.12 153.26 428.04 157.79 C 429.52 159.69 432.18 159.03 434.27 159.47 C 430.80 160.50 426.58 159.04 423.76 161.80 C 409.45 173.80 391.97 181.74 373.82 185.90 C 370.03 186.83 366.12 187.12 362.35 188.15 C 363.54 192.92 363.82 197.90 365.23 202.61 C 376.86 203.25 388.55 202.09 400.18 203.08 L 400.23 204.14 C 388.54 204.63 376.82 203.82 365.13 204.29 C 364.72 210.64 363.57 216.86 361.79 222.96 C 362.62 224.18 364.35 223.96 365.62 224.42 C 378.84 226.78 391.78 231.02 403.66 237.32 C 411.70 241.58 418.71 247.47 425.28 253.71 C 429.58 258.41 436.23 253.18 441.42 255.46 C 439.94 255.82 438.44 255.99 436.94 255.98 C 436.43 256.17 435.43 256.55 434.92 256.73 C 433.27 256.90 431.62 256.87 429.97 257.00 C 429.65 258.99 431.56 259.99 432.62 261.35 C 435.01 264.19 437.04 267.31 439.28 270.27 C 439.37 270.38 439.55 270.62 439.63 270.73 C 442.16 273.67 443.55 277.31 445.28 280.73 C 449.82 289.16 453.17 298.37 454.13 307.92 C 454.17 308.71 454.26 310.29 454.30 311.09 L 453.30 310.99 C 452.18 301.76 449.30 292.82 445.57 284.33 C 440.50 274.56 434.87 264.84 426.72 257.28 C 412.53 242.30 393.52 232.34 373.57 227.50 C 369.32 226.71 365.06 225.07 360.70 225.49 C 357.93 231.57 353.84 236.82 349.93 242.17 C 350.72 243.60 351.93 244.73 353.14 245.82 C 358.66 250.63 363.83 255.82 369.28 260.71 C 371.84 263.21 374.96 265.44 376.24 268.92 C 374.09 267.76 372.24 266.16 370.52 264.45 C 364.63 258.68 358.39 253.26 352.66 247.33 C 351.31 246.00 349.97 244.55 348.19 243.81 C 345.57 245.62 343.32 247.92 340.58 249.54 C 337.69 251.36 334.39 252.41 331.49 254.19 C 334.03 272.29 341.05 289.69 350.97 305.00 C 353.32 308.83 356.49 312.16 358.28 316.33 C 357.17 315.57 356.03 314.83 355.17 313.80 C 341.78 296.79 333.98 276.07 329.71 255.02 C 324.51 255.61 319.40 256.83 314.17 257.25 C 313.62 266.92 314.57 276.65 313.74 286.32 C 312.00 285.69 312.77 283.42 312.48 282.03 C 312.47 273.81 312.75 265.58 312.50 257.37 C 306.72 256.00 300.86 255.00 295.09 253.60 C 295.26 253.19 295.62 252.38 295.79 251.97 C 307.18 255.90 319.93 256.70 331.28 252.19 C 345.03 247.14 355.64 235.25 360.46 221.57 C 365.68 206.71 363.63 189.38 354.60 176.40 C 346.46 164.37 333.07 156.51 318.79 154.34 L 318.89 153.30 C 324.04 153.50 328.76 155.70 333.73 156.73 C 338.50 151.57 341.73 145.17 345.12 139.06 C 353.93 121.96 358.12 102.52 357.59 83.33 C 357.67 81.89 357.77 80.44 357.89 79.00 L 358.97 78.95 C 359.17 84.01 358.64 89.06 359.01 94.11 C 366.38 87.88 373.85 81.59 382.23 76.68 C 382.36 76.60 382.62 76.45 382.75 76.37 Z" />
</g>
<g id="#81192cff">
<path fill="#81192c" opacity="1.00" d=" M 357.59 83.33 C 357.07 80.10 356.32 76.75 357.51 73.56 C 357.84 75.35 358.03 77.18 357.89 79.00 C 357.77 80.44 357.67 81.89 357.59 83.33 Z" />
</g>
<g id="#eca39aff">
<path fill="#eca39a" opacity="1.00" d=" M 382.23 76.68 C 382.36 76.60 382.62 76.45 382.75 76.37 C 382.62 76.45 382.36 76.60 382.23 76.68 Z" />
</g>
<g id="#988a87ff">
<path fill="#988a87" opacity="1.00" d=" M 267.04 82.01 L 268.02 81.97 C 267.98 85.92 268.04 89.87 267.74 93.80 L 267.01 93.86 C 266.98 89.91 266.94 85.96 267.04 82.01 Z" />
</g>
<g id="#b0666dff">
<path fill="#b0666d" opacity="1.00" d=" M 168.36 95.00 C 167.46 93.82 167.12 90.06 169.10 90.16 C 169.30 91.82 168.96 93.46 168.36 95.00 Z" />
</g>
<g id="#8a2c35ff">
<path fill="#8a2c35" opacity="1.00" d=" M 457.41 100.92 C 456.37 99.08 456.37 96.94 457.38 95.08 C 458.41 96.69 458.45 99.30 457.41 100.92 Z" />
</g>
<g id="#c07f85ff">
<path fill="#c07f85" opacity="1.00" d=" M 168.34 97.99 C 168.92 99.19 169.32 100.51 169.11 101.86 C 167.29 102.16 167.33 98.89 168.34 97.99 Z" />
</g>
<g id="#5a1d18ff">
<path fill="#5a1d18" opacity="1.00" d=" M 456.42 108.87 C 455.71 106.89 455.03 103.70 456.90 102.31 C 457.18 103.56 457.28 104.83 457.20 106.13 C 457.00 106.81 456.61 108.18 456.42 108.87 Z" />
</g>
<g id="#6b0c15ff">
<path fill="#6b0c15" opacity="1.00" d=" M 455.53 112.89 C 453.84 112.13 454.82 109.11 456.33 111.12 C 456.13 111.56 455.73 112.45 455.53 112.89 Z" />
</g>
<g id="#680316ff">
<path fill="#680316" opacity="1.00" d=" M 312.93 123.12 L 313.88 122.84 C 314.60 132.73 313.55 142.68 314.30 152.56 C 315.81 152.89 317.35 153.08 318.89 153.30 L 318.79 154.34 C 314.98 154.18 311.16 154.15 307.36 154.36 L 307.23 153.33 C 309.02 153.06 310.83 152.87 312.61 152.50 C 313.02 142.72 312.12 132.89 312.93 123.12 Z" />
</g>
<g id="#bca3a0ff">
<path fill="#bca3a0" opacity="1.00" d=" M 452.39 123.75 C 452.44 123.61 452.56 123.33 452.61 123.19 C 452.56 123.33 452.44 123.61 452.39 123.75 Z" />
</g>
<g id="#afacaeff">
<path fill="#afacae" opacity="1.00" d=" M 444.28 138.73 C 444.37 138.61 444.53 138.36 444.61 138.24 C 444.53 138.36 444.37 138.61 444.28 138.73 Z" />
</g>
<g id="#520002ff">
<path fill="#520002" opacity="1.00" d=" M 253.25 151.29 C 253.84 151.87 253.84 151.87 253.25 151.29 Z" />
</g>
<g id="#5f1224ff">
<path fill="#5f1224" opacity="1.00" d=" M 435.02 160.09 C 435.77 160.05 437.27 159.97 438.02 159.93 C 439.68 159.92 441.36 159.95 443.01 160.20 C 443.50 160.42 444.47 160.85 444.96 161.06 C 445.80 161.17 447.49 161.40 448.33 161.52 C 444.09 162.84 439.66 161.02 435.36 160.80 L 435.02 160.09 Z" />
</g>
<g id="#b77887ff">
<path fill="#b77887" opacity="1.00" d=" M 443.01 160.20 C 443.46 160.20 444.36 160.19 444.81 160.18 L 444.96 161.06 C 444.47 160.85 443.50 160.42 443.01 160.20 Z" />
</g>
<g id="#a79d95ff">
<path fill="#a79d95" opacity="1.00" d=" M 180.24 161.14 C 180.69 161.17 181.60 161.24 182.05 161.27 C 181.55 161.45 180.54 161.83 180.03 162.01 L 180.24 161.14 Z" />
</g>
<g id="#6f272fff">
<path fill="#6f272f" opacity="1.00" d=" M 182.05 161.27 C 184.02 161.04 186.01 161.04 187.99 160.98 C 189.45 160.96 190.92 160.99 192.39 161.08 C 187.97 162.69 183.04 162.10 178.45 163.19 C 178.06 162.93 177.28 162.42 176.89 162.17 C 177.67 162.13 179.24 162.05 180.03 162.01 C 180.54 161.83 181.55 161.45 182.05 161.27 Z" />
</g>
<g id="#0d1101ff">
<path fill="#0d1101" opacity="1.00" d=" M 286.75 170.75 C 295.22 163.67 306.64 160.33 317.61 161.45 C 330.87 162.60 343.28 170.50 350.09 181.92 C 355.68 190.95 357.27 202.01 355.81 212.42 L 354.62 212.21 L 354.74 210.97 C 356.24 201.08 353.97 190.77 348.80 182.25 C 341.78 171.05 329.30 163.17 315.99 162.56 C 305.82 161.89 295.72 165.62 287.65 171.64 C 279.49 178.27 273.43 187.70 271.68 198.15 L 270.51 198.60 C 271.54 187.47 278.22 177.65 286.75 170.75 Z" />
<path fill="#0d1101" opacity="1.00" d=" M 269.81 203.00 C 270.25 201.58 269.07 198.56 271.32 198.49 C 271.39 203.06 270.84 207.68 271.68 212.21 C 274.26 227.83 286.71 240.95 301.81 245.28 C 314.41 249.16 329.03 246.69 339.29 238.28 C 347.07 231.93 352.15 222.69 354.38 212.98 L 355.42 212.45 C 353.87 224.01 346.94 234.73 337.38 241.35 C 329.92 246.20 320.93 248.77 312.02 248.33 C 298.93 247.78 286.33 240.98 278.39 230.61 C 272.41 222.77 269.31 212.84 269.81 203.00 Z" />
<path fill="#0d1101" opacity="1.00" d=" M 150.00 405.24 C 151.90 404.91 153.87 404.88 155.77 405.19 C 156.39 405.34 157.63 405.64 158.25 405.80 C 155.56 405.91 152.84 406.06 150.31 407.00 C 153.95 409.46 158.08 411.03 161.91 413.15 C 200.69 433.57 234.99 461.35 267.32 490.69 C 276.56 499.46 286.31 507.68 295.39 516.62 C 298.53 519.58 301.01 523.17 304.22 526.07 C 304.09 522.95 302.53 519.83 303.50 516.75 C 303.70 517.39 304.10 518.68 304.30 519.33 L 304.54 520.09 C 304.90 520.12 305.63 520.18 305.99 520.21 L 306.92 520.26 C 306.77 524.87 306.78 529.49 306.96 534.11 L 306.21 533.83 C 305.91 533.73 305.30 533.52 304.99 533.42 C 304.62 533.31 303.86 533.08 303.49 532.97 C 303.09 532.85 302.31 532.62 301.92 532.50 C 302.67 532.32 304.16 531.95 304.91 531.77 C 305.15 528.96 302.62 527.02 301.11 524.97 C 288.81 511.55 274.64 500.03 261.57 487.40 C 232.87 461.17 201.94 437.12 168.02 417.99 C 161.75 414.34 154.99 411.59 148.88 407.68 C 148.22 407.12 147.55 406.58 146.89 406.04 L 147.95 406.07 C 148.46 405.86 149.49 405.45 150.00 405.24 Z" />
<path fill="#0d1101" opacity="1.00" d=" M 466.59 405.43 C 467.17 405.30 468.33 405.06 468.90 404.94 C 470.29 404.88 471.65 405.04 473.00 405.40 C 473.87 406.05 474.84 406.27 475.91 406.05 C 477.25 405.94 478.59 405.99 479.94 406.19 C 479.94 406.85 479.95 408.16 479.95 408.82 C 479.93 409.67 479.87 411.38 479.85 412.24 C 479.35 411.03 478.89 409.80 478.14 408.73 C 445.15 425.16 413.51 444.55 385.17 468.19 C 373.83 477.09 363.73 487.40 353.01 496.99 C 344.45 505.09 335.85 513.16 327.76 521.73 C 324.97 524.88 321.80 527.86 320.03 531.74 C 321.70 531.95 323.39 532.06 325.07 532.23 C 324.71 532.41 323.98 532.78 323.61 532.97 C 322.95 533.06 321.63 533.24 320.97 533.33 L 320.33 533.42 C 320.21 534.01 319.98 535.18 319.87 535.76 C 320.00 546.80 319.66 557.85 320.02 568.89 C 320.30 575.26 320.20 581.64 320.12 588.02 L 319.03 588.01 C 318.87 553.33 319.24 518.67 319.05 484.00 L 320.05 484.03 C 320.18 494.43 319.92 504.82 319.99 515.22 L 320.02 516.19 C 320.03 516.47 320.07 517.02 320.09 517.30 C 320.58 517.37 321.55 517.50 322.04 517.56 C 321.70 520.46 321.10 523.34 321.09 526.28 C 321.95 525.74 322.76 525.13 323.52 524.46 C 333.87 512.54 345.70 502.02 357.08 491.09 C 392.27 457.17 433.03 429.13 476.99 407.82 C 474.28 405.77 469.85 406.86 466.59 405.43 Z" />
<path fill="#0d1101" opacity="1.00" d=" M 343.27 534.19 C 345.09 534.32 346.93 534.32 348.76 534.20 C 348.61 536.16 343.38 536.16 343.27 534.19 Z" />
</g>
<g id="#7b3637ff">
<path fill="#7b3637" opacity="1.00" d=" M 154.81 168.39 C 161.99 165.75 169.30 163.23 176.89 162.17 C 177.28 162.42 178.06 162.93 178.45 163.19 C 165.79 165.61 153.26 169.48 142.21 176.25 C 133.40 181.78 124.71 189.03 121.20 199.15 C 119.64 203.05 120.48 207.34 119.50 211.35 C 118.43 204.00 119.08 195.94 123.97 189.99 C 130.01 182.95 137.11 176.49 145.70 172.72 C 148.53 171.33 151.28 169.76 154.23 168.61 C 154.37 168.56 154.66 168.45 154.81 168.39 Z" />
</g>
<g id="#6b2d36ff">
<path fill="#6b2d36" opacity="1.00" d=" M 449.01 162.70 L 449.30 161.70 C 450.22 161.84 452.07 162.12 453.00 162.26 C 453.50 162.45 454.49 162.83 454.98 163.02 C 457.12 163.04 459.14 163.85 461.17 164.44 C 461.34 164.49 461.68 164.60 461.86 164.65 C 462.40 164.84 463.49 165.21 464.03 165.39 C 464.20 165.45 464.54 165.57 464.71 165.63 C 472.28 168.32 479.49 172.05 486.23 176.41 C 486.35 176.49 486.60 176.66 486.73 176.74 C 493.25 180.86 498.45 186.76 502.93 192.97 C 505.81 198.47 507.79 204.66 506.75 210.93 C 506.56 211.44 506.20 212.45 506.02 212.96 C 505.85 218.46 502.01 222.77 499.12 227.13 C 496.15 230.31 493.11 233.48 489.81 236.33 C 489.70 236.41 489.47 236.58 489.35 236.67 C 484.71 239.92 479.66 242.56 474.67 245.23 C 474.53 245.30 474.25 245.44 474.11 245.51 C 469.53 247.95 464.61 249.57 459.74 251.32 C 459.59 251.37 459.29 251.48 459.15 251.53 C 457.13 252.15 455.12 252.99 452.99 252.98 C 452.48 253.13 451.46 253.44 450.95 253.60 C 448.65 254.43 446.25 255.05 443.80 255.09 C 443.23 254.97 442.09 254.74 441.52 254.63 C 447.04 252.99 452.77 252.13 458.22 250.22 C 471.50 245.82 484.77 239.85 494.69 229.70 C 501.15 223.65 505.99 215.20 505.61 206.13 C 504.89 197.83 500.29 190.30 494.20 184.79 C 484.81 176.08 473.20 170.01 461.08 166.05 C 457.12 164.69 452.96 164.08 449.01 162.70 Z" />
</g>
<g id="#b88691ff">
<path fill="#b88691" opacity="1.00" d=" M 453.00 162.26 L 453.78 161.76 L 454.80 162.15 L 454.98 163.02 C 454.49 162.83 453.50 162.45 453.00 162.26 Z" />
</g>
<g id="#fdc879ff">
<path fill="#fdc879" opacity="1.00" d=" M 287.65 171.64 C 295.72 165.62 305.82 161.89 315.99 162.56 C 329.30 163.17 341.78 171.05 348.80 182.25 C 353.97 190.77 356.24 201.08 354.74 210.97 C 354.65 211.47 354.47 212.48 354.38 212.98 C 352.15 222.69 347.07 231.93 339.29 238.28 C 329.03 246.69 314.41 249.16 301.81 245.28 C 286.71 240.95 274.26 227.83 271.68 212.21 C 271.53 207.53 271.49 202.83 271.68 198.15 C 273.43 187.70 279.49 178.27 287.65 171.64 Z" />
</g>
<g id="#dc9cabff">
<path fill="#dc9cab" opacity="1.00" d=" M 461.17 164.44 C 461.34 164.49 461.68 164.60 461.86 164.65 C 461.68 164.60 461.34 164.49 461.17 164.44 Z" />
</g>
<g id="#beacb1ff">
<path fill="#beacb1" opacity="1.00" d=" M 464.03 165.39 C 464.20 165.45 464.54 165.57 464.71 165.63 C 464.54 165.57 464.20 165.45 464.03 165.39 Z" />
</g>
<g id="#eb9d9eff">
<path fill="#eb9d9e" opacity="1.00" d=" M 154.23 168.61 C 154.37 168.56 154.66 168.45 154.81 168.39 C 154.66 168.45 154.37 168.56 154.23 168.61 Z" />
</g>
<g id="#c4a6afff">
<path fill="#c4a6af" opacity="1.00" d=" M 486.23 176.41 C 486.35 176.49 486.60 176.66 486.73 176.74 C 486.60 176.66 486.35 176.49 486.23 176.41 Z" />
</g>
<g id="#500007ff">
<path fill="#500007" opacity="1.00" d=" M 225.67 203.11 C 237.27 202.37 248.91 202.99 260.52 203.22 L 260.26 204.04 C 248.93 204.40 237.54 204.48 226.23 203.92 L 225.67 203.11 Z" />
</g>
<g id="#a69b99ff">
<path fill="#a69b99" opacity="1.00" d=" M 506.02 212.96 C 506.20 212.45 506.56 211.44 506.75 210.93 C 506.78 211.39 506.85 212.29 506.88 212.75 L 506.02 212.96 Z" />
</g>
<g id="#783242ff">
<path fill="#783242" opacity="1.00" d=" M 120.27 211.69 C 122.50 217.66 125.28 223.55 129.83 228.13 C 137.53 235.78 146.54 242.22 156.57 246.43 C 167.06 250.77 178.03 254.19 189.37 255.32 C 188.75 255.47 187.52 255.79 186.91 255.95 C 185.25 256.13 183.58 256.06 181.94 255.79 C 181.45 255.58 180.47 255.15 179.98 254.94 C 179.25 254.89 177.79 254.80 177.06 254.76 C 176.55 254.57 175.54 254.20 175.04 254.01 C 164.83 252.32 155.06 248.26 146.39 242.63 C 136.63 238.01 128.80 230.11 122.71 221.36 C 121.51 218.97 119.71 216.60 119.89 213.81 C 119.98 213.28 120.17 212.22 120.27 211.69 Z" />
</g>
<g id="#c1aca0ff">
<path fill="#c1aca0" opacity="1.00" d=" M 489.35 236.67 C 489.47 236.58 489.70 236.41 489.81 236.33 C 489.70 236.41 489.47 236.58 489.35 236.67 Z" />
</g>
<g id="#c5abadff">
<path fill="#c5abad" opacity="1.00" d=" M 474.11 245.51 C 474.25 245.44 474.53 245.30 474.67 245.23 C 474.53 245.30 474.25 245.44 474.11 245.51 Z" />
</g>
<g id="#d9a0a8ff">
<path fill="#d9a0a8" opacity="1.00" d=" M 459.15 251.53 C 459.29 251.48 459.59 251.37 459.74 251.32 C 459.59 251.37 459.29 251.48 459.15 251.53 Z" />
</g>
<g id="#b97f85ff">
<path fill="#b97f85" opacity="1.00" d=" M 450.95 253.60 C 451.46 253.44 452.48 253.13 452.99 252.98 L 452.75 253.85 L 451.70 254.16 L 450.95 253.60 Z" />
</g>
<g id="#a29b97ff">
<path fill="#a29b97" opacity="1.00" d=" M 175.04 254.01 C 175.54 254.20 176.55 254.57 177.06 254.76 C 176.60 254.79 175.69 254.85 175.24 254.88 L 175.04 254.01 Z" />
</g>
<g id="#d18193ff">
<path fill="#d18193" opacity="1.00" d=" M 179.98 254.94 C 180.47 255.15 181.45 255.58 181.94 255.79 C 181.49 255.80 180.59 255.81 180.14 255.82 L 179.98 254.94 Z" />
</g>
<g id="#aa767fff">
<path fill="#aa767f" opacity="1.00" d=" M 189.37 255.32 C 190.77 255.47 192.17 255.69 193.57 255.91 L 192.96 256.66 C 191.01 257.14 188.97 257.05 186.99 256.95 L 186.91 255.95 C 187.52 255.79 188.75 255.47 189.37 255.32 Z" />
</g>
<g id="#a19590ff">
<path fill="#a19590" opacity="1.00" d=" M 434.92 256.73 C 435.43 256.55 436.43 256.17 436.94 255.98 L 436.74 256.85 C 436.29 256.82 435.38 256.76 434.92 256.73 Z" />
</g>
<g id="#bbafa8ff">
<path fill="#bbafa8" opacity="1.00" d=" M 189.36 267.71 C 189.45 267.60 189.63 267.37 189.71 267.25 C 189.63 267.37 189.45 267.60 189.36 267.71 Z" />
</g>
<g id="#e09a91ff">
<path fill="#e09a91" opacity="1.00" d=" M 439.28 270.27 C 439.37 270.38 439.55 270.62 439.63 270.73 C 439.55 270.62 439.37 270.38 439.28 270.27 Z" />
</g>
<g id="#f5a69eff">
<path fill="#f5a69e" opacity="1.00" d=" M 182.28 279.05 C 182.37 278.88 182.57 278.53 182.67 278.35 C 182.57 278.53 182.37 278.88 182.28 279.05 Z" />
</g>
<g id="#caaaa2ff">
<path fill="#caaaa2" opacity="1.00" d=" M 181.36 280.63 C 181.46 280.46 181.66 280.12 181.76 279.95 C 181.66 280.12 181.46 280.46 181.36 280.63 Z" />
</g>
<g id="#c9817fff">
<path fill="#c9817f" opacity="1.00" d=" M 174.12 297.24 L 174.99 297.01 C 174.83 297.52 174.51 298.52 174.36 299.03 L 173.80 298.28 L 174.12 297.24 Z" />
</g>
<g id="#c17d84ff">
<path fill="#c17d84" opacity="1.00" d=" M 172.37 307.97 C 171.26 306.49 171.50 305.52 173.10 305.09 C 173.29 306.15 173.05 307.11 172.37 307.97 Z" />
</g>
<g id="#7f3f4aff">
<path fill="#7f3f4a" opacity="1.00" d=" M 453.30 310.99 L 454.30 311.09 C 454.51 314.46 454.58 317.85 454.81 321.23 C 454.46 328.15 451.95 335.05 447.24 340.22 C 445.46 341.78 443.42 343.00 441.63 344.53 C 433.36 348.73 423.81 349.57 414.69 348.51 C 419.34 346.98 424.32 348.06 429.06 347.01 C 436.86 345.75 445.04 342.21 449.12 335.06 C 453.45 327.86 453.87 319.17 453.30 310.99 Z" />
</g>
<g id="#958e88ff">
<path fill="#958e88" opacity="1.00" d=" M 171.03 312.03 L 172.00 311.94 C 171.91 315.63 171.93 319.31 172.00 323.00 L 171.02 323.00 C 170.98 319.34 170.96 315.68 171.03 312.03 Z" />
</g>
<g id="#64282eff">
<path fill="#64282e" opacity="1.00" d=" M 358.58 316.47 C 362.55 319.08 365.06 323.26 368.69 326.27 C 377.70 334.61 388.77 340.28 400.21 344.49 L 399.56 345.27 C 396.74 345.17 394.32 343.61 391.80 342.57 C 391.65 342.51 391.37 342.38 391.22 342.32 C 387.95 341.00 384.77 339.45 381.75 337.64 C 381.63 337.56 381.37 337.41 381.24 337.33 C 377.40 335.07 373.86 332.35 370.34 329.63 C 367.05 326.63 364.15 323.22 360.88 320.20 L 360.19 320.34 C 359.98 320.82 359.56 321.78 359.35 322.26 C 358.76 320.39 358.45 318.43 358.58 316.47 Z" />
</g>
<g id="#4d1820ff">
<path fill="#4d1820" opacity="1.00" d=" M 358.13 324.38 C 358.42 324.66 359.01 325.24 359.30 325.52 C 359.23 327.30 359.30 329.30 358.39 330.89 C 357.77 328.79 357.47 326.50 358.13 324.38 Z" />
</g>
<g id="#72343aff">
<path fill="#72343a" opacity="1.00" d=" M 267.29 332.42 C 267.42 332.03 267.69 331.23 267.82 330.84 C 271.14 347.44 276.46 364.33 287.56 377.47 C 293.57 384.84 302.35 390.39 311.97 391.10 C 320.05 391.66 327.42 387.40 333.49 382.51 C 344.38 372.94 350.81 359.24 354.47 345.43 C 355.88 340.89 356.19 336.10 357.61 331.58 C 357.73 332.17 357.95 333.33 358.06 333.92 C 357.82 337.98 357.21 342.21 355.64 345.97 C 355.47 346.47 355.13 347.48 354.97 347.98 C 355.05 350.22 354.01 352.29 353.35 354.39 C 351.53 358.71 350.32 363.35 347.61 367.25 C 347.53 367.38 347.38 367.63 347.30 367.76 C 345.70 370.78 343.95 373.72 341.68 376.29 C 341.58 376.41 341.40 376.64 341.31 376.75 C 339.07 379.51 336.56 382.09 333.77 384.31 C 333.65 384.39 333.41 384.56 333.29 384.65 C 331.16 386.03 329.14 387.58 327.00 388.93 C 325.10 390.05 322.58 390.06 320.99 391.68 C 320.72 391.98 320.18 392.57 319.91 392.87 L 319.08 392.70 C 318.54 392.59 317.48 392.37 316.94 392.25 C 314.65 391.48 312.22 391.76 309.94 392.42 C 309.24 392.34 307.84 392.18 307.14 392.10 L 306.22 391.88 C 304.37 391.24 302.62 390.34 300.81 389.61 C 300.66 389.54 300.37 389.42 300.23 389.36 C 290.43 384.42 282.59 375.88 278.07 365.91 C 276.30 362.16 274.11 358.61 272.57 354.75 C 272.52 354.62 272.41 354.34 272.35 354.20 C 270.18 349.35 269.53 344.05 268.01 339.00 C 267.45 336.87 266.56 334.62 267.29 332.42 Z" />
</g>
<g id="#c5aca9ff">
<path fill="#c5aca9" opacity="1.00" d=" M 253.30 332.63 C 253.42 332.54 253.65 332.36 253.77 332.28 C 253.65 332.36 253.42 332.54 253.30 332.63 Z" />
</g>
<g id="#c7a7a9ff">
<path fill="#c7a7a9" opacity="1.00" d=" M 381.24 337.33 C 381.37 337.41 381.63 337.56 381.75 337.64 C 381.63 337.56 381.37 337.41 381.24 337.33 Z" />
</g>
<g id="#b7a4a7ff">
<path fill="#b7a4a7" opacity="1.00" d=" M 391.22 342.32 C 391.37 342.38 391.65 342.51 391.80 342.57 C 391.65 342.51 391.37 342.38 391.22 342.32 Z" />
</g>
<g id="#561c29ff">
<path fill="#561c29" opacity="1.00" d=" M 400.87 345.52 C 403.44 344.46 406.01 345.88 408.44 346.68 C 407.87 346.79 406.73 347.01 406.16 347.11 C 405.32 346.98 403.64 346.72 402.80 346.59 C 402.60 346.49 402.21 346.28 402.01 346.17 L 400.87 345.52 Z" />
</g>
<g id="#ba848bff">
<path fill="#ba848b" opacity="1.00" d=" M 354.97 347.98 C 355.13 347.48 355.47 346.47 355.64 345.97 L 356.18 346.72 L 355.84 347.76 L 354.97 347.98 Z" />
</g>
<g id="#b6b0b1ff">
<path fill="#b6b0b1" opacity="1.00" d=" M 402.01 346.17 C 402.21 346.28 402.60 346.49 402.80 346.59 C 402.60 346.49 402.21 346.28 402.01 346.17 Z" />
</g>
<g id="#5b0618ff">
<path fill="#5b0618" opacity="1.00" d=" M 409.06 347.38 C 410.33 346.99 413.02 345.91 413.58 347.56 C 413.22 347.75 412.49 348.13 412.13 348.31 C 411.36 348.08 409.83 347.61 409.06 347.38 Z" />
</g>
<g id="#d2a8a5ff">
<path fill="#d2a8a5" opacity="1.00" d=" M 272.35 354.20 C 272.41 354.34 272.52 354.62 272.57 354.75 C 272.52 354.62 272.41 354.34 272.35 354.20 Z" />
</g>
<g id="#dd9ca9ff">
<path fill="#dd9ca9" opacity="1.00" d=" M 347.30 367.76 C 347.38 367.63 347.53 367.38 347.61 367.25 C 347.53 367.38 347.38 367.63 347.30 367.76 Z" />
</g>
<g id="#caa6a9ff">
<path fill="#caa6a9" opacity="1.00" d=" M 341.31 376.75 C 341.40 376.64 341.58 376.41 341.68 376.29 C 341.58 376.41 341.40 376.64 341.31 376.75 Z" />
</g>
<g id="#c4adacff">
<path fill="#c4adac" opacity="1.00" d=" M 333.29 384.65 C 333.41 384.56 333.65 384.39 333.77 384.31 C 333.65 384.39 333.41 384.56 333.29 384.65 Z" />
</g>
<g id="#dfa6a6ff">
<path fill="#dfa6a6" opacity="1.00" d=" M 300.23 389.36 C 300.37 389.42 300.66 389.54 300.81 389.61 C 300.66 389.54 300.37 389.42 300.23 389.36 Z" />
</g>
<g id="#090300ff">
<path fill="#090300" opacity="1.00" d=" M 306.22 391.88 L 307.14 392.10 C 307.15 434.82 307.14 477.55 306.92 520.26 L 305.99 520.21 C 305.92 515.13 306.07 510.05 306.05 504.97 C 306.17 482.33 306.19 459.68 306.04 437.03 C 305.99 432.67 305.98 428.32 306.04 423.96 C 306.31 413.27 305.93 402.57 306.22 391.88 Z" />
</g>
<g id="#f5f5b0ff">
<path fill="#f5f5b0" opacity="1.00" d=" M 307.14 392.10 C 307.84 392.18 309.24 392.34 309.94 392.42 C 312.16 393.76 314.76 393.57 316.94 392.25 C 317.48 392.37 318.54 392.59 319.08 392.70 C 318.93 396.13 318.89 399.57 318.98 403.01 C 319.17 430.01 318.86 457.01 319.05 484.00 C 319.24 518.67 318.87 553.33 319.03 588.01 C 318.98 596.04 318.99 604.08 319.25 612.12 C 319.05 612.50 318.67 613.27 318.47 613.65 C 314.75 614.15 310.95 613.98 307.21 613.78 C 306.82 587.23 307.06 560.66 306.96 534.11 C 306.78 529.49 306.77 524.87 306.92 520.26 C 307.14 477.55 307.15 434.82 307.14 392.10 Z" />
</g>
<g id="#a2a25dff">
<path fill="#a2a25d" opacity="1.00" d=" M 309.94 392.42 C 312.22 391.76 314.65 391.48 316.94 392.25 C 314.76 393.57 312.16 393.76 309.94 392.42 Z" />
</g>
<g id="#888287ff">
<path fill="#888287" opacity="1.00" d=" M 319.91 392.87 C 320.18 392.57 320.72 391.98 320.99 391.68 C 320.97 432.76 321.06 473.85 320.96 514.93 L 319.99 515.22 C 319.92 504.82 320.18 494.43 320.05 484.03 C 320.25 471.36 319.91 458.68 320.00 446.00 C 319.81 431.68 320.36 417.35 319.98 403.03 C 320.02 399.64 320.01 396.25 319.91 392.87 Z" />
</g>
<g id="#0c0d00ff">
<path fill="#0c0d00" opacity="1.00" d=" M 319.08 392.70 L 319.91 392.87 C 320.01 396.25 320.02 399.64 319.98 403.03 L 318.98 403.01 C 318.89 399.57 318.93 396.13 319.08 392.70 Z" />
</g>
<g id="#3d4005ff">
<path fill="#3d4005" opacity="1.00" d=" M 318.98 403.01 L 319.98 403.03 C 320.36 417.35 319.81 431.68 320.00 446.00 C 319.91 458.68 320.25 471.36 320.05 484.03 L 319.05 484.00 C 318.86 457.01 319.17 430.01 318.98 403.01 Z" />
</g>
<g id="#515c3aff">
<path fill="#515c3a" opacity="1.00" d=" M 155.77 405.19 C 155.68 402.99 158.72 404.36 160.01 404.01 C 168.73 404.53 177.46 404.06 186.18 404.03 L 185.77 404.97 C 185.35 405.21 184.51 405.69 184.09 405.93 C 175.48 405.36 166.86 405.60 158.25 405.80 C 157.63 405.64 156.39 405.34 155.77 405.19 Z" />
</g>
<g id="#84876aff">
<path fill="#84876a" opacity="1.00" d=" M 438.93 404.01 C 440.84 403.92 442.78 403.97 444.68 404.30 C 446.51 404.65 448.33 405.00 450.19 405.26 C 447.58 405.59 444.95 405.83 442.33 405.87 C 441.22 405.57 440.12 405.28 439.03 405.00 L 438.93 404.01 Z" />
</g>
<g id="#081504ff">
<path fill="#081504" opacity="1.00" d=" M 444.68 404.30 C 451.54 404.08 458.46 403.84 465.32 404.45 C 460.36 405.70 455.22 404.77 450.19 405.26 C 448.33 405.00 446.51 404.65 444.68 404.30 Z" />
</g>
<g id="#94d067ff">
<path fill="#94d067" opacity="1.00" d=" M 465.32 404.45 C 466.51 404.21 467.72 404.03 468.95 403.90 L 468.90 404.94 C 468.33 405.06 467.17 405.30 466.59 405.43 C 469.85 406.86 474.28 405.77 476.99 407.82 C 433.03 429.13 392.27 457.17 357.08 491.09 C 345.70 502.02 333.87 512.54 323.52 524.46 C 322.76 525.13 321.95 525.74 321.09 526.28 C 321.10 523.34 321.70 520.46 322.04 517.56 C 321.55 517.50 320.58 517.37 320.09 517.30 C 320.07 517.02 320.03 516.47 320.02 516.19 C 320.49 516.10 321.45 515.93 321.92 515.84 L 322.77 515.64 C 325.51 506.37 327.85 496.89 332.22 488.20 C 339.59 473.26 347.58 458.29 359.25 446.21 C 370.92 434.13 384.54 423.76 399.94 416.90 C 413.32 410.96 427.66 406.71 442.33 405.87 C 444.95 405.83 447.58 405.59 450.19 405.26 C 455.22 404.77 460.36 405.70 465.32 404.45 Z" />
<path fill="#94d067" opacity="1.00" d=" M 190.90 405.59 C 191.70 405.39 193.30 404.99 194.10 404.79 L 193.80 405.68 C 190.15 407.24 195.58 407.84 196.86 406.55 C 197.39 406.37 198.45 406.01 198.98 405.83 L 198.48 406.77 L 197.81 407.57 C 200.53 408.24 203.41 409.64 206.19 408.45 C 206.69 408.32 207.70 408.05 208.21 407.92 L 207.47 408.72 L 206.85 409.61 C 210.68 411.13 214.74 411.95 218.56 413.51 C 229.75 417.89 240.16 424.09 249.81 431.20 C 253.64 434.02 256.94 437.48 260.78 440.30 C 261.49 440.86 262.12 441.50 262.69 442.22 C 270.40 451.33 278.01 460.63 283.92 471.06 C 291.11 483.04 296.05 496.17 300.45 509.38 L 301.13 508.60 L 301.84 507.78 C 301.72 509.28 301.81 510.77 302.10 512.25 C 302.17 512.43 302.31 512.79 302.38 512.96 C 302.91 514.15 304.17 515.32 303.50 516.75 C 302.53 519.83 304.09 522.95 304.22 526.07 C 301.01 523.17 298.53 519.58 295.39 516.62 C 286.31 507.68 276.56 499.46 267.32 490.69 C 234.99 461.35 200.69 433.57 161.91 413.15 C 158.08 411.03 153.95 409.46 150.31 407.00 C 152.84 406.06 155.56 405.91 158.25 405.80 C 166.86 405.60 175.48 405.36 184.09 405.93 C 186.36 406.23 188.76 406.66 190.90 405.59 Z" />
<path fill="#94d067" opacity="1.00" d=" M 147.37 412.22 C 147.87 410.70 148.36 409.18 148.88 407.68 C 154.99 411.59 161.75 414.34 168.02 417.99 C 201.94 437.12 232.87 461.17 261.57 487.40 C 274.64 500.03 288.81 511.55 301.11 524.97 C 302.62 527.02 305.15 528.96 304.91 531.77 C 304.16 531.95 302.67 532.32 301.92 532.50 C 297.16 532.93 292.37 533.05 287.61 533.60 C 282.64 534.17 277.56 533.66 272.65 534.84 L 271.81 534.97 C 271.52 534.69 270.93 534.12 270.64 533.84 C 269.56 532.23 267.51 532.66 266.09 533.49 C 265.35 533.55 263.88 533.69 263.14 533.75 L 262.70 532.90 C 262.45 531.40 260.70 531.48 260.04 532.61 C 259.58 532.65 258.65 532.73 258.19 532.76 L 257.71 531.91 C 257.43 530.43 255.71 530.48 255.03 531.61 L 254.15 532.00 C 253.72 531.69 252.86 531.08 252.43 530.77 L 252.34 530.73 L 252.34 530.72 L 252.29 530.72 C 251.76 530.73 250.70 530.74 250.16 530.75 L 249.85 529.89 C 249.38 528.47 248.78 528.42 248.05 529.72 C 247.53 529.83 246.48 530.03 245.96 530.13 L 246.37 529.29 L 247.01 528.67 C 244.42 527.51 241.74 526.36 238.86 526.30 L 238.21 526.22 L 237.78 525.78 C 236.93 524.43 235.45 523.88 233.94 524.38 C 233.55 524.26 232.76 524.02 232.37 523.90 L 232.31 523.90 C 232.31 523.88 232.30 523.83 232.29 523.81 C 231.95 523.53 231.26 522.96 230.92 522.68 C 229.79 521.14 228.05 519.48 226.02 520.50 C 225.58 520.63 224.70 520.90 224.26 521.03 C 224.31 520.59 224.42 519.70 224.47 519.26 C 223.71 519.38 222.95 519.50 222.20 519.62 L 222.01 518.73 C 222.06 517.34 220.75 516.51 219.49 516.74 C 218.66 516.59 217.53 516.94 217.02 516.05 C 214.34 512.58 210.16 510.91 206.72 508.36 C 202.29 505.43 198.56 501.57 194.11 498.67 C 193.91 498.41 193.49 497.91 193.29 497.66 C 193.02 496.62 192.37 495.99 191.33 495.77 C 190.25 495.45 189.55 494.75 189.24 493.67 C 189.01 492.61 188.37 491.97 187.32 491.75 C 186.41 491.35 185.70 490.70 185.21 489.80 C 182.48 485.58 178.75 482.16 175.89 478.04 C 172.83 474.08 170.80 469.33 167.03 465.94 C 166.43 465.40 166.29 464.57 166.00 463.87 C 164.97 460.26 163.02 457.03 160.94 453.95 C 160.74 453.44 160.33 452.42 160.12 451.91 C 158.74 447.81 157.42 443.61 154.96 440.01 C 154.76 439.71 154.36 439.12 154.16 438.82 C 155.54 438.24 155.52 437.67 154.11 437.12 L 153.24 436.83 L 153.22 435.94 C 154.57 435.26 154.53 434.66 153.12 434.15 L 152.24 433.86 L 152.17 432.93 C 153.55 432.26 153.52 431.67 152.08 431.15 L 151.09 430.83 L 151.31 429.91 C 152.45 429.28 152.64 427.51 151.13 427.24 L 150.29 426.78 L 150.32 425.90 C 151.51 425.30 151.61 423.51 150.10 423.28 L 149.25 422.83 C 149.23 422.37 149.20 421.44 149.18 420.98 C 150.52 420.31 150.48 419.71 149.05 419.19 L 148.06 418.81 L 148.44 417.92 C 149.26 416.82 149.73 415.02 148.17 414.31 C 147.90 414.00 147.35 413.36 147.08 413.04 L 147.37 412.22 Z" />
<path fill="#94d067" opacity="1.00" d=" M 385.17 468.19 C 413.51 444.55 445.15 425.16 478.14 408.73 C 478.89 409.80 479.35 411.03 479.85 412.24 C 479.89 412.93 479.98 414.32 480.02 415.02 L 479.26 414.81 C 477.04 413.80 477.57 416.87 478.51 417.85 C 478.64 418.39 478.91 419.47 479.04 420.01 L 477.73 419.80 L 477.69 418.77 C 477.04 421.20 476.68 423.68 476.50 426.18 L 476.42 426.91 L 475.82 427.14 C 474.45 427.66 474.42 428.26 475.75 428.94 C 475.84 429.46 476.02 430.51 476.10 431.03 L 475.26 430.62 L 474.59 430.02 C 471.42 440.15 467.45 450.06 462.25 459.32 C 461.07 461.44 459.66 463.48 458.95 465.83 C 458.74 466.52 458.55 467.22 458.36 467.93 L 457.69 467.98 C 456.36 467.58 455.21 469.18 456.50 470.07 L 456.86 470.57 C 456.32 471.05 455.22 472.00 454.67 472.48 C 454.65 472.48 454.62 472.49 454.60 472.50 L 454.59 472.57 C 454.33 472.90 453.82 473.56 453.56 473.89 C 452.01 474.63 451.07 476.02 450.79 477.70 C 450.52 478.02 449.97 478.66 449.70 478.98 C 448.67 479.56 447.98 480.54 447.73 481.70 C 447.32 482.58 446.70 483.31 445.87 483.91 C 444.19 485.30 442.86 487.04 441.74 488.90 C 441.28 489.80 440.60 490.41 439.69 490.75 C 438.63 490.97 437.99 491.60 437.77 492.67 C 437.45 493.75 436.75 494.45 435.66 494.77 C 434.62 495.00 433.97 495.63 433.72 496.67 C 433.51 496.92 433.10 497.43 432.89 497.68 C 431.06 498.87 429.31 500.20 427.91 501.89 C 427.31 502.71 426.58 503.32 425.69 503.73 C 424.53 503.97 423.56 504.67 422.98 505.70 C 422.65 505.95 422.01 506.44 421.68 506.69 C 420.52 506.96 419.55 507.66 418.97 508.70 C 418.66 508.95 418.03 509.45 417.71 509.70 C 416.60 510.06 415.65 510.72 414.80 511.50 C 413.72 512.51 412.65 513.53 411.50 514.46 L 410.90 514.41 C 409.03 513.67 407.79 515.26 407.05 516.76 C 406.71 517.02 406.05 517.54 405.72 517.81 C 405.71 517.83 405.69 517.88 405.69 517.90 L 405.63 517.89 C 405.25 518.01 404.49 518.26 404.10 518.38 C 402.82 517.70 401.35 518.33 401.12 519.81 C 400.90 520.93 399.53 520.65 398.72 520.78 C 398.30 521.06 397.45 521.62 397.03 521.90 C 396.70 522.13 396.02 522.59 395.69 522.82 C 395.68 522.84 395.67 522.89 395.66 522.91 L 395.60 522.90 C 395.22 523.02 394.44 523.26 394.06 523.38 C 392.55 522.87 391.07 523.42 390.24 524.77 L 389.81 525.22 L 389.15 525.32 C 386.29 525.43 383.61 526.46 381.04 527.64 L 381.60 528.33 L 382.07 529.14 C 381.54 529.04 380.50 528.82 379.97 528.72 C 379.21 527.42 378.61 527.49 378.17 528.94 L 377.86 529.92 L 376.95 529.63 C 376.26 528.50 374.54 528.42 374.26 529.90 L 373.78 530.73 L 372.90 530.68 C 372.25 529.52 370.49 529.41 370.22 530.91 L 369.73 531.81 L 368.87 531.51 C 367.78 530.68 365.97 530.26 365.32 531.86 L 364.81 532.53 C 364.42 532.51 363.63 532.47 363.24 532.45 C 360.03 531.60 356.90 533.21 353.73 533.53 C 352.06 533.70 350.40 533.90 348.76 534.20 C 346.93 534.32 345.09 534.32 343.27 534.19 C 339.92 533.17 336.41 533.87 333.02 533.37 C 331.38 532.68 329.55 532.61 328.01 533.58 C 326.72 534.02 324.19 534.70 323.61 532.97 C 323.98 532.78 324.71 532.41 325.07 532.23 C 323.39 532.06 321.70 531.95 320.03 531.74 C 321.80 527.86 324.97 524.88 327.76 521.73 C 335.85 513.16 344.45 505.09 353.01 496.99 C 363.73 487.40 373.83 477.09 385.17 468.19 Z" />
</g>
<g id="#8d8d87ff">
<path fill="#8d8d87" opacity="1.00" d=" M 148.17 405.20 C 148.63 405.21 149.55 405.23 150.00 405.24 C 149.49 405.45 148.46 405.86 147.95 406.07 L 148.17 405.20 Z" />
</g>
<g id="#0f120aff">
<path fill="#0f120a" opacity="1.00" d=" M 184.09 405.93 C 184.51 405.69 185.35 405.21 185.77 404.97 C 187.43 404.67 189.46 404.54 190.90 405.59 C 188.76 406.66 186.36 406.23 184.09 405.93 Z" />
</g>
<g id="#97958fff">
<path fill="#97958f" opacity="1.00" d=" M 432.24 405.16 C 432.69 405.19 433.60 405.23 434.05 405.26 C 433.55 405.45 432.55 405.84 432.05 406.04 L 432.24 405.16 Z" />
</g>
<g id="#2c351dff">
<path fill="#2c351d" opacity="1.00" d=" M 434.05 405.26 C 435.68 404.98 437.36 404.92 439.03 405.00 C 440.12 405.28 441.22 405.57 442.33 405.87 C 427.66 406.71 413.32 410.96 399.94 416.90 C 384.54 423.76 370.92 434.13 359.25 446.21 C 347.58 458.29 339.59 473.26 332.22 488.20 C 327.85 496.89 325.51 506.37 322.77 515.64 L 321.92 515.84 C 322.03 514.50 322.21 513.18 322.46 511.87 C 322.50 511.71 322.57 511.39 322.60 511.23 C 322.82 510.39 323.24 508.71 323.45 507.87 C 323.50 507.70 323.59 507.36 323.64 507.20 C 323.81 506.67 324.15 505.62 324.32 505.09 C 324.48 504.56 324.79 503.49 324.95 502.96 L 325.20 502.07 C 325.40 501.57 325.80 500.57 326.00 500.07 C 326.50 497.56 327.52 495.21 328.42 492.84 C 328.48 492.69 328.60 492.41 328.65 492.27 C 329.55 490.09 330.51 487.93 331.49 485.79 C 331.58 485.60 331.75 485.22 331.84 485.03 L 332.35 483.99 C 332.46 483.78 332.68 483.34 332.79 483.12 L 333.31 482.11 C 333.41 481.94 333.60 481.58 333.70 481.40 C 334.90 479.12 336.20 476.89 337.43 474.64 C 337.53 474.46 337.72 474.11 337.82 473.94 L 338.35 472.97 C 338.47 472.74 338.69 472.30 338.80 472.07 L 339.32 470.97 C 339.43 470.75 339.64 470.31 339.75 470.09 L 340.27 469.08 C 340.37 468.90 340.58 468.54 340.69 468.36 C 341.11 467.71 341.96 466.41 342.39 465.76 C 342.47 465.63 342.63 465.38 342.71 465.26 C 343.88 463.38 345.05 461.49 346.39 459.72 C 346.47 459.60 346.65 459.37 346.73 459.25 C 347.60 458.07 348.50 456.91 349.39 455.75 C 349.48 455.63 349.66 455.40 349.75 455.29 C 350.94 453.77 352.22 452.32 353.35 450.75 C 353.43 450.64 353.61 450.40 353.70 450.29 C 355.88 447.30 358.84 445.04 361.38 442.38 C 363.67 440.15 365.67 437.59 368.30 435.72 C 368.42 435.63 368.66 435.44 368.78 435.35 C 370.71 433.92 372.47 432.28 374.33 430.76 C 374.45 430.66 374.68 430.48 374.79 430.39 C 376.32 429.22 377.74 427.92 379.25 426.73 C 379.37 426.64 379.61 426.47 379.73 426.38 C 380.39 425.96 381.70 425.12 382.36 424.69 C 382.53 424.59 382.88 424.39 383.06 424.29 L 383.95 423.79 C 384.12 423.70 384.46 423.51 384.63 423.42 C 386.83 422.18 389.08 421.03 391.25 419.74 C 391.38 419.66 391.63 419.51 391.76 419.43 C 394.09 417.87 396.61 416.60 399.26 415.67 C 399.41 415.61 399.71 415.49 399.86 415.43 C 402.01 414.52 404.13 413.55 406.29 412.64 C 406.43 412.58 406.72 412.47 406.86 412.41 C 410.57 411.25 414.13 409.21 418.06 409.01 C 418.56 408.81 419.56 408.43 420.06 408.23 C 420.55 408.17 421.52 408.04 422.01 407.98 C 422.52 407.80 423.54 407.43 424.06 407.24 C 424.55 407.18 425.52 407.06 426.01 407.00 C 426.52 406.81 427.53 406.43 428.04 406.24 C 429.36 406.03 430.70 405.96 432.05 406.04 C 432.55 405.84 433.55 405.45 434.05 405.26 Z" />
</g>
<g id="#7f6e6eff">
<path fill="#7f6e6e" opacity="1.00" d=" M 473.00 405.40 C 474.43 404.25 475.40 404.47 475.91 406.05 C 474.84 406.27 473.87 406.05 473.00 405.40 Z" />
</g>
<g id="#646d4dff">
<path fill="#646d4d" opacity="1.00" d=" M 145.92 405.88 L 146.89 406.04 C 147.55 406.58 148.22 407.12 148.88 407.68 C 148.36 409.18 147.87 410.70 147.37 412.22 C 146.66 410.16 146.16 408.03 145.92 405.88 Z" />
</g>
<g id="#0d2404ff">
<path fill="#0d2404" opacity="1.00" d=" M 196.86 406.55 C 195.58 407.84 190.15 407.24 193.80 405.68 C 194.56 405.89 196.09 406.33 196.86 406.55 Z" />
</g>
<g id="#a5a890ff">
<path fill="#a5a890" opacity="1.00" d=" M 426.22 406.14 C 426.67 406.16 427.58 406.21 428.04 406.24 C 427.53 406.43 426.52 406.81 426.01 407.00 L 426.22 406.14 Z" />
</g>
<g id="#908e90ff">
<path fill="#908e90" opacity="1.00" d=" M 479.94 406.19 C 481.66 405.59 481.68 409.42 479.95 408.82 C 479.95 408.16 479.94 406.85 479.94 406.19 Z" />
</g>
<g id="#24321dff">
<path fill="#24321d" opacity="1.00" d=" M 197.81 407.57 L 198.48 406.77 C 201.12 406.93 203.67 407.67 206.19 408.45 C 203.41 409.64 200.53 408.24 197.81 407.57 Z" />
</g>
<g id="#8e8c8eff">
<path fill="#8e8c8e" opacity="1.00" d=" M 422.23 407.12 C 422.69 407.15 423.60 407.21 424.06 407.24 C 423.54 407.43 422.52 407.80 422.01 407.98 L 422.23 407.12 Z" />
</g>
<g id="#969f75ff">
<path fill="#969f75" opacity="1.00" d=" M 418.24 408.14 C 418.70 408.16 419.61 408.21 420.06 408.23 C 419.56 408.43 418.56 408.81 418.06 409.01 L 418.24 408.14 Z" />
</g>
<g id="#2d341fff">
<path fill="#2d341f" opacity="1.00" d=" M 206.85 409.61 L 207.47 408.72 C 208.13 408.89 209.44 409.23 210.10 409.40 C 210.27 409.45 210.60 409.54 210.76 409.59 C 214.59 410.77 218.42 411.94 222.14 413.41 C 222.29 413.46 222.58 413.58 222.72 413.64 C 224.91 414.54 227.07 415.49 229.22 416.49 C 229.40 416.58 229.77 416.76 229.95 416.85 L 230.88 417.33 C 231.06 417.42 231.41 417.61 231.59 417.71 C 235.97 419.99 240.35 422.32 244.24 425.42 C 244.36 425.50 244.60 425.67 244.71 425.75 C 250.54 429.99 256.89 434.10 260.78 440.30 C 256.94 437.48 253.64 434.02 249.81 431.20 C 240.16 424.09 229.75 417.89 218.56 413.51 C 214.74 411.95 210.68 411.13 206.85 409.61 Z" />
</g>
<g id="#aa9ea3ff">
<path fill="#aa9ea3" opacity="1.00" d=" M 210.10 409.40 C 210.27 409.45 210.60 409.54 210.76 409.59 C 210.60 409.54 210.27 409.45 210.10 409.40 Z" />
</g>
<g id="#c1b2a6ff">
<path fill="#c1b2a6" opacity="1.00" d=" M 406.29 412.64 C 406.43 412.58 406.72 412.47 406.86 412.41 C 406.72 412.47 406.43 412.58 406.29 412.64 Z" />
</g>
<g id="#b8aeb5ff">
<path fill="#b8aeb5" opacity="1.00" d=" M 222.14 413.41 C 222.29 413.46 222.58 413.58 222.72 413.64 C 222.58 413.58 222.29 413.46 222.14 413.41 Z" />
</g>
<g id="#56623fff">
<path fill="#56623f" opacity="1.00" d=" M 148.17 414.31 C 149.73 415.02 149.26 416.82 148.44 417.92 C 147.36 416.76 147.27 415.56 148.17 414.31 Z" />
</g>
<g id="#554e3bff">
<path fill="#554e3b" opacity="1.00" d=" M 478.51 417.85 C 477.57 416.87 477.04 413.80 479.26 414.81 C 479.07 415.57 478.70 417.09 478.51 417.85 Z" />
</g>
<g id="#b6b0b3ff">
<path fill="#b6b0b3" opacity="1.00" d=" M 399.26 415.67 C 399.41 415.61 399.71 415.49 399.86 415.43 C 399.71 415.49 399.41 415.61 399.26 415.67 Z" />
</g>
<g id="#babaa5ff">
<path fill="#babaa5" opacity="1.00" d=" M 229.22 416.49 C 229.40 416.58 229.77 416.76 229.95 416.85 C 229.77 416.76 229.40 416.58 229.22 416.49 Z" />
</g>
<g id="#b9b5aeff">
<path fill="#b9b5ae" opacity="1.00" d=" M 230.88 417.33 C 231.06 417.42 231.41 417.61 231.59 417.71 C 231.41 417.61 231.06 417.42 230.88 417.33 Z" />
</g>
<g id="#394820ff">
<path fill="#394820" opacity="1.00" d=" M 149.05 419.19 C 150.48 419.71 150.52 420.31 149.18 420.98 C 149.15 420.53 149.08 419.63 149.05 419.19 Z" />
</g>
<g id="#b0a29cff">
<path fill="#b0a29c" opacity="1.00" d=" M 391.25 419.74 C 391.38 419.66 391.63 419.51 391.76 419.43 C 391.63 419.51 391.38 419.66 391.25 419.74 Z" />
</g>
<g id="#445032ff">
<path fill="#445032" opacity="1.00" d=" M 150.10 423.28 C 151.61 423.51 151.51 425.30 150.32 425.90 C 150.27 425.25 150.16 423.93 150.10 423.28 Z" />
</g>
<g id="#aba197ff">
<path fill="#aba197" opacity="1.00" d=" M 383.95 423.79 C 384.12 423.70 384.46 423.51 384.63 423.42 C 384.46 423.51 384.12 423.70 383.95 423.79 Z" />
</g>
<g id="#b0a8aeff">
<path fill="#b0a8ae" opacity="1.00" d=" M 305.08 424.03 L 306.04 423.96 C 305.98 428.32 305.99 432.67 306.04 437.03 L 305.07 436.98 C 304.93 432.67 304.92 428.34 305.08 424.03 Z" />
</g>
<g id="#c5b1a1ff">
<path fill="#c5b1a1" opacity="1.00" d=" M 382.36 424.69 C 382.53 424.59 382.88 424.39 383.06 424.29 C 382.88 424.39 382.53 424.59 382.36 424.69 Z" />
</g>
<g id="#a3a0a2ff">
<path fill="#a3a0a2" opacity="1.00" d=" M 244.24 425.42 C 244.36 425.50 244.60 425.67 244.71 425.75 C 244.60 425.67 244.36 425.50 244.24 425.42 Z" />
</g>
<g id="#b8aaa1ff">
<path fill="#b8aaa1" opacity="1.00" d=" M 379.25 426.73 C 379.37 426.64 379.61 426.47 379.73 426.38 C 379.61 426.47 379.37 426.64 379.25 426.73 Z" />
</g>
<g id="#3c462eff">
<path fill="#3c462e" opacity="1.00" d=" M 151.13 427.24 C 152.64 427.51 152.45 429.28 151.31 429.91 C 151.27 429.24 151.18 427.91 151.13 427.24 Z" />
</g>
<g id="#282312ff">
<path fill="#282312" opacity="1.00" d=" M 475.75 428.94 C 474.42 428.26 474.45 427.66 475.82 427.14 C 475.80 427.59 475.77 428.49 475.75 428.94 Z" />
</g>
<g id="#a4a2a4ff">
<path fill="#a4a2a4" opacity="1.00" d=" M 374.33 430.76 C 374.45 430.66 374.68 430.48 374.79 430.39 C 374.68 430.48 374.45 430.66 374.33 430.76 Z" />
</g>
<g id="#4e513eff">
<path fill="#4e513e" opacity="1.00" d=" M 462.25 459.32 C 467.45 450.06 471.42 440.15 474.59 430.02 L 475.26 430.62 C 472.97 440.32 468.79 449.48 464.29 458.33 C 462.39 460.72 461.74 464.34 458.95 465.83 C 459.66 463.48 461.07 461.44 462.25 459.32 Z" />
</g>
<g id="#232c15ff">
<path fill="#232c15" opacity="1.00" d=" M 152.08 431.15 C 153.52 431.67 153.55 432.26 152.17 432.93 C 152.15 432.48 152.10 431.60 152.08 431.15 Z" />
</g>
<g id="#161a0cff">
<path fill="#161a0c" opacity="1.00" d=" M 153.12 434.15 C 154.53 434.66 154.57 435.26 153.22 435.94 C 153.19 435.49 153.14 434.60 153.12 434.15 Z" />
</g>
<g id="#b6aba1ff">
<path fill="#b6aba1" opacity="1.00" d=" M 368.30 435.72 C 368.42 435.63 368.66 435.44 368.78 435.35 C 368.66 435.44 368.42 435.63 368.30 435.72 Z" />
</g>
<g id="#192110ff">
<path fill="#192110" opacity="1.00" d=" M 154.11 437.12 C 155.52 437.67 155.54 438.24 154.16 438.82 C 154.14 438.39 154.12 437.54 154.11 437.12 Z" />
</g>
<g id="#4b5442ff">
<path fill="#4b5442" opacity="1.00" d=" M 154.96 440.01 C 157.42 443.61 158.74 447.81 160.12 451.91 C 157.12 448.72 155.62 444.28 154.96 440.01 Z" />
</g>
<g id="#b3b1abff">
<path fill="#b3b1ab" opacity="1.00" d=" M 262.18 440.22 C 262.83 440.88 262.83 440.88 262.18 440.22 Z" />
</g>
<g id="#2a3821ff">
<path fill="#2a3821" opacity="1.00" d=" M 262.69 442.22 C 265.93 443.80 267.88 447.02 270.64 449.23 C 273.96 451.94 275.52 456.07 278.26 459.28 C 278.34 459.40 278.52 459.65 278.60 459.77 C 279.02 460.39 279.84 461.63 280.25 462.25 C 280.33 462.38 280.49 462.64 280.58 462.76 C 282.11 465.32 283.81 467.78 285.30 470.37 C 285.40 470.54 285.59 470.88 285.69 471.06 L 286.20 471.95 C 286.29 472.12 286.48 472.46 286.57 472.64 C 288.75 476.41 290.70 480.31 292.40 484.32 C 292.48 484.50 292.64 484.86 292.71 485.04 L 293.14 486.03 C 293.22 486.21 293.39 486.59 293.47 486.78 C 295.00 489.84 296.13 493.07 297.33 496.26 C 297.39 496.41 297.49 496.69 297.54 496.83 C 298.80 500.72 300.85 504.47 301.13 508.60 L 300.45 509.38 C 296.05 496.17 291.11 483.04 283.92 471.06 C 278.01 460.63 270.40 451.33 262.69 442.22 Z" />
</g>
<g id="#a8a8a1ff">
<path fill="#a8a8a1" opacity="1.00" d=" M 353.35 450.75 C 353.43 450.64 353.61 450.40 353.70 450.29 C 353.61 450.40 353.43 450.64 353.35 450.75 Z" />
</g>
<g id="#aeababff">
<path fill="#aeabab" opacity="1.00" d=" M 160.42 454.66 C 160.55 454.48 160.81 454.12 160.94 453.95 L 161.02 454.61 L 160.42 454.66 Z" />
</g>
<g id="#41443bff">
<path fill="#41443b" opacity="1.00" d=" M 160.94 453.95 C 163.02 457.03 164.97 460.26 166.00 463.87 C 163.03 461.93 161.82 457.90 161.02 454.61 L 160.94 453.95 Z" />
</g>
<g id="#a7a4a4ff">
<path fill="#a7a4a4" opacity="1.00" d=" M 349.39 455.75 C 349.48 455.63 349.66 455.40 349.75 455.29 C 349.66 455.40 349.48 455.63 349.39 455.75 Z" />
</g>
<g id="#aba8a6ff">
<path fill="#aba8a6" opacity="1.00" d=" M 278.26 459.28 C 278.34 459.40 278.52 459.65 278.60 459.77 C 278.52 459.65 278.34 459.40 278.26 459.28 Z" />
</g>
<g id="#abb0a1ff">
<path fill="#abb0a1" opacity="1.00" d=" M 346.39 459.72 C 346.47 459.60 346.65 459.37 346.73 459.25 C 346.65 459.37 346.47 459.60 346.39 459.72 Z" />
</g>
<g id="#aaa8aaff">
<path fill="#aaa8aa" opacity="1.00" d=" M 280.25 462.25 C 280.33 462.38 280.49 462.64 280.58 462.76 C 280.49 462.64 280.33 462.38 280.25 462.25 Z" />
</g>
<g id="#9e9b8eff">
<path fill="#9e9b8e" opacity="1.00" d=" M 342.39 465.76 C 342.47 465.63 342.63 465.38 342.71 465.26 C 342.63 465.38 342.47 465.63 342.39 465.76 Z" />
</g>
<g id="#465337ff">
<path fill="#465337" opacity="1.00" d=" M 167.03 465.94 C 170.80 469.33 172.83 474.08 175.89 478.04 C 178.75 482.16 182.48 485.58 185.21 489.80 C 181.01 487.76 178.99 483.39 175.91 480.15 C 174.07 477.77 172.60 475.12 170.76 472.74 C 170.68 472.62 170.51 472.37 170.42 472.25 C 169.20 470.20 167.52 468.32 167.03 465.94 Z" />
</g>
<g id="#bcb9a9ff">
<path fill="#bcb9a9" opacity="1.00" d=" M 340.27 469.08 C 340.37 468.90 340.58 468.54 340.69 468.36 C 340.58 468.54 340.37 468.90 340.27 469.08 Z" />
</g>
<g id="#3b5229ff">
<path fill="#3b5229" opacity="1.00" d=" M 456.50 470.07 C 455.21 469.18 456.36 467.58 457.69 467.98 L 457.88 468.80 C 457.54 469.12 456.84 469.75 456.50 470.07 Z" />
</g>
<g id="#b5c3a5ff">
<path fill="#b5c3a5" opacity="1.00" d=" M 285.30 470.37 C 285.40 470.54 285.59 470.88 285.69 471.06 C 285.59 470.88 285.40 470.54 285.30 470.37 Z" />
</g>
<g id="#a7a29bff">
<path fill="#a7a29b" opacity="1.00" d=" M 339.32 470.97 C 339.43 470.75 339.64 470.31 339.75 470.09 C 339.64 470.31 339.43 470.75 339.32 470.97 Z" />
</g>
<g id="#b1b2a6ff">
<path fill="#b1b2a6" opacity="1.00" d=" M 170.42 472.25 C 170.51 472.37 170.68 472.62 170.76 472.74 C 170.68 472.62 170.51 472.37 170.42 472.25 Z" />
</g>
<g id="#a7ac9fff">
<path fill="#a7ac9f" opacity="1.00" d=" M 286.20 471.95 C 286.29 472.12 286.48 472.46 286.57 472.64 C 286.48 472.46 286.29 472.12 286.20 471.95 Z" />
</g>
<g id="#a1a78bff">
<path fill="#a1a78b" opacity="1.00" d=" M 338.35 472.97 C 338.47 472.74 338.69 472.30 338.80 472.07 C 338.69 472.30 338.47 472.74 338.35 472.97 Z" />
</g>
<g id="#131a0bff">
<path fill="#131a0b" opacity="1.00" d=" M 454.60 472.50 C 454.62 472.49 454.65 472.48 454.67 472.48 L 454.59 472.57 L 454.60 472.50 Z" />
</g>
<g id="#aba89cff">
<path fill="#aba89c" opacity="1.00" d=" M 337.43 474.64 C 337.53 474.46 337.72 474.11 337.82 473.94 C 337.72 474.11 337.53 474.46 337.43 474.64 Z" />
</g>
<g id="#4e5e3dff">
<path fill="#4e5e3d" opacity="1.00" d=" M 450.79 477.70 C 451.07 476.02 452.01 474.63 453.56 473.89 C 454.26 475.35 452.57 478.35 450.79 477.70 Z" />
</g>
<g id="#535b47ff">
<path fill="#535b47" opacity="1.00" d=" M 447.73 481.70 C 447.98 480.54 448.67 479.56 449.70 478.98 C 450.98 480.08 449.16 482.63 447.73 481.70 Z" />
</g>
<g id="#ada9adff">
<path fill="#ada9ad" opacity="1.00" d=" M 333.31 482.11 C 333.41 481.94 333.60 481.58 333.70 481.40 C 333.60 481.58 333.41 481.94 333.31 482.11 Z" />
</g>
<g id="#a5a4a1ff">
<path fill="#a5a4a1" opacity="1.00" d=" M 332.35 483.99 C 332.46 483.78 332.68 483.34 332.79 483.12 C 332.68 483.34 332.46 483.78 332.35 483.99 Z" />
</g>
<g id="#9d9d98ff">
<path fill="#9d9d98" opacity="1.00" d=" M 292.40 484.32 C 292.48 484.50 292.64 484.86 292.71 485.04 C 292.64 484.86 292.48 484.50 292.40 484.32 Z" />
</g>
<g id="#5c6047ff">
<path fill="#5c6047" opacity="1.00" d=" M 441.74 488.90 C 442.86 487.04 444.19 485.30 445.87 483.91 C 446.28 486.45 443.69 487.94 441.74 488.90 Z" />
</g>
<g id="#b1abafff">
<path fill="#b1abaf" opacity="1.00" d=" M 331.49 485.79 C 331.58 485.60 331.75 485.22 331.84 485.03 C 331.75 485.22 331.58 485.60 331.49 485.79 Z" />
</g>
<g id="#a7af9dff">
<path fill="#a7af9d" opacity="1.00" d=" M 293.14 486.03 C 293.22 486.21 293.39 486.59 293.47 486.78 C 293.39 486.59 293.22 486.21 293.14 486.03 Z" />
</g>
<g id="#3b4a26ff">
<path fill="#3b4a26" opacity="1.00" d=" M 437.77 492.67 C 437.99 491.60 438.63 490.97 439.69 490.75 C 440.06 492.41 439.42 493.05 437.77 492.67 Z" />
</g>
<g id="#384c26ff">
<path fill="#384c26" opacity="1.00" d=" M 187.32 491.75 C 188.37 491.97 189.01 492.61 189.24 493.67 C 187.57 494.04 186.94 493.40 187.32 491.75 Z" />
</g>
<g id="#a8b399ff">
<path fill="#a8b399" opacity="1.00" d=" M 328.42 492.84 C 328.48 492.69 328.60 492.41 328.65 492.27 C 328.60 492.41 328.48 492.69 328.42 492.84 Z" />
</g>
<g id="#3c4926ff">
<path fill="#3c4926" opacity="1.00" d=" M 433.72 496.67 C 433.97 495.63 434.62 495.00 435.66 494.77 C 436.04 496.44 435.39 497.07 433.72 496.67 Z" />
</g>
<g id="#344324ff">
<path fill="#344324" opacity="1.00" d=" M 191.33 495.77 C 192.37 495.99 193.02 496.62 193.29 497.66 C 191.61 498.07 190.96 497.44 191.33 495.77 Z" />
</g>
<g id="#9aab8aff">
<path fill="#9aab8a" opacity="1.00" d=" M 297.33 496.26 C 297.39 496.41 297.49 496.69 297.54 496.83 C 297.49 496.69 297.39 496.41 297.33 496.26 Z" />
</g>
<g id="#575b3eff">
<path fill="#575b3e" opacity="1.00" d=" M 427.91 501.89 C 429.31 500.20 431.06 498.87 432.89 497.68 C 431.94 499.63 430.47 502.26 427.91 501.89 Z" />
</g>
<g id="#475535ff">
<path fill="#475535" opacity="1.00" d=" M 194.11 498.67 C 198.56 501.57 202.29 505.43 206.72 508.36 C 210.16 510.91 214.34 512.58 217.02 516.05 C 215.51 515.72 214.26 514.79 213.01 513.96 C 208.62 510.80 203.87 508.16 199.72 504.68 C 199.60 504.59 199.37 504.41 199.25 504.32 C 197.12 502.86 195.22 501.03 194.11 498.67 Z" />
</g>
<g id="#8b8d87ff">
<path fill="#8b8d87" opacity="1.00" d=" M 325.13 500.24 L 326.00 500.07 C 325.80 500.57 325.40 501.57 325.20 502.07 C 325.18 501.61 325.14 500.70 325.13 500.24 Z" />
</g>
<g id="#819277ff">
<path fill="#819277" opacity="1.00" d=" M 324.10 503.25 L 324.95 502.96 C 324.79 503.49 324.48 504.56 324.32 505.09 C 324.26 504.63 324.16 503.71 324.10 503.25 Z" />
</g>
<g id="#b3b1adff">
<path fill="#b3b1ad" opacity="1.00" d=" M 199.25 504.32 C 199.37 504.41 199.60 504.59 199.72 504.68 C 199.60 504.59 199.37 504.41 199.25 504.32 Z" />
</g>
<g id="#4c5241ff">
<path fill="#4c5241" opacity="1.00" d=" M 422.98 505.70 C 423.56 504.67 424.53 503.97 425.69 503.73 C 426.62 505.16 424.08 506.97 422.98 505.70 Z" />
</g>
<g id="#a5a3a6ff">
<path fill="#a5a3a6" opacity="1.00" d=" M 305.06 505.01 L 306.05 504.97 C 306.07 510.05 305.92 515.13 305.99 520.21 C 305.63 520.18 304.90 520.12 304.54 520.09 L 304.30 519.33 C 305.89 514.73 304.52 509.76 305.06 505.01 Z" />
</g>
<g id="#949598ff">
<path fill="#949598" opacity="1.00" d=" M 323.45 507.87 C 323.50 507.70 323.59 507.36 323.64 507.20 C 323.59 507.36 323.50 507.70 323.45 507.87 Z" />
</g>
<g id="#414431ff">
<path fill="#414431" opacity="1.00" d=" M 418.97 508.70 C 419.55 507.66 420.52 506.96 421.68 506.69 C 422.62 508.12 420.10 509.94 418.97 508.70 Z" />
</g>
<g id="#505246ff">
<path fill="#505246" opacity="1.00" d=" M 414.80 511.50 C 415.65 510.72 416.60 510.06 417.71 509.70 C 418.70 511.29 415.85 512.99 414.80 511.50 Z" />
</g>
<g id="#959b94ff">
<path fill="#959b94" opacity="1.00" d=" M 322.46 511.87 C 322.50 511.71 322.57 511.39 322.60 511.23 C 322.57 511.39 322.50 511.71 322.46 511.87 Z" />
</g>
<g id="#959898ff">
<path fill="#959898" opacity="1.00" d=" M 302.10 512.25 C 302.17 512.43 302.31 512.79 302.38 512.96 C 302.31 512.79 302.17 512.43 302.10 512.25 Z" />
</g>
<g id="#b0adadff">
<path fill="#b0adad" opacity="1.00" d=" M 413.22 513.16 C 413.87 513.81 413.87 513.81 413.22 513.16 Z" />
</g>
<g id="#475239ff">
<path fill="#475239" opacity="1.00" d=" M 407.05 516.76 C 407.79 515.26 409.03 513.67 410.90 514.41 C 410.53 515.84 408.54 517.79 407.05 516.76 Z" />
</g>
<g id="#4a5c36ff">
<path fill="#4a5c36" opacity="1.00" d=" M 219.49 516.74 C 220.75 516.51 222.06 517.34 222.01 518.73 C 220.98 519.44 218.75 517.97 219.49 516.74 Z" />
</g>
<g id="#171c0dff">
<path fill="#171c0d" opacity="1.00" d=" M 405.69 517.90 C 405.69 517.88 405.71 517.83 405.72 517.81 L 405.63 517.89 L 405.69 517.90 Z" />
</g>
<g id="#495832ff">
<path fill="#495832" opacity="1.00" d=" M 401.12 519.81 C 401.35 518.33 402.82 517.70 404.10 518.38 C 403.54 519.95 402.54 520.42 401.12 519.81 Z" />
</g>
<g id="#4e633aff">
<path fill="#4e633a" opacity="1.00" d=" M 226.02 520.50 C 228.05 519.48 229.79 521.14 230.92 522.68 C 229.23 523.52 226.92 521.94 226.02 520.50 Z" />
</g>
<g id="#464e31ff">
<path fill="#464e31" opacity="1.00" d=" M 397.03 521.90 C 397.45 521.62 398.30 521.06 398.72 520.78 L 398.77 521.68 L 397.89 522.25 L 397.03 521.90 Z" />
</g>
<g id="#1c240fff">
<path fill="#1c240f" opacity="1.00" d=" M 395.66 522.91 C 395.67 522.89 395.68 522.84 395.69 522.82 L 395.60 522.90 L 395.66 522.91 Z" />
</g>
<g id="#192310ff">
<path fill="#192310" opacity="1.00" d=" M 232.29 523.81 C 232.30 523.83 232.31 523.88 232.31 523.90 L 232.37 523.90 L 232.29 523.81 Z" />
</g>
<g id="#525340ff">
<path fill="#525340" opacity="1.00" d=" M 390.24 524.77 C 391.07 523.42 392.55 522.87 394.06 523.38 C 393.75 524.90 391.41 525.96 390.24 524.77 Z" />
</g>
<g id="#4e563eff">
<path fill="#4e563e" opacity="1.00" d=" M 233.94 524.38 C 235.45 523.88 236.93 524.43 237.78 525.78 C 236.59 526.96 234.25 525.89 233.94 524.38 Z" />
</g>
<g id="#5d6849ff">
<path fill="#5d6849" opacity="1.00" d=" M 381.04 527.64 C 383.61 526.46 386.29 525.43 389.15 525.32 C 386.78 526.65 384.40 528.19 381.60 528.33 L 381.04 527.64 Z" />
</g>
<g id="#4f5c3eff">
<path fill="#4f5c3e" opacity="1.00" d=" M 238.86 526.30 C 241.74 526.36 244.42 527.51 247.01 528.67 L 246.37 529.29 C 243.58 529.18 241.21 527.62 238.86 526.30 Z" />
</g>
<g id="#2d3221ff">
<path fill="#2d3221" opacity="1.00" d=" M 378.17 528.94 C 378.61 527.49 379.21 527.42 379.97 528.72 C 379.52 528.77 378.62 528.88 378.17 528.94 Z" />
</g>
<g id="#1e2612ff">
<path fill="#1e2612" opacity="1.00" d=" M 248.05 529.72 C 248.78 528.42 249.38 528.47 249.85 529.89 C 249.40 529.85 248.50 529.76 248.05 529.72 Z" />
</g>
<g id="#4a5a3aff">
<path fill="#4a5a3a" opacity="1.00" d=" M 374.26 529.90 C 374.54 528.42 376.26 528.50 376.95 529.63 C 376.27 529.70 374.93 529.83 374.26 529.90 Z" />
</g>
<g id="#182010ff">
<path fill="#182010" opacity="1.00" d=" M 252.34 530.72 L 252.34 530.73 L 252.43 530.77 L 252.29 530.72 L 252.34 530.72 Z" />
</g>
<g id="#495337ff">
<path fill="#495337" opacity="1.00" d=" M 370.22 530.91 C 370.49 529.41 372.25 529.52 372.90 530.68 C 372.23 530.74 370.89 530.86 370.22 530.91 Z" />
</g>
<g id="#485833ff">
<path fill="#485833" opacity="1.00" d=" M 255.03 531.61 C 255.71 530.48 257.43 530.43 257.71 531.91 C 257.04 531.84 255.70 531.69 255.03 531.61 Z" />
</g>
<g id="#3f4530ff">
<path fill="#3f4530" opacity="1.00" d=" M 365.32 531.86 C 365.97 530.26 367.78 530.68 368.87 531.51 C 367.76 532.62 366.58 532.73 365.32 531.86 Z" />
</g>
<g id="#455535ff">
<path fill="#455535" opacity="1.00" d=" M 260.04 532.61 C 260.70 531.48 262.45 531.40 262.70 532.90 C 262.03 532.83 260.70 532.68 260.04 532.61 Z" />
</g>
<g id="#6b6e60ff">
<path fill="#6b6e60" opacity="1.00" d=" M 287.61 533.60 C 292.37 533.05 297.16 532.93 301.92 532.50 C 302.31 532.62 303.09 532.85 303.49 532.97 C 302.79 534.79 300.37 533.74 298.93 533.97 C 296.66 533.89 294.40 533.60 292.14 533.78 C 290.44 534.26 288.82 535.19 286.99 535.01 C 282.21 534.81 277.43 535.11 272.65 534.84 C 277.56 533.66 282.64 534.17 287.61 533.60 Z" />
</g>
<g id="#5f6450ff">
<path fill="#5f6450" opacity="1.00" d=" M 353.73 533.53 C 356.90 533.21 360.03 531.60 363.24 532.45 C 360.08 532.99 356.97 534.83 353.73 533.53 Z" />
</g>
<g id="#344025ff">
<path fill="#344025" opacity="1.00" d=" M 266.09 533.49 C 267.51 532.66 269.56 532.23 270.64 533.84 C 269.36 534.70 267.22 534.51 266.09 533.49 Z" />
</g>
<g id="#929993ff">
<path fill="#929993" opacity="1.00" d=" M 304.99 533.42 C 305.30 533.52 305.91 533.73 306.21 533.83 C 306.18 534.28 306.13 535.18 306.10 535.63 C 304.67 535.70 304.30 534.96 304.99 533.42 Z" />
</g>
<g id="#ada8a2ff">
<path fill="#ada8a2" opacity="1.00" d=" M 320.33 533.42 L 320.97 533.33 C 321.66 534.82 321.29 535.63 319.87 535.76 C 319.98 535.18 320.21 534.01 320.33 533.42 Z" />
</g>
<g id="#716452ff">
<path fill="#716452" opacity="1.00" d=" M 328.01 533.58 C 329.55 532.61 331.38 532.68 333.02 533.37 C 331.81 534.63 329.33 534.65 328.01 533.58 Z" />
</g>
<g id="#130700ff">
<path fill="#130700" opacity="1.00" d=" M 306.21 533.83 L 306.96 534.11 C 307.06 560.66 306.82 587.23 307.21 613.78 C 310.95 613.98 314.75 614.15 318.47 613.65 C 318.67 613.27 319.05 612.50 319.25 612.12 L 320.25 612.04 C 320.25 612.56 320.25 613.59 320.25 614.10 L 319.83 614.84 C 315.25 614.92 310.66 614.99 306.09 614.76 C 306.07 614.27 306.03 613.28 306.01 612.79 C 306.02 612.14 306.04 610.85 306.05 610.20 C 306.12 603.47 306.21 596.75 306.04 590.03 C 305.96 577.34 305.95 564.66 306.04 551.98 C 306.23 546.52 306.04 541.07 306.10 535.63 C 306.13 535.18 306.18 534.28 306.21 533.83 Z" />
</g>
<g id="#a9a3a4ff">
<path fill="#a9a3a4" opacity="1.00" d=" M 305.06 552.01 L 306.04 551.98 C 305.95 564.66 305.96 577.34 306.04 590.03 L 305.06 589.99 C 304.96 577.33 304.95 564.67 305.06 552.01 Z" />
</g>
<g id="#4d4a16ff">
<path fill="#4d4a16" opacity="1.00" d=" M 319.03 588.01 L 320.12 588.02 C 320.16 596.02 320.29 604.03 320.25 612.04 L 319.25 612.12 C 318.99 604.08 318.98 596.04 319.03 588.01 Z" />
</g>
<g id="#aaa2b2ff">
<path fill="#aaa2b2" opacity="1.00" d=" M 306.01 612.79 C 304.26 613.40 304.32 609.51 306.05 610.20 C 306.04 610.85 306.02 612.14 306.01 612.79 Z" />
</g>
</svg>
