<?xml version="1.0" encoding="UTF-8" ?>
<!DOCTYPE svg PUBLIC "-//W3C//DTD SVG 1.1//EN" "http://www.w3.org/Graphics/SVG/1.1/DTD/svg11.dtd">
<svg width="194pt" height="185pt" viewBox="0 0 194 185" version="1.1" xmlns="http://www.w3.org/2000/svg">
<g id="#ffcc00ff">
<path fill="#ffcc00" opacity="1.00" d=" M 96.45 0.00 L 97.52 0.00 C 98.06 2.08 98.95 4.06 99.94 5.97 C 99.07 4.68 98.14 3.44 97.22 2.18 C 96.55 35.04 97.40 67.93 96.80 100.78 L 96.20 99.99 C 86.16 87.16 76.87 73.76 67.16 60.67 C 76.48 41.82 85.75 22.95 95.12 4.12 C 95.77 2.82 96.21 1.43 96.45 0.00 Z" />
<path fill="#ffcc00" opacity="1.00" d=" M 0.00 70.53 L 0.48 70.50 C 32.31 80.83 64.23 90.92 96.09 101.17 C 94.64 102.19 93.01 102.94 91.31 103.44 C 76.87 108.00 62.40 112.48 48.09 117.42 C 31.92 102.01 16.09 86.25 0.03 70.73 L 0.00 71.96 L 0.00 70.53 Z" />
<path fill="#ffcc00" opacity="1.00" d=" M 192.81 70.38 C 193.11 70.40 193.70 70.44 194.00 70.46 L 194.00 71.73 L 193.92 70.81 C 177.85 86.33 162.05 102.14 145.81 117.47 C 143.38 116.38 140.89 115.42 138.34 114.63 C 126.77 111.00 115.23 107.26 103.67 103.57 C 102.13 103.03 100.66 102.30 99.24 101.51 C 128.68 91.76 158.19 82.25 187.64 72.52 C 189.39 71.89 191.09 71.11 192.81 70.38 Z" />
<path fill="#ffcc00" opacity="1.00" d=" M 97.11 102.91 L 97.78 102.30 C 108.62 117.70 120.01 132.72 131.01 148.01 C 139.46 159.03 147.06 170.71 155.88 181.44 L 156.16 179.94 C 156.41 181.62 156.55 183.31 156.83 185.00 L 156.48 185.00 C 155.30 183.97 153.98 183.13 152.60 182.41 C 134.08 172.80 115.69 162.93 97.16 153.35 C 96.84 136.54 96.95 119.72 97.11 102.91 Z" />
</g>
<g id="#ffdd55ff">
<path fill="#ffdd55" opacity="1.00" d=" M 97.22 2.18 C 98.14 3.44 99.07 4.68 99.94 5.97 C 109.15 24.17 117.79 42.66 127.23 60.73 C 118.01 74.47 107.75 87.49 98.05 100.88 C 98.35 101.04 98.94 101.36 99.24 101.51 C 100.66 102.30 102.13 103.03 103.67 103.57 C 115.23 107.26 126.77 111.00 138.34 114.63 C 140.89 115.42 143.38 116.38 145.81 117.47 C 148.78 138.36 152.91 159.09 156.16 179.94 L 155.88 181.44 C 147.06 170.71 139.46 159.03 131.01 148.01 C 120.01 132.72 108.62 117.70 97.78 102.30 C 97.45 101.79 97.13 101.29 96.80 100.78 C 97.40 67.93 96.55 35.04 97.22 2.18 Z" />
<path fill="#ffdd55" opacity="1.00" d=" M 90.70 110.62 C 92.65 107.90 94.33 104.90 97.11 102.91 C 96.95 119.72 96.84 136.54 97.16 153.35 C 78.19 163.23 59.27 173.21 40.22 182.94 C 39.66 182.94 38.55 182.93 37.99 182.92 C 55.42 158.72 73.14 134.73 90.70 110.62 Z" />
</g>
<g id="#ffe680ff">
<path fill="#ffe680" opacity="1.00" d=" M 0.48 70.50 C 22.70 67.17 44.93 63.91 67.16 60.67 C 76.87 73.76 86.16 87.16 96.20 99.99 L 96.09 101.17 C 64.23 90.92 32.31 80.83 0.48 70.50 Z" />
<path fill="#ffe680" opacity="1.00" d=" M 127.23 60.73 C 149.13 63.61 170.98 66.97 192.81 70.38 C 191.09 71.11 189.39 71.89 187.64 72.52 C 158.19 82.25 128.68 91.76 99.24 101.51 C 98.94 101.36 98.35 101.04 98.05 100.88 C 107.75 87.49 118.01 74.47 127.23 60.73 Z" />
</g>
<g id="#ffd42aff">
<path fill="#ffd42a" opacity="1.00" d=" M 96.20 99.99 L 96.80 100.78 C 97.13 101.29 97.45 101.79 97.78 102.30 L 97.11 102.91 C 94.33 104.90 92.65 107.90 90.70 110.62 C 73.14 134.73 55.42 158.72 37.99 182.92 C 38.55 182.93 39.66 182.94 40.22 182.94 C 39.34 183.60 38.49 184.28 37.66 185.00 L 37.19 185.00 C 37.32 183.35 37.31 181.69 37.55 180.05 C 41.03 159.17 44.78 138.33 48.09 117.42 C 62.40 112.48 76.87 108.00 91.31 103.44 C 93.01 102.94 94.64 102.19 96.09 101.17 L 96.20 99.99 Z" />
</g>
</svg>
