<?xml version="1.0" encoding="UTF-8" ?>
<!DOCTYPE svg PUBLIC "-//W3C//DTD SVG 1.1//EN" "http://www.w3.org/Graphics/SVG/1.1/DTD/svg11.dtd">
<svg width="200pt" height="200pt" viewBox="0 0 200 200" version="1.1" xmlns="http://www.w3.org/2000/svg">
<g id="#df7f42ff">
<path fill="#df7f42" opacity="1.00" d=" M 87.55 23.33 C 95.69 21.74 104.02 21.56 112.24 20.43 C 116.53 20.21 121.14 19.72 125.01 22.02 C 134.15 27.29 139.49 37.08 148.57 42.44 C 152.65 45.08 155.01 49.47 157.77 53.31 C 164.01 63.33 169.52 74.45 169.74 86.49 C 170.63 97.20 171.68 108.13 169.41 118.74 C 167.98 122.73 166.01 126.63 165.94 130.97 C 166.11 136.39 163.03 141.04 160.57 145.62 C 157.38 151.47 152.67 156.40 147.21 160.19 C 142.13 163.78 137.21 167.62 131.87 170.82 C 134.86 166.17 137.86 161.53 140.91 156.92 C 146.11 149.10 149.96 140.35 156.31 133.32 C 168.06 121.31 170.73 102.23 165.25 86.72 C 162.61 78.73 154.69 74.58 150.06 67.97 C 145.37 61.25 142.31 53.61 138.63 46.33 C 136.81 42.68 133.79 39.62 130.00 38.03 C 124.04 35.50 117.56 33.58 111.02 34.22 C 105.24 34.72 99.32 35.91 93.59 34.35 C 90.12 33.69 86.59 31.80 83.01 32.88 C 77.45 34.60 72.77 38.28 67.32 40.25 C 63.98 41.48 60.36 41.02 56.89 41.02 C 59.04 38.51 62.29 37.55 65.12 36.06 C 68.90 33.95 70.51 29.48 74.16 27.22 C 78.25 24.89 82.97 24.10 87.55 23.33 Z" />
<path fill="#df7f42" opacity="1.00" d=" M 95.74 49.05 C 98.81 45.18 104.33 45.37 108.69 46.41 C 112.04 47.21 114.67 49.57 116.97 52.02 C 113.52 50.87 110.53 48.55 106.95 47.83 C 103.19 47.94 99.55 49.32 95.74 49.05 Z" />
<path fill="#df7f42" opacity="1.00" d=" M 50.15 56.98 C 52.70 58.99 54.64 61.62 56.88 63.95 C 55.22 63.34 53.49 62.86 51.95 61.98 C 50.51 60.75 50.58 58.67 50.15 56.98 Z" />
<path fill="#df7f42" opacity="1.00" d=" M 125.91 57.10 C 128.93 56.97 130.68 59.39 132.19 61.62 C 130.05 60.19 127.58 59.13 125.91 57.10 Z" />
<path fill="#df7f42" opacity="1.00" d=" M 79.85 70.84 C 81.67 69.56 84.39 68.62 86.20 70.46 C 83.97 71.39 81.47 71.95 79.70 73.70 C 77.71 75.78 76.75 78.90 73.86 80.01 C 74.49 76.27 76.89 73.10 79.85 70.84 Z" />
<path fill="#df7f42" opacity="1.00" d=" M 35.92 90.97 C 36.31 86.04 40.33 81.94 45.11 81.02 C 43.55 84.38 40.26 86.81 39.63 90.59 C 38.87 95.09 39.39 99.69 38.81 104.21 C 34.01 101.62 34.99 95.40 35.92 90.97 Z" />
<path fill="#df7f42" opacity="1.00" d=" M 133.45 102.64 C 136.85 103.77 137.49 109.90 134.20 111.23 C 133.86 108.37 133.61 105.51 133.45 102.64 Z" />
<path fill="#df7f42" opacity="1.00" d=" M 43.83 110.42 C 46.26 110.78 48.69 111.19 51.10 111.66 C 48.67 112.96 45.03 113.60 43.83 110.42 Z" />
<path fill="#df7f42" opacity="1.00" d=" M 113.07 153.94 C 116.78 150.11 119.33 145.47 121.91 140.86 C 121.97 143.82 122.56 147.15 120.80 149.77 C 119.01 152.29 115.84 153.02 113.07 153.94 Z" />
<path fill="#df7f42" opacity="1.00" d=" M 77.07 159.91 C 78.98 160.53 80.78 161.41 82.53 162.40 C 85.13 164.01 88.30 163.94 91.22 164.54 C 86.01 166.40 79.99 164.74 77.07 159.91 Z" />
</g>
<g id="#faae50ff">
<path fill="#faae50" opacity="1.00" d=" M 83.01 32.88 C 86.59 31.80 90.12 33.69 93.59 34.35 C 99.32 35.91 105.24 34.72 111.02 34.22 C 117.56 33.58 124.04 35.50 130.00 38.03 C 133.79 39.62 136.81 42.68 138.63 46.33 C 142.31 53.61 145.37 61.25 150.06 67.97 C 154.69 74.58 162.61 78.73 165.25 86.72 C 170.73 102.23 168.06 121.31 156.31 133.32 C 149.96 140.35 146.11 149.10 140.91 156.92 C 137.86 161.53 134.86 166.17 131.87 170.82 C 124.36 175.91 116.27 180.94 106.98 181.67 C 104.97 181.68 102.83 181.94 100.97 181.02 C 93.64 177.55 86.38 173.87 78.66 171.32 C 72.06 169.24 66.02 165.70 60.52 161.55 C 55.65 158.02 49.61 156.10 45.65 151.38 C 40.43 145.28 35.63 138.53 33.23 130.79 C 32.17 125.20 32.26 119.45 31.03 113.88 C 30.22 106.42 28.07 99.21 27.10 91.79 C 27.78 87.24 29.20 82.83 30.46 78.42 C 34.26 69.31 36.91 59.24 44.01 52.00 C 48.12 48.16 52.10 44.01 56.89 41.02 C 60.36 41.02 63.98 41.48 67.32 40.25 C 72.77 38.28 77.45 34.60 83.01 32.88 M 95.74 49.05 C 99.55 49.32 103.19 47.94 106.95 47.83 C 110.53 48.55 113.52 50.87 116.97 52.02 C 114.67 49.57 112.04 47.21 108.69 46.41 C 104.33 45.37 98.81 45.18 95.74 49.05 M 51.45 49.48 C 47.45 51.70 46.48 57.38 48.92 61.11 C 50.41 63.63 52.27 67.50 55.80 66.90 C 58.29 65.92 60.14 63.85 61.86 61.88 C 64.80 58.58 64.09 51.98 59.62 50.39 C 57.00 49.56 54.18 49.05 51.45 49.48 M 82.20 52.34 C 81.14 54.05 82.55 55.85 82.95 57.53 C 83.85 55.09 86.27 55.73 88.12 56.41 C 87.15 56.55 85.21 56.84 84.25 56.98 C 85.43 58.31 88.18 59.39 89.25 57.35 C 89.72 55.25 90.27 52.74 89.14 50.78 C 87.05 48.54 83.75 50.39 82.20 52.34 M 98.63 61.95 C 98.75 65.46 102.28 62.85 103.95 62.06 C 103.18 62.88 102.42 63.70 101.67 64.53 C 102.79 64.89 103.91 65.25 105.04 65.60 C 105.80 63.23 106.93 60.65 106.05 58.16 C 103.81 54.11 97.16 58.06 98.63 61.95 M 122.46 56.32 C 119.97 59.88 120.17 64.75 120.93 68.84 C 123.37 73.29 130.79 73.83 134.00 70.02 C 135.39 67.27 134.86 63.89 134.03 61.03 C 132.74 56.32 126.61 54.10 122.46 56.32 M 79.85 70.84 C 76.89 73.10 74.49 76.27 73.86 80.01 C 76.75 78.90 77.71 75.78 79.70 73.70 C 81.47 71.95 83.97 71.39 86.20 70.46 C 84.39 68.62 81.67 69.56 79.85 70.84 M 80.65 83.69 C 82.12 82.19 83.39 80.52 84.51 78.75 C 83.55 80.94 82.75 83.23 82.63 85.65 C 82.09 85.44 81.01 85.03 80.47 84.82 C 80.92 86.86 80.78 90.08 83.41 90.60 C 87.00 91.05 91.25 90.56 94.03 88.06 C 96.71 83.92 95.72 77.24 91.60 74.38 C 86.29 72.75 79.60 77.94 80.65 83.69 M 35.92 90.97 C 34.99 95.40 34.01 101.62 38.81 104.21 C 39.39 99.69 38.87 95.09 39.63 90.59 C 40.26 86.81 43.55 84.38 45.11 81.02 C 40.33 81.94 36.31 86.04 35.92 90.97 M 141.26 101.80 C 141.59 105.07 145.58 105.13 148.06 105.52 C 148.72 102.77 150.33 99.20 147.73 96.95 C 144.78 95.65 140.37 98.36 141.26 101.80 M 70.29 98.15 C 68.29 98.87 66.15 100.56 66.72 102.97 C 67.18 105.73 70.29 106.59 72.69 106.71 C 75.97 104.88 75.31 96.11 70.29 98.15 M 40.99 103.96 C 39.05 106.41 39.67 110.15 41.58 112.44 C 44.32 115.09 48.36 115.68 52.03 115.37 C 53.05 112.34 54.02 109.22 54.06 106.00 C 54.19 102.80 51.33 99.71 48.06 99.90 C 45.41 100.58 42.90 101.99 40.99 103.96 M 133.45 102.64 C 133.61 105.51 133.86 108.37 134.20 111.23 C 137.49 109.90 136.85 103.77 133.45 102.64 M 100.59 110.35 C 101.35 113.13 104.64 113.23 106.90 114.01 C 107.96 111.61 109.04 108.83 107.99 106.24 C 105.63 102.71 99.05 106.53 100.59 110.35 M 132.42 120.42 C 128.60 122.52 126.40 127.44 127.33 131.69 C 128.52 134.69 132.04 135.95 135.01 136.35 C 139.40 136.88 143.00 132.89 143.78 128.88 C 144.15 125.99 141.77 123.83 139.65 122.29 C 137.61 120.82 134.98 119.18 132.42 120.42 M 55.34 135.41 C 52.54 136.28 49.99 138.85 50.53 141.99 C 51.11 145.49 52.78 149.40 56.16 151.00 C 59.13 151.71 63.10 151.81 65.25 149.29 C 66.36 145.76 65.76 141.85 64.56 138.42 C 63.32 134.72 58.54 134.04 55.34 135.41 M 94.47 139.41 C 91.29 140.49 91.23 145.60 94.39 146.69 C 96.03 147.43 99.28 148.24 99.53 145.60 C 99.98 143.68 100.37 141.46 99.28 139.67 C 97.97 138.38 95.92 138.34 94.47 139.41 M 113.07 153.94 C 115.84 153.02 119.01 152.29 120.80 149.77 C 122.56 147.15 121.97 143.82 121.91 140.86 C 119.33 145.47 116.78 150.11 113.07 153.94 M 122.26 151.81 C 122.32 155.12 126.33 155.40 128.78 155.96 C 129.45 153.55 130.86 150.87 129.69 148.39 C 127.58 145.01 121.24 148.12 122.26 151.81 M 100.26 165.08 C 100.19 167.85 100.11 171.67 103.23 172.87 C 106.73 173.61 110.69 172.65 113.61 170.63 C 117.27 166.35 114.90 160.06 111.66 156.25 C 106.42 155.70 100.27 159.36 100.26 165.08 M 77.07 159.91 C 79.99 164.74 86.01 166.40 91.22 164.54 C 88.30 163.94 85.13 164.01 82.53 162.40 C 80.78 161.41 78.98 160.53 77.07 159.91 Z" />
</g>
<g id="#60201dff">
<path fill="#60201d" opacity="1.00" d=" M 51.45 49.48 C 54.18 49.05 57.00 49.56 59.62 50.39 C 64.09 51.98 64.80 58.58 61.86 61.88 C 60.14 63.85 58.29 65.92 55.80 66.90 C 52.27 67.50 50.41 63.63 48.92 61.11 C 46.48 57.38 47.45 51.70 51.45 49.48 M 50.15 56.98 C 50.58 58.67 50.51 60.75 51.95 61.98 C 53.49 62.86 55.22 63.34 56.88 63.95 C 54.64 61.62 52.70 58.99 50.15 56.98 Z" />
<path fill="#60201d" opacity="1.00" d=" M 82.20 52.34 C 83.75 50.39 87.05 48.54 89.14 50.78 C 90.27 52.74 89.72 55.25 89.25 57.35 C 88.18 59.39 85.43 58.31 84.25 56.98 C 85.21 56.84 87.15 56.55 88.12 56.41 C 86.27 55.73 83.85 55.09 82.95 57.53 C 82.55 55.85 81.14 54.05 82.20 52.34 Z" />
<path fill="#60201d" opacity="1.00" d=" M 98.63 61.95 C 97.16 58.06 103.81 54.11 106.05 58.16 C 106.93 60.65 105.80 63.23 105.04 65.60 C 103.91 65.25 102.79 64.89 101.67 64.53 C 102.42 63.70 103.18 62.88 103.95 62.06 C 102.28 62.85 98.75 65.46 98.63 61.95 Z" />
<path fill="#60201d" opacity="1.00" d=" M 122.46 56.32 C 126.61 54.10 132.74 56.32 134.03 61.03 C 134.86 63.89 135.39 67.27 134.00 70.02 C 130.79 73.83 123.37 73.29 120.93 68.84 C 120.17 64.75 119.97 59.88 122.46 56.32 M 125.91 57.10 C 127.58 59.13 130.05 60.19 132.19 61.62 C 130.68 59.39 128.93 56.97 125.91 57.10 Z" />
<path fill="#60201d" opacity="1.00" d=" M 80.65 83.69 C 79.60 77.94 86.29 72.75 91.60 74.38 C 95.72 77.24 96.71 83.92 94.03 88.06 C 91.25 90.56 87.00 91.05 83.41 90.60 C 80.78 90.08 80.92 86.86 80.47 84.82 C 81.01 85.03 82.09 85.44 82.63 85.65 C 82.75 83.23 83.55 80.94 84.51 78.75 C 83.39 80.52 82.12 82.19 80.65 83.69 Z" />
<path fill="#60201d" opacity="1.00" d=" M 141.26 101.80 C 140.37 98.36 144.78 95.65 147.73 96.95 C 150.33 99.20 148.72 102.77 148.06 105.52 C 145.58 105.13 141.59 105.07 141.26 101.80 Z" />
<path fill="#60201d" opacity="1.00" d=" M 70.29 98.15 C 75.31 96.11 75.97 104.88 72.69 106.71 C 70.29 106.59 67.18 105.73 66.72 102.97 C 66.15 100.56 68.29 98.87 70.29 98.15 Z" />
<path fill="#60201d" opacity="1.00" d=" M 40.99 103.96 C 42.90 101.99 45.41 100.58 48.06 99.90 C 51.33 99.71 54.19 102.80 54.06 106.00 C 54.02 109.22 53.05 112.34 52.03 115.37 C 48.36 115.68 44.32 115.09 41.58 112.44 C 39.67 110.15 39.05 106.41 40.99 103.96 M 43.83 110.42 C 45.03 113.60 48.67 112.96 51.10 111.66 C 48.69 111.19 46.26 110.78 43.83 110.42 Z" />
<path fill="#60201d" opacity="1.00" d=" M 100.59 110.35 C 99.05 106.53 105.63 102.71 107.99 106.24 C 109.04 108.83 107.96 111.61 106.90 114.01 C 104.64 113.23 101.35 113.13 100.59 110.35 Z" />
<path fill="#60201d" opacity="1.00" d=" M 132.42 120.42 C 134.98 119.18 137.61 120.82 139.65 122.29 C 141.77 123.83 144.15 125.99 143.78 128.88 C 143.00 132.89 139.40 136.88 135.01 136.35 C 132.04 135.95 128.52 134.69 127.33 131.69 C 126.40 127.44 128.60 122.52 132.42 120.42 Z" />
<path fill="#60201d" opacity="1.00" d=" M 55.34 135.41 C 58.54 134.04 63.32 134.72 64.56 138.42 C 65.76 141.85 66.36 145.76 65.25 149.29 C 63.10 151.81 59.13 151.71 56.16 151.00 C 52.78 149.40 51.11 145.49 50.53 141.99 C 49.99 138.85 52.54 136.28 55.34 135.41 Z" />
<path fill="#60201d" opacity="1.00" d=" M 94.47 139.41 C 95.92 138.34 97.97 138.38 99.28 139.67 C 100.37 141.46 99.98 143.68 99.53 145.60 C 99.28 148.24 96.03 147.43 94.39 146.69 C 91.23 145.60 91.29 140.49 94.47 139.41 Z" />
<path fill="#60201d" opacity="1.00" d=" M 122.26 151.81 C 121.24 148.12 127.58 145.01 129.69 148.39 C 130.86 150.87 129.45 153.55 128.78 155.96 C 126.33 155.40 122.32 155.12 122.26 151.81 Z" />
<path fill="#60201d" opacity="1.00" d=" M 100.26 165.08 C 100.27 159.36 106.42 155.70 111.66 156.25 C 114.90 160.06 117.27 166.35 113.61 170.63 C 110.69 172.65 106.73 173.61 103.23 172.87 C 100.11 171.67 100.19 167.85 100.26 165.08 Z" />
</g>
</svg>
