<?xml version="1.0" encoding="UTF-8" ?>
<!DOCTYPE svg PUBLIC "-//W3C//DTD SVG 1.1//EN" "http://www.w3.org/Graphics/SVG/1.1/DTD/svg11.dtd">
<svg width="200pt" height="200pt" viewBox="0 0 200 200" version="1.1" xmlns="http://www.w3.org/2000/svg">
<g id="#c2c3c2ff">
<path fill="#c2c3c2" opacity="1.00" d=" M 105.59 27.42 C 104.85 25.44 109.02 25.06 108.51 27.16 C 107.55 27.35 106.57 27.43 105.59 27.42 Z" />
<path fill="#c2c3c2" opacity="1.00" d=" M 178.23 85.78 C 178.39 90.95 179.32 96.14 178.62 101.30 C 178.50 96.13 178.38 90.95 178.23 85.78 Z" />
<path fill="#c2c3c2" opacity="1.00" d=" M 166.22 105.19 C 169.72 100.59 171.72 95.10 174.76 90.21 C 174.93 96.77 176.87 104.11 173.04 110.02 C 169.04 116.72 164.00 122.74 158.78 128.51 C 158.37 124.75 157.30 120.92 157.88 117.15 C 160.19 112.86 163.50 109.22 166.22 105.19 Z" />
<path fill="#c2c3c2" opacity="1.00" d=" M 26.02 109.55 C 25.55 107.22 25.56 104.83 26.03 102.51 C 26.01 104.85 26.00 107.20 26.02 109.55 Z" />
<path fill="#c2c3c2" opacity="1.00" d=" M 84.82 168.23 C 89.60 168.59 94.40 168.54 99.19 168.24 C 94.41 168.72 89.59 168.72 84.82 168.23 Z" />
</g>
<g id="#020101ff">
<path fill="#020101" opacity="1.00" d=" M 66.29 46.28 C 78.50 38.44 91.18 30.29 105.59 27.42 C 106.57 27.43 107.55 27.35 108.51 27.16 C 108.96 27.08 109.85 26.94 110.30 26.87 C 113.12 30.69 116.11 34.45 118.31 38.68 C 119.48 40.73 119.29 43.17 118.66 45.35 C 118.22 46.69 117.97 48.08 117.89 49.49 C 117.92 51.75 116.08 53.26 114.42 54.48 C 109.56 57.98 103.98 60.43 99.51 64.49 C 94.36 69.31 88.86 73.71 83.09 77.75 C 80.67 79.51 78.48 81.56 76.58 83.86 C 74.06 86.92 71.47 89.92 69.12 93.12 C 66.17 97.10 64.76 101.93 62.43 106.26 C 61.50 107.30 61.40 108.85 62.48 109.83 C 65.00 113.76 67.46 117.90 71.31 120.69 C 76.86 125.23 83.83 127.27 90.49 129.56 C 91.92 130.18 93.48 130.33 95.03 130.23 L 95.98 130.23 C 97.52 130.34 99.09 130.22 100.53 129.62 C 106.55 127.82 112.50 125.46 117.49 121.56 C 122.46 117.56 127.54 113.72 132.83 110.16 C 134.83 108.68 136.65 106.94 138.22 105.01 C 144.15 97.05 149.92 88.96 156.36 81.38 C 157.51 80.07 158.80 78.87 160.18 77.79 C 161.60 76.82 162.96 75.76 164.13 74.49 C 164.46 74.16 165.11 73.51 165.44 73.19 C 168.54 75.21 171.46 77.69 173.18 81.04 C 173.74 82.23 174.56 83.33 175.74 83.98 C 176.59 84.56 177.42 85.16 178.23 85.78 C 178.38 90.95 178.50 96.13 178.62 101.30 C 178.75 106.51 175.61 110.90 173.34 115.34 C 169.26 123.24 163.32 129.94 157.87 136.90 C 151.90 144.63 144.03 150.67 135.77 155.77 C 127.46 160.34 118.94 165.06 109.49 166.72 C 106.08 167.35 102.65 167.95 99.19 168.24 C 94.40 168.54 89.60 168.59 84.82 168.23 C 78.57 167.39 72.81 164.60 67.40 161.49 C 61.79 158.23 55.74 155.55 50.85 151.19 C 43.52 144.69 37.30 136.94 32.53 128.39 C 29.38 122.54 26.42 116.29 26.02 109.55 C 26.00 107.20 26.01 104.85 26.03 102.51 C 26.60 92.11 30.30 81.83 36.30 73.34 C 45.18 63.21 54.64 53.26 66.29 46.28 M 70.03 48.21 C 74.37 52.35 78.76 56.43 82.84 60.82 C 85.26 58.91 87.67 56.99 90.13 55.12 C 97.83 49.11 106.91 45.32 115.16 40.18 C 112.94 36.17 110.14 32.54 107.06 29.15 C 93.94 33.83 81.48 40.27 70.03 48.21 M 83.57 62.98 C 83.84 65.70 84.31 68.40 84.57 71.13 C 89.64 67.72 94.27 63.72 99.35 60.31 C 104.26 56.94 109.42 53.84 113.87 49.85 C 116.26 47.90 115.39 44.47 115.79 41.79 C 103.94 46.97 93.24 54.47 83.57 62.98 M 36.84 80.90 C 30.83 89.25 29.61 100.03 30.79 110.01 C 31.72 117.25 35.43 123.69 39.05 129.89 C 44.71 139.36 54.48 145.34 64.27 149.83 C 68.66 151.93 73.41 153.20 78.24 153.74 C 86.50 154.70 95.00 155.14 103.14 153.09 C 110.39 151.22 117.80 149.23 124.12 145.06 C 135.87 136.86 147.09 127.42 154.89 115.24 C 150.84 112.31 146.76 109.44 142.70 106.54 C 137.46 110.30 133.15 115.17 127.95 118.98 C 120.66 124.63 113.36 131.20 103.99 132.92 C 97.79 133.83 91.40 133.83 85.24 132.63 C 73.16 129.48 63.18 120.17 58.31 108.78 C 54.88 98.42 58.03 86.91 64.30 78.29 C 68.80 71.72 75.50 67.24 81.17 61.78 C 77.55 57.20 73.34 53.14 68.95 49.31 C 56.54 57.83 44.63 67.81 36.84 80.90 M 64.70 81.70 C 60.09 88.74 58.38 97.34 59.65 105.64 C 61.38 100.53 62.63 95.16 65.63 90.60 C 69.46 84.90 74.47 80.13 79.53 75.54 C 80.91 74.14 82.55 72.79 83.20 70.87 C 83.25 68.52 82.76 66.20 82.37 63.89 C 75.87 69.15 69.19 74.53 64.70 81.70 M 143.24 105.20 C 147.61 108.54 152.21 111.57 156.91 114.42 C 159.89 110.25 162.82 106.04 166.06 102.07 C 170.04 97.11 172.61 91.23 174.73 85.28 C 171.54 82.36 168.26 79.55 164.85 76.90 C 158.11 86.68 150.91 96.13 143.24 105.20 M 166.22 105.19 C 163.50 109.22 160.19 112.86 157.88 117.15 C 157.30 120.92 158.37 124.75 158.78 128.51 C 164.00 122.74 169.04 116.72 173.04 110.02 C 176.87 104.11 174.93 96.77 174.76 90.21 C 171.72 95.10 169.72 100.59 166.22 105.19 M 139.26 136.25 C 131.62 142.51 123.93 149.30 114.27 152.19 C 106.70 154.47 98.98 156.86 91.00 156.74 C 84.69 156.68 78.35 156.21 72.16 154.91 C 66.28 153.67 61.03 150.63 55.51 148.41 C 57.64 150.31 59.86 152.16 62.39 153.54 C 73.55 159.62 86.25 163.31 99.02 162.88 C 107.07 162.17 115.39 161.49 122.73 157.82 C 131.57 153.40 140.58 148.73 147.45 141.46 C 150.66 138.00 154.32 134.78 156.58 130.57 C 157.86 126.70 156.48 122.57 155.96 118.67 C 150.51 124.64 145.53 131.09 139.26 136.25 Z" />
</g>
<g id="#e2e4e3ff">
<path fill="#e2e4e3" opacity="1.00" d=" M 70.03 48.21 C 81.48 40.27 93.94 33.83 107.06 29.15 C 110.14 32.54 112.94 36.17 115.16 40.18 C 106.91 45.32 97.83 49.11 90.13 55.12 C 87.67 56.99 85.26 58.91 82.84 60.82 C 78.76 56.43 74.37 52.35 70.03 48.21 Z" />
</g>
<g id="#c3c3c3ff">
<path fill="#c3c3c3" opacity="1.00" d=" M 83.57 62.98 C 93.24 54.47 103.94 46.97 115.79 41.79 C 115.39 44.47 116.26 47.90 113.87 49.85 C 109.42 53.84 104.26 56.94 99.35 60.31 C 94.27 63.72 89.64 67.72 84.57 71.13 C 84.31 68.40 83.84 65.70 83.57 62.98 Z" />
</g>
<g id="#555555ed">
<path fill="#555555" opacity="0.93" d=" M 117.89 49.49 C 117.97 48.08 118.22 46.69 118.66 45.35 C 120.46 46.02 119.91 49.68 117.89 49.49 Z" />
</g>
<g id="#ca1b26ff">
<path fill="#ca1b26" opacity="1.00" d=" M 36.84 80.90 C 44.63 67.81 56.54 57.83 68.95 49.31 C 73.34 53.14 77.55 57.20 81.17 61.78 C 75.50 67.24 68.80 71.72 64.30 78.29 C 58.03 86.91 54.88 98.42 58.31 108.78 C 63.18 120.17 73.16 129.48 85.24 132.63 C 91.40 133.83 97.79 133.83 103.99 132.92 C 113.36 131.20 120.66 124.63 127.95 118.98 C 133.15 115.17 137.46 110.30 142.70 106.54 C 146.76 109.44 150.84 112.31 154.89 115.24 C 147.09 127.42 135.87 136.86 124.12 145.06 C 117.80 149.23 110.39 151.22 103.14 153.09 C 95.00 155.14 86.50 154.70 78.24 153.74 C 73.41 153.20 68.66 151.93 64.27 149.83 C 54.48 145.34 44.71 139.36 39.05 129.89 C 35.43 123.69 31.72 117.25 30.79 110.01 C 29.61 100.03 30.83 89.25 36.84 80.90 Z" />
</g>
<g id="#92161cff">
<path fill="#92161c" opacity="1.00" d=" M 64.70 81.70 C 69.19 74.53 75.87 69.15 82.37 63.89 C 82.76 66.20 83.25 68.52 83.20 70.87 C 82.55 72.79 80.91 74.14 79.53 75.54 C 74.47 80.13 69.46 84.90 65.63 90.60 C 62.63 95.16 61.38 100.53 59.65 105.64 C 58.38 97.34 60.09 88.74 64.70 81.70 Z" />
</g>
<g id="#525252cb">
<path fill="#525252" opacity="0.80" d=" M 160.18 77.79 C 158.99 75.83 162.38 73.10 164.13 74.49 C 162.96 75.76 161.60 76.82 160.18 77.79 Z" />
</g>
<g id="#e1e4e3ff">
<path fill="#e1e4e3" opacity="1.00" d=" M 143.24 105.20 C 150.91 96.13 158.11 86.68 164.85 76.90 C 168.26 79.55 171.54 82.36 174.73 85.28 C 172.61 91.23 170.04 97.11 166.06 102.07 C 162.82 106.04 159.89 110.25 156.91 114.42 C 152.21 111.57 147.61 108.54 143.24 105.20 Z" />
</g>
<g id="#454746c3">
<path fill="#454746" opacity="0.76" d=" M 76.58 83.86 C 78.48 81.56 80.67 79.51 83.09 77.75 C 81.30 80.16 79.09 82.23 76.58 83.86 Z" />
</g>
<g id="#535353bf">
<path fill="#535353" opacity="0.75" d=" M 173.18 81.04 C 174.71 79.88 177.04 82.59 175.74 83.98 C 174.56 83.33 173.74 82.23 173.18 81.04 Z" />
</g>
<g id="#4d4d4ec6">
<path fill="#4d4d4e" opacity="0.78" d=" M 132.83 110.16 C 134.50 108.31 136.30 106.59 138.22 105.01 C 136.65 106.94 134.83 108.68 132.83 110.16 Z" />
</g>
<g id="#6d6d6fff">
<path fill="#6d6d6f" opacity="1.00" d=" M 62.48 109.83 C 61.40 108.85 61.50 107.30 62.43 106.26 C 63.66 107.43 63.68 108.62 62.48 109.83 Z" />
</g>
<g id="#94151cff">
<path fill="#94151c" opacity="1.00" d=" M 139.26 136.25 C 145.53 131.09 150.51 124.64 155.96 118.67 C 156.48 122.57 157.86 126.70 156.58 130.57 C 154.32 134.78 150.66 138.00 147.45 141.46 C 140.58 148.73 131.57 153.40 122.73 157.82 C 115.39 161.49 107.07 162.17 99.02 162.88 C 86.25 163.31 73.55 159.62 62.39 153.54 C 59.86 152.16 57.64 150.31 55.51 148.41 C 61.03 150.63 66.28 153.67 72.16 154.91 C 78.35 156.21 84.69 156.68 91.00 156.74 C 98.98 156.86 106.70 154.47 114.27 152.19 C 123.93 149.30 131.62 142.51 139.26 136.25 Z" />
</g>
<g id="#686868ba">
<path fill="#686868" opacity="0.73" d=" M 90.49 129.56 C 91.41 128.06 94.72 128.40 95.03 130.23 C 93.48 130.33 91.92 130.18 90.49 129.56 Z" />
</g>
<g id="#626262b2">
<path fill="#626262" opacity="0.70" d=" M 95.98 130.23 C 96.33 128.42 99.63 128.09 100.53 129.62 C 99.09 130.22 97.52 130.34 95.98 130.23 Z" />
</g>
</svg>
