<?xml version="1.0" encoding="UTF-8" ?>
<!DOCTYPE svg PUBLIC "-//W3C//DTD SVG 1.1//EN" "http://www.w3.org/Graphics/SVG/1.1/DTD/svg11.dtd">
<svg width="200pt" height="200pt" viewBox="0 0 200 200" version="1.1" xmlns="http://www.w3.org/2000/svg">
<g id="#2f9ff9ff">
<path fill="#2f9ff9" opacity="1.00" d=" M 13.49 12.30 C 25.04 6.27 38.65 6.66 51.07 9.35 C 60.71 11.53 69.18 17.40 79.09 18.54 C 91.52 20.21 104.15 20.16 116.64 19.23 C 116.28 20.65 115.86 22.06 115.36 23.43 C 114.12 25.05 111.88 25.13 110.03 25.29 C 95.79 25.54 81.92 21.68 68.38 17.68 C 55.93 13.86 43.32 9.07 30.08 9.73 C 24.77 9.98 19.42 11.20 14.79 13.88 C 11.79 15.62 10.08 18.76 7.98 21.40 C 6.14 17.23 10.23 14.01 13.49 12.30 Z" />
</g>
<g id="#4277f0ff">
<path fill="#4277f0" opacity="1.00" d=" M 14.79 13.88 C 19.42 11.20 24.77 9.98 30.08 9.73 C 43.32 9.07 55.93 13.86 68.38 17.68 C 81.92 21.68 95.79 25.54 110.03 25.29 C 111.88 25.13 114.12 25.05 115.36 23.43 C 115.86 22.06 116.28 20.65 116.64 19.23 C 125.41 18.37 134.42 17.85 143.03 20.12 C 145.07 20.79 147.48 21.71 148.13 24.00 C 148.79 25.75 147.86 27.40 147.15 28.94 C 140.41 23.05 130.84 23.83 122.70 25.59 C 114.81 27.38 106.69 27.30 98.65 27.14 C 92.27 26.07 85.84 25.21 79.61 23.44 C 65.08 19.71 51.19 12.93 36.00 12.26 C 29.11 12.04 21.66 11.92 15.55 15.60 C 12.80 17.12 11.54 20.12 10.20 22.79 C 9.46 22.32 8.72 21.86 7.98 21.40 C 10.08 18.76 11.79 15.62 14.79 13.88 Z" />
</g>
<g id="#55c4f2ff">
<path fill="#55c4f2" opacity="1.00" d=" M 15.55 15.60 C 21.66 11.92 29.11 12.04 36.00 12.26 C 51.19 12.93 65.08 19.71 79.61 23.44 C 85.84 25.21 92.27 26.07 98.65 27.14 C 103.21 28.23 107.92 28.18 112.58 28.13 C 111.23 34.38 108.98 40.52 108.99 46.99 C 108.96 52.06 109.11 57.14 109.03 62.21 C 99.35 62.55 89.67 62.38 80.00 62.36 C 79.99 63.52 79.99 64.68 79.98 65.85 C 81.90 66.04 83.82 66.25 85.75 66.42 C 93.62 67.80 101.69 65.98 109.51 67.86 C 99.95 68.77 90.31 68.54 80.73 68.26 C 79.12 65.52 75.87 66.03 73.18 65.79 C 72.76 66.40 71.91 67.63 71.49 68.24 C 66.23 68.49 60.94 67.48 55.71 68.40 C 58.39 68.72 61.09 68.92 63.79 69.09 C 63.16 70.33 62.52 71.58 61.89 72.82 C 62.91 72.17 63.94 71.51 64.96 70.86 C 67.03 73.92 68.96 77.06 70.95 80.17 C 71.04 79.64 71.21 78.58 71.30 78.04 C 71.60 78.76 72.21 80.20 72.51 80.92 C 72.19 81.73 71.89 82.55 71.61 83.38 C 70.03 86.79 71.08 90.49 72.41 93.78 C 71.82 94.32 71.23 94.87 70.63 95.42 C 71.14 97.37 72.77 100.03 70.12 101.20 C 70.02 99.84 69.93 98.47 69.85 97.11 C 65.93 96.65 61.99 96.35 58.04 96.18 C 57.96 97.45 57.87 98.73 57.77 100.01 C 59.84 100.19 61.91 100.35 63.99 100.50 C 62.66 110.13 60.27 119.57 58.20 129.07 C 56.29 137.67 51.67 146.20 53.60 155.22 C 54.60 163.34 62.48 168.68 69.99 170.13 C 76.36 171.34 82.96 171.40 89.37 170.47 C 93.65 169.66 98.54 167.29 99.56 162.63 C 101.15 148.34 98.29 134.11 96.12 120.03 C 95.40 113.99 92.92 108.15 93.58 101.98 C 100.24 102.36 106.90 101.83 113.56 102.20 C 118.42 118.17 121.81 134.54 125.21 150.88 C 126.53 157.12 126.91 164.39 122.76 169.70 C 117.01 177.40 107.24 180.13 98.34 182.33 C 83.42 184.97 67.58 187.09 52.88 182.24 C 44.27 179.31 41.04 170.01 38.26 162.24 C 42.37 131.89 53.33 102.69 55.22 71.99 C 55.26 64.68 55.67 57.33 54.75 50.06 C 53.94 37.98 44.01 27.65 32.45 24.93 C 25.16 22.82 17.51 24.48 10.20 22.79 C 11.54 20.12 12.80 17.12 15.55 15.60 M 62.69 26.04 C 67.38 30.91 73.98 34.99 80.94 34.81 C 82.73 34.64 86.80 33.68 84.66 31.34 C 81.30 29.86 77.57 29.61 74.00 28.95 C 70.13 28.40 66.46 27.01 62.69 26.04 M 55.75 65.17 C 61.13 65.69 66.54 65.82 71.95 65.76 C 72.30 64.59 72.64 63.41 72.99 62.24 C 67.68 61.88 62.36 61.49 57.04 61.46 C 54.84 61.17 55.90 63.97 55.75 65.17 M 54.25 95.07 C 54.13 97.63 57.77 96.20 58.42 94.74 C 59.23 90.52 59.15 86.18 59.72 81.92 C 57.16 85.94 55.22 90.40 54.25 95.07 M 61.05 88.16 C 61.06 88.85 61.09 90.22 61.11 90.91 C 61.81 90.91 63.20 90.91 63.90 90.90 C 63.93 90.22 63.98 88.85 64.00 88.17 C 63.26 88.17 61.79 88.16 61.05 88.16 M 53.17 99.23 C 49.60 111.99 49.64 125.48 46.48 138.35 C 44.65 147.75 41.51 157.47 44.01 167.06 C 45.88 174.96 53.05 181.20 61.14 181.93 C 57.77 179.22 54.30 176.43 52.51 172.37 C 46.41 161.59 47.46 148.62 49.90 136.95 C 52.63 125.35 55.04 113.67 57.22 101.95 C 57.89 99.52 54.63 99.85 53.17 99.23 Z" />
<path fill="#55c4f2" opacity="1.00" d=" M 152.13 39.12 C 159.31 36.00 167.59 35.65 175.06 37.97 C 174.54 38.02 173.50 38.13 172.98 38.19 C 177.12 40.84 181.87 43.15 184.32 47.65 C 188.68 54.50 189.08 63.22 186.87 70.88 C 183.90 80.00 178.38 88.03 172.43 95.47 C 164.96 105.04 158.14 115.57 155.58 127.61 C 153.96 133.57 154.66 140.02 152.01 145.71 C 150.51 140.87 150.15 135.79 149.01 130.87 C 154.39 113.04 166.32 98.40 175.79 82.68 C 175.55 84.25 175.38 85.84 175.24 87.43 C 179.30 84.48 180.99 79.58 183.12 75.26 C 185.93 69.37 187.55 62.86 186.85 56.30 C 186.19 56.24 184.87 56.13 184.22 56.07 C 184.72 64.03 185.21 74.08 177.90 79.27 C 181.63 72.15 185.53 63.68 182.15 55.66 C 179.34 50.04 175.15 44.23 168.82 42.43 C 164.42 41.00 159.90 42.63 155.59 43.60 C 149.14 42.50 144.44 47.69 139.04 50.15 C 139.06 49.49 139.11 48.18 139.14 47.52 C 141.60 44.45 145.09 42.50 148.38 40.46 L 148.46 40.54 C 148.91 41.05 149.81 42.06 150.25 42.57 C 157.19 40.72 164.67 38.90 171.70 41.34 C 176.43 42.83 179.50 46.95 183.18 50.00 C 180.46 45.24 176.45 40.62 170.91 39.29 C 164.76 37.55 158.37 38.90 152.13 39.12 Z" />
<path fill="#55c4f2" opacity="1.00" d=" M 93.53 83.77 C 96.73 78.83 99.91 73.50 104.94 70.21 C 107.30 71.20 108.64 73.74 110.34 75.58 C 110.11 78.13 109.90 80.68 109.71 83.23 C 108.22 81.86 106.68 80.53 105.15 79.21 C 101.30 83.42 98.89 88.63 96.17 93.59 C 93.89 90.98 91.79 88.24 89.61 85.55 C 89.52 83.28 89.40 81.01 89.29 78.74 C 90.64 80.47 92.07 82.13 93.53 83.77 Z" />
<path fill="#55c4f2" opacity="1.00" d=" M 97.65 93.94 C 99.52 89.19 101.59 84.04 105.69 80.79 C 109.73 84.85 113.67 89.02 117.44 93.33 C 110.91 94.21 104.24 94.34 97.65 93.94 Z" />
</g>
<g id="#56b8f8ff">
<path fill="#56b8f8" opacity="1.00" d=" M 122.70 25.59 C 130.84 23.83 140.41 23.05 147.15 28.94 C 143.03 34.33 139.69 40.68 139.14 47.52 C 139.11 48.18 139.06 49.49 139.04 50.15 C 144.44 47.69 149.14 42.50 155.59 43.60 C 150.34 45.82 144.64 48.50 141.81 53.75 C 139.19 58.45 141.52 64.28 138.90 68.98 C 137.12 72.22 138.53 76.04 138.51 79.52 C 135.08 76.28 131.83 72.83 129.06 68.99 C 132.20 68.60 135.33 68.14 138.43 67.47 C 128.79 67.05 119.15 68.57 109.51 67.86 C 101.69 65.98 93.62 67.80 85.75 66.42 C 103.16 65.89 120.72 66.62 137.98 63.98 C 137.77 62.81 137.57 61.65 137.37 60.48 C 127.93 61.23 118.49 61.94 109.03 62.21 C 109.11 57.14 108.96 52.06 108.99 46.99 C 108.98 40.52 111.23 34.38 112.58 28.13 C 107.92 28.18 103.21 28.23 98.65 27.14 C 106.69 27.30 114.81 27.38 122.70 25.59 Z" />
<path fill="#56b8f8" opacity="1.00" d=" M 116.82 83.37 C 120.03 78.60 122.96 73.47 127.63 69.95 C 131.56 73.43 134.17 78.26 138.73 81.03 C 139.28 84.89 139.78 88.77 140.43 92.63 C 135.56 87.77 131.12 82.52 127.00 77.01 C 123.70 81.95 121.92 87.64 119.70 93.09 C 116.15 90.02 113.11 86.44 109.71 83.23 C 109.90 80.68 110.11 78.13 110.34 75.58 C 112.44 78.22 114.62 80.80 116.82 83.37 Z" />
<path fill="#56b8f8" opacity="1.00" d=" M 126.52 79.90 C 130.61 84.09 135.67 87.75 137.74 93.45 C 138.48 93.56 139.94 93.79 140.68 93.91 C 140.77 94.39 140.95 95.35 141.04 95.84 C 139.79 95.92 138.54 96.01 137.29 96.10 C 137.59 97.32 137.90 98.53 138.20 99.74 C 139.09 99.74 140.87 99.75 141.76 99.75 C 143.94 110.17 146.16 120.61 149.01 130.87 C 150.15 135.79 150.51 140.87 152.01 145.71 C 152.20 146.47 152.39 147.24 152.56 148.01 C 154.09 155.55 155.34 163.15 156.07 170.81 C 156.33 174.58 156.38 178.82 153.87 181.92 C 150.57 186.20 144.91 187.44 139.88 188.38 C 125.35 190.75 110.65 192.15 95.94 192.59 C 81.10 191.96 66.26 190.61 51.61 188.07 C 46.02 186.97 39.40 184.67 37.66 178.56 C 36.35 173.22 37.31 167.58 38.26 162.24 C 41.04 170.01 44.27 179.31 52.88 182.24 C 67.58 187.09 83.42 184.97 98.34 182.33 C 107.24 180.13 117.01 177.40 122.76 169.70 C 126.91 164.39 126.53 157.12 125.21 150.88 C 121.81 134.54 118.42 118.17 113.56 102.20 C 106.90 101.83 100.24 102.36 93.58 101.98 C 88.97 101.72 84.36 101.81 79.75 101.83 C 78.69 100.99 76.05 100.80 76.59 99.00 C 76.34 97.32 78.68 97.62 79.65 96.94 C 79.74 98.28 79.83 99.62 79.91 100.96 C 98.93 101.57 118.04 101.77 136.98 99.87 C 136.61 98.65 136.23 97.44 135.86 96.22 C 124.22 96.78 112.59 97.70 100.93 97.51 C 93.84 97.30 86.69 98.06 79.65 96.94 C 79.62 96.47 79.57 95.54 79.54 95.08 C 87.36 94.63 95.17 95.40 102.99 95.26 C 111.68 95.30 120.35 95.00 129.03 94.60 C 131.51 94.52 133.94 93.97 136.32 93.31 C 131.22 92.58 126.12 93.44 121.03 93.82 C 122.49 89.04 124.41 84.42 126.52 79.90 M 138.84 108.06 C 142.49 125.33 146.96 142.47 149.03 160.04 C 149.52 165.01 150.52 170.01 150.09 175.02 C 149.84 178.19 147.74 180.70 146.02 183.22 C 150.13 181.99 153.53 178.38 153.79 173.99 C 154.24 167.86 153.39 161.71 152.39 155.67 C 149.54 139.75 144.73 124.28 140.44 108.71 C 139.71 105.86 138.99 102.99 137.79 100.29 C 137.17 102.92 138.37 105.50 138.84 108.06 Z" />
</g>
<g id="#7eddf5ff">
<path fill="#7eddf5" opacity="1.00" d=" M 62.69 26.04 C 66.46 27.01 70.13 28.40 74.00 28.95 C 77.57 29.61 81.30 29.86 84.66 31.34 C 86.80 33.68 82.73 34.64 80.94 34.81 C 73.98 34.99 67.38 30.91 62.69 26.04 Z" />
</g>
<g id="#81d4f5ff">
<path fill="#81d4f5" opacity="1.00" d=" M 152.13 39.12 C 158.37 38.90 164.76 37.55 170.91 39.29 C 176.45 40.62 180.46 45.24 183.18 50.00 C 179.50 46.95 176.43 42.83 171.70 41.34 C 164.67 38.90 157.19 40.72 150.25 42.57 C 149.81 42.06 148.91 41.05 148.46 40.54 C 149.64 39.99 150.82 39.33 152.13 39.12 Z" />
</g>
<g id="#52adf5ff">
<path fill="#52adf5" opacity="1.00" d=" M 172.98 38.19 C 173.50 38.13 174.54 38.02 175.06 37.97 C 182.12 39.82 188.18 45.27 190.74 52.12 C 193.65 59.39 192.70 67.67 189.72 74.76 C 184.60 87.13 174.90 96.71 167.95 107.97 C 162.99 115.52 160.01 124.28 158.83 133.22 C 158.29 136.82 158.62 140.67 157.09 144.05 C 156.27 146.01 154.20 146.88 152.56 148.01 C 152.39 147.24 152.20 146.47 152.01 145.71 C 154.66 140.02 153.96 133.57 155.58 127.61 C 158.14 115.57 164.96 105.04 172.43 95.47 C 178.38 88.03 183.90 80.00 186.87 70.88 C 189.08 63.22 188.68 54.50 184.32 47.65 C 181.87 43.15 177.12 40.84 172.98 38.19 Z" />
</g>
<g id="#81d4f4ff">
<path fill="#81d4f4" opacity="1.00" d=" M 184.22 56.07 C 184.87 56.13 186.19 56.24 186.85 56.30 C 187.55 62.86 185.93 69.37 183.12 75.26 C 180.99 79.58 179.30 84.48 175.24 87.43 C 175.38 85.84 175.55 84.25 175.79 82.68 C 176.46 81.52 177.17 80.39 177.90 79.27 C 185.21 74.08 184.72 64.03 184.22 56.07 Z" />
</g>
<g id="#2da0f8ff">
<path fill="#2da0f8" opacity="1.00" d=" M 55.75 65.17 C 55.90 63.97 54.84 61.17 57.04 61.46 C 62.36 61.49 67.68 61.88 72.99 62.24 C 72.64 63.41 72.30 64.59 71.95 65.76 C 66.54 65.82 61.13 65.69 55.75 65.17 Z" />
<path fill="#2da0f8" opacity="1.00" d=" M 109.51 67.86 C 119.15 68.57 128.79 67.05 138.43 67.47 C 135.33 68.14 132.20 68.60 129.06 68.99 C 131.83 72.83 135.08 76.28 138.51 79.52 C 138.57 79.90 138.67 80.65 138.73 81.03 C 134.17 78.26 131.56 73.43 127.63 69.95 C 122.96 73.47 120.03 78.60 116.82 83.37 C 114.62 80.80 112.44 78.22 110.34 75.58 C 108.64 73.74 107.30 71.20 104.94 70.21 C 99.91 73.50 96.73 78.83 93.53 83.77 C 92.07 82.13 90.64 80.47 89.29 78.74 C 86.79 75.33 83.96 72.19 80.83 69.36 C 80.43 69.75 79.62 70.53 79.21 70.92 C 75.84 74.51 74.09 79.20 71.61 83.38 C 71.89 82.55 72.19 81.73 72.51 80.92 C 74.20 77.15 76.48 73.68 78.95 70.37 C 76.70 70.09 74.46 69.79 72.22 69.46 C 70.11 69.22 67.98 69.26 65.85 69.27 C 67.22 72.43 69.14 75.28 71.31 77.94 L 71.30 78.04 C 71.21 78.58 71.04 79.64 70.95 80.17 C 68.96 77.06 67.03 73.92 64.96 70.86 C 63.94 71.51 62.91 72.17 61.89 72.82 C 62.52 71.58 63.16 70.33 63.79 69.09 C 61.09 68.92 58.39 68.72 55.71 68.40 C 60.94 67.48 66.23 68.49 71.49 68.24 C 74.57 68.04 77.65 68.02 80.73 68.26 C 90.31 68.54 99.95 68.77 109.51 67.86 M 106.97 69.42 C 110.13 73.32 113.52 77.03 116.65 80.95 C 119.13 76.67 122.48 73.03 125.51 69.15 C 119.32 68.91 113.15 69.53 106.97 69.42 M 83.33 69.67 C 86.59 73.63 89.91 77.60 93.60 81.17 C 96.07 77.00 99.39 73.46 102.48 69.76 C 96.10 69.39 89.71 69.50 83.33 69.67 Z" />
<path fill="#2da0f8" opacity="1.00" d=" M 127.00 77.01 C 131.12 82.52 135.56 87.77 140.43 92.63 C 140.49 92.95 140.62 93.59 140.68 93.91 C 139.94 93.79 138.48 93.56 137.74 93.45 C 135.67 87.75 130.61 84.09 126.52 79.90 C 124.41 84.42 122.49 89.04 121.03 93.82 C 126.12 93.44 131.22 92.58 136.32 93.31 C 133.94 93.97 131.51 94.52 129.03 94.60 C 120.35 95.00 111.68 95.30 102.99 95.26 C 95.17 95.40 87.36 94.63 79.54 95.08 C 79.53 94.75 79.50 94.11 79.49 93.79 C 84.46 93.90 89.42 93.96 94.39 93.71 C 91.40 89.23 87.58 85.37 84.69 80.81 C 86.42 82.29 88.11 83.83 89.61 85.55 C 91.79 88.24 93.89 90.98 96.17 93.59 C 98.89 88.63 101.30 83.42 105.15 79.21 C 106.68 80.53 108.22 81.86 109.71 83.23 C 113.11 86.44 116.15 90.02 119.70 93.09 C 121.92 87.64 123.70 81.95 127.00 77.01 M 97.65 93.94 C 104.24 94.34 110.91 94.21 117.44 93.33 C 113.67 89.02 109.73 84.85 105.69 80.79 C 101.59 84.04 99.52 89.19 97.65 93.94 Z" />
</g>
<g id="#2e9ff9ff">
<path fill="#2e9ff9" opacity="1.00" d=" M 109.03 62.21 C 118.49 61.94 127.93 61.23 137.37 60.48 C 137.57 61.65 137.77 62.81 137.98 63.98 C 120.72 66.62 103.16 65.89 85.75 66.42 C 83.82 66.25 81.90 66.04 79.98 65.85 C 79.99 64.68 79.99 63.52 80.00 62.36 C 89.67 62.38 99.35 62.55 109.03 62.21 Z" />
<path fill="#2e9ff9" opacity="1.00" d=" M 58.04 96.18 C 61.99 96.35 65.93 96.65 69.85 97.11 C 69.93 98.47 70.02 99.84 70.12 101.20 C 68.09 100.87 66.04 100.64 63.99 100.50 C 61.91 100.35 59.84 100.19 57.77 100.01 C 57.87 98.73 57.96 97.45 58.04 96.18 Z" />
</g>
<g id="#7edaf7ff">
<path fill="#7edaf7" opacity="1.00" d=" M 73.18 65.79 C 75.87 66.03 79.12 65.52 80.73 68.26 C 77.65 68.02 74.57 68.04 71.49 68.24 C 71.91 67.63 72.76 66.40 73.18 65.79 Z" />
</g>
<g id="#54d0f3ff">
<path fill="#54d0f3" opacity="1.00" d=" M 65.85 69.27 C 67.98 69.26 70.11 69.22 72.22 69.46 C 72.06 72.30 71.75 75.13 71.31 77.94 C 69.14 75.28 67.22 72.43 65.85 69.27 Z" />
</g>
<g id="#54b9f8ff">
<path fill="#54b9f8" opacity="1.00" d=" M 106.97 69.42 C 113.15 69.53 119.32 68.91 125.51 69.15 C 122.48 73.03 119.13 76.67 116.65 80.95 C 113.52 77.03 110.13 73.32 106.97 69.42 Z" />
</g>
<g id="#7eddf6ff">
<path fill="#7eddf6" opacity="1.00" d=" M 72.22 69.46 C 74.46 69.79 76.70 70.09 78.95 70.37 C 76.48 73.68 74.20 77.15 72.51 80.92 C 72.21 80.20 71.60 78.76 71.30 78.04 L 71.31 77.94 C 71.75 75.13 72.06 72.30 72.22 69.46 Z" />
</g>
<g id="#57d1f2ff">
<path fill="#57d1f2" opacity="1.00" d=" M 79.21 70.92 C 79.62 70.53 80.43 69.75 80.83 69.36 C 83.96 72.19 86.79 75.33 89.29 78.74 C 89.40 81.01 89.52 83.28 89.61 85.55 C 88.11 83.83 86.42 82.29 84.69 80.81 C 87.58 85.37 91.40 89.23 94.39 93.71 C 89.42 93.96 84.46 93.90 79.49 93.79 C 78.94 86.16 80.06 78.53 79.21 70.92 M 81.26 89.47 C 79.70 90.83 82.21 92.95 83.50 91.54 C 85.01 90.19 82.54 88.11 81.26 89.47 Z" />
</g>
<g id="#55c5f2ff">
<path fill="#55c5f2" opacity="1.00" d=" M 83.33 69.67 C 89.71 69.50 96.10 69.39 102.48 69.76 C 99.39 73.46 96.07 77.00 93.60 81.17 C 89.91 77.60 86.59 73.63 83.33 69.67 M 91.47 72.24 C 90.07 73.54 92.26 75.75 93.59 74.41 C 95.20 73.12 92.82 70.71 91.47 72.24 Z" />
</g>
<g id="#7fdcf4ff">
<path fill="#7fdcf4" opacity="1.00" d=" M 71.61 83.38 C 74.09 79.20 75.84 74.51 79.21 70.92 C 80.06 78.53 78.94 86.16 79.49 93.79 C 79.50 94.11 79.53 94.75 79.54 95.08 C 79.57 95.54 79.62 96.47 79.65 96.94 C 78.68 97.62 76.34 97.32 76.59 99.00 C 76.05 100.80 78.69 100.99 79.75 101.83 C 80.05 119.90 82.80 137.98 80.97 156.05 C 80.44 159.95 78.99 164.36 75.13 166.14 C 71.37 168.33 65.36 167.96 63.62 163.36 C 61.46 156.43 62.92 149.01 63.86 141.97 C 66.54 128.48 67.84 114.75 70.12 101.20 C 72.77 100.03 71.14 97.37 70.63 95.42 C 71.23 94.87 71.82 94.32 72.41 93.78 C 71.08 90.49 70.03 86.79 71.61 83.38 M 72.25 101.25 C 71.37 117.56 70.73 133.98 67.77 150.10 C 67.16 152.96 67.05 155.89 67.20 158.81 C 68.47 159.08 69.88 160.07 71.10 159.09 C 73.24 157.90 73.36 155.10 74.02 153.00 C 76.78 139.18 75.13 124.98 76.20 111.02 C 76.40 107.89 77.10 104.68 76.39 101.57 C 75.28 100.23 73.65 101.06 72.25 101.25 Z" />
</g>
<g id="#37a7f4ff">
<path fill="#37a7f4" opacity="1.00" d=" M 91.47 72.24 C 92.82 70.71 95.20 73.12 93.59 74.41 C 92.26 75.75 90.07 73.54 91.47 72.24 Z" />
</g>
<g id="#70c5f6ff">
<path fill="#70c5f6" opacity="1.00" d=" M 54.25 95.07 C 55.22 90.40 57.16 85.94 59.72 81.92 C 59.15 86.18 59.23 90.52 58.42 94.74 C 57.77 96.20 54.13 97.63 54.25 95.07 Z" />
</g>
<g id="#39a8f4ff">
<path fill="#39a8f4" opacity="1.00" d=" M 61.05 88.16 C 61.79 88.16 63.26 88.17 64.00 88.17 C 63.98 88.85 63.93 90.22 63.90 90.90 C 63.20 90.91 61.81 90.91 61.11 90.91 C 61.09 90.22 61.06 88.85 61.05 88.16 Z" />
</g>
<g id="#36a9f4ff">
<path fill="#36a9f4" opacity="1.00" d=" M 81.26 89.47 C 82.54 88.11 85.01 90.19 83.50 91.54 C 82.21 92.95 79.70 90.83 81.26 89.47 Z" />
</g>
<g id="#2da0f9ff">
<path fill="#2da0f9" opacity="1.00" d=" M 100.93 97.51 C 112.59 97.70 124.22 96.78 135.86 96.22 C 136.23 97.44 136.61 98.65 136.98 99.87 C 118.04 101.77 98.93 101.57 79.91 100.96 C 79.83 99.62 79.74 98.28 79.65 96.94 C 86.69 98.06 93.84 97.30 100.93 97.51 Z" />
</g>
<g id="#30a3f6ff">
<path fill="#30a3f6" opacity="1.00" d=" M 137.29 96.10 C 138.54 96.01 139.79 95.92 141.04 95.84 C 141.28 97.14 141.52 98.44 141.76 99.75 C 140.87 99.75 139.09 99.74 138.20 99.74 C 137.90 98.53 137.59 97.32 137.29 96.10 Z" />
</g>
<g id="#80d3f8ff">
<path fill="#80d3f8" opacity="1.00" d=" M 53.17 99.23 C 54.63 99.85 57.89 99.52 57.22 101.95 C 55.04 113.67 52.63 125.35 49.90 136.95 C 47.46 148.62 46.41 161.59 52.51 172.37 C 54.30 176.43 57.77 179.22 61.14 181.93 C 53.05 181.20 45.88 174.96 44.01 167.06 C 41.51 157.47 44.65 147.75 46.48 138.35 C 49.64 125.48 49.60 111.99 53.17 99.23 Z" />
</g>
<g id="#56d2f1ff">
<path fill="#56d2f1" opacity="1.00" d=" M 63.99 100.50 C 66.04 100.64 68.09 100.87 70.12 101.20 C 67.84 114.75 66.54 128.48 63.86 141.97 C 62.92 149.01 61.46 156.43 63.62 163.36 C 65.36 167.96 71.37 168.33 75.13 166.14 C 78.99 164.36 80.44 159.95 80.97 156.05 C 82.80 137.98 80.05 119.90 79.75 101.83 C 84.36 101.81 88.97 101.72 93.58 101.98 C 92.92 108.15 95.40 113.99 96.12 120.03 C 98.29 134.11 101.15 148.34 99.56 162.63 C 98.54 167.29 93.65 169.66 89.37 170.47 C 82.96 171.40 76.36 171.34 69.99 170.13 C 62.48 168.68 54.60 163.34 53.60 155.22 C 51.67 146.20 56.29 137.67 58.20 129.07 C 60.27 119.57 62.66 110.13 63.99 100.50 Z" />
</g>
<g id="#a0e6f7ff">
<path fill="#a0e6f7" opacity="1.00" d=" M 72.25 101.25 C 73.65 101.06 75.28 100.23 76.39 101.57 C 77.10 104.68 76.40 107.89 76.20 111.02 C 75.13 124.98 76.78 139.18 74.02 153.00 C 73.36 155.10 73.24 157.90 71.10 159.09 C 69.88 160.07 68.47 159.08 67.20 158.81 C 67.05 155.89 67.16 152.96 67.77 150.10 C 70.73 133.98 71.37 117.56 72.25 101.25 Z" />
</g>
<g id="#80ccf9ff">
<path fill="#80ccf9" opacity="1.00" d=" M 138.84 108.06 C 138.37 105.50 137.17 102.92 137.79 100.29 C 138.99 102.99 139.71 105.86 140.44 108.71 C 144.73 124.28 149.54 139.75 152.39 155.67 C 153.39 161.71 154.24 167.86 153.79 173.99 C 153.53 178.38 150.13 181.99 146.02 183.22 C 147.74 180.70 149.84 178.19 150.09 175.02 C 150.52 170.01 149.52 165.01 149.03 160.04 C 146.96 142.47 142.49 125.33 138.84 108.06 Z" />
</g>
</svg>
