<?xml version="1.0" encoding="UTF-8" ?>
<!DOCTYPE svg PUBLIC "-//W3C//DTD SVG 1.1//EN" "http://www.w3.org/Graphics/SVG/1.1/DTD/svg11.dtd">
<svg width="200pt" height="200pt" viewBox="0 0 200 200" version="1.1" xmlns="http://www.w3.org/2000/svg">
<g id="#322e30f5">
<path fill="#322e30" opacity="0.96" d=" M 49.39 15.62 C 80.61 13.00 111.81 10.20 143.04 7.82 C 143.19 10.41 143.47 12.98 143.67 15.57 C 144.13 21.20 144.27 27.64 139.94 31.93 C 134.84 37.70 126.51 36.65 119.64 37.85 C 115.83 38.13 112.02 38.38 108.22 38.73 C 108.39 39.27 108.71 40.35 108.88 40.89 C 108.27 40.84 107.04 40.73 106.43 40.67 C 106.00 40.20 105.14 39.26 104.72 38.79 C 97.40 39.39 90.08 39.92 82.78 40.73 C 80.77 40.84 78.76 40.99 76.75 41.17 C 75.27 41.29 73.80 41.42 72.32 41.56 C 72.68 45.71 73.11 49.86 73.46 54.01 C 75.74 53.86 78.02 53.68 80.30 53.52 C 89.85 53.27 99.41 53.46 108.96 53.23 C 109.17 52.66 109.59 51.53 109.79 50.96 C 122.54 49.95 135.27 48.59 148.03 47.85 C 156.47 47.21 164.41 53.95 165.60 62.25 C 171.15 91.78 176.43 121.35 181.95 150.88 C 182.84 155.12 183.67 159.55 182.66 163.84 C 181.04 170.05 175.64 175.28 169.27 176.33 C 154.74 177.52 140.19 178.64 125.67 179.96 C 97.82 182.76 69.88 184.75 42.00 187.21 C 36.67 187.62 30.91 188.66 25.97 186.02 C 22.34 184.45 19.44 181.48 18.10 177.74 C 19.58 178.65 21.09 179.48 22.60 180.33 C 25.39 182.39 28.29 184.85 31.97 184.85 C 39.63 185.07 47.23 183.83 54.86 183.37 C 64.70 182.36 74.61 181.99 84.42 180.69 C 107.41 179.06 130.37 177.00 153.35 175.09 C 159.97 174.35 166.89 174.81 173.14 172.14 C 176.08 170.05 178.67 167.27 179.75 163.77 C 181.12 160.06 180.03 156.12 179.39 152.39 C 174.77 128.23 170.70 103.96 165.86 79.84 C 165.21 74.20 165.12 68.39 163.15 62.99 C 161.69 56.00 155.47 50.07 148.07 50.51 C 126.96 52.18 105.86 53.99 84.77 55.88 C 68.93 57.06 53.13 58.58 37.28 59.68 C 30.92 59.75 23.83 62.39 21.35 68.74 C 19.39 73.34 20.49 78.46 20.13 83.29 C 18.89 94.92 17.78 106.56 16.96 118.22 C 17.15 106.80 16.56 95.37 17.07 83.96 C 18.15 77.89 15.96 71.09 19.69 65.66 C 23.73 59.87 30.74 55.57 37.97 56.12 C 48.90 56.68 59.77 55.04 70.64 54.11 C 70.22 50.07 69.96 46.00 69.66 41.94 C 62.46 42.63 55.25 43.15 48.05 43.82 C 43.29 44.32 38.37 42.34 35.27 38.70 C 29.67 33.11 31.46 24.51 30.24 17.39 C 33.20 16.95 36.20 16.69 39.14 16.14 C 39.19 16.87 39.30 18.34 39.35 19.08 C 37.33 19.33 35.31 19.54 33.29 19.75 C 34.00 25.48 33.08 32.14 37.20 36.79 C 39.80 39.92 43.94 41.30 47.93 40.88 C 58.74 40.31 69.51 39.13 80.29 38.16 C 96.20 37.03 112.08 35.45 127.99 34.25 C 132.40 34.08 137.01 32.34 139.34 28.38 C 141.89 24.70 141.37 20.04 140.91 15.84 C 140.74 14.21 140.60 12.58 140.46 10.95 C 121.51 12.01 102.61 13.91 83.70 15.52 C 72.56 15.72 61.41 15.60 50.26 15.63 L 49.39 15.62 Z" />
<path fill="#322e30" opacity="0.96" d=" M 52.64 86.94 C 57.44 86.75 62.23 86.46 67.00 85.92 C 68.24 93.29 68.43 100.78 69.25 108.20 C 69.31 108.96 69.42 110.47 69.48 111.22 C 73.09 107.25 76.77 103.34 80.30 99.30 C 86.54 99.50 92.70 98.19 98.94 98.21 C 93.71 103.93 88.28 109.46 82.88 115.01 C 85.71 118.23 88.74 121.26 91.64 124.41 C 95.38 127.81 97.95 133.50 103.43 134.15 C 100.54 130.82 96.85 127.94 95.36 123.63 C 92.70 116.87 94.08 109.09 98.03 103.13 C 101.80 98.99 107.18 95.88 112.94 96.25 C 120.01 96.85 127.00 95.30 134.06 95.46 C 134.80 107.00 136.30 118.49 136.82 130.04 C 137.13 136.77 133.93 143.72 127.85 146.96 C 120.01 149.87 110.64 151.11 103.01 146.99 C 98.88 144.89 97.02 140.43 95.46 136.34 C 91.72 136.62 87.97 137.62 84.21 137.18 C 79.64 133.51 77.10 127.62 71.78 124.88 C 71.27 124.61 70.26 124.08 69.76 123.81 C 70.84 122.83 71.93 121.87 73.01 120.90 C 77.22 125.45 81.15 130.24 85.39 134.75 C 88.57 134.52 91.75 134.28 94.92 133.93 C 95.25 133.75 95.91 133.40 96.24 133.22 C 95.90 132.97 95.20 132.47 94.85 132.22 C 89.76 126.35 84.52 120.62 79.16 115.01 C 83.46 110.50 88.01 106.22 92.00 101.42 C 88.48 101.55 84.87 101.44 81.45 102.40 C 76.31 107.11 72.02 112.67 67.35 117.84 C 66.55 108.12 65.81 98.40 64.86 88.70 C 61.72 88.95 58.59 89.25 55.45 89.54 C 56.91 105.28 58.24 121.04 59.54 136.80 C 62.37 136.65 65.21 136.47 68.05 136.47 C 64.69 138.41 60.59 137.10 56.91 137.39 C 56.03 123.41 54.54 109.47 53.41 95.50 C 53.23 92.64 52.92 89.79 52.64 86.94 M 101.50 103.50 C 94.96 110.11 94.88 121.89 101.54 128.46 C 107.84 134.74 119.22 134.21 125.07 127.56 C 124.91 131.15 125.40 135.70 122.06 138.09 C 118.53 140.82 113.78 139.46 109.71 139.35 C 109.51 138.95 109.12 138.15 108.92 137.75 C 108.80 137.41 108.57 136.72 108.46 136.37 C 105.21 135.79 101.90 136.48 98.64 136.59 C 99.64 142.09 104.57 146.16 110.03 146.71 C 116.68 147.29 124.14 146.94 129.51 142.48 C 132.88 139.71 133.84 135.15 133.68 130.98 C 133.96 120.17 132.53 109.42 131.65 98.66 C 128.63 98.66 125.60 98.72 122.58 98.82 C 122.62 99.57 122.69 101.07 122.72 101.82 C 116.62 96.59 106.93 97.98 101.50 103.50 M 110.59 135.74 C 114.19 138.53 120.24 137.73 122.43 133.55 C 118.57 134.75 114.60 135.38 110.59 135.74 Z" />
<path fill="#322e30" opacity="0.96" d=" M 107.32 110.32 C 110.15 104.57 120.04 104.09 122.75 110.24 C 124.35 114.17 124.69 119.36 121.79 122.78 C 120.24 124.28 118.05 124.79 116.11 125.58 C 118.24 122.40 118.99 118.64 118.32 114.87 C 118.58 117.30 118.59 119.75 118.77 122.19 C 122.31 118.86 122.41 112.50 118.66 109.33 C 115.68 107.19 111.83 108.87 109.47 111.14 C 107.65 113.40 106.64 116.17 106.37 119.05 C 106.40 116.14 105.86 113.00 107.32 110.32 Z" />
</g>
<g id="#fffdffff">
<path fill="#fffdff" opacity="1.00" d=" M 83.70 15.52 C 102.61 13.91 121.51 12.01 140.46 10.95 C 140.60 12.58 140.74 14.21 140.91 15.84 C 121.84 15.63 102.77 16.15 83.70 15.52 Z" />
<path fill="#fffdff" opacity="1.00" d=" M 33.29 19.75 C 35.31 19.54 37.33 19.33 39.35 19.08 C 39.57 22.03 39.49 25.00 39.90 27.94 C 40.67 33.29 45.63 37.68 51.05 37.75 C 60.79 38.17 70.56 37.33 80.29 38.16 C 69.51 39.13 58.74 40.31 47.93 40.88 C 43.94 41.30 39.80 39.92 37.20 36.79 C 33.08 32.14 34.00 25.48 33.29 19.75 Z" />
<path fill="#fffdff" opacity="1.00" d=" M 82.78 40.73 C 90.08 39.92 97.40 39.39 104.72 38.79 C 105.14 39.26 106.00 40.20 106.43 40.67 C 98.55 41.00 90.66 40.79 82.78 40.73 Z" />
<path fill="#fffdff" opacity="1.00" d=" M 72.32 41.56 C 73.80 41.42 75.27 41.29 76.75 41.17 C 76.62 45.15 76.64 49.13 76.76 53.11 C 77.65 53.21 79.42 53.42 80.30 53.52 C 78.02 53.68 75.74 53.86 73.46 54.01 C 73.11 49.86 72.68 45.71 72.32 41.56 Z" />
<path fill="#fffdff" opacity="1.00" d=" M 84.77 55.88 C 105.86 53.99 126.96 52.18 148.07 50.51 C 155.47 50.07 161.69 56.00 163.15 62.99 C 160.92 60.82 158.63 58.56 155.72 57.31 C 152.99 56.15 149.95 56.26 147.04 56.20 C 129.36 56.29 111.69 56.16 94.01 56.30 C 90.92 56.33 87.84 56.11 84.77 55.88 Z" />
<path fill="#fffdff" opacity="1.00" d=" M 21.35 68.74 C 21.59 73.63 20.98 78.49 20.13 83.29 C 20.49 78.46 19.39 73.34 21.35 68.74 Z" />
<path fill="#fffdff" opacity="1.00" d=" M 165.86 79.84 C 170.70 103.96 174.77 128.23 179.39 152.39 C 180.03 156.12 181.12 160.06 179.75 163.77 C 178.67 167.27 176.08 170.05 173.14 172.14 C 174.47 163.16 172.49 154.19 171.88 145.25 C 169.93 123.44 167.30 101.69 165.86 79.84 Z" />
<path fill="#fffdff" opacity="1.00" d=" M 52.86 84.24 C 57.82 84.28 62.78 84.24 67.74 84.27 C 67.77 84.66 67.85 85.44 67.88 85.83 L 67.00 85.92 C 62.23 86.46 57.44 86.75 52.64 86.94 C 52.70 86.27 52.80 84.92 52.86 84.24 Z" />
<path fill="#fffdff" opacity="1.00" d=" M 55.45 89.54 C 58.59 89.25 61.72 88.95 64.86 88.70 C 65.81 98.40 66.55 108.12 67.35 117.84 C 72.02 112.67 76.31 107.11 81.45 102.40 C 84.87 101.44 88.48 101.55 92.00 101.42 C 88.01 106.22 83.46 110.50 79.16 115.01 C 84.52 120.62 89.76 126.35 94.85 132.22 C 94.87 132.65 94.90 133.50 94.92 133.93 C 91.75 134.28 88.57 134.52 85.39 134.75 C 81.15 130.24 77.22 125.45 73.01 120.90 C 71.93 121.87 70.84 122.83 69.76 123.81 C 66.00 126.79 68.19 132.36 68.05 136.47 C 65.21 136.47 62.37 136.65 59.54 136.80 C 58.24 121.04 56.91 105.28 55.45 89.54 Z" />
<path fill="#fffdff" opacity="1.00" d=" M 53.41 95.50 C 54.54 109.47 56.03 123.41 56.91 137.39 C 55.51 137.41 54.11 137.43 52.70 137.44 C 52.54 126.62 52.73 115.81 52.61 105.00 C 52.60 101.82 52.38 98.56 53.41 95.50 Z" />
<path fill="#fffdff" opacity="1.00" d=" M 69.25 108.20 C 73.07 105.43 75.57 100.55 80.30 99.30 C 76.77 103.34 73.09 107.25 69.48 111.22 C 69.42 110.47 69.31 108.96 69.25 108.20 Z" />
<path fill="#fffdff" opacity="1.00" d=" M 101.50 103.50 C 106.93 97.98 116.62 96.59 122.72 101.82 C 122.69 101.07 122.62 99.57 122.58 98.82 C 125.60 98.72 128.63 98.66 131.65 98.66 C 132.53 109.42 133.96 120.17 133.68 130.98 C 133.84 135.15 132.88 139.71 129.51 142.48 C 124.14 146.94 116.68 147.29 110.03 146.71 C 104.57 146.16 99.64 142.09 98.64 136.59 C 101.90 136.48 105.21 135.79 108.46 136.37 C 108.57 136.72 108.80 137.41 108.92 137.75 C 107.92 138.84 108.18 139.38 109.71 139.35 C 113.78 139.46 118.53 140.82 122.06 138.09 C 125.40 135.70 124.91 131.15 125.07 127.56 C 119.22 134.21 107.84 134.74 101.54 128.46 C 94.88 121.89 94.96 110.11 101.50 103.50 M 107.32 110.32 C 105.86 113.00 106.40 116.14 106.37 119.05 C 106.87 121.05 107.64 123.37 109.64 124.32 C 111.72 125.07 113.94 125.24 116.11 125.58 C 118.05 124.79 120.24 124.28 121.79 122.78 C 124.69 119.36 124.35 114.17 122.75 110.24 C 120.04 104.09 110.15 104.57 107.32 110.32 Z" />
<path fill="#fffdff" opacity="1.00" d=" M 91.64 124.41 C 90.48 116.84 91.82 108.26 98.03 103.13 C 94.08 109.09 92.70 116.87 95.36 123.63 C 96.85 127.94 100.54 130.82 103.43 134.15 C 97.95 133.50 95.38 127.81 91.64 124.41 Z" />
<path fill="#fffdff" opacity="1.00" d=" M 109.47 111.14 C 111.83 108.87 115.68 107.19 118.66 109.33 C 122.41 112.50 122.31 118.86 118.77 122.19 C 118.59 119.75 118.58 117.30 118.32 114.87 C 117.33 110.84 112.66 111.38 109.47 111.14 Z" />
<path fill="#fffdff" opacity="1.00" d=" M 71.78 124.88 C 77.10 127.62 79.64 133.51 84.21 137.18 C 87.97 137.62 91.72 136.62 95.46 136.34 C 97.02 140.43 98.88 144.89 103.01 146.99 C 110.64 151.11 120.01 149.87 127.85 146.96 C 123.77 151.19 117.62 152.22 112.00 152.30 C 106.32 152.33 100.20 151.07 95.98 147.02 C 93.29 144.46 92.21 140.81 91.14 137.38 C 87.49 137.36 83.84 137.37 80.20 137.60 C 77.17 133.54 73.16 129.88 71.78 124.88 Z" />
<path fill="#fffdff" opacity="1.00" d=" M 110.59 135.74 C 114.60 135.38 118.57 134.75 122.43 133.55 C 120.24 137.73 114.19 138.53 110.59 135.74 Z" />
<path fill="#fffdff" opacity="1.00" d=" M 22.60 180.33 C 39.39 180.18 56.19 180.34 72.99 180.23 C 76.80 180.18 80.62 180.33 84.42 180.69 C 74.61 181.99 64.70 182.36 54.86 183.37 C 47.23 183.83 39.63 185.07 31.97 184.85 C 28.29 184.85 25.39 182.39 22.60 180.33 Z" />
</g>
<g id="#ff543fff">
<path fill="#ff543f" opacity="1.00" d=" M 39.14 16.14 C 42.83 15.66 46.56 15.84 50.26 15.63 C 61.41 15.60 72.56 15.72 83.70 15.52 C 102.77 16.15 121.84 15.63 140.91 15.84 C 141.37 20.04 141.89 24.70 139.34 28.38 C 137.01 32.34 132.40 34.08 127.99 34.25 C 112.08 35.45 96.20 37.03 80.29 38.16 C 70.56 37.33 60.79 38.17 51.05 37.75 C 45.63 37.68 40.67 33.29 39.90 27.94 C 39.49 25.00 39.57 22.03 39.35 19.08 C 39.30 18.34 39.19 16.87 39.14 16.14 Z" />
<path fill="#ff543f" opacity="1.00" d=" M 139.94 31.93 C 144.27 27.64 144.13 21.20 143.67 15.57 C 144.41 15.71 145.90 15.98 146.64 16.12 C 146.39 22.60 148.14 30.67 142.21 35.25 C 135.69 39.88 127.09 37.62 119.64 37.85 C 126.51 36.65 134.84 37.70 139.94 31.93 Z" />
<path fill="#ff543f" opacity="1.00" d=" M 76.75 41.17 C 78.76 40.99 80.77 40.84 82.78 40.73 C 90.66 40.79 98.55 41.00 106.43 40.67 C 107.04 40.73 108.27 40.84 108.88 40.89 L 109.69 40.97 C 109.73 44.30 109.70 47.63 109.79 50.96 C 109.59 51.53 109.17 52.66 108.96 53.23 C 99.41 53.46 89.85 53.27 80.30 53.52 C 79.42 53.42 77.65 53.21 76.76 53.11 C 76.64 49.13 76.62 45.15 76.75 41.17 Z" />
<path fill="#ff543f" opacity="1.00" d=" M 37.28 59.68 C 53.13 58.58 68.93 57.06 84.77 55.88 C 87.84 56.11 90.92 56.33 94.01 56.30 C 111.69 56.16 129.36 56.29 147.04 56.20 C 149.95 56.26 152.99 56.15 155.72 57.31 C 158.63 58.56 160.92 60.82 163.15 62.99 C 165.12 68.39 165.21 74.20 165.86 79.84 C 167.30 101.69 169.93 123.44 171.88 145.25 C 172.49 154.19 174.47 163.16 173.14 172.14 C 166.89 174.81 159.97 174.35 153.35 175.09 C 130.37 177.00 107.41 179.06 84.42 180.69 C 80.62 180.33 76.80 180.18 72.99 180.23 C 56.19 180.34 39.39 180.18 22.60 180.33 C 21.09 179.48 19.58 178.65 18.10 177.74 C 16.32 176.17 14.88 174.24 13.74 172.16 C 11.59 168.10 12.51 163.33 13.04 158.99 C 14.27 145.39 15.67 131.81 16.96 118.22 C 17.78 106.56 18.89 94.92 20.13 83.29 C 20.98 78.49 21.59 73.63 21.35 68.74 C 23.83 62.39 30.92 59.75 37.28 59.68 M 52.86 84.24 C 52.80 84.92 52.70 86.27 52.64 86.94 C 52.92 89.79 53.23 92.64 53.41 95.50 C 52.38 98.56 52.60 101.82 52.61 105.00 C 52.73 115.81 52.54 126.62 52.70 137.44 C 54.11 137.43 55.51 137.41 56.91 137.39 C 60.59 137.10 64.69 138.41 68.05 136.47 C 68.19 132.36 66.00 126.79 69.76 123.81 C 70.26 124.08 71.27 124.61 71.78 124.88 C 73.16 129.88 77.17 133.54 80.20 137.60 C 83.84 137.37 87.49 137.36 91.14 137.38 C 92.21 140.81 93.29 144.46 95.98 147.02 C 100.20 151.07 106.32 152.33 112.00 152.30 C 117.62 152.22 123.77 151.19 127.85 146.96 C 133.93 143.72 137.13 136.77 136.82 130.04 C 136.30 118.49 134.80 107.00 134.06 95.46 C 127.00 95.30 120.01 96.85 112.94 96.25 C 107.18 95.88 101.80 98.99 98.03 103.13 C 91.82 108.26 90.48 116.84 91.64 124.41 C 88.74 121.26 85.71 118.23 82.88 115.01 C 88.28 109.46 93.71 103.93 98.94 98.21 C 92.70 98.19 86.54 99.50 80.30 99.30 C 75.57 100.55 73.07 105.43 69.25 108.20 C 68.43 100.78 68.24 93.29 67.00 85.92 L 67.88 85.83 C 67.85 85.44 67.77 84.66 67.74 84.27 C 62.78 84.24 57.82 84.28 52.86 84.24 Z" />
<path fill="#ff543f" opacity="1.00" d=" M 106.37 119.05 C 106.64 116.17 107.65 113.40 109.47 111.14 C 112.66 111.38 117.33 110.84 118.32 114.87 C 118.99 118.64 118.24 122.40 116.11 125.58 C 113.94 125.24 111.72 125.07 109.64 124.32 C 107.64 123.37 106.87 121.05 106.37 119.05 Z" />
<path fill="#ff543f" opacity="1.00" d=" M 94.85 132.22 C 95.20 132.47 95.90 132.97 96.24 133.22 C 95.91 133.40 95.25 133.75 94.92 133.93 C 94.90 133.50 94.87 132.65 94.85 132.22 Z" />
<path fill="#ff543f" opacity="1.00" d=" M 109.71 139.35 C 108.18 139.38 107.92 138.84 108.92 137.75 C 109.12 138.15 109.51 138.95 109.71 139.35 Z" />
<path fill="#ff543f" opacity="1.00" d=" M 125.67 179.96 C 140.19 178.64 154.74 177.52 169.27 176.33 C 166.56 178.95 162.86 180.63 159.04 180.27 C 147.92 180.04 136.78 180.60 125.67 179.96 Z" />
</g>
</svg>
