<?xml version="1.0" encoding="UTF-8" ?>
<!DOCTYPE svg PUBLIC "-//W3C//DTD SVG 1.1//EN" "http://www.w3.org/Graphics/SVG/1.1/DTD/svg11.dtd">
<svg width="200pt" height="200pt" viewBox="0 0 200 200" version="1.1" xmlns="http://www.w3.org/2000/svg">
<g id="#595038de">
<path fill="#595038" opacity="0.87" d=" M 0.00 0.00 L 0.16 0.00 C 0.12 0.05 0.04 0.16 0.00 0.21 L 0.00 0.00 Z" />
<path fill="#595038" opacity="0.87" d=" M 116.01 10.90 C 121.50 9.54 128.09 9.62 132.52 13.60 C 136.47 17.36 138.35 22.65 139.97 27.73 C 145.34 22.79 152.58 19.64 159.94 19.91 C 163.97 20.27 168.77 21.71 170.63 25.58 C 168.34 24.38 166.54 22.30 163.99 21.60 C 157.37 20.10 150.23 21.49 144.63 25.34 C 139.93 28.32 136.17 32.59 133.22 37.28 C 132.71 38.53 131.13 39.63 131.57 41.09 C 135.52 42.78 139.45 44.57 143.05 46.94 L 143.18 47.80 C 137.39 45.14 132.00 41.50 125.77 39.90 C 115.66 35.69 104.86 33.47 94.10 31.66 C 86.72 30.88 79.12 30.47 71.93 32.62 C 68.45 33.09 64.65 33.73 61.74 35.83 C 60.19 36.41 58.59 36.87 57.00 37.34 L 57.18 38.12 C 71.35 38.03 85.42 40.42 99.07 44.12 C 107.47 46.45 115.93 49.11 123.42 53.67 C 127.41 55.96 127.73 60.98 128.70 65.00 C 130.69 76.21 131.63 87.61 131.75 98.99 C 132.95 107.27 132.57 115.66 132.71 124.00 C 132.57 136.04 133.05 148.11 132.08 160.12 C 131.54 168.61 130.84 177.10 129.11 185.46 C 132.12 185.19 134.19 182.32 136.56 180.63 C 144.47 174.58 150.67 166.56 155.29 157.77 L 155.37 159.19 C 150.08 171.41 139.47 180.31 128.86 187.86 C 124.13 191.73 117.56 191.41 111.81 191.39 C 110.67 192.10 109.62 193.13 108.20 193.16 C 87.37 195.70 66.10 192.03 46.70 184.28 C 38.03 180.63 29.46 176.47 21.97 170.72 C 20.08 169.49 19.71 167.06 19.47 164.99 C 18.63 159.00 19.61 152.96 20.08 146.97 C 21.59 137.83 22.25 128.09 26.98 119.92 C 30.08 96.42 33.83 72.90 40.35 50.07 C 41.49 47.17 41.94 43.68 44.48 41.60 C 46.25 39.94 48.71 39.52 50.94 38.80 C 63.36 32.88 77.23 28.50 91.12 30.33 C 91.78 30.37 93.11 30.43 93.77 30.46 C 98.44 21.58 105.98 13.44 116.01 10.90 M 111.52 13.65 C 104.17 17.07 98.19 23.54 94.92 30.90 C 100.66 31.59 106.37 33.42 111.99 34.11 C 115.33 29.22 119.59 25.02 124.46 21.67 C 128.00 19.87 132.02 19.90 135.88 20.46 C 134.39 15.81 130.01 11.67 124.94 11.29 C 120.37 10.79 115.59 11.42 111.52 13.65 M 119.56 26.55 C 117.20 29.09 114.14 31.48 113.03 34.81 C 113.57 34.97 114.65 35.27 115.19 35.42 C 119.63 30.51 123.73 23.53 131.03 22.98 C 134.77 23.37 135.81 27.44 136.87 30.39 C 138.35 30.45 139.42 28.49 138.81 27.19 C 137.97 24.97 137.76 21.67 134.92 21.16 C 129.18 19.32 123.61 22.77 119.56 26.55 M 125.61 25.93 C 127.01 30.61 128.07 35.38 128.84 40.20 C 129.31 40.16 130.25 40.07 130.72 40.03 C 132.21 36.77 134.66 34.10 136.38 31.00 C 135.25 28.19 134.38 24.56 131.04 23.64 C 129.14 24.06 127.01 24.44 125.61 25.93 M 116.64 35.60 C 120.35 36.68 123.99 37.98 127.63 39.28 C 127.04 34.93 126.02 30.63 124.64 26.46 C 121.61 29.15 118.72 32.11 116.64 35.60 M 43.90 43.94 C 41.52 47.99 40.69 52.77 39.34 57.23 C 34.16 78.07 30.52 99.28 27.94 120.59 C 34.48 120.86 41.12 120.56 47.64 121.67 C 67.24 124.57 86.42 129.80 105.86 133.56 C 108.80 134.48 112.41 134.76 114.33 137.50 C 115.90 140.02 116.25 143.09 116.23 146.00 C 116.32 157.00 117.17 168.15 114.93 179.01 C 114.34 182.91 112.82 186.57 111.76 190.36 C 115.88 190.80 120.06 190.20 124.10 189.37 C 127.94 188.65 128.24 184.11 129.03 181.02 C 131.61 165.81 131.83 150.31 131.90 134.92 C 132.08 114.94 131.44 94.95 129.37 75.09 C 128.64 69.65 128.03 64.13 126.30 58.90 C 125.35 55.68 122.20 53.96 119.45 52.47 C 111.73 48.62 103.40 46.15 95.06 44.02 C 91.34 43.18 87.66 42.01 83.81 42.00 L 83.36 41.51 C 73.75 39.63 63.89 38.62 54.09 39.37 C 50.27 39.61 47.02 41.94 43.90 43.94 M 26.97 121.86 C 26.03 123.35 25.52 125.06 24.97 126.72 C 22.65 134.96 21.43 143.45 20.54 151.95 C 20.27 156.92 19.83 161.98 20.75 166.90 C 21.77 170.41 25.53 171.88 28.26 173.86 C 51.96 188.19 80.34 195.26 107.98 192.20 C 110.09 191.98 111.59 190.12 111.93 188.11 C 116.80 173.71 115.94 158.32 115.46 143.38 C 115.16 140.15 113.60 136.43 110.11 135.63 C 96.35 132.50 82.54 129.55 68.78 126.40 C 55.08 123.41 41.05 120.90 26.97 121.86 Z" />
<path fill="#595038" opacity="0.87" d=" M 148.95 52.18 L 149.16 51.34 C 151.56 53.94 152.50 57.44 153.34 60.79 L 152.92 62.24 C 151.62 58.88 150.62 55.39 148.95 52.18 Z" />
</g>
<g id="#d84a40ff">
<path fill="#d84a40" opacity="1.00" d=" M 111.52 13.65 C 115.59 11.42 120.37 10.79 124.94 11.29 C 130.01 11.67 134.39 15.81 135.88 20.46 C 132.02 19.90 128.00 19.87 124.46 21.67 C 121.51 17.15 116.45 15.16 111.52 13.65 Z" />
<path fill="#d84a40" opacity="1.00" d=" M 144.63 25.34 C 150.23 21.49 157.37 20.10 163.99 21.60 C 166.54 22.30 168.34 24.38 170.63 25.58 L 170.65 25.60 L 170.78 26.11 C 171.19 27.44 171.77 28.71 172.34 29.98 C 167.53 28.80 162.56 30.21 158.67 33.15 C 155.12 28.85 149.78 26.94 144.63 25.34 Z" />
</g>
<g id="#f0594eff">
<path fill="#f0594e" opacity="1.00" d=" M 94.92 30.90 C 98.19 23.54 104.17 17.07 111.52 13.65 C 116.45 15.16 121.51 17.15 124.46 21.67 C 119.59 25.02 115.33 29.22 111.99 34.11 C 106.37 33.42 100.66 31.59 94.92 30.90 Z" />
<path fill="#f0594e" opacity="1.00" d=" M 133.22 37.28 C 136.17 32.59 139.93 28.32 144.63 25.34 C 149.78 26.94 155.12 28.85 158.67 33.15 C 153.36 37.11 149.37 42.47 145.75 47.95 C 144.77 47.90 143.87 47.57 143.05 46.94 C 139.45 44.57 135.52 42.78 131.57 41.09 C 131.13 39.63 132.71 38.53 133.22 37.28 Z" />
</g>
<g id="#f47269ff">
<path fill="#f47269" opacity="1.00" d=" M 119.56 26.55 C 123.61 22.77 129.18 19.32 134.92 21.16 C 137.76 21.67 137.97 24.97 138.81 27.19 C 139.42 28.49 138.35 30.45 136.87 30.39 C 135.81 27.44 134.77 23.37 131.03 22.98 C 123.73 23.53 119.63 30.51 115.19 35.42 C 114.65 35.27 113.57 34.97 113.03 34.81 C 114.14 31.48 117.20 29.09 119.56 26.55 Z" />
</g>
<g id="#c44941ff">
<path fill="#c44941" opacity="1.00" d=" M 125.61 25.93 C 127.01 24.44 129.14 24.06 131.04 23.64 C 134.38 24.56 135.25 28.19 136.38 31.00 C 134.66 34.10 132.21 36.77 130.72 40.03 C 130.25 40.07 129.31 40.16 128.84 40.20 C 128.07 35.38 127.01 30.61 125.61 25.93 Z" />
<path fill="#c44941" opacity="1.00" d=" M 162.28 35.94 C 164.20 33.49 169.40 32.71 170.91 36.16 C 173.27 40.82 173.93 46.10 174.79 51.19 C 177.76 72.82 177.23 94.89 173.57 116.41 C 172.14 124.54 170.66 132.75 167.62 140.47 C 166.61 142.69 165.58 145.39 163.04 146.21 C 160.92 146.44 158.63 145.53 157.24 143.92 C 163.11 139.26 165.44 131.74 166.34 124.57 C 167.57 113.41 167.73 102.17 167.77 90.95 C 167.60 72.55 167.59 53.73 162.28 35.94 Z" />
</g>
<g id="#6d433ddb">
<path fill="#6d433d" opacity="0.86" d=" M 170.78 26.11 L 171.65 26.38 C 177.81 36.41 179.06 48.48 180.10 59.94 C 179.27 68.68 181.72 77.39 180.17 86.07 C 180.02 90.05 179.91 94.04 180.10 98.02 C 179.11 110.82 177.58 123.69 173.96 136.05 C 172.20 141.34 170.33 147.17 165.81 150.77 C 163.04 152.90 159.62 151.57 157.00 149.94 C 156.71 153.05 156.58 156.26 155.37 159.19 L 155.29 157.77 C 157.48 142.94 156.63 127.93 157.16 113.02 C 156.29 104.11 157.02 95.12 155.83 86.24 C 155.51 78.18 154.36 70.18 152.92 62.24 L 153.34 60.79 C 157.05 77.58 157.21 94.89 157.90 111.99 C 157.65 122.06 158.20 132.16 157.34 142.20 C 162.84 137.96 164.43 130.49 165.37 123.94 C 167.03 107.36 166.96 90.68 166.54 74.05 C 165.75 61.40 165.21 48.49 161.23 36.36 C 160.04 37.36 158.92 38.47 157.57 39.26 L 157.91 38.03 C 160.57 35.33 163.96 32.49 168.01 32.84 C 171.60 33.41 172.57 37.42 173.54 40.35 C 176.41 51.30 177.13 62.68 177.52 73.96 C 178.19 90.49 176.37 107.03 173.33 123.26 C 172.07 129.40 170.73 135.57 168.32 141.37 C 167.24 143.78 165.83 146.59 163.00 147.24 C 160.85 147.54 158.97 146.22 157.03 145.53 C 156.21 148.71 159.32 150.66 162.06 150.86 C 164.92 151.06 166.90 148.54 168.39 146.45 C 172.30 140.07 174.01 132.66 175.57 125.42 C 179.96 101.94 180.88 77.81 178.58 54.04 C 177.64 46.70 176.54 39.23 173.63 32.37 C 170.53 29.48 165.63 30.27 162.19 32.13 C 155.27 35.92 150.42 42.47 146.25 49.00 C 146.72 49.40 147.65 50.22 148.11 50.62 C 151.26 46.95 153.21 41.66 157.53 39.37 C 154.96 43.48 151.27 46.91 149.16 51.34 L 148.95 52.18 C 147.20 50.50 145.23 49.07 143.18 47.80 L 143.05 46.94 C 143.87 47.57 144.77 47.90 145.75 47.95 C 149.37 42.47 153.36 37.11 158.67 33.15 C 162.56 30.21 167.53 28.80 172.34 29.98 C 171.77 28.71 171.19 27.44 170.78 26.11 M 162.28 35.94 C 167.59 53.73 167.60 72.55 167.77 90.95 C 167.73 102.17 167.57 113.41 166.34 124.57 C 165.44 131.74 163.11 139.26 157.24 143.92 C 158.63 145.53 160.92 146.44 163.04 146.21 C 165.58 145.39 166.61 142.69 167.62 140.47 C 170.66 132.75 172.14 124.54 173.57 116.41 C 177.23 94.89 177.76 72.82 174.79 51.19 C 173.93 46.10 173.27 40.82 170.91 36.16 C 169.40 32.71 164.20 33.49 162.28 35.94 Z" />
</g>
<g id="#4b8638ff">
<path fill="#4b8638" opacity="1.00" d=" M 71.93 32.62 C 79.12 30.47 86.72 30.88 94.10 31.66 C 104.86 33.47 115.66 35.69 125.77 39.90 C 128.29 42.66 132.16 44.45 133.01 48.40 C 113.67 39.96 92.95 34.56 71.93 32.62 Z" />
</g>
<g id="#ff766cff">
<path fill="#ff766c" opacity="1.00" d=" M 162.19 32.13 C 165.63 30.27 170.53 29.48 173.63 32.37 C 176.54 39.23 177.64 46.70 178.58 54.04 C 180.88 77.81 179.96 101.94 175.57 125.42 C 174.01 132.66 172.30 140.07 168.39 146.45 C 166.90 148.54 164.92 151.06 162.06 150.86 C 159.32 150.66 156.21 148.71 157.03 145.53 C 158.97 146.22 160.85 147.54 163.00 147.24 C 165.83 146.59 167.24 143.78 168.32 141.37 C 170.73 135.57 172.07 129.40 173.33 123.26 C 176.37 107.03 178.19 90.49 177.52 73.96 C 177.13 62.68 176.41 51.30 173.54 40.35 C 172.57 37.42 171.60 33.41 168.01 32.84 C 163.96 32.49 160.57 35.33 157.91 38.03 L 157.57 39.26 C 157.56 39.29 157.54 39.34 157.53 39.37 C 153.21 41.66 151.26 46.95 148.11 50.62 C 147.65 50.22 146.72 49.40 146.25 49.00 C 150.42 42.47 155.27 35.92 162.19 32.13 Z" />
</g>
<g id="#00dfffff">
<path fill="#00dfff" opacity="1.00" d=" M 61.74 35.83 C 64.65 33.73 68.45 33.09 71.93 32.62 C 92.95 34.56 113.67 39.96 133.01 48.40 C 142.82 52.44 144.23 64.43 145.83 73.59 C 146.68 83.96 147.67 94.39 147.06 104.82 C 146.49 104.81 145.34 104.79 144.77 104.78 C 145.61 97.57 144.57 90.30 144.33 83.07 C 143.56 75.10 142.57 67.02 139.74 59.46 C 138.53 56.81 137.35 53.72 134.62 52.28 C 129.01 49.14 122.89 47.02 116.82 44.94 C 103.54 40.56 89.87 37.15 75.94 35.69 C 71.22 35.47 66.41 34.89 61.74 35.83 Z" />
</g>
<g id="#4b8538ff">
<path fill="#4b8538" opacity="1.00" d=" M 57.00 37.34 C 58.59 36.87 60.19 36.41 61.74 35.83 C 66.41 34.89 71.22 35.47 75.94 35.69 C 89.87 37.15 103.54 40.56 116.82 44.94 C 122.89 47.02 129.01 49.14 134.62 52.28 C 137.35 53.72 138.53 56.81 139.74 59.46 C 142.57 67.02 143.56 75.10 144.33 83.07 C 144.57 90.30 145.61 97.57 144.77 104.78 C 143.63 105.23 142.50 105.70 141.39 106.21 C 140.96 108.97 141.41 111.76 141.66 114.52 C 143.64 115.04 145.70 114.46 147.69 114.26 C 147.98 116.17 148.32 118.11 148.15 120.05 C 147.23 130.54 145.55 141.23 140.65 150.68 C 138.68 154.53 135.42 157.46 132.08 160.12 C 133.05 148.11 132.57 136.04 132.71 124.00 C 132.57 115.66 132.95 107.27 131.75 98.99 C 131.63 87.61 130.69 76.21 128.70 65.00 C 127.73 60.98 127.41 55.96 123.42 53.67 C 115.93 49.11 107.47 46.45 99.07 44.12 C 85.42 40.42 71.35 38.03 57.18 38.12 L 57.00 37.34 Z" />
</g>
<g id="#69bc50ff">
<path fill="#69bc50" opacity="1.00" d=" M 43.90 43.94 C 47.02 41.94 50.27 39.61 54.09 39.37 C 63.89 38.62 73.75 39.63 83.36 41.51 L 83.81 42.00 C 87.36 46.59 93.12 49.69 95.05 55.37 C 82.52 52.69 69.91 49.92 57.06 49.48 C 54.28 49.55 50.75 49.20 49.14 51.99 C 43.39 60.04 41.70 70.38 42.03 80.08 C 42.49 83.73 42.66 88.79 46.88 90.12 C 57.41 93.92 68.43 96.15 79.36 98.48 C 90.16 100.44 101.08 102.93 112.13 102.03 C 112.05 112.82 110.02 123.60 105.86 133.56 C 86.42 129.80 67.24 124.57 47.64 121.67 C 41.12 120.56 34.48 120.86 27.94 120.59 C 30.52 99.28 34.16 78.07 39.34 57.23 C 40.69 52.77 41.52 47.99 43.90 43.94 M 37.18 80.17 C 35.55 84.94 35.42 90.09 34.90 95.07 C 34.55 101.33 33.40 107.76 35.12 113.91 C 35.48 115.74 37.24 116.71 38.87 117.20 C 51.34 121.63 64.58 123.34 77.71 124.44 C 82.20 124.85 86.94 125.48 91.32 124.25 C 94.58 120.66 95.89 115.67 97.25 111.11 C 97.71 109.43 98.47 106.54 95.98 106.18 C 78.99 100.61 61.23 97.90 44.07 92.97 C 38.78 91.55 39.91 84.75 38.37 80.66 C 38.07 80.53 37.47 80.29 37.18 80.17 Z" />
</g>
<g id="#347525ff">
<path fill="#347525" opacity="1.00" d=" M 125.77 39.90 C 132.00 41.50 137.39 45.14 143.18 47.80 C 145.23 49.07 147.20 50.50 148.95 52.18 C 150.62 55.39 151.62 58.88 152.92 62.24 C 154.36 70.18 155.51 78.18 155.83 86.24 C 157.02 95.12 156.29 104.11 157.16 113.02 C 156.63 127.93 157.48 142.94 155.29 157.77 C 150.67 166.56 144.47 174.58 136.56 180.63 C 134.19 182.32 132.12 185.19 129.11 185.46 C 130.84 177.10 131.54 168.61 132.08 160.12 C 135.42 157.46 138.68 154.53 140.65 150.68 C 145.55 141.23 147.23 130.54 148.15 120.05 C 148.32 118.11 147.98 116.17 147.69 114.26 C 148.93 113.67 150.13 112.99 151.36 112.37 C 151.54 109.97 151.53 107.52 151.02 105.16 C 150.26 105.09 148.72 104.94 147.96 104.86 C 147.90 98.21 148.38 91.52 147.40 84.92 C 146.69 81.15 147.46 77.18 145.83 73.59 C 144.23 64.43 142.82 52.44 133.01 48.40 C 132.16 44.45 128.29 42.66 125.77 39.90 Z" />
</g>
<g id="#51a93bff">
<path fill="#51a93b" opacity="1.00" d=" M 83.81 42.00 C 87.66 42.01 91.34 43.18 95.06 44.02 C 103.40 46.15 111.73 48.62 119.45 52.47 C 122.20 53.96 125.35 55.68 126.30 58.90 C 128.03 64.13 128.64 69.65 129.37 75.09 C 131.44 94.95 132.08 114.94 131.90 134.92 C 131.83 150.31 131.61 165.81 129.03 181.02 C 128.24 184.11 127.94 188.65 124.10 189.37 C 120.06 190.20 115.88 190.80 111.76 190.36 C 112.82 186.57 114.34 182.91 114.93 179.01 C 117.17 168.15 116.32 157.00 116.23 146.00 C 116.25 143.09 115.90 140.02 114.33 137.50 C 112.41 134.76 108.80 134.48 105.86 133.56 C 110.02 123.60 112.05 112.82 112.13 102.03 C 116.26 97.38 117.03 91.00 117.63 85.06 C 118.19 77.67 118.86 69.80 116.33 62.73 C 110.15 58.32 102.17 57.58 95.05 55.37 C 93.12 49.69 87.36 46.59 83.81 42.00 Z" />
</g>
<g id="#716e39ff">
<path fill="#716e39" opacity="1.00" d=" M 49.14 51.99 C 50.75 49.20 54.28 49.55 57.06 49.48 C 69.91 49.92 82.52 52.69 95.05 55.37 C 102.17 57.58 110.15 58.32 116.33 62.73 C 118.86 69.80 118.19 77.67 117.63 85.06 C 117.03 91.00 116.26 97.38 112.13 102.03 C 101.08 102.93 90.16 100.44 79.36 98.48 C 68.43 96.15 57.41 93.92 46.88 90.12 C 42.66 88.79 42.49 83.73 42.03 80.08 C 41.70 70.38 43.39 60.04 49.14 51.99 M 51.35 51.32 C 47.81 54.97 45.97 59.90 44.71 64.74 C 43.13 71.64 42.23 79.04 44.26 85.95 C 44.95 88.57 47.81 89.19 50.04 89.93 C 52.60 90.63 55.09 91.75 57.77 91.91 C 58.09 92.08 58.72 92.43 59.04 92.60 C 69.92 95.41 80.91 97.77 91.99 99.58 C 98.28 100.49 104.67 101.56 111.03 100.81 C 114.09 99.24 114.64 95.39 115.48 92.40 C 117.04 84.25 117.32 75.87 116.51 67.62 C 116.07 65.66 116.23 62.93 113.85 62.23 C 103.02 57.83 91.41 55.75 79.99 53.44 C 72.57 52.28 65.08 50.62 57.56 50.86 C 55.55 50.39 53.30 50.70 51.35 51.32 Z" />
</g>
<g id="#e3ac14ff">
<path fill="#e3ac14" opacity="1.00" d=" M 51.35 51.32 C 53.30 50.70 55.55 50.39 57.56 50.86 C 60.55 52.22 63.86 52.47 67.04 53.13 C 80.83 56.11 94.65 59.22 107.90 64.15 C 109.21 64.65 110.68 65.55 110.77 67.12 C 111.58 73.22 110.39 79.35 109.40 85.35 C 108.49 89.63 107.70 94.26 104.73 97.66 C 99.97 98.62 95.08 98.15 90.30 97.62 C 81.26 96.37 72.27 94.66 63.39 92.56 C 61.55 92.10 59.66 91.96 57.77 91.91 C 55.09 91.75 52.60 90.63 50.04 89.93 C 47.81 89.19 44.95 88.57 44.26 85.95 C 42.23 79.04 43.13 71.64 44.71 64.74 C 45.97 59.90 47.81 54.97 51.35 51.32 M 53.22 56.31 C 48.27 60.14 48.35 67.33 47.75 73.02 C 47.98 77.04 46.56 82.85 51.03 85.03 C 58.07 88.97 66.23 90.15 74.06 91.65 C 81.67 92.70 89.31 94.12 97.02 93.79 C 99.40 93.98 101.10 92.00 101.85 89.96 C 104.39 83.97 106.48 77.52 106.12 70.93 C 106.17 68.88 105.03 66.77 102.96 66.21 C 90.13 61.34 76.56 58.85 63.06 56.70 C 59.82 56.21 56.49 55.75 53.22 56.31 Z" />
<path fill="#e3ac14" opacity="1.00" d=" M 24.97 126.72 C 28.49 125.42 32.28 126.11 35.91 126.38 C 52.89 128.07 70.09 130.41 85.95 137.01 C 93.36 140.30 101.19 144.60 104.74 152.30 C 107.88 158.18 106.98 165.34 104.05 171.10 C 101.24 176.87 95.33 180.51 89.36 182.35 C 77.65 185.50 65.27 184.12 53.62 181.42 C 41.97 178.45 30.57 173.93 20.75 166.90 C 19.83 161.98 20.27 156.92 20.54 151.95 C 21.43 143.45 22.65 134.96 24.97 126.72 M 28.30 131.22 C 26.75 132.47 26.17 134.56 25.46 136.36 C 23.21 143.68 21.56 151.34 21.98 159.05 C 22.03 161.59 23.00 164.39 25.58 165.36 C 38.54 172.29 53.31 176.14 68.03 175.95 C 75.98 175.77 84.77 173.29 89.51 166.42 C 92.81 162.00 94.54 155.64 91.44 150.65 C 87.61 144.30 80.57 140.87 73.91 138.22 C 62.40 133.99 50.21 131.79 38.01 130.85 C 34.80 130.86 31.39 130.14 28.30 131.22 Z" />
</g>
<g id="#d9950cff">
<path fill="#d9950c" opacity="1.00" d=" M 57.56 50.86 C 65.08 50.62 72.57 52.28 79.99 53.44 C 91.41 55.75 103.02 57.83 113.85 62.23 C 116.23 62.93 116.07 65.66 116.51 67.62 C 117.32 75.87 117.04 84.25 115.48 92.40 C 114.64 95.39 114.09 99.24 111.03 100.81 C 104.67 101.56 98.28 100.49 91.99 99.58 C 80.91 97.77 69.92 95.41 59.04 92.60 C 58.72 92.43 58.09 92.08 57.77 91.91 C 59.66 91.96 61.55 92.10 63.39 92.56 C 72.27 94.66 81.26 96.37 90.30 97.62 C 95.08 98.15 99.97 98.62 104.73 97.66 C 107.70 94.26 108.49 89.63 109.40 85.35 C 110.39 79.35 111.58 73.22 110.77 67.12 C 110.68 65.55 109.21 64.65 107.90 64.15 C 94.65 59.22 80.83 56.11 67.04 53.13 C 63.86 52.47 60.55 52.22 57.56 50.86 Z" />
<path fill="#d9950c" opacity="1.00" d=" M 26.97 121.86 C 41.05 120.90 55.08 123.41 68.78 126.40 C 82.54 129.55 96.35 132.50 110.11 135.63 C 113.60 136.43 115.16 140.15 115.46 143.38 C 115.94 158.32 116.80 173.71 111.93 188.11 C 111.59 190.12 110.09 191.98 107.98 192.20 C 80.34 195.26 51.96 188.19 28.26 173.86 C 25.53 171.88 21.77 170.41 20.75 166.90 C 30.57 173.93 41.97 178.45 53.62 181.42 C 65.27 184.12 77.65 185.50 89.36 182.35 C 95.33 180.51 101.24 176.87 104.05 171.10 C 106.98 165.34 107.88 158.18 104.74 152.30 C 101.19 144.60 93.36 140.30 85.95 137.01 C 70.09 130.41 52.89 128.07 35.91 126.38 C 32.28 126.11 28.49 125.42 24.97 126.72 C 25.52 125.06 26.03 123.35 26.97 121.86 Z" />
</g>
<g id="#f1c820ff">
<path fill="#f1c820" opacity="1.00" d=" M 53.22 56.31 C 56.49 55.75 59.82 56.21 63.06 56.70 C 76.56 58.85 90.13 61.34 102.96 66.21 C 105.03 66.77 106.17 68.88 106.12 70.93 C 106.48 77.52 104.39 83.97 101.85 89.96 C 101.10 92.00 99.40 93.98 97.02 93.79 C 89.31 94.12 81.67 92.70 74.06 91.65 C 66.23 90.15 58.07 88.97 51.03 85.03 C 46.56 82.85 47.98 77.04 47.75 73.02 C 48.35 67.33 48.27 60.14 53.22 56.31 Z" />
<path fill="#f1c820" opacity="1.00" d=" M 28.30 131.22 C 31.39 130.14 34.80 130.86 38.01 130.85 C 50.21 131.79 62.40 133.99 73.91 138.22 C 80.57 140.87 87.61 144.30 91.44 150.65 C 94.54 155.64 92.81 162.00 89.51 166.42 C 84.77 173.29 75.98 175.77 68.03 175.95 C 53.31 176.14 38.54 172.29 25.58 165.36 C 23.00 164.39 22.03 161.59 21.98 159.05 C 21.56 151.34 23.21 143.68 25.46 136.36 C 26.17 134.56 26.75 132.47 28.30 131.22 Z" />
</g>
<g id="#242a2987">
<path fill="#242a29" opacity="0.53" d=" M 180.10 59.94 C 181.21 65.91 180.92 71.98 181.01 78.03 C 180.98 84.71 181.15 91.40 180.10 98.02 C 179.91 94.04 180.02 90.05 180.17 86.07 C 181.72 77.39 179.27 68.68 180.10 59.94 Z" />
</g>
<g id="#3a92a5ff">
<path fill="#3a92a5" opacity="1.00" d=" M 145.83 73.59 C 147.46 77.18 146.69 81.15 147.40 84.92 C 148.38 91.52 147.90 98.21 147.96 104.86 L 147.06 104.82 C 147.67 94.39 146.68 83.96 145.83 73.59 Z" />
</g>
<g id="#7acc60ff">
<path fill="#7acc60" opacity="1.00" d=" M 37.18 80.17 C 37.47 80.29 38.07 80.53 38.37 80.66 C 39.91 84.75 38.78 91.55 44.07 92.97 C 61.23 97.90 78.99 100.61 95.98 106.18 C 98.47 106.54 97.71 109.43 97.25 111.11 C 95.89 115.67 94.58 120.66 91.32 124.25 C 86.94 125.48 82.20 124.85 77.71 124.44 C 64.58 123.34 51.34 121.63 38.87 117.20 C 37.24 116.71 35.48 115.74 35.12 113.91 C 33.40 107.76 34.55 101.33 34.90 95.07 C 35.42 90.09 35.55 84.94 37.18 80.17 Z" />
</g>
<g id="#7b7532ff">
<path fill="#7b7532" opacity="1.00" d=" M 141.39 106.21 C 142.50 105.70 143.63 105.23 144.77 104.78 C 145.34 104.79 146.49 104.81 147.06 104.82 L 147.96 104.86 C 148.72 104.94 150.26 105.09 151.02 105.16 C 151.53 107.52 151.54 109.97 151.36 112.37 C 150.13 112.99 148.93 113.67 147.69 114.26 C 145.70 114.46 143.64 115.04 141.66 114.52 C 141.41 111.76 140.96 108.97 141.39 106.21 M 142.02 106.93 C 141.99 109.18 142.12 111.43 142.44 113.66 C 145.26 114.41 148.24 112.86 150.80 111.70 C 150.91 109.64 150.88 107.55 150.35 105.55 C 147.61 105.30 144.48 105.68 142.02 106.93 Z" />
</g>
<g id="#f1d229ff">
<path fill="#f1d229" opacity="1.00" d=" M 142.02 106.93 C 144.48 105.68 147.61 105.30 150.35 105.55 C 150.88 107.55 150.91 109.64 150.80 111.70 C 148.24 112.86 145.26 114.41 142.44 113.66 C 142.12 111.43 141.99 109.18 142.02 106.93 Z" />
</g>
</svg>
