<?xml version="1.0" encoding="UTF-8" ?>
<!DOCTYPE svg PUBLIC "-//W3C//DTD SVG 1.1//EN" "http://www.w3.org/Graphics/SVG/1.1/DTD/svg11.dtd">
<svg width="200pt" height="200pt" viewBox="0 0 200 200" version="1.1" xmlns="http://www.w3.org/2000/svg">
<g id="#060607ff">
<path fill="#060607" opacity="1.00" d=" M 59.04 65.10 C 74.67 54.62 93.91 47.99 112.84 51.18 C 132.66 54.35 149.75 66.40 163.45 80.54 C 171.80 89.86 180.09 99.33 186.65 110.04 C 182.89 115.10 178.10 119.24 173.48 123.48 C 157.16 137.59 137.48 148.35 116.10 152.14 C 111.67 152.89 107.18 153.57 102.68 153.12 C 101.22 152.96 99.75 152.96 98.29 153.13 C 89.85 153.79 81.50 151.74 73.41 149.59 C 52.18 143.35 33.75 130.19 18.00 114.96 C 16.73 113.59 14.09 111.96 15.98 109.97 C 27.48 92.62 41.77 76.86 59.04 65.10 M 63.36 69.35 C 62.18 70.13 60.91 70.95 60.33 72.30 C 50.64 93.82 55.63 121.65 73.86 137.14 C 81.60 143.77 91.72 147.88 101.99 147.45 C 117.43 147.31 131.56 137.30 138.99 124.12 C 143.68 115.94 146.47 106.58 146.48 97.12 C 146.88 87.86 144.88 78.54 140.75 70.25 C 139.88 68.18 137.76 67.20 135.94 66.13 C 128.44 61.96 120.26 58.92 111.78 57.54 C 105.95 56.97 100.05 57.01 94.22 57.50 C 83.22 59.12 72.73 63.44 63.36 69.35 M 148.22 74.82 C 154.12 93.60 151.90 115.17 140.52 131.48 C 138.11 135.30 134.60 138.21 131.77 141.69 C 150.12 135.19 166.28 123.53 179.83 109.71 C 170.93 96.79 160.89 84.23 148.22 74.82 M 21.97 110.96 C 36.21 124.43 52.51 136.28 71.26 142.55 C 67.67 138.53 63.53 134.94 60.73 130.26 C 50.40 114.73 48.38 94.83 53.03 76.99 C 40.91 86.48 30.56 98.21 21.97 110.96 Z" />
<path fill="#060607" opacity="1.00" d=" M 92.74 78.95 C 97.62 76.60 103.48 75.93 108.39 78.58 C 117.40 82.86 121.37 93.63 120.10 103.12 C 119.08 107.84 117.03 112.33 113.88 116.01 C 108.69 120.87 100.73 123.03 94.10 119.90 C 85.63 116.19 81.31 106.54 81.81 97.65 C 84.84 97.76 88.32 98.02 90.64 95.65 C 95.71 91.73 95.92 84.12 92.74 78.95 Z" />
</g>
<g id="#228dceff">
<path fill="#228dce" opacity="1.00" d=" M 63.36 69.35 C 72.73 63.44 83.22 59.12 94.22 57.50 C 100.05 57.01 105.95 56.97 111.78 57.54 C 120.26 58.92 128.44 61.96 135.94 66.13 C 137.76 67.20 139.88 68.18 140.75 70.25 C 144.88 78.54 146.88 87.86 146.48 97.12 C 138.09 98.26 129.57 97.97 121.20 99.25 C 120.83 100.54 120.46 101.82 120.10 103.12 C 121.37 93.63 117.40 82.86 108.39 78.58 C 103.48 75.93 97.62 76.60 92.74 78.95 C 90.56 77.06 88.07 74.99 85.00 75.17 C 78.65 74.99 74.34 82.06 75.26 87.89 C 75.45 92.14 78.77 95.12 81.81 97.65 C 81.31 106.54 85.63 116.19 94.10 119.90 C 100.73 123.03 108.69 120.87 113.88 116.01 C 117.07 119.22 119.68 123.06 123.35 125.76 C 128.61 126.37 133.80 124.71 138.99 124.12 C 131.56 137.30 117.43 147.31 101.99 147.45 C 91.72 147.88 81.60 143.77 73.86 137.14 C 55.63 121.65 50.64 93.82 60.33 72.30 C 60.91 70.95 62.18 70.13 63.36 69.35 Z" />
<path fill="#228dce" opacity="1.00" d=" M 98.29 153.13 C 99.75 152.96 101.22 152.96 102.68 153.12 C 102.70 154.91 98.28 154.93 98.29 153.13 Z" />
</g>
<g id="#faf9faff">
<path fill="#faf9fa" opacity="1.00" d=" M 75.26 87.89 C 74.34 82.06 78.65 74.99 85.00 75.17 C 88.07 74.99 90.56 77.06 92.74 78.95 C 95.92 84.12 95.71 91.73 90.64 95.65 C 88.32 98.02 84.84 97.76 81.81 97.65 C 78.77 95.12 75.45 92.14 75.26 87.89 Z" />
<path fill="#faf9fa" opacity="1.00" d=" M 148.22 74.82 C 160.89 84.23 170.93 96.79 179.83 109.71 C 166.28 123.53 150.12 135.19 131.77 141.69 C 134.60 138.21 138.11 135.30 140.52 131.48 C 151.90 115.17 154.12 93.60 148.22 74.82 Z" />
<path fill="#faf9fa" opacity="1.00" d=" M 21.97 110.96 C 30.56 98.21 40.91 86.48 53.03 76.99 C 48.38 94.83 50.40 114.73 60.73 130.26 C 63.53 134.94 67.67 138.53 71.26 142.55 C 52.51 136.28 36.21 124.43 21.97 110.96 Z" />
</g>
<g id="#48ace4ff">
<path fill="#48ace4" opacity="1.00" d=" M 121.20 99.25 C 129.57 97.97 138.09 98.26 146.48 97.12 C 146.47 106.58 143.68 115.94 138.99 124.12 C 133.80 124.71 128.61 126.37 123.35 125.76 C 119.68 123.06 117.07 119.22 113.88 116.01 C 117.03 112.33 119.08 107.84 120.10 103.12 C 120.46 101.82 120.83 100.54 121.20 99.25 Z" />
</g>
</svg>
