<?xml version="1.0" encoding="UTF-8" ?>
<!DOCTYPE svg PUBLIC "-//W3C//DTD SVG 1.1//EN" "http://www.w3.org/Graphics/SVG/1.1/DTD/svg11.dtd">
<svg width="200pt" height="200pt" viewBox="0 0 200 200" version="1.1" xmlns="http://www.w3.org/2000/svg">
<g id="#6f9d32ff">
<path fill="#6f9d32" opacity="1.00" d=" M 80.45 25.23 C 80.61 21.97 83.55 18.84 86.98 19.61 C 93.00 20.69 97.38 25.73 100.48 30.68 C 96.37 27.03 91.11 25.19 85.82 24.12 C 84.72 28.46 83.96 32.89 83.95 37.38 C 81.25 34.00 80.13 29.50 80.45 25.23 Z" />
</g>
<g id="#a2c538ff">
<path fill="#a2c538" opacity="1.00" d=" M 85.82 24.12 C 91.11 25.19 96.37 27.03 100.48 30.68 C 101.23 32.00 101.84 33.39 102.31 34.83 C 101.90 38.36 102.85 43.37 99.10 45.38 C 97.93 46.14 96.70 46.82 95.48 47.51 C 95.91 47.96 96.35 48.40 96.78 48.85 C 90.76 48.58 84.70 48.43 78.73 49.43 C 85.53 50.09 92.49 49.38 99.17 51.06 C 95.73 55.57 90.45 58.00 85.62 60.69 L 84.62 60.84 C 79.12 59.40 72.50 57.80 69.69 52.30 C 68.41 49.91 70.66 47.78 72.23 46.24 C 75.66 42.79 80.51 41.60 85.13 40.67 C 84.83 39.85 84.54 39.03 84.24 38.21 L 83.95 37.38 C 83.96 32.89 84.72 28.46 85.82 24.12 Z" />
</g>
<g id="#80a633ff">
<path fill="#80a633" opacity="1.00" d=" M 102.31 34.83 C 103.10 39.09 102.90 43.43 102.62 47.72 C 105.01 45.45 107.06 41.69 110.90 42.16 C 108.24 45.08 104.93 47.57 103.30 51.28 C 101.58 54.59 101.27 58.37 101.25 62.03 C 100.68 62.03 99.56 62.03 98.99 62.03 C 99.23 58.95 99.63 55.89 100.24 52.86 C 95.98 56.43 91.32 59.99 85.62 60.69 C 90.45 58.00 95.73 55.57 99.17 51.06 C 92.49 49.38 85.53 50.09 78.73 49.43 C 84.70 48.43 90.76 48.58 96.78 48.85 C 96.35 48.40 95.91 47.96 95.48 47.51 C 96.70 46.82 97.93 46.14 99.10 45.38 C 102.85 43.37 101.90 38.36 102.31 34.83 Z" />
</g>
<g id="#6e9c33ff">
<path fill="#6e9c33" opacity="1.00" d=" M 84.24 38.21 C 84.54 39.03 84.83 39.85 85.13 40.67 C 80.51 41.60 75.66 42.79 72.23 46.24 C 70.66 47.78 68.41 49.91 69.69 52.30 C 72.50 57.80 79.12 59.40 84.62 60.84 L 85.51 61.07 C 78.66 61.42 71.20 60.72 65.53 56.48 C 62.59 54.39 61.64 49.93 64.15 47.14 C 69.02 41.37 77.09 40.46 84.15 40.00 C 84.17 39.55 84.22 38.66 84.24 38.21 Z" />
</g>
<g id="#92bf20ff">
<path fill="#92bf20" opacity="1.00" d=" M 96.40 62.08 C 97.05 62.07 98.35 62.05 98.99 62.03 C 99.56 62.03 100.68 62.03 101.25 62.03 C 108.88 62.02 115.76 67.22 119.26 73.78 C 121.57 77.75 122.59 82.28 123.16 86.80 C 124.09 93.67 128.89 98.99 132.18 104.82 C 139.04 115.67 145.49 127.83 144.77 141.07 C 144.72 153.05 138.53 164.90 128.39 171.39 C 118.31 178.34 105.64 179.61 93.73 178.71 C 95.14 174.93 95.66 169.58 100.17 168.18 C 106.06 166.08 112.54 166.07 118.25 163.33 C 123.42 160.82 129.69 159.06 132.77 153.77 C 136.67 147.18 139.34 139.44 138.34 131.70 C 137.44 122.28 132.51 114.00 128.27 105.76 C 123.03 96.61 117.37 87.58 110.25 79.74 C 107.42 76.48 103.51 74.50 100.28 71.70 C 98.10 69.34 97.83 65.91 96.69 63.01 L 96.40 62.08 Z" />
</g>
<g id="#accd34ff">
<path fill="#accd34" opacity="1.00" d=" M 92.99 63.84 C 93.48 63.46 94.44 62.70 94.93 62.32 C 94.99 70.00 94.48 78.14 97.74 85.30 C 101.00 91.86 109.51 91.83 114.34 96.65 C 122.84 105.52 129.57 116.64 131.06 129.02 C 131.90 136.20 127.36 142.72 122.29 147.32 C 115.71 153.04 106.10 150.84 98.74 154.78 C 94.97 157.28 93.12 161.79 92.20 166.07 C 91.30 170.10 91.29 174.69 88.13 177.77 C 85.96 169.12 86.51 159.54 90.57 151.52 C 94.32 146.01 100.54 142.47 106.96 140.98 C 113.43 139.62 118.81 134.59 121.80 128.88 C 121.02 124.54 119.20 120.45 117.41 116.44 C 114.91 110.95 108.80 108.93 104.18 105.69 C 98.82 102.00 93.76 96.59 93.27 89.78 C 92.49 81.16 92.55 72.48 92.99 63.84 Z" />
</g>
<g id="#9ec82cff">
<path fill="#9ec82c" opacity="1.00" d=" M 94.93 62.32 C 95.37 62.50 96.25 62.84 96.69 63.01 C 97.83 65.91 98.10 69.34 100.28 71.70 C 103.51 74.50 107.42 76.48 110.25 79.74 C 117.37 87.58 123.03 96.61 128.27 105.76 C 132.51 114.00 137.44 122.28 138.34 131.70 C 139.34 139.44 136.67 147.18 132.77 153.77 C 129.69 159.06 123.42 160.82 118.25 163.33 C 112.54 166.07 106.06 166.08 100.17 168.18 C 95.66 169.58 95.14 174.93 93.73 178.71 C 91.87 178.39 90.00 178.06 88.13 177.77 C 91.29 174.69 91.30 170.10 92.20 166.07 C 93.12 161.79 94.97 157.28 98.74 154.78 C 106.10 150.84 115.71 153.04 122.29 147.32 C 127.36 142.72 131.90 136.20 131.06 129.02 C 129.57 116.64 122.84 105.52 114.34 96.65 C 109.51 91.83 101.00 91.86 97.74 85.30 C 94.48 78.14 94.99 70.00 94.93 62.32 Z" />
</g>
<g id="#b8d23bff">
<path fill="#b8d23b" opacity="1.00" d=" M 89.63 64.95 C 90.74 64.56 91.86 64.19 92.99 63.84 C 92.55 72.48 92.49 81.16 93.27 89.78 C 93.76 96.59 98.82 102.00 104.18 105.69 C 108.80 108.93 114.91 110.95 117.41 116.44 C 119.20 120.45 121.02 124.54 121.80 128.88 C 118.81 134.59 113.43 139.62 106.96 140.98 C 100.54 142.47 94.32 146.01 90.57 151.52 C 86.51 159.54 85.96 169.12 88.13 177.77 C 86.85 177.43 85.58 177.10 84.30 176.78 L 84.15 176.18 C 83.26 172.53 82.25 168.90 81.55 165.20 C 80.54 160.17 81.53 155.06 81.80 150.01 C 82.20 145.60 82.16 140.77 84.85 137.01 C 88.47 131.64 95.39 130.62 100.40 127.01 C 97.28 122.95 92.68 120.48 89.25 116.78 C 85.60 106.57 87.86 95.60 89.28 85.19 C 89.81 78.47 92.18 71.54 89.63 64.95 Z" />
</g>
<g id="#c4d541ff">
<path fill="#c4d541" opacity="1.00" d=" M 76.74 92.94 C 77.94 82.65 80.51 71.19 89.63 64.95 C 92.18 71.54 89.81 78.47 89.28 85.19 C 87.86 95.60 85.60 106.57 89.25 116.78 C 92.68 120.48 97.28 122.95 100.40 127.01 C 95.39 130.62 88.47 131.64 84.85 137.01 C 82.16 140.77 82.20 145.60 81.80 150.01 C 81.53 155.06 80.54 160.17 81.55 165.20 C 82.25 168.90 83.26 172.53 84.15 176.18 C 72.81 173.44 63.38 164.42 59.36 153.55 C 56.06 144.40 55.36 134.06 58.53 124.78 C 58.95 130.53 58.93 136.30 59.00 142.06 C 59.04 149.82 64.92 155.59 69.06 161.57 C 70.83 154.87 71.68 147.98 72.15 141.08 C 72.77 131.42 76.50 122.33 77.50 112.72 C 78.22 104.67 81.86 97.12 81.62 88.95 C 79.96 90.25 78.30 91.53 76.74 92.94 Z" />
</g>
<g id="#d0dc51ff">
<path fill="#d0dc51" opacity="1.00" d=" M 76.74 92.94 C 78.30 91.53 79.96 90.25 81.62 88.95 C 81.86 97.12 78.22 104.67 77.50 112.72 C 76.50 122.33 72.77 131.42 72.15 141.08 C 71.68 147.98 70.83 154.87 69.06 161.57 C 64.92 155.59 59.04 149.82 59.00 142.06 C 58.93 136.30 58.95 130.53 58.53 124.78 C 61.86 112.74 72.25 104.45 76.74 92.94 Z" />
</g>
</svg>
