<?xml version="1.0" encoding="UTF-8" ?>
<!DOCTYPE svg PUBLIC "-//W3C//DTD SVG 1.1//EN" "http://www.w3.org/Graphics/SVG/1.1/DTD/svg11.dtd">
<svg width="200pt" height="200pt" viewBox="0 0 200 200" version="1.1" xmlns="http://www.w3.org/2000/svg">
<g id="#443a2ee9">
<path fill="#443a2e" opacity="0.91" d=" M 91.80 15.97 C 97.89 14.78 104.20 14.55 110.28 15.95 C 104.12 15.83 97.95 15.83 91.80 15.97 Z" />
<path fill="#443a2e" opacity="0.91" d=" M 85.10 57.83 C 87.98 58.84 90.78 60.29 92.49 62.93 C 90.69 62.36 88.93 61.71 87.17 61.06 C 91.21 70.68 95.04 80.38 99.11 89.98 C 100.35 93.56 105.57 92.81 106.96 96.26 C 107.85 98.90 106.99 102.07 104.94 103.94 C 103.28 105.11 101.14 105.21 99.23 105.69 C 96.95 111.88 95.20 118.24 92.97 124.44 C 94.38 124.37 95.79 124.31 97.21 124.27 C 95.13 125.71 92.94 126.96 90.74 128.19 C 89.95 125.77 89.25 123.31 88.74 120.81 C 89.73 121.76 90.71 122.72 91.68 123.69 C 93.41 117.46 95.76 111.42 97.53 105.20 C 96.53 102.97 95.03 100.62 95.67 98.07 C 96.19 96.07 97.39 94.36 98.43 92.62 C 94.21 82.48 90.18 72.26 85.83 62.18 C 84.88 63.64 83.90 65.09 82.85 66.49 C 83.28 63.53 84.06 60.63 85.10 57.83 M 99.01 96.15 C 98.76 97.63 98.46 99.10 98.38 100.60 C 99.59 101.89 101.51 101.88 103.09 102.41 C 103.37 100.37 103.69 98.33 104.01 96.30 C 102.34 96.24 100.67 96.19 99.01 96.15 Z" />
<path fill="#443a2e" opacity="0.91" d=" M 17.90 111.29 C 16.95 105.50 17.06 99.56 17.85 93.77 C 17.70 99.60 17.71 105.45 17.90 111.29 Z" />
</g>
<g id="#050404fe">
<path fill="#050404" opacity="1.00" d=" M 56.52 27.59 C 67.32 21.38 79.40 17.31 91.80 15.97 C 97.95 15.83 104.12 15.83 110.28 15.95 C 127.67 17.97 144.06 26.30 156.71 38.30 C 169.15 50.63 177.87 66.77 180.79 84.08 C 185.03 109.54 179.15 137.85 160.71 156.69 C 149.11 169.89 132.63 178.32 115.41 181.31 C 95.77 184.47 75.16 180.80 57.74 171.22 C 35.83 159.19 20.18 136.27 17.90 111.29 C 17.71 105.45 17.70 99.60 17.85 93.77 C 18.52 83.91 21.49 74.36 25.30 65.30 C 31.87 50.17 42.13 36.10 56.52 27.59 M 67.96 24.93 C 53.02 31.07 39.71 42.16 32.79 56.94 C 29.42 61.27 27.63 66.57 25.59 71.60 C 18.41 90.65 17.59 112.48 25.54 131.44 C 30.82 144.01 39.37 155.63 51.02 162.96 C 56.06 167.68 62.49 170.45 68.70 173.26 C 80.18 177.83 92.65 180.14 105.01 179.62 C 119.17 178.73 133.71 174.86 145.04 166.02 C 154.51 160.94 161.76 152.47 167.55 143.57 C 186.61 113.24 182.63 70.79 158.79 44.18 C 155.65 40.76 152.45 37.17 148.27 35.00 C 140.22 27.68 129.77 23.45 119.42 20.54 C 102.43 15.64 84.12 18.40 67.96 24.93 Z" />
<path fill="#050404" opacity="1.00" d=" M 93.38 28.38 C 108.60 26.29 124.28 30.75 137.22 38.76 C 152.56 48.21 163.23 64.21 167.46 81.58 C 170.19 93.06 170.24 105.21 167.86 116.75 C 163.59 136.23 150.35 153.62 132.39 162.41 C 103.17 177.30 64.29 168.72 43.95 143.05 C 32.60 129.02 27.94 110.16 30.41 92.38 C 32.58 76.94 38.92 61.91 49.09 50.03 C 60.15 37.14 76.83 30.46 93.38 28.38 M 53.01 48.01 C 42.74 58.58 35.94 72.29 32.81 86.62 C 28.65 105.86 32.78 127.21 45.47 142.51 C 52.78 151.11 62.00 158.58 72.90 161.96 C 83.51 167.73 96.12 168.24 107.93 167.68 C 123.26 166.21 138.79 159.81 148.94 147.92 C 153.62 144.17 156.90 138.99 159.83 133.83 C 174.88 106.61 169.38 69.68 146.84 48.19 C 134.63 36.47 117.84 29.83 100.99 29.34 C 83.61 30.07 65.71 35.71 53.01 48.01 Z" />
<path fill="#050404" opacity="1.00" d=" M 98.62 37.30 C 100.30 35.94 103.11 33.82 104.82 36.35 C 106.06 39.09 103.89 41.75 102.89 44.20 C 104.43 45.01 105.97 45.83 107.47 46.71 C 104.62 46.70 101.77 46.72 98.92 46.78 C 101.12 43.84 103.25 40.78 104.18 37.17 C 102.32 37.21 100.47 37.28 98.62 37.30 Z" />
<path fill="#050404" opacity="1.00" d=" M 93.54 36.70 C 94.37 36.33 95.21 35.97 96.05 35.60 C 96.31 39.26 96.38 42.95 95.94 46.59 C 94.92 43.35 94.51 39.96 93.54 36.70 Z" />
<path fill="#050404" opacity="1.00" d=" M 126.37 46.18 C 126.92 46.21 128.02 46.27 128.57 46.29 C 128.75 50.13 129.07 53.98 128.69 57.81 C 126.96 54.18 127.26 50.03 126.37 46.18 Z" />
<path fill="#050404" opacity="1.00" d=" M 64.09 47.95 C 64.93 47.63 65.78 47.32 66.62 47.01 C 66.28 51.18 67.47 55.72 65.44 59.59 C 64.95 55.71 64.90 51.78 64.09 47.95 Z" />
<path fill="#050404" opacity="1.00" d=" M 69.57 48.67 C 70.59 48.34 71.57 47.93 72.58 47.59 C 72.47 51.64 72.91 55.85 71.40 59.70 C 70.94 56.01 71.26 52.11 69.57 48.67 Z" />
<path fill="#050404" opacity="1.00" d=" M 141.47 68.71 C 143.03 66.30 145.60 65.42 148.40 65.61 C 148.56 68.77 147.68 71.80 146.23 74.58 C 147.79 75.00 149.35 75.46 150.87 76.00 C 148.25 76.43 145.62 76.75 142.99 77.09 C 144.76 73.92 146.57 70.69 147.23 67.07 C 145.30 67.59 143.40 68.19 141.47 68.71 Z" />
<path fill="#050404" opacity="1.00" d=" M 46.28 71.61 C 47.28 71.27 48.30 70.92 49.31 70.58 C 49.31 74.65 49.84 78.92 48.16 82.76 C 47.59 79.04 48.45 74.94 46.28 71.61 Z" />
<path fill="#050404" opacity="1.00" d=" M 53.51 71.31 C 55.14 69.88 57.65 70.59 58.56 72.47 C 59.93 75.19 59.56 78.61 58.24 81.29 C 57.38 83.13 54.38 83.54 53.27 81.73 C 51.24 78.65 51.36 74.30 53.51 71.31 M 53.53 75.02 C 53.39 77.23 52.95 81.17 56.00 81.39 C 58.98 78.91 57.61 74.78 56.98 71.58 C 55.44 72.24 53.59 73.05 53.53 75.02 Z" />
<path fill="#050404" opacity="1.00" d=" M 154.23 92.51 C 155.35 92.76 156.43 93.13 157.47 93.60 C 158.44 96.41 158.58 99.43 159.35 102.30 C 160.11 104.34 158.06 106.51 156.01 106.33 C 154.75 106.08 153.69 105.32 152.58 104.74 C 154.18 104.60 155.80 104.62 157.39 104.33 C 157.72 103.39 158.02 102.45 158.29 101.50 C 156.97 101.29 155.65 101.09 154.33 100.90 C 155.80 98.94 157.10 96.72 156.57 94.17 C 155.30 94.46 154.04 94.76 152.78 95.06 C 153.14 94.42 153.87 93.15 154.23 92.51 Z" />
<path fill="#050404" opacity="1.00" d=" M 39.33 101.57 C 38.22 98.44 41.68 95.48 44.69 96.10 C 46.80 98.96 47.51 103.10 46.41 106.48 C 44.86 109.57 40.96 109.40 38.45 107.67 C 41.35 107.47 44.61 107.47 45.88 104.33 C 43.67 103.73 40.09 104.44 39.33 101.57 M 39.92 100.51 C 40.66 101.27 41.40 102.03 42.14 102.79 C 43.06 102.42 43.98 102.06 44.90 101.70 C 44.62 100.17 44.31 98.64 43.97 97.13 C 42.45 98.04 41.08 99.17 39.92 100.51 Z" />
<path fill="#050404" opacity="1.00" d=" M 99.01 96.15 C 100.67 96.19 102.34 96.24 104.01 96.30 C 103.69 98.33 103.37 100.37 103.09 102.41 C 101.51 101.88 99.59 101.89 98.38 100.60 C 98.46 99.10 98.76 97.63 99.01 96.15 M 100.06 97.00 C 100.15 98.42 100.24 99.84 100.31 101.27 C 101.32 100.28 102.35 99.31 103.38 98.35 C 102.27 97.91 101.16 97.46 100.06 97.00 Z" />
<path fill="#050404" opacity="1.00" d=" M 143.74 129.88 C 143.64 127.05 143.67 124.17 144.70 121.49 C 145.14 124.12 145.36 126.78 145.80 129.41 C 147.61 127.10 147.93 124.15 148.60 121.39 C 149.16 125.77 149.40 130.19 149.54 134.61 C 148.79 133.20 148.12 131.75 147.50 130.28 C 146.25 130.14 144.99 130.01 143.74 129.88 Z" />
<path fill="#050404" opacity="1.00" d=" M 49.92 126.17 C 50.82 123.78 53.63 123.86 55.74 123.80 C 55.46 127.63 55.51 131.46 56.10 135.27 C 54.34 135.11 52.09 135.84 50.81 134.21 C 48.90 132.02 49.57 128.80 49.92 126.17 M 50.73 128.57 C 51.49 128.64 53.01 128.79 53.77 128.86 C 54.14 127.69 54.51 126.53 54.88 125.37 C 52.62 124.96 51.23 126.49 50.73 128.57 M 50.71 129.92 C 50.87 132.65 52.59 134.06 55.27 134.08 C 54.66 131.85 52.72 130.73 50.71 129.92 Z" />
<path fill="#050404" opacity="1.00" d=" M 124.10 138.93 C 126.26 138.93 128.43 138.94 130.60 139.01 C 128.74 139.83 126.83 140.54 124.98 141.40 C 127.04 143.71 131.93 144.84 130.21 148.86 C 127.85 150.48 125.04 149.43 122.65 148.51 C 124.92 148.24 127.21 148.07 129.49 147.79 C 129.08 145.06 126.32 145.45 124.27 145.42 C 124.23 143.25 124.16 141.09 124.10 138.93 Z" />
<path fill="#050404" opacity="1.00" d=" M 68.12 143.98 C 70.89 142.47 74.09 142.79 77.12 142.81 C 75.02 146.67 73.57 150.92 70.83 154.40 C 71.44 150.84 72.96 147.54 74.67 144.39 C 72.48 144.33 70.29 144.25 68.12 143.98 Z" />
<path fill="#050404" opacity="1.00" d=" M 98.28 159.99 C 95.91 155.51 96.76 148.95 101.83 146.79 C 100.74 148.89 99.56 150.95 98.42 153.03 C 100.41 154.06 104.52 153.90 104.22 156.95 C 103.56 159.60 100.38 159.42 98.28 159.99 M 97.55 157.01 C 99.49 157.87 101.55 157.64 103.50 156.97 C 101.71 154.93 99.40 155.20 97.55 157.01 Z" />
</g>
<g id="#facb92ff">
<path fill="#facb92" opacity="1.00" d=" M 67.96 24.93 C 84.12 18.40 102.43 15.64 119.42 20.54 C 129.77 23.45 140.22 27.68 148.27 35.00 C 140.99 31.83 134.05 27.86 126.43 25.51 C 110.07 20.18 91.84 19.36 75.61 25.60 C 58.63 31.68 44.74 43.78 32.79 56.94 C 39.71 42.16 53.02 31.07 67.96 24.93 Z" />
</g>
<g id="#f8931fff">
<path fill="#f8931f" opacity="1.00" d=" M 75.61 25.60 C 91.84 19.36 110.07 20.18 126.43 25.51 C 134.05 27.86 140.99 31.83 148.27 35.00 C 152.45 37.17 155.65 40.76 158.79 44.18 C 182.63 70.79 186.61 113.24 167.55 143.57 C 161.76 152.47 154.51 160.94 145.04 166.02 C 126.06 173.87 105.22 178.11 84.69 175.35 C 72.76 173.50 61.74 168.25 51.02 162.96 C 39.37 155.63 30.82 144.01 25.54 131.44 C 17.59 112.48 18.41 90.65 25.59 71.60 C 27.63 66.57 29.42 61.27 32.79 56.94 C 44.74 43.78 58.63 31.68 75.61 25.60 M 93.38 28.38 C 76.83 30.46 60.15 37.14 49.09 50.03 C 38.92 61.91 32.58 76.94 30.41 92.38 C 27.94 110.16 32.60 129.02 43.95 143.05 C 64.29 168.72 103.17 177.30 132.39 162.41 C 150.35 153.62 163.59 136.23 167.86 116.75 C 170.24 105.21 170.19 93.06 167.46 81.58 C 163.23 64.21 152.56 48.21 137.22 38.76 C 124.28 30.75 108.60 26.29 93.38 28.38 Z" />
</g>
<g id="#f7f6f2ff">
<path fill="#f7f6f2" opacity="1.00" d=" M 53.01 48.01 C 65.71 35.71 83.61 30.07 100.99 29.34 C 117.84 29.83 134.63 36.47 146.84 48.19 C 169.38 69.68 174.88 106.61 159.83 133.83 C 156.90 138.99 153.62 144.17 148.94 147.92 C 142.02 152.59 134.80 156.95 126.95 159.90 C 113.97 164.92 99.65 166.15 85.93 164.03 C 81.59 163.33 77.23 162.72 72.90 161.96 C 62.00 158.58 52.78 151.11 45.47 142.51 C 32.78 127.21 28.65 105.86 32.81 86.62 C 35.94 72.29 42.74 58.58 53.01 48.01 M 98.62 37.30 C 100.47 37.28 102.32 37.21 104.18 37.17 C 103.25 40.78 101.12 43.84 98.92 46.78 C 101.77 46.72 104.62 46.70 107.47 46.71 C 105.97 45.83 104.43 45.01 102.89 44.20 C 103.89 41.75 106.06 39.09 104.82 36.35 C 103.11 33.82 100.30 35.94 98.62 37.30 M 93.54 36.70 C 94.51 39.96 94.92 43.35 95.94 46.59 C 96.38 42.95 96.31 39.26 96.05 35.60 C 95.21 35.97 94.37 36.33 93.54 36.70 M 126.37 46.18 C 127.26 50.03 126.96 54.18 128.69 57.81 C 129.07 53.98 128.75 50.13 128.57 46.29 C 128.02 46.27 126.92 46.21 126.37 46.18 M 64.09 47.95 C 64.90 51.78 64.95 55.71 65.44 59.59 C 67.47 55.72 66.28 51.18 66.62 47.01 C 65.78 47.32 64.93 47.63 64.09 47.95 M 69.57 48.67 C 71.26 52.11 70.94 56.01 71.40 59.70 C 72.91 55.85 72.47 51.64 72.58 47.59 C 71.57 47.93 70.59 48.34 69.57 48.67 M 85.10 57.83 C 84.06 60.63 83.28 63.53 82.85 66.49 C 83.90 65.09 84.88 63.64 85.83 62.18 C 90.18 72.26 94.21 82.48 98.43 92.62 C 97.39 94.36 96.19 96.07 95.67 98.07 C 95.03 100.62 96.53 102.97 97.53 105.20 C 95.76 111.42 93.41 117.46 91.68 123.69 C 90.71 122.72 89.73 121.76 88.74 120.81 C 89.25 123.31 89.95 125.77 90.74 128.19 C 92.94 126.96 95.13 125.71 97.21 124.27 C 95.79 124.31 94.38 124.37 92.97 124.44 C 95.20 118.24 96.95 111.88 99.23 105.69 C 101.14 105.21 103.28 105.11 104.94 103.94 C 106.99 102.07 107.85 98.90 106.96 96.26 C 105.57 92.81 100.35 93.56 99.11 89.98 C 95.04 80.38 91.21 70.68 87.17 61.06 C 88.93 61.71 90.69 62.36 92.49 62.93 C 90.78 60.29 87.98 58.84 85.10 57.83 M 141.47 68.71 C 143.40 68.19 145.30 67.59 147.23 67.07 C 146.57 70.69 144.76 73.92 142.99 77.09 C 145.62 76.75 148.25 76.43 150.87 76.00 C 149.35 75.46 147.79 75.00 146.23 74.58 C 147.68 71.80 148.56 68.77 148.40 65.61 C 145.60 65.42 143.03 66.30 141.47 68.71 M 46.28 71.61 C 48.45 74.94 47.59 79.04 48.16 82.76 C 49.84 78.92 49.31 74.65 49.31 70.58 C 48.30 70.92 47.28 71.27 46.28 71.61 M 53.51 71.31 C 51.36 74.30 51.24 78.65 53.27 81.73 C 54.38 83.54 57.38 83.13 58.24 81.29 C 59.56 78.61 59.93 75.19 58.56 72.47 C 57.65 70.59 55.14 69.88 53.51 71.31 M 154.23 92.51 C 153.87 93.15 153.14 94.42 152.78 95.06 C 154.04 94.76 155.30 94.46 156.57 94.17 C 157.10 96.72 155.80 98.94 154.33 100.90 C 155.65 101.09 156.97 101.29 158.29 101.50 C 158.02 102.45 157.72 103.39 157.39 104.33 C 155.80 104.62 154.18 104.60 152.58 104.74 C 153.69 105.32 154.75 106.08 156.01 106.33 C 158.06 106.51 160.11 104.34 159.35 102.30 C 158.58 99.43 158.44 96.41 157.47 93.60 C 156.43 93.13 155.35 92.76 154.23 92.51 M 39.33 101.57 C 40.09 104.44 43.67 103.73 45.88 104.33 C 44.61 107.47 41.35 107.47 38.45 107.67 C 40.96 109.40 44.86 109.57 46.41 106.48 C 47.51 103.10 46.80 98.96 44.69 96.10 C 41.68 95.48 38.22 98.44 39.33 101.57 M 143.74 129.88 C 144.99 130.01 146.25 130.14 147.50 130.28 C 148.12 131.75 148.79 133.20 149.54 134.61 C 149.40 130.19 149.16 125.77 148.60 121.39 C 147.93 124.15 147.61 127.10 145.80 129.41 C 145.36 126.78 145.14 124.12 144.70 121.49 C 143.67 124.17 143.64 127.05 143.74 129.88 M 49.92 126.17 C 49.57 128.80 48.90 132.02 50.81 134.21 C 52.09 135.84 54.34 135.11 56.10 135.27 C 55.51 131.46 55.46 127.63 55.74 123.80 C 53.63 123.86 50.82 123.78 49.92 126.17 M 124.10 138.93 C 124.16 141.09 124.23 143.25 124.27 145.42 C 126.32 145.45 129.08 145.06 129.49 147.79 C 127.21 148.07 124.92 148.24 122.65 148.51 C 125.04 149.43 127.85 150.48 130.21 148.86 C 131.93 144.84 127.04 143.71 124.98 141.40 C 126.83 140.54 128.74 139.83 130.60 139.01 C 128.43 138.94 126.26 138.93 124.10 138.93 M 68.12 143.98 C 70.29 144.25 72.48 144.33 74.67 144.39 C 72.96 147.54 71.44 150.84 70.83 154.40 C 73.57 150.92 75.02 146.67 77.12 142.81 C 74.09 142.79 70.89 142.47 68.12 143.98 M 98.28 159.99 C 100.38 159.42 103.56 159.60 104.22 156.95 C 104.52 153.90 100.41 154.06 98.42 153.03 C 99.56 150.95 100.74 148.89 101.83 146.79 C 96.76 148.95 95.91 155.51 98.28 159.99 Z" />
<path fill="#f7f6f2" opacity="1.00" d=" M 53.53 75.02 C 53.59 73.05 55.44 72.24 56.98 71.58 C 57.61 74.78 58.98 78.91 56.00 81.39 C 52.95 81.17 53.39 77.23 53.53 75.02 Z" />
<path fill="#f7f6f2" opacity="1.00" d=" M 39.92 100.51 C 41.08 99.17 42.45 98.04 43.97 97.13 C 44.31 98.64 44.62 100.17 44.90 101.70 C 43.98 102.06 43.06 102.42 42.14 102.79 C 41.40 102.03 40.66 101.27 39.92 100.51 Z" />
<path fill="#f7f6f2" opacity="1.00" d=" M 50.73 128.57 C 51.23 126.49 52.62 124.96 54.88 125.37 C 54.51 126.53 54.14 127.69 53.77 128.86 C 53.01 128.79 51.49 128.64 50.73 128.57 Z" />
<path fill="#f7f6f2" opacity="1.00" d=" M 50.71 129.92 C 52.72 130.73 54.66 131.85 55.27 134.08 C 52.59 134.06 50.87 132.65 50.71 129.92 Z" />
<path fill="#f7f6f2" opacity="1.00" d=" M 97.55 157.01 C 99.40 155.20 101.71 154.93 103.50 156.97 C 101.55 157.64 99.49 157.87 97.55 157.01 Z" />
</g>
<g id="#bbbab7ff">
<path fill="#bbbab7" opacity="1.00" d=" M 100.06 97.00 C 101.16 97.46 102.27 97.91 103.38 98.35 C 102.35 99.31 101.32 100.28 100.31 101.27 C 100.24 99.84 100.15 98.42 100.06 97.00 Z" />
<path fill="#bbbab7" opacity="1.00" d=" M 126.95 159.90 C 134.80 156.95 142.02 152.59 148.94 147.92 C 138.79 159.81 123.26 166.21 107.93 167.68 C 96.12 168.24 83.51 167.73 72.90 161.96 C 77.23 162.72 81.59 163.33 85.93 164.03 C 99.65 166.15 113.97 164.92 126.95 159.90 Z" />
</g>
<g id="#b76d16ff">
<path fill="#b76d16" opacity="1.00" d=" M 51.02 162.96 C 61.74 168.25 72.76 173.50 84.69 175.35 C 105.22 178.11 126.06 173.87 145.04 166.02 C 133.71 174.86 119.17 178.73 105.01 179.62 C 92.65 180.14 80.18 177.83 68.70 173.26 C 62.49 170.45 56.06 167.68 51.02 162.96 Z" />
</g>
</svg>
