<?xml version="1.0" encoding="UTF-8" ?>
<!DOCTYPE svg PUBLIC "-//W3C//DTD SVG 1.1//EN" "http://www.w3.org/Graphics/SVG/1.1/DTD/svg11.dtd">
<svg width="200pt" height="200pt" viewBox="0 0 200 200" version="1.1" xmlns="http://www.w3.org/2000/svg">
<g id="#d2dae7ff">
<path fill="#d2dae7" opacity="1.00" d=" M 165.21 22.18 C 169.05 18.34 174.84 17.80 179.97 18.25 C 182.64 18.55 185.74 20.13 185.88 23.16 C 186.51 25.63 184.91 27.67 183.42 29.44 C 172.22 41.65 158.71 51.44 146.73 62.81 C 147.29 63.04 148.42 63.49 148.98 63.71 C 146.02 62.76 143.66 64.75 141.68 66.63 C 138.81 69.14 135.64 71.32 133.01 74.10 C 132.80 74.32 132.38 74.76 132.17 74.98 C 133.27 77.72 134.57 80.38 135.65 83.13 C 135.93 84.80 136.20 86.47 136.44 88.15 C 133.49 88.52 130.55 88.95 127.61 89.37 C 127.06 84.88 127.01 79.00 122.41 76.58 C 117.02 74.38 111.17 76.81 106.38 79.38 C 101.34 82.35 95.72 85.57 93.63 91.40 C 91.48 91.35 89.32 91.24 87.20 90.88 C 86.83 90.75 86.08 90.51 85.70 90.38 C 87.97 88.20 89.85 85.66 91.93 83.30 C 93.34 81.75 94.85 80.30 96.46 78.96 C 99.88 76.40 103.62 74.31 107.16 71.92 C 99.06 71.31 90.93 71.59 82.82 71.79 C 93.23 70.48 103.85 72.63 114.14 70.28 C 117.91 69.59 121.75 69.55 125.56 69.48 C 126.75 67.98 127.95 66.50 129.11 64.98 C 130.16 63.58 131.17 62.14 132.18 60.72 C 130.40 60.19 128.63 59.65 126.83 59.21 C 128.95 59.43 131.08 59.60 133.17 60.03 C 143.80 47.38 153.24 33.65 165.21 22.18 Z" />
<path fill="#d2dae7" opacity="1.00" d=" M 29.30 69.55 C 29.40 69.50 29.59 69.40 29.68 69.35 C 29.59 69.40 29.40 69.50 29.30 69.55 Z" />
</g>
<g id="#01f2c8ff">
<path fill="#01f2c8" opacity="1.00" d=" M 71.43 58.50 C 89.84 56.60 108.50 56.58 126.83 59.21 C 128.63 59.65 130.40 60.19 132.18 60.72 C 131.17 62.14 130.16 63.58 129.11 64.98 C 121.47 63.67 113.73 62.98 105.98 62.87 C 93.70 62.73 81.36 62.65 69.15 64.27 C 56.97 65.85 44.52 67.81 33.50 73.52 C 30.14 75.32 26.65 77.69 25.31 81.42 C 24.53 83.60 25.49 85.84 26.27 87.86 C 27.05 88.60 27.85 89.32 28.68 90.02 C 30.04 91.15 31.46 92.23 33.03 93.08 C 40.73 97.13 49.28 99.39 57.84 100.78 L 58.73 100.92 C 60.18 102.23 62.18 102.55 64.04 102.03 C 64.45 102.07 65.28 102.14 65.69 102.18 C 74.31 103.40 83.01 103.84 91.71 104.06 C 98.00 104.42 104.29 104.01 110.58 103.67 C 120.72 103.39 130.82 101.99 140.75 99.90 C 150.25 97.62 160.49 95.09 167.57 87.87 C 169.04 84.78 169.51 80.80 166.77 78.23 C 160.06 71.52 150.32 69.68 141.68 66.63 C 143.66 64.75 146.02 62.76 148.98 63.71 C 156.23 65.40 163.31 68.26 169.41 72.57 C 172.72 74.84 175.68 78.10 176.40 82.16 C 176.00 85.06 175.54 88.19 173.32 90.32 C 168.74 95.07 162.72 98.22 156.60 100.54 C 136.87 107.42 115.78 109.44 94.99 109.26 C 77.08 109.25 59.05 107.30 41.87 102.10 C 33.92 99.64 25.87 96.12 20.27 89.74 C 18.28 87.64 17.75 84.71 17.51 81.93 C 18.69 75.85 24.33 72.38 29.30 69.55 C 29.40 69.50 29.59 69.40 29.68 69.35 C 42.65 62.81 57.18 60.44 71.43 58.50 Z" />
<path fill="#01f2c8" opacity="1.00" d=" M 157.96 107.96 C 158.41 102.84 164.21 100.85 168.64 101.31 C 169.43 106.44 167.62 111.49 166.30 116.37 C 163.13 125.46 158.67 134.96 150.26 140.29 C 149.13 141.16 146.27 142.04 146.04 139.96 C 147.46 135.77 150.76 132.48 152.30 128.30 C 155.42 121.90 156.74 114.91 157.96 107.96 Z" />
<path fill="#01f2c8" opacity="1.00" d=" M 26.43 154.41 C 28.32 147.61 35.72 144.93 41.52 142.29 C 44.18 144.40 46.99 146.30 49.76 148.27 C 47.05 150.06 44.62 152.23 42.23 154.43 C 37.46 156.36 32.62 158.13 27.95 160.31 C 27.24 158.43 25.43 156.51 26.43 154.41 Z" />
<path fill="#01f2c8" opacity="1.00" d=" M 144.10 148.15 C 146.73 146.04 149.56 144.18 152.30 142.21 C 157.58 144.64 163.53 146.98 166.75 152.13 C 163.67 153.84 160.12 154.23 156.82 155.36 C 159.77 156.14 162.76 156.76 165.76 157.29 C 165.42 158.15 165.09 159.02 164.77 159.89 C 160.31 159.54 155.94 158.54 151.50 157.97 C 151.23 156.46 151.03 154.92 150.54 153.46 C 148.67 151.38 146.27 149.88 144.10 148.15 Z" />
<path fill="#01f2c8" opacity="1.00" d=" M 43.18 158.11 C 44.43 159.00 45.68 159.89 46.96 160.74 C 43.21 162.61 39.60 164.76 35.70 166.29 L 34.64 165.73 C 37.12 162.80 40.06 160.31 43.18 158.11 Z" />
<path fill="#01f2c8" opacity="1.00" d=" M 124.97 167.16 C 133.61 165.77 142.64 164.20 149.90 158.95 C 152.79 161.34 155.67 163.75 158.41 166.31 C 155.28 167.87 151.97 169.03 148.98 170.84 C 140.82 172.27 132.82 174.53 124.59 175.47 C 116.10 176.51 107.55 177.09 99.00 177.04 C 80.50 177.19 61.77 175.63 44.06 170.02 C 43.79 169.91 43.24 169.71 42.97 169.60 C 45.28 167.29 47.47 164.84 49.38 162.18 C 62.25 167.35 76.27 168.16 89.95 169.04 C 101.65 169.65 113.37 168.64 124.97 167.16 Z" />
</g>
<g id="#00d6abff">
<path fill="#00d6ab" opacity="1.00" d=" M 69.15 64.27 C 81.36 62.65 93.70 62.73 105.98 62.87 C 113.73 62.98 121.47 63.67 129.11 64.98 C 127.95 66.50 126.75 67.98 125.56 69.48 C 121.75 69.55 117.91 69.59 114.14 70.28 C 103.85 72.63 93.23 70.48 82.82 71.79 C 70.02 72.63 57.19 74.18 44.85 77.80 C 38.10 79.88 31.11 82.46 26.27 87.86 C 25.49 85.84 24.53 83.60 25.31 81.42 C 26.65 77.69 30.14 75.32 33.50 73.52 C 44.52 67.81 56.97 65.85 69.15 64.27 Z" />
<path fill="#00d6ab" opacity="1.00" d=" M 133.01 74.10 C 135.64 71.32 138.81 69.14 141.68 66.63 C 150.32 69.68 160.06 71.52 166.77 78.23 C 169.51 80.80 169.04 84.78 167.57 87.87 C 158.56 78.65 145.05 76.73 133.01 74.10 Z" />
<path fill="#00d6ab" opacity="1.00" d=" M 41.52 142.29 C 24.04 127.99 13.63 104.52 17.51 81.93 C 17.75 84.71 18.28 87.64 20.27 89.74 C 25.87 96.12 33.92 99.64 41.87 102.10 C 59.05 107.30 77.08 109.25 94.99 109.26 C 115.78 109.44 136.87 107.42 156.60 100.54 C 162.72 98.22 168.74 95.07 173.32 90.32 C 175.54 88.19 176.00 85.06 176.40 82.16 C 178.22 94.56 176.17 107.49 170.83 118.82 C 166.12 127.62 160.26 136.06 152.30 142.21 C 149.56 144.18 146.73 146.04 144.10 148.15 C 146.27 149.88 148.67 151.38 150.54 153.46 C 151.03 154.92 151.23 156.46 151.50 157.97 C 151.10 158.22 150.30 158.71 149.90 158.95 C 142.64 164.20 133.61 165.77 124.97 167.16 C 113.37 168.64 101.65 169.65 89.95 169.04 C 76.27 168.16 62.25 167.35 49.38 162.18 C 48.78 161.82 47.56 161.10 46.96 160.74 C 45.68 159.89 44.43 159.00 43.18 158.11 C 42.95 157.19 42.47 155.35 42.23 154.43 C 44.62 152.23 47.05 150.06 49.76 148.27 C 46.99 146.30 44.18 144.40 41.52 142.29 M 157.96 107.96 C 156.74 114.91 155.42 121.90 152.30 128.30 C 150.76 132.48 147.46 135.77 146.04 139.96 C 146.27 142.04 149.13 141.16 150.26 140.29 C 158.67 134.96 163.13 125.46 166.30 116.37 C 167.62 111.49 169.43 106.44 168.64 101.31 C 164.21 100.85 158.41 102.84 157.96 107.96 Z" />
<path fill="#00d6ab" opacity="1.00" d=" M 44.06 170.02 C 61.77 175.63 80.50 177.19 99.00 177.04 C 107.55 177.09 116.10 176.51 124.59 175.47 C 132.82 174.53 140.82 172.27 148.98 170.84 C 145.46 174.66 140.13 175.83 135.41 177.49 C 118.11 182.22 99.91 183.10 82.09 181.65 C 72.03 180.69 61.94 179.03 52.43 175.49 C 49.35 174.20 45.97 172.94 44.06 170.02 Z" />
</g>
<g id="#fecd52ff">
<path fill="#fecd52" opacity="1.00" d=" M 44.85 77.80 C 57.19 74.18 70.02 72.63 82.82 71.79 C 90.93 71.59 99.06 71.31 107.16 71.92 C 103.62 74.31 99.88 76.40 96.46 78.96 C 95.51 77.63 94.56 76.31 93.64 74.96 C 91.17 74.92 87.34 74.91 87.08 78.19 C 86.37 81.28 89.89 82.10 91.93 83.30 C 89.85 85.66 87.97 88.20 85.70 90.38 C 83.88 91.36 81.91 92.13 80.31 93.47 C 79.46 95.88 80.90 99.67 83.95 98.91 C 87.45 98.37 92.42 96.83 92.12 92.42 C 90.47 91.93 88.83 91.41 87.20 90.88 C 89.32 91.24 91.48 91.35 93.63 91.40 C 104.99 91.76 116.36 90.97 127.61 89.37 C 130.55 88.95 133.49 88.52 136.44 88.15 C 138.86 89.91 141.43 93.12 144.75 92.04 C 147.38 91.63 147.47 87.78 145.80 86.23 C 143.30 83.55 140.13 80.50 136.15 80.94 C 136.03 81.49 135.78 82.58 135.65 83.13 C 134.57 80.38 133.27 77.72 132.17 74.98 C 132.38 74.76 132.80 74.32 133.01 74.10 C 145.05 76.73 158.56 78.65 167.57 87.87 C 160.49 95.09 150.25 97.62 140.75 99.90 C 130.82 101.99 120.72 103.39 110.58 103.67 C 108.42 99.45 103.18 99.16 99.05 99.83 C 96.12 100.18 93.81 102.15 91.71 104.06 C 83.01 103.84 74.31 103.40 65.69 102.18 C 67.30 102.17 68.91 102.14 70.52 102.08 C 69.39 96.35 59.85 94.97 57.84 100.78 C 49.28 99.39 40.73 97.13 33.03 93.08 C 34.49 93.42 35.98 93.67 37.46 93.91 C 36.76 92.82 36.11 91.69 35.25 90.72 C 33.26 89.61 30.85 90.10 28.68 90.02 C 27.85 89.32 27.05 88.60 26.27 87.86 C 31.11 82.46 38.10 79.88 44.85 77.80 M 67.38 78.42 C 64.47 78.57 60.86 79.74 60.26 83.02 C 60.78 87.19 65.65 87.66 68.99 87.46 C 71.78 87.38 76.57 87.80 76.77 83.89 C 76.91 79.21 71.02 78.15 67.38 78.42 M 45.29 84.43 C 42.62 84.83 41.39 87.75 42.94 89.95 C 45.46 92.20 48.33 94.12 51.39 95.54 C 54.90 96.89 57.27 91.56 54.71 89.30 C 52.20 86.85 48.91 84.44 45.29 84.43 M 118.35 92.09 C 116.00 93.30 115.14 96.28 116.31 98.62 C 118.95 101.76 124.67 99.04 124.13 95.08 C 124.60 92.09 120.52 90.83 118.35 92.09 Z" />
</g>
<g id="#dac302ff">
<path fill="#dac302" opacity="1.00" d=" M 87.08 78.19 C 87.34 74.91 91.17 74.92 93.64 74.96 C 94.56 76.31 95.51 77.63 96.46 78.96 C 94.85 80.30 93.34 81.75 91.93 83.30 C 89.89 82.10 86.37 81.28 87.08 78.19 Z" />
<path fill="#dac302" opacity="1.00" d=" M 136.15 80.94 C 140.13 80.50 143.30 83.55 145.80 86.23 C 147.47 87.78 147.38 91.63 144.75 92.04 C 141.43 93.12 138.86 89.91 136.44 88.15 C 136.20 86.47 135.93 84.80 135.65 83.13 C 135.78 82.58 136.03 81.49 136.15 80.94 Z" />
<path fill="#dac302" opacity="1.00" d=" M 45.29 84.43 C 48.91 84.44 52.20 86.85 54.71 89.30 C 57.27 91.56 54.90 96.89 51.39 95.54 C 48.33 94.12 45.46 92.20 42.94 89.95 C 41.39 87.75 42.62 84.83 45.29 84.43 Z" />
<path fill="#dac302" opacity="1.00" d=" M 80.31 93.47 C 81.91 92.13 83.88 91.36 85.70 90.38 C 86.08 90.51 86.83 90.75 87.20 90.88 C 88.83 91.41 90.47 91.93 92.12 92.42 C 92.42 96.83 87.45 98.37 83.95 98.91 C 80.90 99.67 79.46 95.88 80.31 93.47 Z" />
<path fill="#dac302" opacity="1.00" d=" M 118.35 92.09 C 120.52 90.83 124.60 92.09 124.13 95.08 C 124.67 99.04 118.95 101.76 116.31 98.62 C 115.14 96.28 116.00 93.30 118.35 92.09 Z" />
</g>
<g id="#b2bacdff">
<path fill="#b2bacd" opacity="1.00" d=" M 106.38 79.38 C 111.17 76.81 117.02 74.38 122.41 76.58 C 127.01 79.00 127.06 84.88 127.61 89.37 C 116.36 90.97 104.99 91.76 93.63 91.40 C 95.72 85.57 101.34 82.35 106.38 79.38 Z" />
<path fill="#b2bacd" opacity="1.00" d=" M 58.73 100.92 C 60.58 100.41 62.60 100.69 64.04 102.03 C 62.18 102.55 60.18 102.23 58.73 100.92 Z" />
</g>
<g id="#fe406bff">
<path fill="#fe406b" opacity="1.00" d=" M 67.38 78.42 C 71.02 78.15 76.91 79.21 76.77 83.89 C 76.57 87.80 71.78 87.38 68.99 87.46 C 65.65 87.66 60.78 87.19 60.26 83.02 C 60.86 79.74 64.47 78.57 67.38 78.42 Z" />
<path fill="#fe406b" opacity="1.00" d=" M 28.68 90.02 C 30.85 90.10 33.26 89.61 35.25 90.72 C 36.11 91.69 36.76 92.82 37.46 93.91 C 35.98 93.67 34.49 93.42 33.03 93.08 C 31.46 92.23 30.04 91.15 28.68 90.02 Z" />
<path fill="#fe406b" opacity="1.00" d=" M 57.84 100.78 C 59.85 94.97 69.39 96.35 70.52 102.08 C 68.91 102.14 67.30 102.17 65.69 102.18 C 65.28 102.14 64.45 102.07 64.04 102.03 C 62.60 100.69 60.58 100.41 58.73 100.92 L 57.84 100.78 Z" />
<path fill="#fe406b" opacity="1.00" d=" M 91.71 104.06 C 93.81 102.15 96.12 100.18 99.05 99.83 C 103.18 99.16 108.42 99.45 110.58 103.67 C 104.29 104.01 98.00 104.42 91.71 104.06 Z" />
</g>
<g id="#38f8daff">
<path fill="#38f8da" opacity="1.00" d=" M 166.75 152.13 C 169.73 158.47 163.41 163.64 158.41 166.31 C 155.67 163.75 152.79 161.34 149.90 158.95 C 150.30 158.71 151.10 158.22 151.50 157.97 C 155.94 158.54 160.31 159.54 164.77 159.89 C 165.09 159.02 165.42 158.15 165.76 157.29 C 162.76 156.76 159.77 156.14 156.82 155.36 C 160.12 154.23 163.67 153.84 166.75 152.13 Z" />
<path fill="#38f8da" opacity="1.00" d=" M 27.95 160.31 C 32.62 158.13 37.46 156.36 42.23 154.43 C 42.47 155.35 42.95 157.19 43.18 158.11 C 40.06 160.31 37.12 162.80 34.64 165.73 C 32.18 164.22 29.80 162.55 27.95 160.31 Z" />
<path fill="#38f8da" opacity="1.00" d=" M 35.70 166.29 C 39.60 164.76 43.21 162.61 46.96 160.74 C 47.56 161.10 48.78 161.82 49.38 162.18 C 47.47 164.84 45.28 167.29 42.97 169.60 C 40.54 168.52 37.99 167.66 35.70 166.29 Z" />
</g>
</svg>
