<?xml version="1.0" encoding="UTF-8" ?>
<!DOCTYPE svg PUBLIC "-//W3C//DTD SVG 1.1//EN" "http://www.w3.org/Graphics/SVG/1.1/DTD/svg11.dtd">
<svg width="200pt" height="200pt" viewBox="0 0 200 200" version="1.1" xmlns="http://www.w3.org/2000/svg">
<g id="#a79f9bff">
<path fill="#a79f9b" opacity="1.00" d=" M 68.20 46.08 C 72.03 44.68 76.15 44.82 80.04 43.71 C 89.69 43.49 99.36 43.68 109.02 43.62 C 119.17 45.46 129.55 46.95 139.16 50.90 C 145.68 54.42 153.29 56.90 157.88 63.08 C 159.41 65.34 162.28 66.82 163.01 69.51 C 163.47 74.22 164.23 79.40 161.61 83.66 C 157.40 90.72 149.60 94.51 142.12 97.14 C 120.99 104.33 97.92 103.48 76.38 98.68 C 67.23 96.40 57.72 93.72 50.37 87.52 C 48.09 82.92 43.36 79.86 42.00 74.76 C 40.50 69.98 41.61 64.61 44.64 60.66 C 48.23 55.74 53.93 53.16 59.01 50.11 C 58.19 50.11 56.54 50.13 55.72 50.14 C 59.35 47.56 64.10 47.59 68.20 46.08 M 67.71 56.71 C 62.03 59.35 55.66 64.09 55.75 71.00 C 55.60 76.28 59.61 80.36 63.55 83.28 C 64.42 83.76 65.28 84.24 66.14 84.73 C 70.87 81.96 76.17 80.36 81.57 79.56 C 99.62 77.18 119.45 79.28 134.20 90.84 C 135.73 90.19 137.28 89.58 138.75 88.81 C 142.99 87.06 146.93 84.00 148.78 79.70 C 150.08 75.65 149.17 70.97 146.31 67.80 C 139.42 59.45 128.62 55.94 118.44 53.56 C 101.73 50.09 83.65 50.00 67.71 56.71 M 68.22 85.88 C 71.01 87.39 73.81 89.17 77.00 89.64 C 78.88 89.51 80.63 88.75 82.37 88.11 C 88.89 87.97 95.41 87.91 101.93 88.13 C 106.21 89.37 110.72 89.62 114.92 91.14 C 117.36 91.88 119.57 93.32 122.10 93.70 C 125.37 93.74 128.51 92.62 131.63 91.79 C 123.00 84.68 111.51 81.88 100.55 81.32 C 96.21 80.74 91.78 80.75 87.44 81.32 C 80.84 81.48 74.19 83.03 68.22 85.88 M 81.67 91.51 C 86.82 92.63 92.01 93.60 97.22 94.38 C 104.18 95.08 111.19 94.85 118.17 94.60 C 110.83 91.69 102.92 90.67 95.09 90.22 C 90.59 90.01 85.97 90.00 81.67 91.51 Z" />
<path fill="#a79f9b" opacity="1.00" d=" M 67.27 109.25 C 89.78 100.93 115.81 103.30 136.60 115.27 C 135.85 128.81 135.42 142.38 134.74 155.92 C 134.74 157.17 134.07 158.34 132.80 158.67 C 116.39 165.34 97.88 165.34 80.88 160.97 C 74.31 158.93 67.40 157.25 61.62 153.38 C 60.80 149.30 61.82 145.15 61.92 141.05 C 62.17 131.69 63.12 122.37 63.32 113.01 C 62.99 110.68 65.63 110.03 67.27 109.25 Z" />
</g>
<g id="#f0ece9ff">
<path fill="#f0ece9" opacity="1.00" d=" M 42.21 60.23 C 44.95 55.07 50.84 52.80 55.72 50.14 C 56.54 50.13 58.19 50.11 59.01 50.11 C 53.93 53.16 48.23 55.74 44.64 60.66 C 41.61 64.61 40.50 69.98 42.00 74.76 C 43.36 79.86 48.09 82.92 50.37 87.52 C 46.43 84.57 42.54 81.23 40.43 76.67 C 38.55 73.05 38.75 68.85 39.16 64.93 C 39.43 64.01 39.85 63.16 40.40 62.39 C 41.39 61.98 41.99 61.26 42.21 60.23 Z" />
</g>
<g id="#7a6f6bff">
<path fill="#7a6f6b" opacity="1.00" d=" M 67.71 56.71 C 83.65 50.00 101.73 50.09 118.44 53.56 C 128.62 55.94 139.42 59.45 146.31 67.80 C 149.17 70.97 150.08 75.65 148.78 79.70 C 146.93 84.00 142.99 87.06 138.75 88.81 C 138.89 88.46 139.16 87.76 139.29 87.41 C 139.51 86.68 139.71 85.96 139.89 85.22 C 141.22 80.22 138.69 75.26 135.12 71.88 C 128.11 64.94 118.30 61.78 108.78 60.23 C 97.57 58.68 85.65 59.35 75.34 64.34 C 69.80 67.03 64.50 71.70 63.64 78.12 C 63.60 78.85 63.57 79.58 63.57 80.31 C 63.55 81.30 63.55 82.29 63.55 83.28 C 59.61 80.36 55.60 76.28 55.75 71.00 C 55.66 64.09 62.03 59.35 67.71 56.71 Z" />
</g>
<g id="#82807fbe">
<path fill="#82807f" opacity="0.75" d=" M 40.40 62.39 C 39.89 60.71 40.49 59.99 42.21 60.23 C 41.99 61.26 41.39 61.98 40.40 62.39 Z" />
</g>
<g id="#232222ff">
<path fill="#232222" opacity="1.00" d=" M 75.34 64.34 C 85.65 59.35 97.57 58.68 108.78 60.23 C 118.30 61.78 128.11 64.94 135.12 71.88 C 138.69 75.26 141.22 80.22 139.89 85.22 C 130.21 75.27 116.36 70.64 102.78 69.58 C 103.36 69.23 104.51 68.54 105.08 68.19 C 99.04 67.80 92.97 67.79 86.93 68.19 C 87.50 68.54 88.64 69.23 89.21 69.57 C 80.13 70.26 71.14 72.83 63.64 78.12 C 64.50 71.70 69.80 67.03 75.34 64.34 Z" />
<path fill="#232222" opacity="1.00" d=" M 68.22 85.88 C 74.19 83.03 80.84 81.48 87.44 81.32 C 91.77 82.31 96.22 82.29 100.55 81.32 C 111.51 81.88 123.00 84.68 131.63 91.79 C 128.51 92.62 125.37 93.74 122.10 93.70 C 119.57 93.32 117.36 91.88 114.92 91.14 C 110.72 89.62 106.21 89.37 101.93 88.13 C 102.53 88.00 103.73 87.74 104.32 87.62 C 96.53 86.42 88.61 86.82 80.77 87.25 C 81.17 87.47 81.97 87.89 82.37 88.11 C 80.63 88.75 78.88 89.51 77.00 89.64 C 73.81 89.17 71.01 87.39 68.22 85.88 Z" />
</g>
<g id="#817674ff">
<path fill="#817674" opacity="1.00" d=" M 29.11 74.99 C 31.20 70.72 34.95 67.20 39.16 64.93 C 38.75 68.85 38.55 73.05 40.43 76.67 C 42.54 81.23 46.43 84.57 50.37 87.52 C 57.72 93.72 67.23 96.40 76.38 98.68 C 97.92 103.48 120.99 104.33 142.12 97.14 C 149.60 94.51 157.40 90.72 161.61 83.66 C 164.23 79.40 163.47 74.22 163.01 69.51 C 165.52 74.44 170.20 77.90 172.11 83.17 C 172.00 85.07 171.92 86.97 171.96 88.88 C 171.74 94.12 172.22 99.36 171.87 104.59 C 171.44 107.49 171.08 110.41 170.99 113.35 C 170.63 117.81 171.37 122.31 170.80 126.74 C 167.87 134.23 163.74 141.33 157.94 146.95 C 153.85 152.67 147.69 156.25 141.62 159.52 C 132.74 161.79 124.13 165.14 115.04 166.51 C 107.68 166.45 100.32 166.47 92.97 166.49 C 84.74 165.22 76.63 163.00 68.81 160.10 C 66.77 159.41 64.96 158.20 63.14 157.07 C 58.56 153.98 52.87 152.90 48.63 149.25 C 45.11 146.09 40.94 143.48 38.77 139.11 C 34.51 134.40 31.88 128.60 28.93 123.05 C 28.08 121.56 27.85 119.86 27.86 118.16 C 27.79 115.31 27.71 112.45 27.66 109.59 C 28.59 102.54 27.66 95.42 28.11 88.35 C 28.76 83.92 28.93 79.45 29.11 74.99 M 30.35 76.82 C 30.05 86.57 30.40 96.34 29.69 106.08 C 29.46 110.79 28.59 115.82 30.83 120.22 C 36.49 132.42 44.07 144.98 56.61 151.07 C 56.68 141.68 57.73 132.35 57.91 122.97 C 57.94 117.58 59.97 111.78 57.26 106.71 C 51.47 94.49 42.87 82.71 30.35 76.82 M 163.76 88.79 C 154.91 95.17 147.65 103.54 141.61 112.56 C 139.80 114.99 140.06 118.14 139.92 121.00 C 139.43 132.96 138.63 144.93 138.73 156.90 C 152.80 153.09 161.82 140.46 167.91 128.02 C 169.59 124.19 169.23 119.88 169.59 115.80 C 169.93 105.73 170.27 95.67 170.87 85.61 C 168.36 86.32 165.86 87.21 163.76 88.79 M 67.27 109.25 C 65.63 110.03 62.99 110.68 63.32 113.01 C 63.12 122.37 62.17 131.69 61.92 141.05 C 61.82 145.15 60.80 149.30 61.62 153.38 C 67.40 157.25 74.31 158.93 80.88 160.97 C 97.88 165.34 116.39 165.34 132.80 158.67 C 134.07 158.34 134.74 157.17 134.74 155.92 C 135.42 142.38 135.85 128.81 136.60 115.27 C 115.81 103.30 89.78 100.93 67.27 109.25 Z" />
</g>
<g id="#030303ff">
<path fill="#030303" opacity="1.00" d=" M 86.93 68.19 C 92.97 67.79 99.04 67.80 105.08 68.19 C 104.51 68.54 103.36 69.23 102.78 69.58 C 98.28 69.09 93.72 69.09 89.21 69.57 C 88.64 69.23 87.50 68.54 86.93 68.19 Z" />
</g>
<g id="#b1b1b1ff">
<path fill="#b1b1b1" opacity="1.00" d=" M 89.21 69.57 C 93.72 69.09 98.28 69.09 102.78 69.58 C 116.36 70.64 130.21 75.27 139.89 85.22 C 139.71 85.96 139.51 86.68 139.29 87.41 C 130.97 78.05 118.54 73.47 106.32 72.25 C 99.47 71.53 92.53 71.48 85.68 72.25 C 77.75 72.97 70.10 75.76 63.57 80.31 C 63.57 79.58 63.60 78.85 63.64 78.12 C 71.14 72.83 80.13 70.26 89.21 69.57 Z" />
</g>
<g id="#232322ff">
<path fill="#232322" opacity="1.00" d=" M 63.57 80.31 C 70.10 75.76 77.75 72.97 85.68 72.25 C 92.52 73.34 99.48 73.37 106.32 72.25 C 118.54 73.47 130.97 78.05 139.29 87.41 C 139.16 87.76 138.89 88.46 138.75 88.81 C 137.28 89.58 135.73 90.19 134.20 90.84 C 119.45 79.28 99.62 77.18 81.57 79.56 C 76.17 80.36 70.87 81.96 66.14 84.73 C 65.28 84.24 64.42 83.76 63.55 83.28 C 63.55 82.29 63.55 81.30 63.57 80.31 Z" />
</g>
<g id="#000000ff">
<path fill="#000000" opacity="1.00" d=" M 85.68 72.25 C 92.53 71.48 99.47 71.53 106.32 72.25 C 99.48 73.37 92.52 73.34 85.68 72.25 Z" />
<path fill="#000000" opacity="1.00" d=" M 87.44 81.32 C 91.78 80.75 96.21 80.74 100.55 81.32 C 96.22 82.29 91.77 82.31 87.44 81.32 Z" />
</g>
<g id="#aaa5a5ff">
<path fill="#aaa5a5" opacity="1.00" d=" M 28.00 74.82 L 29.11 74.99 C 28.93 79.45 28.76 83.92 28.11 88.35 C 27.88 83.84 28.03 79.33 28.00 74.82 Z" />
</g>
<g id="#9b938fff">
<path fill="#9b938f" opacity="1.00" d=" M 30.35 76.82 C 42.87 82.71 51.47 94.49 57.26 106.71 C 59.97 111.78 57.94 117.58 57.91 122.97 C 57.73 132.35 56.68 141.68 56.61 151.07 C 44.07 144.98 36.49 132.42 30.83 120.22 C 28.59 115.82 29.46 110.79 29.69 106.08 C 30.40 96.34 30.05 86.57 30.35 76.82 Z" />
</g>
<g id="#b2aeadff">
<path fill="#b2aead" opacity="1.00" d=" M 172.11 83.17 C 173.76 83.53 173.80 88.83 171.96 88.88 C 171.92 86.97 172.00 85.07 172.11 83.17 Z" />
</g>
<g id="#bbb2b0ff">
<path fill="#bbb2b0" opacity="1.00" d=" M 163.76 88.79 C 165.86 87.21 168.36 86.32 170.87 85.61 C 170.27 95.67 169.93 105.73 169.59 115.80 C 169.23 119.88 169.59 124.19 167.91 128.02 C 161.82 140.46 152.80 153.09 138.73 156.90 C 138.63 144.93 139.43 132.96 139.92 121.00 C 140.06 118.14 139.80 114.99 141.61 112.56 C 147.65 103.54 154.91 95.17 163.76 88.79 Z" />
</g>
<g id="#010101ff">
<path fill="#010101" opacity="1.00" d=" M 80.77 87.25 C 88.61 86.82 96.53 86.42 104.32 87.62 C 103.73 87.74 102.53 88.00 101.93 88.13 C 95.41 87.91 88.89 87.97 82.37 88.11 C 81.97 87.89 81.17 87.47 80.77 87.25 Z" />
</g>
<g id="#1f1d1bff">
<path fill="#1f1d1b" opacity="1.00" d=" M 81.67 91.51 C 85.97 90.00 90.59 90.01 95.09 90.22 C 102.92 90.67 110.83 91.69 118.17 94.60 C 111.19 94.85 104.18 95.08 97.22 94.38 C 92.01 93.60 86.82 92.63 81.67 91.51 Z" />
</g>
<g id="#b2acacfb">
<path fill="#b2acac" opacity="1.00" d=" M 170.99 113.35 C 171.08 110.41 171.44 107.49 171.87 104.59 C 171.70 107.46 173.01 110.93 170.99 113.35 Z" />
</g>
<g id="#b1afaeff">
<path fill="#b1afae" opacity="1.00" d=" M 27.66 109.59 C 27.71 112.45 27.79 115.31 27.86 118.16 L 27.00 118.33 C 27.20 115.44 26.37 112.30 27.66 109.59 Z" />
</g>
</svg>
