<?xml version="1.0" encoding="UTF-8" ?>
<!DOCTYPE svg PUBLIC "-//W3C//DTD SVG 1.1//EN" "http://www.w3.org/Graphics/SVG/1.1/DTD/svg11.dtd">
<svg width="512pt" height="512pt" viewBox="0 0 512 512" version="1.1" xmlns="http://www.w3.org/2000/svg">
<g id="#a730beff">
<path fill="#a730be" opacity="1.00" d=" M 247.39 46.47 C 282.60 45.03 318.17 52.43 349.73 68.15 C 402.95 94.27 444.08 143.83 459.57 201.10 C 472.36 247.06 468.99 297.35 449.97 341.12 C 434.30 377.72 407.86 409.56 375.00 432.00 C 341.89 454.73 302.13 467.53 262.00 468.56 C 220.30 469.80 178.28 458.35 143.09 435.91 C 99.29 408.31 66.19 364.08 52.55 314.08 C 43.24 280.65 42.37 244.92 50.00 211.07 C 61.14 160.34 92.08 114.42 134.62 84.70 C 167.47 61.41 207.18 48.07 247.39 46.47 M 169.66 128.72 C 153.86 144.59 138.00 160.39 122.19 176.23 C 116.14 182.08 116.17 192.82 122.27 198.62 C 138.46 214.80 154.63 231.01 170.85 247.17 C 176.42 252.96 186.62 252.96 192.23 247.21 C 198.15 241.64 198.21 231.26 192.34 225.62 C 184.57 217.82 176.82 209.99 168.96 202.28 C 216.33 202.33 263.70 202.26 311.07 202.28 C 330.31 202.35 349.14 211.99 360.58 227.43 C 369.56 239.18 374.07 254.19 373.14 268.94 C 372.26 286.80 363.15 303.98 349.02 314.91 C 338.04 323.63 324.02 328.37 310.02 328.28 C 250.99 328.29 191.95 328.24 132.92 328.28 C 124.97 328.12 117.83 335.09 117.72 343.04 C 117.29 351.31 124.71 358.89 132.98 358.67 C 192.68 358.65 252.38 358.68 312.08 358.63 C 343.41 358.33 373.73 340.80 389.89 314.01 C 401.96 294.51 406.31 270.47 402.02 247.95 C 398.03 226.21 385.90 206.13 368.63 192.35 C 352.44 179.29 331.77 171.90 310.96 171.85 C 263.86 171.85 216.76 171.81 169.67 171.83 C 177.28 164.38 184.76 156.80 192.29 149.27 C 196.49 145.17 197.86 138.57 195.81 133.09 C 193.84 127.37 188.04 123.31 182.01 123.25 C 177.30 122.99 172.76 125.27 169.66 128.72 Z" />
</g>
</svg>
