<?xml version="1.0" encoding="UTF-8" ?>
<!DOCTYPE svg PUBLIC "-//W3C//DTD SVG 1.1//EN" "http://www.w3.org/Graphics/SVG/1.1/DTD/svg11.dtd">
<svg width="200pt" height="200pt" viewBox="0 0 200 200" version="1.1" xmlns="http://www.w3.org/2000/svg">
<g id="#086b7ffe">
<path fill="#086b7f" opacity="1.00" d=" M 37.54 49.50 C 57.20 36.13 81.25 29.63 104.96 30.63 C 129.82 31.95 154.18 41.71 172.93 58.10 C 177.84 62.23 182.16 66.99 186.44 71.75 C 180.22 78.34 174.03 84.95 167.77 91.51 C 154.74 75.90 136.69 64.27 116.62 60.33 C 84.97 53.36 50.58 66.88 30.81 92.25 C 23.79 86.43 18.17 79.19 11.72 72.78 C 19.25 63.92 27.64 55.69 37.54 49.50 M 62.57 39.99 C 47.17 45.37 32.88 54.25 21.46 65.91 C 18.99 68.04 16.70 70.38 14.69 72.96 C 19.29 78.59 24.78 83.39 29.53 88.89 C 31.55 87.42 33.28 85.60 34.77 83.60 C 44.82 73.01 57.15 64.62 70.85 59.50 C 80.58 56.38 90.68 54.37 100.92 54.29 C 105.61 54.52 110.28 54.95 114.94 55.60 C 123.84 57.27 132.38 60.29 140.62 64.00 C 149.95 69.21 158.78 75.42 166.13 83.23 C 167.30 84.43 168.47 85.62 169.65 86.81 C 174.10 82.37 178.39 77.77 182.46 72.99 C 180.58 70.59 178.54 68.33 176.39 66.18 C 167.88 58.14 158.56 50.80 148.01 45.63 C 138.82 41.05 129.04 37.14 118.79 35.94 L 118.91 35.33 C 112.67 34.69 106.43 33.81 100.15 33.71 C 87.40 33.62 74.51 35.44 62.57 39.99 Z" />
<path fill="#086b7f" opacity="1.00" d=" M 80.09 69.03 C 89.82 66.23 100.10 65.88 110.12 66.96 C 130.81 69.30 150.01 80.51 162.97 96.70 C 156.98 102.81 151.30 109.22 145.19 115.22 C 137.94 105.69 127.70 98.46 116.40 94.56 C 100.56 89.56 82.52 91.58 68.42 100.46 C 62.28 104.20 56.88 109.04 52.17 114.45 C 46.45 109.49 41.52 103.74 36.29 98.29 C 47.27 84.22 62.74 73.49 80.09 69.03 M 75.83 72.95 C 63.09 77.11 51.73 84.76 42.40 94.31 C 41.31 95.73 40.22 97.17 39.16 98.61 C 43.13 102.87 47.19 107.06 51.32 111.17 C 53.00 109.69 54.56 108.09 56.00 106.38 C 63.52 99.02 72.63 93.47 82.59 90.10 C 89.24 88.70 95.99 87.87 102.78 87.92 C 104.53 88.08 106.28 88.24 108.03 88.39 C 114.62 89.68 121.02 91.75 127.13 94.55 C 132.87 97.81 138.12 101.81 142.97 106.27 C 144.30 107.70 145.63 109.13 146.99 110.54 C 151.27 106.53 155.30 102.25 159.24 97.90 C 158.33 96.67 157.42 95.45 156.51 94.23 C 150.11 87.78 142.90 82.05 134.82 77.85 C 127.62 74.06 119.82 71.51 111.82 70.10 C 108.32 69.58 104.80 69.27 101.27 69.15 C 92.65 69.07 83.98 70.06 75.83 72.95 Z" />
<path fill="#086b7f" opacity="1.00" d=" M 87.02 100.19 C 101.09 96.35 116.84 98.82 128.78 107.29 C 133.70 110.49 137.67 114.85 141.59 119.16 C 135.93 125.21 130.41 131.41 124.44 137.16 C 120.20 131.06 114.28 125.84 106.97 123.93 C 94.53 119.86 80.58 126.03 73.27 136.43 C 67.91 131.46 62.94 126.10 57.96 120.77 C 65.03 110.97 75.18 103.15 87.02 100.19 M 87.74 102.74 C 78.56 105.23 69.89 110.21 63.71 117.51 C 62.72 118.63 61.72 119.74 60.73 120.86 C 64.51 124.99 68.39 129.04 72.33 133.04 C 74.26 131.28 76.08 129.39 77.76 127.39 C 82.54 123.34 88.30 120.73 94.32 119.15 C 101.43 118.70 108.62 119.62 115.02 122.90 C 117.05 124.38 119.10 125.83 121.15 127.29 C 122.78 129.05 124.43 130.81 126.10 132.54 C 130.28 128.82 133.99 124.63 137.84 120.59 C 136.76 119.12 135.66 117.66 134.55 116.21 C 130.77 112.62 126.64 109.43 122.09 106.89 C 116.71 104.07 110.88 102.00 104.77 101.64 C 104.66 103.12 104.56 104.60 104.46 106.08 C 104.39 104.58 104.32 103.08 104.26 101.58 C 98.73 100.95 93.11 101.23 87.74 102.74 Z" />
<path fill="#086b7f" opacity="1.00" d=" M 98.35 134.15 C 110.68 133.02 121.22 145.91 118.56 157.80 C 117.21 167.82 107.13 176.00 96.99 174.13 C 86.39 172.64 79.22 161.22 81.03 150.95 C 82.16 142.30 89.64 134.98 98.35 134.15 M 83.54 150.22 C 81.97 157.86 85.21 167.47 93.13 170.09 L 93.33 170.79 C 94.57 171.14 95.81 171.48 97.06 171.82 C 102.31 172.29 108.17 170.81 111.23 166.18 C 119.44 158.73 116.92 143.59 107.03 138.84 C 105.14 137.17 102.48 137.03 100.15 136.46 C 92.33 136.60 85.03 142.52 83.54 150.22 Z" />
</g>
<g id="#61e6ffff">
<path fill="#61e6ff" opacity="1.00" d=" M 62.57 39.99 C 74.51 35.44 87.40 33.62 100.15 33.71 C 100.44 40.57 100.61 47.43 100.92 54.29 C 90.68 54.37 80.58 56.38 70.85 59.50 C 67.78 53.14 65.14 46.58 62.57 39.99 Z" />
<path fill="#61e6ff" opacity="1.00" d=" M 118.79 35.94 C 129.04 37.14 138.82 41.05 148.01 45.63 C 145.18 51.60 142.79 57.76 140.62 64.00 C 132.38 60.29 123.84 57.27 114.94 55.60 C 116.06 49.01 117.43 42.48 118.79 35.94 Z" />
<path fill="#61e6ff" opacity="1.00" d=" M 75.83 72.95 C 83.98 70.06 92.65 69.07 101.27 69.15 C 101.80 75.41 102.15 81.67 102.78 87.92 C 95.99 87.87 89.24 88.70 82.59 90.10 C 80.68 84.26 78.33 78.57 75.83 72.95 Z" />
<path fill="#61e6ff" opacity="1.00" d=" M 111.82 70.10 C 119.82 71.51 127.62 74.06 134.82 77.85 C 132.01 83.31 129.77 89.02 127.13 94.55 C 121.02 91.75 114.62 89.68 108.03 88.39 C 109.40 82.32 110.58 76.20 111.82 70.10 Z" />
<path fill="#61e6ff" opacity="1.00" d=" M 87.74 102.74 C 93.11 101.23 98.73 100.95 104.26 101.58 C 104.32 103.08 104.39 104.58 104.46 106.08 C 104.56 104.60 104.66 103.12 104.77 101.64 C 110.88 102.00 116.71 104.07 122.09 106.89 C 119.66 112.19 117.29 117.52 115.02 122.90 C 108.62 119.62 101.43 118.70 94.32 119.15 C 92.36 113.59 90.08 108.15 87.74 102.74 Z" />
<path fill="#61e6ff" opacity="1.00" d=" M 100.15 136.46 C 102.48 137.03 105.14 137.17 107.03 138.84 L 107.45 139.41 C 102.65 143.02 98.00 147.38 96.15 153.28 C 93.88 159.32 95.14 165.88 97.06 171.82 C 95.81 171.48 94.57 171.14 93.33 170.79 L 93.13 170.09 C 91.20 163.57 89.82 156.50 91.86 149.83 C 93.29 144.67 96.86 140.54 100.15 136.46 Z" />
</g>
<g id="#0cd9ffff">
<path fill="#0cd9ff" opacity="1.00" d=" M 100.15 33.71 C 106.43 33.81 112.67 34.69 118.91 35.33 L 118.79 35.94 C 117.43 42.48 116.06 49.01 114.94 55.60 C 110.28 54.95 105.61 54.52 100.92 54.29 C 100.61 47.43 100.44 40.57 100.15 33.71 Z" />
<path fill="#0cd9ff" opacity="1.00" d=" M 21.46 65.91 C 32.88 54.25 47.17 45.37 62.57 39.99 C 65.14 46.58 67.78 53.14 70.85 59.50 C 57.15 64.62 44.82 73.01 34.77 83.60 C 32.09 82.30 29.20 81.10 27.24 78.76 C 24.02 75.18 22.79 70.41 21.46 65.91 Z" />
<path fill="#0cd9ff" opacity="1.00" d=" M 140.62 64.00 C 142.79 57.76 145.18 51.60 148.01 45.63 C 158.56 50.80 167.88 58.14 176.39 66.18 C 175.68 69.62 175.16 73.24 173.23 76.26 C 171.44 79.11 168.70 81.15 166.13 83.23 C 158.78 75.42 149.95 69.21 140.62 64.00 Z" />
<path fill="#0cd9ff" opacity="1.00" d=" M 101.27 69.15 C 104.80 69.27 108.32 69.58 111.82 70.10 C 110.58 76.20 109.40 82.32 108.03 88.39 C 106.28 88.24 104.53 88.08 102.78 87.92 C 102.15 81.67 101.80 75.41 101.27 69.15 Z" />
<path fill="#0cd9ff" opacity="1.00" d=" M 42.40 94.31 C 51.73 84.76 63.09 77.11 75.83 72.95 C 78.33 78.57 80.68 84.26 82.59 90.10 C 72.63 93.47 63.52 99.02 56.00 106.38 C 52.82 104.88 49.47 103.55 46.75 101.24 C 44.63 99.43 43.60 96.75 42.40 94.31 Z" />
<path fill="#0cd9ff" opacity="1.00" d=" M 134.82 77.85 C 142.90 82.05 150.11 87.78 156.51 94.23 C 153.85 100.00 148.65 103.79 142.97 106.27 C 138.12 101.81 132.87 97.81 127.13 94.55 C 129.77 89.02 132.01 83.31 134.82 77.85 Z" />
<path fill="#0cd9ff" opacity="1.00" d=" M 63.71 117.51 C 69.89 110.21 78.56 105.23 87.74 102.74 C 90.08 108.15 92.36 113.59 94.32 119.15 C 88.30 120.73 82.54 123.34 77.76 127.39 C 72.08 125.73 67.58 121.84 63.71 117.51 Z" />
<path fill="#0cd9ff" opacity="1.00" d=" M 122.09 106.89 C 126.64 109.43 130.77 112.62 134.55 116.21 C 131.95 121.79 126.77 125.25 121.15 127.29 C 119.10 125.83 117.05 124.38 115.02 122.90 C 117.29 117.52 119.66 112.19 122.09 106.89 Z" />
<path fill="#0cd9ff" opacity="1.00" d=" M 83.54 150.22 C 85.03 142.52 92.33 136.60 100.15 136.46 C 96.86 140.54 93.29 144.67 91.86 149.83 C 89.82 156.50 91.20 163.57 93.13 170.09 C 85.21 167.47 81.97 157.86 83.54 150.22 Z" />
<path fill="#0cd9ff" opacity="1.00" d=" M 96.15 153.28 C 98.00 147.38 102.65 143.02 107.45 139.41 C 109.82 142.99 112.23 146.75 112.91 151.06 C 113.73 156.15 112.64 161.30 111.23 166.18 C 108.17 170.81 102.31 172.29 97.06 171.82 C 95.14 165.88 93.88 159.32 96.15 153.28 Z" />
</g>
<g id="#0abadaff">
<path fill="#0abada" opacity="1.00" d=" M 14.69 72.96 C 16.70 70.38 18.99 68.04 21.46 65.91 C 22.79 70.41 24.02 75.18 27.24 78.76 C 29.20 81.10 32.09 82.30 34.77 83.60 C 33.28 85.60 31.55 87.42 29.53 88.89 C 24.78 83.39 19.29 78.59 14.69 72.96 Z" />
<path fill="#0abada" opacity="1.00" d=" M 176.39 66.18 C 178.54 68.33 180.58 70.59 182.46 72.99 C 178.39 77.77 174.10 82.37 169.65 86.81 C 168.47 85.62 167.30 84.43 166.13 83.23 C 168.70 81.15 171.44 79.11 173.23 76.26 C 175.16 73.24 175.68 69.62 176.39 66.18 Z" />
<path fill="#0abada" opacity="1.00" d=" M 39.16 98.61 C 40.22 97.17 41.31 95.73 42.40 94.31 C 43.60 96.75 44.63 99.43 46.75 101.24 C 49.47 103.55 52.82 104.88 56.00 106.38 C 54.56 108.09 53.00 109.69 51.32 111.17 C 47.19 107.06 43.13 102.87 39.16 98.61 Z" />
<path fill="#0abada" opacity="1.00" d=" M 156.51 94.23 C 157.42 95.45 158.33 96.67 159.24 97.90 C 155.30 102.25 151.27 106.53 146.99 110.54 C 145.63 109.13 144.30 107.70 142.97 106.27 C 148.65 103.79 153.85 100.00 156.51 94.23 Z" />
<path fill="#0abada" opacity="1.00" d=" M 134.55 116.21 C 135.66 117.66 136.76 119.12 137.84 120.59 C 133.99 124.63 130.28 128.82 126.10 132.54 C 124.43 130.81 122.78 129.05 121.15 127.29 C 126.77 125.25 131.95 121.79 134.55 116.21 Z" />
<path fill="#0abada" opacity="1.00" d=" M 60.73 120.86 C 61.72 119.74 62.72 118.63 63.71 117.51 C 67.58 121.84 72.08 125.73 77.76 127.39 C 76.08 129.39 74.26 131.28 72.33 133.04 C 68.39 129.04 64.51 124.99 60.73 120.86 Z" />
<path fill="#0abada" opacity="1.00" d=" M 107.03 138.84 C 116.92 143.59 119.44 158.73 111.23 166.18 C 112.64 161.30 113.73 156.15 112.91 151.06 C 112.23 146.75 109.82 142.99 107.45 139.41 L 107.03 138.84 Z" />
</g>
</svg>
