<?xml version="1.0" encoding="UTF-8" ?>
<!DOCTYPE svg PUBLIC "-//W3C//DTD SVG 1.1//EN" "http://www.w3.org/Graphics/SVG/1.1/DTD/svg11.dtd">
<svg width="200pt" height="200pt" viewBox="0 0 200 200" version="1.1" xmlns="http://www.w3.org/2000/svg">
<g id="#312f30ff">
<path fill="#312f30" opacity="1.00" d=" M 83.42 0.00 L 89.61 0.00 C 92.83 1.65 96.34 3.88 97.25 7.63 C 97.85 10.54 97.95 13.52 98.39 16.45 C 100.89 17.09 104.20 16.78 105.66 19.36 C 108.78 24.00 111.26 29.03 114.27 33.73 C 115.78 36.40 117.77 38.92 118.41 41.98 C 117.81 44.48 115.43 46.19 114.49 48.62 C 116.63 48.37 118.74 47.86 120.89 47.81 C 122.67 48.28 123.51 50.16 124.50 51.53 C 128.18 57.84 131.82 64.17 135.64 70.40 C 136.80 72.55 138.60 74.94 137.70 77.52 C 135.89 79.42 133.56 80.71 131.53 82.34 C 134.93 82.88 138.33 82.24 141.72 81.96 C 147.33 90.28 152.22 99.10 157.19 107.81 C 159.60 113.12 151.78 113.76 149.44 117.03 C 153.28 118.91 156.65 114.58 160.54 115.32 C 162.74 116.91 163.91 119.46 165.29 121.71 C 168.63 127.64 172.21 133.43 175.67 139.30 C 176.59 141.16 178.24 143.50 176.70 145.50 C 174.24 147.84 170.85 148.82 167.86 150.31 C 169.38 154.68 172.33 158.46 173.46 162.96 C 171.89 166.48 167.60 167.55 164.63 169.66 C 161.41 171.24 157.55 174.83 153.98 172.07 C 150.41 168.83 149.32 163.78 146.84 159.76 C 138.74 162.78 130.99 166.68 123.03 170.04 C 117.30 172.76 111.28 174.88 105.73 177.97 C 107.02 182.64 109.81 186.96 110.20 191.82 C 106.43 196.16 100.02 196.95 95.25 200.00 L 91.12 200.00 C 87.64 196.55 86.42 191.73 84.87 187.26 C 82.29 188.15 79.77 189.30 77.05 189.69 C 74.06 189.18 73.54 185.73 72.59 183.39 C 70.27 175.48 66.92 167.88 64.95 159.88 C 64.07 155.34 69.93 154.55 72.81 152.74 C 72.58 152.20 72.13 151.13 71.90 150.60 C 68.91 151.25 65.23 154.13 62.43 151.67 C 60.39 148.95 59.84 145.45 58.68 142.31 C 56.74 135.75 53.88 129.47 52.33 122.80 C 51.62 118.73 56.75 117.85 59.41 116.28 C 59.49 115.72 59.65 114.60 59.73 114.04 C 56.93 114.55 54.22 115.76 51.35 115.73 C 49.25 115.20 48.69 112.84 47.96 111.11 C 45.85 104.85 43.90 98.54 41.62 92.35 C 40.80 89.68 39.54 87.00 39.72 84.15 C 41.03 81.57 44.13 80.79 46.49 79.46 C 46.54 78.87 46.65 77.68 46.71 77.09 C 43.96 77.70 41.25 79.00 38.38 78.76 C 35.72 77.06 35.33 73.56 34.25 70.83 C 32.51 64.73 30.03 58.86 28.38 52.75 C 27.34 48.58 32.60 47.44 35.23 45.67 C 34.00 40.03 27.42 36.40 28.90 30.10 C 29.82 21.99 40.69 17.63 46.79 23.18 C 51.78 26.68 50.46 33.27 51.92 38.41 C 62.23 34.30 72.34 29.67 82.40 24.98 C 80.50 19.56 74.52 15.39 75.87 9.10 C 76.46 4.86 80.06 2.15 83.42 0.00 M 84.35 2.40 C 77.83 3.88 75.52 13.10 80.47 17.53 C 85.21 22.49 94.63 19.60 95.67 12.79 C 97.16 6.50 90.49 0.39 84.35 2.40 M 92.79 20.70 C 94.53 19.79 97.33 19.34 97.02 16.79 C 95.33 17.76 93.95 19.15 92.79 20.70 M 91.37 23.44 C 76.35 30.05 61.36 36.72 46.35 43.36 C 42.39 45.17 38.28 46.67 34.51 48.88 C 37.05 55.88 38.53 63.37 42.16 69.91 C 66.26 59.82 89.94 48.71 113.97 38.43 C 113.26 35.64 111.61 33.26 110.15 30.83 C 107.70 26.84 105.54 22.66 102.82 18.84 C 98.79 19.81 95.15 21.82 91.37 23.44 M 83.09 21.55 C 81.87 22.51 83.36 24.81 84.68 23.78 C 85.89 22.82 84.40 20.52 83.09 21.55 M 86.54 22.15 C 86.69 23.57 87.35 23.80 88.50 22.85 C 88.35 21.43 87.70 21.20 86.54 22.15 M 36.36 23.47 C 29.91 25.81 29.00 35.63 34.79 39.23 C 40.23 43.47 49.11 38.84 48.86 32.00 C 49.36 25.69 42.06 20.78 36.36 23.47 M 46.02 41.00 C 47.82 40.57 50.27 40.17 50.04 37.74 C 48.57 38.66 47.23 39.76 46.02 41.00 M 106.68 43.68 C 86.58 52.59 66.46 61.47 46.38 70.41 C 44.22 71.52 40.59 72.29 39.50 69.39 C 36.67 63.19 35.37 56.41 32.68 50.15 C 31.39 49.47 30.03 50.61 30.40 51.97 C 31.31 56.30 33.13 60.38 34.43 64.60 C 35.93 68.78 36.81 73.25 39.17 77.08 C 43.87 75.80 48.15 73.42 52.61 71.54 C 71.81 63.10 90.94 54.54 110.14 46.12 C 112.79 44.84 117.33 44.00 116.07 40.04 C 112.80 40.86 109.72 42.25 106.68 43.68 M 36.21 42.53 C 35.18 43.42 36.53 45.43 37.71 44.58 C 38.74 43.69 37.38 41.68 36.21 42.53 M 39.36 42.41 C 38.05 44.66 42.60 44.88 42.72 42.80 C 42.45 41.28 40.17 41.46 39.36 42.41 M 100.96 52.35 C 101.30 53.26 101.64 54.16 101.98 55.06 C 105.91 53.59 109.77 51.93 113.47 49.92 C 113.01 49.05 112.54 48.17 112.08 47.30 C 108.36 48.95 104.64 50.61 100.96 52.35 M 116.01 51.08 C 92.76 61.57 69.29 71.61 46.10 82.23 C 47.38 87.56 49.40 92.67 51.05 97.89 C 52.10 100.97 52.84 104.28 54.97 106.84 C 81.30 95.28 107.64 83.72 133.85 71.88 C 130.06 64.85 125.92 58.01 121.75 51.22 C 120.62 48.63 117.83 50.44 116.01 51.08 M 98.28 53.50 C 97.25 54.40 98.64 56.39 99.80 55.52 C 100.81 54.62 99.44 52.62 98.28 53.50 M 90.87 56.83 C 82.60 60.65 74.19 64.14 65.91 67.92 C 64.50 68.29 63.99 69.62 63.92 70.95 C 67.45 70.87 70.52 69.00 73.66 67.62 C 80.12 64.74 86.59 61.91 93.07 59.08 C 94.99 58.06 98.26 57.45 97.16 54.54 C 95.00 55.11 92.89 55.87 90.87 56.83 M 50.25 75.01 C 50.57 75.88 50.89 76.76 51.20 77.63 C 55.11 76.05 58.94 74.28 62.80 72.60 C 62.52 71.66 62.24 70.73 61.96 69.80 C 57.90 71.16 53.96 72.87 50.25 75.01 M 125.04 78.05 C 104.70 87.05 84.35 96.00 64.05 105.07 C 61.10 106.30 58.26 108.07 55.03 108.36 C 52.77 108.68 51.96 106.32 51.26 104.66 C 48.71 97.50 46.73 90.14 43.90 83.08 C 43.40 83.37 42.41 83.95 41.91 84.24 C 42.41 89.09 44.44 93.55 45.91 98.14 C 47.74 103.39 49.23 108.76 51.38 113.89 C 56.35 112.89 60.73 110.23 65.38 108.35 C 87.36 98.67 109.27 88.82 131.29 79.22 C 132.84 78.50 134.31 77.65 135.78 76.78 C 135.78 76.09 135.77 74.70 135.76 74.01 C 131.97 74.70 128.51 76.44 125.04 78.05 M 118.06 87.25 C 118.11 87.93 118.20 89.31 118.25 89.99 C 122.72 88.93 126.78 86.73 130.90 84.76 C 130.84 84.09 130.73 82.74 130.67 82.06 C 126.22 83.14 122.20 85.39 118.06 87.25 M 131.66 86.65 C 107.25 97.52 82.75 108.18 58.39 119.17 C 60.96 126.78 63.33 134.46 66.11 141.99 C 66.74 144.12 69.15 143.20 70.54 142.52 C 96.88 130.84 123.22 119.15 149.59 107.53 C 150.93 106.91 152.19 106.13 153.44 105.33 C 149.15 97.94 144.84 90.57 140.41 83.27 C 137.32 83.90 134.50 85.35 131.66 86.65 M 115.22 88.52 C 114.21 89.42 115.59 91.41 116.75 90.56 C 117.76 89.66 116.38 87.67 115.22 88.52 M 103.66 93.68 C 95.83 97.16 87.98 100.60 80.15 104.07 C 78.58 104.57 77.57 105.68 77.74 107.42 C 80.88 107.26 83.65 105.70 86.45 104.46 C 94.97 100.60 103.59 96.97 112.09 93.08 C 113.58 92.55 114.57 91.52 114.12 89.85 C 110.37 90.29 107.05 92.18 103.66 93.68 M 63.23 111.43 C 63.52 112.34 63.81 113.24 64.10 114.14 C 68.52 112.75 72.70 110.73 76.84 108.67 C 76.50 107.81 76.17 106.95 75.84 106.09 C 71.50 107.54 67.39 109.56 63.23 111.43 M 70.57 144.59 C 68.34 145.92 65.05 145.41 64.31 142.63 C 61.54 135.19 59.37 127.53 56.64 120.07 C 55.79 120.46 54.95 120.86 54.11 121.26 C 55.19 126.69 57.42 131.80 59.05 137.07 C 60.72 141.71 61.81 146.59 64.21 150.94 C 65.67 150.50 67.12 150.05 68.53 149.47 C 96.47 137.08 124.42 124.70 152.38 112.36 C 153.68 111.77 154.80 110.88 155.90 109.99 C 155.56 109.10 155.22 108.22 154.89 107.34 C 126.72 119.61 98.69 132.20 70.57 144.59 M 134.31 122.40 C 134.63 123.25 134.95 124.10 135.28 124.95 C 140.03 123.75 144.29 121.24 148.85 119.49 C 148.58 118.53 148.30 117.58 148.03 116.62 C 143.33 118.25 138.88 120.47 134.31 122.40 M 143.04 124.08 C 119.09 134.83 94.91 145.11 71.09 156.12 C 73.60 164.22 76.20 172.31 79.21 180.24 C 82.96 179.96 86.24 177.98 89.62 176.53 C 117.36 164.19 145.18 151.99 172.91 139.63 C 171.48 135.77 169.11 132.40 167.06 128.87 C 164.69 124.89 162.59 120.74 159.77 117.05 C 153.95 118.77 148.64 121.79 143.04 124.08 M 126.89 125.84 C 115.29 130.99 103.66 136.07 92.08 141.26 C 92.08 141.93 92.10 143.27 92.10 143.94 C 97.30 142.64 101.92 139.83 106.86 137.85 C 114.89 134.12 123.24 131.03 131.05 126.86 C 131.39 124.15 128.36 125.18 126.89 125.84 M 158.88 147.95 C 135.56 158.31 112.19 168.55 88.88 178.95 C 86.00 180.15 83.21 181.90 80.04 182.15 C 77.97 182.24 77.04 180.20 76.49 178.57 C 73.97 171.34 71.78 163.99 68.95 156.88 C 68.45 157.22 67.44 157.91 66.93 158.25 C 67.82 164.08 70.31 169.47 72.02 175.07 C 73.64 179.38 74.36 184.13 77.15 187.91 C 85.36 184.70 93.28 180.79 101.40 177.37 C 125.84 166.40 150.47 155.83 174.84 144.72 C 174.84 143.52 174.85 142.32 174.85 141.13 C 169.36 142.99 164.21 145.69 158.88 147.95 M 76.13 148.31 C 76.44 149.20 76.76 150.09 77.08 150.98 C 81.76 149.23 86.33 147.21 90.77 144.92 C 90.45 144.04 90.14 143.16 89.82 142.28 C 85.17 144.08 80.61 146.12 76.13 148.31 M 151.19 157.43 C 152.94 162.08 155.31 166.46 157.53 170.90 C 162.52 168.94 166.98 165.87 171.45 162.96 C 169.86 158.87 167.72 155.04 165.62 151.21 C 160.70 153.02 156.01 155.37 151.19 157.43 M 148.90 157.98 C 149.71 162.44 151.57 166.85 154.85 170.06 C 153.34 165.83 151.67 161.56 148.90 157.98 M 89.09 185.11 C 90.40 189.41 91.93 193.63 93.54 197.83 C 98.65 196.43 103.30 193.84 108.10 191.68 C 107.36 187.20 105.33 183.09 103.70 178.90 C 98.58 180.32 93.84 182.78 89.09 185.11 M 86.44 185.60 C 87.24 189.38 87.98 193.52 90.83 196.37 C 89.96 192.61 89.31 188.42 86.44 185.60 Z" />
<path fill="#312f30" opacity="1.00" d=" M 46.91 50.88 C 49.43 51.29 52.73 52.08 53.15 55.11 C 54.08 58.68 49.93 61.96 46.66 60.39 C 44.16 59.50 43.17 56.55 43.91 54.13 C 44.90 53.04 45.91 51.97 46.91 50.88 M 46.47 53.36 C 42.83 55.80 47.21 61.48 50.62 58.68 C 53.85 56.03 49.85 50.71 46.47 53.36 Z" />
<path fill="#312f30" opacity="1.00" d=" M 131.24 98.90 C 133.95 97.57 137.54 99.12 138.14 102.15 C 139.15 105.77 134.81 109.23 131.48 107.51 C 127.91 106.08 127.72 100.54 131.24 98.90 M 132.24 100.08 C 130.73 100.59 129.85 102.27 130.20 103.80 C 130.55 106.48 134.72 107.54 136.12 105.05 C 138.19 102.54 135.17 98.84 132.24 100.08 Z" />
<path fill="#312f30" opacity="1.00" d=" M 70.68 126.87 C 71.36 126.19 72.03 125.49 72.67 124.77 C 75.21 125.22 78.85 125.28 79.56 128.41 C 81.04 132.32 76.49 136.19 72.86 134.18 C 69.97 132.92 70.33 129.43 70.68 126.87 M 73.32 127.10 C 69.67 128.98 73.10 135.10 76.63 132.80 C 80.57 130.90 76.97 124.61 73.32 127.10 Z" />
<path fill="#312f30" opacity="1.00" d=" M 149.43 133.37 C 152.73 131.94 156.59 135.31 155.79 138.78 C 155.31 142.42 150.22 143.94 147.77 141.25 C 145.26 139.00 146.12 134.34 149.43 133.37 M 149.30 135.02 C 147.52 136.01 147.20 138.87 148.77 140.22 C 150.35 141.93 153.67 141.19 154.24 138.85 C 155.41 136.06 151.71 133.27 149.30 135.02 Z" />
<path fill="#312f30" opacity="1.00" d=" M 82.60 164.80 C 83.71 162.52 85.47 160.72 87.60 159.38 C 89.46 160.37 91.99 161.10 92.54 163.44 C 93.65 166.81 90.07 170.57 86.66 169.41 C 84.42 168.90 83.54 166.61 82.60 164.80 M 87.38 161.46 C 85.22 161.93 83.76 164.73 85.19 166.61 C 86.23 168.59 89.73 168.56 90.74 166.57 C 92.48 164.38 89.95 160.77 87.38 161.46 Z" />
</g>
<g id="#e9b369ff">
<path fill="#e9b369" opacity="1.00" d=" M 84.35 2.40 C 90.49 0.39 97.16 6.50 95.67 12.79 C 94.63 19.60 85.21 22.49 80.47 17.53 C 75.52 13.10 77.83 3.88 84.35 2.40 M 84.37 4.15 C 80.51 5.97 80.97 12.84 85.41 13.54 C 88.97 14.95 92.92 10.94 91.59 7.38 C 91.02 4.17 87.11 2.77 84.37 4.15 Z" />
<path fill="#e9b369" opacity="1.00" d=" M 36.36 23.47 C 42.06 20.78 49.36 25.69 48.86 32.00 C 49.11 38.84 40.23 43.47 34.79 39.23 C 29.00 35.63 29.91 25.81 36.36 23.47 M 38.34 25.18 C 35.79 26.56 34.36 30.16 36.28 32.63 C 38.30 35.79 43.68 35.63 45.11 31.99 C 47.50 27.94 42.37 23.13 38.34 25.18 Z" />
<path fill="#e9b369" opacity="1.00" d=" M 96.26 33.12 C 98.27 32.32 101.23 33.56 100.97 36.02 C 101.35 38.48 98.05 40.67 96.02 39.02 C 93.71 37.77 93.86 34.18 96.26 33.12 Z" />
<path fill="#e9b369" opacity="1.00" d=" M 46.47 53.36 C 49.85 50.71 53.85 56.03 50.62 58.68 C 47.21 61.48 42.83 55.80 46.47 53.36 Z" />
<path fill="#e9b369" opacity="1.00" d=" M 73.32 127.10 C 76.97 124.61 80.57 130.90 76.63 132.80 C 73.10 135.10 69.67 128.98 73.32 127.10 Z" />
<path fill="#e9b369" opacity="1.00" d=" M 149.30 135.02 C 151.71 133.27 155.41 136.06 154.24 138.85 C 153.67 141.19 150.35 141.93 148.77 140.22 C 147.20 138.87 147.52 136.01 149.30 135.02 Z" />
<path fill="#e9b369" opacity="1.00" d=" M 87.38 161.46 C 89.95 160.77 92.48 164.38 90.74 166.57 C 89.73 168.56 86.23 168.59 85.19 166.61 C 83.76 164.73 85.22 161.93 87.38 161.46 Z" />
</g>
<g id="#ffddb8ff">
<path fill="#ffddb8" opacity="1.00" d=" M 84.37 4.15 C 87.11 2.77 91.02 4.17 91.59 7.38 C 92.92 10.94 88.97 14.95 85.41 13.54 C 80.97 12.84 80.51 5.97 84.37 4.15 Z" />
</g>
<g id="#b3b3b3ff">
<path fill="#b3b3b3" opacity="1.00" d=" M 92.79 20.70 C 93.95 19.15 95.33 17.76 97.02 16.79 C 97.33 19.34 94.53 19.79 92.79 20.70 Z" />
<path fill="#b3b3b3" opacity="1.00" d=" M 46.02 41.00 C 47.23 39.76 48.57 38.66 50.04 37.74 C 50.27 40.17 47.82 40.57 46.02 41.00 Z" />
<path fill="#b3b3b3" opacity="1.00" d=" M 39.36 42.41 C 40.17 41.46 42.45 41.28 42.72 42.80 C 42.60 44.88 38.05 44.66 39.36 42.41 Z" />
<path fill="#b3b3b3" opacity="1.00" d=" M 50.25 75.01 C 53.96 72.87 57.90 71.16 61.96 69.80 C 62.24 70.73 62.52 71.66 62.80 72.60 C 58.94 74.28 55.11 76.05 51.20 77.63 C 50.89 76.76 50.57 75.88 50.25 75.01 Z" />
<path fill="#b3b3b3" opacity="1.00" d=" M 118.06 87.25 C 122.20 85.39 126.22 83.14 130.67 82.06 C 130.73 82.74 130.84 84.09 130.90 84.76 C 126.78 86.73 122.72 88.93 118.25 89.99 C 118.20 89.31 118.11 87.93 118.06 87.25 Z" />
<path fill="#b3b3b3" opacity="1.00" d=" M 63.23 111.43 C 67.39 109.56 71.50 107.54 75.84 106.09 C 76.17 106.95 76.50 107.81 76.84 108.67 C 72.70 110.73 68.52 112.75 64.10 114.14 C 63.81 113.24 63.52 112.34 63.23 111.43 Z" />
<path fill="#b3b3b3" opacity="1.00" d=" M 76.13 148.31 C 80.61 146.12 85.17 144.08 89.82 142.28 C 90.14 143.16 90.45 144.04 90.77 144.92 C 86.33 147.21 81.76 149.23 77.08 150.98 C 76.76 150.09 76.44 149.20 76.13 148.31 Z" />
<path fill="#b3b3b3" opacity="1.00" d=" M 151.19 157.43 C 156.01 155.37 160.70 153.02 165.62 151.21 C 167.72 155.04 169.86 158.87 171.45 162.96 C 166.98 165.87 162.52 168.94 157.53 170.90 C 155.31 166.46 152.94 162.08 151.19 157.43 Z" />
<path fill="#b3b3b3" opacity="1.00" d=" M 89.09 185.11 C 93.84 182.78 98.58 180.32 103.70 178.90 C 105.33 183.09 107.36 187.20 108.10 191.68 C 103.30 193.84 98.65 196.43 93.54 197.83 C 91.93 193.63 90.40 189.41 89.09 185.11 Z" />
</g>
<g id="#e265c3ff">
<path fill="#e265c3" opacity="1.00" d=" M 91.37 23.44 C 95.15 21.82 98.79 19.81 102.82 18.84 C 105.54 22.66 107.70 26.84 110.15 30.83 C 111.61 33.26 113.26 35.64 113.97 38.43 C 89.94 48.71 66.26 59.82 42.16 69.91 C 38.53 63.37 37.05 55.88 34.51 48.88 C 38.28 46.67 42.39 45.17 46.35 43.36 C 61.36 36.72 76.35 30.05 91.37 23.44 M 95.26 31.99 C 92.63 33.53 92.12 37.52 94.45 39.57 C 96.93 42.25 102.14 40.73 102.39 36.94 C 103.29 33.01 98.60 30.14 95.26 31.99 M 36.19 50.23 C 36.93 53.18 37.95 56.05 39.21 58.81 C 40.81 57.28 42.41 55.75 43.91 54.13 C 43.17 56.55 44.16 59.50 46.66 60.39 C 49.93 61.96 54.08 58.68 53.15 55.11 C 52.73 52.08 49.43 51.29 46.91 50.88 C 49.54 47.89 52.22 44.94 54.89 41.99 C 48.50 44.36 42.22 47.06 36.19 50.23 Z" />
</g>
<g id="#565455ff">
<path fill="#565455" opacity="1.00" d=" M 83.09 21.55 C 84.40 20.52 85.89 22.82 84.68 23.78 C 83.36 24.81 81.87 22.51 83.09 21.55 Z" />
</g>
<g id="#828182ff">
<path fill="#828182" opacity="1.00" d=" M 86.54 22.15 C 87.70 21.20 88.35 21.43 88.50 22.85 C 87.35 23.80 86.69 23.57 86.54 22.15 Z" />
</g>
<g id="#fddcb7ff">
<path fill="#fddcb7" opacity="1.00" d=" M 38.34 25.18 C 42.37 23.13 47.50 27.94 45.11 31.99 C 43.68 35.63 38.30 35.79 36.28 32.63 C 34.36 30.16 35.79 26.56 38.34 25.18 Z" />
</g>
<g id="#362428ff">
<path fill="#362428" opacity="1.00" d=" M 95.26 31.99 C 98.60 30.14 103.29 33.01 102.39 36.94 C 102.14 40.73 96.93 42.25 94.45 39.57 C 92.12 37.52 92.63 33.53 95.26 31.99 M 96.26 33.12 C 93.86 34.18 93.71 37.77 96.02 39.02 C 98.05 40.67 101.35 38.48 100.97 36.02 C 101.23 33.56 98.27 32.32 96.26 33.12 Z" />
</g>
<g id="#b74fa8ff">
<path fill="#b74fa8" opacity="1.00" d=" M 106.68 43.68 C 109.72 42.25 112.80 40.86 116.07 40.04 C 117.33 44.00 112.79 44.84 110.14 46.12 C 90.94 54.54 71.81 63.10 52.61 71.54 C 48.15 73.42 43.87 75.80 39.17 77.08 C 36.81 73.25 35.93 68.78 34.43 64.60 C 33.13 60.38 31.31 56.30 30.40 51.97 C 30.03 50.61 31.39 49.47 32.68 50.15 C 35.37 56.41 36.67 63.19 39.50 69.39 C 40.59 72.29 44.22 71.52 46.38 70.41 C 66.46 61.47 86.58 52.59 106.68 43.68 Z" />
</g>
<g id="#595859ff">
<path fill="#595859" opacity="1.00" d=" M 36.21 42.53 C 37.38 41.68 38.74 43.69 37.71 44.58 C 36.53 45.43 35.18 43.42 36.21 42.53 Z" />
</g>
<g id="#fffefeff">
<path fill="#fffefe" opacity="1.00" d=" M 36.19 50.23 C 42.22 47.06 48.50 44.36 54.89 41.99 C 52.22 44.94 49.54 47.89 46.91 50.88 C 45.91 51.97 44.90 53.04 43.91 54.13 C 42.41 55.75 40.81 57.28 39.21 58.81 C 37.95 56.05 36.93 53.18 36.19 50.23 Z" />
</g>
<g id="#b4b4b4ff">
<path fill="#b4b4b4" opacity="1.00" d=" M 100.96 52.35 C 104.64 50.61 108.36 48.95 112.08 47.30 C 112.54 48.17 113.01 49.05 113.47 49.92 C 109.77 51.93 105.91 53.59 101.98 55.06 C 101.64 54.16 101.30 53.26 100.96 52.35 Z" />
<path fill="#b4b4b4" opacity="1.00" d=" M 134.31 122.40 C 138.88 120.47 143.33 118.25 148.03 116.62 C 148.30 117.58 148.58 118.53 148.85 119.49 C 144.29 121.24 140.03 123.75 135.28 124.95 C 134.95 124.10 134.63 123.25 134.31 122.40 Z" />
</g>
<g id="#76bc1eff">
<path fill="#76bc1e" opacity="1.00" d=" M 116.01 51.08 C 117.83 50.44 120.62 48.63 121.75 51.22 C 125.92 58.01 130.06 64.85 133.85 71.88 C 107.64 83.72 81.30 95.28 54.97 106.84 C 52.84 104.28 52.10 100.97 51.05 97.89 C 49.40 92.67 47.38 87.56 46.10 82.23 C 69.29 71.61 92.76 61.57 116.01 51.08 M 113.39 65.27 C 109.91 66.63 109.89 72.39 113.35 73.82 C 116.55 75.50 120.82 72.71 120.21 69.05 C 120.12 65.76 116.20 63.82 113.39 65.27 M 48.09 83.34 C 48.69 86.64 49.88 89.80 51.18 92.89 C 57.12 86.94 62.82 80.73 68.28 74.34 C 61.49 77.19 54.75 80.18 48.09 83.34 M 59.38 89.26 C 57.12 90.61 56.17 93.89 57.89 96.05 C 59.83 99.56 65.96 98.44 66.47 94.43 C 67.66 90.49 62.75 87.10 59.38 89.26 Z" />
</g>
<g id="#585758ff">
<path fill="#585758" opacity="1.00" d=" M 98.28 53.50 C 99.44 52.62 100.81 54.62 99.80 55.52 C 98.64 56.39 97.25 54.40 98.28 53.50 Z" />
<path fill="#585758" opacity="1.00" d=" M 86.44 185.60 C 89.31 188.42 89.96 192.61 90.83 196.37 C 87.98 193.52 87.24 189.38 86.44 185.60 Z" />
</g>
<g id="#222321ff">
<path fill="#222321" opacity="1.00" d=" M 113.39 65.27 C 116.20 63.82 120.12 65.76 120.21 69.05 C 120.82 72.71 116.55 75.50 113.35 73.82 C 109.89 72.39 109.91 66.63 113.39 65.27 M 114.37 66.33 C 112.04 66.95 111.41 70.33 113.06 71.94 C 114.86 73.85 118.85 72.73 118.82 69.90 C 119.25 67.47 116.62 65.49 114.37 66.33 Z" />
</g>
<g id="#eab46aff">
<path fill="#eab46a" opacity="1.00" d=" M 114.37 66.33 C 116.62 65.49 119.25 67.47 118.82 69.90 C 118.85 72.73 114.86 73.85 113.06 71.94 C 111.41 70.33 112.04 66.95 114.37 66.33 Z" />
<path fill="#eab46a" opacity="1.00" d=" M 60.37 90.30 C 62.78 89.30 65.69 91.23 65.05 93.95 C 65.16 96.70 60.77 97.80 59.35 95.56 C 57.55 94.01 58.62 91.38 60.37 90.30 Z" />
</g>
<g id="#fdfdfdff">
<path fill="#fdfdfd" opacity="1.00" d=" M 48.09 83.34 C 54.75 80.18 61.49 77.19 68.28 74.34 C 62.82 80.73 57.12 86.94 51.18 92.89 C 49.88 89.80 48.69 86.64 48.09 83.34 Z" />
</g>
<g id="#648b1aff">
<path fill="#648b1a" opacity="1.00" d=" M 125.04 78.05 C 128.51 76.44 131.97 74.70 135.76 74.01 C 135.77 74.70 135.78 76.09 135.78 76.78 C 134.31 77.65 132.84 78.50 131.29 79.22 C 109.27 88.82 87.36 98.67 65.38 108.35 C 60.73 110.23 56.35 112.89 51.38 113.89 C 49.23 108.76 47.74 103.39 45.91 98.14 C 44.44 93.55 42.41 89.09 41.91 84.24 C 42.41 83.95 43.40 83.37 43.90 83.08 C 46.73 90.14 48.71 97.50 51.26 104.66 C 51.96 106.32 52.77 108.68 55.03 108.36 C 58.26 108.07 61.10 106.30 64.05 105.07 C 84.35 96.00 104.70 87.05 125.04 78.05 Z" />
</g>
<g id="#ffd924ff">
<path fill="#ffd924" opacity="1.00" d=" M 131.66 86.65 C 134.50 85.35 137.32 83.90 140.41 83.27 C 144.84 90.57 149.15 97.94 153.44 105.33 C 152.19 106.13 150.93 106.91 149.59 107.53 C 123.22 119.15 96.88 130.84 70.54 142.52 C 69.15 143.20 66.74 144.12 66.11 141.99 C 63.33 134.46 60.96 126.78 58.39 119.17 C 82.75 108.18 107.25 97.52 131.66 86.65 M 131.24 98.90 C 127.72 100.54 127.91 106.08 131.48 107.51 C 134.81 109.23 139.15 105.77 138.14 102.15 C 137.54 99.12 133.95 97.57 131.24 98.90 M 73.72 113.77 C 69.31 115.81 64.65 117.37 60.52 119.98 C 61.51 124.27 62.98 128.42 64.86 132.39 C 66.81 130.57 68.77 128.74 70.68 126.87 C 70.33 129.43 69.97 132.92 72.86 134.18 C 76.49 136.19 81.04 132.32 79.56 128.41 C 78.85 125.28 75.21 125.22 72.67 124.77 C 77.45 118.87 82.87 113.55 87.90 107.87 C 82.95 109.27 78.43 111.77 73.72 113.77 Z" />
</g>
<g id="#5a595aff">
<path fill="#5a595a" opacity="1.00" d=" M 115.22 88.52 C 116.38 87.67 117.76 89.66 116.75 90.56 C 115.59 91.41 114.21 89.42 115.22 88.52 Z" />
<path fill="#5a595a" opacity="1.00" d=" M 148.90 157.98 C 151.67 161.56 153.34 165.83 154.85 170.06 C 151.57 166.85 149.71 162.44 148.90 157.98 Z" />
</g>
<g id="#282f21ff">
<path fill="#282f21" opacity="1.00" d=" M 59.38 89.26 C 62.75 87.10 67.66 90.49 66.47 94.43 C 65.96 98.44 59.83 99.56 57.89 96.05 C 56.17 93.89 57.12 90.61 59.38 89.26 M 60.37 90.30 C 58.62 91.38 57.55 94.01 59.35 95.56 C 60.77 97.80 65.16 96.70 65.05 93.95 C 65.69 91.23 62.78 89.30 60.37 90.30 Z" />
</g>
<g id="#eab469ff">
<path fill="#eab469" opacity="1.00" d=" M 132.24 100.08 C 135.17 98.84 138.19 102.54 136.12 105.05 C 134.72 107.54 130.55 106.48 130.20 103.80 C 129.85 102.27 130.73 100.59 132.24 100.08 Z" />
</g>
<g id="#e5ad1cff">
<path fill="#e5ad1c" opacity="1.00" d=" M 70.57 144.59 C 98.69 132.20 126.72 119.61 154.89 107.34 C 155.22 108.22 155.56 109.10 155.90 109.99 C 154.80 110.88 153.68 111.77 152.38 112.36 C 124.42 124.70 96.47 137.08 68.53 149.47 C 67.12 150.05 65.67 150.50 64.21 150.94 C 61.81 146.59 60.72 141.71 59.05 137.07 C 57.42 131.80 55.19 126.69 54.11 121.26 C 54.95 120.86 55.79 120.46 56.64 120.07 C 59.37 127.53 61.54 135.19 64.31 142.63 C 65.05 145.41 68.34 145.92 70.57 144.59 Z" />
</g>
<g id="#ffffffff">
<path fill="#ffffff" opacity="1.00" d=" M 73.72 113.77 C 78.43 111.77 82.95 109.27 87.90 107.87 C 82.87 113.55 77.45 118.87 72.67 124.77 C 72.03 125.49 71.36 126.19 70.68 126.87 C 68.77 128.74 66.81 130.57 64.86 132.39 C 62.98 128.42 61.51 124.27 60.52 119.98 C 64.65 117.37 69.31 115.81 73.72 113.77 Z" />
</g>
<g id="#d13139ff">
<path fill="#d13139" opacity="1.00" d=" M 143.04 124.08 C 148.64 121.79 153.95 118.77 159.77 117.05 C 162.59 120.74 164.69 124.89 167.06 128.87 C 169.11 132.40 171.48 135.77 172.91 139.63 C 145.18 151.99 117.36 164.19 89.62 176.53 C 86.24 177.98 82.96 179.96 79.21 180.24 C 76.20 172.31 73.60 164.22 71.09 156.12 C 94.91 145.11 119.09 134.83 143.04 124.08 M 149.43 133.37 C 146.12 134.34 145.26 139.00 147.77 141.25 C 150.22 143.94 155.31 142.42 155.79 138.78 C 156.59 135.31 152.73 131.94 149.43 133.37 M 73.84 157.09 C 74.72 161.44 76.34 165.59 78.08 169.67 C 79.76 168.22 81.50 166.76 82.60 164.80 C 83.54 166.61 84.42 168.90 86.66 169.41 C 90.07 170.57 93.65 166.81 92.54 163.44 C 91.99 161.10 89.46 160.37 87.60 159.38 C 92.43 154.94 96.88 150.03 101.02 144.94 C 91.87 148.77 82.70 152.63 73.84 157.09 Z" />
</g>
<g id="#98252eff">
<path fill="#98252e" opacity="1.00" d=" M 158.88 147.95 C 164.21 145.69 169.36 142.99 174.85 141.13 C 174.85 142.32 174.84 143.52 174.84 144.72 C 150.47 155.83 125.84 166.40 101.40 177.37 C 93.28 180.79 85.36 184.70 77.15 187.91 C 74.36 184.13 73.64 179.38 72.02 175.07 C 70.31 169.47 67.82 164.08 66.93 158.25 C 67.44 157.91 68.45 157.22 68.95 156.88 C 71.78 163.99 73.97 171.34 76.49 178.57 C 77.04 180.20 77.97 182.24 80.04 182.15 C 83.21 181.90 86.00 180.15 88.88 178.95 C 112.19 168.55 135.56 158.31 158.88 147.95 Z" />
</g>
<g id="#fefefeff">
<path fill="#fefefe" opacity="1.00" d=" M 73.84 157.09 C 82.70 152.63 91.87 148.77 101.02 144.94 C 96.88 150.03 92.43 154.94 87.60 159.38 C 85.47 160.72 83.71 162.52 82.60 164.80 C 81.50 166.76 79.76 168.22 78.08 169.67 C 76.34 165.59 74.72 161.44 73.84 157.09 Z" />
</g>
</svg>
