<?xml version="1.0" encoding="UTF-8" ?>
<!DOCTYPE svg PUBLIC "-//W3C//DTD SVG 1.1//EN" "http://www.w3.org/Graphics/SVG/1.1/DTD/svg11.dtd">
<svg width="200pt" height="200pt" viewBox="0 0 200 200" version="1.1" xmlns="http://www.w3.org/2000/svg">
<g id="#a2060aff">
<path fill="#a2060a" opacity="1.00" d=" M 0.00 0.00 L 0.12 0.00 C 0.09 0.04 0.03 0.11 0.00 0.14 L 0.00 0.00 Z" />
<path fill="#a2060a" opacity="1.00" d=" M 92.70 43.88 L 94.19 42.98 C 103.32 47.52 112.23 52.57 120.77 58.15 C 120.88 58.79 121.11 60.07 121.22 60.71 L 120.20 60.51 C 119.24 60.31 118.29 60.09 117.34 59.85 C 116.83 59.69 115.81 59.36 115.30 59.19 C 108.54 53.01 100.59 48.43 92.70 43.88 Z" />
<path fill="#a2060a" opacity="1.00" d=" M 119.26 63.88 C 126.43 66.55 132.76 70.93 139.46 74.57 C 142.20 76.32 145.60 77.59 147.17 80.66 C 146.60 80.85 145.48 81.24 144.92 81.44 C 139.39 80.18 136.12 75.23 131.40 72.54 C 127.61 70.24 123.96 67.67 119.96 65.74 C 119.79 65.27 119.44 64.34 119.26 63.88 Z" />
<path fill="#a2060a" opacity="1.00" d=" M 69.97 67.93 C 70.95 67.07 71.58 65.34 73.04 65.21 C 78.72 67.40 83.49 71.47 86.69 76.63 C 85.81 77.32 84.94 78.02 84.08 78.73 C 81.70 76.48 79.66 73.88 77.14 71.78 C 74.45 69.83 71.11 71.46 68.23 72.03 C 68.17 71.54 68.04 70.58 67.97 70.10 C 68.57 69.50 69.14 68.89 69.69 68.26 L 69.97 67.93 Z" />
<path fill="#a2060a" opacity="1.00" d=" M 57.95 77.07 C 58.58 76.69 59.85 75.93 60.48 75.55 C 59.65 78.37 57.69 81.40 58.83 84.38 C 61.20 86.53 63.95 88.30 65.62 91.12 C 62.29 89.45 58.31 88.08 56.34 84.69 C 54.81 82.11 56.05 79.05 57.95 77.07 Z" />
<path fill="#a2060a" opacity="1.00" d=" M 90.97 92.88 C 93.66 90.60 96.35 88.32 99.02 86.02 C 104.68 88.50 109.50 92.55 112.56 97.96 C 111.39 98.43 110.24 98.96 109.10 99.50 C 106.81 96.95 104.94 93.83 101.90 92.11 C 98.86 90.66 95.70 92.37 93.03 93.79 C 92.35 93.47 91.66 93.16 90.97 92.88 Z" />
</g>
<g id="#feaf46ff">
<path fill="#feaf46" opacity="1.00" d=" M 136.22 40.01 C 137.54 38.53 138.47 35.79 140.93 36.49 C 143.98 37.11 146.59 38.91 149.22 40.48 C 148.19 42.75 148.19 45.24 148.36 47.67 C 145.79 47.02 142.97 46.86 140.74 45.30 C 139.29 43.62 139.20 41.24 138.59 39.19 C 137.80 39.46 137.01 39.74 136.22 40.01 Z" />
<path fill="#feaf46" opacity="1.00" d=" M 162.37 60.14 C 163.06 59.03 163.77 57.84 164.94 57.17 C 168.77 57.20 171.98 59.61 175.11 61.53 C 173.02 63.21 173.89 65.96 173.81 68.25 C 171.21 67.66 168.10 67.79 166.04 65.85 C 164.82 63.79 164.44 61.38 163.77 59.11 C 163.42 59.37 162.72 59.88 162.37 60.14 Z" />
</g>
<g id="#fd7914ff">
<path fill="#fd7914" opacity="1.00" d=" M 136.22 40.01 C 137.01 39.74 137.80 39.46 138.59 39.19 C 139.20 41.24 139.29 43.62 140.74 45.30 C 142.97 46.86 145.79 47.02 148.36 47.67 C 148.19 45.24 148.19 42.75 149.22 40.48 C 150.51 41.37 151.82 42.24 153.05 43.23 C 157.18 47.62 155.42 54.11 154.43 59.37 C 153.68 60.57 152.93 61.76 152.09 62.89 L 151.00 63.85 C 150.85 59.06 150.34 53.82 146.93 50.12 C 144.77 47.57 140.68 45.55 137.60 47.70 C 135.15 50.46 135.18 54.86 132.17 57.23 C 129.65 58.91 126.59 59.41 123.74 60.28 C 121.56 56.66 119.54 52.92 116.96 49.55 C 118.79 50.54 120.71 52.06 122.90 51.27 C 128.61 49.42 132.63 44.56 136.22 40.01 Z" />
<path fill="#fd7914" opacity="1.00" d=" M 162.37 60.14 C 162.72 59.88 163.42 59.37 163.77 59.11 C 164.44 61.38 164.82 63.79 166.04 65.85 C 168.10 67.79 171.21 67.66 173.81 68.25 C 173.89 65.96 173.02 63.21 175.11 61.53 C 176.52 62.43 177.89 63.38 179.21 64.41 C 182.91 69.45 181.32 76.40 179.03 81.72 C 178.46 82.56 177.88 83.39 177.26 84.19 L 176.19 85.07 C 176.13 83.08 176.10 81.09 175.97 79.11 C 175.42 75.59 174.07 72.01 171.23 69.71 C 169.03 67.62 165.28 66.73 162.76 68.75 C 160.79 71.61 160.48 75.47 157.86 77.89 C 155.24 79.79 151.92 80.21 148.88 81.07 C 147.71 77.39 145.10 74.47 143.06 71.26 C 144.58 71.74 146.10 72.22 147.65 72.63 C 150.99 71.60 153.91 69.60 156.43 67.22 C 157.13 66.50 157.81 65.75 158.46 64.98 C 159.79 63.39 160.95 61.66 162.37 60.14 Z" />
</g>
<g id="#fea7b8ff">
<path fill="#fea7b8" opacity="1.00" d=" M 90.02 44.30 C 92.80 44.47 94.48 41.83 97.03 41.19 C 96.07 41.78 95.14 42.39 94.19 42.98 L 92.70 43.88 C 100.59 48.43 108.54 53.01 115.30 59.19 C 114.21 61.08 113.42 63.31 111.57 64.61 C 108.59 66.74 104.86 67.14 101.42 68.08 C 97.67 63.90 92.38 61.39 88.90 56.97 C 86.70 53.02 90.11 48.86 89.97 44.75 L 90.02 44.30 Z" />
</g>
<g id="#d62a40ff">
<path fill="#d62a40" opacity="1.00" d=" M 97.03 41.19 C 104.87 38.12 111.89 44.33 116.96 49.55 C 119.54 52.92 121.56 56.66 123.74 60.28 L 124.24 61.01 C 127.26 61.44 130.54 61.15 133.27 62.77 C 135.50 64.04 137.47 65.69 139.51 67.24 C 140.25 67.82 140.99 68.41 141.71 69.02 C 142.05 69.58 142.73 70.70 143.06 71.26 C 145.10 74.47 147.71 77.39 148.88 81.07 C 149.02 81.66 149.30 82.82 149.43 83.40 C 148.94 83.18 147.96 82.74 147.47 82.51 C 146.63 82.14 145.77 81.78 144.92 81.44 C 145.48 81.24 146.60 80.85 147.17 80.66 C 145.60 77.59 142.20 76.32 139.46 74.57 C 132.76 70.93 126.43 66.55 119.26 63.88 C 119.44 64.34 119.79 65.27 119.96 65.74 C 119.60 65.61 118.88 65.34 118.52 65.21 C 118.11 63.43 117.71 61.64 117.34 59.85 C 118.29 60.09 119.24 60.31 120.20 60.51 C 118.05 60.81 118.82 63.77 120.80 63.23 C 121.91 62.71 122.05 61.87 121.22 60.71 C 121.11 60.07 120.88 58.79 120.77 58.15 C 112.23 52.57 103.32 47.52 94.19 42.98 C 95.14 42.39 96.07 41.78 97.03 41.19 Z" />
<path fill="#d62a40" opacity="1.00" d=" M 77.88 60.11 C 80.35 60.96 82.86 61.71 85.25 62.77 C 88.65 64.63 91.33 67.63 94.91 69.19 C 95.77 68.60 96.61 67.99 97.43 67.34 C 97.66 67.50 98.11 67.84 98.33 68.00 C 98.32 68.37 98.30 69.11 98.29 69.48 C 95.62 70.99 92.97 72.55 90.52 74.41 C 87.31 68.79 82.34 64.34 76.51 61.58 C 76.85 61.22 77.54 60.48 77.88 60.11 Z" />
<path fill="#d62a40" opacity="1.00" d=" M 65.36 73.02 C 66.05 71.88 66.87 70.84 67.97 70.10 C 68.04 70.58 68.17 71.54 68.23 72.03 C 71.11 71.46 74.45 69.83 77.14 71.78 C 79.66 73.88 81.70 76.48 84.08 78.73 C 83.26 79.41 82.46 80.12 81.67 80.84 C 80.43 81.75 79.18 82.65 77.94 83.57 C 74.59 79.31 71.12 73.97 65.36 73.02 Z" />
<path fill="#d62a40" opacity="1.00" d=" M 99.22 69.64 C 102.22 71.82 104.73 74.56 107.20 77.29 C 106.68 77.90 106.15 78.51 105.62 79.12 C 103.21 76.39 100.71 73.72 98.55 70.78 L 99.22 69.64 Z" />
<path fill="#d62a40" opacity="1.00" d=" M 60.48 75.55 C 60.68 75.41 61.06 75.13 61.26 74.99 C 66.15 77.24 70.48 80.67 73.49 85.16 C 73.49 85.62 73.49 86.56 73.49 87.03 C 70.99 88.45 68.50 89.87 66.13 91.49 L 65.62 91.12 C 63.95 88.30 61.20 86.53 58.83 84.38 C 57.69 81.40 59.65 78.37 60.48 75.55 Z" />
<path fill="#d62a40" opacity="1.00" d=" M 103.44 82.79 C 105.37 82.58 107.48 81.67 109.31 82.73 C 113.64 85.07 117.58 88.10 121.35 91.25 C 119.60 92.54 117.90 93.89 116.40 95.46 C 113.19 90.23 108.68 85.95 103.44 82.79 Z" />
<path fill="#d62a40" opacity="1.00" d=" M 93.03 93.79 C 95.70 92.37 98.86 90.66 101.90 92.11 C 104.94 93.83 106.81 96.95 109.10 99.50 C 107.95 100.47 106.82 101.45 105.66 102.42 C 105.14 102.82 104.08 103.64 103.55 104.05 C 100.45 100.24 97.21 96.46 93.03 93.79 Z" />
<path fill="#d62a40" opacity="1.00" d=" M 86.20 96.32 C 86.27 96.18 86.41 95.89 86.48 95.75 C 91.81 97.90 96.16 101.73 99.50 106.35 C 97.86 107.64 96.23 108.93 94.62 110.26 C 93.74 110.97 92.87 111.69 91.99 112.41 C 91.56 112.20 90.71 111.77 90.28 111.56 C 89.49 107.79 85.40 106.29 83.99 102.98 C 84.50 100.69 85.35 98.50 86.20 96.32 Z" />
</g>
<g id="#f97683ff">
<path fill="#f97683" opacity="1.00" d=" M 153.05 43.23 C 154.24 44.22 155.62 45.06 156.57 46.30 C 158.23 52.39 157.31 58.81 158.46 64.98 C 157.81 65.75 157.13 66.50 156.43 67.22 C 155.94 64.56 155.33 61.92 154.43 59.37 C 155.42 54.11 157.18 47.62 153.05 43.23 Z" />
</g>
<g id="#ff7e94ff">
<path fill="#ff7e94" opacity="1.00" d=" M 81.13 56.96 C 83.39 52.44 86.45 48.36 89.97 44.75 C 90.11 48.86 86.70 53.02 88.90 56.97 C 92.38 61.39 97.67 63.90 101.42 68.08 L 101.09 68.85 C 100.17 68.57 99.25 68.29 98.33 68.00 C 98.11 67.84 97.66 67.50 97.43 67.34 C 92.30 63.47 87.45 58.80 81.13 56.96 Z" />
<path fill="#ff7e94" opacity="1.00" d=" M 108.57 74.80 C 110.62 71.26 112.64 67.52 115.98 65.01 C 115.30 67.66 114.54 70.30 113.90 72.96 C 113.22 75.83 114.50 78.50 116.82 80.17 C 122.52 84.82 128.10 89.63 133.81 94.27 C 134.34 95.46 134.90 96.64 135.47 97.82 L 135.00 97.69 C 135.10 97.82 135.31 98.10 135.42 98.24 C 135.54 98.39 135.78 98.69 135.90 98.84 C 136.01 98.97 136.24 99.23 136.35 99.36 C 137.50 101.26 139.49 102.46 141.69 101.55 C 145.12 100.70 148.76 100.09 151.70 97.99 C 149.70 97.84 147.70 97.73 145.70 97.75 C 147.51 96.37 149.65 95.68 151.89 95.43 C 153.50 98.16 155.17 100.97 155.82 104.11 C 156.04 105.16 155.72 106.03 154.85 106.72 C 154.86 106.30 154.88 105.46 154.89 105.04 C 151.07 106.81 147.66 110.83 143.15 110.18 C 136.74 103.30 131.56 95.15 124.10 89.23 C 118.92 84.64 113.32 80.54 107.20 77.29 C 107.55 76.67 108.23 75.42 108.57 74.80 M 147.09 102.22 C 145.55 105.20 150.42 102.37 147.09 102.22 M 143.30 104.04 C 143.46 107.37 146.27 102.48 143.30 104.04 Z" />
<path fill="#ff7e94" opacity="1.00" d=" M 135.47 97.82 C 135.57 97.96 135.77 98.23 135.87 98.36 L 135.42 98.24 L 135.47 97.82 Z" />
<path fill="#ff7e94" opacity="1.00" d=" M 135.87 98.36 C 135.99 98.51 136.23 98.80 136.36 98.94 L 135.90 98.84 L 135.87 98.36 Z" />
<path fill="#ff7e94" opacity="1.00" d=" M 136.36 98.94 C 136.48 99.07 136.72 99.33 136.84 99.46 L 136.35 99.36 L 136.36 98.94 Z" />
</g>
<g id="#ee2906ff">
<path fill="#ee2906" opacity="1.00" d=" M 137.60 47.70 C 140.68 45.55 144.77 47.57 146.93 50.12 C 150.34 53.82 150.85 59.06 151.00 63.85 C 150.86 63.97 150.58 64.21 150.44 64.33 C 150.19 61.63 150.66 58.45 148.58 56.34 C 146.97 54.23 144.40 53.39 141.90 52.96 C 143.29 55.49 145.85 57.73 145.83 60.80 C 143.95 63.16 141.62 65.11 139.51 67.24 C 137.47 65.69 135.50 64.04 133.27 62.77 C 130.54 61.15 127.26 61.44 124.24 61.01 L 123.74 60.28 C 126.59 59.41 129.65 58.91 132.17 57.23 C 135.18 54.86 135.15 50.46 137.60 47.70 Z" />
<path fill="#ee2906" opacity="1.00" d=" M 141.71 69.02 C 142.63 66.88 144.92 65.59 147.12 66.76 C 145.61 68.09 143.71 68.85 141.71 69.02 Z" />
<path fill="#ee2906" opacity="1.00" d=" M 162.76 68.75 C 165.28 66.73 169.03 67.62 171.23 69.71 C 174.07 72.01 175.42 75.59 175.97 79.11 C 173.67 76.58 171.10 74.05 167.52 73.59 C 169.18 76.16 170.81 78.78 171.69 81.73 C 168.84 83.94 166.24 86.50 164.43 89.65 C 167.38 88.63 170.30 87.41 173.43 87.03 C 170.70 88.99 167.32 90.53 163.90 89.59 C 158.79 88.31 153.99 86.01 149.43 83.40 C 149.30 82.82 149.02 81.66 148.88 81.07 C 151.92 80.21 155.24 79.79 157.86 77.89 C 160.48 75.47 160.79 71.61 162.76 68.75 Z" />
</g>
<g id="#b30600ff">
<path fill="#b30600" opacity="1.00" d=" M 141.90 52.96 C 144.40 53.39 146.97 54.23 148.58 56.34 C 150.66 58.45 150.19 61.63 150.44 64.33 C 149.35 65.16 148.23 65.95 147.12 66.76 C 144.92 65.59 142.63 66.88 141.71 69.02 C 140.99 68.41 140.25 67.82 139.51 67.24 C 141.62 65.11 143.95 63.16 145.83 60.80 C 145.85 57.73 143.29 55.49 141.90 52.96 Z" />
<path fill="#b30600" opacity="1.00" d=" M 167.52 73.59 C 171.10 74.05 173.67 76.58 175.97 79.11 C 176.10 81.09 176.13 83.08 176.19 85.07 C 175.29 85.75 174.37 86.40 173.43 87.03 C 170.30 87.41 167.38 88.63 164.43 89.65 C 166.24 86.50 168.84 83.94 171.69 81.73 C 170.81 78.78 169.18 76.16 167.52 73.59 Z" />
</g>
<g id="#9f0308ff">
<path fill="#9f0308" opacity="1.00" d=" M 77.88 60.11 C 78.89 59.04 79.90 57.97 80.90 56.88 L 81.13 56.96 C 87.45 58.80 92.30 63.47 97.43 67.34 C 96.61 67.99 95.77 68.60 94.91 69.19 C 91.33 67.63 88.65 64.63 85.25 62.77 C 82.86 61.71 80.35 60.96 77.88 60.11 Z" />
</g>
<g id="#f87388ff">
<path fill="#f87388" opacity="1.00" d=" M 115.30 59.19 C 115.81 59.36 116.83 59.69 117.34 59.85 C 117.71 61.64 118.11 63.43 118.52 65.21 C 117.88 65.16 116.61 65.06 115.98 65.01 C 112.64 67.52 110.62 71.26 108.57 74.80 C 106.36 72.52 104.30 69.75 101.09 68.85 L 101.42 68.08 C 104.86 67.14 108.59 66.74 111.57 64.61 C 113.42 63.31 114.21 61.08 115.30 59.19 Z" />
</g>
<g id="#f997a5ff">
<path fill="#f997a5" opacity="1.00" d=" M 154.43 59.37 C 155.33 61.92 155.94 64.56 156.43 67.22 C 153.91 69.60 150.99 71.60 147.65 72.63 C 149.86 69.76 152.30 66.75 152.09 62.89 C 152.93 61.76 153.68 60.57 154.43 59.37 Z" />
</g>
<g id="#ee8882ff">
<path fill="#ee8882" opacity="1.00" d=" M 120.80 63.23 C 118.82 63.77 118.05 60.81 120.20 60.51 L 121.22 60.71 C 122.05 61.87 121.91 62.71 120.80 63.23 Z" />
</g>
<g id="#b5a4a4f5">
<path fill="#b5a4a4" opacity="0.96" d=" M 73.04 65.21 C 73.25 64.10 73.46 62.98 73.65 61.86 C 75.59 66.84 81.20 67.92 85.02 70.93 C 86.87 72.28 87.41 74.62 88.26 76.62 C 87.87 76.63 87.08 76.63 86.69 76.63 C 83.49 71.47 78.72 67.40 73.04 65.21 Z" />
</g>
<g id="#e6e7e7ff">
<path fill="#e6e7e7" opacity="1.00" d=" M 73.65 61.86 C 74.36 61.79 75.79 61.65 76.51 61.58 C 82.34 64.34 87.31 68.79 90.52 74.41 C 90.25 74.95 89.70 76.04 89.43 76.58 C 89.14 76.59 88.55 76.61 88.26 76.62 C 87.41 74.62 86.87 72.28 85.02 70.93 C 81.20 67.92 75.59 66.84 73.65 61.86 Z" />
</g>
<g id="#fcc17bff">
<path fill="#fcc17b" opacity="1.00" d=" M 151.00 63.85 L 152.09 62.89 C 152.30 66.75 149.86 69.76 147.65 72.63 C 146.10 72.22 144.58 71.74 143.06 71.26 C 142.73 70.70 142.05 69.58 141.71 69.02 C 143.71 68.85 145.61 68.09 147.12 66.76 C 148.23 65.95 149.35 65.16 150.44 64.33 C 150.58 64.21 150.86 63.97 151.00 63.85 Z" />
<path fill="#fcc17b" opacity="1.00" d=" M 144.45 83.33 C 145.21 83.13 146.72 82.72 147.47 82.51 C 147.96 82.74 148.94 83.18 149.43 83.40 C 153.99 86.01 158.79 88.31 163.90 89.59 C 167.32 90.53 170.70 88.99 173.43 87.03 C 174.37 86.40 175.29 85.75 176.19 85.07 L 177.26 84.19 C 178.46 88.31 174.67 91.61 171.41 93.32 C 167.48 95.44 163.15 93.57 159.48 91.86 C 154.74 88.57 149.55 86.01 144.45 83.33 Z" />
</g>
<g id="#ff8b96ff">
<path fill="#ff8b96" opacity="1.00" d=" M 179.21 64.41 C 180.64 65.64 182.57 66.75 182.53 68.90 C 184.11 81.55 183.64 94.35 183.97 107.07 L 183.47 108.14 C 183.33 106.36 183.09 104.59 182.83 102.82 C 178.59 114.38 171.63 125.51 160.96 132.09 C 151.02 137.38 139.45 138.70 129.45 143.77 C 130.12 143.92 131.45 144.21 132.12 144.36 C 123.24 146.46 114.38 148.87 105.26 149.65 C 103.62 150.06 102.03 150.65 100.39 151.08 C 96.79 151.41 93.17 151.47 89.56 151.33 C 84.55 148.56 78.35 148.25 72.77 149.08 C 71.86 148.87 70.95 148.65 70.05 148.41 C 66.25 144.97 62.75 141.12 61.28 136.07 C 65.03 136.52 68.88 136.87 72.37 138.44 C 78.64 141.38 85.73 140.24 92.33 139.43 C 105.83 137.56 119.68 140.43 133.02 137.06 C 144.95 134.29 154.76 126.54 164.54 119.61 C 170.42 115.51 175.87 110.43 178.73 103.72 C 182.18 96.76 181.45 88.76 180.65 81.29 C 180.25 81.40 179.43 81.61 179.03 81.72 C 181.32 76.40 182.91 69.45 179.21 64.41 Z" />
</g>
<g id="#ff96acff">
<path fill="#ff96ac" opacity="1.00" d=" M 115.98 65.01 C 116.61 65.06 117.88 65.16 118.52 65.21 C 118.88 65.34 119.60 65.61 119.96 65.74 C 123.96 67.67 127.61 70.24 131.40 72.54 C 136.12 75.23 139.39 80.18 144.92 81.44 C 145.77 81.78 146.63 82.14 147.47 82.51 C 146.72 82.72 145.21 83.13 144.45 83.33 C 145.21 84.54 145.98 85.75 146.75 86.95 C 148.33 89.85 150.04 92.69 151.89 95.43 C 149.65 95.68 147.51 96.37 145.70 97.75 C 143.13 99.58 139.96 100.85 136.84 99.46 C 136.72 99.33 136.48 99.07 136.36 98.94 C 136.23 98.80 135.99 98.51 135.87 98.36 C 135.77 98.23 135.57 97.96 135.47 97.82 C 134.90 96.64 134.34 95.46 133.81 94.27 C 136.36 95.24 139.41 96.59 142.04 95.09 C 144.71 93.65 144.44 89.96 143.28 87.60 C 141.27 84.13 138.01 81.62 135.01 79.04 C 130.85 75.80 126.55 72.53 121.62 70.56 C 118.76 69.31 116.25 71.69 113.90 72.96 C 114.54 70.30 115.30 67.66 115.98 65.01 Z" />
</g>
<g id="#e7e7e7ff">
<path fill="#e7e7e7" opacity="1.00" d=" M 62.03 71.51 C 65.00 71.73 67.15 69.36 69.69 68.26 C 69.14 68.89 68.57 69.50 67.97 70.10 C 66.87 70.84 66.05 71.88 65.36 73.02 C 71.12 73.97 74.59 79.31 77.94 83.57 C 79.18 82.65 80.43 81.75 81.67 80.84 C 81.50 81.09 81.15 81.58 80.98 81.83 C 79.69 83.30 78.25 84.63 76.81 85.96 C 74.47 79.70 68.19 76.59 62.40 74.22 C 62.11 74.41 61.54 74.80 61.26 74.99 C 61.06 75.13 60.68 75.41 60.48 75.55 C 60.97 74.19 61.44 72.83 62.03 71.51 Z" />
</g>
<g id="#f75469ff">
<path fill="#f75469" opacity="1.00" d=" M 98.33 68.00 C 99.25 68.29 100.17 68.57 101.09 68.85 C 104.30 69.75 106.36 72.52 108.57 74.80 C 108.23 75.42 107.55 76.67 107.20 77.29 C 104.73 74.56 102.22 71.82 99.22 69.64 L 98.55 70.78 L 98.19 71.38 L 98.29 69.48 C 98.30 69.11 98.32 68.37 98.33 68.00 Z" />
</g>
<g id="#fab4bfff">
<path fill="#fab4bf" opacity="1.00" d=" M 90.52 74.41 C 92.97 72.55 95.62 70.99 98.29 69.48 L 98.19 71.38 C 96.48 74.51 93.64 76.75 91.11 79.18 C 85.27 84.65 81.19 91.86 74.62 96.57 C 71.38 99.02 67.66 100.69 63.92 102.21 C 61.20 98.73 56.37 98.58 53.15 95.80 C 50.38 93.48 49.26 89.80 46.62 87.37 C 44.43 85.55 41.50 86.59 39.07 87.24 C 34.15 88.78 28.71 89.59 24.84 93.32 C 27.08 96.39 31.07 96.38 34.28 97.76 C 37.54 100.15 38.36 105.01 42.03 106.83 C 48.20 107.38 54.09 104.62 60.19 103.95 C 57.03 105.81 53.80 108.05 49.97 108.01 C 46.03 108.04 41.95 107.38 38.19 108.93 C 35.68 104.85 32.58 100.72 27.93 98.99 C 24.35 97.84 20.54 97.63 16.87 96.85 C 18.90 94.49 21.23 92.35 24.04 90.96 C 35.00 85.51 47.87 84.37 57.95 77.07 C 56.05 79.05 54.81 82.11 56.34 84.69 C 58.31 88.08 62.29 89.45 65.62 91.12 L 66.13 91.49 C 68.50 89.87 70.99 88.45 73.49 87.03 C 73.49 86.56 73.49 85.62 73.49 85.16 C 74.40 86.07 75.80 87.70 76.81 85.96 C 78.25 84.63 79.69 83.30 80.98 81.83 C 81.15 81.58 81.50 81.09 81.67 80.84 C 82.46 80.12 83.26 79.41 84.08 78.73 C 84.94 78.02 85.81 77.32 86.69 76.63 C 87.08 76.63 87.87 76.63 88.26 76.62 C 88.55 76.61 89.14 76.59 89.43 76.58 C 89.70 76.04 90.25 74.95 90.52 74.41 Z" />
</g>
<g id="#ffb8c6ff">
<path fill="#ffb8c6" opacity="1.00" d=" M 113.90 72.96 C 116.25 71.69 118.76 69.31 121.62 70.56 C 126.55 72.53 130.85 75.80 135.01 79.04 C 138.01 81.62 141.27 84.13 143.28 87.60 C 144.44 89.96 144.71 93.65 142.04 95.09 C 139.41 96.59 136.36 95.24 133.81 94.27 C 128.10 89.63 122.52 84.82 116.82 80.17 C 114.50 78.50 113.22 75.83 113.90 72.96 Z" />
</g>
<g id="#f27c8cff">
<path fill="#f27c8c" opacity="1.00" d=" M 98.19 71.38 L 98.55 70.78 C 100.71 73.72 103.21 76.39 105.62 79.12 C 104.57 80.30 103.51 81.48 102.46 82.67 C 101.44 82.54 100.43 82.40 99.42 82.30 C 99.37 82.66 99.28 83.39 99.24 83.76 C 99.18 84.33 99.07 85.45 99.02 86.02 C 96.35 88.32 93.66 90.60 90.97 92.88 C 89.92 92.46 88.86 92.06 87.80 91.66 C 87.49 92.26 86.88 93.46 86.57 94.05 C 86.53 94.62 86.50 95.18 86.48 95.75 C 86.41 95.89 86.27 96.18 86.20 96.32 C 84.59 97.64 82.94 98.91 81.47 100.38 C 76.32 102.62 71.21 104.97 65.84 106.63 C 60.96 108.17 56.05 109.64 51.35 111.70 C 48.47 113.03 45.89 114.93 43.55 117.08 L 43.30 116.74 C 41.61 114.16 39.62 111.81 37.37 109.71 C 37.58 109.51 37.99 109.12 38.19 108.93 C 41.95 107.38 46.03 108.04 49.97 108.01 C 53.80 108.05 57.03 105.81 60.19 103.95 C 61.42 103.35 62.66 102.77 63.92 102.21 C 67.66 100.69 71.38 99.02 74.62 96.57 C 81.19 91.86 85.27 84.65 91.11 79.18 C 93.64 76.75 96.48 74.51 98.19 71.38 Z" />
</g>
<g id="#c8b5b7ff">
<path fill="#c8b5b7" opacity="1.00" d=" M 62.40 74.22 C 68.19 76.59 74.47 79.70 76.81 85.96 C 75.80 87.70 74.40 86.07 73.49 85.16 C 70.48 80.67 66.15 77.24 61.26 74.99 C 61.54 74.80 62.11 74.41 62.40 74.22 Z" />
<path fill="#c8b5b7" opacity="1.00" d=" M 99.24 83.76 C 101.91 86.55 105.45 88.24 108.46 90.62 C 110.81 92.47 112.33 95.09 114.11 97.46 C 113.72 97.58 112.95 97.83 112.56 97.96 C 109.50 92.55 104.68 88.50 99.02 86.02 C 99.07 85.45 99.18 84.33 99.24 83.76 Z" />
<path fill="#c8b5b7" opacity="1.00" d=" M 86.48 95.75 C 86.50 95.18 86.53 94.62 86.57 94.05 C 92.74 97.09 98.00 101.61 102.31 106.94 L 100.87 107.50 C 100.52 107.21 99.84 106.63 99.50 106.35 C 96.16 101.73 91.81 97.90 86.48 95.75 Z" />
</g>
<g id="#9f0307ff">
<path fill="#9f0307" opacity="1.00" d=" M 107.20 77.29 C 113.32 80.54 118.92 84.64 124.10 89.23 C 123.69 89.52 122.89 90.11 122.48 90.41 C 122.20 90.62 121.63 91.04 121.35 91.25 C 117.58 88.10 113.64 85.07 109.31 82.73 C 107.48 81.67 105.37 82.58 103.44 82.79 L 102.46 82.67 C 103.51 81.48 104.57 80.30 105.62 79.12 C 106.15 78.51 106.68 77.90 107.20 77.29 Z" />
</g>
<g id="#ffa6afff">
<path fill="#ffa6af" opacity="1.00" d=" M 179.03 81.72 C 179.43 81.61 180.25 81.40 180.65 81.29 C 181.45 88.76 182.18 96.76 178.73 103.72 C 175.87 110.43 170.42 115.51 164.54 119.61 C 154.76 126.54 144.95 134.29 133.02 137.06 C 119.68 140.43 105.83 137.56 92.33 139.43 C 85.73 140.24 78.64 141.38 72.37 138.44 C 68.88 136.87 65.03 136.52 61.28 136.07 C 58.42 128.64 50.33 122.87 42.23 124.06 C 42.35 124.50 42.60 125.37 42.72 125.81 C 41.60 125.72 40.47 125.64 39.34 125.57 L 39.56 124.83 C 40.53 122.01 41.91 119.37 43.30 116.74 L 43.55 117.08 C 47.94 119.22 53.34 118.60 57.26 121.81 C 62.17 125.10 63.67 131.26 67.73 135.29 C 68.95 136.81 70.87 135.93 72.39 135.49 C 78.04 133.55 82.65 129.60 87.97 127.01 C 97.47 122.26 107.94 120.12 118.09 117.30 C 122.35 116.08 126.77 115.00 130.55 112.61 C 133.05 111.14 134.07 108.31 135.29 105.86 C 137.69 109.16 139.64 115.07 144.85 113.52 C 148.46 111.79 151.38 108.77 154.85 106.72 C 155.72 106.03 156.04 105.16 155.82 104.11 C 155.17 100.97 153.50 98.16 151.89 95.43 C 150.04 92.69 148.33 89.85 146.75 86.95 C 150.72 89.22 154.93 91.13 159.48 91.86 C 163.15 93.57 167.48 95.44 171.41 93.32 C 174.67 91.61 178.46 88.31 177.26 84.19 C 177.88 83.39 178.46 82.56 179.03 81.72 Z" />
</g>
<g id="#e1e1e1ff">
<path fill="#e1e1e1" opacity="1.00" d=" M 99.42 82.30 C 100.43 82.40 101.44 82.54 102.46 82.67 L 103.44 82.79 C 108.68 85.95 113.19 90.23 116.40 95.46 C 115.66 96.15 115.00 96.96 114.11 97.46 C 112.33 95.09 110.81 92.47 108.46 90.62 C 105.45 88.24 101.91 86.55 99.24 83.76 C 99.28 83.39 99.37 82.66 99.42 82.30 Z" />
</g>
<g id="#f9757dff">
<path fill="#f9757d" opacity="1.00" d=" M 144.45 83.33 C 149.55 86.01 154.74 88.57 159.48 91.86 C 154.93 91.13 150.72 89.22 146.75 86.95 C 145.98 85.75 145.21 84.54 144.45 83.33 Z" />
</g>
<g id="#f9cad2ff">
<path fill="#f9cad2" opacity="1.00" d=" M 39.07 87.24 C 41.50 86.59 44.43 85.55 46.62 87.37 C 49.26 89.80 50.38 93.48 53.15 95.80 C 56.37 98.58 61.20 98.73 63.92 102.21 C 62.66 102.77 61.42 103.35 60.19 103.95 C 54.09 104.62 48.20 107.38 42.03 106.83 C 38.36 105.01 37.54 100.15 34.28 97.76 C 31.07 96.38 27.08 96.39 24.84 93.32 C 28.71 89.59 34.15 88.78 39.07 87.24 Z" />
</g>
<g id="#f73f53ff">
<path fill="#f73f53" opacity="1.00" d=" M 122.48 90.41 C 122.89 90.11 123.69 89.52 124.10 89.23 C 131.56 95.15 136.74 103.30 143.15 110.18 C 147.66 110.83 151.07 106.81 154.89 105.04 C 154.88 105.46 154.86 106.30 154.85 106.72 C 151.38 108.77 148.46 111.79 144.85 113.52 C 139.64 115.07 137.69 109.16 135.29 105.86 C 131.69 100.20 127.11 95.23 122.48 90.41 Z" />
</g>
<g id="#fec5ccff">
<path fill="#fec5cc" opacity="1.00" d=" M 122.48 90.41 C 127.11 95.23 131.69 100.20 135.29 105.86 C 134.07 108.31 133.05 111.14 130.55 112.61 C 126.77 115.00 122.35 116.08 118.09 117.30 C 107.94 120.12 97.47 122.26 87.97 127.01 C 82.65 129.60 78.04 133.55 72.39 135.49 C 70.87 135.93 68.95 136.81 67.73 135.29 C 63.67 131.26 62.17 125.10 57.26 121.81 C 53.34 118.60 47.94 119.22 43.55 117.08 C 45.89 114.93 48.47 113.03 51.35 111.70 C 51.35 113.03 51.31 114.36 51.38 115.69 C 53.96 117.09 57.10 116.90 59.67 118.31 C 63.25 121.39 64.53 127.03 69.40 128.58 C 76.62 130.64 84.14 127.07 89.32 122.15 C 86.25 120.28 82.87 119.02 79.67 117.41 C 76.07 115.60 75.36 111.15 72.69 108.44 C 70.72 107.02 68.15 106.98 65.84 106.63 C 71.21 104.97 76.32 102.62 81.47 100.38 C 79.81 106.36 85.81 109.53 90.28 111.56 C 90.71 111.77 91.56 112.20 91.99 112.41 C 92.87 111.69 93.74 110.97 94.62 110.26 C 96.13 110.73 97.73 111.05 99.27 110.55 C 104.15 109.71 106.23 104.67 109.56 101.61 C 109.45 101.08 109.22 100.03 109.10 99.50 C 110.24 98.96 111.39 98.43 112.56 97.96 C 112.95 97.83 113.72 97.58 114.11 97.46 C 115.00 96.96 115.66 96.15 116.40 95.46 C 117.90 93.89 119.60 92.54 121.35 91.25 C 121.63 91.04 122.20 90.62 122.48 90.41 Z" />
</g>
<g id="#d6d6d6ff">
<path fill="#d6d6d6" opacity="1.00" d=" M 86.57 94.05 C 86.88 93.46 87.49 92.26 87.80 91.66 C 88.86 92.06 89.92 92.46 90.97 92.88 C 91.66 93.16 92.35 93.47 93.03 93.79 C 97.21 96.46 100.45 100.24 103.55 104.05 C 104.08 103.64 105.14 102.82 105.66 102.42 C 104.89 104.15 103.75 105.70 102.31 106.94 C 98.00 101.61 92.74 97.09 86.57 94.05 Z" />
</g>
<g id="#f997a4ff">
<path fill="#f997a4" opacity="1.00" d=" M 13.30 105.37 C 14.10 102.38 15.25 99.48 16.87 96.85 C 20.54 97.63 24.35 97.84 27.93 98.99 C 32.58 100.72 35.68 104.85 38.19 108.93 C 37.99 109.12 37.58 109.51 37.37 109.71 C 36.56 110.56 35.76 111.43 34.97 112.30 C 31.45 108.65 27.67 104.84 22.62 103.47 C 19.62 102.42 16.55 103.85 13.87 105.11 L 13.30 105.37 Z" />
</g>
<g id="#9e0000ff">
<path fill="#9e0000" opacity="1.00" d=" M 81.47 100.38 C 82.94 98.91 84.59 97.64 86.20 96.32 C 85.35 98.50 84.50 100.69 83.99 102.98 C 85.40 106.29 89.49 107.79 90.28 111.56 C 85.81 109.53 79.81 106.36 81.47 100.38 Z" />
</g>
<g id="#f85d72ff">
<path fill="#f85d72" opacity="1.00" d=" M 135.00 97.69 L 135.47 97.82 L 135.42 98.24 C 135.31 98.10 135.10 97.82 135.00 97.69 Z" />
<path fill="#f85d72" opacity="1.00" d=" M 135.42 98.24 L 135.87 98.36 L 135.90 98.84 C 135.78 98.69 135.54 98.39 135.42 98.24 Z" />
<path fill="#f85d72" opacity="1.00" d=" M 136.84 99.46 C 139.96 100.85 143.13 99.58 145.70 97.75 C 147.70 97.73 149.70 97.84 151.70 97.99 C 148.76 100.09 145.12 100.70 141.69 101.55 C 139.49 102.46 137.50 101.26 136.35 99.36 L 136.84 99.46 Z" />
<path fill="#f85d72" opacity="1.00" d=" M 135.90 98.84 L 136.36 98.94 L 136.35 99.36 C 136.24 99.23 136.01 98.97 135.90 98.84 Z" />
<path fill="#f85d72" opacity="1.00" d=" M 147.09 102.22 C 150.42 102.37 145.55 105.20 147.09 102.22 Z" />
<path fill="#f85d72" opacity="1.00" d=" M 143.30 104.04 C 146.27 102.48 143.46 107.37 143.30 104.04 Z" />
</g>
<g id="#f28592ff">
<path fill="#f28592" opacity="1.00" d=" M 105.66 102.42 C 106.82 101.45 107.95 100.47 109.10 99.50 C 109.22 100.03 109.45 101.08 109.56 101.61 C 106.23 104.67 104.15 109.71 99.27 110.55 C 97.73 111.05 96.13 110.73 94.62 110.26 C 96.23 108.93 97.86 107.64 99.50 106.35 C 99.84 106.63 100.52 107.21 100.87 107.50 L 102.31 106.94 C 103.75 105.70 104.89 104.15 105.66 102.42 Z" />
</g>
<g id="#f35b6bff">
<path fill="#f35b6b" opacity="1.00" d=" M 13.87 105.11 C 16.55 103.85 19.62 102.42 22.62 103.47 C 27.67 104.84 31.45 108.65 34.97 112.30 C 35.76 111.43 36.56 110.56 37.37 109.71 C 39.62 111.81 41.61 114.16 43.30 116.74 C 41.91 119.37 40.53 122.01 39.56 124.83 C 38.48 120.32 36.59 115.76 33.17 112.52 C 33.56 116.15 34.60 119.66 35.25 123.24 C 31.49 118.31 30.53 111.17 24.46 108.23 C 21.24 105.76 17.23 104.92 13.25 105.55 C 13.40 105.44 13.71 105.22 13.87 105.11 Z" />
</g>
<g id="#fc5768ff">
<path fill="#fc5768" opacity="1.00" d=" M 182.83 102.82 C 183.09 104.59 183.33 106.36 183.47 108.14 C 182.30 110.51 181.24 112.94 180.41 115.45 C 180.32 115.58 180.14 115.83 180.06 115.96 L 179.83 116.23 L 179.66 116.52 C 175.41 124.04 169.43 130.76 161.60 134.64 C 152.27 139.22 142.05 141.50 132.12 144.36 C 131.45 144.21 130.12 143.92 129.45 143.77 C 139.45 138.70 151.02 137.38 160.96 132.09 C 171.63 125.51 178.59 114.38 182.83 102.82 Z" />
</g>
<g id="#ecececff">
<path fill="#ececec" opacity="1.00" d=" M 12.85 105.57 L 13.25 105.55 C 17.23 104.92 21.24 105.76 24.46 108.23 C 20.59 108.26 16.54 107.64 12.87 109.19 C 20.15 110.69 25.10 116.86 27.99 123.32 C 21.49 120.22 15.64 115.72 11.09 110.13 C 11.69 108.61 12.27 107.09 12.85 105.57 Z" />
<path fill="#ececec" opacity="1.00" d=" M 38.42 126.97 C 41.12 126.94 43.81 127.39 46.22 128.67 C 43.65 128.74 40.88 128.62 38.66 130.14 C 45.82 131.60 50.68 137.55 53.39 143.98 C 46.32 141.02 41.27 135.18 35.32 130.63 C 36.54 129.58 37.58 128.35 38.42 126.97 Z" />
</g>
<g id="#fed3daff">
<path fill="#fed3da" opacity="1.00" d=" M 51.35 111.70 C 56.05 109.64 60.96 108.17 65.84 106.63 C 68.15 106.98 70.72 107.02 72.69 108.44 C 75.36 111.15 76.07 115.60 79.67 117.41 C 82.87 119.02 86.25 120.28 89.32 122.15 C 84.14 127.07 76.62 130.64 69.40 128.58 C 64.53 127.03 63.25 121.39 59.67 118.31 C 57.10 116.90 53.96 117.09 51.38 115.69 C 51.31 114.36 51.35 113.03 51.35 111.70 Z" />
</g>
<g id="#fcfcfcff">
<path fill="#fcfcfc" opacity="1.00" d=" M 12.87 109.19 C 16.54 107.64 20.59 108.26 24.46 108.23 C 30.53 111.17 31.49 118.31 35.25 123.24 C 35.77 123.97 36.30 124.69 36.90 125.37 C 37.28 125.77 38.04 126.57 38.42 126.97 C 37.58 128.35 36.54 129.58 35.32 130.63 C 32.35 128.77 30.10 126.06 27.99 123.32 C 25.10 116.86 20.15 110.69 12.87 109.19 Z" />
<path fill="#fcfcfc" opacity="1.00" d=" M 38.66 130.14 C 40.88 128.62 43.65 128.74 46.22 128.67 C 49.49 130.18 52.66 132.28 54.61 135.39 C 56.18 137.88 57.77 140.37 59.72 142.59 C 60.69 143.87 61.65 145.17 62.69 146.41 C 63.50 147.17 64.34 147.90 65.21 148.60 C 64.83 149.68 64.45 150.76 64.07 151.84 C 59.03 151.97 56.32 147.29 53.39 143.98 C 50.68 137.55 45.82 131.60 38.66 130.14 Z" />
</g>
<g id="#d7d7d7ff">
<path fill="#d7d7d7" opacity="1.00" d=" M 183.47 108.14 L 183.97 107.07 C 186.98 111.41 188.99 116.46 189.78 121.67 C 189.44 124.94 189.38 128.53 187.26 131.22 C 182.71 137.47 175.42 140.85 168.33 143.33 C 162.78 145.33 156.77 144.72 151.07 145.97 C 140.79 148.02 131.44 152.95 121.70 156.60 C 108.20 160.97 93.76 163.50 79.60 161.46 C 72.26 160.50 65.52 157.28 58.94 154.06 C 52.30 150.73 45.58 147.08 40.48 141.56 C 38.47 139.43 37.67 136.55 36.75 133.86 C 32.18 133.47 28.41 130.68 24.58 128.45 C 18.45 124.77 12.57 119.74 10.68 112.55 C 10.80 111.74 10.93 110.93 11.09 110.13 C 15.64 115.72 21.49 120.22 27.99 123.32 C 30.10 126.06 32.35 128.77 35.32 130.63 C 41.27 135.18 46.32 141.02 53.39 143.98 C 56.32 147.29 59.03 151.97 64.07 151.84 C 68.78 152.34 72.96 154.88 77.66 155.40 C 89.35 156.91 101.15 154.54 112.31 151.16 C 126.80 147.44 141.90 146.09 155.99 140.80 C 166.54 137.36 176.42 130.77 181.94 120.93 C 183.23 118.80 183.33 116.26 183.61 113.85 C 182.81 114.25 181.21 115.05 180.41 115.45 C 181.24 112.94 182.30 110.51 183.47 108.14 Z" />
<path fill="#d7d7d7" opacity="1.00" d=" M 180.06 115.96 C 180.14 115.83 180.32 115.58 180.41 115.45 C 180.32 115.58 180.14 115.83 180.06 115.96 Z" />
<path fill="#d7d7d7" opacity="1.00" d=" M 179.83 116.23 L 180.06 115.96 C 179.96 116.10 179.76 116.38 179.66 116.52 L 179.83 116.23 Z" />
</g>
<g id="#b2b2b2ff">
<path fill="#b2b2b2" opacity="1.00" d=" M 10.68 112.55 C 12.57 119.74 18.45 124.77 24.58 128.45 C 28.41 130.68 32.18 133.47 36.75 133.86 C 37.67 136.55 38.47 139.43 40.48 141.56 C 45.58 147.08 52.30 150.73 58.94 154.06 C 65.52 157.28 72.26 160.50 79.60 161.46 C 93.76 163.50 108.20 160.97 121.70 156.60 C 131.44 152.95 140.79 148.02 151.07 145.97 C 156.77 144.72 162.78 145.33 168.33 143.33 C 175.42 140.85 182.71 137.47 187.26 131.22 C 189.38 128.53 189.44 124.94 189.78 121.67 C 190.54 125.41 191.12 129.57 189.18 133.06 C 186.76 137.55 182.35 140.53 177.96 142.88 C 172.03 145.85 165.58 148.10 158.90 148.25 C 144.63 148.88 132.16 156.58 118.84 160.77 C 104.20 164.98 88.36 167.27 73.39 163.43 C 65.25 160.82 57.47 157.11 50.09 152.82 C 44.32 149.25 37.98 145.04 36.13 138.07 C 28.65 134.53 21.05 130.76 15.05 124.94 C 11.71 121.80 9.91 117.12 10.68 112.55 Z" />
<path fill="#b2b2b2" opacity="1.00" d=" M 62.69 146.41 C 65.15 147.04 67.60 147.73 70.05 148.41 C 70.95 148.65 71.86 148.87 72.77 149.08 C 78.26 150.48 83.90 151.26 89.56 151.33 C 93.17 151.47 96.79 151.41 100.39 151.08 C 88.79 154.20 76.61 151.39 65.21 148.60 C 64.34 147.90 63.50 147.17 62.69 146.41 Z" />
</g>
<g id="#ee3949ff">
<path fill="#ee3949" opacity="1.00" d=" M 33.17 112.52 C 36.59 115.76 38.48 120.32 39.56 124.83 L 39.34 125.57 C 38.73 125.52 37.51 125.42 36.90 125.37 C 36.30 124.69 35.77 123.97 35.25 123.24 C 34.60 119.66 33.56 116.15 33.17 112.52 Z" />
</g>
<g id="#fdfdfdff">
<path fill="#fdfdfd" opacity="1.00" d=" M 180.41 115.45 C 181.21 115.05 182.81 114.25 183.61 113.85 C 183.33 116.26 183.23 118.80 181.94 120.93 C 176.42 130.77 166.54 137.36 155.99 140.80 C 141.90 146.09 126.80 147.44 112.31 151.16 C 110.05 150.28 107.66 149.85 105.26 149.65 C 114.38 148.87 123.24 146.46 132.12 144.36 C 142.05 141.50 152.27 139.22 161.60 134.64 C 169.43 130.76 175.41 124.04 179.66 116.52 C 179.76 116.38 179.96 116.10 180.06 115.96 C 180.14 115.83 180.32 115.58 180.41 115.45 Z" />
</g>
<g id="#fa5e6eff">
<path fill="#fa5e6e" opacity="1.00" d=" M 42.23 124.06 C 50.33 122.87 58.42 128.64 61.28 136.07 C 62.75 141.12 66.25 144.97 70.05 148.41 C 67.60 147.73 65.15 147.04 62.69 146.41 C 61.65 145.17 60.69 143.87 59.72 142.59 C 57.98 134.37 51.36 126.79 42.72 125.81 C 42.60 125.37 42.35 124.50 42.23 124.06 Z" />
<path fill="#fa5e6e" opacity="1.00" d=" M 72.77 149.08 C 78.35 148.25 84.55 148.56 89.56 151.33 C 83.90 151.26 78.26 150.48 72.77 149.08 Z" />
</g>
<g id="#cec4c5ff">
<path fill="#cec4c5" opacity="1.00" d=" M 36.90 125.37 C 37.51 125.42 38.73 125.52 39.34 125.57 C 40.47 125.64 41.60 125.72 42.72 125.81 C 51.36 126.79 57.98 134.37 59.72 142.59 C 57.77 140.37 56.18 137.88 54.61 135.39 C 52.66 132.28 49.49 130.18 46.22 128.67 C 43.81 127.39 41.12 126.94 38.42 126.97 C 38.04 126.57 37.28 125.77 36.90 125.37 Z" />
</g>
<g id="#edededff">
<path fill="#ededed" opacity="1.00" d=" M 65.21 148.60 C 76.61 151.39 88.79 154.20 100.39 151.08 C 102.03 150.65 103.62 150.06 105.26 149.65 C 107.66 149.85 110.05 150.28 112.31 151.16 C 101.15 154.54 89.35 156.91 77.66 155.40 C 72.96 154.88 68.78 152.34 64.07 151.84 C 64.45 150.76 64.83 149.68 65.21 148.60 Z" />
</g>
</svg>
