<?xml version="1.0" encoding="UTF-8" ?>
<!DOCTYPE svg PUBLIC "-//W3C//DTD SVG 1.1//EN" "http://www.w3.org/Graphics/SVG/1.1/DTD/svg11.dtd">
<svg width="200pt" height="200pt" viewBox="0 0 200 200" version="1.1" xmlns="http://www.w3.org/2000/svg">
<g id="#feaf46ff">
<path fill="#feaf46" opacity="1.00" d=" M 136.21 40.03 C 137.52 38.57 138.43 35.83 140.88 36.48 C 144.04 37.12 146.72 39.01 149.45 40.61 C 149.06 41.22 148.26 42.43 147.86 43.04 C 148.17 44.47 148.47 45.90 148.78 47.33 C 146.03 47.04 143.03 47.08 140.73 45.32 C 139.28 43.62 139.20 41.23 138.60 39.17 C 137.80 39.46 137.00 39.75 136.21 40.03 Z" />
<path fill="#feaf46" opacity="1.00" d=" M 162.44 60.07 C 163.16 58.67 164.21 56.78 166.11 57.23 C 169.43 57.73 172.23 59.75 175.02 61.47 C 172.98 63.21 173.89 65.97 173.92 68.27 C 171.44 67.81 168.80 67.70 166.57 66.42 C 164.67 64.47 164.60 61.50 163.79 59.03 C 163.45 59.29 162.78 59.81 162.44 60.07 Z" />
</g>
<g id="#fd7914ff">
<path fill="#fd7914" opacity="1.00" d=" M 136.21 40.03 C 137.00 39.75 137.80 39.46 138.60 39.17 C 139.20 41.23 139.28 43.62 140.73 45.32 C 143.03 47.08 146.03 47.04 148.78 47.33 C 148.47 45.90 148.17 44.47 147.86 43.04 C 148.26 42.43 149.06 41.22 149.45 40.61 C 150.65 41.46 151.87 42.30 153.01 43.23 C 157.11 47.66 155.44 54.15 154.42 59.45 C 153.68 60.59 152.94 61.74 152.11 62.82 L 151.01 63.86 C 150.76 59.29 150.51 54.26 147.35 50.62 C 145.19 47.86 141.05 45.49 137.70 47.66 C 135.13 50.34 135.19 54.79 132.20 57.20 C 129.71 58.92 126.62 59.40 123.78 60.28 C 121.56 56.67 119.54 52.91 116.96 49.53 C 118.78 50.54 120.71 52.07 122.92 51.27 C 128.60 49.41 132.62 44.57 136.21 40.03 Z" />
<path fill="#fd7914" opacity="1.00" d=" M 162.44 60.07 C 162.78 59.81 163.45 59.29 163.79 59.03 C 164.60 61.50 164.67 64.47 166.57 66.42 C 168.80 67.70 171.44 67.81 173.92 68.27 C 173.89 65.97 172.98 63.21 175.02 61.47 C 176.44 62.37 177.82 63.33 179.15 64.37 C 182.96 69.38 181.28 76.35 179.05 81.69 C 178.46 82.54 177.86 83.37 177.24 84.19 L 176.17 85.10 C 176.12 83.08 176.08 81.05 175.95 79.04 C 175.35 75.31 173.85 71.48 170.67 69.22 C 168.46 67.55 165.01 66.78 162.75 68.75 C 160.92 71.44 160.55 74.91 158.42 77.42 C 155.77 79.71 152.12 80.14 148.87 81.14 C 147.73 77.44 145.20 74.43 143.01 71.30 C 144.54 71.74 146.07 72.19 147.61 72.57 C 150.98 71.65 153.87 69.63 156.38 67.26 C 157.10 66.52 157.79 65.76 158.46 64.98 C 159.79 63.35 161.01 61.62 162.44 60.07 Z" />
</g>
<g id="#fea7b8ff">
<path fill="#fea7b8" opacity="1.00" d=" M 90.23 44.21 C 92.94 44.44 94.53 41.74 97.06 41.23 C 96.11 41.80 95.19 42.41 94.25 42.99 L 92.77 43.88 C 100.59 48.49 108.55 52.98 115.25 59.17 C 114.07 61.26 113.20 63.79 110.98 65.03 C 107.96 66.81 104.44 67.35 101.05 67.99 C 97.44 63.51 91.68 61.24 88.57 56.34 C 87.10 52.41 89.98 48.60 90.15 44.67 L 90.23 44.21 Z" />
</g>
<g id="#d62a40ff">
<path fill="#d62a40" opacity="1.00" d=" M 97.06 41.23 C 104.86 38.07 111.88 44.37 116.96 49.53 C 119.54 52.91 121.56 56.67 123.78 60.28 L 124.26 60.97 C 127.29 61.45 130.57 61.20 133.32 62.77 C 135.54 64.03 137.53 65.66 139.49 67.30 C 140.17 67.92 140.83 68.56 141.47 69.23 C 141.85 69.74 142.63 70.78 143.01 71.30 C 145.20 74.43 147.73 77.44 148.87 81.14 C 149.03 81.71 149.34 82.84 149.50 83.40 C 148.97 83.17 147.92 82.71 147.40 82.48 C 146.64 82.15 145.88 81.84 145.11 81.55 C 148.42 80.55 145.53 77.98 143.78 77.18 C 135.73 72.56 127.94 67.32 119.26 63.92 C 119.44 64.37 119.81 65.29 120.00 65.75 C 119.58 65.56 118.76 65.18 118.34 65.00 C 117.96 63.29 117.61 61.58 117.30 59.86 C 118.26 60.10 119.23 60.31 120.20 60.50 C 118.11 60.87 118.86 63.85 120.85 63.25 C 121.92 62.68 122.04 61.83 121.20 60.69 C 121.10 60.06 120.91 58.79 120.81 58.15 C 112.25 52.61 103.36 47.55 94.25 42.99 C 95.19 42.41 96.11 41.80 97.06 41.23 Z" />
<path fill="#d62a40" opacity="1.00" d=" M 78.11 60.23 L 78.92 59.59 L 78.38 60.97 C 85.18 60.81 89.72 66.36 95.07 69.62 C 95.78 68.81 96.49 68.01 97.20 67.21 C 97.46 67.41 97.98 67.82 98.23 68.02 C 98.24 68.38 98.26 69.10 98.27 69.46 C 95.61 70.99 92.97 72.56 90.52 74.41 C 87.30 68.76 82.29 64.31 76.43 61.54 C 76.85 61.21 77.69 60.56 78.11 60.23 Z" />
<path fill="#d62a40" opacity="1.00" d=" M 65.19 71.94 C 66.13 71.33 67.07 70.72 68.03 70.14 C 68.10 70.61 68.26 71.53 68.34 71.99 C 71.20 71.43 74.58 69.76 77.23 71.79 C 79.69 73.93 81.72 76.51 84.14 78.70 C 83.22 79.43 82.30 80.17 81.38 80.90 C 80.24 81.78 79.10 82.66 77.97 83.55 C 74.65 78.76 70.43 74.58 65.19 71.94 Z" />
<path fill="#d62a40" opacity="1.00" d=" M 57.95 77.14 C 58.53 76.78 59.69 76.06 60.27 75.71 C 60.55 75.51 61.11 75.11 61.39 74.92 C 66.12 77.40 70.52 80.65 73.51 85.15 C 73.47 85.62 73.39 86.55 73.35 87.01 C 70.87 88.48 68.38 89.95 66.00 91.58 C 62.69 89.90 59.01 88.44 56.64 85.46 C 54.72 82.86 55.47 79.09 57.95 77.14 Z" />
<path fill="#d62a40" opacity="1.00" d=" M 103.48 82.76 C 105.63 82.43 108.02 81.62 109.97 83.04 C 113.96 85.48 117.77 88.24 121.34 91.27 C 119.59 92.54 117.90 93.90 116.40 95.45 C 113.19 90.22 108.66 86.00 103.48 82.76 Z" />
<path fill="#d62a40" opacity="1.00" d=" M 93.09 93.86 C 95.88 92.19 99.55 90.43 102.62 92.49 C 105.16 94.48 106.99 97.22 109.33 99.44 C 108.06 100.41 106.83 101.42 105.61 102.44 C 105.10 102.84 104.07 103.64 103.56 104.04 C 100.46 100.27 97.27 96.49 93.09 93.86 Z" />
<path fill="#d62a40" opacity="1.00" d=" M 86.25 96.31 C 86.31 96.15 86.44 95.84 86.51 95.68 C 91.92 97.70 96.15 101.72 99.60 106.24 C 97.95 107.56 96.30 108.90 94.66 110.24 C 93.78 110.97 92.88 111.69 91.99 112.42 C 91.54 112.19 90.65 111.75 90.21 111.53 C 89.37 107.82 85.55 106.21 83.90 103.03 C 84.52 100.74 85.46 98.55 86.25 96.31 Z" />
</g>
<g id="#f97683ff">
<path fill="#f97683" opacity="1.00" d=" M 153.01 43.23 C 154.22 44.22 155.67 45.02 156.56 46.33 C 158.25 52.40 157.30 58.82 158.46 64.98 C 157.79 65.76 157.10 66.52 156.38 67.26 C 155.93 64.61 155.34 61.98 154.42 59.45 C 155.44 54.15 157.11 47.66 153.01 43.23 Z" />
</g>
<g id="#a2060aff">
<path fill="#a2060a" opacity="1.00" d=" M 92.77 43.88 L 94.25 42.99 C 103.36 47.55 112.25 52.61 120.81 58.15 C 120.91 58.79 121.10 60.06 121.20 60.69 L 120.20 60.50 C 119.23 60.31 118.26 60.10 117.30 59.86 C 116.79 59.69 115.76 59.34 115.25 59.17 C 108.55 52.98 100.59 48.49 92.77 43.88 Z" />
<path fill="#a2060a" opacity="1.00" d=" M 119.26 63.92 C 127.94 67.32 135.73 72.56 143.78 77.18 C 145.53 77.98 148.42 80.55 145.11 81.55 C 139.51 80.26 136.17 75.29 131.40 72.54 C 127.63 70.24 123.97 67.71 120.00 65.75 C 119.81 65.29 119.44 64.37 119.26 63.92 Z" />
<path fill="#a2060a" opacity="1.00" d=" M 69.99 67.97 C 70.84 66.83 71.87 65.86 72.99 64.98 C 78.50 67.59 83.50 71.31 86.70 76.59 C 85.85 77.30 85.00 78.00 84.14 78.70 C 81.72 76.51 79.69 73.93 77.23 71.79 C 74.58 69.76 71.20 71.43 68.34 71.99 C 68.26 71.53 68.10 70.61 68.03 70.14 C 68.61 69.54 69.17 68.93 69.71 68.30 L 69.99 67.97 Z" />
<path fill="#a2060a" opacity="1.00" d=" M 91.06 92.74 C 93.75 90.56 96.41 88.34 98.93 85.96 C 104.78 88.24 109.68 92.53 112.71 98.04 C 111.58 98.50 110.45 98.97 109.33 99.44 C 106.99 97.22 105.16 94.48 102.62 92.49 C 99.55 90.43 95.88 92.19 93.09 93.86 C 92.42 93.46 91.75 93.09 91.06 92.74 Z" />
</g>
<g id="#ff7e94ff">
<path fill="#ff7e94" opacity="1.00" d=" M 78.11 60.23 C 82.70 55.48 85.06 49.00 90.15 44.67 C 89.98 48.60 87.10 52.41 88.57 56.34 C 91.68 61.24 97.44 63.51 101.05 67.99 L 101.80 68.76 C 100.61 68.53 99.42 68.29 98.23 68.02 C 97.98 67.82 97.46 67.41 97.20 67.21 C 92.46 63.28 87.54 59.47 81.92 56.88 C 80.92 57.78 79.92 58.68 78.92 59.59 L 78.11 60.23 Z" />
<path fill="#ff7e94" opacity="1.00" d=" M 108.43 74.71 C 110.82 71.40 112.47 67.33 116.11 65.15 C 115.25 67.72 114.51 70.34 113.85 72.97 C 113.56 75.24 113.79 77.68 115.78 79.14 C 121.59 84.33 127.76 89.13 133.64 94.25 C 135.13 96.17 136.51 98.16 138.12 99.98 L 136.24 99.96 C 137.34 100.70 138.36 102.18 139.90 101.79 C 143.97 101.12 148.19 100.27 151.74 98.06 C 149.73 97.89 147.73 97.75 145.72 97.65 C 147.46 96.17 149.68 95.71 151.89 95.51 C 153.80 98.76 156.06 102.17 155.81 106.11 L 154.72 106.85 C 154.75 106.39 154.81 105.47 154.84 105.01 C 151.00 106.77 147.56 110.91 143.05 110.09 C 136.77 103.15 131.53 95.13 124.12 89.24 C 118.87 84.45 112.96 80.52 106.83 76.97 C 107.23 76.40 108.03 75.27 108.43 74.71 Z" />
</g>
<g id="#ee2906ff">
<path fill="#ee2906" opacity="1.00" d=" M 137.70 47.66 C 141.05 45.49 145.19 47.86 147.35 50.62 C 150.51 54.26 150.76 59.29 151.01 63.86 C 150.87 63.99 150.59 64.24 150.44 64.37 C 150.23 61.67 150.68 58.51 148.62 56.38 C 147.01 54.25 144.41 53.42 141.91 52.94 C 143.31 55.51 145.88 57.77 145.81 60.89 C 143.89 63.21 141.58 65.15 139.49 67.30 C 137.53 65.66 135.54 64.03 133.32 62.77 C 130.57 61.20 127.29 61.45 124.26 60.97 L 123.78 60.28 C 126.62 59.40 129.71 58.92 132.20 57.20 C 135.19 54.79 135.13 50.34 137.70 47.66 Z" />
<path fill="#ee2906" opacity="1.00" d=" M 162.75 68.75 C 165.01 66.78 168.46 67.55 170.67 69.22 C 173.85 71.48 175.35 75.31 175.95 79.04 C 173.63 76.58 171.10 74.05 167.54 73.70 C 169.21 76.23 170.92 78.79 171.63 81.79 C 169.07 83.91 166.17 86.13 164.99 89.33 C 167.83 88.88 170.41 87.13 173.38 87.06 C 170.69 89.01 167.37 90.48 163.98 89.64 C 158.87 88.35 154.04 86.06 149.50 83.40 C 149.34 82.84 149.03 81.71 148.87 81.14 C 152.12 80.14 155.77 79.71 158.42 77.42 C 160.55 74.91 160.92 71.44 162.75 68.75 Z" />
</g>
<g id="#b30600ff">
<path fill="#b30600" opacity="1.00" d=" M 141.91 52.94 C 144.41 53.42 147.01 54.25 148.62 56.38 C 150.68 58.51 150.23 61.67 150.44 64.37 C 147.84 66.63 144.74 68.19 141.47 69.23 C 140.83 68.56 140.17 67.92 139.49 67.30 C 141.58 65.15 143.89 63.21 145.81 60.89 C 145.88 57.77 143.31 55.51 141.91 52.94 Z" />
<path fill="#b30600" opacity="1.00" d=" M 167.54 73.70 C 171.10 74.05 173.63 76.58 175.95 79.04 C 176.08 81.05 176.12 83.08 176.17 85.10 C 175.26 85.78 174.33 86.43 173.38 87.06 C 170.41 87.13 167.83 88.88 164.99 89.33 C 166.17 86.13 169.07 83.91 171.63 81.79 C 170.92 78.79 169.21 76.23 167.54 73.70 Z" />
</g>
<g id="#9f0308ff">
<path fill="#9f0308" opacity="1.00" d=" M 78.92 59.59 C 79.92 58.68 80.92 57.78 81.92 56.88 C 87.54 59.47 92.46 63.28 97.20 67.21 C 96.49 68.01 95.78 68.81 95.07 69.62 C 89.72 66.36 85.18 60.81 78.38 60.97 L 78.92 59.59 Z" />
</g>
<g id="#f87388ff">
<path fill="#f87388" opacity="1.00" d=" M 115.25 59.17 C 115.76 59.34 116.79 59.69 117.30 59.86 C 117.61 61.58 117.96 63.29 118.34 65.00 C 117.78 65.04 116.67 65.11 116.11 65.15 C 112.47 67.33 110.82 71.40 108.43 74.71 C 106.60 72.34 104.25 70.45 101.80 68.76 L 101.05 67.99 C 104.44 67.35 107.96 66.81 110.98 65.03 C 113.20 63.79 114.07 61.26 115.25 59.17 Z" />
</g>
<g id="#f997a5ff">
<path fill="#f997a5" opacity="1.00" d=" M 154.42 59.45 C 155.34 61.98 155.93 64.61 156.38 67.26 C 153.87 69.63 150.98 71.65 147.61 72.57 C 149.85 69.70 152.54 66.76 152.11 62.82 C 152.94 61.74 153.68 60.59 154.42 59.45 Z" />
</g>
<g id="#ee8882ff">
<path fill="#ee8882" opacity="1.00" d=" M 120.85 63.25 C 118.86 63.85 118.11 60.87 120.20 60.50 L 121.20 60.69 C 122.04 61.83 121.92 62.68 120.85 63.25 Z" />
</g>
<g id="#b5a4a4f5">
<path fill="#b5a4a4" opacity="0.96" d=" M 73.52 62.09 L 73.68 62.32 C 76.04 66.83 81.30 68.00 85.04 70.96 C 86.87 72.31 87.42 74.63 88.29 76.61 C 87.89 76.60 87.10 76.60 86.70 76.59 C 83.50 71.31 78.50 67.59 72.99 64.98 C 73.12 64.26 73.38 62.81 73.52 62.09 Z" />
</g>
<g id="#e6e7e7ff">
<path fill="#e6e7e7" opacity="1.00" d=" M 73.68 62.32 C 74.36 62.13 75.74 61.73 76.43 61.54 C 82.29 64.31 87.30 68.76 90.52 74.41 C 90.26 74.96 89.72 76.05 89.45 76.60 C 89.16 76.60 88.58 76.60 88.29 76.61 C 87.42 74.63 86.87 72.31 85.04 70.96 C 81.30 68.00 76.04 66.83 73.68 62.32 Z" />
</g>
<g id="#fcc17bff">
<path fill="#fcc17b" opacity="1.00" d=" M 151.01 63.86 L 152.11 62.82 C 152.54 66.76 149.85 69.70 147.61 72.57 C 146.07 72.19 144.54 71.74 143.01 71.30 C 142.63 70.78 141.85 69.74 141.47 69.23 C 144.74 68.19 147.84 66.63 150.44 64.37 C 150.59 64.24 150.87 63.99 151.01 63.86 Z" />
<path fill="#fcc17b" opacity="1.00" d=" M 144.58 83.38 C 145.28 83.15 146.69 82.70 147.40 82.48 C 147.92 82.71 148.97 83.17 149.50 83.40 C 154.04 86.06 158.87 88.35 163.98 89.64 C 167.37 90.48 170.69 89.01 173.38 87.06 C 174.33 86.43 175.26 85.78 176.17 85.10 L 177.24 84.19 C 178.38 88.37 174.67 91.62 171.35 93.39 C 167.45 95.41 163.11 93.62 159.48 91.88 C 154.77 88.62 149.65 86.02 144.58 83.38 Z" />
</g>
<g id="#ff8b96ff">
<path fill="#ff8b96" opacity="1.00" d=" M 179.15 64.37 C 180.60 65.56 182.50 66.71 182.52 68.82 C 184.12 81.51 183.62 94.35 183.98 107.10 L 183.48 108.21 C 183.37 106.42 183.08 104.66 182.76 102.90 C 179.15 112.66 173.78 121.98 165.70 128.72 C 159.06 134.57 150.12 136.21 142.03 139.11 C 137.84 140.67 133.12 141.11 129.46 143.88 C 130.12 143.99 131.45 144.22 132.11 144.33 C 123.25 146.49 114.41 148.97 105.27 149.63 C 103.61 150.03 102.02 150.67 100.37 151.10 C 90.24 151.82 79.83 151.68 70.08 148.50 C 66.41 144.89 62.72 141.19 61.28 136.07 C 65.04 136.56 68.91 136.86 72.41 138.47 C 78.44 141.26 85.28 140.28 91.63 139.50 C 105.63 137.49 120.05 140.60 133.85 136.83 C 145.27 134.08 154.60 126.58 164.05 120.01 C 170.55 115.55 176.47 109.76 179.36 102.28 C 182.13 95.63 181.34 88.27 180.72 81.29 C 180.30 81.39 179.46 81.59 179.05 81.69 C 181.28 76.35 182.96 69.38 179.15 64.37 Z" />
</g>
<g id="#ff96acff">
<path fill="#ff96ac" opacity="1.00" d=" M 116.11 65.15 C 116.67 65.11 117.78 65.04 118.34 65.00 C 118.76 65.18 119.58 65.56 120.00 65.75 C 123.97 67.71 127.63 70.24 131.40 72.54 C 136.17 75.29 139.51 80.26 145.11 81.55 C 145.88 81.84 146.64 82.15 147.40 82.48 C 146.69 82.70 145.28 83.15 144.58 83.38 C 145.25 84.57 145.95 85.74 146.67 86.90 C 148.30 89.83 150.04 92.71 151.89 95.51 C 149.68 95.71 147.46 96.17 145.72 97.65 C 143.59 99.46 140.91 100.35 138.12 99.98 C 136.51 98.16 135.13 96.17 133.64 94.25 C 136.62 95.40 140.57 96.84 143.18 94.16 C 145.18 91.40 143.90 87.56 141.69 85.32 C 136.19 79.35 129.55 74.35 122.28 70.76 C 119.25 69.16 116.33 71.44 113.85 72.97 C 114.51 70.34 115.25 67.72 116.11 65.15 Z" />
</g>
<g id="#e7e7e7ff">
<path fill="#e7e7e7" opacity="1.00" d=" M 64.98 71.68 C 65.51 69.44 67.96 69.14 69.71 68.30 C 69.17 68.93 68.61 69.54 68.03 70.14 C 67.07 70.72 66.13 71.33 65.19 71.94 C 70.43 74.58 74.65 78.76 77.97 83.55 C 79.10 82.66 80.24 81.78 81.38 80.90 C 81.34 81.23 81.25 81.91 81.21 82.24 C 79.67 83.40 78.24 84.68 76.90 86.05 C 74.41 79.83 68.26 76.70 62.49 74.15 C 62.21 74.34 61.66 74.73 61.39 74.92 C 61.11 75.11 60.55 75.51 60.27 75.71 C 61.32 73.62 61.54 69.99 64.98 71.68 Z" />
</g>
<g id="#f75469ff">
<path fill="#f75469" opacity="1.00" d=" M 98.23 68.02 C 99.42 68.29 100.61 68.53 101.80 68.76 C 104.25 70.45 106.60 72.34 108.43 74.71 C 108.03 75.27 107.23 76.40 106.83 76.97 C 104.46 74.83 102.37 72.41 100.02 70.26 C 99.74 70.41 99.19 70.71 98.92 70.86 L 98.30 71.39 L 98.27 69.46 C 98.26 69.10 98.24 68.38 98.23 68.02 Z" />
</g>
<g id="#fab4bfff">
<path fill="#fab4bf" opacity="1.00" d=" M 90.52 74.41 C 92.97 72.56 95.61 70.99 98.27 69.46 L 98.30 71.39 C 96.57 73.92 94.47 76.16 92.17 78.18 C 85.74 83.80 81.52 91.59 74.53 96.63 C 71.36 99.08 67.68 100.72 63.97 102.17 C 60.78 98.19 54.73 98.50 51.70 94.32 C 49.32 91.52 48.15 86.85 43.94 86.31 C 38.87 86.84 34.01 88.77 29.18 90.33 C 27.68 91.10 24.96 92.21 25.55 94.29 C 27.65 96.53 31.01 96.35 33.69 97.45 C 37.77 99.56 38.22 106.06 43.00 107.05 C 48.82 106.84 54.39 104.70 60.17 103.97 C 57.28 105.68 54.37 107.69 50.93 107.95 C 46.70 108.30 42.24 107.04 38.23 108.95 C 36.23 105.67 33.93 102.41 30.56 100.40 C 26.52 97.66 21.45 98.00 16.89 96.84 C 18.98 94.34 21.48 92.17 24.43 90.75 C 35.33 85.53 47.92 84.21 57.95 77.14 C 55.47 79.09 54.72 82.86 56.64 85.46 C 59.01 88.44 62.69 89.90 66.00 91.58 C 68.38 89.95 70.87 88.48 73.35 87.01 C 73.39 86.55 73.47 85.62 73.51 85.15 C 74.39 86.41 75.55 87.33 76.90 86.05 C 78.24 84.68 79.67 83.40 81.21 82.24 C 81.25 81.91 81.34 81.23 81.38 80.90 C 82.30 80.17 83.22 79.43 84.14 78.70 C 85.00 78.00 85.85 77.30 86.70 76.59 C 87.10 76.60 87.89 76.60 88.29 76.61 C 88.58 76.60 89.16 76.60 89.45 76.60 C 89.72 76.05 90.26 74.96 90.52 74.41 Z" />
</g>
<g id="#9f0307ff">
<path fill="#9f0307" opacity="1.00" d=" M 98.92 70.86 C 99.19 70.71 99.74 70.41 100.02 70.26 C 102.37 72.41 104.46 74.83 106.83 76.97 C 112.96 80.52 118.87 84.45 124.12 89.24 C 123.71 89.53 122.91 90.12 122.51 90.41 C 122.22 90.62 121.63 91.06 121.34 91.27 C 117.77 88.24 113.96 85.48 109.97 83.04 C 108.02 81.62 105.63 82.43 103.48 82.76 L 102.54 82.64 C 103.62 81.36 104.71 80.10 105.79 78.82 C 103.59 76.09 101.31 73.42 98.92 70.86 Z" />
</g>
<g id="#ffb8c6ff">
<path fill="#ffb8c6" opacity="1.00" d=" M 113.85 72.97 C 116.33 71.44 119.25 69.16 122.28 70.76 C 129.55 74.35 136.19 79.35 141.69 85.32 C 143.90 87.56 145.18 91.40 143.18 94.16 C 140.57 96.84 136.62 95.40 133.64 94.25 C 127.76 89.13 121.59 84.33 115.78 79.14 C 113.79 77.68 113.56 75.24 113.85 72.97 Z" />
</g>
<g id="#f27c8cff">
<path fill="#f27c8c" opacity="1.00" d=" M 98.30 71.39 L 98.92 70.86 C 101.31 73.42 103.59 76.09 105.79 78.82 C 104.71 80.10 103.62 81.36 102.54 82.64 C 101.61 82.54 100.68 82.45 99.75 82.52 C 99.43 83.66 99.16 84.80 98.93 85.96 C 96.41 88.34 93.75 90.56 91.06 92.74 C 90.06 92.46 89.05 92.26 88.02 92.12 C 86.34 92.42 86.79 94.46 86.51 95.68 C 86.44 95.84 86.31 96.15 86.25 96.31 C 84.64 97.64 82.95 98.89 81.48 100.37 C 76.32 102.61 71.21 104.98 65.83 106.65 C 61.03 108.13 56.19 109.56 51.60 111.64 C 48.60 112.94 45.94 114.87 43.60 117.13 L 43.31 116.74 C 41.65 114.16 39.67 111.80 37.42 109.71 C 37.63 109.52 38.03 109.14 38.23 108.95 C 42.24 107.04 46.70 108.30 50.93 107.95 C 54.37 107.69 57.28 105.68 60.17 103.97 C 61.42 103.35 62.69 102.74 63.97 102.17 C 67.68 100.72 71.36 99.08 74.53 96.63 C 81.52 91.59 85.74 83.80 92.17 78.18 C 94.47 76.16 96.57 73.92 98.30 71.39 Z" />
</g>
<g id="#c8b5b7ff">
<path fill="#c8b5b7" opacity="1.00" d=" M 62.49 74.15 C 68.26 76.70 74.41 79.83 76.90 86.05 C 75.55 87.33 74.39 86.41 73.51 85.15 C 70.52 80.65 66.12 77.40 61.39 74.92 C 61.66 74.73 62.21 74.34 62.49 74.15 Z" />
</g>
<g id="#ffa6afff">
<path fill="#ffa6af" opacity="1.00" d=" M 179.05 81.69 C 179.46 81.59 180.30 81.39 180.72 81.29 C 181.34 88.27 182.13 95.63 179.36 102.28 C 176.47 109.76 170.55 115.55 164.05 120.01 C 154.60 126.58 145.27 134.08 133.85 136.83 C 120.05 140.60 105.63 137.49 91.63 139.50 C 85.28 140.28 78.44 141.26 72.41 138.47 C 68.91 136.86 65.04 136.56 61.28 136.07 C 58.42 128.59 50.26 122.93 42.14 124.05 C 42.31 124.49 42.64 125.37 42.80 125.81 C 41.65 125.72 40.49 125.65 39.33 125.60 L 39.55 124.85 C 40.51 122.02 41.91 119.37 43.31 116.74 L 43.60 117.13 C 47.45 119.21 52.26 118.40 55.93 120.95 C 60.93 123.78 63.21 129.25 66.29 133.79 C 67.20 134.87 68.35 136.59 69.99 136.13 C 76.44 134.74 81.59 130.29 87.34 127.32 C 96.97 122.33 107.69 120.23 118.04 117.27 C 122.32 116.01 126.83 115.05 130.62 112.57 C 133.02 111.06 134.03 108.29 135.28 105.89 C 137.69 109.20 139.66 115.04 144.84 113.56 C 148.46 111.96 151.19 108.72 154.72 106.85 L 155.81 106.11 C 156.06 102.17 153.80 98.76 151.89 95.51 C 150.04 92.71 148.30 89.83 146.67 86.90 C 150.68 89.15 154.88 91.18 159.48 91.88 C 163.11 93.62 167.45 95.41 171.35 93.39 C 174.67 91.62 178.38 88.37 177.24 84.19 C 177.86 83.37 178.46 82.54 179.05 81.69 Z" />
</g>
<g id="#e1e1e1ff">
<path fill="#e1e1e1" opacity="1.00" d=" M 99.75 82.52 C 100.68 82.45 101.61 82.54 102.54 82.64 L 103.48 82.76 C 108.66 86.00 113.19 90.22 116.40 95.45 C 115.36 96.56 114.14 97.50 112.71 98.04 C 109.68 92.53 104.78 88.24 98.93 85.96 C 99.16 84.80 99.43 83.66 99.75 82.52 Z" />
</g>
<g id="#f9757dff">
<path fill="#f9757d" opacity="1.00" d=" M 144.58 83.38 C 149.65 86.02 154.77 88.62 159.48 91.88 C 154.88 91.18 150.68 89.15 146.67 86.90 C 145.95 85.74 145.25 84.57 144.58 83.38 Z" />
</g>
<g id="#f9cad2ff">
<path fill="#f9cad2" opacity="1.00" d=" M 29.18 90.33 C 34.01 88.77 38.87 86.84 43.94 86.31 C 48.15 86.85 49.32 91.52 51.70 94.32 C 54.73 98.50 60.78 98.19 63.97 102.17 C 62.69 102.74 61.42 103.35 60.17 103.97 C 54.39 104.70 48.82 106.84 43.00 107.05 C 38.22 106.06 37.77 99.56 33.69 97.45 C 31.01 96.35 27.65 96.53 25.55 94.29 C 24.96 92.21 27.68 91.10 29.18 90.33 Z" />
</g>
<g id="#f73f53ff">
<path fill="#f73f53" opacity="1.00" d=" M 122.51 90.41 C 122.91 90.12 123.71 89.53 124.12 89.24 C 131.53 95.13 136.77 103.15 143.05 110.09 C 147.56 110.91 151.00 106.77 154.84 105.01 C 154.81 105.47 154.75 106.39 154.72 106.85 C 151.19 108.72 148.46 111.96 144.84 113.56 C 139.66 115.04 137.69 109.20 135.28 105.89 C 131.75 100.18 127.01 95.34 122.51 90.41 Z" />
</g>
<g id="#fec5ccff">
<path fill="#fec5cc" opacity="1.00" d=" M 122.51 90.41 C 127.01 95.34 131.75 100.18 135.28 105.89 C 134.03 108.29 133.02 111.06 130.62 112.57 C 126.83 115.05 122.32 116.01 118.04 117.27 C 107.69 120.23 96.97 122.33 87.34 127.32 C 81.59 130.29 76.44 134.74 69.99 136.13 C 68.35 136.59 67.20 134.87 66.29 133.79 C 63.21 129.25 60.93 123.78 55.93 120.95 C 52.26 118.40 47.45 119.21 43.60 117.13 C 45.94 114.87 48.60 112.94 51.60 111.64 C 51.43 113.06 51.26 114.49 51.10 115.91 C 54.69 117.05 59.43 116.77 61.62 120.39 C 64.07 123.77 66.18 128.58 70.92 128.98 C 77.75 130.30 83.92 126.45 89.21 122.65 C 86.52 120.06 82.84 119.12 79.64 117.37 C 75.88 115.36 75.12 110.62 72.07 107.92 C 70.16 106.91 67.93 106.88 65.83 106.65 C 71.21 104.98 76.32 102.61 81.48 100.37 C 81.53 102.18 80.99 104.26 82.10 105.87 C 84.08 108.61 87.29 110.02 90.21 111.53 C 90.65 111.75 91.54 112.19 91.99 112.42 C 92.88 111.69 93.78 110.97 94.66 110.24 C 98.31 111.71 102.66 110.09 104.92 106.98 C 106.60 104.65 109.80 102.70 109.33 99.44 C 110.45 98.97 111.58 98.50 112.71 98.04 C 114.14 97.50 115.36 96.56 116.40 95.45 C 117.90 93.90 119.59 92.54 121.34 91.27 C 121.63 91.06 122.22 90.62 122.51 90.41 Z" />
</g>
<g id="#d6d6d6ff">
<path fill="#d6d6d6" opacity="1.00" d=" M 86.51 95.68 C 86.79 94.46 86.34 92.42 88.02 92.12 C 89.05 92.26 90.06 92.46 91.06 92.74 C 91.75 93.09 92.42 93.46 93.09 93.86 C 97.27 96.49 100.46 100.27 103.56 104.04 C 104.07 103.64 105.10 102.84 105.61 102.44 C 104.78 104.77 102.84 106.34 100.95 107.81 C 100.61 107.41 99.94 106.63 99.60 106.24 C 96.15 101.72 91.92 97.70 86.51 95.68 Z" />
</g>
<g id="#f997a4ff">
<path fill="#f997a4" opacity="1.00" d=" M 13.42 105.14 C 14.15 102.21 15.27 99.39 16.89 96.84 C 21.45 98.00 26.52 97.66 30.56 100.40 C 33.93 102.41 36.23 105.67 38.23 108.95 C 38.03 109.14 37.63 109.52 37.42 109.71 C 36.64 110.49 35.83 111.25 34.99 111.98 C 31.16 108.80 27.74 104.76 22.71 103.45 C 19.51 102.32 16.38 104.15 13.42 105.14 Z" />
</g>
<g id="#9e0000ff">
<path fill="#9e0000" opacity="1.00" d=" M 81.48 100.37 C 82.95 98.89 84.64 97.64 86.25 96.31 C 85.46 98.55 84.52 100.74 83.90 103.03 C 85.55 106.21 89.37 107.82 90.21 111.53 C 87.29 110.02 84.08 108.61 82.10 105.87 C 80.99 104.26 81.53 102.18 81.48 100.37 Z" />
</g>
<g id="#f85d72ff">
<path fill="#f85d72" opacity="1.00" d=" M 138.12 99.98 C 140.91 100.35 143.59 99.46 145.72 97.65 C 147.73 97.75 149.73 97.89 151.74 98.06 C 148.19 100.27 143.97 101.12 139.90 101.79 C 138.36 102.18 137.34 100.70 136.24 99.96 L 138.12 99.98 Z" />
</g>
<g id="#f28592ff">
<path fill="#f28592" opacity="1.00" d=" M 105.61 102.44 C 106.83 101.42 108.06 100.41 109.33 99.44 C 109.80 102.70 106.60 104.65 104.92 106.98 C 102.66 110.09 98.31 111.71 94.66 110.24 C 96.30 108.90 97.95 107.56 99.60 106.24 C 99.94 106.63 100.61 107.41 100.95 107.81 C 102.84 106.34 104.78 104.77 105.61 102.44 Z" />
</g>
<g id="#f35b6bff">
<path fill="#f35b6b" opacity="1.00" d=" M 13.42 105.14 C 16.38 104.15 19.51 102.32 22.71 103.45 C 27.74 104.76 31.16 108.80 34.99 111.98 C 35.83 111.25 36.64 110.49 37.42 109.71 C 39.67 111.80 41.65 114.16 43.31 116.74 C 41.91 119.37 40.51 122.02 39.55 124.85 C 38.70 120.35 36.40 116.26 33.76 112.58 C 32.69 116.16 34.90 119.67 35.27 123.22 C 31.33 118.38 30.62 111.05 24.41 108.19 C 21.23 105.60 17.10 105.13 13.13 105.29 L 13.01 105.29 L 13.42 105.14 Z" />
</g>
<g id="#fc5768ff">
<path fill="#fc5768" opacity="1.00" d=" M 182.76 102.90 C 183.08 104.66 183.37 106.42 183.48 108.21 C 182.33 110.50 181.29 112.85 180.35 115.24 C 176.21 122.74 170.65 129.74 163.00 133.89 C 153.37 139.08 142.54 141.31 132.11 144.33 C 131.45 144.22 130.12 143.99 129.46 143.88 C 133.12 141.11 137.84 140.67 142.03 139.11 C 150.12 136.21 159.06 134.57 165.70 128.72 C 173.78 121.98 179.15 112.66 182.76 102.90 Z" />
</g>
<g id="#ecececff">
<path fill="#ececec" opacity="1.00" d=" M 11.07 110.05 C 11.76 108.46 12.44 106.87 13.13 105.29 C 17.10 105.13 21.23 105.60 24.41 108.19 C 20.57 108.38 16.38 107.28 12.87 109.29 C 20.24 110.55 25.10 116.93 28.00 123.35 C 21.53 120.15 15.55 115.75 11.07 110.05 Z" />
<path fill="#ececec" opacity="1.00" d=" M 38.41 126.94 C 41.11 126.99 43.81 127.37 46.21 128.68 C 43.68 128.82 40.75 128.48 38.70 130.26 C 45.87 131.58 50.68 137.61 53.38 143.98 C 46.28 141.04 41.23 135.15 35.32 130.54 C 36.67 129.64 37.70 128.40 38.41 126.94 Z" />
</g>
<g id="#fed3daff">
<path fill="#fed3da" opacity="1.00" d=" M 51.60 111.64 C 56.19 109.56 61.03 108.13 65.83 106.65 C 67.93 106.88 70.16 106.91 72.07 107.92 C 75.12 110.62 75.88 115.36 79.64 117.37 C 82.84 119.12 86.52 120.06 89.21 122.65 C 83.92 126.45 77.75 130.30 70.92 128.98 C 66.18 128.58 64.07 123.77 61.62 120.39 C 59.43 116.77 54.69 117.05 51.10 115.91 C 51.26 114.49 51.43 113.06 51.60 111.64 Z" />
</g>
<g id="#fcfcfcff">
<path fill="#fcfcfc" opacity="1.00" d=" M 12.87 109.29 C 16.38 107.28 20.57 108.38 24.41 108.19 C 30.62 111.05 31.33 118.38 35.27 123.22 C 35.77 123.96 36.27 124.72 36.88 125.39 C 37.26 125.78 38.02 126.55 38.41 126.94 C 37.70 128.40 36.67 129.64 35.32 130.54 C 32.37 128.71 30.11 126.06 28.00 123.35 C 25.10 116.93 20.24 110.55 12.87 109.29 Z" />
<path fill="#fcfcfc" opacity="1.00" d=" M 38.70 130.26 C 40.75 128.48 43.68 128.82 46.21 128.68 C 49.46 130.23 52.68 132.28 54.62 135.41 C 56.17 137.87 57.73 140.33 59.65 142.54 C 60.64 143.86 61.64 145.20 62.71 146.46 C 63.54 147.22 64.40 147.95 65.28 148.64 C 64.87 149.70 64.45 150.75 64.04 151.80 C 58.97 152.02 56.33 147.26 53.38 143.98 C 50.68 137.61 45.87 131.58 38.70 130.26 Z" />
</g>
<g id="#d7d7d7ff">
<path fill="#d7d7d7" opacity="1.00" d=" M 183.48 108.21 L 183.98 107.10 C 186.96 111.40 188.98 116.40 189.76 121.57 C 189.46 124.87 189.44 128.52 187.22 131.22 C 182.66 137.49 175.34 140.87 168.22 143.35 C 162.68 145.28 156.70 144.76 151.02 146.02 C 144.07 147.44 137.44 150.09 130.91 152.82 C 119.37 158.22 106.75 161.22 94.06 162.04 C 84.40 162.70 74.46 161.44 65.67 157.22 C 56.94 153.10 47.81 149.06 40.93 142.08 C 38.63 139.87 37.72 136.75 36.76 133.81 C 32.39 133.62 28.79 130.90 25.13 128.81 C 18.84 125.00 12.59 120.03 10.69 112.55 C 10.79 111.71 10.92 110.88 11.07 110.05 C 15.55 115.75 21.53 120.15 28.00 123.35 C 30.11 126.06 32.37 128.71 35.32 130.54 C 41.23 135.15 46.28 141.04 53.38 143.98 C 56.33 147.26 58.97 152.02 64.04 151.80 C 68.51 152.28 72.48 154.68 76.94 155.24 C 88.87 157.09 100.95 154.58 112.36 151.16 C 129.47 146.87 147.51 145.41 163.60 137.63 C 170.57 134.40 176.50 129.12 180.86 122.82 C 182.78 120.12 183.70 116.87 183.67 113.57 C 182.84 113.98 181.18 114.82 180.35 115.24 C 181.29 112.85 182.33 110.50 183.48 108.21 Z" />
</g>
<g id="#b2b2b2ff">
<path fill="#b2b2b2" opacity="1.00" d=" M 10.69 112.55 C 12.59 120.03 18.84 125.00 25.13 128.81 C 28.79 130.90 32.39 133.62 36.76 133.81 C 37.72 136.75 38.63 139.87 40.93 142.08 C 47.81 149.06 56.94 153.10 65.67 157.22 C 74.46 161.44 84.40 162.70 94.06 162.04 C 106.75 161.22 119.37 158.22 130.91 152.82 C 137.44 150.09 144.07 147.44 151.02 146.02 C 156.70 144.76 162.68 145.28 168.22 143.35 C 175.34 140.87 182.66 137.49 187.22 131.22 C 189.44 128.52 189.46 124.87 189.76 121.57 C 191.19 126.73 190.73 132.81 186.60 136.64 C 178.51 144.46 167.05 148.27 155.93 148.46 C 145.43 149.77 135.71 154.26 126.02 158.25 C 116.44 162.06 106.25 164.21 95.99 165.12 C 86.58 165.79 76.81 165.31 68.02 161.55 C 58.85 157.72 49.59 153.53 41.98 147.01 C 39.15 144.69 37.16 141.55 36.12 138.06 C 28.66 134.54 21.08 130.77 15.09 124.98 C 11.74 121.84 9.90 117.14 10.69 112.55 Z" />
<path fill="#b2b2b2" opacity="1.00" d=" M 62.71 146.46 C 65.19 147.05 67.66 147.71 70.08 148.50 C 79.83 151.68 90.24 151.82 100.37 151.10 C 88.78 154.24 76.66 151.39 65.28 148.64 C 64.40 147.95 63.54 147.22 62.71 146.46 Z" />
</g>
<g id="#ee3949ff">
<path fill="#ee3949" opacity="1.00" d=" M 35.27 123.22 C 34.90 119.67 32.69 116.16 33.76 112.58 C 36.40 116.26 38.70 120.35 39.55 124.85 L 39.33 125.60 C 38.71 125.55 37.49 125.44 36.88 125.39 C 36.27 124.72 35.77 123.96 35.27 123.22 Z" />
</g>
<g id="#fdfdfdff">
<path fill="#fdfdfd" opacity="1.00" d=" M 180.35 115.24 C 181.18 114.82 182.84 113.98 183.67 113.57 C 183.70 116.87 182.78 120.12 180.86 122.82 C 176.50 129.12 170.57 134.40 163.60 137.63 C 147.51 145.41 129.47 146.87 112.36 151.16 C 110.08 150.29 107.68 149.87 105.27 149.63 C 114.41 148.97 123.25 146.49 132.11 144.33 C 142.54 141.31 153.37 139.08 163.00 133.89 C 170.65 129.74 176.21 122.74 180.35 115.24 Z" />
</g>
<g id="#fa5e6eff">
<path fill="#fa5e6e" opacity="1.00" d=" M 42.14 124.05 C 50.26 122.93 58.42 128.59 61.28 136.07 C 62.72 141.19 66.41 144.89 70.08 148.50 C 67.66 147.71 65.19 147.05 62.71 146.46 C 61.64 145.20 60.64 143.86 59.65 142.54 C 57.98 134.35 51.32 126.88 42.80 125.81 C 42.64 125.37 42.31 124.49 42.14 124.05 Z" />
</g>
<g id="#cec4c5ff">
<path fill="#cec4c5" opacity="1.00" d=" M 36.88 125.39 C 37.49 125.44 38.71 125.55 39.33 125.60 C 40.49 125.65 41.65 125.72 42.80 125.81 C 51.32 126.88 57.98 134.35 59.65 142.54 C 57.73 140.33 56.17 137.87 54.62 135.41 C 52.68 132.28 49.46 130.23 46.21 128.68 C 43.81 127.37 41.11 126.99 38.41 126.94 C 38.02 126.55 37.26 125.78 36.88 125.39 Z" />
</g>
<g id="#edededff">
<path fill="#ededed" opacity="1.00" d=" M 65.28 148.64 C 76.66 151.39 88.78 154.24 100.37 151.10 C 102.02 150.67 103.61 150.03 105.27 149.63 C 107.68 149.87 110.08 150.29 112.36 151.16 C 100.95 154.58 88.87 157.09 76.94 155.24 C 72.48 154.68 68.51 152.28 64.04 151.80 C 64.45 150.75 64.87 149.70 65.28 148.64 Z" />
</g>
</svg>
