<?xml version="1.0" encoding="UTF-8" ?>
<!DOCTYPE svg PUBLIC "-//W3C//DTD SVG 1.1//EN" "http://www.w3.org/Graphics/SVG/1.1/DTD/svg11.dtd">
<svg width="907pt" height="1542pt" viewBox="0 0 907 1542" version="1.1" xmlns="http://www.w3.org/2000/svg">
<g id="#ab22baff">
<path fill="#ab22ba" opacity="1.00" d=" M 553.54 26.81 C 590.41 22.18 628.88 31.35 659.39 52.65 C 688.75 72.78 710.65 103.51 720.03 137.86 C 731.08 177.56 725.29 221.66 704.00 256.99 C 686.12 287.16 657.50 310.79 624.48 322.62 C 589.44 335.33 549.75 334.60 515.21 320.60 C 479.38 306.23 449.47 277.78 433.46 242.65 C 421.57 216.98 417.18 187.96 420.64 159.91 C 424.30 129.09 437.77 99.57 458.53 76.52 C 482.83 49.22 517.23 31.13 553.54 26.81 Z" />
<path fill="#ab22ba" opacity="1.00" d=" M 419.64 462.82 C 445.34 460.75 471.38 461.34 496.76 466.07 C 532.68 472.74 566.63 489.68 593.48 514.47 C 634.84 552.36 658.84 607.34 661.86 663.06 C 663.06 681.40 661.49 699.77 659.33 717.98 C 654.65 756.12 645.44 793.56 634.21 830.26 C 627.57 851.69 620.77 873.14 611.48 893.59 C 576.93 971.04 519.34 1035.57 485.40 1113.34 C 475.76 1135.14 467.64 1157.65 461.87 1180.79 C 456.93 1201.14 453.58 1222.02 453.99 1243.01 C 454.05 1264.30 458.27 1285.83 467.96 1304.88 C 474.53 1317.35 482.95 1329.39 495.00 1337.10 C 506.66 1344.85 521.48 1348.84 535.27 1345.20 C 550.32 1341.19 561.28 1328.70 568.62 1315.56 C 587.31 1279.64 600.58 1240.87 623.15 1207.02 C 633.60 1191.28 646.13 1176.46 662.14 1166.14 C 676.51 1156.69 693.84 1151.93 711.01 1152.59 C 729.29 1153.40 747.49 1158.45 763.27 1167.77 C 778.91 1177.03 791.11 1191.79 797.38 1208.84 C 805.89 1231.55 805.72 1256.51 802.12 1280.20 C 796.38 1316.52 782.89 1351.26 765.65 1383.60 C 755.73 1402.08 744.35 1419.82 731.24 1436.21 C 721.67 1447.89 711.25 1459.10 698.79 1467.74 C 662.98 1493.25 621.15 1509.45 578.23 1518.19 C 526.47 1528.60 472.89 1528.86 420.82 1520.59 C 384.47 1514.70 348.82 1502.37 317.99 1482.00 C 300.00 1470.13 283.76 1455.46 270.83 1438.19 C 247.20 1406.92 234.91 1368.56 229.32 1330.14 C 222.57 1282.27 224.29 1233.36 232.85 1185.83 C 241.60 1137.77 257.43 1091.01 279.52 1047.45 C 303.68 998.73 337.43 955.81 368.15 911.21 C 388.55 881.57 407.73 850.81 421.52 817.46 C 428.03 802.53 431.91 786.66 435.94 770.94 C 442.32 744.83 447.69 718.46 451.32 691.82 C 454.00 670.96 456.14 649.84 454.36 628.82 C 453.38 618.85 451.69 608.48 446.08 599.96 C 442.60 594.63 436.38 591.21 429.98 591.51 C 422.23 591.98 414.97 595.35 408.58 599.57 C 395.62 608.50 386.79 621.82 376.12 633.12 C 351.48 659.55 322.98 682.39 291.97 700.94 C 275.61 710.62 258.31 718.93 239.98 724.16 C 221.30 729.50 201.79 732.04 182.37 731.46 C 170.72 730.53 161.46 721.92 155.42 712.51 C 145.54 696.78 140.81 678.33 138.68 660.03 C 136.69 644.29 139.18 628.26 144.27 613.33 C 150.36 595.80 160.75 579.96 173.54 566.59 C 200.26 538.77 234.97 520.45 269.77 504.78 C 317.26 483.53 367.59 467.30 419.64 462.82 Z" />
</g>
</svg>
