<?xml version="1.0" encoding="UTF-8" ?>
<!DOCTYPE svg PUBLIC "-//W3C//DTD SVG 1.1//EN" "http://www.w3.org/Graphics/SVG/1.1/DTD/svg11.dtd">
<svg width="815pt" height="824pt" viewBox="0 0 815 824" version="1.1" xmlns="http://www.w3.org/2000/svg">
<g id="#ab22baff">
<path fill="#ab22ba" opacity="1.00" d=" M 664.55 47.83 C 682.08 45.37 701.02 48.01 715.80 58.28 C 729.05 67.40 737.87 81.58 743.50 96.39 C 750.97 116.35 753.77 137.71 754.89 158.88 C 756.79 201.71 752.09 244.52 745.36 286.76 C 738.11 331.56 728.15 375.87 716.91 419.82 C 699.72 486.32 679.52 552.03 656.97 616.91 C 644.60 652.79 627.88 687.50 604.76 717.74 C 583.47 745.84 556.31 769.68 524.93 785.90 C 505.89 795.78 485.48 803.08 464.42 807.24 C 442.02 811.56 418.57 812.42 396.31 806.78 C 379.16 802.58 363.02 794.00 350.31 781.69 C 338.36 770.25 330.11 755.64 323.25 740.74 C 306.20 702.80 300.50 661.10 296.19 620.09 C 293.93 597.02 291.66 573.95 289.09 550.91 C 282.02 480.15 281.56 408.97 278.10 338.00 C 277.17 320.91 277.01 303.54 272.07 287.01 C 266.94 268.50 256.23 251.82 242.19 238.81 C 220.71 218.60 194.40 204.67 170.90 187.08 C 157.05 176.37 146.17 161.27 142.38 144.01 C 138.36 126.57 142.13 107.77 151.75 92.77 C 162.55 76.15 179.20 63.17 198.20 57.33 C 219.87 50.78 243.04 51.60 265.15 55.35 C 286.10 58.99 306.52 65.51 325.90 74.23 C 340.90 81.11 355.47 89.23 368.22 99.80 C 386.40 115.40 402.46 133.57 415.01 154.02 C 431.29 180.13 441.83 209.49 448.41 239.46 C 459.30 288.94 460.47 339.78 463.62 390.15 C 466.38 434.39 470.29 479.07 483.62 521.58 C 489.49 540.14 497.03 558.27 507.01 575.02 C 509.79 580.00 514.95 584.41 521.00 583.68 C 528.89 582.58 535.18 576.34 538.53 569.40 C 556.22 529.48 567.61 487.06 575.60 444.22 C 585.47 391.01 590.11 337.01 594.20 283.09 C 595.70 260.07 598.05 237.10 598.91 214.03 C 599.62 188.85 599.71 163.59 602.78 138.54 C 604.93 120.88 608.47 103.15 615.85 86.87 C 621.79 73.83 630.93 61.73 643.68 54.74 C 650.13 51.17 657.26 48.90 664.55 47.83 Z" />
</g>
</svg>
