<?xml version="1.0" encoding="UTF-8" ?>
<!DOCTYPE svg PUBLIC "-//W3C//DTD SVG 1.1//EN" "http://www.w3.org/Graphics/SVG/1.1/DTD/svg11.dtd">
<svg width="1136pt" height="1132pt" viewBox="0 0 1136 1132" version="1.1" xmlns="http://www.w3.org/2000/svg">
<g id="#662483ff">
<path fill="#662483" opacity="1.00" d=" M 521.46 0.00 L 522.48 0.00 C 536.94 0.40 550.37 6.46 563.04 12.92 C 572.43 17.71 581.66 22.85 591.33 27.08 C 609.88 21.07 627.10 11.18 646.31 7.23 C 656.77 5.00 667.95 5.67 677.74 10.17 C 682.00 11.82 685.68 14.61 689.76 16.62 C 702.01 14.79 715.14 15.56 726.00 22.06 C 745.37 33.31 757.99 52.47 774.12 67.48 C 795.93 68.24 818.17 63.75 839.65 69.21 C 852.17 72.26 862.43 81.01 869.72 91.35 C 879.39 93.33 889.08 96.71 896.64 103.26 C 905.96 111.24 911.80 122.34 916.77 133.37 C 921.92 144.90 926.19 156.82 931.87 168.12 C 947.45 174.30 963.96 177.87 979.33 184.62 C 988.13 188.51 996.63 193.68 1002.81 201.18 C 1008.16 207.64 1011.46 215.51 1013.75 223.50 C 1021.21 228.06 1028.38 233.49 1033.27 240.85 C 1039.82 250.61 1042.31 262.41 1043.52 273.92 C 1044.98 288.16 1044.66 302.51 1046.22 316.74 C 1057.27 326.47 1069.62 334.59 1080.68 344.30 C 1089.10 351.71 1096.97 360.31 1101.02 370.93 C 1104.20 379.11 1104.53 388.04 1104.00 396.70 C 1112.01 406.29 1117.87 418.23 1117.71 430.96 C 1117.72 453.30 1107.51 473.77 1102.42 495.14 C 1111.45 511.78 1123.63 526.68 1130.81 544.32 C 1133.64 551.07 1134.90 558.33 1136.00 565.53 L 1136.00 566.14 C 1134.88 572.90 1133.84 579.77 1131.19 586.14 C 1130.46 588.21 1128.99 590.38 1130.13 592.60 C 1134.15 604.28 1134.67 617.37 1129.95 628.92 C 1121.92 649.13 1105.94 664.54 1094.21 682.51 C 1097.24 704.35 1105.73 725.65 1103.91 747.98 C 1103.01 760.76 1096.02 772.12 1087.28 781.11 C 1087.15 791.58 1085.11 802.35 1079.27 811.21 C 1072.21 822.06 1061.50 829.77 1050.86 836.81 C 1041.41 843.02 1031.63 848.76 1022.55 855.52 C 1018.81 873.58 1018.43 892.27 1013.15 910.02 C 1010.64 918.31 1006.77 926.36 1000.75 932.68 C 995.58 938.17 989.11 942.20 982.41 945.53 C 978.81 954.72 973.74 963.62 966.02 969.96 C 956.11 978.22 943.56 982.28 931.24 985.38 C 919.49 988.33 907.53 990.38 895.90 993.80 C 887.33 1007.85 881.03 1023.18 871.94 1036.94 C 866.57 1045.03 859.98 1052.62 851.46 1057.51 C 844.13 1061.76 835.72 1063.62 827.37 1064.54 C 822.38 1070.22 816.80 1075.54 810.09 1079.15 C 801.22 1084.00 790.91 1085.43 780.92 1085.35 C 763.82 1085.18 747.05 1081.31 730.02 1080.20 C 716.92 1090.67 705.57 1103.19 691.98 1113.06 C 683.97 1118.84 674.92 1123.66 665.03 1125.08 C 657.06 1126.27 648.95 1125.10 641.19 1123.17 C 632.02 1128.21 621.71 1131.99 611.11 1131.64 C 586.44 1129.43 566.17 1113.92 544.02 1104.45 C 526.15 1110.31 509.49 1119.64 491.09 1123.89 C 481.00 1126.26 470.15 1126.32 460.42 1122.49 C 455.24 1120.58 450.45 1117.79 445.84 1114.80 C 434.04 1116.75 421.39 1116.09 410.74 1110.20 C 394.51 1101.44 383.05 1086.55 370.55 1073.43 C 367.41 1070.33 364.65 1066.74 361.05 1064.16 C 347.68 1063.54 334.32 1065.12 320.95 1065.06 C 308.22 1065.04 294.85 1063.89 283.63 1057.33 C 276.38 1053.12 270.58 1046.88 265.66 1040.17 C 256.44 1038.29 247.22 1035.15 239.82 1029.16 C 230.91 1021.98 225.04 1011.86 220.23 1001.65 C 214.32 989.05 209.79 975.85 203.53 963.41 C 187.70 957.14 170.92 953.56 155.35 946.60 C 146.18 942.48 137.37 936.86 131.29 928.69 C 126.59 922.63 123.99 915.34 121.55 908.17 C 113.76 902.96 105.86 897.27 101.05 888.99 C 92.23 874.31 91.54 856.65 90.73 840.01 C 90.38 831.59 90.09 823.16 89.17 814.78 C 75.85 803.04 60.54 793.66 48.07 780.94 C 40.70 773.43 34.53 764.30 32.40 753.85 C 31.04 747.63 31.04 741.21 31.42 734.89 C 23.54 725.36 17.64 713.63 17.70 701.01 C 17.53 678.48 27.93 657.86 32.96 636.31 C 24.61 621.12 13.83 607.33 6.48 591.59 C 3.01 584.24 0.70 576.35 0.00 568.24 L 0.00 563.82 C 0.52 555.93 2.76 548.28 5.93 541.07 C 3.10 532.70 1.26 523.78 2.35 514.92 C 3.62 504.23 8.64 494.43 14.48 485.55 C 22.79 472.92 32.91 461.61 41.20 448.97 C 38.75 432.44 33.65 416.41 31.75 399.80 C 30.69 390.04 30.87 379.86 34.50 370.62 C 37.44 363.01 42.47 356.41 48.06 350.56 C 48.32 342.45 49.35 334.20 52.69 326.73 C 56.54 317.91 63.29 310.72 70.67 304.71 C 83.93 293.97 99.28 286.21 112.89 275.96 C 116.07 260.13 116.89 243.92 120.48 228.18 C 122.74 218.42 126.31 208.67 132.83 200.91 C 138.24 194.39 145.50 189.73 153.01 185.98 C 155.90 178.71 159.57 171.63 164.91 165.85 C 171.54 158.58 180.43 153.80 189.59 150.50 C 205.81 144.67 223.05 142.61 239.53 137.72 C 247.96 123.83 254.23 108.73 263.13 95.11 C 268.58 86.79 275.28 78.97 284.02 73.98 C 291.33 69.77 299.70 67.90 308.02 67.01 C 313.18 61.14 318.97 55.65 325.98 52.04 C 335.17 47.22 345.77 45.98 356.02 46.21 C 372.56 46.61 388.81 50.21 405.29 51.36 C 422.67 37.77 436.92 19.71 457.32 10.32 C 468.82 4.84 482.12 5.08 494.21 8.37 C 502.57 3.71 511.80 0.32 521.46 0.00 M 498.89 9.70 C 518.80 15.94 537.18 26.85 557.88 30.60 C 567.38 32.40 577.15 31.17 586.39 28.64 C 576.58 23.91 567.05 18.64 557.29 13.81 C 546.81 8.73 535.75 4.02 523.96 3.48 C 515.19 3.03 506.63 5.78 498.89 9.70 M 448.84 18.85 C 434.79 28.21 423.34 40.77 410.46 51.57 C 417.13 51.61 423.88 51.19 430.32 49.32 C 438.72 46.88 446.35 42.40 453.54 37.51 C 465.97 28.97 477.33 18.93 490.08 10.83 C 485.77 9.96 481.39 9.29 476.99 9.34 C 466.84 9.23 457.16 13.31 448.84 18.85 M 605.36 25.49 C 602.53 26.83 599.29 27.37 596.74 29.24 C 605.96 32.77 615.95 34.56 625.81 33.28 C 646.11 30.82 664.85 21.89 684.75 17.64 C 675.64 11.92 664.88 8.33 654.03 9.51 C 636.82 11.20 621.22 19.25 605.36 25.49 M 494.47 12.21 C 473.96 24.11 457.57 42.69 435.11 51.28 C 426.08 54.73 416.28 55.13 406.73 54.82 C 403.61 56.60 400.94 59.07 397.82 60.85 C 389.78 66.05 380.48 69.13 370.98 70.12 C 350.59 72.60 330.00 68.33 309.65 70.47 C 295.27 87.80 286.39 109.30 270.04 125.06 C 262.24 132.77 252.05 137.44 241.69 140.62 C 237.74 146.83 233.34 152.83 227.85 157.77 C 222.23 162.85 215.54 166.60 208.63 169.63 C 191.42 177.14 172.74 180.63 155.68 188.50 C 148.09 209.43 147.01 232.29 137.63 252.62 C 132.96 262.97 124.75 271.17 115.86 278.00 C 114.26 285.12 112.14 292.18 108.70 298.63 C 105.01 305.59 99.72 311.56 94.00 316.92 C 80.52 329.46 64.54 339.01 51.43 351.98 C 51.58 374.45 58.46 396.52 56.42 419.05 C 55.50 430.20 50.63 440.52 44.70 449.84 C 46.26 461.21 46.11 473.10 41.87 483.91 C 34.01 504.55 18.91 521.30 9.58 541.21 C 17.68 563.36 32.92 582.59 37.87 605.92 C 39.97 615.84 38.74 626.10 36.56 635.89 C 41.67 645.49 45.55 656.03 45.59 667.03 C 45.93 689.79 37.11 711.31 34.92 733.77 C 50.11 751.63 70.78 764.52 83.36 784.63 C 88.52 792.88 90.93 802.48 92.22 812.04 C 92.31 813.52 93.76 814.28 94.66 815.28 C 102.54 822.51 109.09 831.40 112.51 841.62 C 119.66 862.30 119.06 884.59 124.48 905.67 C 138.14 913.38 153.16 918.18 167.30 924.86 C 178.77 930.22 190.03 937.07 197.65 947.42 C 200.99 951.55 203.31 956.36 206.19 960.77 C 215.95 964.99 225.55 970.30 232.54 978.51 C 246.86 995.00 253.90 1016.15 265.72 1034.28 C 266.58 1035.39 267.15 1037.15 268.81 1037.25 C 290.25 1040.82 312.41 1038.11 333.57 1043.63 C 344.10 1046.28 353.43 1052.34 361.37 1059.61 C 363.37 1061.67 366.56 1060.65 369.12 1061.22 C 381.38 1062.09 393.16 1066.75 402.95 1074.14 C 418.48 1085.38 431.01 1100.26 446.75 1111.25 C 468.56 1107.19 488.87 1096.85 511.10 1094.75 C 522.46 1093.54 533.78 1096.48 544.19 1100.86 C 555.33 1097.29 567.30 1095.44 578.89 1097.78 C 600.59 1101.78 619.69 1113.73 640.84 1119.51 C 659.76 1108.22 675.28 1091.81 695.31 1082.32 C 705.70 1077.26 717.48 1076.12 728.88 1076.79 C 737.43 1070.13 747.08 1064.46 757.87 1062.46 C 780.28 1058.11 803.11 1063.14 825.68 1061.28 C 840.32 1043.42 849.40 1021.31 866.49 1005.43 C 874.10 998.28 883.84 993.98 893.71 990.92 C 899.76 981.18 907.45 972.13 917.61 966.52 C 935.53 956.31 956.20 952.88 975.12 945.07 C 976.66 944.33 978.44 943.92 979.74 942.75 C 987.80 921.04 988.42 896.97 999.15 876.18 C 1003.89 867.04 1011.46 859.79 1019.52 853.57 C 1021.31 845.69 1023.71 837.85 1027.85 830.86 C 1032.08 823.71 1037.90 817.65 1044.10 812.18 C 1056.98 800.84 1071.66 791.67 1083.95 779.63 C 1083.86 757.32 1077.04 735.42 1078.93 713.05 C 1079.77 701.75 1084.59 691.20 1090.68 681.80 C 1089.69 673.51 1089.23 665.04 1090.90 656.81 C 1092.84 647.26 1097.24 638.43 1102.13 630.07 C 1109.92 616.80 1119.12 604.35 1125.81 590.45 C 1118.07 568.96 1103.55 550.33 1098.04 527.97 C 1095.28 517.29 1096.53 506.14 1098.83 495.52 C 1093.56 485.85 1089.78 475.12 1089.80 464.01 C 1089.62 441.44 1098.27 420.09 1100.50 397.81 C 1086.22 381.02 1067.26 368.66 1054.43 350.57 C 1047.55 341.20 1044.43 329.73 1042.98 318.35 C 1034.86 311.13 1027.63 302.54 1023.77 292.26 C 1015.62 271.12 1016.71 247.93 1010.90 226.23 C 1006.44 222.77 1000.74 220.87 995.62 218.40 C 979.45 211.33 962.21 205.80 948.15 194.79 C 940.01 188.47 934.16 179.78 929.41 170.76 C 919.75 166.80 910.36 161.51 903.38 153.60 C 887.91 136.20 880.97 113.33 867.73 94.43 C 845.49 90.61 822.44 93.63 800.55 87.55 C 790.73 84.84 782.03 79.14 774.53 72.37 C 773.69 71.79 773.01 70.75 771.91 70.75 C 764.97 70.34 758.00 69.54 751.37 67.39 C 744.12 65.08 737.51 61.14 731.42 56.64 C 716.38 45.49 704.05 31.09 688.72 20.31 C 666.46 24.36 645.77 35.13 623.05 36.88 C 612.07 37.81 601.23 34.86 591.19 30.69 C 580.52 34.08 569.13 35.98 557.99 34.01 C 537.69 30.62 519.64 20.11 500.28 13.72 C 498.36 13.17 496.48 12.24 494.47 12.21 M 693.54 19.58 C 709.61 31.69 722.71 47.45 739.79 58.26 C 748.46 63.88 758.71 66.52 768.95 67.22 C 754.97 53.48 743.30 37.05 726.62 26.33 C 716.93 19.93 704.92 18.02 693.54 19.58 M 330.60 53.58 C 323.73 56.42 317.92 61.27 312.88 66.65 C 333.63 65.59 354.53 69.56 375.17 66.11 C 384.76 64.60 393.59 60.12 401.36 54.41 C 387.52 53.17 373.84 50.50 359.96 49.71 C 350.08 49.19 339.84 49.69 330.60 53.58 M 777.95 70.93 C 785.45 77.46 794.21 82.77 803.99 85.00 C 823.97 89.75 844.72 87.72 864.94 90.58 C 858.16 81.75 848.78 74.66 837.79 72.20 C 818.13 67.58 797.87 71.13 777.95 70.93 M 284.58 77.56 C 276.41 82.57 270.27 90.21 265.15 98.18 C 257.39 110.39 251.56 123.67 244.37 136.20 C 255.04 132.76 264.87 126.64 272.14 118.04 C 284.86 103.56 293.28 85.98 305.00 70.75 C 297.87 71.79 290.75 73.73 284.58 77.56 M 872.53 95.42 C 883.66 112.61 890.61 132.33 903.41 148.47 C 909.54 156.37 918.03 162.09 927.10 166.12 C 923.78 158.92 920.79 151.59 917.77 144.27 C 912.56 131.88 907.25 119.08 897.94 109.12 C 891.27 101.87 882.00 97.64 872.53 95.42 M 195.24 152.14 C 186.04 155.06 176.90 159.06 169.77 165.73 C 164.31 170.76 160.44 177.23 157.48 183.97 C 176.44 175.93 197.21 172.51 215.37 162.53 C 224.21 157.78 231.26 150.33 236.75 142.04 C 222.99 145.69 208.85 147.88 195.24 152.14 M 934.31 172.68 C 937.74 178.70 941.73 184.49 946.84 189.22 C 953.39 195.32 961.30 199.71 969.35 203.54 C 982.59 209.78 996.53 214.49 1009.56 221.23 C 1007.39 214.70 1004.45 208.31 999.97 203.03 C 994.20 196.17 986.35 191.45 978.25 187.83 C 964.05 181.55 948.86 178.01 934.31 172.68 M 134.78 203.83 C 129.20 210.80 126.08 219.37 123.99 227.96 C 120.47 242.72 119.59 257.94 116.90 272.86 C 124.71 266.54 131.53 258.75 135.41 249.39 C 143.42 230.61 145.04 209.94 151.36 190.63 C 145.13 194.02 139.21 198.23 134.78 203.83 M 1014.98 228.27 C 1019.55 248.30 1019.37 269.30 1026.09 288.86 C 1029.23 298.33 1035.31 306.51 1042.49 313.33 C 1041.68 303.56 1041.50 293.76 1040.95 283.99 C 1040.16 271.39 1038.87 258.36 1033.00 246.97 C 1029.02 239.09 1022.33 232.97 1014.98 228.27 M 76.43 304.49 C 68.87 310.21 61.65 316.81 57.13 325.27 C 53.52 331.96 52.05 339.58 51.56 347.11 C 66.39 333.34 84.32 323.14 97.96 308.06 C 104.93 300.52 109.25 290.95 111.70 281.06 C 100.15 289.18 87.75 296.04 76.43 304.49 M 1046.91 321.83 C 1048.37 331.65 1051.68 341.32 1057.68 349.33 C 1069.87 365.96 1087.08 377.85 1100.85 393.02 C 1101.02 385.94 1100.45 378.72 1097.86 372.07 C 1094.31 362.82 1087.62 355.20 1080.41 348.59 C 1069.82 338.96 1057.89 330.98 1046.91 321.83 M 34.57 387.99 C 34.29 407.14 40.66 425.48 43.86 444.17 C 50.39 434.85 53.44 423.31 53.47 411.98 C 53.62 392.98 48.82 374.38 48.14 355.42 C 39.95 364.24 34.52 375.81 34.57 387.99 M 1103.48 401.49 C 1101.02 420.50 1094.56 438.82 1093.28 457.99 C 1092.47 469.08 1094.58 480.57 1100.17 490.24 C 1105.25 471.27 1113.66 452.87 1114.36 432.98 C 1114.91 421.53 1110.44 410.43 1103.48 401.49 M 9.18 502.34 C 4.40 513.09 4.36 525.48 8.07 536.56 C 17.31 518.35 30.88 502.53 38.45 483.44 C 42.22 474.18 42.84 463.99 41.85 454.13 C 30.83 470.09 16.91 484.32 9.18 502.34 M 1101.32 500.15 C 1099.28 510.26 1099.09 520.89 1102.26 530.80 C 1108.20 550.26 1120.15 567.09 1127.74 585.86 C 1132.18 575.20 1133.47 563.07 1129.90 551.97 C 1124.03 532.89 1111.12 517.24 1101.32 500.15 M 7.64 545.68 C 3.27 556.30 1.92 568.35 5.46 579.42 C 11.30 598.51 24.17 614.19 34.03 631.24 C 36.39 620.66 36.16 609.45 32.65 599.15 C 26.51 580.35 15.09 563.92 7.64 545.68 M 1097.25 647.32 C 1093.27 656.78 1092.49 667.25 1093.57 677.38 C 1104.71 661.27 1118.81 646.90 1126.46 628.62 C 1131.09 617.97 1130.86 605.81 1127.38 594.87 C 1118.27 612.89 1104.92 628.55 1097.25 647.32 M 35.32 640.87 C 30.27 660.16 21.59 678.82 21.04 699.03 C 20.59 710.32 25.07 721.22 31.91 730.03 C 34.55 709.56 41.95 689.80 42.26 669.02 C 42.51 659.20 39.65 649.60 35.32 640.87 M 1082.14 714.92 C 1080.89 735.49 1086.56 755.64 1087.27 776.13 C 1092.04 770.67 1096.27 764.56 1098.52 757.61 C 1101.54 748.40 1101.21 738.50 1099.93 729.02 C 1097.93 714.82 1093.92 701.01 1091.47 686.90 C 1086.36 695.40 1082.64 704.92 1082.14 714.92 M 34.56 738.53 C 34.46 743.52 34.64 748.55 35.74 753.44 C 37.80 763.13 43.60 771.55 50.43 778.53 C 61.97 790.28 75.93 799.19 88.50 809.72 C 87.42 803.28 85.87 796.84 82.98 790.94 C 78.89 782.54 72.67 775.42 66.15 768.83 C 55.83 758.50 44.44 749.30 34.56 738.53 M 1036.98 824.01 C 1030.25 831.45 1026.10 840.82 1023.71 850.47 C 1039.76 839.00 1058.15 830.36 1071.65 815.65 C 1079.55 807.24 1083.36 795.80 1083.84 784.42 C 1068.86 798.38 1050.65 808.63 1036.98 824.01 M 92.91 818.23 C 94.16 832.61 93.82 847.11 95.72 861.44 C 97.01 870.85 99.39 880.39 104.67 888.43 C 108.65 894.56 114.35 899.33 120.43 903.28 C 115.83 883.24 116.04 862.22 109.31 842.66 C 106.16 833.21 100.10 825.02 92.91 818.23 M 1000.05 882.02 C 991.99 900.84 990.37 921.56 984.05 940.93 C 993.81 935.83 1002.35 927.93 1006.71 917.65 C 1014.81 899.05 1014.83 878.36 1018.49 858.68 C 1010.73 864.98 1003.93 872.72 1000.05 882.02 M 125.85 910.31 C 129.17 921.22 135.82 931.29 145.58 937.44 C 162.44 948.31 182.54 951.94 201.11 958.85 C 196.15 949.92 189.48 941.80 180.84 936.22 C 163.83 924.96 143.82 919.70 125.85 910.31 M 919.38 969.39 C 910.81 974.11 904.02 981.43 898.65 989.51 C 919.09 983.86 941.29 982.21 959.57 970.59 C 968.04 965.17 974.04 956.69 977.94 947.56 C 958.75 955.72 937.67 959.10 919.38 969.39 M 208.29 965.42 C 212.72 974.92 216.46 984.73 220.63 994.36 C 225.32 1004.99 230.55 1015.78 239.01 1023.97 C 245.51 1030.35 254.13 1034.04 262.88 1036.12 C 251.58 1018.72 244.63 998.67 231.48 982.45 C 225.42 974.82 217.11 969.36 208.29 965.42 M 873.86 1003.79 C 866.66 1008.95 860.91 1015.82 855.75 1022.96 C 846.89 1035.30 839.64 1048.73 830.39 1060.80 C 837.07 1059.78 843.76 1058.07 849.65 1054.67 C 857.34 1050.31 863.33 1043.54 868.28 1036.33 C 877.08 1023.36 883.25 1008.88 891.03 995.33 C 885.01 997.47 879.07 1000.04 873.86 1003.79 M 270.48 1040.96 C 274.98 1046.62 280.28 1051.81 286.74 1055.21 C 295.10 1059.68 304.67 1061.12 314.04 1061.56 C 328.53 1062.17 342.99 1060.55 357.48 1060.63 C 349.39 1053.51 339.71 1048.01 329.04 1045.98 C 309.77 1041.98 289.91 1043.68 270.48 1040.96 M 366.43 1064.32 C 380.61 1078.18 392.37 1094.91 409.39 1105.58 C 418.97 1111.73 430.73 1113.46 441.89 1111.97 C 425.60 1099.74 412.40 1083.70 395.01 1072.92 C 386.47 1067.50 376.43 1065.02 366.43 1064.32 M 760.07 1065.46 C 750.54 1066.99 741.76 1071.44 734.05 1077.13 C 748.42 1078.40 762.62 1081.26 777.05 1081.91 C 786.44 1082.29 796.12 1081.63 804.87 1077.93 C 811.70 1075.08 817.50 1070.26 822.52 1064.89 C 801.71 1065.96 780.76 1061.95 760.07 1065.46 M 691.85 1087.84 C 675.19 1097.13 661.38 1110.56 645.31 1120.72 C 651.81 1122.05 658.54 1122.77 665.14 1121.67 C 674.11 1120.24 682.29 1115.84 689.60 1110.61 C 702.28 1101.48 712.99 1090.00 724.93 1079.99 C 713.44 1079.55 701.82 1082.02 691.85 1087.84 M 510.18 1098.20 C 489.65 1100.53 470.75 1109.61 450.66 1113.89 C 460.23 1119.97 471.70 1123.50 483.08 1121.86 C 502.93 1119.24 520.58 1109.07 539.25 1102.51 C 530.03 1098.96 520.06 1096.97 510.18 1098.20 M 548.98 1102.95 C 567.13 1111.23 584.01 1123.01 603.81 1127.15 C 614.93 1129.62 626.56 1127.10 636.50 1121.84 C 617.08 1115.73 599.14 1105.25 579.05 1101.22 C 569.08 1099.11 558.71 1100.14 548.98 1102.95 Z" />
</g>
</svg>
