<?xml version="1.0" encoding="UTF-8" ?>
<!DOCTYPE svg PUBLIC "-//W3C//DTD SVG 1.1//EN" "http://www.w3.org/Graphics/SVG/1.1/DTD/svg11.dtd">
<svg width="771pt" height="1228pt" viewBox="0 0 771 1228" version="1.1" xmlns="http://www.w3.org/2000/svg">
<g id="#ab22baff">
<path fill="#ab22ba" opacity="1.00" d=" M 653.53 1.77 C 663.94 -0.68 675.34 -0.01 684.90 5.05 C 693.71 9.64 700.91 17.98 702.68 27.92 C 704.16 35.59 701.96 43.49 698.18 50.16 C 690.94 62.94 678.63 71.60 666.81 79.79 C 637.87 99.26 610.98 121.72 586.53 146.59 C 538.40 195.48 499.77 253.17 469.57 314.63 C 435.07 385.03 411.18 460.38 396.10 537.23 C 387.04 584.33 381.81 632.51 385.23 680.48 C 388.22 722.67 398.49 764.85 419.16 801.98 C 446.49 851.60 491.91 889.94 543.45 912.63 C 556.55 918.46 570.12 923.18 583.91 927.08 C 592.40 929.62 601.38 932.79 607.23 939.83 C 612.23 946.04 614.51 955.69 609.62 962.61 C 604.67 969.12 595.79 969.83 589.49 974.48 C 580.32 980.98 575.20 991.33 569.95 1000.93 C 555.13 1028.73 533.02 1052.29 507.30 1070.32 C 475.16 1092.93 437.64 1107.43 398.99 1114.06 C 353.46 1122.02 306.74 1120.06 261.20 1113.25 C 238.31 1109.76 215.54 1105.33 193.12 1099.53 C 163.81 1091.86 134.93 1081.22 109.35 1064.75 C 86.11 1049.87 66.29 1030.00 50.34 1007.55 C 29.81 978.62 15.38 945.47 7.55 910.89 C -9.94 834.13 3.93 750.64 45.86 683.94 C 90.19 612.98 162.58 560.79 243.08 538.76 C 260.61 533.93 278.68 530.23 295.00 521.94 C 309.95 514.47 322.57 502.87 332.40 489.44 C 344.12 473.44 352.23 455.08 358.19 436.25 C 363.32 419.70 366.81 402.72 371.04 385.94 C 383.18 335.77 396.09 285.31 418.52 238.59 C 435.76 202.13 459.31 169.03 485.35 138.37 C 522.89 94.44 566.63 56.10 613.44 22.35 C 625.70 13.64 638.72 5.26 653.53 1.77 M 294.10 608.13 C 278.38 614.72 263.77 623.83 250.54 634.55 C 206.75 669.80 177.56 723.61 174.75 780.03 C 172.79 821.78 184.41 862.94 201.09 900.85 C 212.49 926.49 225.63 952.18 246.01 971.92 C 261.18 986.66 280.99 996.91 302.12 999.25 C 312.74 1000.58 323.50 999.56 333.93 997.35 C 372.21 996.82 411.23 989.45 444.89 970.56 C 431.76 957.83 420.01 943.76 408.69 929.42 C 365.01 873.29 333.24 807.77 317.25 738.42 C 314.19 724.76 311.36 711.01 310.14 697.05 C 307.66 670.59 309.15 643.86 305.31 617.51 C 304.66 614.25 304.34 610.54 301.91 608.04 C 299.68 606.09 296.55 607.28 294.10 608.13 Z" />
</g>
</svg>
