<?xml version="1.0" encoding="UTF-8" ?>
<!DOCTYPE svg PUBLIC "-//W3C//DTD SVG 1.1//EN" "http://www.w3.org/Graphics/SVG/1.1/DTD/svg11.dtd">
<svg width="647pt" height="1318pt" viewBox="0 0 647 1318" version="1.1" xmlns="http://www.w3.org/2000/svg">
<g id="#ab22baff">
<path fill="#ab22ba" opacity="1.00" d=" M 465.25 4.35 C 507.37 2.06 550.21 18.06 580.08 47.94 C 606.11 73.07 622.47 107.88 625.41 143.93 C 628.89 182.11 617.31 221.43 593.49 251.50 C 573.86 276.73 546.07 295.47 515.34 304.26 C 492.05 310.92 467.18 311.99 443.41 307.32 C 415.85 302.01 389.91 288.78 369.30 269.74 C 347.90 250.10 332.26 224.23 324.96 196.11 C 316.62 164.27 318.77 129.75 331.28 99.29 C 341.82 73.44 359.58 50.58 382.08 34.05 C 406.05 16.19 435.40 5.77 465.25 4.35 Z" />
<path fill="#ab22ba" opacity="1.00" d=" M 325.49 348.84 C 347.22 346.07 369.33 348.65 390.54 353.69 C 428.10 362.74 463.09 383.34 487.95 413.08 C 510.37 439.53 524.30 472.72 528.95 507.00 C 532.32 531.25 531.07 555.88 528.50 580.14 C 523.40 625.52 510.23 669.67 492.77 711.75 C 464.27 780.32 425.09 843.65 387.11 907.22 C 358.49 955.17 330.03 1003.43 307.48 1054.60 C 301.77 1067.74 296.26 1081.46 296.07 1096.00 C 296.21 1105.19 298.10 1114.76 303.67 1122.30 C 308.44 1128.95 316.20 1132.97 324.15 1134.40 C 336.04 1136.51 348.25 1134.20 359.60 1130.52 C 377.59 1124.76 393.32 1113.68 407.43 1101.38 C 434.66 1077.32 454.83 1046.71 474.55 1016.51 C 486.68 998.09 498.27 979.23 512.10 962.00 C 520.83 951.35 531.12 941.60 543.63 935.56 C 557.47 928.86 573.59 927.30 588.54 930.65 C 606.96 934.72 623.69 946.06 634.18 961.75 C 642.08 973.26 646.23 987.14 646.67 1001.05 C 647.15 1018.77 642.19 1036.16 635.27 1052.32 C 625.77 1074.39 612.63 1094.61 599.67 1114.76 C 578.29 1148.49 553.30 1179.92 525.51 1208.59 C 498.86 1235.68 469.50 1260.38 436.76 1279.82 C 404.60 1298.94 368.67 1312.97 331.10 1315.76 C 303.01 1317.78 274.48 1315.82 247.19 1308.67 C 217.48 1300.92 188.67 1286.08 168.75 1262.23 C 156.38 1247.62 147.91 1229.90 143.80 1211.23 C 137.97 1185.30 139.09 1158.36 142.51 1132.17 C 149.03 1081.88 165.50 1033.37 186.75 987.49 C 226.46 901.59 281.57 824.00 323.20 739.10 C 340.86 703.39 359.35 667.83 371.60 629.79 C 378.73 607.85 383.65 585.11 385.20 562.06 C 385.94 549.63 384.95 536.44 378.66 525.41 C 373.96 517.19 365.37 511.58 356.06 510.13 C 336.56 506.80 317.51 515.49 297.99 514.01 C 280.34 512.98 263.20 505.69 249.96 494.01 C 238.32 483.38 229.55 469.58 224.68 454.60 C 219.37 438.27 221.26 419.84 229.87 404.99 C 240.87 385.62 259.61 371.93 279.40 362.50 C 293.96 355.67 309.55 351.03 325.49 348.84 Z" />
</g>
</svg>
