<?xml version="1.0" encoding="UTF-8" ?>
<!DOCTYPE svg PUBLIC "-//W3C//DTD SVG 1.1//EN" "http://www.w3.org/Graphics/SVG/1.1/DTD/svg11.dtd">
<svg width="865pt" height="781pt" viewBox="0 0 865 781" version="1.1" xmlns="http://www.w3.org/2000/svg">
<g id="#000000ff">
<path fill="#000000" opacity="1.00" d=" M 418.34 1.51 C 431.00 -1.34 444.71 0.48 456.05 6.86 C 468.22 13.57 477.53 25.25 481.31 38.63 C 485.46 52.87 483.30 68.83 475.39 81.41 C 467.52 94.18 454.01 103.34 439.18 105.75 C 426.83 107.89 413.75 105.50 402.99 99.04 C 391.48 92.22 382.72 80.89 379.09 68.00 C 375.05 53.95 377.07 38.24 384.74 25.77 C 392.06 13.59 404.47 4.61 418.34 1.51 Z" />
<path fill="#000000" opacity="1.00" d=" M 128.38 595.60 C 131.64 594.37 135.64 595.30 137.78 598.11 C 154.34 618.75 172.94 637.69 192.52 655.46 C 220.43 680.61 250.89 703.06 283.82 721.22 C 314.23 737.96 346.86 750.96 380.90 758.08 C 421.67 766.68 464.44 766.31 504.86 755.97 C 539.98 747.11 573.07 731.20 603.12 711.13 C 648.89 680.59 687.97 641.04 722.41 598.37 C 725.17 594.50 731.30 593.95 734.71 597.26 C 738.12 600.21 738.23 605.84 735.18 609.10 C 697.63 655.68 654.51 698.55 603.72 730.62 C 571.21 751.10 535.45 766.81 497.77 774.72 C 453.37 784.13 406.87 782.35 363.01 771.00 C 300.62 754.88 244.04 721.11 195.07 679.83 C 169.77 658.32 145.99 634.87 125.15 608.99 C 121.28 604.90 123.01 597.39 128.38 595.60 Z" />
</g>
<g id="#4b0082ff">
<path fill="#4b0082" opacity="1.00" d=" M 68.56 285.90 C 90.69 283.90 113.29 283.73 135.01 288.98 C 154.75 293.54 173.70 303.40 186.94 318.98 C 200.56 334.81 207.74 355.37 209.42 376.01 C 211.33 399.72 209.24 424.65 197.92 445.99 C 188.89 463.52 173.65 477.59 155.71 485.69 C 139.24 493.19 121.07 496.35 103.06 496.82 C 85.11 497.20 67.08 495.61 49.57 491.59 C 41.21 489.30 32.24 486.33 26.72 479.21 C 22.90 474.39 21.74 468.07 21.98 462.05 C 22.03 411.03 21.97 360.00 22.01 308.97 C 22.02 305.25 22.99 301.36 25.61 298.60 C 28.70 295.41 32.81 293.40 36.99 292.01 C 47.22 288.72 57.86 286.80 68.56 285.90 M 79.88 332.87 C 79.88 371.35 79.87 409.82 79.88 448.30 C 89.83 449.83 100.06 450.66 110.05 449.02 C 122.34 447.19 134.19 440.59 140.83 429.87 C 150.34 414.81 151.15 396.10 149.46 378.85 C 147.93 363.49 141.08 347.78 127.62 339.32 C 113.61 329.93 95.86 330.79 79.88 332.87 Z" />
<path fill="#4b0082" opacity="1.00" d=" M 366.35 314.31 C 389.02 293.38 420.57 284.32 450.96 284.61 C 468.85 284.85 487.67 287.10 503.06 296.94 C 511.34 302.06 518.03 310.90 517.78 320.99 C 518.26 331.33 511.81 340.76 503.39 346.20 C 493.84 340.68 483.63 336.00 472.87 333.42 C 456.42 330.10 438.50 330.72 423.26 338.29 C 408.62 345.47 398.21 359.96 395.40 375.95 C 392.40 393.09 393.55 411.95 403.03 427.00 C 410.19 438.65 422.69 446.42 436.02 448.94 C 447.57 451.14 460.05 450.97 470.89 446.00 C 470.85 435.63 470.89 425.25 470.87 414.88 C 459.00 414.87 447.12 414.88 435.24 414.87 C 430.17 404.57 427.69 392.30 431.40 381.16 C 433.85 373.92 441.64 369.77 449.01 369.91 C 466.69 369.82 484.37 369.91 502.05 369.86 C 507.70 369.77 513.76 370.08 518.56 373.42 C 523.97 377.01 526.42 383.71 526.38 390.00 C 526.39 413.01 526.36 436.01 526.39 459.02 C 526.37 464.78 525.60 471.11 521.51 475.52 C 514.24 483.44 503.91 487.53 493.84 490.59 C 474.03 496.32 453.10 498.04 432.58 496.12 C 412.60 494.12 392.55 488.54 375.80 477.17 C 362.45 468.28 351.67 455.74 344.58 441.39 C 334.46 421.33 332.53 398.07 335.03 376.01 C 337.62 352.56 349.05 330.30 366.35 314.31 Z" />
<path fill="#4b0082" opacity="1.00" d=" M 243.02 290.22 C 256.19 287.99 269.73 285.89 283.03 288.33 C 288.29 289.29 293.66 291.67 296.80 296.19 C 300.45 301.34 301.13 307.87 301.25 314.00 C 301.26 372.76 301.25 431.52 301.25 490.28 C 289.34 492.78 277.03 493.99 264.89 492.70 C 258.69 492.06 252.08 490.10 248.03 485.06 C 243.80 479.71 243.08 472.59 243.00 466.01 C 243.01 407.41 242.97 348.81 243.02 290.22 Z" />
<path fill="#4b0082" opacity="1.00" d=" M 563.51 290.22 C 576.54 288.02 589.91 285.93 603.07 288.24 C 608.61 289.17 614.26 291.64 617.48 296.44 C 620.98 301.56 621.64 307.96 621.75 314.00 C 621.76 348.34 621.74 382.68 621.76 417.03 C 621.84 424.60 623.66 432.45 628.40 438.52 C 640.24 454.11 667.49 453.88 678.75 437.74 C 683.44 431.19 684.78 422.92 684.74 415.03 C 684.76 373.42 684.72 331.82 684.76 290.21 C 697.71 288.02 711.00 285.95 724.10 288.22 C 729.44 289.08 734.86 291.37 738.20 295.81 C 741.88 300.70 742.78 307.04 742.87 313.00 C 742.88 341.68 742.87 370.37 742.88 399.05 C 742.64 411.37 743.77 423.86 741.06 435.99 C 737.84 451.77 729.50 466.64 716.98 476.90 C 702.22 489.18 683.07 495.09 664.13 496.47 C 643.62 497.94 622.27 495.67 603.74 486.25 C 589.57 479.18 577.69 467.44 571.04 453.02 C 565.73 441.82 563.50 429.36 563.50 417.01 C 563.51 374.75 563.48 332.49 563.51 290.22 Z" />
<path fill="#4b0082" opacity="1.00" d=" M 784.50 290.24 C 797.54 288.00 810.93 285.94 824.10 288.25 C 829.62 289.18 835.26 291.65 838.47 296.44 C 841.96 301.56 842.64 307.94 842.74 313.98 C 842.76 372.74 842.74 431.50 842.75 490.27 C 831.00 492.77 818.86 493.94 806.87 492.76 C 800.60 492.15 793.89 490.29 789.70 485.27 C 785.31 479.90 784.58 472.66 784.50 465.98 C 784.50 407.40 784.49 348.82 784.50 290.24 Z" />
</g>
<g id="#d291bcff">
<path fill="#d291bc" opacity="1.00" d=" M 238.62 667.10 C 239.23 659.65 245.47 653.20 252.85 652.21 C 261.30 650.75 270.51 656.51 272.39 664.96 L 271.77 665.71 C 271.46 665.69 270.83 665.65 270.51 665.62 C 268.53 660.52 264.58 655.89 259.00 654.77 C 250.56 652.37 241.13 659.17 240.90 667.97 C 240.23 677.25 249.23 685.15 258.34 683.93 C 259.20 687.30 255.07 686.28 253.09 686.01 C 244.41 684.56 237.58 675.92 238.62 667.10 Z" />
<path fill="#d291bc" opacity="1.00" d=" M 609.94 665.08 C 611.52 660.47 616.66 657.67 621.40 658.27 C 621.61 658.72 622.03 659.61 622.23 660.06 C 618.91 660.61 614.94 660.76 612.98 663.97 C 611.18 665.91 611.80 670.20 615.03 669.88 C 620.03 669.38 625.39 663.59 630.12 668.01 C 634.45 673.12 628.71 680.40 623.03 681.14 C 621.51 681.47 616.36 682.42 618.31 679.52 C 621.70 679.07 625.55 678.71 627.84 675.81 C 629.64 673.82 630.34 669.58 626.99 668.80 C 622.04 667.97 618.13 673.25 613.12 671.90 C 610.28 671.13 608.97 667.72 609.94 665.08 Z" />
<path fill="#d291bc" opacity="1.00" d=" M 594.22 674.11 C 600.79 672.19 607.98 677.29 608.85 683.96 C 610.07 690.01 605.33 696.59 599.04 696.76 C 592.84 697.27 587.01 692.13 586.49 685.98 C 585.79 680.85 589.13 675.42 594.22 674.11 M 594.29 676.45 C 589.76 677.90 587.60 683.44 589.21 687.77 C 590.64 692.50 596.10 695.70 600.90 694.11 C 604.97 692.85 607.40 688.27 606.55 684.16 C 605.76 678.67 599.64 674.52 594.29 676.45 Z" />
<path fill="#d291bc" opacity="1.00" d=" M 276.42 675.24 C 276.87 675.15 277.77 674.98 278.22 674.90 C 278.21 677.24 276.63 679.08 275.50 681.00 C 279.27 679.14 284.16 678.27 287.71 681.08 C 287.47 681.48 286.97 682.28 286.72 682.68 C 283.39 681.23 279.53 681.26 276.43 683.28 C 271.34 685.54 270.10 691.44 266.93 695.52 C 266.49 695.36 265.59 695.05 265.15 694.89 C 268.36 688.08 272.52 681.68 276.42 675.24 Z" />
<path fill="#d291bc" opacity="1.00" d=" M 564.25 680.32 C 564.63 680.33 565.40 680.36 565.79 680.37 C 567.54 682.89 568.83 685.69 570.38 688.34 C 571.75 687.90 573.34 685.94 574.72 687.25 C 575.06 689.17 572.66 689.46 571.56 690.46 C 574.40 695.33 576.99 700.34 579.89 705.18 C 580.68 706.57 582.74 706.02 584.06 705.96 C 584.41 709.32 579.35 709.28 578.13 706.83 C 575.05 701.86 572.39 696.64 569.47 691.57 C 568.28 692.20 567.09 692.83 565.92 693.48 C 565.68 692.97 565.21 691.96 564.97 691.46 C 566.08 690.81 567.20 690.17 568.32 689.53 C 567.13 686.46 563.82 683.70 564.25 680.32 Z" />
<path fill="#d291bc" opacity="1.00" d=" M 284.54 699.94 C 283.46 692.03 291.87 684.69 299.55 687.34 C 306.41 689.24 309.23 697.76 306.12 703.87 C 299.64 701.37 293.81 697.48 287.42 694.79 C 285.79 699.28 287.33 704.98 291.90 707.03 C 294.86 708.64 298.21 707.62 301.09 706.42 C 303.29 706.96 301.44 709.04 300.16 709.24 C 293.49 712.47 284.97 707.28 284.54 699.94 M 288.71 692.71 C 294.09 695.47 299.41 698.37 304.92 700.89 C 305.74 696.66 304.10 691.78 299.96 689.96 C 296.08 687.98 291.49 689.66 288.71 692.71 Z" />
<path fill="#d291bc" opacity="1.00" d=" M 544.55 704.61 C 546.24 699.57 552.18 696.41 557.22 698.52 C 562.57 700.37 563.60 706.50 566.03 710.90 C 566.74 712.91 569.06 715.31 567.00 717.28 C 563.11 713.02 562.41 706.76 558.78 702.32 C 555.51 698.95 549.25 700.09 547.40 704.39 C 545.08 709.24 549.22 713.76 550.85 718.13 C 551.45 720.15 554.32 723.04 551.24 724.27 C 547.56 717.28 544.39 710.03 541.16 702.83 C 542.96 701.39 544.04 703.03 544.55 704.61 Z" />
<path fill="#d291bc" opacity="1.00" d=" M 312.63 706.49 C 315.50 699.17 325.95 697.28 331.58 702.54 C 333.03 704.02 335.89 706.32 333.06 707.99 C 331.35 705.76 329.53 703.32 326.71 702.48 C 322.16 700.74 316.52 703.16 314.76 707.73 C 312.86 712.15 315.09 717.63 319.39 719.69 C 322.07 721.34 325.28 720.40 328.22 720.81 C 327.97 723.85 324.18 723.27 322.02 723.10 C 314.52 722.23 309.23 713.43 312.63 706.49 Z" />
<path fill="#d291bc" opacity="1.00" d=" M 346.30 700.15 C 348.83 698.47 349.17 703.03 346.98 703.40 C 345.07 703.55 345.60 701.13 346.30 700.15 Z" />
<path fill="#d291bc" opacity="1.00" d=" M 502.52 706.50 C 502.86 706.11 503.55 705.33 503.89 704.95 C 506.22 708.87 506.31 713.64 507.63 717.95 C 508.73 723.79 512.02 730.54 508.00 735.99 C 503.59 742.93 492.06 742.24 488.44 734.87 C 488.81 734.41 489.54 733.50 489.90 733.04 C 491.89 735.65 494.45 738.37 498.00 738.39 C 503.45 738.92 508.54 733.51 507.43 728.10 C 505.97 720.86 503.95 713.74 502.52 706.50 Z" />
<path fill="#d291bc" opacity="1.00" d=" M 343.96 706.89 C 345.39 707.00 346.55 707.94 345.65 709.40 C 343.31 715.92 341.24 722.55 338.70 728.99 L 337.97 729.63 L 336.84 729.24 L 336.52 728.26 C 338.83 721.08 341.38 713.97 343.96 706.89 Z" />
<path fill="#d291bc" opacity="1.00" d=" M 529.79 706.72 C 530.34 706.65 531.45 706.51 532.00 706.44 C 533.87 710.87 535.38 715.47 536.86 720.05 C 538.53 725.34 534.47 731.34 529.03 732.02 C 524.23 732.88 519.39 729.50 518.19 724.85 C 517.00 720.69 514.76 716.71 514.24 712.43 C 514.68 712.29 515.56 712.02 516.00 711.88 C 518.68 716.86 519.16 722.91 522.49 727.53 C 526.73 732.31 535.34 728.36 534.76 722.08 C 533.57 716.82 531.08 711.95 529.79 706.72 Z" />
<path fill="#d291bc" opacity="1.00" d=" M 352.19 729.73 C 348.78 722.40 354.82 712.88 362.97 713.14 C 370.34 712.89 375.97 720.90 373.79 727.82 L 373.03 728.15 C 366.55 726.70 360.22 724.64 353.79 723.01 C 353.02 727.58 355.51 732.67 360.18 733.93 C 363.41 735.08 366.64 733.49 369.25 731.67 C 371.20 731.13 370.92 733.94 369.54 734.34 C 364.02 738.97 354.69 736.46 352.19 729.73 M 354.60 720.67 C 360.35 722.32 366.11 723.92 371.91 725.42 C 371.87 721.19 369.37 716.78 365.01 715.83 C 360.83 714.69 356.74 717.18 354.60 720.67 Z" />
<path fill="#d291bc" opacity="1.00" d=" M 431.89 713.80 C 432.38 713.95 433.35 714.27 433.84 714.42 C 433.51 725.31 432.71 736.21 431.98 747.08 C 431.43 747.16 430.32 747.31 429.77 747.39 C 429.83 745.91 429.90 744.44 429.99 742.98 C 425.96 747.48 418.44 748.27 413.96 744.02 C 408.01 739.06 409.08 728.49 415.93 724.85 C 420.91 721.77 427.64 723.74 430.85 728.45 C 431.16 723.56 431.20 718.65 431.89 713.80 M 417.54 726.66 C 411.11 729.61 410.65 739.72 416.81 743.23 C 422.23 746.85 430.15 742.40 430.35 736.02 C 431.41 729.33 423.65 723.22 417.54 726.66 Z" />
<path fill="#d291bc" opacity="1.00" d=" M 384.30 719.28 C 384.77 719.11 385.71 718.78 386.18 718.62 C 386.16 719.52 386.11 721.32 386.09 722.22 C 390.38 718.67 397.47 719.77 400.25 724.67 C 402.88 728.71 400.94 733.51 400.40 737.86 C 399.70 740.33 400.29 743.57 397.95 745.28 C 396.37 742.78 397.98 739.85 398.18 737.19 C 398.71 733.07 400.80 728.05 397.34 724.64 C 394.10 720.94 387.46 722.07 385.54 726.57 C 383.97 731.39 383.91 736.58 382.60 741.47 C 382.16 741.67 381.29 742.05 380.85 742.24 C 380.42 739.13 381.47 736.09 381.87 733.04 C 382.71 728.46 383.28 723.82 384.30 719.28 Z" />
<path fill="#d291bc" opacity="1.00" d=" M 450.36 724.40 C 456.33 721.92 463.48 726.07 464.92 732.23 C 466.87 738.50 462.64 746.07 455.99 747.02 C 449.53 748.22 443.37 742.48 443.16 736.13 C 442.77 731.21 445.75 726.22 450.36 724.40 M 451.32 726.45 C 447.25 727.94 444.87 732.59 445.53 736.80 C 446.08 741.32 450.32 745.28 454.99 744.85 C 460.50 744.44 464.28 738.28 462.78 733.10 C 461.76 728.16 456.18 724.54 451.32 726.45 Z" />
</g>
</svg>
