<?xml version="1.0" encoding="UTF-8" ?>
<!DOCTYPE svg PUBLIC "-//W3C//DTD SVG 1.1//EN" "http://www.w3.org/Graphics/SVG/1.1/DTD/svg11.dtd">
<svg width="200pt" height="200pt" viewBox="0 0 200 200" version="1.1" xmlns="http://www.w3.org/2000/svg">
<g id="#8fda1fff">
<path fill="#8fda1f" opacity="1.00" d=" M 92.09 9.72 C 95.12 9.42 97.99 8.34 100.93 7.62 C 103.22 8.73 105.36 10.11 107.64 11.24 C 108.05 13.01 109.19 14.31 110.73 15.22 C 111.31 14.16 111.88 13.10 112.44 12.04 C 115.58 12.61 117.80 15.90 121.16 15.31 C 123.12 14.94 125.04 13.97 127.09 14.44 C 129.21 15.69 131.31 17.00 133.64 17.86 C 133.11 19.28 132.59 20.70 132.06 22.12 C 134.32 22.40 136.59 22.54 138.84 22.87 C 138.50 23.27 137.82 24.07 137.48 24.47 C 137.79 25.16 138.11 25.84 138.42 26.53 C 137.46 27.65 136.54 28.81 135.69 30.02 C 136.74 31.84 136.66 33.97 136.73 36.00 C 139.00 34.86 141.23 33.65 143.51 32.54 C 145.57 32.12 147.65 32.78 149.70 33.02 C 149.70 33.70 149.69 35.07 149.69 35.75 C 152.18 34.87 154.92 34.63 157.24 33.31 C 159.15 31.52 161.05 29.08 163.96 29.25 C 166.57 29.53 169.18 29.94 171.82 29.76 C 172.61 30.96 174.66 32.00 173.51 33.62 C 172.63 34.84 171.35 35.67 170.13 36.51 C 172.64 36.29 175.16 36.38 177.67 36.44 C 177.50 37.80 177.30 39.16 177.11 40.52 C 178.46 40.78 179.81 41.04 181.15 41.31 C 179.84 43.13 178.28 44.77 176.16 45.61 C 179.27 45.42 181.97 47.58 182.55 50.61 C 183.64 51.21 184.73 51.81 185.83 52.41 C 185.00 53.02 184.16 53.64 183.32 54.25 C 183.38 54.92 183.44 55.60 183.50 56.28 C 181.65 56.56 179.78 56.87 178.23 58.02 C 181.95 58.85 185.45 60.23 188.11 63.06 C 187.47 63.66 186.84 64.25 186.20 64.84 C 187.33 66.33 188.75 67.47 190.71 67.51 C 190.31 70.06 190.94 72.50 193.03 74.13 C 192.39 74.10 191.10 74.05 190.46 74.02 C 191.55 75.90 191.58 78.07 191.72 80.18 C 191.05 80.06 190.39 79.95 189.73 79.84 C 188.66 81.13 187.55 82.38 186.42 83.61 C 187.11 84.56 187.79 85.53 188.45 86.51 C 187.41 86.19 186.38 85.86 185.36 85.51 C 184.40 87.61 183.37 89.68 182.44 91.80 C 180.73 92.16 180.31 90.09 179.37 89.11 C 179.99 91.66 180.55 94.23 180.57 96.86 C 180.04 98.62 179.10 100.23 178.37 101.91 C 177.37 101.21 176.38 100.50 175.39 99.79 C 175.52 100.53 175.80 102.00 175.94 102.73 C 174.71 101.95 173.50 101.13 172.31 100.30 C 170.41 102.40 168.64 104.59 167.02 106.90 C 164.05 108.20 160.75 107.14 157.64 107.78 C 157.42 109.63 157.11 111.47 156.90 113.33 C 153.87 113.56 151.44 115.53 148.71 116.62 C 146.79 117.22 145.04 116.12 143.32 115.46 C 141.33 114.56 138.98 114.67 137.25 113.18 C 141.22 111.11 145.72 111.48 149.87 112.77 C 151.73 111.04 153.60 109.33 155.48 107.62 C 152.65 105.14 149.79 102.70 147.19 99.98 C 147.90 99.18 148.61 98.38 149.32 97.59 C 150.22 99.08 151.02 100.66 152.13 102.03 C 155.66 103.06 159.37 103.33 162.93 104.31 C 165.49 101.31 168.52 98.80 171.61 96.38 C 173.15 95.41 173.26 93.53 173.63 91.93 C 172.04 92.15 170.46 92.55 168.85 92.41 C 167.54 91.74 166.57 90.58 165.49 89.61 C 169.70 87.75 174.89 87.22 178.19 83.81 C 180.52 81.62 178.13 79.00 177.01 76.89 C 178.52 76.12 180.02 75.36 181.54 74.60 C 180.11 71.54 178.64 68.19 175.55 66.47 C 172.25 64.54 168.38 62.92 164.50 63.63 C 161.28 64.31 158.49 66.17 155.54 67.54 C 155.64 67.13 155.83 66.32 155.93 65.91 C 157.79 62.54 161.21 60.43 163.76 57.62 C 168.51 57.35 173.24 55.77 176.51 52.16 C 174.18 51.58 171.85 51.05 169.51 50.55 C 169.87 48.61 170.23 46.67 170.59 44.73 C 168.96 44.92 167.34 45.11 165.72 45.30 C 165.04 43.17 164.59 40.68 162.58 39.36 C 159.59 37.04 155.59 37.33 152.03 37.08 C 151.91 38.49 151.79 39.89 151.67 41.30 C 155.28 43.50 157.39 47.18 158.62 51.12 C 156.28 52.63 152.83 53.66 152.45 56.87 C 151.61 60.95 148.84 64.24 147.71 68.21 C 149.87 68.68 152.03 69.13 154.21 69.55 C 155.86 71.69 157.04 74.26 155.74 76.90 C 155.98 77.10 156.45 77.51 156.69 77.71 C 157.83 78.67 158.96 79.63 160.08 80.61 C 158.79 80.89 157.50 81.17 156.22 81.46 C 155.25 83.04 154.27 84.60 153.13 86.07 C 152.25 86.90 151.38 87.74 150.51 88.58 C 149.60 89.47 148.68 90.35 147.75 91.22 C 146.65 92.24 145.53 93.24 144.41 94.24 C 142.83 94.23 141.18 94.15 139.72 94.84 C 138.81 95.80 137.98 96.82 137.21 97.89 C 135.27 97.02 133.32 96.19 131.33 95.47 C 130.84 94.19 130.31 92.94 129.79 91.69 C 132.13 92.63 134.58 93.26 137.08 93.58 C 137.56 92.54 137.97 91.46 138.61 90.49 C 141.38 89.27 144.43 88.84 147.27 87.76 C 148.75 85.19 149.43 82.27 149.99 79.38 C 150.78 79.24 151.56 79.11 152.35 78.97 C 151.52 77.58 150.69 76.20 149.84 74.82 C 146.22 72.90 143.08 70.24 139.99 67.58 C 137.44 70.52 134.81 73.40 132.14 76.24 C 132.98 78.75 133.33 81.38 133.24 84.03 C 125.91 85.89 118.65 88.07 111.20 89.41 C 109.83 88.28 108.82 86.80 107.74 85.42 C 109.81 85.68 111.90 86.37 114.01 86.13 C 115.41 84.99 116.44 83.47 117.56 82.07 C 118.43 82.93 119.29 83.79 120.15 84.65 C 123.40 82.54 127.25 82.25 131.01 82.73 C 130.79 82.20 130.35 81.15 130.13 80.63 C 128.82 77.94 126.94 75.61 125.10 73.28 C 126.65 71.98 128.20 70.67 129.76 69.37 C 125.61 64.18 118.29 62.72 112.09 64.49 C 113.66 66.04 115.57 67.37 116.61 69.36 C 116.68 71.55 115.22 73.44 114.38 75.38 C 113.50 75.23 112.62 75.11 111.74 75.02 C 112.39 73.28 113.04 71.54 113.70 69.81 C 111.49 69.70 109.28 69.59 107.07 69.48 C 107.57 67.89 108.08 66.30 108.59 64.71 C 104.54 62.94 99.92 62.29 96.55 59.19 C 93.89 60.82 91.28 62.55 88.74 64.36 C 88.33 65.99 87.91 67.62 87.48 69.25 C 86.32 66.98 85.16 64.71 84.05 62.42 C 87.94 60.24 91.32 57.20 95.42 55.41 C 98.46 54.03 100.32 57.54 102.31 59.21 C 103.46 58.97 104.61 58.72 105.77 58.47 C 107.34 60.08 108.89 61.70 110.44 63.33 C 112.45 62.06 115.69 61.21 115.68 58.30 C 115.77 53.16 112.80 47.80 107.77 46.08 C 106.57 47.22 105.46 48.50 104.04 49.36 C 100.53 48.75 97.07 47.81 93.48 47.90 C 90.44 48.07 88.18 45.77 85.87 44.16 C 84.64 46.45 83.43 48.74 82.13 50.99 C 78.87 48.38 75.16 46.37 71.09 45.34 C 67.87 47.67 64.26 49.99 63.05 54.03 C 66.39 54.95 69.79 55.58 73.21 56.09 C 71.37 58.10 69.50 60.08 67.60 62.03 C 68.86 63.15 70.28 64.16 71.25 65.57 C 71.40 68.84 71.39 72.20 72.91 75.21 C 74.56 75.57 76.21 75.94 77.86 76.32 C 77.34 77.00 76.82 77.66 76.29 78.32 C 75.51 78.97 74.72 79.60 73.93 80.23 C 72.84 79.74 71.75 79.23 70.66 78.73 C 67.80 77.89 66.12 75.46 65.25 72.74 C 64.24 72.29 63.23 71.84 62.22 71.39 C 63.76 69.71 65.30 68.04 66.85 66.38 C 65.02 66.27 63.18 66.15 61.35 66.03 C 61.77 64.26 62.18 62.49 62.57 60.71 C 63.87 59.90 65.11 58.99 66.35 58.09 C 63.83 57.90 61.20 58.29 58.76 57.48 C 56.79 55.73 55.77 53.20 54.43 50.98 C 55.36 48.62 56.21 46.23 56.95 43.81 C 60.86 43.02 64.69 41.91 68.49 40.71 C 70.09 40.25 71.71 39.81 73.32 39.37 C 69.63 32.97 61.85 31.19 55.56 28.39 C 52.75 26.79 50.44 29.60 48.23 30.96 C 49.05 32.35 49.86 33.74 50.67 35.14 C 48.44 34.20 46.22 33.23 44.01 32.24 C 39.06 35.47 35.00 39.80 30.23 43.24 C 30.80 44.76 31.38 46.27 31.98 47.77 C 29.25 47.14 30.47 50.96 32.56 50.04 C 32.80 49.99 33.27 49.90 33.51 49.86 C 35.25 47.19 36.21 43.83 38.84 41.86 C 43.10 40.37 48.50 41.29 51.14 45.26 C 51.28 45.63 51.55 46.37 51.69 46.74 C 51.17 46.79 50.11 46.90 49.58 46.96 C 47.12 45.52 44.60 44.19 42.02 42.97 C 40.76 45.88 39.99 49.31 37.43 51.39 C 34.55 52.82 31.23 52.83 28.11 53.32 C 28.15 53.89 28.24 55.03 28.29 55.60 C 30.85 56.32 33.69 56.58 35.92 58.15 C 37.03 60.12 37.49 62.36 38.13 64.50 C 40.18 63.65 42.11 62.55 43.82 61.12 C 44.75 60.52 45.60 59.46 46.84 59.65 C 51.08 60.01 55.19 61.29 59.43 61.74 C 58.17 62.68 56.98 63.71 55.78 64.72 C 53.05 64.38 49.95 62.82 47.35 64.33 C 45.74 66.32 45.74 69.10 45.15 71.51 C 42.54 71.08 39.93 70.64 37.34 70.13 C 38.49 72.39 39.16 74.87 38.92 77.42 C 36.53 77.21 34.01 77.29 31.78 76.30 C 30.50 75.14 29.57 73.65 28.54 72.27 C 25.87 74.34 22.98 76.13 19.90 77.52 C 20.49 79.19 20.12 82.01 22.51 82.13 C 26.87 83.00 30.52 85.59 34.16 87.99 C 31.86 88.74 29.59 89.54 27.33 90.40 C 25.01 87.55 21.98 84.96 18.03 85.91 C 17.74 89.50 17.86 93.22 19.44 96.52 C 20.76 101.46 26.83 100.82 30.44 103.16 C 34.74 101.47 39.34 102.39 43.81 102.31 C 43.82 101.41 43.82 99.61 43.83 98.71 C 46.33 97.74 48.88 96.90 51.45 96.14 C 51.52 97.76 51.58 99.37 51.66 100.99 C 49.50 101.18 47.32 101.64 45.65 103.13 C 43.54 105.01 41.54 107.02 39.55 109.03 C 42.17 110.45 45.14 110.76 48.07 110.92 C 51.30 111.06 53.72 113.56 56.72 114.45 C 59.00 114.63 61.17 113.68 63.31 113.05 C 66.79 114.72 70.46 115.93 73.91 117.67 C 72.29 117.95 70.67 118.30 69.06 118.66 C 67.30 117.49 65.50 116.38 63.73 115.23 C 60.60 117.19 57.34 119.13 53.73 120.03 C 52.90 118.15 51.95 116.32 50.95 114.54 C 48.70 115.71 46.49 116.97 44.10 117.83 C 43.17 117.29 42.42 116.51 41.63 115.81 C 39.64 115.81 37.66 115.31 36.16 113.93 C 33.69 112.10 33.30 108.90 32.13 106.26 C 31.39 106.74 30.64 107.19 29.87 107.63 C 28.27 106.00 26.50 104.32 24.10 104.06 C 21.20 104.29 18.61 105.77 16.04 107.02 C 16.23 105.32 16.42 103.61 16.57 101.90 C 15.13 102.38 13.71 102.90 12.29 103.44 C 11.80 100.43 9.75 98.07 7.11 96.68 C 9.17 93.38 7.81 89.15 10.01 85.91 C 10.73 83.36 13.54 82.69 15.75 82.00 C 13.77 80.49 14.28 77.91 14.09 75.74 C 16.41 75.03 18.46 73.69 19.92 71.76 C 18.22 70.48 16.54 69.10 15.43 67.25 C 17.20 66.30 19.34 65.82 20.62 64.15 C 19.12 64.39 17.65 64.72 16.17 65.04 C 16.19 64.67 16.22 63.93 16.24 63.56 C 15.43 63.08 14.62 62.59 13.82 62.09 C 15.24 60.84 15.84 59.21 15.64 57.33 C 18.13 57.48 20.62 57.64 23.11 57.60 C 21.64 57.38 20.17 57.17 18.69 56.97 C 19.28 54.01 21.41 51.79 23.21 49.49 C 25.57 49.61 27.88 49.20 29.95 47.99 C 28.82 46.28 27.65 44.60 26.27 43.08 C 26.85 42.00 27.41 40.91 27.97 39.82 C 26.54 39.45 25.11 39.08 23.69 38.70 C 24.66 37.67 25.67 36.69 26.69 35.73 C 26.52 34.89 26.35 34.06 26.18 33.23 C 30.53 34.56 34.96 31.68 37.21 28.03 C 40.22 28.90 43.23 29.79 46.10 31.08 C 45.15 29.97 44.01 29.01 43.25 27.76 C 43.26 25.61 43.77 23.51 44.06 21.39 C 46.37 22.75 49.06 22.97 51.34 21.39 C 53.97 19.33 58.22 18.99 60.10 22.18 C 64.11 19.75 69.06 19.50 73.15 21.88 C 73.25 19.79 73.19 17.70 73.18 15.61 C 74.08 16.57 74.95 17.57 75.79 18.59 C 76.50 16.88 77.28 15.20 78.12 13.55 C 79.32 15.17 80.32 16.92 81.37 18.64 C 82.70 17.48 84.01 16.30 85.28 15.09 C 85.97 15.44 86.65 15.79 87.33 16.13 C 87.69 13.21 89.97 11.45 92.09 9.72 M 112.61 19.73 C 109.92 22.28 106.24 23.05 102.80 24.05 C 106.02 25.65 109.36 26.97 112.70 28.31 C 112.59 29.78 112.49 31.25 112.40 32.72 C 111.74 33.37 111.08 34.03 110.42 34.68 C 111.18 35.17 111.95 35.66 112.71 36.15 C 111.73 37.18 110.75 38.20 109.78 39.24 C 111.06 39.87 112.34 40.49 113.63 41.11 C 115.52 38.76 118.08 37.17 120.79 35.94 C 122.68 32.24 127.02 31.35 129.96 28.75 C 127.51 27.72 125.30 26.23 123.53 24.24 C 122.39 24.28 121.25 24.34 120.12 24.40 C 120.26 23.37 120.40 22.33 120.54 21.29 C 117.90 20.75 115.26 20.20 112.61 19.73 M 79.87 22.89 C 75.75 24.37 71.32 23.43 67.09 23.07 C 69.27 25.41 71.26 27.92 72.97 30.62 C 72.33 31.21 71.69 31.80 71.07 32.42 C 73.55 33.53 76.05 34.81 77.63 37.11 C 76.89 38.24 76.18 39.37 75.47 40.51 C 78.51 40.63 81.55 40.56 84.59 40.32 L 84.59 41.22 C 86.00 40.35 87.38 39.44 88.84 38.66 C 89.96 40.15 91.05 41.68 92.08 43.24 C 92.78 43.64 93.49 44.04 94.20 44.44 C 94.29 44.77 94.48 45.44 94.58 45.77 C 95.65 45.00 96.68 44.15 97.86 43.54 C 101.03 43.36 104.36 46.11 107.21 43.58 C 106.58 43.21 105.33 42.48 104.70 42.11 C 104.34 38.91 104.26 35.68 104.38 32.47 C 102.47 30.51 100.44 28.68 98.27 27.02 C 95.59 29.27 92.20 30.08 88.83 29.11 C 88.46 27.39 88.07 25.67 87.66 23.96 C 88.10 22.93 88.53 21.91 88.96 20.88 C 85.82 20.94 82.80 21.81 79.87 22.89 M 126.16 43.56 C 123.53 42.22 120.20 41.59 117.92 43.97 C 116.11 47.12 119.03 49.95 119.68 52.90 C 119.12 54.44 118.18 55.80 117.32 57.18 C 117.69 57.09 118.42 56.91 118.79 56.82 C 118.78 58.21 118.78 59.60 118.80 60.98 C 122.77 59.72 126.95 59.43 131.09 59.64 C 131.50 61.92 133.61 63.38 135.13 64.95 C 136.17 65.93 137.86 67.45 139.26 66.15 C 141.98 63.87 140.30 60.20 140.38 57.23 C 141.50 55.11 144.01 54.14 145.86 52.71 C 143.89 51.56 141.61 50.71 140.12 48.90 C 140.36 47.93 140.62 46.97 140.89 46.01 C 142.84 47.23 144.84 48.38 146.94 49.32 C 146.14 48.09 145.61 46.54 144.29 45.76 C 140.83 43.78 137.05 41.73 132.92 42.43 C 132.75 40.65 132.69 38.86 132.55 37.07 C 130.57 39.37 128.44 41.55 126.16 43.56 M 25.21 63.14 C 25.21 64.98 25.21 66.82 25.22 68.66 C 26.42 68.65 27.61 68.64 28.81 68.63 C 29.61 69.45 30.41 70.27 31.22 71.09 C 32.57 68.99 33.84 66.84 35.13 64.70 C 35.14 64.13 35.17 63.00 35.19 62.43 C 31.90 63.07 28.56 63.35 25.21 63.14 Z" />
<path fill="#8fda1f" opacity="1.00" d=" M 79.77 109.43 C 83.41 105.64 86.09 101.05 87.91 96.13 L 88.52 96.40 C 89.53 98.01 90.44 99.67 91.36 101.33 C 90.64 101.96 89.92 102.60 89.21 103.24 C 89.51 104.33 89.81 105.41 90.13 106.49 C 89.14 107.03 88.14 107.57 87.17 108.15 C 85.61 109.05 84.09 110.03 82.60 111.05 C 81.65 110.52 80.70 109.99 79.77 109.43 Z" />
<path fill="#8fda1f" opacity="1.00" d=" M 125.70 100.01 C 127.40 100.00 129.09 99.99 130.79 99.98 C 129.89 102.45 128.98 104.92 127.90 107.31 C 127.60 107.66 127.01 108.36 126.71 108.70 C 125.76 107.51 124.33 106.51 123.94 104.97 C 123.93 103.17 125.01 101.61 125.70 100.01 Z" />
</g>
<g id="#6ec21aff">
<path fill="#6ec21a" opacity="1.00" d=" M 112.61 19.73 C 115.26 20.20 117.90 20.75 120.54 21.29 C 120.40 22.33 120.26 23.37 120.12 24.40 C 121.25 24.34 122.39 24.28 123.53 24.24 C 125.30 26.23 127.51 27.72 129.96 28.75 C 127.02 31.35 122.68 32.24 120.79 35.94 C 120.52 31.53 116.25 29.72 112.70 28.31 C 109.36 26.97 106.02 25.65 102.80 24.05 C 106.24 23.05 109.92 22.28 112.61 19.73 Z" />
<path fill="#6ec21a" opacity="1.00" d=" M 79.87 22.89 C 82.80 21.81 85.82 20.94 88.96 20.88 C 88.53 21.91 88.10 22.93 87.66 23.96 C 88.07 25.67 88.46 27.39 88.83 29.11 C 92.20 30.08 95.59 29.27 98.27 27.02 C 100.44 28.68 102.47 30.51 104.38 32.47 C 104.26 35.68 104.34 38.91 104.70 42.11 C 102.72 40.58 101.09 38.67 99.41 36.84 C 98.51 37.63 97.62 38.42 96.73 39.22 C 94.26 38.02 91.33 36.72 88.84 38.66 C 87.38 39.44 86.00 40.35 84.59 41.22 L 84.59 40.32 C 85.36 35.25 81.64 30.93 77.38 28.78 C 75.69 27.69 74.29 29.81 72.97 30.62 C 71.26 27.92 69.27 25.41 67.09 23.07 C 71.32 23.43 75.75 24.37 79.87 22.89 Z" />
<path fill="#6ec21a" opacity="1.00" d=" M 48.23 30.96 C 50.44 29.60 52.75 26.79 55.56 28.39 C 61.85 31.19 69.63 32.97 73.32 39.37 C 71.71 39.81 70.09 40.25 68.49 40.71 C 65.39 39.05 62.14 36.73 58.45 37.09 C 54.61 38.06 52.42 41.80 51.14 45.26 C 48.50 41.29 43.10 40.37 38.84 41.86 C 36.21 43.83 35.25 47.19 33.51 49.86 C 33.27 49.90 32.80 49.99 32.56 50.04 C 32.42 49.47 32.13 48.34 31.98 47.77 C 31.38 46.27 30.80 44.76 30.23 43.24 C 35.00 39.80 39.06 35.47 44.01 32.24 C 46.22 33.23 48.44 34.20 50.67 35.14 C 49.86 33.74 49.05 32.35 48.23 30.96 Z" />
<path fill="#6ec21a" opacity="1.00" d=" M 126.16 43.56 C 128.44 41.55 130.57 39.37 132.55 37.07 C 132.69 38.86 132.75 40.65 132.92 42.43 C 137.05 41.73 140.83 43.78 144.29 45.76 C 145.61 46.54 146.14 48.09 146.94 49.32 C 144.84 48.38 142.84 47.23 140.89 46.01 C 140.62 46.97 140.36 47.93 140.12 48.90 C 141.61 50.71 143.89 51.56 145.86 52.71 C 144.01 54.14 141.50 55.11 140.38 57.23 C 140.30 60.20 141.98 63.87 139.26 66.15 C 137.86 67.45 136.17 65.93 135.13 64.95 C 133.61 63.38 131.50 61.92 131.09 59.64 C 131.03 59.14 130.91 58.15 130.85 57.65 C 132.72 57.71 134.58 57.78 136.45 57.87 C 137.37 55.78 137.99 53.59 138.33 51.33 C 137.66 51.22 136.34 50.99 135.67 50.88 C 135.56 52.05 135.45 53.22 135.34 54.39 C 129.99 56.37 124.25 55.55 118.79 56.82 C 118.42 56.91 117.69 57.09 117.32 57.18 C 118.18 55.80 119.12 54.44 119.68 52.90 C 119.03 49.95 116.11 47.12 117.92 43.97 C 120.20 41.59 123.53 42.22 126.16 43.56 Z" />
<path fill="#6ec21a" opacity="1.00" d=" M 152.03 37.08 C 155.59 37.33 159.59 37.04 162.58 39.36 C 164.59 40.68 165.04 43.17 165.72 45.30 C 167.34 45.11 168.96 44.92 170.59 44.73 C 170.23 46.67 169.87 48.61 169.51 50.55 C 171.85 51.05 174.18 51.58 176.51 52.16 C 173.24 55.77 168.51 57.35 163.76 57.62 C 161.53 56.11 158.93 56.42 156.50 57.15 C 158.73 55.83 161.49 54.89 162.92 52.62 C 163.85 49.47 160.29 47.74 158.50 45.78 C 158.53 47.56 158.57 49.34 158.62 51.12 C 157.39 47.18 155.28 43.50 151.67 41.30 C 151.79 39.89 151.91 38.49 152.03 37.08 Z" />
<path fill="#6ec21a" opacity="1.00" d=" M 42.02 42.97 C 44.60 44.19 47.12 45.52 49.58 46.96 C 50.11 46.90 51.17 46.79 51.69 46.74 C 52.04 47.66 52.39 48.58 52.75 49.50 C 51.14 49.57 49.53 49.65 47.92 49.73 C 47.64 50.66 47.37 51.59 47.08 52.53 C 45.52 53.31 43.85 53.98 42.57 55.20 C 42.22 57.25 43.25 59.20 43.82 61.12 C 42.11 62.55 40.18 63.65 38.13 64.50 C 37.49 62.36 37.03 60.12 35.92 58.15 C 33.69 56.58 30.85 56.32 28.29 55.60 C 28.24 55.03 28.15 53.89 28.11 53.32 C 31.23 52.83 34.55 52.82 37.43 51.39 C 39.99 49.31 40.76 45.88 42.02 42.97 Z" />
<path fill="#6ec21a" opacity="1.00" d=" M 82.13 50.99 C 83.43 48.74 84.64 46.45 85.87 44.16 C 88.18 45.77 90.44 48.07 93.48 47.90 C 97.07 47.81 100.53 48.75 104.04 49.36 C 105.46 48.50 106.57 47.22 107.77 46.08 C 112.80 47.80 115.77 53.16 115.68 58.30 C 115.69 61.21 112.45 62.06 110.44 63.33 C 108.89 61.70 107.34 60.08 105.77 58.47 C 104.61 58.72 103.46 58.97 102.31 59.21 C 100.32 57.54 98.46 54.03 95.42 55.41 C 91.32 57.20 87.94 60.24 84.05 62.42 C 85.16 64.71 86.32 66.98 87.48 69.25 C 87.91 67.62 88.33 65.99 88.74 64.36 C 91.28 62.55 93.89 60.82 96.55 59.19 C 99.92 62.29 104.54 62.94 108.59 64.71 C 108.08 66.30 107.57 67.89 107.07 69.48 C 109.28 69.59 111.49 69.70 113.70 69.81 C 113.04 71.54 112.39 73.28 111.74 75.02 C 106.20 74.98 100.84 73.52 95.47 72.37 C 95.45 72.94 95.43 73.51 95.41 74.09 C 92.69 76.50 89.31 77.91 85.67 78.08 C 85.96 73.92 85.60 69.70 83.95 65.83 C 83.49 67.20 83.02 68.57 82.56 69.95 C 80.75 69.13 78.94 68.32 77.13 67.50 C 77.19 68.72 77.25 69.95 77.31 71.17 C 79.17 72.14 81.04 73.06 82.93 73.97 C 83.24 75.31 83.55 76.66 83.86 78.01 C 81.58 78.99 79.31 79.98 77.04 80.98 C 77.12 79.84 77.19 78.70 77.26 77.56 C 77.02 77.75 76.53 78.13 76.29 78.32 C 76.82 77.66 77.34 77.00 77.86 76.32 C 76.21 75.94 74.56 75.57 72.91 75.21 C 71.39 72.20 71.40 68.84 71.25 65.57 C 70.28 64.16 68.86 63.15 67.60 62.03 C 69.50 60.08 71.37 58.10 73.21 56.09 C 69.79 55.58 66.39 54.95 63.05 54.03 C 64.26 49.99 67.87 47.67 71.09 45.34 C 75.16 46.37 78.87 48.38 82.13 50.99 Z" />
<path fill="#6ec21a" opacity="1.00" d=" M 59.43 61.74 C 60.48 61.41 61.53 61.08 62.57 60.71 C 62.18 62.49 61.77 64.26 61.35 66.03 C 63.18 66.15 65.02 66.27 66.85 66.38 C 65.30 68.04 63.76 69.71 62.22 71.39 C 63.23 71.84 64.24 72.29 65.25 72.74 C 66.12 75.46 67.80 77.89 70.66 78.73 C 68.47 79.78 66.34 80.99 64.53 82.63 C 62.23 84.83 59.74 86.85 56.78 88.09 C 56.66 86.11 56.63 84.13 56.57 82.15 C 52.71 83.61 48.72 84.75 44.59 85.10 C 44.43 84.19 44.28 83.29 44.12 82.39 C 42.95 82.28 41.79 82.17 40.63 82.06 C 40.04 80.52 39.46 78.97 38.92 77.42 C 39.16 74.87 38.49 72.39 37.34 70.13 C 39.93 70.64 42.54 71.08 45.15 71.51 C 45.74 69.10 45.74 66.32 47.35 64.33 C 49.95 62.82 53.05 64.38 55.78 64.72 C 56.98 63.71 58.17 62.68 59.43 61.74 Z" />
<path fill="#6ec21a" opacity="1.00" d=" M 112.09 64.49 C 118.29 62.72 125.61 64.18 129.76 69.37 C 128.20 70.67 126.65 71.98 125.10 73.28 C 126.94 75.61 128.82 77.94 130.13 80.63 C 127.65 80.33 125.14 80.22 122.69 79.73 C 119.56 79.10 117.08 76.93 114.38 75.38 C 115.22 73.44 116.68 71.55 116.61 69.36 C 115.57 67.37 113.66 66.04 112.09 64.49 Z" />
<path fill="#6ec21a" opacity="1.00" d=" M 155.54 67.54 C 158.49 66.17 161.28 64.31 164.50 63.63 C 168.38 62.92 172.25 64.54 175.55 66.47 C 178.64 68.19 180.11 71.54 181.54 74.60 C 180.02 75.36 178.52 76.12 177.01 76.89 C 176.15 75.41 175.35 73.89 174.28 72.55 C 171.14 72.12 168.04 73.43 165.27 74.80 C 164.56 75.36 163.86 75.93 163.17 76.52 C 161.00 76.88 158.84 77.27 156.69 77.71 C 156.45 77.51 155.98 77.10 155.74 76.90 C 157.04 74.26 155.86 71.69 154.21 69.55 C 154.76 68.33 155.31 67.11 155.93 65.91 C 155.83 66.32 155.64 67.13 155.54 67.54 Z" />
<path fill="#6ec21a" opacity="1.00" d=" M 132.14 76.24 C 134.81 73.40 137.44 70.52 139.99 67.58 C 143.08 70.24 146.22 72.90 149.84 74.82 C 150.69 76.20 151.52 77.58 152.35 78.97 C 151.56 79.11 150.78 79.24 149.99 79.38 C 149.43 82.27 148.75 85.19 147.27 87.76 C 146.74 86.72 146.18 85.70 145.56 84.72 C 141.61 86.93 137.11 85.73 133.24 84.03 C 133.33 81.38 132.98 78.75 132.14 76.24 Z" />
<path fill="#6ec21a" opacity="1.00" d=" M 133.07 109.48 C 134.39 110.57 135.68 111.69 136.92 112.86 C 136.61 113.20 135.99 113.88 135.67 114.22 C 134.12 113.73 132.64 113.01 131.32 112.06 C 131.76 111.41 132.64 110.12 133.07 109.48 Z" />
</g>
<g id="#449f14ff">
<path fill="#449f14" opacity="1.00" d=" M 72.97 30.62 C 74.29 29.81 75.69 27.69 77.38 28.78 C 81.64 30.93 85.36 35.25 84.59 40.32 C 81.55 40.56 78.51 40.63 75.47 40.51 C 76.18 39.37 76.89 38.24 77.63 37.11 C 76.05 34.81 73.55 33.53 71.07 32.42 C 71.69 31.80 72.33 31.21 72.97 30.62 Z" />
<path fill="#449f14" opacity="1.00" d=" M 112.70 28.31 C 116.25 29.72 120.52 31.53 120.79 35.94 C 118.08 37.17 115.52 38.76 113.63 41.11 C 112.34 40.49 111.06 39.87 109.78 39.24 C 110.75 38.20 111.73 37.18 112.71 36.15 C 111.95 35.66 111.18 35.17 110.42 34.68 C 111.08 34.03 111.74 33.37 112.40 32.72 C 112.49 31.25 112.59 29.78 112.70 28.31 Z" />
<path fill="#449f14" opacity="1.00" d=" M 58.45 37.09 C 62.14 36.73 65.39 39.05 68.49 40.71 C 64.69 41.91 60.86 43.02 56.95 43.81 C 56.21 46.23 55.36 48.62 54.43 50.98 C 55.77 53.20 56.79 55.73 58.76 57.48 C 61.20 58.29 63.83 57.90 66.35 58.09 C 65.11 58.99 63.87 59.90 62.57 60.71 C 61.53 61.08 60.48 61.41 59.43 61.74 C 55.19 61.29 51.08 60.01 46.84 59.65 C 45.60 59.46 44.75 60.52 43.82 61.12 C 43.25 59.20 42.22 57.25 42.57 55.20 C 43.85 53.98 45.52 53.31 47.08 52.53 C 47.37 51.59 47.64 50.66 47.92 49.73 C 49.53 49.65 51.14 49.57 52.75 49.50 C 52.39 48.58 52.04 47.66 51.69 46.74 C 51.55 46.37 51.28 45.63 51.14 45.26 C 52.42 41.80 54.61 38.06 58.45 37.09 Z" />
<path fill="#449f14" opacity="1.00" d=" M 88.84 38.66 C 91.33 36.72 94.26 38.02 96.73 39.22 C 97.62 38.42 98.51 37.63 99.41 36.84 C 101.09 38.67 102.72 40.58 104.70 42.11 C 105.33 42.48 106.58 43.21 107.21 43.58 C 104.36 46.11 101.03 43.36 97.86 43.54 C 96.68 44.15 95.65 45.00 94.58 45.77 C 94.48 45.44 94.29 44.77 94.20 44.44 C 93.49 44.04 92.78 43.64 92.08 43.24 C 91.05 41.68 89.96 40.15 88.84 38.66 Z" />
<path fill="#449f14" opacity="1.00" d=" M 158.50 45.78 C 160.29 47.74 163.85 49.47 162.92 52.62 C 161.49 54.89 158.73 55.83 156.50 57.15 C 158.93 56.42 161.53 56.11 163.76 57.62 C 161.21 60.43 157.79 62.54 155.93 65.91 C 155.31 67.11 154.76 68.33 154.21 69.55 C 152.03 69.13 149.87 68.68 147.71 68.21 C 148.84 64.24 151.61 60.95 152.45 56.87 C 152.83 53.66 156.28 52.63 158.62 51.12 C 158.57 49.34 158.53 47.56 158.50 45.78 Z" />
<path fill="#449f14" opacity="1.00" d=" M 135.67 50.88 C 136.34 50.99 137.66 51.22 138.33 51.33 C 137.99 53.59 137.37 55.78 136.45 57.87 C 134.58 57.78 132.72 57.71 130.85 57.65 C 130.91 58.15 131.03 59.14 131.09 59.64 C 126.95 59.43 122.77 59.72 118.80 60.98 C 118.78 59.60 118.78 58.21 118.79 56.82 C 124.25 55.55 129.99 56.37 135.34 54.39 C 135.45 53.22 135.56 52.05 135.67 50.88 Z" />
<path fill="#449f14" opacity="1.00" d=" M 25.21 63.14 C 28.56 63.35 31.90 63.07 35.19 62.43 C 35.17 63.00 35.14 64.13 35.13 64.70 C 33.84 66.84 32.57 68.99 31.22 71.09 C 30.41 70.27 29.61 69.45 28.81 68.63 C 27.61 68.64 26.42 68.65 25.22 68.66 C 25.21 66.82 25.21 64.98 25.21 63.14 Z" />
<path fill="#449f14" opacity="1.00" d=" M 83.95 65.83 C 85.60 69.70 85.96 73.92 85.67 78.08 C 89.31 77.91 92.69 76.50 95.41 74.09 C 95.43 73.51 95.45 72.94 95.47 72.37 C 100.84 73.52 106.20 74.98 111.74 75.02 C 112.62 75.11 113.50 75.23 114.38 75.38 C 117.08 76.93 119.56 79.10 122.69 79.73 C 125.14 80.22 127.65 80.33 130.13 80.63 C 130.35 81.15 130.79 82.20 131.01 82.73 C 127.25 82.25 123.40 82.54 120.15 84.65 C 119.29 83.79 118.43 82.93 117.56 82.07 C 116.44 83.47 115.41 84.99 114.01 86.13 C 111.90 86.37 109.81 85.68 107.74 85.42 C 108.82 86.80 109.83 88.28 111.20 89.41 C 118.65 88.07 125.91 85.89 133.24 84.03 C 137.11 85.73 141.61 86.93 145.56 84.72 C 146.18 85.70 146.74 86.72 147.27 87.76 C 144.43 88.84 141.38 89.27 138.61 90.49 C 137.97 91.46 137.56 92.54 137.08 93.58 C 134.58 93.26 132.13 92.63 129.79 91.69 C 130.31 92.94 130.84 94.19 131.33 95.47 C 132.16 97.94 132.78 100.48 133.34 103.03 C 131.55 104.48 129.66 105.82 127.90 107.31 C 128.98 104.92 129.89 102.45 130.79 99.98 C 129.09 99.99 127.40 100.00 125.70 100.01 C 126.69 98.03 127.38 95.93 128.00 93.82 C 124.89 95.12 121.86 96.60 118.85 98.11 C 117.11 97.61 115.38 97.12 113.70 96.47 L 113.07 96.18 C 112.34 95.26 111.60 94.34 110.84 93.46 C 109.55 92.69 108.21 92.01 106.89 91.32 C 104.92 92.50 102.93 93.63 100.93 94.76 C 100.51 94.80 99.67 94.88 99.25 94.92 C 98.30 95.02 97.35 95.13 96.41 95.23 C 94.71 94.71 93.00 94.05 91.20 94.06 C 90.24 94.76 89.39 95.59 88.52 96.40 L 87.91 96.13 C 86.66 95.98 85.39 95.92 84.13 95.96 C 82.60 96.09 81.08 96.29 79.56 96.47 C 77.43 95.55 75.08 94.62 72.82 95.72 L 72.11 96.05 C 67.50 98.76 62.18 96.33 57.49 95.14 L 57.10 94.36 C 56.35 91.98 54.42 90.34 51.85 90.73 C 49.18 94.64 44.04 94.93 39.82 94.12 C 36.98 93.34 34.34 91.99 31.62 90.92 C 32.54 92.47 33.37 94.13 34.60 95.47 C 37.19 96.96 40.12 97.70 42.84 98.90 C 43.09 98.85 43.58 98.76 43.83 98.71 C 43.82 99.61 43.82 101.41 43.81 102.31 C 39.34 102.39 34.74 101.47 30.44 103.16 C 26.83 100.82 20.76 101.46 19.44 96.52 C 17.86 93.22 17.74 89.50 18.03 85.91 C 21.98 84.96 25.01 87.55 27.33 90.40 C 29.59 89.54 31.86 88.74 34.16 87.99 C 30.52 85.59 26.87 83.00 22.51 82.13 C 20.12 82.01 20.49 79.19 19.90 77.52 C 22.98 76.13 25.87 74.34 28.54 72.27 C 29.57 73.65 30.50 75.14 31.78 76.30 C 34.01 77.29 36.53 77.21 38.92 77.42 C 39.46 78.97 40.04 80.52 40.63 82.06 C 41.79 82.17 42.95 82.28 44.12 82.39 C 44.28 83.29 44.43 84.19 44.59 85.10 C 48.72 84.75 52.71 83.61 56.57 82.15 C 56.63 84.13 56.66 86.11 56.78 88.09 C 56.99 90.05 57.88 91.84 58.73 93.59 C 64.75 92.92 70.78 92.24 76.84 92.19 C 77.14 90.18 77.44 88.18 77.74 86.17 C 73.42 84.68 68.96 83.68 64.53 82.63 C 66.34 80.99 68.47 79.78 70.66 78.73 C 71.75 79.23 72.84 79.74 73.93 80.23 C 74.72 79.60 75.51 78.97 76.29 78.32 C 76.53 78.13 77.02 77.75 77.26 77.56 C 77.19 78.70 77.12 79.84 77.04 80.98 C 79.31 79.98 81.58 78.99 83.86 78.01 C 83.55 76.66 83.24 75.31 82.93 73.97 C 81.04 73.06 79.17 72.14 77.31 71.17 C 77.25 69.95 77.19 68.72 77.13 67.50 C 78.94 68.32 80.75 69.13 82.56 69.95 C 83.02 68.57 83.49 67.20 83.95 65.83 Z" />
<path fill="#449f14" opacity="1.00" d=" M 156.69 77.71 C 158.84 77.27 161.00 76.88 163.17 76.52 C 163.00 78.20 163.39 80.09 162.52 81.61 C 160.08 84.24 156.36 84.87 153.13 86.07 C 154.27 84.60 155.25 83.04 156.22 81.46 C 157.50 81.17 158.79 80.89 160.08 80.61 C 158.96 79.63 157.83 78.67 156.69 77.71 Z" />
<path fill="#449f14" opacity="1.00" d=" M 147.19 99.98 C 149.79 102.70 152.65 105.14 155.48 107.62 C 153.60 109.33 151.73 111.04 149.87 112.77 C 145.72 111.48 141.22 111.11 137.25 113.18 L 136.92 112.86 C 135.68 111.69 134.39 110.57 133.07 109.48 C 133.82 108.33 134.53 107.16 135.23 105.99 C 137.61 104.59 140.22 103.67 142.86 102.91 C 143.45 102.74 144.63 102.41 145.22 102.24 C 145.87 101.48 146.53 100.73 147.19 99.98 Z" />
<path fill="#449f14" opacity="1.00" d=" M 39.55 109.03 C 41.54 107.02 43.54 105.01 45.65 103.13 C 49.75 105.67 54.20 107.95 59.17 107.87 C 60.48 109.65 61.84 111.39 63.31 113.05 C 61.17 113.68 59.00 114.63 56.72 114.45 C 53.72 113.56 51.30 111.06 48.07 110.92 C 45.14 110.76 42.17 110.45 39.55 109.03 Z" />
<path fill="#449f14" opacity="1.00" d=" M 82.60 111.05 C 84.09 110.03 85.61 109.05 87.17 108.15 C 86.40 108.73 85.64 109.35 84.89 109.96 C 89.37 111.42 92.60 114.93 95.98 118.01 C 95.36 118.88 94.72 119.74 94.07 120.59 C 91.22 116.39 87.03 113.39 82.60 111.05 Z" />
<path fill="#449f14" opacity="1.00" d=" M 107.79 123.30 C 108.02 119.11 108.09 114.90 108.82 110.77 C 110.51 111.90 112.21 113.02 113.91 114.14 C 114.04 116.55 114.09 118.96 113.90 121.36 C 112.81 122.16 111.74 122.99 110.69 123.84 C 109.72 123.66 108.75 123.48 107.79 123.30 Z" />
<path fill="#449f14" opacity="1.00" d=" M 127.58 117.66 C 128.79 115.77 130.04 113.90 131.32 112.06 C 132.64 113.01 134.12 113.73 135.67 114.22 C 133.28 116.43 130.35 117.89 127.12 118.39 L 127.58 117.66 Z" />
</g>
<g id="#2b8f17ff">
<path fill="#2b8f17" opacity="1.00" d=" M 165.27 74.80 C 168.04 73.43 171.14 72.12 174.28 72.55 C 175.35 73.89 176.15 75.41 177.01 76.89 C 178.13 79.00 180.52 81.62 178.19 83.81 C 174.89 87.22 169.70 87.75 165.49 89.61 C 164.36 89.80 163.23 89.94 162.10 90.09 C 161.46 91.88 160.92 93.75 159.89 95.37 C 156.27 95.48 152.73 94.55 149.15 94.19 C 148.68 93.20 148.21 92.21 147.75 91.22 C 148.68 90.35 149.60 89.47 150.51 88.58 C 152.39 89.34 154.51 90.55 156.51 89.41 C 160.37 87.46 164.26 84.84 166.42 80.99 C 167.69 78.92 165.96 76.74 165.27 74.80 Z" />
<path fill="#2b8f17" opacity="1.00" d=" M 56.78 88.09 C 59.74 86.85 62.23 84.83 64.53 82.63 C 68.96 83.68 73.42 84.68 77.74 86.17 C 77.44 88.18 77.14 90.18 76.84 92.19 C 70.78 92.24 64.75 92.92 58.73 93.59 C 57.88 91.84 56.99 90.05 56.78 88.09 Z" />
<path fill="#2b8f17" opacity="1.00" d=" M 84.13 95.96 C 85.39 95.92 86.66 95.98 87.91 96.13 C 86.09 101.05 83.41 105.64 79.77 109.43 C 78.20 105.25 81.25 101.51 83.02 97.98 C 83.30 97.47 83.86 96.47 84.13 95.96 Z" />
</g>
<g id="#1a510eff">
<path fill="#1a510e" opacity="1.00" d=" M 163.17 76.52 C 163.86 75.93 164.56 75.36 165.27 74.80 C 165.96 76.74 167.69 78.92 166.42 80.99 C 164.26 84.84 160.37 87.46 156.51 89.41 C 154.51 90.55 152.39 89.34 150.51 88.58 C 151.38 87.74 152.25 86.90 153.13 86.07 C 156.36 84.87 160.08 84.24 162.52 81.61 C 163.39 80.09 163.00 78.20 163.17 76.52 Z" />
<path fill="#1a510e" opacity="1.00" d=" M 162.10 90.09 C 163.23 89.94 164.36 89.80 165.49 89.61 C 166.57 90.58 167.54 91.74 168.85 92.41 C 170.46 92.55 172.04 92.15 173.63 91.93 C 173.26 93.53 173.15 95.41 171.61 96.38 C 168.52 98.80 165.49 101.31 162.93 104.31 C 159.37 103.33 155.66 103.06 152.13 102.03 C 151.02 100.66 150.22 99.08 149.32 97.59 C 148.61 98.38 147.90 99.18 147.19 99.98 C 146.53 100.73 145.87 101.48 145.22 102.24 C 144.63 102.41 143.45 102.74 142.86 102.91 C 145.21 100.19 147.32 97.27 149.15 94.19 C 152.73 94.55 156.27 95.48 159.89 95.37 C 160.92 93.75 161.46 91.88 162.10 90.09 Z" />
<path fill="#1a510e" opacity="1.00" d=" M 31.62 90.92 C 34.34 91.99 36.98 93.34 39.82 94.12 C 44.04 94.93 49.18 94.64 51.85 90.73 C 52.57 95.45 53.87 100.17 56.63 104.14 C 57.27 105.18 57.98 106.19 58.69 107.20 L 59.17 107.87 C 54.20 107.95 49.75 105.67 45.65 103.13 C 47.32 101.64 49.50 101.18 51.66 100.99 C 51.58 99.37 51.52 97.76 51.45 96.14 C 48.88 96.90 46.33 97.74 43.83 98.71 C 43.58 98.76 43.09 98.85 42.84 98.90 C 40.12 97.70 37.19 96.96 34.60 95.47 C 33.37 94.13 32.54 92.47 31.62 90.92 Z" />
<path fill="#1a510e" opacity="1.00" d=" M 100.93 94.76 C 102.93 93.63 104.92 92.50 106.89 91.32 C 108.21 92.01 109.55 92.69 110.84 93.46 C 108.91 96.28 107.21 99.25 105.59 102.26 C 103.99 99.79 102.43 97.29 100.93 94.76 Z" />
<path fill="#1a510e" opacity="1.00" d=" M 88.52 96.40 C 89.39 95.59 90.24 94.76 91.20 94.06 C 93.00 94.05 94.71 94.71 96.41 95.23 C 98.63 102.60 99.45 110.88 95.98 118.01 C 92.60 114.93 89.37 111.42 84.89 109.96 C 85.64 109.35 86.40 108.73 87.17 108.15 C 88.14 107.57 89.14 107.03 90.13 106.49 C 89.81 105.41 89.51 104.33 89.21 103.24 C 89.92 102.60 90.64 101.96 91.36 101.33 C 90.44 99.67 89.53 98.01 88.52 96.40 Z" />
<path fill="#1a510e" opacity="1.00" d=" M 118.85 98.11 C 121.86 96.60 124.89 95.12 128.00 93.82 C 127.38 95.93 126.69 98.03 125.70 100.01 C 125.01 101.61 123.93 103.17 123.94 104.97 C 124.33 106.51 125.76 107.51 126.71 108.70 C 125.42 110.22 124.10 111.71 122.77 113.20 C 121.15 111.10 119.11 109.08 118.60 106.37 C 118.17 103.63 118.63 100.85 118.85 98.11 Z" />
<path fill="#1a510e" opacity="1.00" d=" M 57.49 95.14 C 62.18 96.33 67.50 98.76 72.11 96.05 C 72.46 100.37 72.91 104.68 72.96 109.01 C 70.03 108.19 66.86 107.57 64.53 105.46 C 61.26 102.75 59.25 98.93 57.49 95.14 Z" />
<path fill="#1a510e" opacity="1.00" d=" M 72.82 95.72 C 75.08 94.62 77.43 95.55 79.56 96.47 C 78.39 98.60 77.25 100.75 75.98 102.82 C 75.81 103.06 75.46 103.55 75.29 103.79 C 74.51 101.09 73.67 98.40 72.82 95.72 Z" />
<path fill="#1a510e" opacity="1.00" d=" M 108.82 110.77 C 109.91 105.82 111.34 100.94 113.07 96.18 L 113.70 96.47 C 113.41 102.36 113.31 108.27 113.91 114.14 C 112.21 113.02 110.51 111.90 108.82 110.77 Z" />
</g>
<g id="#512b06ff">
<path fill="#512b06" opacity="1.00" d=" M 51.85 90.73 C 54.42 90.34 56.35 91.98 57.10 94.36 C 56.29 97.55 56.01 100.88 56.63 104.14 C 53.87 100.17 52.57 95.45 51.85 90.73 Z" />
<path fill="#512b06" opacity="1.00" d=" M 139.72 94.84 C 141.18 94.15 142.83 94.23 144.41 94.24 C 144.98 94.26 146.12 94.32 146.69 94.34 C 144.87 97.82 141.43 99.77 137.93 101.19 C 138.47 99.06 139.03 96.93 139.72 94.84 Z" />
<path fill="#512b06" opacity="1.00" d=" M 96.41 95.23 C 97.35 95.13 98.30 95.02 99.25 94.92 C 100.67 97.55 102.15 100.42 101.53 103.52 C 100.26 111.48 98.57 119.41 96.25 127.15 C 95.53 124.96 94.87 122.75 94.07 120.59 C 94.72 119.74 95.36 118.88 95.98 118.01 C 99.45 110.88 98.63 102.60 96.41 95.23 Z" />
<path fill="#512b06" opacity="1.00" d=" M 131.33 95.47 C 133.32 96.19 135.27 97.02 137.21 97.89 C 135.98 99.65 134.80 101.45 133.34 103.03 C 132.78 100.48 132.16 97.94 131.33 95.47 Z" />
<path fill="#512b06" opacity="1.00" d=" M 79.56 96.47 C 81.08 96.29 82.60 96.09 84.13 95.96 C 83.86 96.47 83.30 97.47 83.02 97.98 C 80.61 99.49 78.19 101.02 75.98 102.82 C 77.25 100.75 78.39 98.60 79.56 96.47 Z" />
<path fill="#512b06" opacity="1.00" d=" M 58.69 107.20 C 65.48 109.19 72.18 111.53 78.72 114.24 C 78.26 114.67 77.35 115.54 76.89 115.97 C 80.39 117.64 84.20 119.22 86.63 122.41 C 88.80 125.14 89.43 128.71 89.75 132.10 C 90.31 138.74 90.28 145.41 90.15 152.07 C 89.45 151.09 88.76 150.12 88.07 149.15 C 87.26 155.96 87.29 163.01 84.58 169.44 C 81.88 176.05 80.25 184.23 73.33 187.81 C 74.27 188.09 75.20 188.39 76.14 188.70 C 72.79 188.35 69.41 188.45 66.06 188.73 C 66.78 187.48 67.48 186.22 68.22 184.99 C 70.44 182.59 73.74 181.28 75.45 178.39 C 77.26 175.15 78.46 171.60 80.43 168.44 C 82.15 165.44 84.57 162.59 84.72 158.98 C 85.06 154.29 84.82 149.58 85.34 144.91 C 85.78 139.35 86.92 133.51 84.86 128.14 C 82.94 123.24 78.39 120.05 73.91 117.67 C 70.46 115.93 66.79 114.72 63.31 113.05 C 61.84 111.39 60.48 109.65 59.17 107.87 L 58.69 107.20 Z" />
<path fill="#512b06" opacity="1.00" d=" M 86.47 180.05 C 88.66 177.33 90.01 174.10 91.01 170.78 C 90.81 174.88 91.27 179.40 88.86 182.98 C 86.75 186.04 84.15 188.76 82.44 192.08 L 82.22 192.47 C 81.11 192.50 79.99 192.55 78.88 192.61 C 80.67 190.95 82.29 189.13 83.93 187.33 C 81.86 187.44 79.78 187.57 77.70 187.69 C 78.64 185.50 79.73 183.38 80.74 181.22 C 81.54 181.62 82.35 182.02 83.15 182.43 C 84.19 179.17 85.37 175.95 86.71 172.80 C 86.63 175.21 86.52 177.63 86.47 180.05 Z" />
<path fill="#512b06" opacity="1.00" d=" M 94.61 190.17 C 94.15 186.63 94.55 183.05 95.92 179.75 C 97.31 183.42 98.73 187.07 100.22 190.70 C 98.36 190.44 96.48 190.29 94.61 190.17 Z" />
</g>
<g id="#8f4c08ff">
<path fill="#8f4c08" opacity="1.00" d=" M 144.41 94.24 C 145.53 93.24 146.65 92.24 147.75 91.22 C 148.21 92.21 148.68 93.20 149.15 94.19 C 147.32 97.27 145.21 100.19 142.86 102.91 C 140.22 103.67 137.61 104.59 135.23 105.99 C 131.76 108.43 128.20 110.95 125.52 114.28 C 123.93 117.40 123.13 120.86 122.35 124.25 L 122.25 124.67 L 121.93 124.98 C 118.87 127.06 118.30 130.75 117.89 134.15 C 116.57 137.62 111.71 137.75 109.64 140.51 C 108.08 145.91 108.79 151.69 108.06 157.24 C 107.66 154.66 106.98 152.08 105.20 150.09 C 104.84 153.08 104.65 156.10 104.51 159.12 C 103.94 154.38 103.53 149.59 102.13 145.00 C 99.50 150.97 101.99 157.33 102.15 163.49 C 102.44 169.03 101.57 175.25 105.65 179.71 C 105.73 178.80 105.88 176.96 105.96 176.04 C 107.25 177.90 108.56 179.75 109.93 181.56 C 108.93 177.69 107.87 173.84 106.97 169.95 C 109.81 175.61 112.01 181.75 116.53 186.37 C 116.95 184.89 117.38 183.42 117.82 181.95 C 121.66 185.93 127.01 187.56 131.94 189.72 C 127.33 189.89 122.84 191.52 118.22 191.19 C 115.37 188.62 113.42 185.21 110.62 182.57 C 112.02 186.23 113.86 189.70 115.52 193.24 C 111.88 192.18 108.07 192.56 104.39 192.06 C 103.00 191.61 101.62 191.12 100.22 190.70 C 98.73 187.07 97.31 183.42 95.92 179.75 C 94.55 183.05 94.15 186.63 94.61 190.17 C 93.93 190.84 93.25 191.50 92.55 192.15 C 89.27 192.84 85.80 191.82 82.44 192.08 C 84.15 188.76 86.75 186.04 88.86 182.98 C 91.27 179.40 90.81 174.88 91.01 170.78 C 90.01 174.10 88.66 177.33 86.47 180.05 C 86.52 177.63 86.63 175.21 86.71 172.80 C 85.37 175.95 84.19 179.17 83.15 182.43 C 82.35 182.02 81.54 181.62 80.74 181.22 C 79.73 183.38 78.64 185.50 77.70 187.69 C 79.78 187.57 81.86 187.44 83.93 187.33 C 82.29 189.13 80.67 190.95 78.88 192.61 C 77.45 193.44 75.73 193.53 74.16 193.95 C 75.82 192.56 77.50 191.20 79.12 189.77 C 78.38 189.50 76.88 188.96 76.14 188.70 C 75.20 188.39 74.27 188.09 73.33 187.81 C 80.25 184.23 81.88 176.05 84.58 169.44 C 87.29 163.01 87.26 155.96 88.07 149.15 C 88.76 150.12 89.45 151.09 90.15 152.07 C 90.28 145.41 90.31 138.74 89.75 132.10 C 89.43 128.71 88.80 125.14 86.63 122.41 C 84.20 119.22 80.39 117.64 76.89 115.97 C 77.35 115.54 78.26 114.67 78.72 114.24 C 72.18 111.53 65.48 109.19 58.69 107.20 C 57.98 106.19 57.27 105.18 56.63 104.14 C 56.01 100.88 56.29 97.55 57.10 94.36 L 57.49 95.14 C 59.25 98.93 61.26 102.75 64.53 105.46 C 66.86 107.57 70.03 108.19 72.96 109.01 C 72.91 104.68 72.46 100.37 72.11 96.05 L 72.82 95.72 C 73.67 98.40 74.51 101.09 75.29 103.79 C 75.46 103.55 75.81 103.06 75.98 102.82 C 78.19 101.02 80.61 99.49 83.02 97.98 C 81.25 101.51 78.20 105.25 79.77 109.43 C 80.70 109.99 81.65 110.52 82.60 111.05 C 87.03 113.39 91.22 116.39 94.07 120.59 C 94.87 122.75 95.53 124.96 96.25 127.15 C 98.57 119.41 100.26 111.48 101.53 103.52 C 102.15 100.42 100.67 97.55 99.25 94.92 C 99.67 94.88 100.51 94.80 100.93 94.76 C 102.43 97.29 103.99 99.79 105.59 102.26 C 107.21 99.25 108.91 96.28 110.84 93.46 C 111.60 94.34 112.34 95.26 113.07 96.18 C 111.34 100.94 109.91 105.82 108.82 110.77 C 108.09 114.90 108.02 119.11 107.79 123.30 C 107.63 125.61 107.35 127.92 107.20 130.24 C 110.60 128.36 112.98 125.12 113.90 121.36 C 114.09 118.96 114.04 116.55 113.91 114.14 C 113.31 108.27 113.41 102.36 113.70 96.47 C 115.38 97.12 117.11 97.61 118.85 98.11 C 118.63 100.85 118.17 103.63 118.60 106.37 C 119.11 109.08 121.15 111.10 122.77 113.20 C 124.10 111.71 125.42 110.22 126.71 108.70 C 127.01 108.36 127.60 107.66 127.90 107.31 C 129.66 105.82 131.55 104.48 133.34 103.03 C 134.80 101.45 135.98 99.65 137.21 97.89 C 137.98 96.82 138.81 95.80 139.72 94.84 C 139.03 96.93 138.47 99.06 137.93 101.19 C 141.43 99.77 144.87 97.82 146.69 94.34 C 146.12 94.32 144.98 94.26 144.41 94.24 M 102.56 127.61 C 103.77 123.33 104.36 118.88 104.03 114.44 C 101.17 118.12 100.84 123.36 102.56 127.61 M 117.30 118.29 C 116.54 123.22 114.90 127.88 112.73 132.35 C 114.62 131.10 116.70 129.90 117.88 127.88 C 119.95 124.78 119.31 120.87 119.15 117.37 C 118.69 117.60 117.76 118.06 117.30 118.29 M 98.23 149.45 C 97.01 155.74 96.48 162.88 99.87 168.62 C 100.53 162.26 101.29 155.34 98.23 149.45 M 100.91 178.41 C 100.46 182.38 100.55 186.93 104.03 189.59 C 104.15 185.66 103.99 181.30 100.91 178.41 Z" />
<path fill="#8f4c08" opacity="1.00" d=" M 60.11 187.76 C 62.79 186.76 65.28 185.11 68.22 184.99 C 67.48 186.22 66.78 187.48 66.06 188.73 C 64.07 188.45 62.10 188.07 60.11 187.76 Z" />
</g>
<g id="#a7630fff">
<path fill="#a7630f" opacity="1.00" d=" M 125.52 114.28 C 128.20 110.95 131.76 108.43 135.23 105.99 C 134.53 107.16 133.82 108.33 133.07 109.48 C 132.64 110.12 131.76 111.41 131.32 112.06 C 130.04 113.90 128.79 115.77 127.58 117.66 C 126.05 120.02 124.30 122.23 122.35 124.25 C 123.13 120.86 123.93 117.40 125.52 114.28 Z" />
<path fill="#a7630f" opacity="1.00" d=" M 102.56 127.61 C 100.84 123.36 101.17 118.12 104.03 114.44 C 104.36 118.88 103.77 123.33 102.56 127.61 Z" />
<path fill="#a7630f" opacity="1.00" d=" M 117.30 118.29 C 117.76 118.06 118.69 117.60 119.15 117.37 C 119.31 120.87 119.95 124.78 117.88 127.88 C 116.70 129.90 114.62 131.10 112.73 132.35 C 114.90 127.88 116.54 123.22 117.30 118.29 Z" />
<path fill="#a7630f" opacity="1.00" d=" M 117.89 134.15 C 118.30 130.75 118.87 127.06 121.93 124.98 C 121.04 128.21 119.91 131.44 117.89 134.15 Z" />
<path fill="#a7630f" opacity="1.00" d=" M 102.13 145.00 C 103.53 149.59 103.94 154.38 104.51 159.12 C 104.65 156.10 104.84 153.08 105.20 150.09 C 106.98 152.08 107.66 154.66 108.06 157.24 C 109.53 166.03 112.26 174.84 117.82 181.95 C 117.38 183.42 116.95 184.89 116.53 186.37 C 112.01 181.75 109.81 175.61 106.97 169.95 C 107.87 173.84 108.93 177.69 109.93 181.56 C 108.56 179.75 107.25 177.90 105.96 176.04 C 105.88 176.96 105.73 178.80 105.65 179.71 C 101.57 175.25 102.44 169.03 102.15 163.49 C 101.99 157.33 99.50 150.97 102.13 145.00 Z" />
<path fill="#a7630f" opacity="1.00" d=" M 98.23 149.45 C 101.29 155.34 100.53 162.26 99.87 168.62 C 96.48 162.88 97.01 155.74 98.23 149.45 Z" />
<path fill="#a7630f" opacity="1.00" d=" M 100.91 178.41 C 103.99 181.30 104.15 185.66 104.03 189.59 C 100.55 186.93 100.46 182.38 100.91 178.41 Z" />
<path fill="#a7630f" opacity="1.00" d=" M 110.62 182.57 C 113.42 185.21 115.37 188.62 118.22 191.19 C 122.84 191.52 127.33 189.89 131.94 189.72 C 132.41 189.96 133.37 190.45 133.85 190.69 C 129.46 191.44 124.98 191.76 120.68 192.98 C 119.01 193.55 117.24 193.34 115.52 193.24 C 113.86 189.70 112.02 186.23 110.62 182.57 Z" />
<path fill="#a7630f" opacity="1.00" d=" M 94.61 190.17 C 96.48 190.29 98.36 190.44 100.22 190.70 C 101.62 191.12 103.00 191.61 104.39 192.06 C 100.49 192.87 96.46 192.88 92.55 192.15 C 93.25 191.50 93.93 190.84 94.61 190.17 Z" />
</g>
</svg>
