<?xml version="1.0" encoding="UTF-8" ?>
<!DOCTYPE svg PUBLIC "-//W3C//DTD SVG 1.1//EN" "http://www.w3.org/Graphics/SVG/1.1/DTD/svg11.dtd">
<svg width="200pt" height="200pt" viewBox="0 0 200 200" version="1.1" xmlns="http://www.w3.org/2000/svg">
<g id="#262125ff">
<path fill="#262125" opacity="1.00" d=" M 123.38 29.92 C 123.53 27.21 122.15 22.62 125.84 21.84 C 134.29 21.81 142.75 21.61 151.20 21.77 C 153.93 22.60 152.44 26.02 152.63 28.07 C 152.86 31.25 151.38 35.20 147.56 34.94 C 147.81 41.28 147.65 47.62 147.47 53.96 C 156.56 60.03 166.05 65.53 174.53 72.46 C 178.97 75.52 183.31 80.29 182.72 86.09 C 182.87 89.87 179.89 93.00 176.56 94.30 C 173.12 95.35 169.48 94.58 166.10 93.69 C 166.53 104.78 166.06 115.88 166.18 126.98 C 173.92 126.66 178.91 135.38 178.62 142.35 C 183.38 144.12 186.59 148.99 186.67 154.02 C 186.88 157.26 186.16 161.23 182.94 162.78 C 154.29 163.57 125.65 164.20 96.96 163.65 C 101.62 166.68 102.44 174.30 97.46 177.39 C 85.73 179.02 73.85 178.20 62.07 177.54 C 57.66 177.20 53.08 177.65 48.81 176.32 C 45.68 172.77 47.26 167.25 49.69 163.72 C 41.20 162.79 32.56 163.55 24.02 162.82 C 20.99 162.31 17.01 164.10 14.95 161.02 C 11.03 154.61 14.21 144.92 21.40 142.32 C 21.08 135.25 26.15 126.78 33.89 126.82 C 33.79 115.77 33.57 104.71 33.89 93.67 C 29.55 94.89 24.21 95.84 20.51 92.58 C 15.07 88.37 16.97 79.69 21.69 75.66 C 31.15 67.17 42.27 60.81 52.81 53.77 C 66.53 45.86 79.33 36.28 93.85 29.85 C 102.23 26.66 110.35 31.49 117.42 35.50 C 120.88 37.45 124.06 40.03 127.78 41.41 C 127.72 38.99 127.73 36.56 127.77 34.14 C 125.65 33.71 123.28 32.42 123.38 29.92 M 125.36 24.56 C 125.48 26.71 125.50 28.87 125.75 31.01 C 127.01 32.59 129.19 32.35 130.99 32.30 C 137.25 31.99 143.49 32.94 149.74 32.70 C 150.76 29.97 150.36 26.98 150.30 24.13 C 141.99 24.41 133.65 23.89 125.36 24.56 M 72.31 44.26 C 56.90 54.19 40.62 62.86 26.17 74.23 C 21.83 77.13 18.24 82.47 19.79 87.86 C 21.70 92.50 27.63 93.46 31.96 92.06 C 33.49 91.94 34.49 92.99 35.70 93.68 L 35.51 93.93 L 36.37 95.83 C 36.69 110.22 36.61 124.62 36.88 139.01 C 37.44 144.67 36.98 150.80 40.17 155.80 C 42.41 159.98 47.46 161.39 51.88 161.53 C 54.35 160.60 56.91 160.08 59.54 160.72 C 59.90 152.49 67.74 145.22 76.10 146.48 C 83.62 147.01 88.84 154.27 89.68 161.32 C 95.36 161.07 101.07 160.41 106.74 161.26 C 106.82 159.39 107.05 157.53 107.25 155.68 C 107.63 157.53 108.13 159.36 108.56 161.20 C 118.90 161.14 129.23 161.54 139.56 161.56 L 139.57 161.77 C 139.98 161.84 140.80 162.00 141.21 162.08 L 141.07 162.87 C 144.11 162.92 147.28 163.48 150.19 162.33 C 150.65 162.03 151.57 161.43 152.03 161.13 C 158.27 160.11 161.86 153.99 162.42 148.13 C 163.57 137.35 163.10 126.49 163.43 115.67 L 164.64 115.80 C 164.49 108.87 165.25 101.95 164.91 95.03 L 163.80 94.75 L 164.46 93.35 C 164.67 93.10 165.08 92.59 165.29 92.34 C 165.96 92.27 167.32 92.15 167.99 92.08 C 172.31 93.40 178.17 92.55 180.15 87.97 C 181.71 83.08 178.76 78.04 174.98 75.07 C 156.59 60.83 135.99 49.89 116.42 37.44 C 110.16 34.08 103.47 29.55 96.00 31.50 C 87.43 34.39 80.16 39.93 72.31 44.26 M 129.64 34.19 C 129.62 37.15 129.69 40.10 129.76 43.06 C 135.03 46.35 140.05 50.09 145.65 52.82 C 145.91 46.78 145.19 40.75 145.52 34.71 C 140.22 34.62 134.93 33.29 129.64 34.19 M 24.34 141.99 C 23.81 145.02 26.96 146.92 26.82 149.86 C 23.32 150.58 22.95 146.28 21.13 144.34 C 18.66 146.57 16.32 149.45 16.23 152.94 C 15.95 155.91 16.18 159.49 19.03 161.20 C 26.33 161.55 33.62 160.50 40.93 160.90 C 38.53 157.84 36.40 154.47 35.46 150.65 C 33.88 143.53 34.59 136.18 33.88 128.99 C 28.11 129.99 24.31 136.40 24.34 141.99 M 166.01 129.06 C 165.59 136.03 165.99 143.08 164.73 149.99 C 163.84 154.05 161.63 157.64 159.07 160.85 C 166.39 160.44 173.70 161.67 181.00 161.15 C 184.36 159.38 183.96 155.14 183.66 151.94 C 183.41 148.77 180.90 146.45 178.85 144.27 C 177.13 146.26 176.67 150.61 173.18 149.85 C 173.20 146.94 176.09 144.94 175.68 141.94 C 175.66 136.39 171.87 129.79 166.01 129.06 M 67.44 151.31 C 64.12 153.85 62.55 157.89 61.76 161.87 C 62.72 163.27 64.52 164.82 63.72 166.72 C 61.46 167.82 60.92 164.58 59.30 163.70 C 53.24 160.05 47.30 170.46 50.97 175.02 C 63.57 176.04 76.34 175.81 89.02 175.74 C 91.86 175.50 94.88 175.69 97.49 174.38 C 98.01 171.68 98.44 168.05 95.46 166.61 C 91.37 164.24 87.21 167.61 84.05 170.00 C 83.28 168.00 85.64 166.77 85.95 164.95 C 88.05 158.68 84.03 151.59 77.98 149.41 C 74.44 148.92 70.28 148.72 67.44 151.31 Z" />
<path fill="#262125" opacity="1.00" d=" M 51.02 120.28 L 52.40 120.33 C 53.46 120.28 54.52 120.16 55.58 120.08 C 61.04 120.76 66.57 119.88 72.01 120.58 C 76.30 121.74 80.75 121.30 85.13 121.66 C 74.52 123.05 63.70 121.56 53.03 122.44 C 51.78 122.67 50.56 123.01 49.37 123.44 C 48.03 125.66 48.75 129.32 51.94 128.83 C 63.97 128.61 76.04 129.65 88.02 128.28 C 91.84 128.10 91.51 121.82 87.68 121.77 C 88.11 121.44 88.98 120.79 89.41 120.46 C 90.92 120.50 92.01 121.30 92.66 122.88 C 92.57 125.05 92.19 127.20 91.03 129.08 C 86.98 130.99 82.37 130.44 78.03 130.78 C 70.37 131.48 62.66 131.10 54.97 131.13 C 51.85 131.01 47.78 130.65 46.66 127.13 C 46.26 124.03 48.75 121.87 51.02 120.28 Z" />
</g>
<g id="#cc984fff">
<path fill="#cc984f" opacity="1.00" d=" M 125.36 24.56 C 133.65 23.89 141.99 24.41 150.30 24.13 C 150.36 26.98 150.76 29.97 149.74 32.70 C 143.49 32.94 137.25 31.99 130.99 32.30 C 129.19 32.35 127.01 32.59 125.75 31.01 C 125.50 28.87 125.48 26.71 125.36 24.56 Z" />
<path fill="#cc984f" opacity="1.00" d=" M 129.64 34.19 C 134.93 33.29 140.22 34.62 145.52 34.71 C 145.19 40.75 145.91 46.78 145.65 52.82 C 140.05 50.09 135.03 46.35 129.76 43.06 C 129.69 40.10 129.62 37.15 129.64 34.19 Z" />
<path fill="#cc984f" opacity="1.00" d=" M 118.63 110.60 C 124.04 109.62 129.99 110.17 134.58 113.42 C 137.78 115.90 139.89 119.90 139.77 123.98 C 139.54 136.51 139.18 149.04 139.56 161.56 C 129.23 161.54 118.90 161.14 108.56 161.20 C 108.61 156.47 108.62 151.73 109.10 147.01 C 109.42 138.47 109.20 129.91 109.56 121.37 C 110.79 116.71 113.89 112.17 118.63 110.60 M 128.19 142.06 C 127.90 145.29 131.29 147.11 134.14 146.50 C 136.53 145.18 138.16 142.69 137.46 139.89 C 135.84 135.22 127.54 137.07 128.19 142.06 Z" />
</g>
<g id="#e55e47ff">
<path fill="#e55e47" opacity="1.00" d=" M 72.31 44.26 C 80.16 39.93 87.43 34.39 96.00 31.50 C 103.47 29.55 110.16 34.08 116.42 37.44 C 135.99 49.89 156.59 60.83 174.98 75.07 C 178.76 78.04 181.71 83.08 180.15 87.97 C 178.17 92.55 172.31 93.40 167.99 92.08 C 166.27 91.59 164.52 91.01 163.12 89.84 C 150.53 79.89 136.72 71.63 123.71 62.25 C 119.09 58.80 114.13 55.84 109.34 52.64 C 105.45 50.11 100.53 48.37 95.95 50.05 C 90.23 52.20 85.54 56.29 80.32 59.36 C 65.85 69.98 50.39 79.22 36.26 90.31 C 35.01 91.27 33.46 91.66 31.96 92.06 C 27.63 93.46 21.70 92.50 19.79 87.86 C 18.24 82.47 21.83 77.13 26.17 74.23 C 40.62 62.86 56.90 54.19 72.31 44.26 Z" />
<path fill="#e55e47" opacity="1.00" d=" M 85.13 121.66 C 85.77 121.69 87.04 121.74 87.68 121.77 C 91.51 121.82 91.84 128.10 88.02 128.28 C 76.04 129.65 63.97 128.61 51.94 128.83 C 48.75 129.32 48.03 125.66 49.37 123.44 C 50.56 123.01 51.78 122.67 53.03 122.44 C 63.70 121.56 74.52 123.05 85.13 121.66 Z" />
</g>
<g id="#001024ff">
<path fill="#001024" opacity="1.00" d=" M 95.95 50.05 C 100.53 48.37 105.45 50.11 109.34 52.64 C 114.13 55.84 119.09 58.80 123.71 62.25 C 136.72 71.63 150.53 79.89 163.12 89.84 C 164.52 91.01 166.27 91.59 167.99 92.08 C 167.32 92.15 165.96 92.27 165.29 92.34 C 165.08 92.59 164.67 93.10 164.46 93.35 C 163.32 92.22 162.20 91.06 160.93 90.07 C 148.21 81.00 134.94 72.74 122.16 63.76 C 117.55 60.34 112.61 57.42 107.85 54.22 C 104.26 51.70 99.43 50.28 95.33 52.48 C 90.23 55.15 85.56 58.59 80.74 61.72 C 69.47 69.92 57.55 77.18 46.13 85.16 C 42.50 87.78 38.25 89.84 35.70 93.68 C 34.49 92.99 33.49 91.94 31.96 92.06 C 33.46 91.66 35.01 91.27 36.26 90.31 C 50.39 79.22 65.85 69.98 80.32 59.36 C 85.54 56.29 90.23 52.20 95.95 50.05 Z" />
<path fill="#001024" opacity="1.00" d=" M 119.47 108.33 C 124.48 106.98 129.84 108.37 134.31 110.75 C 139.67 113.66 142.23 120.09 141.80 125.99 C 141.46 137.88 141.88 149.84 140.54 161.67 C 144.37 161.50 148.25 161.92 152.03 161.13 C 151.57 161.43 150.65 162.03 150.19 162.33 C 147.19 162.37 144.19 162.39 141.21 162.08 C 140.80 162.00 139.98 161.84 139.57 161.77 L 139.56 161.56 C 139.18 149.04 139.54 136.51 139.77 123.98 C 139.89 119.90 137.78 115.90 134.58 113.42 C 129.99 110.17 124.04 109.62 118.63 110.60 C 113.89 112.17 110.79 116.71 109.56 121.37 C 109.20 129.91 109.42 138.47 109.10 147.01 C 108.62 151.73 108.61 156.47 108.56 161.20 C 108.13 159.36 107.63 157.53 107.25 155.68 C 107.27 145.12 107.54 134.56 107.67 124.01 C 107.61 116.99 112.44 109.84 119.47 108.33 Z" />
<path fill="#001024" opacity="1.00" d=" M 128.19 142.06 C 127.54 137.07 135.84 135.22 137.46 139.89 C 138.16 142.69 136.53 145.18 134.14 146.50 C 131.29 147.11 127.90 145.29 128.19 142.06 M 130.64 139.67 C 130.51 141.03 129.64 142.98 131.03 143.94 C 132.39 145.26 134.26 144.05 135.52 143.25 C 135.54 142.07 135.46 140.89 135.33 139.73 C 133.79 139.13 132.17 138.94 130.64 139.67 Z" />
</g>
<g id="#fdbb3dff">
<path fill="#fdbb3d" opacity="1.00" d=" M 95.33 52.48 C 99.43 50.28 104.26 51.70 107.85 54.22 C 112.61 57.42 117.55 60.34 122.16 63.76 C 134.94 72.74 148.21 81.00 160.93 90.07 C 162.20 91.06 163.32 92.22 164.46 93.35 L 163.80 94.75 C 163.36 101.71 163.58 108.70 163.43 115.67 C 163.10 126.49 163.57 137.35 162.42 148.13 C 161.86 153.99 158.27 160.11 152.03 161.13 C 148.25 161.92 144.37 161.50 140.54 161.67 C 141.88 149.84 141.46 137.88 141.80 125.99 C 142.23 120.09 139.67 113.66 134.31 110.75 C 129.84 108.37 124.48 106.98 119.47 108.33 C 112.44 109.84 107.61 116.99 107.67 124.01 C 107.54 134.56 107.27 145.12 107.25 155.68 C 107.05 157.53 106.82 159.39 106.74 161.26 C 101.07 160.41 95.36 161.07 89.68 161.32 C 88.84 154.27 83.62 147.01 76.10 146.48 C 67.74 145.22 59.90 152.49 59.54 160.72 C 56.91 160.08 54.35 160.60 51.88 161.53 C 47.46 161.39 42.41 159.98 40.17 155.80 C 36.98 150.80 37.44 144.67 36.88 139.01 C 36.61 124.62 36.69 110.22 36.37 95.83 L 35.51 93.93 L 35.70 93.68 C 38.25 89.84 42.50 87.78 46.13 85.16 C 57.55 77.18 69.47 69.92 80.74 61.72 C 85.56 58.59 90.23 55.15 95.33 52.48 M 58.56 91.92 C 53.46 92.81 50.20 98.09 50.47 103.03 C 50.49 108.78 50.57 114.55 51.02 120.28 C 48.75 121.87 46.26 124.03 46.66 127.13 C 47.78 130.65 51.85 131.01 54.97 131.13 C 62.66 131.10 70.37 131.48 78.03 130.78 C 82.37 130.44 86.98 130.99 91.03 129.08 C 92.19 127.20 92.57 125.05 92.66 122.88 C 92.01 121.30 90.92 120.50 89.41 120.46 C 88.93 117.16 89.54 113.83 89.53 110.51 C 89.65 108.33 89.96 106.17 90.16 103.99 C 89.64 99.78 89.96 94.49 85.78 91.96 C 77.02 89.02 67.45 90.15 58.56 91.92 Z" />
</g>
<g id="#10000aff">
<path fill="#10000a" opacity="1.00" d=" M 58.56 91.92 C 67.45 90.15 77.02 89.02 85.78 91.96 C 89.96 94.49 89.64 99.78 90.16 103.99 C 89.96 106.17 89.65 108.33 89.53 110.51 C 88.84 109.28 88.19 108.02 87.59 106.75 C 88.88 102.58 88.05 97.71 86.03 93.87 C 81.15 91.77 75.69 92.06 70.49 91.68 C 70.52 93.04 70.56 94.41 70.62 95.78 C 70.16 96.18 69.25 97.00 68.80 97.40 C 68.76 95.64 68.71 93.88 68.68 92.13 C 62.63 92.15 54.54 92.71 52.62 99.74 C 51.01 102.20 51.78 105.11 52.17 107.80 C 52.70 107.79 53.76 107.78 54.28 107.78 C 53.77 107.92 52.76 108.20 52.25 108.34 C 52.27 112.34 52.47 116.33 52.40 120.33 L 51.02 120.28 C 50.57 114.55 50.49 108.78 50.47 103.03 C 50.20 98.09 53.46 92.81 58.56 91.92 Z" />
</g>
<g id="#8cd1c8ff">
<path fill="#8cd1c8" opacity="1.00" d=" M 70.62 95.78 C 70.56 94.41 70.52 93.04 70.49 91.68 C 75.69 92.06 81.15 91.77 86.03 93.87 C 88.05 97.71 88.88 102.58 87.59 106.75 C 82.17 106.07 76.68 106.57 71.24 106.09 C 71.28 102.64 71.16 99.19 70.62 95.78 Z" />
<path fill="#8cd1c8" opacity="1.00" d=" M 52.62 99.74 C 54.54 92.71 62.63 92.15 68.68 92.13 C 68.71 93.88 68.76 95.64 68.80 97.40 C 68.78 100.20 68.82 103.01 68.81 105.81 C 64.52 105.85 60.22 105.60 55.97 106.26 C 54.41 107.05 53.35 105.58 52.18 104.92 C 52.33 103.19 52.47 101.47 52.62 99.74 Z" />
<path fill="#8cd1c8" opacity="1.00" d=" M 52.25 108.34 C 52.76 108.20 53.77 107.92 54.28 107.78 C 59.11 107.65 63.94 107.59 68.77 107.81 C 68.86 111.81 68.70 115.81 68.66 119.82 C 64.30 119.90 59.92 119.59 55.58 120.08 C 54.52 120.16 53.46 120.28 52.40 120.33 C 52.47 116.33 52.27 112.34 52.25 108.34 Z" />
<path fill="#8cd1c8" opacity="1.00" d=" M 71.18 108.15 C 76.72 108.32 82.26 108.28 87.80 108.42 C 87.69 112.09 87.49 115.76 87.37 119.44 C 81.88 120.12 76.32 119.67 70.80 119.77 C 70.46 115.88 71.33 112.04 71.18 108.15 Z" />
</g>
<g id="#0a1425ff">
<path fill="#0a1425" opacity="1.00" d=" M 163.80 94.75 L 164.91 95.03 C 165.25 101.95 164.49 108.87 164.64 115.80 L 163.43 115.67 C 163.58 108.70 163.36 101.71 163.80 94.75 Z" />
</g>
<g id="#00000aff">
<path fill="#00000a" opacity="1.00" d=" M 70.62 95.78 C 71.16 99.19 71.28 102.64 71.24 106.09 C 76.68 106.57 82.17 106.07 87.59 106.75 C 88.19 108.02 88.84 109.28 89.53 110.51 C 89.54 113.83 88.93 117.16 89.41 120.46 C 88.98 120.79 88.11 121.44 87.68 121.77 C 87.04 121.74 85.77 121.69 85.13 121.66 C 80.75 121.30 76.30 121.74 72.01 120.58 C 66.57 119.88 61.04 120.76 55.58 120.08 C 59.92 119.59 64.30 119.90 68.66 119.82 C 68.70 115.81 68.86 111.81 68.77 107.81 C 63.94 107.59 59.11 107.65 54.28 107.78 C 53.76 107.78 52.70 107.79 52.17 107.80 C 51.78 105.11 51.01 102.20 52.62 99.74 C 52.47 101.47 52.33 103.19 52.18 104.92 C 53.35 105.58 54.41 107.05 55.97 106.26 C 60.22 105.60 64.52 105.85 68.81 105.81 C 68.82 103.01 68.78 100.20 68.80 97.40 C 69.25 97.00 70.16 96.18 70.62 95.78 M 71.18 108.15 C 71.33 112.04 70.46 115.88 70.80 119.77 C 76.32 119.67 81.88 120.12 87.37 119.44 C 87.49 115.76 87.69 112.09 87.80 108.42 C 82.26 108.28 76.72 108.32 71.18 108.15 Z" />
</g>
<g id="#678637ff">
<path fill="#678637" opacity="1.00" d=" M 24.34 141.99 C 24.31 136.40 28.11 129.99 33.88 128.99 C 34.59 136.18 33.88 143.53 35.46 150.65 C 36.40 154.47 38.53 157.84 40.93 160.90 C 33.62 160.50 26.33 161.55 19.03 161.20 C 16.18 159.49 15.95 155.91 16.23 152.94 C 16.32 149.45 18.66 146.57 21.13 144.34 C 22.95 146.28 23.32 150.58 26.82 149.86 C 26.96 146.92 23.81 145.02 24.34 141.99 Z" />
<path fill="#678637" opacity="1.00" d=" M 166.01 129.06 C 171.87 129.79 175.66 136.39 175.68 141.94 C 176.09 144.94 173.20 146.94 173.18 149.85 C 176.67 150.61 177.13 146.26 178.85 144.27 C 180.90 146.45 183.41 148.77 183.66 151.94 C 183.96 155.14 184.36 159.38 181.00 161.15 C 173.70 161.67 166.39 160.44 159.07 160.85 C 161.63 157.64 163.84 154.05 164.73 149.99 C 165.99 143.08 165.59 136.03 166.01 129.06 Z" />
</g>
<g id="#e85f48ff">
<path fill="#e85f48" opacity="1.00" d=" M 130.64 139.67 C 132.17 138.94 133.79 139.13 135.33 139.73 C 135.46 140.89 135.54 142.07 135.52 143.25 C 134.26 144.05 132.39 145.26 131.03 143.94 C 129.64 142.98 130.51 141.03 130.64 139.67 Z" />
</g>
<g id="#89a049ff">
<path fill="#89a049" opacity="1.00" d=" M 67.44 151.31 C 70.28 148.72 74.44 148.92 77.98 149.41 C 84.03 151.59 88.05 158.68 85.95 164.95 C 85.64 166.77 83.28 168.00 84.05 170.00 C 87.21 167.61 91.37 164.24 95.46 166.61 C 98.44 168.05 98.01 171.68 97.49 174.38 C 94.88 175.69 91.86 175.50 89.02 175.74 C 76.34 175.81 63.57 176.04 50.97 175.02 C 47.30 170.46 53.24 160.05 59.30 163.70 C 60.92 164.58 61.46 167.82 63.72 166.72 C 64.52 164.82 62.72 163.27 61.76 161.87 C 62.55 157.89 64.12 153.85 67.44 151.31 Z" />
</g>
<g id="#061325ff">
<path fill="#061325" opacity="1.00" d=" M 141.21 162.08 C 144.19 162.39 147.19 162.37 150.19 162.33 C 147.28 163.48 144.11 162.92 141.07 162.87 L 141.21 162.08 Z" />
</g>
</svg>
