<?xml version="1.0" encoding="UTF-8" ?>
<!DOCTYPE svg PUBLIC "-//W3C//DTD SVG 1.1//EN" "http://www.w3.org/Graphics/SVG/1.1/DTD/svg11.dtd">
<svg width="1200pt" height="1200pt" viewBox="0 0 1200 1200" version="1.1" xmlns="http://www.w3.org/2000/svg">
<g id="#d1c4e9ff">
<path fill="#d1c4e9" opacity="1.00" d=" M 579.29 48.43 C 666.65 45.04 754.83 62.66 833.96 99.93 C 938.33 148.57 1026.49 230.92 1082.42 331.54 C 1124.42 406.74 1148.36 491.92 1151.52 578.00 C 1155.11 665.31 1137.73 753.48 1100.68 832.65 C 1070.38 898.01 1026.94 957.16 974.00 1005.99 C 916.69 1058.83 848.12 1099.43 774.12 1123.97 C 686.02 1153.28 590.49 1159.66 499.22 1142.79 C 414.65 1127.33 333.98 1091.42 265.69 1039.24 C 222.21 1006.16 183.73 966.55 151.78 922.24 C 106.29 859.14 74.33 786.31 58.99 710.04 C 39.98 616.01 45.68 517.00 76.03 425.95 C 99.21 356.00 136.70 290.83 185.44 235.57 C 235.11 179.03 296.42 132.75 364.49 100.66 C 431.54 68.87 505.14 51.04 579.29 48.43 Z" />
</g>
</svg>
