<?xml version="1.0" encoding="UTF-8"?>
<svg id="Capa_2" data-name="Capa 2" xmlns="http://www.w3.org/2000/svg" version="1.1" viewBox="0 0 168.3 78.3">
  <defs>
    <style>
      .cls-1, .cls-2 {
        isolation: isolate;
      }

      .cls-3 {
        fill: #837c6e;
      }

      .cls-3, .cls-4, .cls-5 {
        stroke-width: 0px;
      }

      .cls-2 {
        fill: #000;
        font-family: Poppins-Regular, Poppins;
        font-size: 27.4px;
      }

      .cls-6 {
        stroke: #a24949;
        stroke-width: 3px;
      }

      .cls-6, .cls-7 {
        stroke-linecap: round;
      }

      .cls-6, .cls-7, .cls-8 {
        fill: none;
      }

      .cls-7, .cls-8 {
        stroke: #000;
      }

      .cls-4 {
        fill: #d7ccee;
      }

      .cls-5 {
        fill: #f1e4cc;
      }
    </style>
  </defs>
  <g id="Capa_1-2" data-name="Capa 1-2">
    <g id="Grupo_68" data-name="Grupo 68">
      <g id="Grupo_37-3" data-name="Grupo 37-3">
        <g id="Rectángulo_71-3" data-name="Rectángulo 71-3">
          <rect class="cls-3" x="0" y="0" width="162.4" height="78.3" rx="9.8" ry="9.8"/>
          <rect class="cls-8" x="1" y="1" width="160.5" height="76.3" rx="8.8" ry="8.8"/>
        </g>
        <g id="Rectángulo_69-3" data-name="Rectángulo 69-3">
          <rect class="cls-5" x="5.9" y="0" width="162.4" height="78.3" rx="9.8" ry="9.8"/>
          <rect class="cls-7" x="6.9" y="1" width="160.5" height="76.3" rx="8.8" ry="8.8"/>
        </g>
        <line id="Línea_2-3" data-name="Línea 2-3" class="cls-6" x1="89.1" y1="70.5" x2="89.1" y2="7.8"/>
      </g>
      <g id="Luna">
        <path id="Sustracción_1" data-name="Sustracción 1" class="cls-4" d="M159.5,29c0,3.8-.7,7.5-2.1,11-1.4,3.3-3.4,6.4-5.9,8.9-2.5,2.6-5.4,4.6-8.7,6-6.8,3-14.5,3-21.3,0-3.3-1.4-6.2-3.5-8.7-6-2.5-2.6-4.5-5.6-5.9-8.9-2.4-6-2.8-12.6-1.1-18.8,10.8,14.5,31.3,17.6,45.8,6.8,2.6-1.9,4.9-4.2,6.8-6.8.7,2.6,1.1,5.2,1.1,7.9Z"/>
      </g>
      <g id="_3" data-name=" 3" class="cls-1">
        <g class="cls-1">
          <text class="cls-2" transform="translate(146.8 50.9) rotate(-90)"><tspan x="0" y="0">3</tspan></text>
        </g>
      </g>
    </g>
  </g>
  <metadata>
    <sfw xmlns="http://ns.adobe.com/SaveForWeb/1.0/">
      <slices/>
      <sliceSourceBounds x="-45.01" y="45.02" width="168.32" height="78.29" bottomLeftOrigin="true"/>
    </sfw>
  </metadata>
</svg>