<?xml version="1.0" encoding="UTF-8"?>
<svg id="Capa_2" data-name="Capa 2" xmlns="http://www.w3.org/2000/svg" version="1.1" viewBox="0 0 168.3 78.3">
  <defs>
    <style>
      .cls-1, .cls-2 {
        isolation: isolate;
      }

      .cls-3 {
        fill: #837c6e;
      }

      .cls-3, .cls-4, .cls-5, .cls-6 {
        stroke-width: 0px;
      }

      .cls-4 {
        fill: #fcb12b;
      }

      .cls-5 {
        fill: #29cfd7;
      }

      .cls-2 {
        fill: #000;
        font-family: Poppins-Regular, Poppins;
        font-size: 27.4px;
      }

      .cls-7 {
        stroke: #a24949;
        stroke-width: 3px;
      }

      .cls-7, .cls-8 {
        stroke-linecap: round;
      }

      .cls-7, .cls-8, .cls-9 {
        fill: none;
      }

      .cls-8, .cls-9 {
        stroke: #000;
      }

      .cls-6 {
        fill: #f1e4cc;
      }
    </style>
  </defs>
  <g id="Capa_1-2" data-name="Capa 1-2">
    <g id="Grupo_71" data-name="Grupo 71">
      <g id="Grupo_38-3" data-name="Grupo 38-3">
        <g id="Rectángulo_70-3" data-name="Rectángulo 70-3">
          <rect class="cls-3" x="0" y="0" width="162.4" height="78.3" rx="9.8" ry="9.8"/>
          <rect class="cls-9" x="1" y="1" width="160.5" height="76.3" rx="8.8" ry="8.8"/>
        </g>
        <g id="Rectángulo_68-3" data-name="Rectángulo 68-3">
          <rect class="cls-6" x="5.9" y="0" width="162.4" height="78.3" rx="9.8" ry="9.8"/>
          <rect class="cls-8" x="6.9" y="1" width="160.5" height="76.3" rx="8.8" ry="8.8"/>
        </g>
        <line id="Línea_1-3" data-name="Línea 1-3" class="cls-7" x1="89.1" y1="70.5" x2="89.1" y2="7.8"/>
      </g>
      <g id="Corazón-2">
        <path id="Unión_1-2" data-name="Unión 1-2" class="cls-4" d="M55.3,60.5l-2.5,2.5c-6,5.8-15.6,5.7-21.4-.3-5.7-5.9-5.7-15.2,0-21.1l2.5-2.5-2.5-2.5c-5.9-5.9-5.9-15.5,0-21.4,5.9-5.9,15.5-5.9,21.4,0h0l23.9,23.9-21.4,21.4h0Z"/>
      </g>
      <g id="_2-2" data-name=" 2-2" class="cls-1">
        <g class="cls-1">
          <text class="cls-2" transform="translate(60.7 47) rotate(-90)"><tspan x="0" y="0">2</tspan></text>
        </g>
      </g>
    </g>
    <g id="Estrella">
      <path id="Polígono_3" data-name="Polígono 3" class="cls-5" d="M114.5,18.5l14.2,12.3,14.2-12.3-3.5,18.4,17.8,6.2-17.8,6.1,3.6,18.4-14.2-12.3-14.2,12.3,3.5-18.4-17.8-6.2,17.8-6.1-3.6-18.4h0Z"/>
    </g>
    <g id="_6" data-name=" 6" class="cls-1">
      <g class="cls-1">
        <text class="cls-2" transform="translate(134.9 52.3) rotate(-90)"><tspan x="0" y="0">6</tspan></text>
      </g>
    </g>
  </g>
  <metadata>
    <sfw xmlns="http://ns.adobe.com/SaveForWeb/1.0/">
      <slices/>
      <sliceSourceBounds x="-45.01" y="45.02" width="168.32" height="78.29" bottomLeftOrigin="true"/>
    </sfw>
  </metadata>
</svg>