<?xml version="1.0" encoding="UTF-8" ?>
<!DOCTYPE svg PUBLIC "-//W3C//DTD SVG 1.1//EN" "http://www.w3.org/Graphics/SVG/1.1/DTD/svg11.dtd">
<svg width="200pt" height="200pt" viewBox="0 0 200 200" version="1.1" xmlns="http://www.w3.org/2000/svg">
<g id="#68d02fff">
<path fill="#68d02f" opacity="1.00" d=" M 152.91 18.10 C 160.57 15.88 168.26 13.65 176.13 12.29 C 178.61 32.66 177.68 53.47 173.65 73.59 C 169.58 92.91 161.83 111.84 148.96 126.99 C 126.21 152.90 90.62 168.50 56.03 163.14 C 51.91 162.61 47.91 161.27 43.74 161.15 C 43.36 160.39 42.97 159.64 42.57 158.90 C 43.54 156.59 44.22 154.18 44.99 151.80 C 42.67 153.88 41.06 156.66 38.53 158.49 C 37.65 148.68 36.09 138.82 37.06 128.94 C 38.15 109.24 44.56 89.51 56.94 73.98 C 63.78 65.14 72.58 58.10 81.62 51.63 C 103.23 36.46 127.73 25.80 152.91 18.10 M 115.98 49.69 C 116.47 58.02 117.37 66.53 114.73 74.64 C 114.03 78.43 110.57 80.51 107.93 82.91 C 98.87 91.31 89.35 99.21 79.91 107.18 C 81.70 95.11 81.29 82.56 76.73 71.10 C 76.37 71.39 75.64 71.98 75.27 72.27 C 79.20 84.12 80.60 97.05 77.26 109.21 C 76.26 111.96 73.76 113.76 71.81 115.82 C 63.74 123.53 57.17 132.59 50.74 141.66 C 48.87 144.64 46.29 147.44 45.99 151.12 C 46.98 150.43 47.94 149.66 48.43 148.53 C 51.04 143.36 55.09 139.15 58.34 134.39 C 60.26 131.98 61.80 129.09 64.42 127.34 C 70.73 124.99 77.60 125.96 84.18 125.39 C 93.93 124.58 103.61 126.37 113.19 127.90 C 113.02 127.52 112.69 126.75 112.52 126.37 C 107.38 124.44 101.76 124.25 96.35 123.58 C 86.25 122.45 76.23 124.67 66.13 124.77 C 70.77 119.21 75.39 113.57 80.90 108.85 C 86.79 103.75 92.80 98.79 98.53 93.51 C 100.41 91.92 102.24 89.70 104.96 89.88 C 117.14 89.65 129.32 91.02 141.19 93.72 C 140.77 92.14 139.27 91.50 137.82 91.18 C 127.38 88.45 116.51 88.30 105.78 87.90 C 108.10 84.83 111.13 82.47 114.06 80.02 C 120.88 73.85 127.84 67.83 134.67 61.67 C 136.89 59.57 139.96 58.09 141.00 55.03 C 136.10 57.10 132.75 61.46 128.62 64.66 C 124.70 67.71 121.52 71.69 117.16 74.16 C 117.68 68.65 119.18 63.19 118.48 57.62 C 118.01 54.93 118.46 51.52 115.98 49.69 Z" />
</g>
<g id="#469d23ff">
<path fill="#469d23" opacity="1.00" d=" M 115.98 49.69 C 118.46 51.52 118.01 54.93 118.48 57.62 C 119.18 63.19 117.68 68.65 117.16 74.16 C 121.52 71.69 124.70 67.71 128.62 64.66 C 132.75 61.46 136.10 57.10 141.00 55.03 C 139.96 58.09 136.89 59.57 134.67 61.67 C 127.84 67.83 120.88 73.85 114.06 80.02 C 111.13 82.47 108.10 84.83 105.78 87.90 C 116.51 88.30 127.38 88.45 137.82 91.18 C 139.27 91.50 140.77 92.14 141.19 93.72 C 129.32 91.02 117.14 89.65 104.96 89.88 C 102.24 89.70 100.41 91.92 98.53 93.51 C 92.80 98.79 86.79 103.75 80.90 108.85 C 75.39 113.57 70.77 119.21 66.13 124.77 C 76.23 124.67 86.25 122.45 96.35 123.58 C 101.76 124.25 107.38 124.44 112.52 126.37 C 112.69 126.75 113.02 127.52 113.19 127.90 C 103.61 126.37 93.93 124.58 84.18 125.39 C 77.60 125.96 70.73 124.99 64.42 127.34 C 61.80 129.09 60.26 131.98 58.34 134.39 C 55.09 139.15 51.04 143.36 48.43 148.53 C 47.94 149.66 46.98 150.43 45.99 151.12 C 46.29 147.44 48.87 144.64 50.74 141.66 C 57.17 132.59 63.74 123.53 71.81 115.82 C 73.76 113.76 76.26 111.96 77.26 109.21 C 80.60 97.05 79.20 84.12 75.27 72.27 C 75.64 71.98 76.37 71.39 76.73 71.10 C 81.29 82.56 81.70 95.11 79.91 107.18 C 89.35 99.21 98.87 91.31 107.93 82.91 C 110.57 80.51 114.03 78.43 114.73 74.64 C 117.37 66.53 116.47 58.02 115.98 49.69 Z" />
<path fill="#469d23" opacity="1.00" d=" M 38.53 158.49 C 41.06 156.66 42.67 153.88 44.99 151.80 C 44.22 154.18 43.54 156.59 42.57 158.90 C 42.97 159.64 43.36 160.39 43.74 161.15 C 43.90 162.38 42.90 163.36 42.46 164.44 C 37.79 172.29 36.22 181.53 35.99 190.55 C 30.62 190.66 25.60 187.64 22.95 183.03 C 26.77 175.37 30.16 167.34 35.68 160.68 C 36.44 159.73 37.48 159.08 38.53 158.49 Z" />
</g>
</svg>
