<?xml version="1.0" encoding="UTF-8" ?>
<!DOCTYPE svg PUBLIC "-//W3C//DTD SVG 1.1//EN" "http://www.w3.org/Graphics/SVG/1.1/DTD/svg11.dtd">
<svg width="900pt" height="1201pt" viewBox="0 0 900 1201" version="1.1" xmlns="http://www.w3.org/2000/svg">
<g id="#ab22baff">
<path fill="#ab22ba" opacity="1.00" d=" M 704.93 50.20 C 723.91 45.34 744.12 44.04 763.27 48.78 C 777.90 52.32 791.55 59.34 803.46 68.50 C 818.85 80.13 831.61 95.13 840.89 112.02 C 857.37 141.89 863.41 176.23 865.34 209.94 C 868.10 260.51 860.64 310.83 853.87 360.80 C 838.92 467.41 836.00 575.75 812.71 681.13 C 800.57 737.01 781.45 791.41 755.26 842.26 C 726.16 899.04 688.53 951.30 644.83 997.73 C 596.99 1048.63 542.05 1092.60 483.20 1130.12 C 456.63 1147.17 429.02 1162.76 399.84 1174.89 C 362.44 1190.56 322.32 1200.67 281.62 1201.00 L 278.47 1201.00 C 222.91 1200.79 168.02 1180.05 125.45 1144.51 C 88.08 1113.56 60.17 1070.70 49.48 1023.17 C 45.06 1005.22 45.14 985.84 51.69 968.41 C 56.40 955.89 64.91 944.42 76.71 937.80 C 84.19 933.60 93.56 932.18 101.63 935.54 C 110.25 939.00 116.24 946.75 120.15 954.91 C 133.15 980.67 155.23 1001.10 180.66 1014.35 C 211.43 1030.54 245.92 1038.02 280.17 1042.32 C 337.78 1049.89 396.78 1044.40 452.53 1028.40 C 480.10 1020.42 507.18 1010.33 532.40 996.53 C 603.50 957.99 659.86 894.43 692.84 820.86 C 705.06 794.29 712.88 766.04 721.36 738.14 C 753.81 628.86 778.96 516.86 787.57 402.98 C 787.83 389.63 786.55 376.30 786.28 362.95 C 786.15 352.99 785.32 342.89 787.28 333.05 C 767.25 350.63 745.27 365.98 721.94 378.84 C 694.70 393.66 665.13 405.42 634.04 408.39 C 614.26 410.24 593.73 407.84 575.72 399.12 C 560.82 392.02 548.13 380.77 538.37 367.53 C 527.97 353.36 520.08 337.24 516.05 320.08 C 510.40 296.52 511.68 271.71 517.29 248.27 C 524.69 217.51 538.98 188.74 556.76 162.70 C 575.28 135.80 597.67 111.49 623.39 91.32 C 647.41 72.27 675.23 57.94 704.93 50.20 M 752.51 115.58 C 744.15 117.68 737.64 123.84 731.77 129.81 C 719.81 142.62 710.23 157.44 701.52 172.59 C 684.12 202.89 676.16 238.18 677.25 273.01 C 677.59 288.36 678.42 304.02 683.45 318.66 C 685.83 325.16 689.56 332.19 696.48 334.66 C 702.68 336.87 709.03 333.62 713.99 330.05 C 744.44 307.99 769.51 277.30 781.15 241.22 C 788.03 220.00 789.82 197.08 785.72 175.12 C 781.99 154.73 773.40 135.36 761.54 118.42 C 759.70 115.26 755.78 114.65 752.51 115.58 Z" />
</g>
</svg>
