<?xml version="1.0" encoding="UTF-8" ?>
<!DOCTYPE svg PUBLIC "-//W3C//DTD SVG 1.1//EN" "http://www.w3.org/Graphics/SVG/1.1/DTD/svg11.dtd">
<svg width="200pt" height="200pt" viewBox="0 0 200 200" version="1.1" xmlns="http://www.w3.org/2000/svg">
<g id="#fecd4dff">
<path fill="#fecd4d" opacity="1.00" d=" M 40.43 63.51 C 53.54 39.96 80.61 24.77 107.59 26.67 C 89.20 35.06 76.10 53.83 74.42 73.96 C 74.49 77.91 74.35 81.86 74.49 85.81 C 76.38 101.38 84.60 116.39 97.41 125.61 C 114.15 138.83 138.53 140.93 157.57 131.52 C 164.52 128.36 170.53 123.42 175.73 117.89 C 170.77 138.10 156.74 155.92 138.19 165.37 C 130.13 169.69 121.13 172.08 112.10 173.29 C 104.24 173.19 96.24 174.04 88.57 171.85 C 61.86 166.38 39.31 144.60 32.99 118.08 C 28.27 99.87 30.96 79.77 40.43 63.51 Z" />
</g>
</svg>
