<?xml version="1.0" encoding="UTF-8" ?>
<!DOCTYPE svg PUBLIC "-//W3C//DTD SVG 1.1//EN" "http://www.w3.org/Graphics/SVG/1.1/DTD/svg11.dtd">
<svg width="200pt" height="200pt" viewBox="0 0 200 200" version="1.1" xmlns="http://www.w3.org/2000/svg">
<g id="#595038de">
<path fill="#595038" opacity="0.87" d=" M 116.80 10.72 C 122.08 9.56 128.36 9.80 132.55 13.63 C 136.47 17.39 138.36 22.64 139.95 27.69 C 145.40 22.81 152.64 19.57 160.06 19.92 C 164.06 20.31 168.84 21.75 170.65 25.63 C 168.41 24.32 166.52 22.34 163.98 21.61 C 157.36 19.98 150.22 21.56 144.61 25.34 C 138.81 28.97 134.70 34.62 131.24 40.41 C 131.71 40.82 132.65 41.64 133.11 42.05 C 130.66 41.37 128.19 40.73 125.75 40.01 C 123.94 39.21 122.16 38.30 120.67 36.98 C 123.05 37.63 125.37 38.45 127.68 39.29 C 126.99 34.94 126.03 30.63 124.66 26.45 C 121.57 29.03 119.01 32.15 116.58 35.34 C 117.82 35.89 119.07 36.45 120.36 36.88 C 117.90 37.13 115.59 36.45 113.44 35.30 C 114.01 35.19 115.16 34.98 115.73 34.87 C 119.88 30.05 124.01 23.47 131.00 23.02 C 134.93 23.32 135.80 27.74 137.03 30.70 C 137.55 30.22 138.58 29.24 139.09 28.75 C 138.34 25.99 138.16 21.94 134.83 21.11 C 130.71 19.58 126.28 21.45 122.90 23.85 C 118.79 26.87 115.10 30.63 112.60 35.10 C 111.58 34.86 110.59 34.53 109.63 34.12 C 110.19 34.15 111.30 34.19 111.86 34.22 C 115.39 29.39 119.46 24.84 124.62 21.71 C 128.11 19.94 132.11 19.09 135.90 20.50 C 134.87 16.97 132.02 13.96 128.77 12.29 C 123.19 10.20 116.76 10.99 111.49 13.62 C 104.12 17.10 98.31 23.55 94.83 30.84 C 96.75 31.21 98.66 31.62 100.57 32.03 C 92.66 31.97 84.74 30.23 76.81 31.42 C 78.35 32.15 79.89 32.90 81.43 33.63 C 77.94 33.33 74.47 32.68 70.96 32.64 C 67.65 33.39 64.10 33.95 61.33 36.05 C 59.74 36.70 57.85 36.76 56.58 38.03 C 61.21 38.62 65.89 38.12 70.52 38.68 C 84.36 40.25 98.07 43.25 111.21 47.93 C 115.60 49.68 120.10 51.36 124.01 54.08 C 126.38 55.62 127.20 58.46 127.84 61.05 C 131.49 76.45 131.25 92.34 132.53 107.99 C 132.61 125.35 133.19 142.76 132.07 160.10 C 131.54 168.42 130.93 176.74 129.21 184.92 C 129.44 185.39 129.89 186.32 130.12 186.78 L 130.21 186.95 C 125.21 191.46 118.15 191.58 111.80 191.40 C 110.66 192.13 109.57 193.13 108.14 193.17 C 86.29 195.80 63.96 191.67 43.82 183.06 C 35.86 179.46 27.88 175.57 21.12 169.97 C 19.05 167.15 19.46 163.35 19.07 160.04 C 19.50 151.62 20.30 143.20 22.01 134.93 C 23.11 129.78 24.08 124.44 26.94 119.93 C 30.08 96.71 33.74 73.46 40.11 50.88 C 41.36 47.52 41.88 43.42 44.99 41.19 C 46.71 39.82 48.93 39.50 50.94 38.77 C 63.38 32.93 77.22 28.46 91.11 30.35 C 91.79 30.37 93.13 30.42 93.81 30.45 C 98.54 21.31 106.44 13.00 116.80 10.72 M 125.81 26.81 C 127.21 31.18 128.06 35.69 128.84 40.21 L 130.15 40.46 C 132.25 37.34 134.39 34.20 136.37 31.00 C 135.23 28.22 134.43 24.54 131.07 23.68 C 129.28 24.23 125.62 24.22 125.81 26.81 M 43.91 43.93 C 41.60 47.80 40.80 52.38 39.49 56.66 C 34.20 77.66 30.57 99.06 27.93 120.54 C 29.56 121.08 31.30 120.66 32.97 120.73 C 42.74 120.57 52.43 122.24 61.98 124.16 C 76.65 127.15 91.22 130.65 105.90 133.58 C 108.13 134.19 110.45 134.66 112.51 135.77 C 115.03 137.36 116.01 140.50 115.60 143.35 C 114.88 140.51 114.08 136.98 110.93 135.94 C 106.14 134.46 101.16 133.73 96.30 132.55 C 73.39 127.91 50.55 120.44 26.90 121.83 C 26.13 123.40 25.50 125.03 24.96 126.68 C 21.76 139.79 19.19 153.46 20.74 166.97 C 21.15 168.50 22.21 169.67 23.46 170.59 C 28.34 174.27 33.76 177.15 39.23 179.84 C 60.46 190.01 84.46 194.85 107.94 192.20 C 111.57 191.84 112.01 187.69 112.88 184.91 C 116.83 171.51 115.65 157.44 115.63 143.68 C 115.75 144.05 115.98 144.80 116.09 145.18 C 116.73 160.32 117.30 176.01 111.71 190.40 C 116.11 190.69 120.61 190.30 124.86 189.12 C 126.77 188.69 127.48 186.70 128.04 185.06 C 129.35 180.79 129.81 176.32 130.37 171.91 C 132.42 150.01 132.06 127.97 131.57 106.00 C 130.59 90.95 130.41 75.70 126.94 60.94 C 126.39 58.01 124.68 55.39 122.04 53.94 C 114.41 49.42 105.79 46.92 97.29 44.58 C 92.83 43.51 88.39 42.12 83.78 41.95 L 83.36 41.48 C 73.72 39.66 63.86 38.60 54.05 39.38 C 50.25 39.64 47.01 41.94 43.91 43.93 Z" />
</g>
<g id="#d84a40ff">
<path fill="#d84a40" opacity="1.00" d=" M 111.49 13.62 C 116.76 10.99 123.19 10.20 128.77 12.29 C 132.02 13.96 134.87 16.97 135.90 20.50 C 132.11 19.09 128.11 19.94 124.62 21.71 C 121.54 17.21 116.47 15.22 111.49 13.62 Z" />
<path fill="#d84a40" opacity="1.00" d=" M 144.61 25.34 C 150.22 21.56 157.36 19.98 163.98 21.61 C 166.52 22.34 168.41 24.32 170.65 25.63 C 170.69 25.75 170.76 25.98 170.80 26.10 C 171.21 27.42 171.72 28.71 172.29 29.98 C 167.51 28.83 162.58 30.20 158.71 33.12 C 155.12 28.84 149.76 26.96 144.61 25.34 Z" />
</g>
<g id="#f0594eff">
<path fill="#f0594e" opacity="1.00" d=" M 94.83 30.84 C 98.31 23.55 104.12 17.10 111.49 13.62 C 116.47 15.22 121.54 17.21 124.62 21.71 C 119.46 24.84 115.39 29.39 111.86 34.22 C 111.30 34.19 110.19 34.15 109.63 34.12 C 106.70 33.07 103.62 32.55 100.57 32.03 C 98.66 31.62 96.75 31.21 94.83 30.84 Z" />
<path fill="#f0594e" opacity="1.00" d=" M 131.24 40.41 C 134.70 34.62 138.81 28.97 144.61 25.34 C 149.76 26.96 155.12 28.84 158.71 33.12 C 153.06 37.03 149.54 43.08 145.16 48.13 C 144.57 47.83 143.38 47.22 142.79 46.92 C 139.71 45.03 136.54 43.24 133.11 42.05 C 132.65 41.64 131.71 40.82 131.24 40.41 Z" />
</g>
<g id="#f47269ff">
<path fill="#f47269" opacity="1.00" d=" M 122.90 23.85 C 126.28 21.45 130.71 19.58 134.83 21.11 C 138.16 21.94 138.34 25.99 139.09 28.75 C 138.58 29.24 137.55 30.22 137.03 30.70 C 135.80 27.74 134.93 23.32 131.00 23.02 C 124.01 23.47 119.88 30.05 115.73 34.87 C 115.16 34.98 114.01 35.19 113.44 35.30 L 112.60 35.10 C 115.10 30.63 118.79 26.87 122.90 23.85 Z" />
</g>
<g id="#c44941ff">
<path fill="#c44941" opacity="1.00" d=" M 125.81 26.81 C 125.62 24.22 129.28 24.23 131.07 23.68 C 134.43 24.54 135.23 28.22 136.37 31.00 C 134.39 34.20 132.25 37.34 130.15 40.46 L 128.84 40.21 C 128.06 35.69 127.21 31.18 125.81 26.81 Z" />
<path fill="#c44941" opacity="1.00" d=" M 162.22 35.82 C 164.32 33.82 168.57 32.62 170.49 35.49 C 173.08 39.87 173.74 45.06 174.60 49.99 C 178.53 76.85 176.86 104.40 170.67 130.79 C 169.28 135.70 168.19 140.96 164.98 145.05 C 162.77 147.35 159.08 145.94 157.20 143.94 C 163.09 139.29 165.44 131.76 166.33 124.59 C 167.57 113.43 167.73 102.18 167.77 90.96 C 167.59 72.51 167.61 53.63 162.22 35.82 Z" />
</g>
<g id="#6d433ddb">
<path fill="#6d433d" opacity="0.86" d=" M 170.80 26.10 C 172.16 26.24 172.36 27.88 173.04 28.79 C 177.96 38.36 179.15 49.30 180.09 59.86 C 179.64 66.61 180.54 73.32 180.75 80.05 C 180.11 86.02 179.82 92.02 180.10 98.02 C 179.08 111.08 177.54 124.23 173.72 136.81 C 172.00 141.86 170.11 147.41 165.76 150.80 C 163.00 152.90 159.61 151.56 157.01 149.94 C 156.69 153.16 156.59 156.50 155.20 159.49 C 156.84 146.41 157.10 133.20 156.86 120.03 C 157.25 115.62 157.09 111.20 156.76 106.79 C 156.81 96.84 156.02 86.92 155.16 77.02 C 154.60 71.52 153.22 66.12 153.23 60.57 C 157.12 77.43 157.18 94.87 157.89 112.07 C 157.72 122.16 158.11 132.26 157.40 142.33 C 163.52 137.07 164.96 128.48 165.69 120.85 C 167.20 99.95 167.31 78.91 165.41 58.03 C 164.57 50.73 163.65 43.34 161.25 36.35 C 160.05 37.41 158.78 38.40 157.52 39.39 L 157.89 38.09 C 160.52 35.32 163.96 32.50 168.01 32.83 C 171.89 33.53 172.74 37.99 173.76 41.14 C 176.93 54.16 177.47 67.66 177.65 81.00 C 177.55 98.02 175.40 115.05 171.46 131.60 C 169.97 136.62 168.96 142.26 165.19 146.16 C 162.74 148.44 159.54 146.57 156.99 145.55 C 157.06 146.33 157.21 147.90 157.29 148.68 C 159.16 150.03 161.38 151.46 163.80 150.67 C 166.26 149.64 167.93 147.33 169.22 145.07 C 172.51 138.98 174.15 132.17 175.56 125.44 C 178.14 112.12 179.39 98.56 179.72 85.00 C 179.84 68.11 179.74 50.80 174.53 34.56 C 173.67 30.03 167.78 29.83 164.31 31.21 C 156.81 34.18 151.69 40.89 147.29 47.35 C 146.04 48.67 146.31 49.77 148.12 50.65 C 151.22 46.95 153.14 41.77 157.48 39.44 C 154.84 43.45 151.49 46.96 149.10 51.16 L 149.74 52.21 C 147.20 50.76 144.86 48.99 142.79 46.92 C 143.38 47.22 144.57 47.83 145.16 48.13 C 149.54 43.08 153.06 37.03 158.71 33.12 C 162.58 30.20 167.51 28.83 172.29 29.98 C 171.72 28.71 171.21 27.42 170.80 26.10 M 162.22 35.82 C 167.61 53.63 167.59 72.51 167.77 90.96 C 167.73 102.18 167.57 113.43 166.33 124.59 C 165.44 131.76 163.09 139.29 157.20 143.94 C 159.08 145.94 162.77 147.35 164.98 145.05 C 168.19 140.96 169.28 135.70 170.67 130.79 C 176.86 104.40 178.53 76.85 174.60 49.99 C 173.74 45.06 173.08 39.87 170.49 35.49 C 168.57 32.62 164.32 33.82 162.22 35.82 Z" />
</g>
<g id="#4b8638ff">
<path fill="#4b8638" opacity="1.00" d=" M 76.81 31.42 C 84.74 30.23 92.66 31.97 100.57 32.03 C 103.62 32.55 106.70 33.07 109.63 34.12 C 110.59 34.53 111.58 34.86 112.60 35.10 L 113.44 35.30 C 115.59 36.45 117.90 37.13 120.36 36.88 L 120.67 36.98 C 122.16 38.30 123.94 39.21 125.75 40.01 C 128.44 42.56 132.15 44.50 133.02 48.41 C 116.62 41.14 99.13 36.44 81.43 33.63 C 79.89 32.90 78.35 32.15 76.81 31.42 Z" />
</g>
<g id="#ff766cff">
<path fill="#ff766c" opacity="1.00" d=" M 164.31 31.21 C 167.78 29.83 173.67 30.03 174.53 34.56 C 179.74 50.80 179.84 68.11 179.72 85.00 C 179.39 98.56 178.14 112.12 175.56 125.44 C 174.15 132.17 172.51 138.98 169.22 145.07 C 167.93 147.33 166.26 149.64 163.80 150.67 C 161.38 151.46 159.16 150.03 157.29 148.68 C 157.21 147.90 157.06 146.33 156.99 145.55 C 159.54 146.57 162.74 148.44 165.19 146.16 C 168.96 142.26 169.97 136.62 171.46 131.60 C 175.40 115.05 177.55 98.02 177.65 81.00 C 177.47 67.66 176.93 54.16 173.76 41.14 C 172.74 37.99 171.89 33.53 168.01 32.83 C 163.96 32.50 160.52 35.32 157.89 38.09 L 157.52 39.39 C 157.51 39.40 157.49 39.43 157.48 39.44 C 153.14 41.77 151.22 46.95 148.12 50.65 C 146.31 49.77 146.04 48.67 147.29 47.35 C 151.69 40.89 156.81 34.18 164.31 31.21 Z" />
</g>
<g id="#00dfffff">
<path fill="#00dfff" opacity="1.00" d=" M 61.33 36.05 C 64.10 33.95 67.65 33.39 70.96 32.64 C 74.47 32.68 77.94 33.33 81.43 33.63 C 99.13 36.44 116.62 41.14 133.02 48.41 C 141.52 51.62 143.40 61.47 145.25 69.29 C 145.49 70.75 145.67 72.23 145.83 73.71 C 146.77 84.03 147.60 94.41 147.08 104.79 C 146.53 104.81 145.41 104.85 144.86 104.87 C 145.33 100.47 145.08 96.02 144.76 91.62 C 144.58 86.22 144.28 80.81 143.43 75.47 C 142.52 68.79 141.32 61.91 138.03 55.93 C 136.27 52.21 132.06 51.00 128.63 49.35 C 114.95 43.75 100.65 39.63 86.09 37.14 C 84.40 36.75 82.68 36.49 80.95 36.48 C 74.52 35.44 67.76 34.76 61.33 36.05 Z" />
</g>
<g id="#4b8538ff">
<path fill="#4b8538" opacity="1.00" d=" M 56.58 38.03 C 57.85 36.76 59.74 36.70 61.33 36.05 C 67.47 37.64 74.02 37.09 80.32 37.06 C 81.94 38.58 84.35 38.27 86.09 37.14 C 100.65 39.63 114.95 43.75 128.63 49.35 C 132.06 51.00 136.27 52.21 138.03 55.93 C 141.32 61.91 142.52 68.79 143.43 75.47 C 142.22 79.24 142.79 83.21 143.05 87.07 C 143.06 88.76 143.71 90.31 144.76 91.62 C 145.08 96.02 145.33 100.47 144.86 104.87 L 143.76 106.03 C 140.13 106.76 142.66 111.40 142.40 113.91 C 144.15 114.32 145.89 113.61 147.60 113.25 C 147.96 115.46 148.38 117.71 148.15 119.96 C 147.24 130.47 145.59 141.19 140.65 150.65 C 138.63 154.47 135.45 157.48 132.07 160.10 C 133.19 142.76 132.61 125.35 132.53 107.99 C 131.25 92.34 131.49 76.45 127.84 61.05 C 127.20 58.46 126.38 55.62 124.01 54.08 C 120.10 51.36 115.60 49.68 111.21 47.93 C 98.07 43.25 84.36 40.25 70.52 38.68 C 65.89 38.12 61.21 38.62 56.58 38.03 Z" />
</g>
<g id="#4d6729ff">
<path fill="#4d6729" opacity="1.00" d=" M 61.33 36.05 C 67.76 34.76 74.52 35.44 80.95 36.48 L 80.32 37.06 C 74.02 37.09 67.47 37.64 61.33 36.05 Z" />
</g>
<g id="#4e6126ff">
<path fill="#4e6126" opacity="1.00" d=" M 80.32 37.06 L 80.95 36.48 C 82.68 36.49 84.40 36.75 86.09 37.14 C 84.35 38.27 81.94 38.58 80.32 37.06 Z" />
</g>
<g id="#69bc50ff">
<path fill="#69bc50" opacity="1.00" d=" M 43.91 43.93 C 47.01 41.94 50.25 39.64 54.05 39.38 C 63.86 38.60 73.72 39.66 83.36 41.48 L 83.78 41.95 C 87.30 46.61 93.13 49.63 95.03 55.37 C 82.48 52.67 69.84 49.92 56.97 49.47 C 54.43 49.62 51.17 49.13 49.53 51.54 C 45.25 56.87 43.40 63.72 42.46 70.37 C 41.70 75.87 41.53 81.65 43.42 86.95 C 44.39 89.67 47.50 90.34 49.91 91.21 C 61.05 94.67 72.46 97.14 83.90 99.35 C 93.21 100.97 102.61 102.88 112.10 102.01 C 112.09 112.81 110.04 123.59 105.90 133.58 C 91.22 130.65 76.65 127.15 61.98 124.16 C 52.43 122.24 42.74 120.57 32.97 120.73 C 31.30 120.66 29.56 121.08 27.93 120.54 C 30.57 99.06 34.20 77.66 39.49 56.66 C 40.80 52.38 41.60 47.80 43.91 43.93 M 37.23 80.06 C 34.93 87.78 34.94 95.99 34.27 103.97 C 34.40 108.02 33.66 113.10 36.71 116.25 C 51.01 122.13 66.67 123.49 81.94 124.83 C 85.18 124.69 88.98 125.68 91.84 123.82 C 94.93 119.09 97.03 113.62 97.83 108.02 C 97.70 107.69 97.44 107.03 97.31 106.69 C 92.65 104.57 87.54 103.73 82.62 102.40 C 69.53 98.99 56.19 96.52 43.24 92.63 C 37.96 90.77 40.90 82.93 37.23 80.06 Z" />
</g>
<g id="#347525ff">
<path fill="#347525" opacity="1.00" d=" M 125.75 40.01 C 128.19 40.73 130.66 41.37 133.11 42.05 C 136.54 43.24 139.71 45.03 142.79 46.92 C 144.86 48.99 147.20 50.76 149.74 52.21 C 151.69 54.60 152.42 57.67 153.23 60.57 C 153.22 66.12 154.60 71.52 155.16 77.02 C 156.02 86.92 156.81 96.84 156.76 106.79 C 157.09 111.20 157.25 115.62 156.86 120.03 C 157.10 133.20 156.84 146.41 155.20 159.49 C 150.01 170.95 140.25 179.68 130.12 186.78 C 129.89 186.32 129.44 185.39 129.21 184.92 C 130.93 176.74 131.54 168.42 132.07 160.10 C 135.45 157.48 138.63 154.47 140.65 150.65 C 145.59 141.19 147.24 130.47 148.15 119.96 C 148.38 117.71 147.96 115.46 147.60 113.25 C 147.90 113.17 148.52 113.00 148.83 112.91 C 149.49 112.79 150.82 112.55 151.48 112.43 C 151.49 110.09 151.38 107.76 151.20 105.43 C 150.69 105.30 149.65 105.05 149.14 104.92 C 148.93 99.93 149.14 94.94 148.95 89.95 C 149.05 88.33 148.31 86.90 147.60 85.50 C 147.52 84.92 147.36 83.75 147.27 83.16 C 148.65 80.98 149.02 77.79 146.76 76.05 C 146.62 75.53 146.36 74.49 146.23 73.98 C 147.47 72.45 147.42 69.91 145.25 69.29 C 143.40 61.47 141.52 51.62 133.02 48.41 C 132.15 44.50 128.44 42.56 125.75 40.01 Z" />
</g>
<g id="#51a93bff">
<path fill="#51a93b" opacity="1.00" d=" M 83.78 41.95 C 88.39 42.12 92.83 43.51 97.29 44.58 C 105.79 46.92 114.41 49.42 122.04 53.94 C 124.68 55.39 126.39 58.01 126.94 60.94 C 130.41 75.70 130.59 90.95 131.57 106.00 C 132.06 127.97 132.42 150.01 130.37 171.91 C 129.81 176.32 129.35 180.79 128.04 185.06 C 127.48 186.70 126.77 188.69 124.86 189.12 C 120.61 190.30 116.11 190.69 111.71 190.40 C 117.30 176.01 116.73 160.32 116.09 145.18 C 115.98 144.80 115.75 144.05 115.63 143.68 L 115.60 143.35 C 116.01 140.50 115.03 137.36 112.51 135.77 C 110.45 134.66 108.13 134.19 105.90 133.58 C 110.04 123.59 112.09 112.81 112.10 102.01 C 113.99 99.68 115.65 97.11 116.19 94.11 C 118.04 85.61 118.63 76.77 117.66 68.12 C 117.23 65.70 117.28 62.51 114.57 61.44 C 108.40 58.46 101.60 57.15 95.03 55.37 C 93.13 49.63 87.30 46.61 83.78 41.95 Z" />
</g>
<g id="#716e39ff">
<path fill="#716e39" opacity="1.00" d=" M 49.53 51.54 C 51.17 49.13 54.43 49.62 56.97 49.47 C 69.84 49.92 82.48 52.67 95.03 55.37 C 101.60 57.15 108.40 58.46 114.57 61.44 C 117.28 62.51 117.23 65.70 117.66 68.12 C 118.63 76.77 118.04 85.61 116.19 94.11 C 115.65 97.11 113.99 99.68 112.10 102.01 C 102.61 102.88 93.21 100.97 83.90 99.35 C 72.46 97.14 61.05 94.67 49.91 91.21 C 47.50 90.34 44.39 89.67 43.42 86.95 C 41.53 81.65 41.70 75.87 42.46 70.37 C 43.40 63.72 45.25 56.87 49.53 51.54 M 49.90 52.98 C 44.34 61.01 42.75 71.24 43.24 80.83 C 43.68 83.73 43.81 87.73 47.09 88.89 C 50.61 90.08 54.14 91.52 57.86 91.93 C 58.15 92.09 58.74 92.43 59.04 92.60 C 69.90 95.41 80.88 97.76 91.96 99.57 C 98.26 100.49 104.67 101.57 111.05 100.80 C 113.29 99.78 114.10 97.20 114.80 95.03 C 116.58 88.54 116.99 81.74 116.93 75.04 C 116.87 71.12 116.80 67.12 115.54 63.38 C 110.35 59.92 103.89 59.04 97.98 57.29 C 84.67 54.29 71.18 51.05 57.49 50.84 C 54.91 50.50 51.34 50.30 49.90 52.98 Z" />
</g>
<g id="#e3ac14ff">
<path fill="#e3ac14" opacity="1.00" d=" M 49.90 52.98 C 51.34 50.30 54.91 50.50 57.49 50.84 C 60.50 52.15 63.77 52.54 66.97 53.14 C 81.02 56.13 95.14 59.23 108.54 64.48 C 111.30 65.35 110.96 68.67 111.03 70.97 C 110.76 78.00 109.83 85.05 107.82 91.80 C 107.12 93.85 106.46 96.13 104.72 97.55 C 100.90 98.66 96.84 98.16 92.93 97.88 C 85.53 97.07 78.20 95.75 70.91 94.25 C 66.57 93.42 62.32 91.93 57.86 91.93 C 54.14 91.52 50.61 90.08 47.09 88.89 C 43.81 87.73 43.68 83.73 43.24 80.83 C 42.75 71.24 44.34 61.01 49.90 52.98 M 53.35 56.38 C 51.57 57.22 50.44 59.01 49.84 60.83 C 47.85 66.64 47.42 72.89 47.83 78.99 C 48.04 80.83 47.96 83.14 49.80 84.22 C 53.60 86.96 58.24 88.08 62.69 89.30 C 72.29 91.62 82.11 93.01 91.95 93.81 C 95.10 93.74 99.61 94.84 101.22 91.20 C 104.21 84.57 106.80 77.30 105.98 69.92 C 105.93 68.14 104.58 66.66 102.94 66.14 C 91.75 62.00 80.02 59.59 68.30 57.50 C 63.37 56.85 58.33 55.47 53.35 56.38 Z" />
<path fill="#e3ac14" opacity="1.00" d=" M 24.96 126.68 C 27.58 125.90 30.33 125.84 33.03 126.15 C 51.46 127.78 70.21 130.16 87.32 137.63 C 94.03 140.72 101.02 144.74 104.40 151.64 C 108.73 159.31 106.59 169.45 100.79 175.74 C 93.24 183.08 82.10 184.51 72.03 184.07 C 53.83 183.17 35.81 177.25 20.74 166.97 C 19.19 153.46 21.76 139.79 24.96 126.68 M 28.17 131.10 C 23.86 137.86 22.84 146.22 21.94 154.04 C 22.01 157.71 21.12 162.83 24.93 164.98 C 36.28 171.30 49.09 174.85 62.02 175.90 C 69.89 176.33 78.37 175.61 85.03 170.97 C 89.93 167.28 93.54 161.27 93.00 154.99 C 92.12 149.83 88.14 145.83 83.86 143.16 C 73.68 136.80 61.75 134.19 50.06 132.22 C 42.83 131.28 35.45 130.08 28.17 131.10 Z" />
</g>
<g id="#d9950cff">
<path fill="#d9950c" opacity="1.00" d=" M 57.49 50.84 C 71.18 51.05 84.67 54.29 97.98 57.29 C 103.89 59.04 110.35 59.92 115.54 63.38 C 116.80 67.12 116.87 71.12 116.93 75.04 C 116.99 81.74 116.58 88.54 114.80 95.03 C 114.10 97.20 113.29 99.78 111.05 100.80 C 104.67 101.57 98.26 100.49 91.96 99.57 C 80.88 97.76 69.90 95.41 59.04 92.60 C 58.74 92.43 58.15 92.09 57.86 91.93 C 62.32 91.93 66.57 93.42 70.91 94.25 C 78.20 95.75 85.53 97.07 92.93 97.88 C 96.84 98.16 100.90 98.66 104.72 97.55 C 106.46 96.13 107.12 93.85 107.82 91.80 C 109.83 85.05 110.76 78.00 111.03 70.97 C 110.96 68.67 111.30 65.35 108.54 64.48 C 95.14 59.23 81.02 56.13 66.97 53.14 C 63.77 52.54 60.50 52.15 57.49 50.84 Z" />
<path fill="#d9950c" opacity="1.00" d=" M 26.90 121.83 C 50.55 120.44 73.39 127.91 96.30 132.55 C 101.16 133.73 106.14 134.46 110.93 135.94 C 114.08 136.98 114.88 140.51 115.60 143.35 L 115.63 143.68 C 115.65 157.44 116.83 171.51 112.88 184.91 C 112.01 187.69 111.57 191.84 107.94 192.20 C 84.46 194.85 60.46 190.01 39.23 179.84 C 33.76 177.15 28.34 174.27 23.46 170.59 C 22.21 169.67 21.15 168.50 20.74 166.97 C 35.81 177.25 53.83 183.17 72.03 184.07 C 82.10 184.51 93.24 183.08 100.79 175.74 C 106.59 169.45 108.73 159.31 104.40 151.64 C 101.02 144.74 94.03 140.72 87.32 137.63 C 70.21 130.16 51.46 127.78 33.03 126.15 C 30.33 125.84 27.58 125.90 24.96 126.68 C 25.50 125.03 26.13 123.40 26.90 121.83 Z" />
</g>
<g id="#f1c820ff">
<path fill="#f1c820" opacity="1.00" d=" M 53.35 56.38 C 58.33 55.47 63.37 56.85 68.30 57.50 C 80.02 59.59 91.75 62.00 102.94 66.14 C 104.58 66.66 105.93 68.14 105.98 69.92 C 106.80 77.30 104.21 84.57 101.22 91.20 C 99.61 94.84 95.10 93.74 91.95 93.81 C 82.11 93.01 72.29 91.62 62.69 89.30 C 58.24 88.08 53.60 86.96 49.80 84.22 C 47.96 83.14 48.04 80.83 47.83 78.99 C 47.42 72.89 47.85 66.64 49.84 60.83 C 50.44 59.01 51.57 57.22 53.35 56.38 Z" />
<path fill="#f1c820" opacity="1.00" d=" M 28.17 131.10 C 35.45 130.08 42.83 131.28 50.06 132.22 C 61.75 134.19 73.68 136.80 83.86 143.16 C 88.14 145.83 92.12 149.83 93.00 154.99 C 93.54 161.27 89.93 167.28 85.03 170.97 C 78.37 175.61 69.89 176.33 62.02 175.90 C 49.09 174.85 36.28 171.30 24.93 164.98 C 21.12 162.83 22.01 157.71 21.94 154.04 C 22.84 146.22 23.86 137.86 28.17 131.10 Z" />
</g>
<g id="#242a2987">
<path fill="#242a29" opacity="0.53" d=" M 180.09 59.86 C 181.60 69.15 180.77 78.58 180.99 87.94 C 180.90 91.31 180.49 94.67 180.10 98.02 C 179.82 92.02 180.11 86.02 180.75 80.05 C 180.54 73.32 179.64 66.61 180.09 59.86 Z" />
</g>
<g id="#42580cff">
<path fill="#42580c" opacity="1.00" d=" M 145.25 69.29 C 147.42 69.91 147.47 72.45 146.23 73.98 L 145.83 73.71 C 145.67 72.23 145.49 70.75 145.25 69.29 Z" />
</g>
<g id="#3a92a5ff">
<path fill="#3a92a5" opacity="1.00" d=" M 145.83 73.71 L 146.23 73.98 C 146.36 74.49 146.62 75.53 146.76 76.05 C 146.88 78.42 146.91 80.81 147.27 83.16 C 147.36 83.75 147.52 84.92 147.60 85.50 C 148.26 91.92 147.93 98.38 147.98 104.81 L 147.08 104.79 C 147.60 94.41 146.77 84.03 145.83 73.71 Z" />
</g>
<g id="#4b6839ff">
<path fill="#4b6839" opacity="1.00" d=" M 143.43 75.47 C 144.28 80.81 144.58 86.22 144.76 91.62 C 143.71 90.31 143.06 88.76 143.05 87.07 C 142.79 83.21 142.22 79.24 143.43 75.47 Z" />
</g>
<g id="#43560dff">
<path fill="#43560d" opacity="1.00" d=" M 146.76 76.05 C 149.02 77.79 148.65 80.98 147.27 83.16 C 146.91 80.81 146.88 78.42 146.76 76.05 Z" />
</g>
<g id="#7acc60ff">
<path fill="#7acc60" opacity="1.00" d=" M 37.23 80.06 C 40.90 82.93 37.96 90.77 43.24 92.63 C 56.19 96.52 69.53 98.99 82.62 102.40 C 87.54 103.73 92.65 104.57 97.31 106.69 C 97.44 107.03 97.70 107.69 97.83 108.02 C 97.03 113.62 94.93 119.09 91.84 123.82 C 88.98 125.68 85.18 124.69 81.94 124.83 C 66.67 123.49 51.01 122.13 36.71 116.25 C 33.66 113.10 34.40 108.02 34.27 103.97 C 34.94 95.99 34.93 87.78 37.23 80.06 Z" />
</g>
<g id="#425703ff">
<path fill="#425703" opacity="1.00" d=" M 147.60 85.50 C 148.31 86.90 149.05 88.33 148.95 89.95 C 149.14 94.94 148.93 99.93 149.14 104.92 L 147.98 104.81 C 147.93 98.38 148.26 91.92 147.60 85.50 Z" />
</g>
<g id="#7b7532ff">
<path fill="#7b7532" opacity="1.00" d=" M 144.86 104.87 C 145.41 104.85 146.53 104.81 147.08 104.79 L 147.98 104.81 L 149.14 104.92 C 149.65 105.05 150.69 105.30 151.20 105.43 C 151.38 107.76 151.49 110.09 151.48 112.43 C 150.82 112.55 149.49 112.79 148.83 112.91 C 149.33 112.60 150.33 111.98 150.83 111.66 C 150.91 109.57 150.77 107.48 150.42 105.41 C 148.18 105.41 145.97 105.72 143.76 106.03 L 144.86 104.87 Z" />
</g>
<g id="#f1d229ff">
<path fill="#f1d229" opacity="1.00" d=" M 142.40 113.91 C 142.66 111.40 140.13 106.76 143.76 106.03 C 145.97 105.72 148.18 105.41 150.42 105.41 C 150.77 107.48 150.91 109.57 150.83 111.66 C 150.33 111.98 149.33 112.60 148.83 112.91 C 148.52 113.00 147.90 113.17 147.60 113.25 C 145.89 113.61 144.15 114.32 142.40 113.91 Z" />
</g>
</svg>
