<?xml version="1.0" encoding="UTF-8" ?>
<!DOCTYPE svg PUBLIC "-//W3C//DTD SVG 1.1//EN" "http://www.w3.org/Graphics/SVG/1.1/DTD/svg11.dtd">
<svg width="200pt" height="200pt" viewBox="0 0 200 200" version="1.1" xmlns="http://www.w3.org/2000/svg">
<g id="#31556efc">
<path fill="#31556e" opacity="1.00" d=" M 54.80 88.06 C 59.37 74.51 71.98 64.27 86.03 62.05 C 99.27 60.05 114.70 64.80 121.40 77.13 C 124.08 82.83 125.71 89.20 124.68 95.51 C 123.29 105.95 115.55 115.94 104.90 117.99 C 97.27 119.43 88.36 118.06 82.88 112.12 C 77.53 106.36 76.50 96.14 82.40 90.41 C 86.61 85.75 94.66 85.53 99.14 89.87 C 100.97 91.75 101.41 94.45 102.21 96.85 C 100.59 93.02 98.55 88.51 93.87 87.91 C 85.52 85.79 78.01 94.87 80.15 102.83 C 81.67 113.26 93.61 118.01 103.00 116.08 C 115.06 114.28 123.14 101.67 122.19 89.97 C 121.42 80.69 115.57 71.86 106.96 68.10 C 97.21 63.82 85.41 63.90 75.95 68.95 C 69.80 72.14 64.47 76.99 60.93 82.97 C 57.41 88.89 56.29 96.00 56.81 102.80 C 56.96 111.00 60.34 119.04 66.28 124.73 C 76.71 135.23 93.38 137.59 107.08 132.97 C 110.00 132.13 113.11 130.29 116.13 131.83 C 122.52 134.48 129.59 135.72 136.43 134.34 C 139.98 133.68 143.49 131.85 147.16 132.82 C 155.92 134.64 165.13 135.06 173.86 132.88 C 176.56 132.21 179.67 130.22 179.36 127.05 C 178.88 124.43 177.40 122.16 176.06 119.91 C 178.34 121.62 180.42 124.01 180.51 127.01 C 180.87 130.42 177.88 133.01 174.92 133.99 C 164.92 137.25 154.21 136.26 144.01 134.68 C 136.16 137.63 127.40 138.46 119.33 135.82 C 116.55 135.06 113.63 133.21 110.77 134.76 C 99.78 139.03 87.03 139.76 76.08 134.98 C 74.46 134.39 72.78 133.14 71.02 134.02 C 61.58 137.41 51.17 137.22 41.44 135.22 C 34.14 133.47 26.50 130.36 22.09 123.95 C 17.63 117.22 19.23 108.05 23.83 101.82 C 30.83 92.12 43.22 88.00 54.80 88.06 M 21.43 110.87 C 21.05 114.62 20.94 118.67 22.94 122.03 C 26.16 127.67 32.37 130.77 38.40 132.51 C 48.40 135.19 59.28 135.29 69.11 131.80 C 66.17 128.83 63.05 126.05 60.18 123.01 C 57.89 119.02 55.58 114.96 54.52 110.44 C 52.79 104.13 53.37 97.51 54.06 91.09 C 40.62 89.95 25.18 97.04 21.43 110.87 Z" />
<path fill="#31556e" opacity="1.00" d=" M 122.56 76.81 C 132.18 71.96 144.35 78.16 148.38 87.64 C 153.89 86.72 159.89 88.00 163.78 92.21 C 169.73 97.69 170.65 107.42 166.16 114.08 C 166.78 109.96 167.49 105.64 166.34 101.55 C 164.56 96.14 159.74 91.52 153.97 90.83 C 149.49 90.15 144.46 92.85 143.48 97.46 C 142.31 101.21 145.10 105.60 149.10 105.77 C 152.40 106.27 155.80 102.27 153.72 99.26 C 152.23 98.58 150.63 98.21 149.07 97.76 C 151.06 97.83 153.54 97.16 154.92 99.06 C 156.61 101.65 155.50 105.33 152.90 106.88 C 148.14 110.12 140.94 106.35 140.39 100.74 C 139.40 96.12 142.41 92.16 145.16 88.83 C 142.25 79.68 131.82 73.92 122.56 76.81 Z" />
</g>
<g id="#daf9feff">
<path fill="#daf9fe" opacity="1.00" d=" M 75.95 68.95 C 85.41 63.90 97.21 63.82 106.96 68.10 C 115.57 71.86 121.42 80.69 122.19 89.97 C 123.14 101.67 115.06 114.28 103.00 116.08 C 93.61 118.01 81.67 113.26 80.15 102.83 C 78.01 94.87 85.52 85.79 93.87 87.91 C 98.55 88.51 100.59 93.02 102.21 96.85 C 101.41 94.45 100.97 91.75 99.14 89.87 C 94.66 85.53 86.61 85.75 82.40 90.41 C 76.50 96.14 77.53 106.36 82.88 112.12 C 88.36 118.06 97.27 119.43 104.90 117.99 C 115.55 115.94 123.29 105.95 124.68 95.51 C 125.71 89.20 124.08 82.83 121.40 77.13 L 122.56 76.81 C 131.82 73.92 142.25 79.68 145.16 88.83 C 142.41 92.16 139.40 96.12 140.39 100.74 C 140.94 106.35 148.14 110.12 152.90 106.88 C 155.50 105.33 156.61 101.65 154.92 99.06 C 153.54 97.16 151.06 97.83 149.07 97.76 C 150.63 98.21 152.23 98.58 153.72 99.26 C 155.80 102.27 152.40 106.27 149.10 105.77 C 145.10 105.60 142.31 101.21 143.48 97.46 C 144.46 92.85 149.49 90.15 153.97 90.83 C 159.74 91.52 164.56 96.14 166.34 101.55 C 167.49 105.64 166.78 109.96 166.16 114.08 C 165.72 114.64 164.83 115.77 164.38 116.33 C 163.55 116.90 162.68 117.42 161.81 117.94 C 164.99 117.93 168.34 117.39 171.39 118.53 C 174.22 119.48 174.86 123.13 173.80 125.59 C 172.08 128.65 168.20 129.02 165.06 129.17 C 158.89 129.56 152.85 128.13 146.82 127.10 C 144.02 126.54 141.37 127.83 138.79 128.68 C 132.85 130.92 126.20 130.51 120.18 128.80 C 116.53 127.78 113.68 125.08 110.17 123.79 C 106.50 124.70 103.17 126.68 99.43 127.36 C 87.71 129.61 74.92 126.01 66.33 117.68 C 62.04 113.53 59.57 107.99 56.81 102.80 C 56.29 96.00 57.41 88.89 60.93 82.97 C 64.47 76.99 69.80 72.14 75.95 68.95 Z" />
<path fill="#daf9fe" opacity="1.00" d=" M 21.43 110.87 C 25.18 97.04 40.62 89.95 54.06 91.09 C 53.37 97.51 52.79 104.13 54.52 110.44 C 55.58 114.96 57.89 119.02 60.18 123.01 C 51.93 127.17 41.91 128.55 33.27 124.74 C 27.58 122.25 21.32 117.78 21.43 110.87 Z" />
</g>
<g id="#add5ddff">
<path fill="#add5dd" opacity="1.00" d=" M 56.81 102.80 C 59.57 107.99 62.04 113.53 66.33 117.68 C 74.92 126.01 87.71 129.61 99.43 127.36 C 103.17 126.68 106.50 124.70 110.17 123.79 C 113.68 125.08 116.53 127.78 120.18 128.80 C 126.20 130.51 132.85 130.92 138.79 128.68 C 141.37 127.83 144.02 126.54 146.82 127.10 C 152.85 128.13 158.89 129.56 165.06 129.17 C 168.20 129.02 172.08 128.65 173.80 125.59 C 174.86 123.13 174.22 119.48 171.39 118.53 C 168.34 117.39 164.99 117.93 161.81 117.94 C 162.68 117.42 163.55 116.90 164.38 116.33 C 168.40 116.98 172.83 117.06 176.06 119.91 C 177.40 122.16 178.88 124.43 179.36 127.05 C 179.67 130.22 176.56 132.21 173.86 132.88 C 165.13 135.06 155.92 134.64 147.16 132.82 C 143.49 131.85 139.98 133.68 136.43 134.34 C 129.59 135.72 122.52 134.48 116.13 131.83 C 113.11 130.29 110.00 132.13 107.08 132.97 C 93.38 137.59 76.71 135.23 66.28 124.73 C 60.34 119.04 56.96 111.00 56.81 102.80 Z" />
<path fill="#add5dd" opacity="1.00" d=" M 22.94 122.03 C 20.94 118.67 21.05 114.62 21.43 110.87 C 21.32 117.78 27.58 122.25 33.27 124.74 C 41.91 128.55 51.93 127.17 60.18 123.01 C 63.05 126.05 66.17 128.83 69.11 131.80 C 59.28 135.29 48.40 135.19 38.40 132.51 C 32.37 130.77 26.16 127.67 22.94 122.03 Z" />
</g>
</svg>
