<?xml version="1.0" encoding="UTF-8" ?>
<!DOCTYPE svg PUBLIC "-//W3C//DTD SVG 1.1//EN" "http://www.w3.org/Graphics/SVG/1.1/DTD/svg11.dtd">
<svg width="200pt" height="200pt" viewBox="0 0 200 200" version="1.1" xmlns="http://www.w3.org/2000/svg">
<g id="#fee696ff">
<path fill="#fee696" opacity="1.00" d=" M 126.53 46.50 C 131.22 44.16 136.41 46.31 140.89 48.10 C 153.87 53.68 166.01 62.36 173.47 74.56 C 179.49 84.00 181.32 95.34 181.36 106.36 C 178.35 106.28 175.32 106.33 172.37 105.62 C 166.99 104.25 161.46 105.61 156.01 105.33 C 148.26 105.30 140.58 104.29 132.94 103.09 C 125.66 101.99 118.31 102.68 111.01 103.08 C 100.80 103.21 90.52 106.08 80.37 103.67 C 73.14 101.80 65.63 101.98 58.23 101.54 C 49.60 101.02 40.79 102.03 32.35 99.74 C 30.76 99.42 29.52 98.33 28.33 97.30 C 37.78 91.38 48.21 87.30 57.92 81.85 C 61.14 79.45 66.10 81.12 68.65 77.67 C 71.31 74.03 75.83 72.73 79.59 70.58 C 85.92 67.59 91.95 64.02 98.31 61.11 C 99.64 60.27 101.44 60.04 102.75 61.05 C 106.30 63.89 112.30 65.51 115.66 61.55 C 116.10 58.58 114.68 55.78 113.79 53.03 C 117.92 50.63 122.29 48.69 126.53 46.50 M 140.37 62.44 C 137.61 62.83 134.81 63.99 133.06 66.25 C 132.75 67.60 132.68 69.25 134.22 69.85 C 138.35 72.23 143.61 71.51 147.89 69.88 C 149.65 68.98 152.21 67.62 151.77 65.27 C 149.35 61.60 144.19 62.13 140.37 62.44 M 78.44 78.38 C 74.32 79.81 74.94 85.80 78.07 87.98 C 84.58 93.43 96.27 93.63 101.72 86.60 C 103.32 82.77 98.84 81.02 96.01 80.03 C 90.41 78.28 84.22 76.52 78.44 78.38 M 143.37 85.42 C 138.11 85.52 136.18 92.13 139.16 95.88 C 141.86 99.91 147.50 100.06 151.66 98.58 C 154.76 97.29 157.93 94.00 156.64 90.39 C 153.07 87.24 148.14 85.30 143.37 85.42 Z" />
<path fill="#fee696" opacity="1.00" d=" M 105.82 117.02 C 106.72 112.99 110.19 109.75 114.23 108.97 L 113.62 109.64 C 110.91 112.14 107.42 114.82 107.83 118.98 C 107.52 122.57 110.34 125.08 112.62 127.40 L 113.25 128.07 C 108.40 127.09 104.84 121.91 105.82 117.02 Z" />
<path fill="#fee696" opacity="1.00" d=" M 49.90 133.92 C 51.33 131.25 54.33 129.79 57.30 129.86 L 56.57 130.50 C 54.57 132.17 51.72 133.41 51.12 136.20 C 50.35 138.72 51.94 141.00 52.91 143.20 C 49.08 142.12 47.95 137.07 49.90 133.92 Z" />
</g>
<g id="#f1b32fff">
<path fill="#f1b32f" opacity="1.00" d=" M 102.75 61.05 C 107.31 59.77 110.74 56.48 113.79 53.03 C 114.68 55.78 116.10 58.58 115.66 61.55 C 112.30 65.51 106.30 63.89 102.75 61.05 Z" />
<path fill="#f1b32f" opacity="1.00" d=" M 140.37 62.44 C 144.19 62.13 149.35 61.60 151.77 65.27 C 152.21 67.62 149.65 68.98 147.89 69.88 C 143.61 71.51 138.35 72.23 134.22 69.85 C 132.68 69.25 132.75 67.60 133.06 66.25 C 134.81 63.99 137.61 62.83 140.37 62.44 Z" />
<path fill="#f1b32f" opacity="1.00" d=" M 78.44 78.38 C 84.22 76.52 90.41 78.28 96.01 80.03 C 98.84 81.02 103.32 82.77 101.72 86.60 C 96.27 93.63 84.58 93.43 78.07 87.98 C 74.94 85.80 74.32 79.81 78.44 78.38 Z" />
<path fill="#f1b32f" opacity="1.00" d=" M 143.37 85.42 C 148.14 85.30 153.07 87.24 156.64 90.39 C 157.93 94.00 154.76 97.29 151.66 98.58 C 147.50 100.06 141.86 99.91 139.16 95.88 C 136.18 92.13 138.11 85.52 143.37 85.42 Z" />
<path fill="#f1b32f" opacity="1.00" d=" M 35.42 108.39 C 39.22 107.40 42.79 112.89 39.73 115.71 C 37.56 117.72 32.56 117.66 31.66 114.29 C 30.23 111.62 32.76 108.73 35.42 108.39 Z" />
<path fill="#f1b32f" opacity="1.00" d=" M 113.62 109.64 C 118.07 108.55 123.14 108.23 127.12 110.93 C 132.46 114.39 132.41 123.55 126.78 126.72 C 122.60 129.76 117.21 128.77 112.62 127.40 C 110.34 125.08 107.52 122.57 107.83 118.98 C 107.42 114.82 110.91 112.14 113.62 109.64 Z" />
<path fill="#f1b32f" opacity="1.00" d=" M 91.43 121.47 C 94.26 120.89 97.53 121.17 99.66 123.34 C 102.88 125.58 102.56 131.18 99.14 133.10 C 95.29 136.50 88.82 134.19 86.87 129.84 C 85.66 126.25 88.24 122.84 91.43 121.47 Z" />
<path fill="#f1b32f" opacity="1.00" d=" M 56.57 130.50 C 61.27 129.84 66.19 130.22 70.31 132.78 C 72.91 133.83 74.42 136.86 73.55 139.55 C 70.80 143.93 65.30 146.32 60.21 145.62 C 57.68 145.14 55.37 143.92 52.91 143.20 C 51.94 141.00 50.35 138.72 51.12 136.20 C 51.72 133.41 54.57 132.17 56.57 130.50 Z" />
<path fill="#f1b32f" opacity="1.00" d=" M 150.01 137.81 C 152.95 136.14 155.94 138.27 157.33 140.88 C 156.36 142.39 155.49 143.99 154.22 145.28 C 152.65 146.13 150.77 145.68 149.09 145.52 C 147.77 143.11 146.69 139.14 150.01 137.81 Z" />
</g>
<g id="#ffdb61ff">
<path fill="#ffdb61" opacity="1.00" d=" M 24.02 114.97 C 25.14 109.02 26.00 102.93 28.33 97.30 C 29.52 98.33 30.76 99.42 32.35 99.74 C 40.79 102.03 49.60 101.02 58.23 101.54 C 65.63 101.98 73.14 101.80 80.37 103.67 C 90.52 106.08 100.80 103.21 111.01 103.08 C 118.31 102.68 125.66 101.99 132.94 103.09 C 140.58 104.29 148.26 105.30 156.01 105.33 C 161.46 105.61 166.99 104.25 172.37 105.62 C 175.32 106.33 178.35 106.28 181.36 106.36 L 180.77 106.58 C 179.34 107.03 177.84 107.16 176.35 107.28 C 175.19 112.79 173.80 118.33 174.03 124.01 C 174.12 130.46 173.00 138.32 167.05 142.03 C 164.03 143.26 159.26 144.35 157.33 140.88 C 155.94 138.27 152.95 136.14 150.01 137.81 C 146.69 139.14 147.77 143.11 149.09 145.52 C 146.36 144.60 143.49 144.01 140.60 144.49 C 133.57 145.43 126.45 144.62 119.41 145.46 C 112.72 146.32 105.95 145.65 99.25 146.38 C 88.40 147.30 77.49 147.75 66.75 149.65 C 54.08 150.88 40.45 148.13 28.64 154.18 C 25.42 154.77 22.09 154.36 18.83 154.26 C 19.63 141.07 22.08 128.03 24.02 114.97 M 35.42 108.39 C 32.76 108.73 30.23 111.62 31.66 114.29 C 32.56 117.66 37.56 117.72 39.73 115.71 C 42.79 112.89 39.22 107.40 35.42 108.39 M 105.82 117.02 C 104.84 121.91 108.40 127.09 113.25 128.07 L 112.62 127.40 C 117.21 128.77 122.60 129.76 126.78 126.72 C 132.41 123.55 132.46 114.39 127.12 110.93 C 123.14 108.23 118.07 108.55 113.62 109.64 L 114.23 108.97 C 110.19 109.75 106.72 112.99 105.82 117.02 M 91.43 121.47 C 88.24 122.84 85.66 126.25 86.87 129.84 C 88.82 134.19 95.29 136.50 99.14 133.10 C 102.56 131.18 102.88 125.58 99.66 123.34 C 97.53 121.17 94.26 120.89 91.43 121.47 M 49.90 133.92 C 47.95 137.07 49.08 142.12 52.91 143.20 C 55.37 143.92 57.68 145.14 60.21 145.62 C 65.30 146.32 70.80 143.93 73.55 139.55 C 74.42 136.86 72.91 133.83 70.31 132.78 C 66.19 130.22 61.27 129.84 56.57 130.50 L 57.30 129.86 C 54.33 129.79 51.33 131.25 49.90 133.92 Z" />
</g>
<g id="#fdd349ff">
<path fill="#fdd349" opacity="1.00" d=" M 176.35 107.28 C 177.84 107.16 179.34 107.03 180.77 106.58 C 181.72 111.03 180.19 115.50 180.55 120.00 C 179.59 130.25 179.60 140.63 177.68 150.78 C 155.38 155.10 132.52 152.21 110.02 153.91 C 94.01 154.09 77.97 153.27 62.00 154.47 C 50.89 154.28 39.75 154.76 28.64 154.18 C 40.45 148.13 54.08 150.88 66.75 149.65 C 77.49 147.75 88.40 147.30 99.25 146.38 C 105.95 145.65 112.72 146.32 119.41 145.46 C 126.45 144.62 133.57 145.43 140.60 144.49 C 143.49 144.01 146.36 144.60 149.09 145.52 C 150.77 145.68 152.65 146.13 154.22 145.28 C 155.49 143.99 156.36 142.39 157.33 140.88 C 159.26 144.35 164.03 143.26 167.05 142.03 C 173.00 138.32 174.12 130.46 174.03 124.01 C 173.80 118.33 175.19 112.79 176.35 107.28 Z" />
</g>
</svg>
