<?xml version="1.0" encoding="UTF-8" ?>
<!DOCTYPE svg PUBLIC "-//W3C//DTD SVG 1.1//EN" "http://www.w3.org/Graphics/SVG/1.1/DTD/svg11.dtd">
<svg width="200pt" height="200pt" viewBox="0 0 200 200" version="1.1" xmlns="http://www.w3.org/2000/svg">
<g id="#227a0afe">
<path fill="#227a0a" opacity="1.00" d=" M 108.12 4.08 C 109.58 4.73 111.41 5.35 111.62 7.22 C 111.17 10.82 109.46 14.11 108.59 17.61 C 106.58 24.12 105.96 30.92 104.55 37.56 C 102.49 37.62 100.51 37.09 98.75 36.03 C 99.47 32.29 100.07 28.52 100.54 24.73 C 94.06 28.80 88.30 33.93 82.76 39.17 C 82.12 39.81 81.47 40.46 80.84 41.11 C 85.12 43.57 90.05 45.16 93.29 49.09 C 88.98 46.96 84.86 44.40 80.30 42.78 C 81.19 50.54 84.29 58.00 83.95 65.90 C 83.91 71.70 83.81 77.57 82.24 83.21 C 82.37 77.04 83.33 70.87 82.61 64.71 C 81.80 57.43 80.79 50.14 78.83 43.07 C 69.87 49.77 63.55 59.32 54.67 66.10 C 60.52 56.90 69.40 50.28 76.31 41.97 C 69.25 39.06 61.50 39.81 54.05 39.88 C 47.64 39.80 41.96 43.05 36.02 44.96 C 43.66 39.96 53.00 38.08 62.03 37.99 C 67.54 37.78 72.71 40.03 78.11 40.72 C 75.16 34.20 70.30 28.34 63.79 25.17 C 59.75 23.16 55.07 23.52 50.86 22.09 C 55.21 22.06 59.48 23.09 63.82 23.29 C 66.73 23.23 67.96 26.55 70.11 28.01 C 74.06 31.10 76.42 35.57 79.32 39.55 C 83.62 38.03 86.58 34.43 88.99 30.73 C 91.67 26.85 95.62 24.17 99.16 21.15 C 104.70 16.99 102.96 8.60 108.12 4.08 Z" />
</g>
<g id="#6bbf35ff">
<path fill="#6bbf35" opacity="1.00" d=" M 57.91 13.92 C 61.80 11.44 66.76 10.85 71.18 12.01 C 76.27 14.24 80.82 18.57 82.14 24.11 C 82.29 27.57 79.96 30.53 79.34 33.87 C 79.70 35.10 80.46 36.17 81.06 37.29 C 83.77 35.19 86.15 32.67 88.99 30.73 C 86.58 34.43 83.62 38.03 79.32 39.55 C 76.42 35.57 74.06 31.10 70.11 28.01 C 67.96 26.55 66.73 23.23 63.82 23.29 C 59.48 23.09 55.21 22.06 50.86 22.09 C 55.07 23.52 59.75 23.16 63.79 25.17 C 70.30 28.34 75.16 34.20 78.11 40.72 C 72.71 40.03 67.54 37.78 62.03 37.99 C 53.00 38.08 43.66 39.96 36.02 44.96 C 41.96 43.05 47.64 39.80 54.05 39.88 C 61.50 39.81 69.25 39.06 76.31 41.97 C 69.40 50.28 60.52 56.90 54.67 66.10 C 63.55 59.32 69.87 49.77 78.83 43.07 C 80.79 50.14 81.80 57.43 82.61 64.71 C 83.33 70.87 82.37 77.04 82.24 83.21 C 83.81 77.57 83.91 71.70 83.95 65.90 C 84.29 58.00 81.19 50.54 80.30 42.78 C 84.86 44.40 88.98 46.96 93.29 49.09 C 90.05 45.16 85.12 43.57 80.84 41.11 C 81.47 40.46 82.12 39.81 82.76 39.17 C 84.55 39.61 86.39 40.85 88.27 40.15 C 91.78 38.84 95.11 37.04 98.75 36.03 C 100.51 37.09 102.49 37.62 104.55 37.56 L 104.88 37.84 C 105.15 38.07 105.70 38.53 105.97 38.76 C 107.88 40.94 109.95 43.03 111.38 45.58 C 112.57 48.11 112.78 50.95 113.26 53.67 C 111.17 57.97 109.64 62.53 107.29 66.71 C 105.96 68.84 104.18 70.62 102.22 72.16 C 101.75 71.04 101.27 69.93 100.77 68.82 C 99.63 66.25 97.61 64.26 95.19 62.89 C 95.16 66.22 95.53 69.53 95.89 72.84 L 95.75 73.58 C 95.50 74.94 95.24 76.29 94.93 77.64 C 91.70 83.68 85.20 86.49 79.23 89.07 C 78.48 86.53 77.53 84.06 76.36 81.69 C 73.68 76.94 76.78 70.29 71.98 66.62 C 70.38 71.19 73.02 77.20 68.91 80.72 C 65.89 81.77 62.65 81.85 59.53 82.44 C 58.27 82.63 57.01 82.84 55.75 83.05 C 51.00 84.15 46.10 81.50 41.49 83.75 C 41.65 81.20 41.56 78.63 40.96 76.14 C 39.51 70.70 40.89 65.03 39.68 59.55 C 38.94 57.28 41.30 55.95 42.91 54.96 C 46.19 52.69 51.08 55.34 53.76 51.95 C 49.85 49.24 45.26 51.72 41.02 51.75 C 37.48 50.38 33.88 49.11 30.04 48.97 C 31.24 44.75 32.58 40.49 34.87 36.72 C 36.84 34.31 39.73 32.77 42.62 31.73 C 46.61 30.84 50.76 30.95 54.76 30.12 C 52.00 26.93 47.75 26.10 43.97 24.75 C 47.14 19.53 52.86 16.93 57.91 13.92 Z" />
</g>
<g id="#471682ff">
<path fill="#471682" opacity="1.00" d=" M 110.38 36.97 C 109.91 35.04 114.07 35.01 113.62 36.96 C 112.54 37.02 111.46 37.02 110.38 36.97 Z" />
<path fill="#471682" opacity="1.00" d=" M 143.33 51.65 C 149.04 54.96 151.30 62.36 149.58 68.54 C 148.79 72.31 145.77 74.88 143.42 77.70 C 146.42 80.55 149.75 83.67 149.91 88.12 C 151.69 96.43 145.26 105.06 136.91 106.07 C 134.42 106.28 133.50 108.35 133.14 110.54 C 132.07 113.42 130.98 116.51 128.62 118.61 C 126.45 120.47 123.92 121.81 121.50 123.29 C 122.26 124.34 123.01 125.38 123.71 126.47 C 124.91 128.29 125.51 130.65 127.29 132.02 C 132.13 132.33 136.46 128.87 139.04 125.03 C 142.28 120.22 141.15 114.18 140.35 108.82 C 148.23 113.83 149.35 126.10 142.42 132.39 C 138.35 136.90 132.10 137.70 126.38 138.08 C 126.14 139.24 125.84 140.39 125.48 141.53 C 124.22 143.30 122.85 144.99 121.40 146.59 C 116.98 150.54 111.02 151.04 105.38 151.16 C 105.58 153.85 105.82 156.53 106.10 159.22 C 105.17 161.17 104.27 163.14 103.23 165.04 C 100.13 168.43 96.08 170.79 91.74 172.22 C 90.92 172.38 90.09 172.51 89.25 172.61 C 85.12 171.93 80.55 171.06 77.66 167.72 C 84.48 167.16 92.62 167.22 97.11 161.09 C 100.91 157.05 100.25 151.31 99.55 146.28 C 104.29 146.00 109.59 146.71 113.62 143.65 C 119.03 140.08 122.60 133.03 120.48 126.63 C 119.66 123.51 115.83 124.27 113.41 123.47 C 111.67 123.12 109.94 122.70 108.21 122.28 C 104.45 126.23 99.93 129.28 94.79 131.14 C 92.22 133.29 93.11 137.09 92.46 140.04 C 90.76 139.89 89.06 139.64 87.40 139.26 C 87.82 136.71 89.16 134.07 88.63 131.50 C 86.69 129.71 84.30 128.53 82.23 126.90 C 81.92 126.61 81.30 126.02 80.99 125.73 C 85.21 125.85 89.56 126.08 93.61 124.69 C 97.15 123.51 99.45 120.38 102.48 118.39 C 106.51 117.80 110.57 119.43 114.61 118.67 C 120.73 117.42 126.00 112.52 127.43 106.40 C 128.00 102.95 127.55 99.45 127.47 95.97 C 129.32 97.75 131.22 99.46 133.14 101.16 C 141.82 98.57 147.22 88.02 143.34 79.63 C 141.40 78.31 139.14 79.82 137.08 80.03 C 133.58 80.17 130.10 79.86 126.61 79.67 C 125.83 83.96 124.61 88.25 121.68 91.61 C 117.97 91.62 114.22 92.09 110.75 93.47 C 109.91 94.17 109.09 94.90 108.33 95.69 C 107.45 96.79 106.64 97.94 105.78 99.06 C 104.36 100.65 102.96 102.25 101.46 103.76 C 100.05 104.32 98.61 104.78 97.14 105.16 C 93.48 105.31 89.78 105.28 86.16 104.64 C 85.84 104.38 85.18 103.87 84.86 103.61 C 83.17 103.56 81.61 104.24 80.07 104.83 C 79.78 103.27 79.36 101.75 78.97 100.22 C 83.75 100.20 88.85 101.60 93.38 99.46 C 97.55 97.54 101.40 94.28 102.92 89.83 C 104.15 85.91 103.55 81.75 103.32 77.73 C 105.07 79.47 106.73 81.32 108.17 83.33 C 108.83 85.80 109.05 88.53 110.96 90.43 C 113.41 89.20 116.02 87.94 117.59 85.58 C 119.62 82.57 120.55 79.00 121.89 75.66 C 126.28 75.32 131.01 76.30 135.06 74.12 C 139.19 72.04 143.02 68.61 144.12 63.96 C 145.24 59.87 144.08 55.69 143.33 51.65 Z" />
<path fill="#471682" opacity="1.00" d=" M 63.04 117.23 C 67.80 116.94 71.69 113.87 75.95 112.07 C 76.16 115.08 75.63 118.07 74.35 120.80 C 72.97 121.37 71.59 121.94 70.17 122.40 L 69.35 122.66 C 68.74 122.60 67.52 122.48 66.91 122.42 C 62.46 122.15 57.81 120.88 54.97 117.19 C 57.66 117.34 60.35 117.42 63.04 117.23 Z" />
<path fill="#471682" opacity="1.00" d=" M 129.13 144.87 C 131.02 144.82 131.90 146.87 132.84 148.18 C 136.06 153.30 135.60 160.17 132.12 165.04 C 129.93 168.40 126.12 170.02 122.84 172.09 C 122.51 176.53 123.27 181.50 120.25 185.24 C 114.88 193.57 102.27 195.16 94.76 188.80 C 99.71 188.00 104.98 187.90 109.50 185.51 C 113.43 183.07 116.76 178.90 117.04 174.16 C 115.91 171.59 112.57 171.36 110.36 170.06 C 109.12 169.31 107.93 168.49 106.76 167.65 C 113.13 167.12 120.57 167.43 125.25 162.24 C 129.96 157.78 129.32 150.77 129.13 144.87 Z" />
</g>
<g id="#591ba4ff">
<path fill="#591ba4" opacity="1.00" d=" M 104.88 37.84 C 106.67 37.35 108.50 36.89 110.38 36.97 C 111.46 37.02 112.54 37.02 113.62 36.96 C 120.71 36.64 126.30 42.25 128.59 48.53 C 133.65 48.42 139.21 48.14 143.33 51.65 C 144.08 55.69 145.24 59.87 144.12 63.96 C 143.02 68.61 139.19 72.04 135.06 74.12 C 131.01 76.30 126.28 75.32 121.89 75.66 C 120.55 79.00 119.62 82.57 117.59 85.58 C 116.02 87.94 113.41 89.20 110.96 90.43 C 109.05 88.53 108.83 85.80 108.17 83.33 C 110.19 81.65 112.57 80.03 113.42 77.42 C 114.45 74.42 114.09 70.61 111.66 68.38 C 110.30 67.59 108.76 67.21 107.29 66.71 C 109.64 62.53 111.17 57.97 113.26 53.67 C 115.39 50.42 117.70 46.35 115.52 42.51 C 113.78 38.86 109.35 39.15 105.97 38.76 C 105.70 38.53 105.15 38.07 104.88 37.84 M 124.13 52.75 C 123.67 53.14 122.75 53.92 122.30 54.32 C 118.82 57.60 117.58 63.95 121.80 67.17 C 129.29 72.82 141.04 62.56 136.71 54.34 C 134.33 49.68 127.83 49.80 124.13 52.75 Z" />
<path fill="#591ba4" opacity="1.00" d=" M 95.19 62.89 C 97.61 64.26 99.63 66.25 100.77 68.82 C 100.25 69.25 99.22 70.10 98.70 70.53 C 97.76 71.29 96.81 72.05 95.89 72.84 C 95.53 69.53 95.16 66.22 95.19 62.89 Z" />
<path fill="#591ba4" opacity="1.00" d=" M 95.75 73.58 C 98.42 74.67 101.09 75.86 103.32 77.73 C 103.55 81.75 104.15 85.91 102.92 89.83 C 101.40 94.28 97.55 97.54 93.38 99.46 C 88.85 101.60 83.75 100.20 78.97 100.22 C 79.36 101.75 79.78 103.27 80.07 104.83 C 79.56 108.69 77.34 113.25 80.40 116.62 C 84.18 120.58 90.90 119.05 94.25 115.27 C 97.05 112.69 96.84 108.63 97.14 105.16 C 98.61 104.78 100.05 104.32 101.46 103.76 C 102.72 106.78 103.64 110.93 107.37 111.74 C 114.96 113.99 123.31 105.40 120.10 97.97 C 118.53 94.31 114.12 94.13 110.75 93.47 C 114.22 92.09 117.97 91.62 121.68 91.61 C 123.52 93.08 125.40 95.12 127.98 94.88 C 131.71 94.51 134.83 91.72 136.58 88.54 C 138.05 85.93 137.35 82.84 137.08 80.03 C 139.14 79.82 141.40 78.31 143.34 79.63 C 147.22 88.02 141.82 98.57 133.14 101.16 C 131.22 99.46 129.32 97.75 127.47 95.97 C 127.55 99.45 128.00 102.95 127.43 106.40 C 126.00 112.52 120.73 117.42 114.61 118.67 C 110.57 119.43 106.51 117.80 102.48 118.39 C 99.45 120.38 97.15 123.51 93.61 124.69 C 89.56 126.08 85.21 125.85 80.99 125.73 C 79.13 123.66 76.87 122.00 74.35 120.80 C 75.63 118.07 76.16 115.08 75.95 112.07 C 71.69 113.87 67.80 116.94 63.04 117.23 C 60.35 117.42 57.66 117.34 54.97 117.19 C 49.49 112.82 48.43 104.09 52.26 98.27 C 53.82 95.60 56.39 93.77 58.70 91.80 C 57.53 88.95 56.33 86.09 55.75 83.05 C 57.01 82.84 58.27 82.63 59.53 82.44 C 61.22 84.49 62.95 87.28 66.02 86.98 C 70.25 87.41 73.47 84.28 76.36 81.69 C 77.53 84.06 78.48 86.53 79.23 89.07 C 79.71 92.69 83.62 94.24 86.88 93.84 C 91.36 93.35 95.11 89.70 96.47 85.52 C 97.38 82.80 95.81 80.15 94.93 77.64 C 95.24 76.29 95.50 74.94 95.75 73.58 M 57.94 94.64 C 57.47 95.06 56.54 95.90 56.07 96.32 C 51.59 99.86 52.00 108.19 57.73 110.25 C 65.09 112.56 73.46 104.68 71.05 97.12 C 69.26 91.83 61.73 91.01 57.94 94.64 Z" />
<path fill="#591ba4" opacity="1.00" d=" M 133.14 110.54 C 133.50 108.35 134.42 106.28 136.91 106.07 C 138.08 106.96 139.22 107.88 140.35 108.82 C 141.15 114.18 142.28 120.22 139.04 125.03 C 136.46 128.87 132.13 132.33 127.29 132.02 C 125.51 130.65 124.91 128.29 123.71 126.47 C 127.41 124.92 131.65 123.27 133.40 119.33 C 135.05 116.56 133.78 113.40 133.14 110.54 Z" />
<path fill="#591ba4" opacity="1.00" d=" M 66.91 122.42 C 67.52 122.48 68.74 122.60 69.35 122.66 C 69.01 123.00 68.32 123.69 67.98 124.03 C 64.93 126.84 62.47 131.25 64.50 135.37 C 66.89 140.85 74.86 140.16 78.68 136.63 C 81.70 134.34 82.07 130.40 82.23 126.90 C 84.30 128.53 86.69 129.71 88.63 131.50 C 89.16 134.07 87.82 136.71 87.40 139.26 C 89.06 139.64 90.76 139.89 92.46 140.04 C 93.11 137.09 92.22 133.29 94.79 131.14 C 95.89 133.84 96.48 137.37 99.44 138.70 C 105.06 141.07 111.82 137.22 113.49 131.55 C 114.06 128.89 113.58 126.15 113.41 123.47 C 115.83 124.27 119.66 123.51 120.48 126.63 C 122.60 133.03 119.03 140.08 113.62 143.65 C 109.59 146.71 104.29 146.00 99.55 146.28 C 100.25 151.31 100.91 157.05 97.11 161.09 C 92.62 167.22 84.48 167.16 77.66 167.72 L 77.00 167.77 C 73.00 163.26 71.08 157.14 72.63 151.22 C 69.12 148.48 64.41 146.74 62.62 142.32 C 59.16 135.69 61.23 127.13 66.91 122.42 M 81.36 143.47 C 80.32 144.43 79.27 145.35 78.19 146.25 C 73.43 149.55 74.12 158.54 80.09 160.03 C 87.44 162.10 95.23 154.52 93.11 147.12 C 91.83 142.11 85.32 140.89 81.36 143.47 Z" />
<path fill="#591ba4" opacity="1.00" d=" M 121.40 146.59 C 122.85 144.99 124.22 143.30 125.48 141.53 C 126.76 142.46 128.94 143.04 129.13 144.87 C 129.32 150.77 129.96 157.78 125.25 162.24 C 120.57 167.43 113.13 167.12 106.76 167.65 C 105.58 166.78 104.41 165.91 103.23 165.04 C 104.27 163.14 105.17 161.17 106.10 159.22 C 109.86 160.08 114.18 161.00 117.53 158.45 C 121.60 156.04 123.06 150.94 121.40 146.59 Z" />
<path fill="#591ba4" opacity="1.00" d=" M 110.36 170.06 C 112.57 171.36 115.91 171.59 117.04 174.16 C 116.76 178.90 113.43 183.07 109.50 185.51 C 104.98 187.90 99.71 188.00 94.76 188.80 C 89.88 185.17 88.17 178.43 89.25 172.61 C 90.09 172.51 90.92 172.38 91.74 172.22 C 92.27 174.72 92.29 177.82 94.67 179.39 C 98.57 182.22 104.24 180.70 107.32 177.34 C 109.32 175.44 109.71 172.60 110.36 170.06 Z" />
</g>
<g id="#9566ccff">
<path fill="#9566cc" opacity="1.00" d=" M 105.97 38.76 C 109.35 39.15 113.78 38.86 115.52 42.51 C 117.70 46.35 115.39 50.42 113.26 53.67 C 112.78 50.95 112.57 48.11 111.38 45.58 C 109.95 43.03 107.88 40.94 105.97 38.76 Z" />
<path fill="#9566cc" opacity="1.00" d=" M 124.13 52.75 C 127.83 49.80 134.33 49.68 136.71 54.34 C 141.04 62.56 129.29 72.82 121.80 67.17 C 117.58 63.95 118.82 57.60 122.30 54.32 C 123.51 57.15 126.03 54.83 127.16 53.29 C 126.40 53.15 124.88 52.88 124.13 52.75 Z" />
<path fill="#9566cc" opacity="1.00" d=" M 71.98 66.62 C 76.78 70.29 73.68 76.94 76.36 81.69 C 73.47 84.28 70.25 87.41 66.02 86.98 C 62.95 87.28 61.22 84.49 59.53 82.44 C 62.65 81.85 65.89 81.77 68.91 80.72 C 73.02 77.20 70.38 71.19 71.98 66.62 Z" />
<path fill="#9566cc" opacity="1.00" d=" M 107.29 66.71 C 108.76 67.21 110.30 67.59 111.66 68.38 C 114.09 70.61 114.45 74.42 113.42 77.42 C 112.57 80.03 110.19 81.65 108.17 83.33 C 106.73 81.32 105.07 79.47 103.32 77.73 C 101.09 75.86 98.42 74.67 95.75 73.58 L 95.89 72.84 C 96.81 72.05 97.76 71.29 98.70 70.53 C 99.87 71.09 101.04 71.63 102.22 72.16 C 104.18 70.62 105.96 68.84 107.29 66.71 Z" />
<path fill="#9566cc" opacity="1.00" d=" M 79.23 89.07 C 85.20 86.49 91.70 83.68 94.93 77.64 C 95.81 80.15 97.38 82.80 96.47 85.52 C 95.11 89.70 91.36 93.35 86.88 93.84 C 83.62 94.24 79.71 92.69 79.23 89.07 Z" />
<path fill="#9566cc" opacity="1.00" d=" M 126.61 79.67 C 130.10 79.86 133.58 80.17 137.08 80.03 C 137.35 82.84 138.05 85.93 136.58 88.54 C 134.83 91.72 131.71 94.51 127.98 94.88 C 125.40 95.12 123.52 93.08 121.68 91.61 C 124.61 88.25 125.83 83.96 126.61 79.67 Z" />
<path fill="#9566cc" opacity="1.00" d=" M 57.94 94.64 C 61.73 91.01 69.26 91.83 71.05 97.12 C 73.46 104.68 65.09 112.56 57.73 110.25 C 52.00 108.19 51.59 99.86 56.07 96.32 C 57.92 98.23 59.80 96.99 61.16 95.29 C 60.35 95.12 58.74 94.80 57.94 94.64 Z" />
<path fill="#9566cc" opacity="1.00" d=" M 108.33 95.69 C 109.09 94.90 109.91 94.17 110.75 93.47 C 114.12 94.13 118.53 94.31 120.10 97.97 C 123.31 105.40 114.96 113.99 107.37 111.74 C 103.64 110.93 102.72 106.78 101.46 103.76 C 102.96 102.25 104.36 100.65 105.78 99.06 C 107.15 98.47 108.55 97.93 109.94 97.39 C 109.54 96.96 108.73 96.11 108.33 95.69 Z" />
<path fill="#9566cc" opacity="1.00" d=" M 80.07 104.83 C 81.61 104.24 83.17 103.56 84.86 103.61 C 83.39 103.71 82.83 104.38 83.16 105.61 C 84.39 106.13 85.39 105.81 86.16 104.64 C 89.78 105.28 93.48 105.31 97.14 105.16 C 96.84 108.63 97.05 112.69 94.25 115.27 C 90.90 119.05 84.18 120.58 80.40 116.62 C 77.34 113.25 79.56 108.69 80.07 104.83 Z" />
<path fill="#9566cc" opacity="1.00" d=" M 133.14 110.54 C 133.78 113.40 135.05 116.56 133.40 119.33 C 131.65 123.27 127.41 124.92 123.71 126.47 C 123.01 125.38 122.26 124.34 121.50 123.29 C 123.92 121.81 126.45 120.47 128.62 118.61 C 130.98 116.51 132.07 113.42 133.14 110.54 Z" />
<path fill="#9566cc" opacity="1.00" d=" M 70.17 122.40 C 71.59 121.94 72.97 121.37 74.35 120.80 C 76.87 122.00 79.13 123.66 80.99 125.73 C 81.30 126.02 81.92 126.61 82.23 126.90 C 82.07 130.40 81.70 134.34 78.68 136.63 C 74.86 140.16 66.89 140.85 64.50 135.37 C 62.47 131.25 64.93 126.84 67.98 124.03 C 68.00 124.76 68.05 126.23 68.08 126.96 C 68.90 126.51 69.73 126.06 70.55 125.61 C 70.43 124.54 70.30 123.47 70.17 122.40 Z" />
<path fill="#9566cc" opacity="1.00" d=" M 94.79 131.14 C 99.93 129.28 104.45 126.23 108.21 122.28 C 109.94 122.70 111.67 123.12 113.41 123.47 C 113.58 126.15 114.06 128.89 113.49 131.55 C 111.82 137.22 105.06 141.07 99.44 138.70 C 96.48 137.37 95.89 133.84 94.79 131.14 Z" />
<path fill="#9566cc" opacity="1.00" d=" M 81.36 143.47 C 85.32 140.89 91.83 142.11 93.11 147.12 C 95.23 154.52 87.44 162.10 80.09 160.03 C 74.12 158.54 73.43 149.55 78.19 146.25 C 78.71 146.61 79.77 147.32 80.29 147.67 C 81.00 147.14 81.71 146.60 82.42 146.08 C 82.06 145.21 81.71 144.34 81.36 143.47 Z" />
<path fill="#9566cc" opacity="1.00" d=" M 105.38 151.16 C 111.02 151.04 116.98 150.54 121.40 146.59 C 123.06 150.94 121.60 156.04 117.53 158.45 C 114.18 161.00 109.86 160.08 106.10 159.22 C 105.82 156.53 105.58 153.85 105.38 151.16 Z" />
<path fill="#9566cc" opacity="1.00" d=" M 103.23 165.04 C 104.41 165.91 105.58 166.78 106.76 167.65 C 107.93 168.49 109.12 169.31 110.36 170.06 C 109.71 172.60 109.32 175.44 107.32 177.34 C 104.24 180.70 98.57 182.22 94.67 179.39 C 92.29 177.82 92.27 174.72 91.74 172.22 C 96.08 170.79 100.13 168.43 103.23 165.04 Z" />
</g>
<g id="#dbcaebff">
<path fill="#dbcaeb" opacity="1.00" d=" M 124.13 52.75 C 124.88 52.88 126.40 53.15 127.16 53.29 C 126.03 54.83 123.51 57.15 122.30 54.32 C 122.75 53.92 123.67 53.14 124.13 52.75 Z" />
<path fill="#dbcaeb" opacity="1.00" d=" M 98.70 70.53 C 99.22 70.10 100.25 69.25 100.77 68.82 C 101.27 69.93 101.75 71.04 102.22 72.16 C 101.04 71.63 99.87 71.09 98.70 70.53 Z" />
<path fill="#dbcaeb" opacity="1.00" d=" M 56.07 96.32 C 56.54 95.90 57.47 95.06 57.94 94.64 C 58.74 94.80 60.35 95.12 61.16 95.29 C 59.80 96.99 57.92 98.23 56.07 96.32 Z" />
<path fill="#dbcaeb" opacity="1.00" d=" M 105.78 99.06 C 106.64 97.94 107.45 96.79 108.33 95.69 C 108.73 96.11 109.54 96.96 109.94 97.39 C 108.55 97.93 107.15 98.47 105.78 99.06 Z" />
<path fill="#dbcaeb" opacity="1.00" d=" M 83.16 105.61 C 82.83 104.38 83.39 103.71 84.86 103.61 C 85.18 103.87 85.84 104.38 86.16 104.64 C 85.39 105.81 84.39 106.13 83.16 105.61 Z" />
<path fill="#dbcaeb" opacity="1.00" d=" M 69.35 122.66 L 70.17 122.40 C 70.30 123.47 70.43 124.54 70.55 125.61 C 69.73 126.06 68.90 126.51 68.08 126.96 C 68.05 126.23 68.00 124.76 67.98 124.03 C 68.32 123.69 69.01 123.00 69.35 122.66 Z" />
<path fill="#dbcaeb" opacity="1.00" d=" M 78.19 146.25 C 79.27 145.35 80.32 144.43 81.36 143.47 C 81.71 144.34 82.06 145.21 82.42 146.08 C 81.71 146.60 81.00 147.14 80.29 147.67 C 79.77 147.32 78.71 146.61 78.19 146.25 Z" />
</g>
</svg>
