<?xml version="1.0" encoding="UTF-8" ?>
<!DOCTYPE svg PUBLIC "-//W3C//DTD SVG 1.1//EN" "http://www.w3.org/Graphics/SVG/1.1/DTD/svg11.dtd">
<svg width="200pt" height="200pt" viewBox="0 0 200 200" version="1.1" xmlns="http://www.w3.org/2000/svg">
<g id="#182024f8">
<path fill="#182024" opacity="0.97" d=" M 74.48 35.69 C 85.96 34.58 97.49 35.19 109.00 34.98 C 119.63 34.84 130.24 35.75 140.76 37.25 C 144.71 37.95 148.96 38.31 152.42 40.52 C 154.67 42.15 153.71 45.27 153.69 47.61 C 148.98 88.20 144.37 128.79 139.68 169.38 C 139.66 173.61 135.34 175.54 132.07 177.07 C 125.07 179.93 117.56 181.43 110.04 182.11 C 96.60 182.80 82.65 182.31 70.08 176.98 C 67.07 175.56 63.00 173.94 62.80 170.06 C 58.06 128.82 53.29 87.58 48.50 46.35 C 48.21 43.99 47.93 40.72 50.79 39.84 C 58.33 36.97 66.55 36.71 74.48 35.69 M 70.44 38.71 C 63.95 39.71 57.03 39.76 51.12 42.97 C 52.86 43.90 54.65 44.80 56.59 45.21 C 67.25 47.47 78.19 47.71 89.03 48.29 C 102.92 48.76 116.82 48.28 130.68 47.35 C 137.68 46.50 144.98 46.11 151.45 43.01 C 146.95 40.41 141.66 40.03 136.63 39.31 C 114.66 36.93 92.46 37.02 70.44 38.71 M 51.18 46.15 C 51.88 55.68 53.42 65.12 54.40 74.62 C 57.72 103.67 61.06 132.72 64.42 161.77 C 64.91 164.86 64.62 168.26 66.03 171.10 C 69.88 174.44 74.99 175.84 79.80 177.17 C 91.23 179.84 103.17 179.95 114.79 178.54 C 121.60 177.56 128.56 176.10 134.53 172.53 C 137.70 170.93 137.31 166.95 137.78 163.97 C 142.07 124.69 146.98 85.47 151.17 46.17 C 134.14 50.47 116.46 50.68 99.00 50.83 C 82.99 50.49 66.75 50.38 51.18 46.15 Z" />
<path fill="#182024" opacity="0.97" d=" M 109.95 58.56 C 119.62 57.36 129.42 52.62 139.25 55.68 C 144.06 56.96 146.76 62.13 145.92 66.89 C 142.84 96.58 139.49 126.24 136.41 155.93 C 135.79 159.59 136.84 164.85 132.63 166.63 C 120.36 172.77 106.04 174.02 92.53 172.72 C 84.85 172.05 77.11 170.45 70.25 166.81 C 68.51 165.90 66.72 164.57 66.69 162.41 C 63.60 133.96 60.55 105.50 57.59 77.03 C 57.01 72.14 56.27 67.25 56.25 62.31 C 61.90 58.96 68.58 58.24 75.00 57.71 C 86.65 57.24 98.34 57.44 109.95 58.56 M 95.66 66.73 C 85.76 69.57 74.75 72.06 64.78 68.23 C 71.76 68.89 78.90 69.56 85.76 67.70 C 93.07 65.83 100.43 63.73 107.09 60.12 C 94.44 58.67 81.54 58.39 68.87 59.87 C 65.45 60.46 61.80 61.03 58.99 63.24 C 58.19 67.86 59.42 72.52 59.86 77.12 C 62.56 102.07 65.04 127.05 68.01 151.97 C 68.49 155.76 68.33 159.71 69.66 163.34 C 71.54 165.39 74.30 166.28 76.85 167.21 C 83.98 169.50 91.47 170.82 98.98 170.71 C 109.11 170.98 119.46 169.77 128.89 165.88 C 130.64 164.94 133.24 164.11 133.40 161.77 C 136.82 131.42 139.85 101.03 143.41 70.70 C 143.61 67.35 144.45 63.53 142.41 60.56 C 140.07 57.33 135.69 56.88 132.02 56.89 C 119.25 57.19 107.62 62.99 95.66 66.73 Z" />
</g>
<g id="#dcf9feff">
<path fill="#dcf9fe" opacity="1.00" d=" M 70.44 38.71 C 92.46 37.02 114.66 36.93 136.63 39.31 C 141.66 40.03 146.95 40.41 151.45 43.01 C 144.98 46.11 137.68 46.50 130.68 47.35 C 116.82 48.28 102.92 48.76 89.03 48.29 C 78.19 47.71 67.25 47.47 56.59 45.21 C 54.65 44.80 52.86 43.90 51.12 42.97 C 57.03 39.76 63.95 39.71 70.44 38.71 Z" />
</g>
<g id="#aee9fcff">
<path fill="#aee9fc" opacity="1.00" d=" M 51.18 46.15 C 66.75 50.38 82.99 50.49 99.00 50.83 C 116.46 50.68 134.14 50.47 151.17 46.17 C 146.98 85.47 142.07 124.69 137.78 163.97 C 137.31 166.95 137.70 170.93 134.53 172.53 C 128.56 176.10 121.60 177.56 114.79 178.54 C 103.17 179.95 91.23 179.84 79.80 177.17 C 74.99 175.84 69.88 174.44 66.03 171.10 C 64.62 168.26 64.91 164.86 64.42 161.77 C 61.06 132.72 57.72 103.67 54.40 74.62 C 53.42 65.12 51.88 55.68 51.18 46.15 M 109.95 58.56 C 98.34 57.44 86.65 57.24 75.00 57.71 C 68.58 58.24 61.90 58.96 56.25 62.31 C 56.27 67.25 57.01 72.14 57.59 77.03 C 60.55 105.50 63.60 133.96 66.69 162.41 C 66.72 164.57 68.51 165.90 70.25 166.81 C 77.11 170.45 84.85 172.05 92.53 172.72 C 106.04 174.02 120.36 172.77 132.63 166.63 C 136.84 164.85 135.79 159.59 136.41 155.93 C 139.49 126.24 142.84 96.58 145.92 66.89 C 146.76 62.13 144.06 56.96 139.25 55.68 C 129.42 52.62 119.62 57.36 109.95 58.56 Z" />
<path fill="#aee9fc" opacity="1.00" d=" M 66.63 88.25 C 63.25 85.86 64.00 80.88 64.94 77.39 C 67.74 80.30 66.68 84.63 66.63 88.25 Z" />
<path fill="#aee9fc" opacity="1.00" d=" M 66.48 90.87 C 68.47 96.74 68.80 102.97 69.72 109.06 C 71.02 120.37 72.24 131.69 73.01 143.05 C 73.46 148.09 74.02 153.17 73.51 158.23 C 72.70 156.33 72.04 154.36 71.79 152.30 C 70.03 139.57 68.50 126.81 67.44 114.00 C 66.92 106.30 65.79 98.60 66.48 90.87 Z" />
<path fill="#aee9fc" opacity="1.00" d=" M 79.41 157.98 C 83.21 155.98 87.67 156.10 91.47 158.01 C 87.76 160.00 83.01 160.56 79.41 157.98 Z" />
<path fill="#aee9fc" opacity="1.00" d=" M 82.39 163.98 C 86.20 160.83 91.38 161.08 96.02 160.70 C 103.49 160.53 111.05 160.37 118.42 161.76 C 120.17 161.91 121.41 163.13 122.13 164.66 C 114.36 167.26 106.07 166.99 97.99 166.90 C 92.71 166.69 87.06 166.87 82.39 163.98 Z" />
</g>
<g id="#00adefff">
<path fill="#00adef" opacity="1.00" d=" M 95.66 66.73 C 107.62 62.99 119.25 57.19 132.02 56.89 C 135.69 56.88 140.07 57.33 142.41 60.56 C 144.45 63.53 143.61 67.35 143.41 70.70 C 139.85 101.03 136.82 131.42 133.40 161.77 C 133.24 164.11 130.64 164.94 128.89 165.88 C 119.46 169.77 109.11 170.98 98.98 170.71 C 91.47 170.82 83.98 169.50 76.85 167.21 C 74.30 166.28 71.54 165.39 69.66 163.34 C 68.33 159.71 68.49 155.76 68.01 151.97 C 65.04 127.05 62.56 102.07 59.86 77.12 C 59.42 72.52 58.19 67.86 58.99 63.24 C 61.80 61.03 65.45 60.46 68.87 59.87 C 81.54 58.39 94.44 58.67 107.09 60.12 C 100.43 63.73 93.07 65.83 85.76 67.70 C 78.90 69.56 71.76 68.89 64.78 68.23 C 74.75 72.06 85.76 69.57 95.66 66.73 M 66.63 88.25 C 66.68 84.63 67.74 80.30 64.94 77.39 C 64.00 80.88 63.25 85.86 66.63 88.25 M 66.48 90.87 C 65.79 98.60 66.92 106.30 67.44 114.00 C 68.50 126.81 70.03 139.57 71.79 152.30 C 72.04 154.36 72.70 156.33 73.51 158.23 C 74.02 153.17 73.46 148.09 73.01 143.05 C 72.24 131.69 71.02 120.37 69.72 109.06 C 68.80 102.97 68.47 96.74 66.48 90.87 M 79.41 157.98 C 83.01 160.56 87.76 160.00 91.47 158.01 C 87.67 156.10 83.21 155.98 79.41 157.98 M 82.39 163.98 C 87.06 166.87 92.71 166.69 97.99 166.90 C 106.07 166.99 114.36 167.26 122.13 164.66 C 121.41 163.13 120.17 161.91 118.42 161.76 C 111.05 160.37 103.49 160.53 96.02 160.70 C 91.38 161.08 86.20 160.83 82.39 163.98 Z" />
</g>
</svg>
