<?xml version="1.0" encoding="UTF-8" ?>
<!DOCTYPE svg PUBLIC "-//W3C//DTD SVG 1.1//EN" "http://www.w3.org/Graphics/SVG/1.1/DTD/svg11.dtd">
<svg width="200pt" height="200pt" viewBox="0 0 200 200" version="1.1" xmlns="http://www.w3.org/2000/svg">
<g id="#050c1dff">
<path fill="#050c1d" opacity="1.00" d=" M 159.47 13.52 C 164.38 10.06 170.86 9.22 176.64 10.55 C 184.22 12.63 190.83 19.83 190.22 28.02 C 190.14 33.93 186.48 39.76 180.84 41.81 C 174.85 43.95 168.21 42.05 162.83 39.12 C 159.76 37.55 157.37 34.65 154.02 33.68 C 144.93 33.67 135.80 34.26 126.70 33.55 C 115.99 32.95 104.54 31.12 94.58 36.29 C 100.71 44.75 112.53 45.24 119.93 52.06 C 121.65 53.37 119.85 55.59 118.60 56.55 C 114.67 59.05 109.93 59.70 105.59 61.22 C 112.48 63.60 119.68 65.28 126.03 69.00 C 144.68 79.34 159.20 99.16 159.21 121.01 C 159.17 124.42 159.26 127.84 159.33 131.25 C 158.88 143.32 153.40 154.73 146.29 164.28 C 136.04 177.59 120.37 186.88 103.66 188.84 C 102.47 188.74 101.31 189.05 100.22 189.51 C 89.47 191.15 78.42 189.25 68.13 185.98 C 63.66 184.61 59.02 183.91 54.60 182.39 C 40.22 177.40 27.12 167.90 19.24 154.73 C 14.49 146.78 10.78 137.80 10.47 128.44 C 10.64 124.14 10.64 119.84 10.46 115.54 C 11.00 103.52 16.31 92.02 23.69 82.65 C 38.21 64.36 62.85 54.98 85.87 58.36 C 96.58 60.49 107.94 58.52 117.75 53.91 C 110.35 47.88 99.75 47.04 93.34 39.67 C 91.42 37.75 91.86 34.45 94.37 33.29 C 101.75 29.16 110.63 29.89 118.77 30.25 C 122.06 30.45 125.36 30.58 128.65 30.67 C 135.67 31.08 142.77 31.71 149.77 30.80 C 152.43 30.74 152.88 27.76 153.73 25.83 C 155.36 21.64 155.55 16.38 159.47 13.52 M 160.48 16.22 L 159.67 16.02 C 157.13 20.40 156.10 25.88 158.99 30.36 C 160.03 25.74 161.29 21.12 163.76 17.03 C 166.43 15.85 169.05 14.33 172.01 14.03 C 175.63 13.99 178.89 16.19 181.28 18.74 C 186.63 24.33 184.37 35.50 176.84 37.94 C 170.45 39.52 164.50 35.85 158.94 33.24 C 164.75 38.16 172.71 41.43 180.32 39.21 C 186.77 36.42 189.40 27.80 186.44 21.60 C 182.34 11.95 168.04 8.83 160.48 16.22 M 170.35 16.32 C 166.14 17.64 162.73 21.65 162.32 26.07 C 163.01 29.16 164.75 32.03 166.74 34.46 C 169.65 36.22 173.42 36.60 176.67 35.65 C 180.04 34.58 181.44 30.87 181.85 27.66 C 183.06 21.41 176.50 15.07 170.35 16.32 M 162.12 30.53 C 161.18 31.66 161.43 32.29 162.89 32.42 C 163.83 31.29 163.58 30.66 162.12 30.53 M 69.96 60.75 C 65.05 61.41 59.85 61.75 55.49 64.35 C 52.14 65.00 48.89 66.14 45.92 67.83 C 39.91 71.21 33.87 74.97 29.69 80.58 C 26.34 83.31 23.46 86.82 21.92 90.88 C 17.44 96.23 15.44 103.10 13.80 109.75 C 10.39 125.98 14.37 143.51 24.10 156.90 C 31.78 166.96 42.09 175.56 54.38 179.21 C 51.38 175.55 47.30 173.12 43.37 170.60 C 23.98 157.58 14.06 132.13 19.51 109.42 C 20.26 105.97 21.83 102.71 22.21 99.18 C 24.79 95.09 26.93 90.72 29.84 86.83 C 37.87 76.07 49.44 67.93 62.42 64.36 C 69.07 62.19 76.12 62.20 82.94 60.95 C 78.65 60.19 74.27 60.16 69.96 60.75 M 61.96 70.72 C 56.42 72.69 51.85 76.66 47.48 80.47 C 43.96 83.96 40.09 87.42 38.03 92.01 C 30.65 101.62 27.45 113.99 27.60 125.99 C 27.51 141.32 34.11 156.34 44.70 167.31 C 56.07 179.48 72.45 186.62 89.02 187.35 C 100.03 187.62 111.70 186.28 121.11 180.10 C 123.65 179.75 125.92 178.43 128.06 177.10 C 136.25 171.77 143.31 164.67 148.34 156.29 C 149.96 153.47 151.95 150.67 152.44 147.39 C 156.55 139.28 157.43 129.91 156.89 120.94 C 155.63 102.57 145.42 85.05 130.05 74.91 C 118.52 66.61 104.12 62.22 89.91 63.18 C 80.22 63.66 70.32 65.56 61.96 70.72 M 21.20 112.23 C 18.17 127.84 22.27 145.09 32.88 157.09 C 31.12 152.23 28.81 147.57 27.37 142.59 C 20.78 120.37 28.03 94.78 45.02 79.08 C 49.15 75.06 54.26 72.25 58.49 68.36 C 39.53 75.05 24.68 92.38 21.20 112.23 Z" />
<path fill="#050c1d" opacity="1.00" d=" M 51.14 93.12 C 61.40 80.46 77.76 73.20 94.00 73.56 C 105.70 73.46 117.29 77.42 126.71 84.30 C 137.83 92.47 145.53 105.27 147.15 119.01 C 149.21 134.41 143.58 150.61 132.41 161.41 C 124.75 169.10 114.69 173.89 104.20 176.31 C 92.19 177.93 79.56 176.92 68.64 171.35 C 54.29 164.33 43.25 150.47 40.45 134.64 C 39.17 127.63 40.07 120.49 40.52 113.45 C 43.04 106.21 46.23 99.07 51.14 93.12 M 45.60 105.98 C 39.91 118.99 40.16 134.57 46.83 147.17 C 54.80 162.94 71.41 173.73 88.96 175.12 C 98.93 175.93 109.13 174.00 117.96 169.25 C 130.55 163.21 140.18 151.35 143.95 137.92 C 147.20 125.16 145.50 110.93 138.20 99.82 C 129.99 86.30 115.18 77.43 99.58 75.60 C 77.58 72.92 54.38 85.41 45.60 105.98 Z" />
</g>
<g id="#9d0807ff">
<path fill="#9d0807" opacity="1.00" d=" M 160.48 16.22 C 168.04 8.83 182.34 11.95 186.44 21.60 C 189.40 27.80 186.77 36.42 180.32 39.21 C 172.71 41.43 164.75 38.16 158.94 33.24 C 164.50 35.85 170.45 39.52 176.84 37.94 C 184.37 35.50 186.63 24.33 181.28 18.74 C 178.89 16.19 175.63 13.99 172.01 14.03 C 169.05 14.33 166.43 15.85 163.76 17.03 C 162.67 16.76 161.57 16.49 160.48 16.22 Z" />
</g>
<g id="#810304ff">
<path fill="#810304" opacity="1.00" d=" M 159.67 16.02 L 160.48 16.22 C 161.57 16.49 162.67 16.76 163.76 17.03 C 161.29 21.12 160.03 25.74 158.99 30.36 C 156.10 25.88 157.13 20.40 159.67 16.02 Z" />
</g>
<g id="#f9e502ff">
<path fill="#f9e502" opacity="1.00" d=" M 118.77 30.25 C 122.15 30.38 125.54 30.40 128.92 30.68 L 128.65 30.67 C 125.36 30.58 122.06 30.45 118.77 30.25 Z" />
<path fill="#f9e502" opacity="1.00" d=" M 98.91 100.77 C 99.90 98.67 100.89 96.55 101.71 94.38 C 103.73 101.66 103.58 109.31 105.20 116.68 C 112.55 119.91 120.19 122.41 127.72 125.19 C 126.17 125.91 124.64 126.70 123.00 127.21 C 116.94 126.16 110.94 124.69 105.06 122.91 C 102.92 122.08 99.88 121.33 99.65 118.58 C 98.76 112.70 98.99 106.71 98.91 100.77 Z" />
<path fill="#f9e502" opacity="1.00" d=" M 100.22 189.51 C 101.31 189.05 102.47 188.74 103.66 188.84 C 103.91 190.63 100.73 191.19 100.22 189.51 Z" />
</g>
<g id="#163f80ff">
<path fill="#163f80" opacity="1.00" d=" M 69.96 60.75 C 74.27 60.16 78.65 60.19 82.94 60.95 C 76.12 62.20 69.07 62.19 62.42 64.36 C 49.44 67.93 37.87 76.07 29.84 86.83 C 26.93 90.72 24.79 95.09 22.21 99.18 C 22.21 96.41 21.96 93.65 21.92 90.88 C 23.46 86.82 26.34 83.31 29.69 80.58 C 37.77 74.35 46.84 69.69 55.49 64.35 C 59.85 61.75 65.05 61.41 69.96 60.75 Z" />
</g>
<g id="#3395c2ff">
<path fill="#3395c2" opacity="1.00" d=" M 61.96 70.72 C 70.32 65.56 80.22 63.66 89.91 63.18 C 104.12 62.22 118.52 66.61 130.05 74.91 C 145.42 85.05 155.63 102.57 156.89 120.94 C 157.43 129.91 156.55 139.28 152.44 147.39 C 152.58 137.50 153.46 127.48 151.28 117.74 C 146.86 94.92 129.82 74.82 107.79 67.26 C 92.57 63.36 76.84 67.09 61.96 70.72 Z" />
<path fill="#3395c2" opacity="1.00" d=" M 45.92 67.83 C 48.89 66.14 52.14 65.00 55.49 64.35 C 46.84 69.69 37.77 74.35 29.69 80.58 C 33.87 74.97 39.91 71.21 45.92 67.83 Z" />
</g>
<g id="#143f83ff">
<path fill="#143f83" opacity="1.00" d=" M 61.96 70.72 C 76.84 67.09 92.57 63.36 107.79 67.26 C 129.82 74.82 146.86 94.92 151.28 117.74 C 153.46 127.48 152.58 137.50 152.44 147.39 C 151.95 150.67 149.96 153.47 148.34 156.29 C 143.31 164.67 136.25 171.77 128.06 177.10 C 125.92 178.43 123.65 179.75 121.11 180.10 C 114.33 179.69 107.59 178.77 100.91 177.54 C 102.00 177.11 103.09 176.69 104.20 176.31 C 114.69 173.89 124.75 169.10 132.41 161.41 C 143.58 150.61 149.21 134.41 147.15 119.01 C 145.53 105.27 137.83 92.47 126.71 84.30 C 117.29 77.42 105.70 73.46 94.00 73.56 C 77.76 73.20 61.40 80.46 51.14 93.12 C 46.23 99.07 43.04 106.21 40.52 113.45 C 38.25 106.54 37.62 99.24 38.03 92.01 C 40.09 87.42 43.96 83.96 47.48 80.47 C 51.85 76.66 56.42 72.69 61.96 70.72 Z" />
</g>
<g id="#303643ff">
<path fill="#303643" opacity="1.00" d=" M 21.20 112.23 C 24.68 92.38 39.53 75.05 58.49 68.36 C 54.26 72.25 49.15 75.06 45.02 79.08 C 28.03 94.78 20.78 120.37 27.37 142.59 C 28.81 147.57 31.12 152.23 32.88 157.09 C 22.27 145.09 18.17 127.84 21.20 112.23 Z" />
</g>
<g id="#b80602ff">
<path fill="#b80602" opacity="1.00" d=" M 45.60 105.98 C 54.38 85.41 77.58 72.92 99.58 75.60 C 115.18 77.43 129.99 86.30 138.20 99.82 C 145.50 110.93 147.20 125.16 143.95 137.92 C 140.18 151.35 130.55 163.21 117.96 169.25 C 109.07 168.14 100.57 165.04 92.34 161.61 C 84.42 157.92 76.34 153.85 70.45 147.21 C 77.40 144.45 84.37 141.70 91.07 138.35 C 95.17 146.36 99.44 154.72 106.70 160.36 C 108.56 161.82 110.93 162.26 113.16 162.82 C 113.15 153.79 112.02 144.81 111.51 135.81 C 119.48 132.17 127.74 129.26 135.86 126.00 C 136.80 130.21 138.69 134.13 140.95 137.79 C 144.94 127.41 142.46 116.09 139.13 105.91 C 136.43 97.49 129.80 90.81 122.07 86.78 C 119.74 85.56 117.04 85.62 114.48 85.54 C 117.76 90.85 123.08 94.26 127.25 98.76 C 133.11 105.36 133.74 114.58 135.23 122.87 C 125.81 120.76 116.59 117.89 107.49 114.67 C 107.28 104.72 106.76 94.71 104.80 84.93 C 102.05 86.73 99.41 88.78 97.45 91.45 C 93.10 97.17 88.91 103.01 84.73 108.85 C 75.51 107.37 66.54 104.45 57.18 103.90 C 58.14 106.68 59.46 109.35 61.39 111.60 C 65.78 116.87 70.23 122.10 74.97 127.06 C 71.04 131.90 66.97 136.62 62.97 141.40 C 53.71 131.67 48.27 119.01 45.60 105.98 M 105.48 82.06 C 106.47 83.20 107.42 84.40 108.57 85.39 C 110.20 85.73 111.87 85.18 113.50 85.03 C 112.70 83.33 112.40 81.18 110.72 80.07 C 108.78 79.97 107.16 81.30 105.48 82.06 Z" />
</g>
<g id="#f2170eff">
<path fill="#f2170e" opacity="1.00" d=" M 105.48 82.06 C 107.16 81.30 108.78 79.97 110.72 80.07 C 112.40 81.18 112.70 83.33 113.50 85.03 C 111.87 85.18 110.20 85.73 108.57 85.39 C 107.42 84.40 106.47 83.20 105.48 82.06 Z" />
</g>
<g id="#f3170eff">
<path fill="#f3170e" opacity="1.00" d=" M 114.48 85.54 C 117.04 85.62 119.74 85.56 122.07 86.78 C 129.80 90.81 136.43 97.49 139.13 105.91 C 142.46 116.09 144.94 127.41 140.95 137.79 C 138.69 134.13 136.80 130.21 135.86 126.00 C 135.63 124.96 135.42 123.91 135.23 122.87 C 133.74 114.58 133.11 105.36 127.25 98.76 C 123.08 94.26 117.76 90.85 114.48 85.54 Z" />
</g>
<g id="#030a20ff">
<path fill="#030a20" opacity="1.00" d=" M 97.45 91.45 C 99.41 88.78 102.05 86.73 104.80 84.93 C 106.76 94.71 107.28 104.72 107.49 114.67 C 116.59 117.89 125.81 120.76 135.23 122.87 C 135.42 123.91 135.63 124.96 135.86 126.00 C 127.74 129.26 119.48 132.17 111.51 135.81 C 112.02 144.81 113.15 153.79 113.16 162.82 C 110.93 162.26 108.56 161.82 106.70 160.36 C 99.44 154.72 95.17 146.36 91.07 138.35 C 84.37 141.70 77.40 144.45 70.45 147.21 C 66.26 148.83 61.84 149.73 57.39 150.27 C 58.97 147.15 60.74 144.10 62.97 141.40 C 66.97 136.62 71.04 131.90 74.97 127.06 C 70.23 122.10 65.78 116.87 61.39 111.60 C 59.46 109.35 58.14 106.68 57.18 103.90 C 66.54 104.45 75.51 107.37 84.73 108.85 C 88.91 103.01 93.10 97.17 97.45 91.45 M 87.44 110.31 C 86.28 111.79 84.27 111.98 82.64 112.66 C 78.50 109.55 72.88 109.70 67.95 109.03 C 66.47 108.10 64.64 108.04 62.98 107.61 C 67.55 114.64 73.78 120.48 77.58 128.02 C 73.23 134.14 68.10 139.67 64.01 145.97 C 67.86 144.74 71.62 143.25 75.27 141.53 C 81.02 139.63 86.61 137.19 92.59 136.08 C 97.66 143.56 101.59 152.20 109.26 157.48 C 109.75 150.03 107.95 142.56 108.95 135.15 C 111.96 130.37 118.35 129.78 123.00 127.21 C 124.64 126.70 126.17 125.91 127.72 125.19 C 120.19 122.41 112.55 119.91 105.20 116.68 C 103.58 109.31 103.73 101.66 101.71 94.38 C 101.90 93.74 102.28 92.46 102.47 91.83 C 96.41 97.06 92.42 104.15 87.44 110.31 Z" />
</g>
<g id="#08245fff">
<path fill="#08245f" opacity="1.00" d=" M 13.80 109.75 C 15.44 103.10 17.44 96.23 21.92 90.88 C 21.96 93.65 22.21 96.41 22.21 99.18 C 21.83 102.71 20.26 105.97 19.51 109.42 C 14.06 132.13 23.98 157.58 43.37 170.60 C 47.30 173.12 51.38 175.55 54.38 179.21 C 42.09 175.56 31.78 166.96 24.10 156.90 C 14.37 143.51 10.39 125.98 13.80 109.75 Z" />
</g>
<g id="#072563ff">
<path fill="#072563" opacity="1.00" d=" M 27.60 125.99 C 27.45 113.99 30.65 101.62 38.03 92.01 C 37.62 99.24 38.25 106.54 40.52 113.45 C 40.07 120.49 39.17 127.63 40.45 134.64 C 43.25 150.47 54.29 164.33 68.64 171.35 C 79.56 176.92 92.19 177.93 104.20 176.31 C 103.09 176.69 102.00 177.11 100.91 177.54 C 107.59 178.77 114.33 179.69 121.11 180.10 C 111.70 186.28 100.03 187.62 89.02 187.35 C 72.45 186.62 56.07 179.48 44.70 167.31 C 34.11 156.34 27.51 141.32 27.60 125.99 Z" />
</g>
<g id="#f69105ff">
<path fill="#f69105" opacity="1.00" d=" M 87.44 110.31 C 92.42 104.15 96.41 97.06 102.47 91.83 C 102.28 92.46 101.90 93.74 101.71 94.38 C 100.89 96.55 99.90 98.67 98.91 100.77 C 94.71 105.87 90.40 110.91 85.43 115.28 C 84.50 114.40 83.58 113.52 82.64 112.66 C 84.27 111.98 86.28 111.79 87.44 110.31 Z" />
</g>
<g id="#fabf01ff">
<path fill="#fabf01" opacity="1.00" d=" M 85.43 115.28 C 90.40 110.91 94.71 105.87 98.91 100.77 C 98.99 106.71 98.76 112.70 99.65 118.58 C 99.88 121.33 102.92 122.08 105.06 122.91 C 110.94 124.69 116.94 126.16 123.00 127.21 C 118.35 129.78 111.96 130.37 108.95 135.15 C 107.95 142.56 109.75 150.03 109.26 157.48 C 101.59 152.20 97.66 143.56 92.59 136.08 C 86.61 137.19 81.02 139.63 75.27 141.53 C 76.93 136.67 80.10 132.51 81.80 127.68 C 82.93 124.51 80.29 121.82 78.35 119.68 C 74.82 116.18 71.44 112.56 67.95 109.03 C 72.88 109.70 78.50 109.55 82.64 112.66 C 83.58 113.52 84.50 114.40 85.43 115.28 Z" />
</g>
<g id="#960200ff">
<path fill="#960200" opacity="1.00" d=" M 46.83 147.17 C 40.16 134.57 39.91 118.99 45.60 105.98 C 48.27 119.01 53.71 131.67 62.97 141.40 C 60.74 144.10 58.97 147.15 57.39 150.27 C 61.84 149.73 66.26 148.83 70.45 147.21 C 76.34 153.85 84.42 157.92 92.34 161.61 C 100.57 165.04 109.07 168.14 117.96 169.25 C 109.13 174.00 98.93 175.93 88.96 175.12 C 71.41 173.73 54.80 162.94 46.83 147.17 Z" />
</g>
<g id="#f89304ff">
<path fill="#f89304" opacity="1.00" d=" M 62.98 107.61 C 64.64 108.04 66.47 108.10 67.95 109.03 C 71.44 112.56 74.82 116.18 78.35 119.68 C 80.29 121.82 82.93 124.51 81.80 127.68 C 80.10 132.51 76.93 136.67 75.27 141.53 C 71.62 143.25 67.86 144.74 64.01 145.97 C 68.10 139.67 73.23 134.14 77.58 128.02 C 73.78 120.48 67.55 114.64 62.98 107.61 Z" />
</g>
<g id="#484955fc">
<path fill="#484955" opacity="1.00" d=" M 10.46 115.54 C 10.64 119.84 10.64 124.14 10.47 128.44 C 9.58 124.19 9.56 119.79 10.46 115.54 Z" />
</g>
<g id="#58595fe9">
<path fill="#58595f" opacity="0.91" d=" M 159.21 121.01 L 160.10 120.98 C 160.16 124.42 160.19 127.90 159.33 131.25 C 159.26 127.84 159.17 124.42 159.21 121.01 Z" />
</g>
</svg>
