<?xml version="1.0" encoding="UTF-8" ?>
<!DOCTYPE svg PUBLIC "-//W3C//DTD SVG 1.1//EN" "http://www.w3.org/Graphics/SVG/1.1/DTD/svg11.dtd">
<svg width="200pt" height="200pt" viewBox="0 0 200 200" version="1.1" xmlns="http://www.w3.org/2000/svg">
<g id="#826550f2">
<path fill="#826550" opacity="0.95" d=" M 95.64 49.85 C 98.44 48.27 102.00 49.24 104.76 47.57 C 105.32 47.94 106.44 48.67 107.00 49.04 C 110.84 48.95 114.68 48.88 118.52 48.79 L 118.24 49.85 C 118.11 50.10 117.83 50.60 117.69 50.85 C 114.39 49.33 110.63 50.11 107.13 50.14 L 106.56 51.25 C 106.51 51.41 106.40 51.75 106.35 51.92 C 105.83 48.67 102.64 50.06 100.45 50.35 C 98.84 50.24 97.23 50.07 95.64 49.85 Z" />
</g>
<g id="#675c5487">
<path fill="#675c54" opacity="0.53" d=" M 106.98 48.00 C 110.81 48.30 114.88 47.27 118.52 48.79 C 114.68 48.88 110.84 48.95 107.00 49.04 L 106.98 48.00 Z" />
</g>
<g id="#c69064ff">
<path fill="#c69064" opacity="1.00" d=" M 90.55 49.33 C 91.74 49.00 92.36 49.48 92.39 50.77 C 93.01 50.51 94.25 50.01 94.87 49.76 C 93.33 51.48 93.19 53.70 93.61 55.88 C 94.51 56.01 96.30 56.28 97.19 56.41 C 96.03 57.45 94.78 58.37 93.57 59.33 C 95.70 62.97 100.58 60.64 103.94 60.67 C 103.37 59.98 102.80 59.30 102.23 58.62 C 102.70 57.83 103.18 57.05 103.65 56.27 C 102.78 55.93 101.89 55.61 101.01 55.30 C 101.37 54.16 101.77 53.03 102.07 51.87 C 100.67 51.78 99.27 51.68 97.87 51.58 C 98.72 51.16 99.58 50.75 100.45 50.35 C 102.64 50.06 105.83 48.67 106.35 51.92 C 106.26 52.43 106.07 53.46 105.97 53.97 C 107.69 54.50 109.41 55.02 111.12 55.59 C 109.42 56.10 107.72 56.62 106.01 57.10 C 105.98 57.92 105.92 59.55 105.90 60.37 C 109.68 60.20 113.45 59.75 117.16 58.97 C 116.58 58.10 116.01 57.22 115.45 56.33 C 116.01 55.94 117.15 55.16 117.72 54.77 C 116.51 53.96 115.39 53.03 114.18 52.23 C 115.36 51.80 116.53 51.34 117.69 50.85 C 117.83 50.60 118.11 50.10 118.24 49.85 C 122.10 50.38 125.74 52.08 129.63 52.36 C 129.98 52.96 130.32 53.56 130.67 54.16 C 130.28 56.16 130.26 58.23 130.96 60.17 C 128.22 66.54 132.44 72.97 131.89 79.52 C 132.25 84.50 133.73 89.41 136.60 93.53 C 134.64 93.62 133.14 92.31 131.69 91.19 C 131.59 90.54 131.52 89.88 131.47 89.22 C 130.92 89.10 129.83 88.86 129.28 88.73 C 129.93 87.76 130.58 86.79 131.24 85.83 C 129.82 85.74 128.40 85.66 126.99 85.58 C 128.25 84.72 129.57 83.93 130.83 83.06 C 129.90 82.45 128.98 81.83 128.05 81.21 C 128.45 80.80 129.23 79.97 129.63 79.55 L 129.83 78.68 C 129.72 77.67 129.60 76.66 129.47 75.66 C 127.54 75.28 125.62 74.88 123.71 74.45 C 125.64 73.55 127.92 73.10 129.36 71.42 C 128.55 71.17 126.93 70.65 126.12 70.40 C 126.70 69.53 127.28 68.67 127.86 67.81 C 126.95 67.54 126.03 67.28 125.11 67.03 C 126.04 65.82 126.96 64.60 127.89 63.39 C 126.85 62.92 125.80 62.45 124.76 61.98 C 125.29 61.65 126.34 60.99 126.87 60.66 C 126.28 60.02 125.70 59.38 125.12 58.75 C 126.37 58.19 127.62 57.64 128.88 57.08 C 127.48 56.22 126.06 55.40 124.65 54.56 C 126.31 54.45 127.97 54.33 129.63 54.20 C 127.06 51.36 122.50 52.10 119.05 50.90 C 119.25 52.28 119.43 53.68 119.55 55.08 C 118.61 58.91 119.68 62.85 118.76 66.67 C 117.76 71.91 119.14 77.19 119.50 82.43 C 119.53 82.92 119.60 83.90 119.63 84.39 C 120.72 84.89 121.84 85.34 122.95 85.80 C 122.03 86.26 121.12 86.73 120.21 87.20 C 120.55 87.78 121.22 88.93 121.56 89.51 C 120.74 89.34 119.91 89.18 119.08 89.03 C 117.96 88.81 116.85 88.60 115.73 88.38 C 116.98 87.03 118.05 85.50 117.69 83.56 C 117.44 83.44 116.93 83.18 116.67 83.06 C 116.04 82.75 114.76 82.14 114.13 81.84 C 114.98 80.96 115.99 80.26 116.84 79.39 C 114.37 79.38 111.91 79.24 109.46 78.92 C 111.75 77.31 115.70 77.86 116.63 74.79 C 114.06 74.65 111.49 74.55 108.92 74.39 C 111.28 73.46 113.73 72.79 116.08 71.84 C 117.53 69.57 113.58 69.29 112.18 68.57 C 113.60 67.95 115.13 67.48 116.38 66.52 C 117.23 65.30 116.95 63.72 117.06 62.33 C 113.53 62.34 109.95 61.90 106.45 62.49 C 106.18 62.84 105.66 63.54 105.40 63.89 C 107.65 64.45 109.91 64.98 112.15 65.58 C 109.79 66.54 106.88 66.46 104.84 67.99 C 105.26 69.20 105.79 70.38 106.31 71.56 C 102.41 75.91 104.65 81.90 104.67 87.09 C 102.94 86.86 101.38 86.12 100.01 85.06 C 101.84 83.15 102.40 80.73 101.84 78.16 C 100.76 77.78 99.69 77.39 98.62 77.00 C 99.74 76.25 100.87 75.51 101.99 74.75 C 101.72 73.22 101.44 71.70 101.19 70.16 C 101.72 69.36 102.58 68.70 102.71 67.69 C 101.76 67.11 100.79 66.57 99.81 66.05 C 101.66 65.25 103.81 64.48 104.07 62.18 C 101.05 62.13 98.03 62.38 95.09 63.05 C 96.22 68.69 94.57 74.21 93.11 79.61 C 94.45 79.93 95.80 80.26 97.15 80.58 C 95.51 81.08 93.86 81.56 92.21 82.07 C 91.83 83.64 91.76 85.35 90.92 86.78 C 89.66 86.73 88.40 86.62 87.15 86.47 C 86.01 85.91 84.89 85.31 83.78 84.70 C 85.64 83.93 87.51 83.20 89.39 82.47 C 87.61 82.17 85.83 81.90 84.05 81.64 C 85.69 80.88 87.23 79.93 88.69 78.87 C 86.76 78.63 84.82 78.50 82.88 78.35 C 84.52 77.57 86.10 76.61 87.41 75.34 C 85.93 75.09 84.45 74.85 82.97 74.62 C 83.98 74.04 84.98 73.45 85.99 72.87 C 86.14 71.50 86.28 70.13 86.43 68.77 C 85.52 68.56 84.62 68.36 83.71 68.16 C 85.79 66.92 88.04 65.70 89.17 63.45 C 87.75 62.86 86.31 62.31 84.89 61.72 C 83.85 61.98 82.81 62.23 81.78 62.50 C 83.51 61.25 85.19 59.85 86.19 57.92 C 87.40 57.43 88.63 56.98 89.85 56.51 C 89.23 56.10 88.61 55.69 87.97 55.30 C 90.34 54.43 92.28 52.77 91.90 49.95 C 88.87 51.11 85.81 52.19 82.66 53.01 C 85.36 51.92 87.98 50.69 90.55 49.33 M 89.85 75.03 C 94.19 74.22 94.90 67.01 90.97 65.23 C 87.39 67.30 88.40 71.91 89.85 75.03 Z" />
</g>
<g id="#794122ff">
<path fill="#794122" opacity="1.00" d=" M 94.87 49.76 L 95.64 49.85 C 97.23 50.07 98.84 50.24 100.45 50.35 C 99.58 50.75 98.72 51.16 97.87 51.58 C 99.27 51.68 100.67 51.78 102.07 51.87 C 101.77 53.03 101.37 54.16 101.01 55.30 C 100.51 55.20 99.50 54.99 99.00 54.89 C 98.55 55.27 97.64 56.03 97.19 56.41 C 96.30 56.28 94.51 56.01 93.61 55.88 C 93.19 53.70 93.33 51.48 94.87 49.76 Z" />
</g>
<g id="#5e2800ff">
<path fill="#5e2800" opacity="1.00" d=" M 107.13 50.14 C 110.63 50.11 114.39 49.33 117.69 50.85 C 114.01 51.45 110.27 51.35 106.56 51.25 L 107.13 50.14 Z" />
</g>
<g id="#703a1cff">
<path fill="#703a1c" opacity="1.00" d=" M 82.66 53.01 C 85.81 52.19 88.87 51.11 91.90 49.95 C 92.28 52.77 90.34 54.43 87.97 55.30 C 85.03 56.77 82.01 58.30 78.66 58.47 C 78.65 57.82 78.62 56.51 78.60 55.85 L 78.74 54.97 L 78.92 53.89 L 80.26 54.11 C 80.72 53.89 81.64 53.43 82.10 53.20 L 82.66 53.01 Z" />
</g>
<g id="#864e2aff">
<path fill="#864e2a" opacity="1.00" d=" M 106.56 51.25 C 110.27 51.35 114.01 51.45 117.69 50.85 C 116.53 51.34 115.36 51.80 114.18 52.23 C 115.39 53.03 116.51 53.96 117.72 54.77 C 117.15 55.16 116.01 55.94 115.45 56.33 C 116.01 57.22 116.58 58.10 117.16 58.97 C 113.45 59.75 109.68 60.20 105.90 60.37 C 105.92 59.55 105.98 57.92 106.01 57.10 C 107.72 56.62 109.42 56.10 111.12 55.59 C 109.41 55.02 107.69 54.50 105.97 53.97 C 106.07 53.46 106.26 52.43 106.35 51.92 C 106.40 51.75 106.51 51.41 106.56 51.25 Z" />
</g>
<g id="#6d3916ff">
<path fill="#6d3916" opacity="1.00" d=" M 119.05 50.90 C 122.50 52.10 127.06 51.36 129.63 54.20 C 127.97 54.33 126.31 54.45 124.65 54.56 C 122.95 54.71 121.25 54.88 119.55 55.08 C 119.43 53.68 119.25 52.28 119.05 50.90 Z" />
</g>
<g id="#67544aa1">
<path fill="#67544a" opacity="0.63" d=" M 80.37 53.24 C 80.80 53.23 81.67 53.21 82.10 53.20 C 81.64 53.43 80.72 53.89 80.26 54.11 L 80.37 53.24 Z" />
</g>
<g id="#895030ff">
<path fill="#895030" opacity="1.00" d=" M 119.55 55.08 C 121.25 54.88 122.95 54.71 124.65 54.56 C 126.06 55.40 127.48 56.22 128.88 57.08 C 127.62 57.64 126.37 58.19 125.12 58.75 C 125.70 59.38 126.28 60.02 126.87 60.66 C 126.34 60.99 125.29 61.65 124.76 61.98 C 125.80 62.45 126.85 62.92 127.89 63.39 C 126.96 64.60 126.04 65.82 125.11 67.03 C 126.03 67.28 126.95 67.54 127.86 67.81 C 127.28 68.67 126.70 69.53 126.12 70.40 C 126.93 70.65 128.55 71.17 129.36 71.42 C 127.92 73.10 125.64 73.55 123.71 74.45 C 125.62 74.88 127.54 75.28 129.47 75.66 C 129.60 76.66 129.72 77.67 129.83 78.68 C 129.41 78.60 128.57 78.44 128.16 78.37 C 125.54 80.23 122.69 81.81 119.50 82.43 C 119.14 77.19 117.76 71.91 118.76 66.67 C 119.68 62.85 118.61 58.91 119.55 55.08 Z" />
</g>
<g id="#c58f66ff">
<path fill="#c58f66" opacity="1.00" d=" M 76.31 53.62 C 76.92 53.96 78.13 54.63 78.74 54.97 L 78.60 55.85 C 77.69 60.50 76.34 65.02 74.31 69.30 C 73.33 74.26 72.88 79.44 73.54 84.48 C 73.67 87.12 73.22 89.74 72.74 92.34 C 71.17 92.91 69.59 93.48 68.01 94.01 C 67.40 93.95 66.19 93.82 65.58 93.75 C 67.37 92.68 69.18 91.65 70.99 90.63 C 70.45 90.49 69.38 90.20 68.85 90.05 C 69.55 89.18 70.25 88.32 70.95 87.45 C 70.54 87.15 69.73 86.54 69.33 86.24 C 70.61 85.23 71.15 83.81 71.13 82.20 C 70.35 81.98 68.79 81.55 68.01 81.33 C 69.09 80.26 70.38 79.28 70.87 77.77 C 69.91 77.17 68.90 76.65 67.85 76.23 C 69.23 75.19 70.58 74.11 71.90 73.00 C 70.67 72.60 69.43 72.21 68.20 71.82 C 68.99 71.04 69.77 70.26 70.55 69.49 C 70.57 68.69 70.58 67.89 70.59 67.10 C 71.50 66.35 72.42 65.62 73.33 64.88 C 72.61 64.82 71.18 64.69 70.47 64.63 C 70.65 64.26 71.00 63.53 71.18 63.16 C 70.60 62.93 69.45 62.47 68.87 62.24 C 71.25 61.24 73.91 60.71 75.86 58.90 C 74.17 58.78 72.47 58.69 70.77 58.62 C 72.78 57.79 74.86 56.97 76.48 55.47 C 76.44 55.00 76.35 54.08 76.31 53.62 Z" />
<path fill="#c58f66" opacity="1.00" d=" M 62.50 60.94 C 64.20 59.63 66.16 58.74 68.15 57.99 C 66.26 59.24 64.37 60.52 62.65 62.01 C 62.48 61.89 62.15 61.67 61.99 61.55 C 61.55 61.29 60.67 60.77 60.24 60.51 C 60.99 60.65 61.75 60.79 62.50 60.94 Z" />
</g>
<g id="#8a5131ff">
<path fill="#8a5131" opacity="1.00" d=" M 78.66 58.47 C 82.01 58.30 85.03 56.77 87.97 55.30 C 88.61 55.69 89.23 56.10 89.85 56.51 C 88.63 56.98 87.40 57.43 86.19 57.92 C 85.19 59.85 83.51 61.25 81.78 62.50 C 82.81 62.23 83.85 61.98 84.89 61.72 C 86.31 62.31 87.75 62.86 89.17 63.45 C 88.04 65.70 85.79 66.92 83.71 68.16 C 84.62 68.36 85.52 68.56 86.43 68.77 C 86.28 70.13 86.14 71.50 85.99 72.87 C 84.98 73.45 83.98 74.04 82.97 74.62 C 84.45 74.85 85.93 75.09 87.41 75.34 C 86.10 76.61 84.52 77.57 82.88 78.35 C 84.82 78.50 86.76 78.63 88.69 78.87 C 87.23 79.93 85.69 80.88 84.05 81.64 C 85.83 81.90 87.61 82.17 89.39 82.47 C 87.51 83.20 85.64 83.93 83.78 84.70 C 81.66 85.72 79.32 85.94 77.01 86.02 C 77.04 80.30 76.43 74.60 76.58 68.87 C 74.14 74.04 75.25 79.92 74.80 85.42 L 73.54 84.48 C 72.88 79.44 73.33 74.26 74.31 69.30 C 76.34 65.02 77.69 60.50 78.60 55.85 C 78.62 56.51 78.65 57.82 78.66 58.47 Z" />
</g>
<g id="#895031ff">
<path fill="#895031" opacity="1.00" d=" M 97.19 56.41 C 97.64 56.03 98.55 55.27 99.00 54.89 C 99.50 54.99 100.51 55.20 101.01 55.30 C 101.89 55.61 102.78 55.93 103.65 56.27 C 103.18 57.05 102.70 57.83 102.23 58.62 C 102.80 59.30 103.37 59.98 103.94 60.67 C 100.58 60.64 95.70 62.97 93.57 59.33 C 94.78 58.37 96.03 57.45 97.19 56.41 Z" />
<path fill="#895031" opacity="1.00" d=" M 62.29 64.35 C 64.71 64.58 66.75 63.16 68.87 62.24 C 69.45 62.47 70.60 62.93 71.18 63.16 C 71.00 63.53 70.65 64.26 70.47 64.63 C 71.18 64.69 72.61 64.82 73.33 64.88 C 72.42 65.62 71.50 66.35 70.59 67.10 C 70.58 67.89 70.57 68.69 70.55 69.49 C 69.77 70.26 68.99 71.04 68.20 71.82 C 69.43 72.21 70.67 72.60 71.90 73.00 C 70.58 74.11 69.23 75.19 67.85 76.23 C 68.90 76.65 69.91 77.17 70.87 77.77 C 70.38 79.28 69.09 80.26 68.01 81.33 C 68.79 81.55 70.35 81.98 71.13 82.20 C 71.15 83.81 70.61 85.23 69.33 86.24 C 66.67 84.87 63.61 85.47 60.77 85.71 C 61.32 85.46 62.42 84.94 62.98 84.68 C 61.97 84.41 60.96 84.14 59.95 83.87 C 60.64 78.73 59.15 72.31 63.38 68.35 C 63.00 67.99 62.24 67.27 61.86 66.91 C 62.00 66.05 62.14 65.20 62.29 64.35 Z" />
</g>
<g id="#703919ff">
<path fill="#703919" opacity="1.00" d=" M 130.96 60.17 C 130.26 58.23 130.28 56.16 130.67 54.16 L 132.07 55.17 C 132.55 55.41 133.51 55.88 133.99 56.11 C 134.23 56.26 134.71 56.55 134.95 56.69 C 135.33 57.31 136.11 58.55 136.50 59.17 C 135.62 59.27 133.87 59.46 133.00 59.56 C 135.09 60.50 137.07 61.65 138.95 62.97 C 137.95 63.23 136.95 63.48 135.95 63.73 C 136.70 64.85 137.60 65.86 138.36 66.99 C 137.29 67.81 136.18 68.59 135.11 69.40 C 136.26 70.28 137.47 71.08 138.63 71.95 C 138.12 73.39 137.62 74.83 137.19 76.29 C 137.67 76.89 138.17 77.47 138.69 78.05 C 138.28 78.54 137.88 79.03 137.48 79.52 C 138.77 81.40 139.57 83.53 140.44 85.63 C 139.99 86.31 139.55 87.01 139.12 87.70 C 140.34 87.53 141.56 87.32 142.79 87.13 C 142.27 88.37 141.66 89.58 141.21 90.85 C 141.40 91.31 141.77 92.24 141.95 92.70 C 141.35 93.93 140.72 95.16 139.99 96.33 C 138.95 95.54 137.89 94.78 136.87 93.97 C 136.80 93.86 136.67 93.64 136.60 93.53 C 133.73 89.41 132.25 84.50 131.89 79.52 C 133.98 80.52 133.70 83.00 134.22 84.89 C 134.59 87.47 135.59 89.91 137.31 91.88 C 136.58 85.87 134.75 80.06 134.21 74.02 C 133.21 69.39 134.42 63.96 130.96 60.17 Z" />
</g>
<g id="#574437a3">
<path fill="#574437" opacity="0.64" d=" M 132.07 55.17 L 132.91 54.72 L 133.89 55.21 L 133.99 56.11 C 133.51 55.88 132.55 55.41 132.07 55.17 Z" />
</g>
<g id="#7b492bff">
<path fill="#7b492b" opacity="1.00" d=" M 68.15 57.99 C 70.61 56.57 73.57 54.13 76.48 55.47 C 74.86 56.97 72.78 57.79 70.77 58.62 C 72.47 58.69 74.17 58.78 75.86 58.90 C 73.91 60.71 71.25 61.24 68.87 62.24 C 66.75 63.16 64.71 64.58 62.29 64.35 C 62.38 63.76 62.56 62.59 62.65 62.01 C 64.37 60.52 66.26 59.24 68.15 57.99 Z" />
</g>
<g id="#b9834fff">
<path fill="#b9834f" opacity="1.00" d=" M 134.95 56.69 C 137.44 58.23 139.27 60.55 141.38 62.53 C 139.75 69.96 140.57 78.13 144.05 84.94 C 145.22 87.63 145.64 90.56 146.51 93.34 C 146.97 91.21 147.45 89.08 147.99 86.97 C 150.54 86.14 153.07 85.25 155.50 84.12 C 153.84 86.29 150.89 86.93 148.51 87.97 C 147.81 92.78 146.28 97.53 145.59 102.15 C 145.41 102.06 145.05 101.89 144.87 101.81 C 144.68 101.71 144.31 101.52 144.12 101.43 C 145.41 99.54 146.23 97.41 145.58 95.11 C 144.37 95.95 143.18 96.82 142.00 97.68 C 142.95 95.17 143.56 92.54 143.76 89.86 C 143.13 90.79 142.52 91.73 141.95 92.70 C 141.77 92.24 141.40 91.31 141.21 90.85 C 141.66 89.58 142.27 88.37 142.79 87.13 C 141.56 87.32 140.34 87.53 139.12 87.70 C 139.55 87.01 139.99 86.31 140.44 85.63 C 139.57 83.53 138.77 81.40 137.48 79.52 C 137.88 79.03 138.28 78.54 138.69 78.05 C 138.17 77.47 137.67 76.89 137.19 76.29 C 137.62 74.83 138.12 73.39 138.63 71.95 C 137.47 71.08 136.26 70.28 135.11 69.40 C 136.18 68.59 137.29 67.81 138.36 66.99 C 137.60 65.86 136.70 64.85 135.95 63.73 C 136.95 63.48 137.95 63.23 138.95 62.97 C 137.07 61.65 135.09 60.50 133.00 59.56 C 133.87 59.46 135.62 59.27 136.50 59.17 C 136.11 58.55 135.33 57.31 134.95 56.69 Z" />
</g>
<g id="#d0d740ff">
<path fill="#d0d740" opacity="1.00" d=" M 165.02 58.44 L 166.17 58.46 C 166.64 62.98 164.58 67.11 163.61 71.42 L 163.28 71.51 C 161.17 72.00 159.14 72.80 157.04 73.32 C 153.46 73.77 150.22 71.87 147.24 70.17 C 155.21 71.08 161.20 64.60 165.02 58.44 Z" />
</g>
<g id="#743d1dff">
<path fill="#743d1d" opacity="1.00" d=" M 54.00 64.23 C 55.94 62.77 58.01 61.49 60.24 60.51 C 60.67 60.77 61.55 61.29 61.99 61.55 C 61.59 62.12 60.80 63.27 60.40 63.84 C 58.98 64.29 57.56 64.74 56.15 65.21 C 56.59 65.60 57.48 66.39 57.93 66.78 C 56.66 67.80 55.39 68.83 54.08 69.80 C 51.52 71.64 48.76 73.21 45.84 74.41 C 45.89 72.62 46.27 70.86 46.88 69.19 L 47.20 68.30 L 47.89 67.96 C 50.07 66.98 52.09 65.67 54.00 64.23 Z" />
</g>
<g id="#8f5531ff">
<path fill="#8f5531" opacity="1.00" d=" M 131.89 79.52 C 132.44 72.97 128.22 66.54 130.96 60.17 C 134.42 63.96 133.21 69.39 134.21 74.02 C 134.75 80.06 136.58 85.87 137.31 91.88 C 135.59 89.91 134.59 87.47 134.22 84.89 C 133.70 83.00 133.98 80.52 131.89 79.52 Z" />
</g>
<g id="#c79164ff">
<path fill="#c79164" opacity="1.00" d=" M 61.99 61.55 C 62.15 61.67 62.48 61.89 62.65 62.01 C 62.56 62.59 62.38 63.76 62.29 64.35 C 62.14 65.20 62.00 66.05 61.86 66.91 C 62.24 67.27 63.00 67.99 63.38 68.35 C 59.15 72.31 60.64 78.73 59.95 83.87 C 59.43 85.30 58.88 86.72 58.27 88.11 C 55.82 88.23 53.37 88.33 50.92 88.41 C 52.73 87.98 54.52 87.49 56.28 86.90 C 56.73 86.72 57.64 86.36 58.09 86.18 C 56.85 85.16 55.52 84.28 54.26 83.30 C 55.98 82.03 59.08 80.55 57.01 78.09 C 57.52 75.92 58.32 73.71 57.97 71.44 C 58.71 68.89 59.53 66.35 60.40 63.84 C 60.80 63.27 61.59 62.12 61.99 61.55 Z" />
</g>
<g id="#8a5031ff">
<path fill="#8a5031" opacity="1.00" d=" M 95.09 63.05 C 98.03 62.38 101.05 62.13 104.07 62.18 C 103.81 64.48 101.66 65.25 99.81 66.05 C 100.79 66.57 101.76 67.11 102.71 67.69 C 102.58 68.70 101.72 69.36 101.19 70.16 C 101.44 71.70 101.72 73.22 101.99 74.75 C 100.87 75.51 99.74 76.25 98.62 77.00 C 99.69 77.39 100.76 77.78 101.84 78.16 C 102.40 80.73 101.84 83.15 100.01 85.06 C 101.38 86.12 102.94 86.86 104.67 87.09 C 104.65 81.90 102.41 75.91 106.31 71.56 C 105.79 70.38 105.26 69.20 104.84 67.99 C 106.88 66.46 109.79 66.54 112.15 65.58 C 109.91 64.98 107.65 64.45 105.40 63.89 C 105.66 63.54 106.18 62.84 106.45 62.49 C 109.95 61.90 113.53 62.34 117.06 62.33 C 116.95 63.72 117.23 65.30 116.38 66.52 C 115.13 67.48 113.60 67.95 112.18 68.57 C 113.58 69.29 117.53 69.57 116.08 71.84 C 113.73 72.79 111.28 73.46 108.92 74.39 C 111.49 74.55 114.06 74.65 116.63 74.79 C 115.70 77.86 111.75 77.31 109.46 78.92 C 111.91 79.24 114.37 79.38 116.84 79.39 C 115.99 80.26 114.98 80.96 114.13 81.84 C 114.76 82.14 116.04 82.75 116.67 83.06 C 114.99 84.02 113.35 85.04 111.70 86.04 C 111.50 88.67 111.60 91.43 113.47 93.49 C 112.95 93.31 111.92 92.94 111.40 92.76 L 111.32 92.37 C 111.15 90.26 110.88 88.04 109.20 86.55 L 107.89 86.72 L 107.06 86.90 C 106.59 87.01 105.63 87.22 105.15 87.33 C 104.97 88.67 104.81 90.01 104.67 91.36 C 104.33 91.24 103.65 90.99 103.31 90.87 C 103.05 90.46 102.55 89.63 102.30 89.22 C 98.61 89.19 95.68 85.84 91.97 86.71 C 91.41 87.83 90.92 88.97 90.47 90.13 C 92.12 90.47 93.79 90.70 95.44 91.04 C 94.64 91.70 93.83 92.37 93.03 93.04 C 91.39 92.86 89.75 92.70 88.10 92.59 C 88.02 92.90 87.85 93.52 87.76 93.83 C 86.94 93.46 86.13 93.09 85.32 92.72 C 85.48 91.86 85.65 91.01 85.82 90.15 C 85.40 90.44 84.57 91.01 84.15 91.30 C 83.31 91.17 81.63 90.90 80.79 90.77 C 82.88 89.85 85.01 89.02 87.16 88.24 C 86.43 88.03 84.96 87.62 84.23 87.42 C 85.19 87.06 86.16 86.72 87.15 86.47 C 88.40 86.62 89.66 86.73 90.92 86.78 C 91.76 85.35 91.83 83.64 92.21 82.07 C 93.86 81.56 95.51 81.08 97.15 80.58 C 95.80 80.26 94.45 79.93 93.11 79.61 C 94.57 74.21 96.22 68.69 95.09 63.05 Z" />
</g>
<g id="#703d1aff">
<path fill="#703d1a" opacity="1.00" d=" M 141.38 62.53 C 143.44 64.59 144.90 67.13 146.01 69.80 C 145.52 69.77 144.53 69.71 144.04 69.68 C 145.99 75.28 147.07 81.13 147.99 86.97 C 147.45 89.08 146.97 91.21 146.51 93.34 C 145.64 90.56 145.22 87.63 144.05 84.94 C 140.57 78.13 139.75 69.96 141.38 62.53 Z" />
</g>
<g id="#e7e2c2ff">
<path fill="#e7e2c2" opacity="1.00" d=" M 47.89 67.96 C 49.79 66.51 51.78 65.14 54.00 64.23 C 52.09 65.67 50.07 66.98 47.89 67.96 Z" />
<path fill="#e7e2c2" opacity="1.00" d=" M 72.67 99.65 C 78.29 97.57 85.05 97.71 90.33 100.71 C 91.00 101.12 92.35 101.93 93.02 102.33 C 92.19 102.64 90.54 103.27 89.71 103.59 C 92.48 103.42 95.34 103.73 97.26 105.96 C 97.08 106.35 96.74 107.13 96.57 107.52 C 97.20 107.63 98.47 107.85 99.10 107.96 C 101.71 111.52 103.88 115.36 105.76 119.35 C 104.16 119.77 102.57 120.21 100.98 120.64 C 102.78 120.65 104.59 120.60 106.40 120.61 C 106.45 121.53 106.54 123.36 106.59 124.28 C 104.46 124.53 102.34 124.80 100.23 125.11 C 102.62 125.15 105.00 124.95 107.36 124.56 C 108.56 129.66 109.47 134.88 109.38 140.13 C 108.39 141.51 106.58 141.61 105.10 142.12 C 106.55 142.17 107.99 142.26 109.43 142.33 C 109.12 144.08 108.82 145.82 108.54 147.57 C 108.40 148.36 108.26 149.15 108.12 149.95 C 108.31 153.96 103.88 153.18 101.41 154.63 C 103.20 154.83 104.90 154.07 106.63 153.75 C 106.60 154.33 106.54 155.47 106.51 156.04 C 105.21 156.80 103.94 157.60 102.61 158.30 C 104.84 159.10 103.07 160.21 101.97 161.09 C 102.21 162.01 102.42 162.95 102.58 163.89 C 101.25 164.47 99.90 165.01 98.56 165.57 C 98.90 165.83 99.59 166.35 99.93 166.61 C 97.46 168.68 94.87 170.64 91.99 172.11 C 83.86 175.19 74.71 172.12 68.84 166.06 C 55.93 152.62 52.98 131.45 59.64 114.34 C 59.94 113.73 60.55 112.51 60.86 111.90 C 61.17 111.31 61.47 110.72 61.80 110.14 C 62.46 108.98 63.16 107.83 63.89 106.72 C 66.23 103.72 69.29 101.36 72.67 99.65 Z" />
<path fill="#e7e2c2" opacity="1.00" d=" M 38.52 103.06 C 39.74 103.59 40.64 104.61 41.22 105.81 C 39.73 106.95 37.37 104.54 38.52 103.06 Z" />
<path fill="#e7e2c2" opacity="1.00" d=" M 147.98 142.50 C 148.15 141.24 148.81 140.57 149.95 140.49 C 150.10 142.10 149.45 142.77 147.98 142.50 Z" />
</g>
<g id="#a16a44ff">
<path fill="#a16a44" opacity="1.00" d=" M 56.15 65.21 C 57.56 64.74 58.98 64.29 60.40 63.84 C 59.53 66.35 58.71 68.89 57.97 71.44 C 58.32 73.71 57.52 75.92 57.01 78.09 C 56.62 77.93 55.84 77.60 55.46 77.44 C 55.84 76.26 56.23 75.08 56.62 73.90 C 55.78 72.53 54.93 71.16 54.08 69.80 C 55.39 68.83 56.66 67.80 57.93 66.78 C 57.48 66.39 56.59 65.60 56.15 65.21 Z" />
</g>
<g id="#703b18ff">
<path fill="#703b18" opacity="1.00" d=" M 89.85 75.03 C 88.40 71.91 87.39 67.30 90.97 65.23 C 94.90 67.01 94.19 74.22 89.85 75.03 Z" />
</g>
<g id="#bc8152ff">
<path fill="#bc8152" opacity="1.00" d=" M 43.31 69.24 C 44.50 69.22 45.69 69.20 46.88 69.19 C 46.27 70.86 45.89 72.62 45.84 74.41 C 46.43 81.38 44.55 88.41 45.97 95.29 C 45.47 97.78 44.91 100.26 44.34 102.74 C 45.37 103.07 46.40 103.40 47.44 103.71 C 46.83 103.88 45.61 104.22 45.00 104.39 C 44.81 105.67 44.64 106.96 44.50 108.25 C 44.09 108.02 43.29 107.55 42.89 107.31 C 42.42 103.12 42.25 98.86 43.14 94.70 C 41.47 91.57 42.81 87.98 43.56 84.78 C 43.32 84.52 42.85 84.02 42.61 83.76 C 43.68 81.72 43.50 79.44 43.06 77.25 C 41.63 77.21 40.20 77.17 38.78 77.12 C 40.36 75.25 42.03 73.45 43.74 71.69 C 43.33 71.46 42.51 71.00 42.10 70.77 C 42.40 70.39 43.01 69.62 43.31 69.24 Z" />
</g>
<g id="#9e6645ff">
<path fill="#9e6645" opacity="1.00" d=" M 74.80 85.42 C 75.25 79.92 74.14 74.04 76.58 68.87 C 76.43 74.60 77.04 80.30 77.01 86.02 C 76.94 86.82 76.81 88.40 76.75 89.20 C 76.56 89.80 76.18 91.02 75.99 91.63 C 75.59 89.56 75.18 87.49 74.80 85.42 Z" />
</g>
<g id="#8b5032ff">
<path fill="#8b5032" opacity="1.00" d=" M 45.84 74.41 C 48.76 73.21 51.52 71.64 54.08 69.80 C 54.93 71.16 55.78 72.53 56.62 73.90 C 56.23 75.08 55.84 76.26 55.46 77.44 C 55.84 77.60 56.62 77.93 57.01 78.09 C 59.08 80.55 55.98 82.03 54.26 83.30 C 55.52 84.28 56.85 85.16 58.09 86.18 C 57.64 86.36 56.73 86.72 56.28 86.90 C 54.03 85.25 51.75 83.56 49.00 82.84 C 47.78 86.99 48.97 91.76 45.97 95.29 C 44.55 88.41 46.43 81.38 45.84 74.41 Z" />
</g>
<g id="#99aa1eff">
<path fill="#99aa1e" opacity="1.00" d=" M 144.04 69.68 C 144.53 69.71 145.52 69.77 146.01 69.80 C 146.32 69.89 146.93 70.07 147.24 70.17 C 150.22 71.87 153.46 73.77 157.04 73.32 C 159.14 72.80 161.17 72.00 163.28 71.51 C 162.08 76.39 159.45 80.95 155.50 84.12 C 153.07 85.25 150.54 86.14 147.99 86.97 C 147.07 81.13 145.99 75.28 144.04 69.68 Z" />
</g>
<g id="#713b1cff">
<path fill="#713b1c" opacity="1.00" d=" M 33.90 82.98 C 33.45 77.48 38.63 74.16 42.10 70.77 C 42.51 71.00 43.33 71.46 43.74 71.69 C 42.03 73.45 40.36 75.25 38.78 77.12 C 40.20 77.17 41.63 77.21 43.06 77.25 C 43.50 79.44 43.68 81.72 42.61 83.76 C 42.85 84.02 43.32 84.52 43.56 84.78 C 42.81 87.98 41.47 91.57 43.14 94.70 C 42.25 98.86 42.42 103.12 42.89 107.31 L 41.87 106.72 L 41.67 106.57 C 41.38 103.53 40.84 100.53 40.19 97.56 C 38.86 97.09 37.54 96.60 36.19 96.21 C 35.75 96.40 34.86 96.79 34.42 96.99 L 33.84 97.25 C 33.86 96.43 33.89 94.80 33.91 93.98 C 33.97 90.31 33.96 86.65 33.90 82.98 Z" />
</g>
<g id="#723919ff">
<path fill="#723919" opacity="1.00" d=" M 128.16 78.37 C 128.57 78.44 129.41 78.60 129.83 78.68 L 129.63 79.55 C 129.23 79.97 128.45 80.80 128.05 81.21 C 128.98 81.83 129.90 82.45 130.83 83.06 C 129.57 83.93 128.25 84.72 126.99 85.58 C 128.40 85.66 129.82 85.74 131.24 85.83 C 130.58 86.79 129.93 87.76 129.28 88.73 C 129.83 88.86 130.92 89.10 131.47 89.22 C 131.52 89.88 131.59 90.54 131.69 91.19 L 131.96 92.39 C 128.45 91.70 125.08 90.50 121.64 89.54 L 121.56 89.51 C 121.22 88.93 120.55 87.78 120.21 87.20 C 121.12 86.73 122.03 86.26 122.95 85.80 C 121.84 85.34 120.72 84.89 119.63 84.39 C 119.60 83.90 119.53 82.92 119.50 82.43 C 122.69 81.81 125.54 80.23 128.16 78.37 Z" />
</g>
<g id="#7e6a5ee6">
<path fill="#7e6a5e" opacity="0.90" d=" M 33.00 82.92 L 33.90 82.98 C 33.96 86.65 33.97 90.31 33.91 93.98 L 33.04 94.06 C 32.99 90.34 33.00 86.63 33.00 82.92 Z" />
</g>
<g id="#70391aff">
<path fill="#70391a" opacity="1.00" d=" M 49.00 82.84 C 51.75 83.56 54.03 85.25 56.28 86.90 C 54.52 87.49 52.73 87.98 50.92 88.41 C 53.37 88.33 55.82 88.23 58.27 88.11 C 58.07 88.54 57.67 89.40 57.47 89.83 C 54.71 90.98 51.81 91.74 48.94 92.59 C 52.03 92.56 55.28 91.37 58.27 92.56 C 56.46 93.30 54.61 93.94 52.76 94.57 C 53.47 94.69 54.89 94.93 55.59 95.05 C 55.54 96.49 55.51 97.94 55.45 99.38 C 54.00 100.04 52.53 100.66 51.17 101.49 C 49.98 102.29 48.92 103.42 47.44 103.71 C 46.40 103.40 45.37 103.07 44.34 102.74 C 44.91 100.26 45.47 97.78 45.97 95.29 C 48.97 91.76 47.78 86.99 49.00 82.84 Z" />
</g>
<g id="#6e3717ff">
<path fill="#6e3717" opacity="1.00" d=" M 116.67 83.06 C 116.93 83.18 117.44 83.44 117.69 83.56 C 118.05 85.50 116.98 87.03 115.73 88.38 C 116.85 88.60 117.96 88.81 119.08 89.03 C 117.94 89.95 116.76 90.82 115.60 91.73 C 117.15 91.91 118.69 92.10 120.24 92.29 C 119.91 93.51 119.16 94.35 117.97 94.82 C 116.45 94.43 114.94 94.00 113.47 93.49 C 111.60 91.43 111.50 88.67 111.70 86.04 C 113.35 85.04 114.99 84.02 116.67 83.06 Z" />
</g>
<g id="#b67f4eff">
<path fill="#b67f4e" opacity="1.00" d=" M 59.95 83.87 C 60.96 84.14 61.97 84.41 62.98 84.68 C 62.42 84.94 61.32 85.46 60.77 85.71 L 59.87 86.10 C 60.53 90.31 59.50 94.46 58.95 98.61 C 61.17 98.12 61.13 95.76 61.68 94.02 C 61.79 95.71 61.91 97.41 62.04 99.10 L 61.47 99.54 C 60.63 100.05 59.79 100.54 58.94 101.02 C 59.35 104.19 58.97 107.96 61.80 110.14 C 61.47 110.72 61.17 111.31 60.86 111.90 C 58.85 111.58 56.85 111.27 54.85 110.88 C 56.25 110.63 57.66 110.44 59.06 110.20 C 58.79 109.06 58.52 107.91 58.25 106.77 C 56.77 106.55 55.30 106.32 53.82 106.09 C 55.20 105.83 56.55 105.41 57.94 105.19 C 57.20 102.25 53.51 102.32 51.17 101.49 C 52.53 100.66 54.00 100.04 55.45 99.38 C 55.51 97.94 55.54 96.49 55.59 95.05 C 54.89 94.93 53.47 94.69 52.76 94.57 C 54.61 93.94 56.46 93.30 58.27 92.56 C 55.28 91.37 52.03 92.56 48.94 92.59 C 51.81 91.74 54.71 90.98 57.47 89.83 C 57.67 89.40 58.07 88.54 58.27 88.11 C 58.88 86.72 59.43 85.30 59.95 83.87 Z" />
</g>
<g id="#7c4729ff">
<path fill="#7c4729" opacity="1.00" d=" M 77.01 86.02 C 79.32 85.94 81.66 85.72 83.78 84.70 C 84.89 85.31 86.01 85.91 87.15 86.47 C 86.16 86.72 85.19 87.06 84.23 87.42 C 81.79 88.21 79.27 88.74 76.75 89.20 C 76.81 88.40 76.94 86.82 77.01 86.02 Z" />
</g>
<g id="#723a19ff">
<path fill="#723a19" opacity="1.00" d=" M 60.77 85.71 C 63.61 85.47 66.67 84.87 69.33 86.24 C 69.73 86.54 70.54 87.15 70.95 87.45 C 70.25 88.32 69.55 89.18 68.85 90.05 C 69.38 90.20 70.45 90.49 70.99 90.63 C 69.18 91.65 67.37 92.68 65.58 93.75 C 66.19 93.82 67.40 93.95 68.01 94.01 C 65.84 95.49 63.99 97.36 62.04 99.10 C 61.91 97.41 61.79 95.71 61.68 94.02 C 61.13 95.76 61.17 98.12 58.95 98.61 C 59.50 94.46 60.53 90.31 59.87 86.10 L 60.77 85.71 Z" />
</g>
<g id="#6f3c1cff">
<path fill="#6f3c1c" opacity="1.00" d=" M 72.74 92.34 C 73.22 89.74 73.67 87.12 73.54 84.48 L 74.80 85.42 C 75.18 87.49 75.59 89.56 75.99 91.63 C 76.04 93.29 76.09 94.96 76.15 96.62 C 78.51 95.71 80.90 94.92 83.32 94.21 C 83.60 93.24 83.87 92.27 84.15 91.30 C 84.57 91.01 85.40 90.44 85.82 90.15 C 85.65 91.01 85.48 91.86 85.32 92.72 C 86.13 93.09 86.94 93.46 87.76 93.83 C 88.15 96.07 88.88 98.24 89.87 100.29 L 90.33 100.71 C 85.05 97.71 78.29 97.57 72.67 99.65 C 72.44 97.22 72.26 94.75 72.74 92.34 Z" />
</g>
<g id="#4a200aff">
<path fill="#4a200a" opacity="1.00" d=" M 91.97 86.71 C 95.68 85.84 98.61 89.19 102.30 89.22 C 101.49 89.90 100.66 90.56 99.81 91.19 C 99.46 91.36 98.77 91.71 98.43 91.88 C 98.63 92.38 99.04 93.37 99.24 93.87 C 99.02 94.78 98.79 95.70 98.55 96.61 C 96.51 96.47 94.50 96.15 92.55 95.55 C 94.15 95.13 95.75 94.67 97.33 94.19 C 96.02 93.43 94.51 93.20 93.03 93.04 C 93.83 92.37 94.64 91.70 95.44 91.04 C 93.79 90.70 92.12 90.47 90.47 90.13 C 90.92 88.97 91.41 87.83 91.97 86.71 Z" />
</g>
<g id="#53280dff">
<path fill="#53280d" opacity="1.00" d=" M 105.15 87.33 C 105.63 87.22 106.59 87.01 107.06 86.90 C 106.90 88.59 106.84 90.29 106.73 91.98 C 106.21 91.83 105.18 91.51 104.67 91.36 C 104.81 90.01 104.97 88.67 105.15 87.33 Z" />
</g>
<g id="#703a17ff">
<path fill="#703a17" opacity="1.00" d=" M 107.06 86.90 L 107.89 86.72 C 108.06 88.38 108.16 90.04 108.33 91.69 C 109.08 91.86 110.58 92.20 111.32 92.37 L 111.40 92.76 C 112.03 94.29 112.78 95.76 113.48 97.26 C 109.72 97.06 105.92 96.58 102.51 94.87 C 101.48 93.74 100.66 92.45 99.81 91.19 C 100.66 90.56 101.49 89.90 102.30 89.22 C 102.55 89.63 103.05 90.46 103.31 90.87 C 103.65 90.99 104.33 91.24 104.67 91.36 C 105.18 91.51 106.21 91.83 106.73 91.98 C 106.84 90.29 106.90 88.59 107.06 86.90 Z" />
</g>
<g id="#51270fff">
<path fill="#51270f" opacity="1.00" d=" M 107.89 86.72 L 109.20 86.55 C 110.88 88.04 111.15 90.26 111.32 92.37 C 110.58 92.20 109.08 91.86 108.33 91.69 C 108.16 90.04 108.06 88.38 107.89 86.72 Z" />
</g>
<g id="#482009ff">
<path fill="#482009" opacity="1.00" d=" M 76.75 89.20 C 79.27 88.74 81.79 88.21 84.23 87.42 C 84.96 87.62 86.43 88.03 87.16 88.24 C 85.01 89.02 82.88 89.85 80.79 90.77 C 81.63 90.90 83.31 91.17 84.15 91.30 C 83.87 92.27 83.60 93.24 83.32 94.21 C 80.90 94.92 78.51 95.71 76.15 96.62 C 76.09 94.96 76.04 93.29 75.99 91.63 C 76.18 91.02 76.56 89.80 76.75 89.20 Z" />
</g>
<g id="#794421ff">
<path fill="#794421" opacity="1.00" d=" M 119.08 89.03 C 119.91 89.18 120.74 89.34 121.56 89.51 L 121.64 89.54 C 122.20 90.51 122.69 91.54 123.32 92.48 C 124.95 92.82 126.63 92.86 128.29 93.01 C 127.58 93.98 126.86 94.95 126.20 95.96 L 125.84 96.74 C 126.42 98.36 127.09 99.95 127.64 101.58 C 125.24 100.19 123.02 98.22 120.12 98.05 C 118.37 97.76 116.62 97.46 114.91 97.00 C 116.58 96.27 118.34 95.79 120.12 95.38 C 119.40 95.19 118.68 95.01 117.97 94.82 C 119.16 94.35 119.91 93.51 120.24 92.29 C 118.69 92.10 117.15 91.91 115.60 91.73 C 116.76 90.82 117.94 89.95 119.08 89.03 Z" />
</g>
<g id="#4a200fff">
<path fill="#4a200f" opacity="1.00" d=" M 121.64 89.54 C 125.08 90.50 128.45 91.70 131.96 92.39 C 132.51 93.21 133.09 94.01 133.67 94.82 C 132.65 95.28 131.63 95.74 130.60 96.18 C 129.68 96.47 128.76 96.75 127.84 97.01 C 127.43 96.75 126.61 96.22 126.20 95.96 C 126.86 94.95 127.58 93.98 128.29 93.01 C 126.63 92.86 124.95 92.82 123.32 92.48 C 122.69 91.54 122.20 90.51 121.64 89.54 Z" />
</g>
<g id="#4a2308ff">
<path fill="#4a2308" opacity="1.00" d=" M 141.95 92.70 C 142.52 91.73 143.13 90.79 143.76 89.86 C 143.56 92.54 142.95 95.17 142.00 97.68 C 143.18 96.82 144.37 95.95 145.58 95.11 C 146.23 97.41 145.41 99.54 144.12 101.43 C 142.09 100.68 140.02 100.05 137.95 99.42 C 137.63 97.59 137.32 95.77 136.87 93.97 C 137.89 94.78 138.95 95.54 139.99 96.33 C 140.72 95.16 141.35 93.93 141.95 92.70 Z" />
</g>
<g id="#c69063ff">
<path fill="#c69063" opacity="1.00" d=" M 98.43 91.88 C 98.77 91.71 99.46 91.36 99.81 91.19 C 100.66 92.45 101.48 93.74 102.51 94.87 C 103.50 96.01 104.51 97.13 105.49 98.28 C 105.53 98.55 105.62 99.08 105.67 99.35 C 107.02 99.90 108.37 100.44 109.72 100.99 C 108.17 101.11 106.62 101.23 105.06 101.34 C 105.49 101.55 106.35 101.95 106.78 102.16 C 106.26 103.10 105.73 104.04 105.21 104.98 C 106.89 106.18 108.83 106.89 110.82 107.38 C 110.07 107.90 109.32 108.43 108.58 108.96 C 108.86 110.31 109.14 111.65 109.42 113.00 C 110.61 113.25 111.80 113.49 112.99 113.72 C 111.56 114.66 110.14 115.62 108.75 116.62 C 110.17 116.95 111.59 117.28 113.02 117.60 C 111.37 118.35 109.75 119.20 108.59 120.64 C 110.08 120.96 111.56 121.26 113.06 121.55 C 112.12 122.16 111.17 122.76 110.24 123.37 C 109.67 123.37 108.53 123.37 107.96 123.37 C 106.69 119.89 105.56 116.32 103.56 113.18 C 102.10 110.90 100.73 108.52 100.07 105.87 C 99.05 105.41 98.03 104.95 97.01 104.50 C 98.19 103.66 99.40 102.84 100.52 101.92 C 100.48 99.96 98.36 99.90 97.00 99.24 C 98.93 98.08 101.01 96.15 99.24 93.87 C 99.04 93.37 98.63 92.38 98.43 91.88 Z" />
</g>
<g id="#8d5f34ff">
<path fill="#8d5f34" opacity="1.00" d=" M 131.69 91.19 C 133.14 92.31 134.64 93.62 136.60 93.53 C 136.67 93.64 136.80 93.86 136.87 93.97 C 137.32 95.77 137.63 97.59 137.95 99.42 C 135.36 98.69 132.91 97.55 130.60 96.18 C 131.63 95.74 132.65 95.28 133.67 94.82 C 133.09 94.01 132.51 93.21 131.96 92.39 L 131.69 91.19 Z" />
</g>
<g id="#4f2512ff">
<path fill="#4f2512" opacity="1.00" d=" M 68.01 94.01 C 69.59 93.48 71.17 92.91 72.74 92.34 C 72.26 94.75 72.44 97.22 72.67 99.65 C 69.29 101.36 66.23 103.72 63.89 106.72 C 62.99 104.36 62.19 101.96 61.47 99.54 L 62.04 99.10 C 63.99 97.36 65.84 95.49 68.01 94.01 Z" />
</g>
<g id="#bb824fff">
<path fill="#bb824f" opacity="1.00" d=" M 88.10 92.59 C 89.75 92.70 91.39 92.86 93.03 93.04 C 94.51 93.20 96.02 93.43 97.33 94.19 C 95.75 94.67 94.15 95.13 92.55 95.55 L 92.02 95.44 C 92.56 96.59 93.16 97.71 93.69 98.87 C 92.42 99.34 91.14 99.81 89.87 100.29 C 88.88 98.24 88.15 96.07 87.76 93.83 C 87.85 93.52 88.02 92.90 88.10 92.59 Z" />
</g>
<g id="#c38c65ff">
<path fill="#c38c65" opacity="1.00" d=" M 111.40 92.76 C 111.92 92.94 112.95 93.31 113.47 93.49 C 114.94 94.00 116.45 94.43 117.97 94.82 C 118.68 95.01 119.40 95.19 120.12 95.38 C 118.34 95.79 116.58 96.27 114.91 97.00 C 116.62 97.46 118.37 97.76 120.12 98.05 C 119.42 99.47 118.70 100.88 118.06 102.33 C 118.61 102.66 119.71 103.31 120.27 103.63 C 121.22 105.16 122.20 106.67 123.19 108.17 C 122.46 108.75 121.73 109.33 121.01 109.91 C 122.35 110.84 123.70 111.74 125.04 112.66 C 124.24 113.44 123.43 114.22 122.63 114.99 C 123.59 115.74 124.64 116.36 125.60 117.12 C 123.53 118.87 123.68 121.53 125.72 123.24 C 125.46 123.44 124.95 123.83 124.69 124.02 C 124.28 124.33 123.45 124.94 123.04 125.25 C 121.78 118.80 120.84 112.20 117.97 106.21 C 116.35 103.29 114.79 100.33 113.48 97.26 C 112.78 95.76 112.03 94.29 111.40 92.76 Z" />
</g>
<g id="#895032ff">
<path fill="#895032" opacity="1.00" d=" M 99.24 93.87 C 101.01 96.15 98.93 98.08 97.00 99.24 C 98.36 99.90 100.48 99.96 100.52 101.92 C 99.40 102.84 98.19 103.66 97.01 104.50 C 98.03 104.95 99.05 105.41 100.07 105.87 C 99.82 106.39 99.34 107.44 99.10 107.96 C 98.47 107.85 97.20 107.63 96.57 107.52 C 96.74 107.13 97.08 106.35 97.26 105.96 C 95.34 103.73 92.48 103.42 89.71 103.59 C 90.54 103.27 92.19 102.64 93.02 102.33 C 92.35 101.93 91.00 101.12 90.33 100.71 L 89.87 100.29 C 91.14 99.81 92.42 99.34 93.69 98.87 C 93.16 97.71 92.56 96.59 92.02 95.44 L 92.55 95.55 C 94.50 96.15 96.51 96.47 98.55 96.61 C 98.79 95.70 99.02 94.78 99.24 93.87 Z" />
</g>
<g id="#895131ff">
<path fill="#895131" opacity="1.00" d=" M 102.51 94.87 C 105.92 96.58 109.72 97.06 113.48 97.26 C 114.79 100.33 116.35 103.29 117.97 106.21 C 117.31 107.72 116.44 109.28 116.92 110.99 C 117.61 115.73 118.57 120.43 119.66 125.10 C 117.99 125.32 116.31 125.52 114.63 125.62 C 113.17 124.52 111.43 123.97 109.63 123.78 L 110.24 123.37 C 111.17 122.76 112.12 122.16 113.06 121.55 C 111.56 121.26 110.08 120.96 108.59 120.64 C 109.75 119.20 111.37 118.35 113.02 117.60 C 111.59 117.28 110.17 116.95 108.75 116.62 C 110.14 115.62 111.56 114.66 112.99 113.72 C 111.80 113.49 110.61 113.25 109.42 113.00 C 109.14 111.65 108.86 110.31 108.58 108.96 C 109.32 108.43 110.07 107.90 110.82 107.38 C 108.83 106.89 106.89 106.18 105.21 104.98 C 105.73 104.04 106.26 103.10 106.78 102.16 C 106.35 101.95 105.49 101.55 105.06 101.34 C 106.62 101.23 108.17 101.11 109.72 100.99 C 108.37 100.44 107.02 99.90 105.67 99.35 C 105.62 99.08 105.53 98.55 105.49 98.28 C 104.51 97.13 103.50 96.01 102.51 94.87 Z" />
</g>
<g id="#612c15ff">
<path fill="#612c15" opacity="1.00" d=" M 34.42 96.99 C 34.86 96.79 35.75 96.40 36.19 96.21 C 37.54 96.60 38.86 97.09 40.19 97.56 C 40.84 100.53 41.38 103.53 41.67 106.57 L 41.22 105.81 C 40.64 104.61 39.74 103.59 38.52 103.06 C 35.95 102.12 35.34 99.23 34.42 96.99 Z" />
</g>
<g id="#c89168ff">
<path fill="#c89168" opacity="1.00" d=" M 126.20 95.96 C 126.61 96.22 127.43 96.75 127.84 97.01 L 128.26 97.67 C 131.12 102.73 133.77 108.25 133.79 114.18 C 134.76 114.99 135.75 115.79 136.73 116.59 C 136.54 117.52 136.33 118.45 136.11 119.38 L 135.82 120.30 C 137.52 120.65 139.23 121.01 140.93 121.37 C 139.10 121.45 137.26 121.54 135.43 121.61 C 135.46 122.25 135.51 123.52 135.53 124.16 C 135.14 124.12 134.36 124.05 133.97 124.02 L 133.75 123.16 C 133.72 122.46 133.68 121.07 133.65 120.37 C 133.17 120.21 132.22 119.88 131.74 119.72 C 133.35 114.43 130.23 109.30 128.71 104.36 C 128.14 104.19 127.00 103.87 126.42 103.70 C 126.85 103.16 127.27 102.60 127.69 102.05 C 127.67 101.93 127.65 101.70 127.64 101.58 C 127.09 99.95 126.42 98.36 125.84 96.74 L 126.20 95.96 Z" />
</g>
<g id="#713a1bff">
<path fill="#713a1b" opacity="1.00" d=" M 127.84 97.01 C 128.76 96.75 129.68 96.47 130.60 96.18 C 132.91 97.55 135.36 98.69 137.95 99.42 C 140.02 100.05 142.09 100.68 144.12 101.43 C 144.31 101.52 144.68 101.71 144.87 101.81 C 145.13 102.02 145.66 102.45 145.92 102.66 C 149.00 105.42 153.08 108.46 153.05 112.99 C 153.18 113.51 153.44 114.56 153.57 115.08 C 153.86 115.67 154.43 116.85 154.72 117.44 C 154.73 117.98 154.76 119.07 154.77 119.62 C 154.46 124.50 150.21 128.13 150.54 133.23 C 148.76 127.40 148.17 121.32 147.27 115.31 C 147.57 115.06 148.19 114.55 148.49 114.29 C 145.77 113.09 145.13 110.25 144.50 107.64 C 145.30 107.54 146.89 107.34 147.69 107.24 C 145.40 104.59 143.12 101.81 139.91 100.24 C 140.20 101.00 140.78 102.51 141.07 103.27 C 141.00 103.94 140.88 105.29 140.82 105.96 C 137.53 104.49 134.34 102.81 131.38 100.75 C 131.54 100.26 131.86 99.29 132.02 98.80 C 130.76 98.45 129.51 98.06 128.26 97.67 L 127.84 97.01 Z" />
</g>
<g id="#8a5132ff">
<path fill="#8a5132" opacity="1.00" d=" M 120.12 98.05 C 123.02 98.22 125.24 100.19 127.64 101.58 C 127.65 101.70 127.67 101.93 127.69 102.05 C 127.27 102.60 126.85 103.16 126.42 103.70 C 127.00 103.87 128.14 104.19 128.71 104.36 C 130.23 109.30 133.35 114.43 131.74 119.72 C 132.22 119.88 133.17 120.21 133.65 120.37 C 133.68 121.07 133.72 122.46 133.75 123.16 C 133.55 122.56 133.17 121.37 132.97 120.77 C 130.33 120.85 127.61 121.20 125.72 123.24 C 123.68 121.53 123.53 118.87 125.60 117.12 C 124.64 116.36 123.59 115.74 122.63 114.99 C 123.43 114.22 124.24 113.44 125.04 112.66 C 123.70 111.74 122.35 110.84 121.01 109.91 C 121.73 109.33 122.46 108.75 123.19 108.17 C 122.20 106.67 121.22 105.16 120.27 103.63 C 119.71 103.31 118.61 102.66 118.06 102.33 C 118.70 100.88 119.42 99.47 120.12 98.05 Z" />
</g>
<g id="#8c5234ff">
<path fill="#8c5234" opacity="1.00" d=" M 128.26 97.67 C 129.51 98.06 130.76 98.45 132.02 98.80 C 131.86 99.29 131.54 100.26 131.38 100.75 C 134.34 102.81 137.53 104.49 140.82 105.96 C 140.88 105.29 141.00 103.94 141.07 103.27 C 142.79 108.72 143.09 114.51 145.03 119.90 C 145.81 121.93 145.74 124.12 145.84 126.26 C 143.49 122.79 142.65 118.63 140.93 114.87 C 139.29 116.34 137.65 117.81 136.11 119.38 C 136.33 118.45 136.54 117.52 136.73 116.59 C 135.75 115.79 134.76 114.99 133.79 114.18 C 133.77 108.25 131.12 102.73 128.26 97.67 Z" />
</g>
<g id="#643c21ff">
<path fill="#643c21" opacity="1.00" d=" M 58.94 101.02 C 59.79 100.54 60.63 100.05 61.47 99.54 C 62.19 101.96 62.99 104.36 63.89 106.72 C 63.16 107.83 62.46 108.98 61.80 110.14 C 58.97 107.96 59.35 104.19 58.94 101.02 Z" />
</g>
<g id="#ae784dff">
<path fill="#ae784d" opacity="1.00" d=" M 139.91 100.24 C 143.12 101.81 145.40 104.59 147.69 107.24 C 146.89 107.34 145.30 107.54 144.50 107.64 C 145.13 110.25 145.77 113.09 148.49 114.29 C 148.19 114.55 147.57 115.06 147.27 115.31 C 148.17 121.32 148.76 127.40 150.54 133.23 C 150.75 134.54 151.01 135.86 151.20 137.18 C 151.68 136.48 152.64 135.08 153.11 134.38 C 152.69 136.69 151.37 138.62 149.93 140.40 C 149.60 138.94 149.24 137.50 148.83 136.06 C 148.39 135.94 147.52 135.70 147.09 135.58 C 146.81 135.38 146.26 134.99 145.98 134.79 C 146.89 134.49 147.81 134.20 148.73 133.91 C 147.80 131.34 146.85 128.79 145.84 126.26 C 145.74 124.12 145.81 121.93 145.03 119.90 C 143.09 114.51 142.79 108.72 141.07 103.27 C 140.78 102.51 140.20 101.00 139.91 100.24 Z" />
</g>
<g id="#5d2d10ff">
<path fill="#5d2d10" opacity="1.00" d=" M 47.44 103.71 C 48.92 103.42 49.98 102.29 51.17 101.49 C 53.51 102.32 57.20 102.25 57.94 105.19 C 56.55 105.41 55.20 105.83 53.82 106.09 C 55.30 106.32 56.77 106.55 58.25 106.77 C 58.52 107.91 58.79 109.06 59.06 110.20 C 57.66 110.44 56.25 110.63 54.85 110.88 C 56.85 111.27 58.85 111.58 60.86 111.90 C 60.55 112.51 59.94 113.73 59.64 114.34 C 58.30 114.46 56.96 114.34 55.64 114.19 L 54.78 113.66 L 54.49 113.47 L 54.15 113.40 C 51.92 112.87 49.51 112.46 47.66 111.01 C 46.62 110.07 45.58 109.14 44.50 108.25 C 44.64 106.96 44.81 105.67 45.00 104.39 C 45.61 104.22 46.83 103.88 47.44 103.71 Z" />
</g>
<g id="#713a19ff">
<path fill="#713a19" opacity="1.00" d=" M 100.07 105.87 C 100.73 108.52 102.10 110.90 103.56 113.18 C 105.56 116.32 106.69 119.89 107.96 123.37 C 108.53 123.37 109.67 123.37 110.24 123.37 L 109.63 123.78 C 109.29 124.03 108.61 124.52 108.28 124.76 C 108.40 125.76 108.64 127.75 108.77 128.75 C 111.25 128.92 112.76 126.85 114.63 125.62 C 116.31 125.52 117.99 125.32 119.66 125.10 C 120.42 128.22 121.67 131.20 122.45 134.32 C 123.10 137.60 123.01 140.98 123.47 144.30 C 123.97 141.03 124.01 137.68 124.91 134.48 C 125.22 137.71 125.69 140.92 126.13 144.13 C 123.15 145.77 120.09 147.24 117.26 149.13 C 119.24 150.04 121.31 150.74 123.40 151.36 C 122.53 151.87 121.64 152.36 120.67 152.68 C 119.32 151.68 117.70 151.25 116.08 150.92 C 116.21 150.54 116.47 149.80 116.59 149.43 C 115.44 148.98 114.30 148.52 113.16 148.06 C 116.29 146.80 119.48 145.60 122.28 143.65 C 119.54 144.43 116.68 145.46 113.88 144.30 C 115.76 142.03 118.32 140.54 121.00 139.40 C 117.97 139.10 114.99 138.52 112.05 137.75 C 113.38 136.98 114.75 136.27 116.09 135.49 C 115.32 135.32 113.79 134.98 113.03 134.81 C 113.44 134.48 114.28 133.81 114.70 133.48 C 114.27 132.85 113.83 132.23 113.39 131.61 C 114.75 131.27 116.11 130.92 117.40 130.37 C 114.82 129.76 112.20 129.36 109.58 129.01 C 109.01 134.76 111.50 140.27 111.07 145.97 C 110.44 146.37 109.18 147.17 108.54 147.57 C 108.82 145.82 109.12 144.08 109.43 142.33 C 107.99 142.26 106.55 142.17 105.10 142.12 C 106.58 141.61 108.39 141.51 109.38 140.13 C 109.47 134.88 108.56 129.66 107.36 124.56 C 105.00 124.95 102.62 125.15 100.23 125.11 C 102.34 124.80 104.46 124.53 106.59 124.28 C 106.54 123.36 106.45 121.53 106.40 120.61 C 104.59 120.60 102.78 120.65 100.98 120.64 C 102.57 120.21 104.16 119.77 105.76 119.35 C 103.88 115.36 101.71 111.52 99.10 107.96 C 99.34 107.44 99.82 106.39 100.07 105.87 Z" />
</g>
<g id="#715d4dc5">
<path fill="#715d4d" opacity="0.77" d=" M 41.87 106.72 L 42.89 107.31 C 43.29 107.55 44.09 108.02 44.50 108.25 C 45.58 109.14 46.62 110.07 47.66 111.01 C 45.14 110.54 43.19 108.84 41.87 106.72 Z" />
</g>
<g id="#925a36ff">
<path fill="#925a36" opacity="1.00" d=" M 116.92 110.99 C 116.44 109.28 117.31 107.72 117.97 106.21 C 120.84 112.20 121.78 118.80 123.04 125.25 C 123.82 128.29 124.78 131.32 124.91 134.48 C 124.01 137.68 123.97 141.03 123.47 144.30 C 123.01 140.98 123.10 137.60 122.45 134.32 C 121.67 131.20 120.42 128.22 119.66 125.10 C 118.57 120.43 117.61 115.73 116.92 110.99 Z" />
</g>
<g id="#8d7f79df">
<path fill="#8d7f79" opacity="0.87" d=" M 54.15 113.40 L 54.49 113.47 L 54.78 113.66 C 54.62 113.59 54.31 113.46 54.15 113.40 Z" />
</g>
<g id="#806b61d3">
<path fill="#806b61" opacity="0.83" d=" M 153.05 112.99 L 153.90 113.23 L 154.17 114.30 L 153.57 115.08 C 153.44 114.56 153.18 113.51 153.05 112.99 Z" />
</g>
<g id="#827160d7">
<path fill="#827160" opacity="0.84" d=" M 55.64 114.19 C 56.96 114.34 58.30 114.46 59.64 114.34 C 52.98 131.45 55.93 152.62 68.84 166.06 C 74.71 172.12 83.86 175.19 91.99 172.11 C 93.31 172.72 94.69 173.04 96.15 173.07 C 94.18 174.04 92.14 174.93 89.98 175.38 C 87.16 174.80 84.31 174.55 81.44 174.71 C 79.31 173.97 77.15 173.23 74.90 172.98 C 74.66 172.52 74.19 171.60 73.96 171.14 C 71.95 170.21 69.91 169.26 67.67 169.04 C 69.58 166.71 66.05 165.66 65.08 163.93 C 63.08 160.78 61.03 157.64 59.40 154.28 C 58.76 154.51 57.49 154.96 56.86 155.19 C 57.45 154.11 58.04 153.02 58.63 151.93 C 57.28 148.84 56.30 145.57 55.87 142.23 C 55.95 135.44 55.66 128.66 55.64 121.87 C 57.13 119.88 57.14 117.73 55.07 116.19 C 55.82 115.90 57.32 115.32 58.06 115.03 C 57.46 114.82 56.25 114.40 55.64 114.19 Z" />
</g>
<g id="#713919ff">
<path fill="#713919" opacity="1.00" d=" M 136.11 119.38 C 137.65 117.81 139.29 116.34 140.93 114.87 C 142.65 118.63 143.49 122.79 145.84 126.26 C 146.85 128.79 147.80 131.34 148.73 133.91 C 147.81 134.20 146.89 134.49 145.98 134.79 C 146.26 134.99 146.81 135.38 147.09 135.58 C 145.85 135.29 144.59 135.01 143.47 134.39 C 143.20 134.23 142.66 133.90 142.39 133.74 C 141.56 133.68 140.74 133.65 139.91 133.65 C 139.58 132.09 139.32 130.51 139.07 128.94 C 140.33 128.36 141.70 128.03 142.96 127.45 C 140.71 127.15 137.74 128.10 136.16 126.07 C 138.46 125.56 140.77 125.10 143.06 124.55 C 140.55 124.41 138.04 124.31 135.53 124.16 C 135.51 123.52 135.46 122.25 135.43 121.61 C 137.26 121.54 139.10 121.45 140.93 121.37 C 139.23 121.01 137.52 120.65 135.82 120.30 L 136.11 119.38 Z" />
</g>
<g id="#543012ff">
<path fill="#543012" opacity="1.00" d=" M 150.54 133.23 C 150.21 128.13 154.46 124.50 154.77 119.62 C 156.40 124.00 155.04 129.04 153.68 133.38 C 153.64 133.45 153.58 133.60 153.55 133.67 L 153.11 134.38 C 152.64 135.08 151.68 136.48 151.20 137.18 C 151.01 135.86 150.75 134.54 150.54 133.23 Z" />
</g>
<g id="#72391aff">
<path fill="#72391a" opacity="1.00" d=" M 125.72 123.24 C 127.61 121.20 130.33 120.85 132.97 120.77 C 133.17 121.37 133.55 122.56 133.75 123.16 L 133.97 124.02 C 134.62 127.17 136.04 130.13 136.32 133.36 C 135.76 132.82 134.65 131.75 134.10 131.21 C 134.47 133.56 134.96 135.90 135.54 138.22 C 134.38 139.16 133.12 139.95 131.86 140.76 C 130.67 140.32 129.48 139.88 128.29 139.45 C 129.28 138.56 130.37 137.78 131.35 136.88 C 129.88 136.84 128.41 136.79 126.94 136.74 C 127.05 134.81 127.16 132.89 127.37 130.97 C 128.73 130.61 130.08 130.23 131.38 129.69 C 129.75 129.20 128.09 128.81 126.45 128.39 C 126.57 127.66 126.70 126.93 126.83 126.20 C 126.11 125.47 125.40 124.75 124.69 124.02 C 124.95 123.83 125.46 123.44 125.72 123.24 Z" />
</g>
<g id="#4c3c309e">
<path fill="#4c3c30" opacity="0.62" d=" M 55.18 134.97 C 55.36 130.63 54.27 126.06 55.64 121.87 C 55.66 128.66 55.95 135.44 55.87 142.23 C 54.44 140.07 55.32 137.37 55.18 134.97 Z" />
</g>
<g id="#ba845eff">
<path fill="#ba845e" opacity="1.00" d=" M 108.28 124.76 C 108.61 124.52 109.29 124.03 109.63 123.78 C 111.43 123.97 113.17 124.52 114.63 125.62 C 112.76 126.85 111.25 128.92 108.77 128.75 C 108.64 127.75 108.40 125.76 108.28 124.76 Z" />
</g>
<g id="#b98153ff">
<path fill="#b98153" opacity="1.00" d=" M 123.04 125.25 C 123.45 124.94 124.28 124.33 124.69 124.02 C 125.40 124.75 126.11 125.47 126.83 126.20 C 126.70 126.93 126.57 127.66 126.45 128.39 C 128.09 128.81 129.75 129.20 131.38 129.69 C 130.08 130.23 128.73 130.61 127.37 130.97 C 127.16 132.89 127.05 134.81 126.94 136.74 C 128.41 136.79 129.88 136.84 131.35 136.88 C 130.37 137.78 129.28 138.56 128.29 139.45 C 129.48 139.88 130.67 140.32 131.86 140.76 C 129.66 141.61 128.78 143.81 127.92 145.80 C 128.45 146.07 129.52 146.62 130.06 146.90 C 129.27 148.06 128.47 149.22 127.69 150.39 C 129.45 150.41 131.21 150.47 132.98 150.49 C 131.51 151.37 130.03 152.24 128.55 153.12 C 128.56 155.11 128.59 157.09 128.60 159.09 C 130.14 157.99 131.66 156.87 133.13 155.68 C 132.78 157.78 130.58 158.50 129.08 159.61 C 127.93 159.00 126.84 159.32 125.84 160.04 C 127.86 155.02 126.14 149.39 126.13 144.13 C 125.69 140.92 125.22 137.71 124.91 134.48 C 124.78 131.32 123.82 128.29 123.04 125.25 Z" />
</g>
<g id="#b58150ff">
<path fill="#b58150" opacity="1.00" d=" M 133.97 124.02 C 134.36 124.05 135.14 124.12 135.53 124.16 C 138.04 124.31 140.55 124.41 143.06 124.55 C 140.77 125.10 138.46 125.56 136.16 126.07 C 137.74 128.10 140.71 127.15 142.96 127.45 C 141.70 128.03 140.33 128.36 139.07 128.94 C 139.32 130.51 139.58 132.09 139.91 133.65 C 140.74 133.65 141.56 133.68 142.39 133.74 C 142.66 133.90 143.20 134.23 143.47 134.39 C 141.59 135.47 139.67 136.65 138.69 138.67 C 139.36 139.21 140.02 139.77 140.67 140.35 C 140.00 141.60 139.35 142.86 138.69 144.12 C 140.13 144.25 141.57 144.38 143.01 144.51 C 140.96 146.15 136.89 147.69 138.90 150.93 C 138.30 150.92 137.11 150.92 136.51 150.92 C 137.47 145.59 137.81 140.15 136.89 134.80 C 136.45 135.94 136.00 137.08 135.54 138.22 C 134.96 135.90 134.47 133.56 134.10 131.21 C 134.65 131.75 135.76 132.82 136.32 133.36 C 136.04 130.13 134.62 127.17 133.97 124.02 Z" />
</g>
<g id="#b77f4dff">
<path fill="#b77f4d" opacity="1.00" d=" M 109.58 129.01 C 112.20 129.36 114.82 129.76 117.40 130.37 C 116.11 130.92 114.75 131.27 113.39 131.61 C 113.83 132.23 114.27 132.85 114.70 133.48 C 114.28 133.81 113.44 134.48 113.03 134.81 C 113.79 134.98 115.32 135.32 116.09 135.49 C 114.75 136.27 113.38 136.98 112.05 137.75 C 114.99 138.52 117.97 139.10 121.00 139.40 C 118.32 140.54 115.76 142.03 113.88 144.30 C 116.68 145.46 119.54 144.43 122.28 143.65 C 119.48 145.60 116.29 146.80 113.16 148.06 C 114.30 148.52 115.44 148.98 116.59 149.43 C 116.47 149.80 116.21 150.54 116.08 150.92 C 117.70 151.25 119.32 151.68 120.67 152.68 C 117.42 153.37 115.48 156.19 113.72 158.74 C 116.18 158.55 118.63 158.34 121.08 158.18 C 119.14 159.23 117.19 160.25 115.24 161.28 C 115.64 161.62 116.43 162.31 116.83 162.65 C 115.72 163.71 114.62 164.78 113.51 165.84 C 114.28 166.07 115.82 166.53 116.60 166.76 C 116.74 167.03 117.03 167.57 117.17 167.84 C 116.62 167.55 115.51 166.97 114.95 166.68 C 113.40 167.41 111.69 167.89 110.37 169.06 C 109.15 169.42 107.93 169.77 106.71 170.11 C 108.17 169.33 109.63 168.54 111.11 167.80 C 112.55 164.14 112.47 160.18 112.02 156.34 C 110.12 156.53 108.17 156.57 106.33 157.13 C 104.91 159.29 103.82 161.63 102.58 163.89 C 102.42 162.95 102.21 162.01 101.97 161.09 C 103.07 160.21 104.84 159.10 102.61 158.30 C 103.94 157.60 105.21 156.80 106.51 156.04 C 108.41 155.19 110.43 154.62 112.43 154.04 C 112.35 151.88 111.73 149.79 110.12 148.27 C 109.62 148.69 108.62 149.53 108.12 149.95 C 108.26 149.15 108.40 148.36 108.54 147.57 C 109.18 147.17 110.44 146.37 111.07 145.97 C 111.50 140.27 109.01 134.76 109.58 129.01 Z" />
</g>
<g id="#6c5e53bd">
<path fill="#6c5e53" opacity="0.74" d=" M 153.55 133.67 C 153.58 133.60 153.64 133.45 153.68 133.38 C 153.64 133.45 153.58 133.60 153.55 133.67 Z" />
</g>
<g id="#5d2d0fff">
<path fill="#5d2d0f" opacity="1.00" d=" M 135.54 138.22 C 136.00 137.08 136.45 135.94 136.89 134.80 C 137.81 140.15 137.47 145.59 136.51 150.92 C 137.11 150.92 138.30 150.92 138.90 150.93 L 139.59 151.07 C 139.59 152.25 137.30 151.81 136.50 152.48 C 135.27 153.43 134.26 154.62 133.13 155.68 C 131.66 156.87 130.14 157.99 128.60 159.09 C 128.59 157.09 128.56 155.11 128.55 153.12 C 130.03 152.24 131.51 151.37 132.98 150.49 C 131.21 150.47 129.45 150.41 127.69 150.39 C 128.47 149.22 129.27 148.06 130.06 146.90 C 129.52 146.62 128.45 146.07 127.92 145.80 C 128.78 143.81 129.66 141.61 131.86 140.76 C 133.12 139.95 134.38 139.16 135.54 138.22 Z" />
</g>
<g id="#5d2c11ff">
<path fill="#5d2c11" opacity="1.00" d=" M 138.69 138.67 C 139.67 136.65 141.59 135.47 143.47 134.39 C 144.59 135.01 145.85 135.29 147.09 135.58 C 147.52 135.70 148.39 135.94 148.83 136.06 C 149.24 137.50 149.60 138.94 149.93 140.40 L 149.95 140.49 C 148.81 140.57 148.15 141.24 147.98 142.50 C 146.35 145.57 143.20 147.56 141.17 150.39 C 140.77 150.56 139.98 150.90 139.59 151.07 L 138.90 150.93 C 136.89 147.69 140.96 146.15 143.01 144.51 C 141.57 144.38 140.13 144.25 138.69 144.12 C 139.35 142.86 140.00 141.60 140.67 140.35 C 140.02 139.77 139.36 139.21 138.69 138.67 Z" />
</g>
<g id="#5f2b0eff">
<path fill="#5f2b0e" opacity="1.00" d=" M 117.26 149.13 C 120.09 147.24 123.15 145.77 126.13 144.13 C 126.14 149.39 127.86 155.02 125.84 160.04 C 124.59 161.47 122.93 162.44 121.43 163.56 L 120.74 163.72 C 119.39 163.86 118.15 164.90 118.00 166.29 L 116.60 166.76 C 115.82 166.53 114.28 166.07 113.51 165.84 C 114.62 164.78 115.72 163.71 116.83 162.65 C 116.43 162.31 115.64 161.62 115.24 161.28 C 117.19 160.25 119.14 159.23 121.08 158.18 C 118.63 158.34 116.18 158.55 113.72 158.74 C 115.48 156.19 117.42 153.37 120.67 152.68 C 121.64 152.36 122.53 151.87 123.40 151.36 C 121.31 150.74 119.24 150.04 117.26 149.13 Z" />
</g>
<g id="#662e10ff">
<path fill="#662e10" opacity="1.00" d=" M 108.12 149.95 C 108.62 149.53 109.62 148.69 110.12 148.27 C 111.73 149.79 112.35 151.88 112.43 154.04 C 110.43 154.62 108.41 155.19 106.51 156.04 C 106.54 155.47 106.60 154.33 106.63 153.75 C 104.90 154.07 103.20 154.83 101.41 154.63 C 103.88 153.18 108.31 153.96 108.12 149.95 Z" />
</g>
<g id="#5f2c10ff">
<path fill="#5f2c10" opacity="1.00" d=" M 106.33 157.13 C 108.17 156.57 110.12 156.53 112.02 156.34 C 112.47 160.18 112.55 164.14 111.11 167.80 C 109.63 168.54 108.17 169.33 106.71 170.11 L 106.12 170.41 C 104.94 170.22 104.02 169.65 103.36 168.68 C 102.02 168.77 100.67 168.85 99.34 168.95 C 101.13 167.67 103.03 166.54 105.02 165.59 C 104.31 165.36 102.91 164.91 102.20 164.68 L 102.58 163.89 C 103.82 161.63 104.91 159.29 106.33 157.13 Z" />
</g>
<g id="#936842ff">
<path fill="#936842" opacity="1.00" d=" M 98.56 165.57 C 99.90 165.01 101.25 164.47 102.58 163.89 L 102.20 164.68 C 102.91 164.91 104.31 165.36 105.02 165.59 C 103.03 166.54 101.13 167.67 99.34 168.95 C 100.67 168.85 102.02 168.77 103.36 168.68 C 104.02 169.65 104.94 170.22 106.12 170.41 C 103.90 171.55 101.63 172.59 99.52 173.94 C 98.45 173.45 97.35 173.01 96.15 173.07 C 94.69 173.04 93.31 172.72 91.99 172.11 C 94.87 170.64 97.46 168.68 99.93 166.61 C 99.59 166.35 98.90 165.83 98.56 165.57 Z" />
</g>
<g id="#665952bf">
<path fill="#665952" opacity="0.75" d=" M 118.00 166.29 C 118.15 164.90 119.39 163.86 120.74 163.72 C 121.13 165.08 119.30 166.67 118.00 166.29 Z" />
</g>
</svg>
